<svg width="259" height="46" fill="none" xmlns="http://www.w3.org/2000/svg"><path d="M9.06 31.817l13.626 13.357L45.178 22.22l-4.53-4.452L22.84 35.924l-4.53-4.454 17.81-18.155-4.53-4.452L9.06 31.817zM22.501 0L0 22.928l4.273 4.194L26.775 4.194 22.5 0zm56.311 12.22v2.885H68.114v5.21h9.937v2.764h-9.937v5.77h10.858v2.925H64.709V12.22h14.104zm3.206 0h8.935c2.043 0 3.646.441 4.728 1.322 1.082.882 1.643 2.084 1.643 3.607 0 .921-.24 1.763-.761 2.524a4.23 4.23 0 0 1-2.044 1.603c1.122.28 2.043.841 2.685 1.643.64.841 1.001 1.843 1.001 3.125 0 1.723-.56 3.125-1.723 4.167-1.162 1.082-2.644 1.603-4.487 1.603h-9.977V12.22zm3.365 2.765v5.41h4.689c1.322 0 2.283-.201 2.924-.602.642-.4.922-1.122.922-2.083 0-1.082-.32-1.844-.962-2.164-.64-.36-1.562-.521-2.764-.521h-4.809v-.04zm0 7.893v6.13h5.13c1.322 0 2.363-.2 3.124-.64.762-.44 1.123-1.242 1.123-2.404 0-.641-.12-1.162-.361-1.603-.24-.44-.561-.761-1.002-.962a5.55 5.55 0 0 0-1.322-.4c-.44-.08-1.002-.12-1.643-.12h-5.049zm16.108-10.658h8.494c2.124 0 3.767.481 5.009 1.483 1.202 1.002 1.843 2.484 1.843 4.487 0 1.884-.561 3.366-1.723 4.448-1.122 1.082-2.684 1.643-4.648 1.643h-5.529v7.533h-3.446V12.22zm3.446 2.845v6.411h4.808c2.484 0 3.726-1.082 3.726-3.205 0-2.124-1.362-3.206-4.046-3.206h-4.488zm23.28-3.325c2.764 0 5.008.961 6.771 2.844 1.723 1.884 2.605 4.368 2.605 7.413s-.882 5.53-2.605 7.413c-1.763 1.883-4.007 2.844-6.812 2.844-2.804 0-5.088-.961-6.811-2.844-1.723-1.884-2.605-4.368-2.605-7.413 0-2.965.842-5.41 2.565-7.373 1.683-1.923 3.967-2.885 6.892-2.885zm-.041 2.884c-1.803 0-3.245.681-4.327 2.004-1.082 1.322-1.643 3.125-1.643 5.329 0 2.284.521 4.087 1.603 5.41 1.082 1.321 2.524 2.002 4.408 2.002 1.763 0 3.205-.68 4.287-2.003 1.082-1.322 1.603-3.125 1.603-5.37 0-2.243-.521-4.006-1.603-5.368-1.082-1.322-2.524-2.004-4.328-2.004zm32.897-2.404v19.594h-3.286V16.708l-5.449 15.106h-2.805l-5.57-15.106v15.106h-3.285V12.22h4.808l5.489 15.347 5.289-15.347h4.809zm12.541-.48c2.765 0 5.009.961 6.772 2.844 1.723 1.884 2.604 4.368 2.604 7.413s-.881 5.53-2.604 7.413c-1.763 1.883-4.007 2.844-6.812 2.844-2.805 0-5.089-.961-6.812-2.844-1.723-1.884-2.604-4.368-2.604-7.413 0-2.965.841-5.41 2.564-7.373 1.683-1.923 3.967-2.885 6.892-2.885zm-.04 2.884c-1.803 0-3.246.681-4.327 2.004-1.082 1.322-1.643 3.125-1.643 5.329 0 2.284.521 4.087 1.603 5.41 1.081 1.321 2.524 2.002 4.407 2.002 1.763 0 3.206-.68 4.287-2.003 1.082-1.322 1.603-3.125 1.603-5.37 0-2.243-.521-4.006-1.603-5.368-1.081-1.322-2.524-2.004-4.327-2.004zm28.529 11.099c0 1.964-.601 3.446-1.763 4.488-1.162 1.042-2.805 1.563-4.929 1.563h-9.296V12.22h14.425v2.965h-10.979v4.528h5.85c2.164 0 3.807.52 4.969 1.563 1.162 1.041 1.723 2.524 1.723 4.447zm-3.446.08c0-1.041-.321-1.843-.922-2.404-.601-.6-1.442-.881-2.524-.881h-5.65v6.49h5.73c2.244 0 3.366-1.08 3.366-3.205zm15.747-13.623l7.573 19.634h-3.687l-1.883-5.21h-7.773l-1.923 5.21h-3.526l7.573-19.634h3.646zm1.082 11.86l-2.925-8.254-3.046 8.255h5.971zm8.254 7.774V12.22h3.446v15.026L235.6 12.22h4.007v19.594h-3.446V16.788l-8.414 15.026h-4.007zm12.461-24.562c-.16 1.322-.601 2.284-1.322 2.925-.721.64-1.803.961-3.206.961-1.402 0-2.444-.32-3.205-.961-.721-.641-1.162-1.603-1.322-2.925h1.602c.361 1.402 1.323 2.083 2.925 2.083 1.603 0 2.565-.68 2.925-2.083h1.603zM259 31.814h-3.446V15.185h-6.05l-.361 9.336c-.12 2.605-.641 4.528-1.563 5.77-.961 1.242-2.163 1.883-3.686 1.883-.641 0-1.362-.12-2.083-.36v-2.645c.36.16.801.2 1.362.2s.962-.12 1.282-.4c.321-.24.641-.842.882-1.723.24-.882.4-2.124.48-3.686l.401-11.38H259v19.634zM68.234 38.545v.641h-1.362v3.647h-.761v-3.647h-1.363v-.64h3.486zm6.371 0v.641H72.24v1.162h2.204v.601H72.24v1.282h2.404v.642H71.52v-4.328h3.085zm2.965 4.328l1.523-2.244-1.443-2.084h.922l.961 1.523 1.042-1.523h.842l-1.443 2.084 1.523 2.244h-.922l-1.082-1.643-1.081 1.643h-.842zm10.618-4.328v4.328h-.761v-1.924h-1.963v1.924h-.762v-4.328h.762v1.723h1.963v-1.723h.761zm5.53-.12c.6 0 1.122.2 1.482.641.36.44.561.962.561 1.643s-.2 1.202-.56 1.643c-.401.4-.882.64-1.483.64-.601 0-1.122-.2-1.483-.64-.4-.401-.56-.962-.56-1.643 0-.641.2-1.202.56-1.603.36-.4.842-.681 1.483-.681zm-.04.641c-.401 0-.722.16-.962.44-.24.281-.36.682-.36 1.163 0 .52.12.881.36 1.202.24.28.56.44.962.44.4 0 .72-.16.961-.44.24-.28.36-.681.36-1.202 0-.481-.12-.882-.36-1.162a1.22 1.22 0 0 0-.961-.44zm8.895 3.807h-.762v-3.647h-1.322l-.08 2.044c-.04.56-.16 1.002-.361 1.282-.2.28-.48.4-.801.4-.16 0-.28-.04-.44-.08v-.6c.08.04.16.04.28.04.12 0 .2-.04.28-.08.08-.04.12-.2.2-.361.04-.2.08-.48.12-.802l.08-2.484h2.806v4.288zm5.489-4.448c.601 0 1.122.2 1.483.641.36.44.561.962.561 1.643s-.201 1.202-.561 1.643c-.401.4-.882.64-1.483.64-.601 0-1.122-.2-1.482-.64-.401-.401-.561-.962-.561-1.643 0-.641.2-1.202.561-1.603.36-.4.841-.681 1.482-.681zm0 .641c-.401 0-.721.16-.961.44-.241.281-.361.682-.361 1.163 0 .52.12.881.361 1.202.24.28.56.44.961.44.401 0 .721-.16.962-.44.24-.28.36-.681.36-1.202 0-.481-.12-.882-.36-1.162a1.22 1.22 0 0 0-.962-.44zm6.251 3.807h-.761v-4.328h2.925v.641h-2.164v3.687zm5.369 0v-4.328h.761v3.326l1.843-3.326h.882v4.328h-.761v-3.326l-1.843 3.326h-.882zm7.132 0v-4.328h.761v3.326l1.844-3.326h.881v4.328h-.761v-3.326l-1.843 3.326h-.882zm15.106-1.363c0 .441-.12.762-.401 1.002-.24.24-.601.36-1.082.36h-2.043v-4.327h3.165v.641h-2.404v1.002h1.282c.481 0 .842.12 1.082.36.241.2.401.561.401.962zm-.761.04c0-.24-.08-.4-.201-.52-.12-.12-.32-.2-.561-.2h-1.242v1.442h1.242c.481-.04.762-.28.762-.722zm7.332-3.005v.641h-2.364v1.162h2.204v.601h-2.204v1.282h2.404v.642h-3.125v-4.328h3.085zm7.132 2.685c-.04.52-.24.961-.561 1.282-.32.32-.761.48-1.322.48-.601 0-1.082-.2-1.482-.6-.401-.4-.561-.962-.561-1.643 0-.4.08-.801.24-1.122.16-.32.401-.601.721-.801.321-.2.681-.32 1.122-.32.441 0 .842.12 1.202.36.321.24.561.6.601 1.082h-.761c-.04-.24-.16-.481-.361-.601-.2-.16-.44-.24-.721-.24-.28 0-.521.08-.721.24-.2.16-.361.36-.441.6-.08.241-.12.481-.12.762 0 .2.04.4.08.6.04.201.12.361.2.522.081.16.241.28.401.36.16.08.361.12.601.12.641 0 1.002-.36 1.122-1.121h.761v.04zm6.932-2.685v4.328h-.761v-3.647h-1.963v3.647h-.762v-4.328h3.486zm3.646 0h1.884c.48 0 .841.12 1.081.32.281.201.401.562.401 1.002 0 .401-.12.722-.36.962-.241.24-.601.36-1.042.36h-1.202v1.644h-.762v-4.288zm.762.641v1.403h1.041c.561 0 .842-.24.842-.722 0-.48-.281-.72-.882-.72h-1.001v.04zm7.853-.761c.601 0 1.122.2 1.483.641.4.4.561.962.561 1.643s-.201 1.202-.561 1.643c-.401.4-.882.64-1.483.64-.601 0-1.122-.2-1.482-.64-.401-.401-.561-.962-.561-1.643 0-.641.2-1.202.561-1.603.36-.44.841-.681 1.482-.681zm0 .641c-.401 0-.721.16-.962.44-.24.281-.36.682-.36 1.163 0 .52.12.881.36 1.202.241.28.561.44.962.44.401 0 .721-.16.962-.44.24-.28.36-.681.36-1.202 0-.481-.12-.882-.36-1.162a1.22 1.22 0 0 0-.962-.44zm5.49-.521h1.963c.441 0 .801.08 1.042.28.24.201.36.441.36.802 0 .2-.04.4-.16.561-.12.16-.28.28-.441.36.241.08.441.2.601.361.161.2.201.4.201.681 0 .361-.121.681-.361.922-.24.24-.561.36-1.002.36h-2.203v-4.327zm.761.601v1.202h1.042c.28 0 .521-.04.641-.12.12-.08.2-.24.2-.44 0-.241-.08-.401-.2-.481a1.34 1.34 0 0 0-.601-.12h-1.082v-.04zm0 1.723v1.362h1.122c.28 0 .521-.04.681-.16.16-.08.24-.28.24-.52 0-.161-.04-.241-.08-.361a.482.482 0 0 0-.2-.2.741.741 0 0 0-.281-.08c-.08 0-.2-.04-.36-.04h-1.122zm8.134-2.444c.601 0 1.122.2 1.482.641.401.4.561.962.561 1.643s-.2 1.202-.561 1.643c-.4.4-.881.64-1.482.64s-1.122-.2-1.483-.64c-.4-.401-.561-.962-.561-1.643 0-.641.201-1.202.561-1.603.321-.44.842-.681 1.483-.681zm-.04.641c-.401 0-.721.16-.962.44-.24.281-.36.682-.36 1.163 0 .52.12.881.36 1.202.241.28.561.44.962.44.4 0 .721-.16.961-.44.241-.28.361-.681.361-1.202 0-.481-.12-.882-.361-1.162a1.22 1.22 0 0 0-.961-.44zm9.376 4.848h-.722v-1.081h-2.804v1.081h-.722v-1.723h.401c.16-.28.321-.72.401-1.282.12-.56.16-1.122.16-1.723v-.68h2.805v3.645h.481v1.763zm-1.242-1.723v-3.005h-1.323v.28a6.91 6.91 0 0 1-.16 1.563c-.08.521-.2.922-.361 1.202h1.844v-.04zm7.973-3.646v4.328h-.761v-1.924h-1.963v1.924h-.762v-4.328h.762v1.723h1.963v-1.723h.761zm5.489-.12c.601 0 1.122.2 1.483.641.401.4.561.962.561 1.643s-.2 1.202-.561 1.643c-.401.4-.882.64-1.483.64-.601 0-1.122-.2-1.482-.64-.401-.401-.561-.962-.561-1.643 0-.641.2-1.202.561-1.603.36-.44.841-.681 1.482-.681zm0 .641c-.4 0-.721.16-.961.44-.241.281-.361.682-.361 1.163 0 .52.12.881.361 1.202.24.28.561.44.961.44.401 0 .722-.16.962-.44s.361-.681.361-1.202c0-.481-.121-.882-.361-1.162a1.22 1.22 0 0 0-.962-.44zm5.49 3.807v-4.328h.761v3.326l1.843-3.326h.882v4.328h-.762v-3.326l-1.843 3.326h-.881zm2.724-5.41c-.04.28-.12.521-.28.641-.16.12-.401.2-.721.2-.321 0-.561-.08-.721-.2-.161-.12-.241-.36-.281-.64h.361c.08.32.28.44.641.44.36 0 .561-.16.641-.44h.36zm12.542 3.767c-.04.52-.24.961-.561 1.282-.32.32-.761.48-1.322.48-.601 0-1.082-.2-1.483-.6-.4-.4-.561-.962-.561-1.643 0-.4.081-.801.241-1.122.16-.32.401-.601.721-.801.321-.2.681-.32 1.122-.32.441 0 .841.12 1.202.36.321.24.561.6.601 1.082h-.761c-.04-.24-.161-.481-.361-.601a1.12 1.12 0 0 0-.721-.24c-.281 0-.521.08-.721.24-.201.16-.361.36-.441.6-.08.241-.12.481-.12.762 0 .2.04.4.08.6.04.201.12.361.2.522.08.16.241.28.401.36.16.08.36.12.601.12.641 0 1.002-.36 1.122-1.121h.761v.04zm3.406-2.685h1.963c.441 0 .802.08 1.042.28.24.201.361.441.361.802 0 .2-.04.4-.161.561-.12.16-.28.28-.44.36.24.08.44.2.601.361.16.2.2.4.2.681 0 .361-.12.681-.361.922-.24.24-.561.36-1.001.36h-2.204v-4.327zm.761.601v1.202h1.042c.281 0 .521-.04.641-.12.12-.08.2-.24.2-.44 0-.241-.08-.401-.2-.481a1.34 1.34 0 0 0-.601-.12h-1.082v-.04zm0 1.723v1.362h1.122c.281 0 .521-.04.681-.16.161-.08.241-.28.241-.52 0-.161-.04-.241-.08-.361a.485.485 0 0 0-.201-.2.742.742 0 0 0-.28-.08c-.08 0-.201-.04-.361-.04h-1.122zm9.496 2.004h-.721v-1.764h-.842l-1.242 1.764h-.961l1.322-1.844c-.361-.12-.601-.28-.721-.48a1.57 1.57 0 0 1-.201-.802c0-.36.121-.64.361-.881.24-.24.601-.32 1.042-.32h1.963v4.327zm-.721-2.364v-1.363h-1.122c-.24 0-.441.04-.561.16-.12.12-.2.28-.2.481 0 .481.24.681.721.681h1.162v.04zm7.573 1.081c0 .16-.04.28-.08.441-.04.16-.16.28-.281.44-.12.161-.28.241-.521.362-.24.08-.48.12-.761.12-.561 0-.962-.12-1.322-.401-.321-.24-.521-.641-.521-1.122h.761c0 .32.121.561.321.681.2.16.481.24.801.24.281 0 .481-.08.641-.2.161-.12.201-.32.201-.56a.692.692 0 0 0-.201-.522c-.16-.12-.32-.16-.601-.16h-.521v-.6h.521a.664.664 0 0 0 .481-.201c.12-.12.2-.28.2-.481 0-.2-.08-.32-.2-.44-.12-.12-.32-.161-.561-.161-.601 0-.881.24-.921.761h-.722c0-.44.161-.801.481-1.041.281-.24.681-.321 1.162-.321.441 0 .842.08 1.122.28.281.2.441.481.441.882 0 .2-.08.4-.201.601-.16.16-.32.28-.48.32.24.04.44.16.601.361.08.24.16.481.16.721zm3.446 1.283v-4.328h.761v3.326l1.843-3.326h.882v4.328h-.762v-3.326l-1.843 3.326h-.881z" fill="#1D2E7A"/></svg>