<svg width="120" height="110" fill="none" xmlns="http://www.w3.org/2000/svg"><path d="M1.125 36.063c.375 0 .75-.376.75-.75v-9.094a.64.64 0 0 0-.656-.657.64.64 0 0 0-.656.657v9.093c-.094.376.187.75.562.75zm0 7.5a.64.64 0 0 0 .656-.657v-3.281a.64.64 0 0 0-.656-.656.64.64 0 0 0-.656.656v3.281a.64.64 0 0 0 .656.657zm117.75 14.156a.64.64 0 0 0-.656.656v9.094a.64.64 0 0 0 .656.656.64.64 0 0 0 .656-.656v-9.094a.64.64 0 0 0-.656-.656zm0 13.406a.64.64 0 0 0-.656.656v3.281a.64.64 0 0 0 .656.657.64.64 0 0 0 .656-.656V71.78a.64.64 0 0 0-.656-.656zM73.313 34.563c0 1.874 1.593 3.468 3.468 3.468s3.469-1.593 3.469-3.468c0-1.876-1.594-3.47-3.469-3.47-1.875 0-3.469 1.595-3.469 3.47zm5.53 0a2.08 2.08 0 0 1-2.062 2.062 2.08 2.08 0 0 1-2.062-2.063A2.08 2.08 0 0 1 76.78 32.5a2.08 2.08 0 0 1 2.063 2.063zM3.938 77.875c-1.876 0-3.47 1.594-3.47 3.469 0 1.875 1.595 3.469 3.47 3.469 1.874 0 3.468-1.594 3.468-3.47a3.46 3.46 0 0 0-3.468-3.468zm0 5.531a2.08 2.08 0 0 1-2.063-2.062 2.08 2.08 0 0 1 2.063-2.063A2.08 2.08 0 0 1 6 81.344a2.08 2.08 0 0 1-2.063 2.062zM25.875 5.781a.64.64 0 0 0 .656.657h11.344a.64.64 0 0 0 .656-.657.64.64 0 0 0-.656-.656H26.531a.64.64 0 0 0-.656.656zm-6.75.657h3.656a.64.64 0 0 0 .657-.657.64.64 0 0 0-.657-.656h-3.656a.64.64 0 0 0-.656.656.64.64 0 0 0 .656.657zm0-3.844H27a.64.64 0 0 0 .656-.656A.64.64 0 0 0 27 1.28h-7.875a.64.64 0 0 0-.656.657.64.64 0 0 0 .656.656zm11.344 0H33a.64.64 0 0 0 .656-.656A.64.64 0 0 0 33 1.28h-2.531a.64.64 0 0 0-.657.657.64.64 0 0 0 .657.656zM102.656 104.5a.64.64 0 0 0-.656-.656H90.656a.64.64 0 0 0-.656.656.64.64 0 0 0 .656.656H102c.375.094.656-.281.656-.656zm6.75-.656h-3.656a.64.64 0 0 0-.656.656.64.64 0 0 0 .656.656h3.656a.641.641 0 0 0 .657-.656.641.641 0 0 0-.657-.656zm0 3.844h-7.875a.64.64 0 0 0-.656.656.64.64 0 0 0 .656.656h7.875a.641.641 0 0 0 .657-.656c0-.281-.282-.656-.657-.656zm-11.343 0H95.53a.64.64 0 0 0-.656.656.64.64 0 0 0 .656.656h2.531a.64.64 0 0 0 .657-.656c.094-.281-.281-.656-.656-.656zm12.749-105a.718.718 0 0 0 .469.187.716.716 0 0 0 .469-.188c.281-.28.281-.75 0-.937l-1.5-1.5c-.281-.281-.75-.281-.938 0-.281.281-.281.75 0 .938l1.5 1.5zm4.313 2.25c-.281-.282-.75-.282-.937 0-.282.28-.282.75 0 .937l1.5 1.5a.713.713 0 0 0 .468.188.716.716 0 0 0 .469-.188c.281-.281.281-.75 0-.938l-1.5-1.5zm-5.25 2.718a.716.716 0 0 0 .469-.187l1.5-1.5c.281-.282.281-.75 0-.938-.281-.281-.75-.281-.938 0l-1.5 1.5c-.281.282-.281.75 0 .938a.718.718 0 0 0 .469.187zM115.594.25l-1.5 1.5c-.282.281-.282.75 0 .938a.716.716 0 0 0 .469.187.713.713 0 0 0 .468-.188l1.5-1.5c.282-.28.282-.75 0-.937-.281-.281-.656-.281-.937 0zM10.313 102.625c-.282-.281-.75-.281-.938 0-.187.281-.281.75 0 .937l1.5 1.5a.715.715 0 0 0 .469.188.715.715 0 0 0 .469-.188c.28-.281.28-.75 0-.937l-1.5-1.5zM15 107.312c-.281-.281-.75-.281-.938 0-.28.282-.28.75 0 .938l1.5 1.5a.715.715 0 0 0 .47.187.714.714 0 0 0 .468-.187c.281-.281.281-.75 0-.938l-1.5-1.5zm-4.219 0l-1.5 1.5c-.281.282-.281.75 0 .938a.715.715 0 0 0 .469.187.715.715 0 0 0 .469-.187l1.5-1.5c.281-.281.281-.75 0-.938-.188-.281-.656-.281-.938 0zm4.782-4.687l-1.5 1.5c-.282.281-.282.75 0 .937a.715.715 0 0 0 .468.188.715.715 0 0 0 .469-.188l1.5-1.5c.281-.281.281-.75 0-.937-.281-.281-.656-.281-.938 0zm93.468-83.25c-3.468-.094-7.687 4.219-8.062 9.938-.094 1.312-.094 3.093 0 5.062 0 6.75.094 16.313-2.719 22.125-.188-1.031-.563-2.063-1.406-2.906-2.344-2.344-6.094-2.438-8.438-.094L71.062 70.375c-1.593 1.594-2.53 3.75-2.53 6v9.844h-1.594a4.401 4.401 0 0 0-4.407 4.406V98.5c0 .188.094.375.282.563a.716.716 0 0 0 .468.187h.188c.187 0 15-3.375 33.281 0 .188 0 .375 0 .563-.188.187-.093.28-.28.28-.562v-7.875a4.401 4.401 0 0 0-4.406-4.406H91.5v-1.781c0-1.22.469-2.438 1.313-3.188l16.968-13.125a9.934 9.934 0 0 0 2.907-7.031V24.53c0-4.687-2.813-5.062-3.657-5.156zM93 87.625c1.688 0 3 1.313 3 3v7.031a94.844 94.844 0 0 0-16.219-1.406c-7.969 0-13.781.938-15.937 1.313v-6.938c0-1.688 1.312-3 3-3H93zm18.375-26.531c0 2.25-.937 4.406-2.437 6l-17.25 13.125c-1.126 1.125-1.782 2.625-1.782 4.219v1.78H69.937v-9.843c0-1.875.75-3.656 2.063-4.969l17.344-16.875c1.781-1.781 4.781-1.687 6.562.094 1.5 1.5 1.406 3.938-.094 5.344l-4.78 4.593c-.282.282-.282.657 0 .938.28.281.656.281.937 0l4.781-4.594c5.719-5.156 5.625-18 5.531-26.531v-4.969c.281-5.25 4.125-8.625 6.563-8.625h.094c2.062.094 2.343 2.438 2.343 3.75v36.563h.094zM52.219 86.219h-1.594v-9.844c0-2.25-.938-4.406-2.531-6L30.75 53.5c-2.344-2.344-6.188-2.25-8.438.094-.843.843-1.218 1.875-1.406 2.906-2.812-5.906-2.718-15.375-2.718-22.125v-5.063c-.375-5.718-4.594-10.03-8.063-9.937-.844 0-3.656.469-3.656 5.156V61c0 2.625 1.031 5.156 3 7.125L26.437 81.25c.844.844 1.407 2.063 1.407 3.281v1.781h-1.688a4.401 4.401 0 0 0-4.406 4.407v7.875c0 .187.094.375.281.562a.717.717 0 0 0 .469.188h.094c18.281-3.375 33.093 0 33.281 0 .188.094.375 0 .563-.094.187-.094.28-.375.28-.563v-8.062c-.093-2.438-2.062-4.406-4.5-4.406zm-24.844-6L10.312 67.094A8.578 8.578 0 0 1 7.783 61V24.531c0-1.406.28-3.75 2.343-3.75h.094c2.437 0 6.281 3.375 6.562 8.625.094 1.313.094 3 0 4.969-.093 8.531-.093 21.469 5.532 26.531l4.78 4.594c.282.281.75.281.938 0 .282-.281.282-.75 0-.938L23.25 59.97a3.822 3.822 0 0 1-.094-5.344c1.782-1.875 4.688-1.875 6.563-.094l17.343 16.875a7.024 7.024 0 0 1 2.063 4.969v9.844H29.25v-1.781c0-1.594-.656-3.094-1.875-4.22zm27.938 17.437c-3.376-.656-16.407-2.719-32.157 0v-7.031c0-1.688 1.313-3 3-3H52.22c1.687 0 3 1.313 3 3v7.031h.093z" fill="#616161"/><path d="M65.813 25.563c3.187 0 5.812-1.22 8.624-2.532 6.094-2.906 12.75-5.25 20.438-7.125.375-.094.563-.469.469-.75-.094-.375-.375-.656-.75-.562-4.969.375-10.688-3.75-14.813-6.75-.469-.375-.937-.657-1.406-1.032-4.406-3.093-10.313-4.406-14.906-3.187-3.375.844-5.907 3-7.407 6.188-1.312 2.812-1.406 6.187-.187 9.093-2.813 5.907-2.438 13.782-2.438 14.063v2.906c-.656-1.406-1.687-3-3.093-4.406.468-2.438-.188-4.969-1.875-6.844-1.688-1.781-3.844-2.719-6.188-2.625-3.281.094-6.937 2.063-9.187 5.063-.188.28-.469.562-.75.937-2.063 2.719-4.969 6.469-8.157 7.125-.375.094-.562.375-.562.75s.375.656.75.563c5.344-.282 10.125 0 14.625.656 1.219.187 2.344.375 3.469.375 1.218 0 2.437-.188 3.75-.75 1.687-.75 2.906-2.063 3.656-3.657 2.625 2.907 3.469 6.657 3.563 7.032v16.781a.64.64 0 0 0 .656.656.64.64 0 0 0 .656-.656V32.969c0-.094-.281-6.938 1.875-12.469 1.688 2.719 4.313 4.5 7.5 4.875.656.094 1.125.188 1.688.188zM49.218 30.53c-1.219-.937-2.625-1.687-4.313-2.062-.093 0-2.718-.657-5.906.937-.375.188-.469.563-.281.938.187.375.562.468.937.281 2.719-1.406 4.875-.844 4.875-.844 1.782.469 3.188 1.219 4.313 2.25-.469 1.594-1.594 2.813-3.094 3.469-2.156.938-4.125.656-6.469.281a76.49 76.49 0 0 0-10.687-.75h-.938c2.344-1.593 4.313-4.218 5.813-6.187.281-.282.468-.657.656-.938 1.688-2.156 4.875-4.406 8.156-4.5 2.063-.093 3.75.657 5.157 2.25 1.312 1.407 1.874 3.094 1.78 4.875zm8.437-11.062l-.281-.563c.563-1.125 1.688-2.437 3.188-3.562.75 0 4.218 0 6.562 1.969a.716.716 0 0 0 .469.187c.187 0 .375-.094.562-.281.281-.282.188-.75-.094-.938-1.687-1.406-3.843-1.968-5.437-2.156A10.801 10.801 0 0 1 68.438 13c2.062.188 4.78.563 7.874 2.438.282.187.75.093.938-.282.188-.281.094-.75-.281-.937-3.281-1.969-6.281-2.438-8.531-2.625-3.376-.281-6.282.937-8.532 2.531-1.406 1.031-2.531 2.156-3.281 3.281a9.874 9.874 0 0 1 .563-6.937C58.5 7.656 60.75 5.78 63.75 5.03c1.031-.281 2.156-.375 3.281-.375 3.844 0 7.781 1.5 10.406 3.375.47.281.938.656 1.407.938 3.375 2.437 7.594 5.437 11.906 6.562-6.281 1.781-11.906 3.844-17.063 6.281-3.187 1.5-5.812 2.813-9.468 2.344a9.337 9.337 0 0 1-6.563-4.687z" fill="#5182DD"/></svg>