<svg width="120" height="120" fill="none" xmlns="http://www.w3.org/2000/svg"><path d="M67.313 28.687l1.312.938-9.844 14.531c-1.593.188-2.812 1.594-2.812 3.188 0 1.593 1.218 3 2.812 3.187l9.375 13.688H64.97a2.72 2.72 0 0 0-2.719 2.718v2.25h-3.188a.84.84 0 0 0-.843.844.84.84 0 0 0 .843.844H80.25a.84.84 0 0 0 .844-.844.84.84 0 0 0-.844-.844h-3.188v-2.25a2.72 2.72 0 0 0-2.718-2.718H70.03l-9.469-13.97c1.126-.468 1.876-1.687 1.876-3 0-1.312-.75-2.437-1.876-3l9.376-13.78 2.624 1.875 5.157 13.125a.705.705 0 0 0 .656.468h.094c.281 0 .469-.093.656-.375l3.094-4.406c.656.281 1.406.469 2.156.469 2.063 0 4.219-1.125 5.719-3.188 1.031-1.5 1.594-3.187 1.5-4.875-.094-1.406-.563-2.625-1.5-3.468l3.094-4.407c.187-.28.187-.562.093-.843a.705.705 0 0 0-.656-.47l-14.063-.655-5.25-3.75c-2.343-1.688-5.624-1.125-7.218 1.218-1.688 2.625-1.125 5.907 1.219 7.5zm8.156 38.344v2.25H63.844v-2.25c0-.562.468-1.125 1.125-1.125h9.469c.562 0 1.03.469 1.03 1.125zM59.25 48.937a1.58 1.58 0 0 1-1.594-1.593c0-.844.75-1.594 1.594-1.594.844 0 1.594.75 1.594 1.594 0 .843-.75 1.593-1.594 1.593zm30.75-15c.094 1.313-.375 2.625-1.219 3.844-1.5 2.063-3.844 3-5.531 2.344l6-8.344c.375.469.656 1.219.75 2.156zm-22.594-11.53c.656-.938 1.781-1.5 2.906-1.5.75 0 1.407.187 2.063.655l5.438 3.938a.716.716 0 0 0 .468.187l12.844.563-12.469 17.344-4.687-11.907c-.094-.187-.188-.28-.281-.375l-5.438-3.937c-1.594-1.125-1.969-3.375-.844-4.969z" fill="#616161"/><path d="M6.75 27.188h50.063a.84.84 0 0 0 .843-.844v-9a.84.84 0 0 0-.843-.844H6.75a.84.84 0 0 0-.844.844v9c.094.468.375.843.844.843zm.844-9h48.468V25.5h-5.53v-4.313a.84.84 0 0 0-.844-.843.84.84 0 0 0-.844.843V25.5h-5.438v-2.531a.84.84 0 0 0-.843-.844.84.84 0 0 0-.844.844V25.5h-5.625v-4.313a.84.84 0 0 0-.844-.843.84.84 0 0 0-.844.843V25.5H28.97v-2.531a.84.84 0 0 0-.844-.844.84.84 0 0 0-.844.844V25.5h-5.625v-4.313a.84.84 0 0 0-.843-.843.84.84 0 0 0-.844.843V25.5h-5.44v-2.531a.84.84 0 0 0-.844-.844.84.84 0 0 0-.843.844V25.5h-5.25v-7.313z" fill="#5182DD"/><path d="M1.313 24.938a.84.84 0 0 0 .843-.844V10.969a.84.84 0 0 0-.844-.844.84.84 0 0 0-.843.844v13.219c0 .375.375.75.844.75zm0 8.625a.84.84 0 0 0 .843-.844v-4.313a.84.84 0 0 0-.844-.843.84.84 0 0 0-.843.843v4.313a.84.84 0 0 0 .844.843zm115.781 52.781a.84.84 0 0 0-.844.844v13.218a.84.84 0 0 0 .844.844.84.84 0 0 0 .844-.844V87.187c-.094-.468-.469-.843-.844-.843zm0 17.531a.84.84 0 0 0-.844.844v4.312a.84.84 0 0 0 .844.844.84.84 0 0 0 .844-.844v-4.312c-.094-.469-.469-.844-.844-.844zM46.875 4.969c.188.187.375.281.563.281.187 0 .374-.094.562-.281.281-.282.281-.844 0-1.125L46.406 2.25c-.281-.281-.843-.281-1.125 0-.281.281-.281.844 0 1.125l1.594 1.594zm5.156 5.156c.188.188.375.281.563.281.187 0 .375-.094.562-.281.282-.281.282-.844 0-1.125l-1.593-1.594c-.282-.281-.844-.281-1.126 0-.28.282-.28.844 0 1.125l1.594 1.594zm-6.187.281c.187 0 .375-.094.562-.281L48 8.531c.281-.281.281-.844 0-1.125s-.844-.281-1.125 0L45.281 9c-.281.281-.281.844 0 1.125.188.188.375.281.563.281zm5.25-5.156c.187 0 .375-.094.562-.281l1.594-1.594c.281-.281.281-.844 0-1.125s-.844-.281-1.125 0l-1.594 1.594c-.281.281-.281.844 0 1.125.094.187.282.281.563.281zm36.468 105.562c-.28-.281-.843-.281-1.125 0-.28.282-.28.844 0 1.126l1.594 1.593c.188.188.375.281.563.281.187 0 .375-.093.562-.281.281-.281.281-.843 0-1.125l-1.594-1.594zm5.157 5.157c-.282-.281-.844-.281-1.125 0-.282.281-.282.844 0 1.125l1.593 1.593c.188.188.375.282.563.282.187 0 .375-.094.562-.282.282-.281.282-.843 0-1.124l-1.593-1.594zm-4.781 0l-1.594 1.594c-.281.281-.281.843 0 1.124.187.188.375.282.562.282.188 0 .375-.094.563-.282l1.594-1.593c.28-.281.28-.844 0-1.125-.282-.281-.75-.281-1.126 0zm5.249-5.157l-1.593 1.594c-.282.282-.282.844 0 1.125.187.188.375.281.562.281.188 0 .375-.093.563-.281l1.593-1.593c.282-.282.282-.844 0-1.126a.704.704 0 0 0-1.125 0zm7.501-88.218c0 2.156 1.781 3.937 3.937 3.937 2.156 0 3.938-1.781 3.938-3.937 0-2.157-1.782-3.938-3.938-3.938s-3.937 1.782-3.937 3.938zm6.187 0c0 1.218-1.031 2.25-2.25 2.25s-2.25-1.032-2.25-2.25c0-1.219 1.031-2.25 2.25-2.25 1.219-.094 2.25.937 2.25 2.25zM17.063 11.906c2.156 0 3.937-1.781 3.937-3.937 0-2.157-1.781-3.938-3.938-3.938-2.156 0-3.937 1.782-3.937 3.938s1.781 3.937 3.938 3.937zm0-6.187c1.218 0 2.25 1.031 2.25 2.25 0 1.218-1.032 2.25-2.25 2.25-1.22 0-2.25-1.031-2.25-2.25s1.03-2.25 2.25-2.25zm52.5 104.156c-2.157 0-3.938 1.781-3.938 3.938 0 2.156 1.781 3.937 3.938 3.937 2.156 0 3.937-1.781 3.937-3.937 0-2.157-1.781-3.938-3.938-3.938zm0 6.188c-1.22 0-2.25-1.032-2.25-2.25 0-1.219 1.03-2.25 2.25-2.25 1.218 0 2.25 1.031 2.25 2.25 0 1.218-.938 2.25-2.25 2.25zM81 2.063h14.25a.84.84 0 0 0 .844-.844.84.84 0 0 0-.844-.844H81a.84.84 0 0 0-.844.844.84.84 0 0 0 .844.843zm18.938 0h4.593a.84.84 0 0 0 .844-.844.84.84 0 0 0-.844-.844h-4.594a.84.84 0 0 0-.843.844.84.84 0 0 0 .844.843zm5.437 4.125a.84.84 0 0 0-.844-.844h-9.937a.84.84 0 0 0-.844.843.84.84 0 0 0 .844.844h9.937a.84.84 0 0 0 .844-.843zm-18.281-.844a.84.84 0 0 0-.844.843.84.84 0 0 0 .844.844h3.187a.84.84 0 0 0 .844-.843.84.84 0 0 0-.844-.844h-3.187zM49.031 117.938h-14.25a.84.84 0 0 0-.843.843.84.84 0 0 0 .843.844h14.25a.84.84 0 0 0 .844-.844.84.84 0 0 0-.844-.843zm-18.937 0H25.5a.84.84 0 0 0-.844.843.84.84 0 0 0 .844.844h4.594a.84.84 0 0 0 .843-.844.84.84 0 0 0-.843-.843zm-4.594-3.282h9.938a.84.84 0 0 0 .843-.843.84.84 0 0 0-.843-.844H25.5a.84.84 0 0 0-.844.844.84.84 0 0 0 .844.843zm17.438 0a.84.84 0 0 0 .843-.843.84.84 0 0 0-.843-.844H39.75a.84.84 0 0 0-.844.844.84.84 0 0 0 .844.843h3.188z" fill="#616161"/><path d="M93.563 94.219c0-.281-.188-.656-.47-.75L82.688 88.78c-.187-.094-.374-.094-.468 0H27.47c-3 0-5.438 2.438-5.438 5.438 0 3 2.438 5.437 5.438 5.437h54.844c.093 0 .187 0 .374-.094l10.407-4.687c.281 0 .469-.281.469-.656zm-57.282-3.75v7.687h-2.718V90.47h2.718zm-12.562 3.75c0-2.156 1.687-3.844 3.843-3.844h4.407v7.688h-4.407c-2.156 0-3.843-1.688-3.843-3.844zm57.562 3.844H37.97v-7.688h43.31v7.688zm1.594-.282V90.75l7.875 3.563-7.875 3.468z" fill="#5182DD"/><path d="M55.781 95.063h4.313a.84.84 0 0 0 .843-.844.84.84 0 0 0-.843-.844H55.78a.84.84 0 0 0-.844.844.84.84 0 0 0 .844.844zm10.875 0h4.313a.84.84 0 0 0 .844-.844.84.84 0 0 0-.844-.844h-4.313a.84.84 0 0 0-.844.844.84.84 0 0 0 .844.844zm-21.75 0h4.313a.84.84 0 0 0 .843-.844.84.84 0 0 0-.843-.844h-4.313a.84.84 0 0 0-.843.844.84.84 0 0 0 .843.844z" fill="#5182DD"/><path d="M114.375 71.906H34.312l-1.968-4.594H47.25c1.594 0 2.813-1.312 2.813-2.812V39.75c0-1.594-1.22-2.813-2.813-2.813H8.719c-1.594 0-2.813 1.313-2.813 2.813V64.5c0 1.594 1.219 2.813 2.813 2.813h14.906l-1.969 4.593H1.313a.84.84 0 0 0-.844.844v5.344a.84.84 0 0 0 .844.844h7.03v32.437a.84.84 0 0 0 .845.844h3.187c.469 0 .75-.375.844-.75l1.5-32.438h86.343l1.5 32.438c0 .468.376.75.844.75h3.188a.841.841 0 0 0 .844-.844V78.937h7.031a.84.84 0 0 0 .843-.843V72.75c-.093-.469-.468-.844-.937-.844zM7.5 64.5V39.75c0-.656.563-1.219 1.219-1.219H47.25c.656 0 1.219.563 1.219 1.219V64.5c0 .656-.563 1.219-1.219 1.219H8.719C8.063 65.625 7.5 65.156 7.5 64.5zm17.906 2.813h5.25l1.969 4.593h-9.188l1.97-4.594zM11.531 110.53H9.937V78.937h3.094l-1.5 31.594zm94.219 0h-1.688l-1.406-31.594h3.094v31.594zm7.781-33.187H2.063v-3.75H113.53v3.75z" fill="#616161"/><path d="M29.719 57.094h9.375a.84.84 0 0 0 .843-.844V42.281a.84.84 0 0 0-.843-.843H25.125a.84.84 0 0 0-.844.843v6.469c-.562-.094-1.125-.188-1.687-.188a7.122 7.122 0 0 0-7.125 7.126 7.122 7.122 0 0 0 7.125 7.124c3.562.094 6.468-2.437 7.125-5.718zm-3.75-5.719a5.621 5.621 0 0 1 2.156 4.125h-2.156v-4.125zm0-8.25H38.25v12.281h-8.438a6.94 6.94 0 0 0-3.843-6v-6.281zm-3.282 18.094c-3 0-5.53-2.438-5.53-5.532 0-3.093 2.437-5.53 5.53-5.53.563 0 1.125.093 1.688.28v5.813a.84.84 0 0 0 .844.844h2.812c-.656 2.343-2.718 4.125-5.343 4.125zm74.157-10.313c0-.468-.375-.843-.844-.75-.469 0-.75.375-.75.844.187 3.656 1.687 6.563 2.906 8.813.938 1.78 1.688 3.28 1.5 4.406-.094.469.281.844.656.937h.094a.9.9 0 0 0 .844-.656c.281-1.687-.656-3.375-1.688-5.437-1.125-2.25-2.53-4.782-2.718-8.157z" fill="#5182DD"/><path d="M114.094 49.781h-.563a27.42 27.42 0 0 0 .281-3.843c0-1.22-1.031-2.25-2.25-2.25H93c-1.219 0-2.25 1.03-2.25 2.25 0 4.5 1.031 9 2.906 13.03l1.219 2.626c1.031 2.062 1.5 4.406 1.5 6.75a1.78 1.78 0 0 0 1.781 1.781h7.969a1.78 1.78 0 0 0 1.781-1.781c0-2.344.563-4.688 1.5-6.75l1.031-2.157c.938.75 2.157 1.22 3.375 1.22 3 0 5.438-2.438 5.438-5.438.281-3-2.156-5.438-5.156-5.438zm-5.907 11.157a17.21 17.21 0 0 0-1.687 7.5c0 .093-.094.187-.188.187h-7.968a.202.202 0 0 1-.188-.188c0-2.53-.562-5.156-1.687-7.5l-1.219-2.624c-1.781-3.844-2.813-8.157-2.813-12.376 0-.28.282-.562.563-.562h18.562c.282 0 .563.281.563.563 0 1.593-.094 3.187-.375 4.78-.375 2.438-1.125 4.782-2.156 7.032l-.282.563-1.125 2.624zm5.907-1.876a3.754 3.754 0 0 1-2.719-1.124 36.946 36.946 0 0 0 1.969-6.47c.281-.093.468-.093.75-.093 2.062 0 3.843 1.688 3.843 3.844 0 2.062-1.781 3.843-3.843 3.843z" fill="#5182DD"/></svg>