<svg width="120" height="118" fill="none" xmlns="http://www.w3.org/2000/svg"><path d="M12.188 3.781h12.468a.74.74 0 0 0 .75-.75c0-.469-.281-.75-.75-.75H12.188a.74.74 0 0 0-.75.75c0 .469.374.75.75.75zm-8.063 0h4.031a.74.74 0 0 0 .75-.75c0-.469-.375-.656-.75-.656H4.125a.74.74 0 0 0-.75.75c0 .469.375.656.75.656zM13.5 7.344a.74.74 0 0 0-.75-.75H4.125c-.375.093-.75.375-.75.75s.375.75.75.75h8.625c.375 0 .75-.375.75-.75zm5.813-.656H16.5a.74.74 0 0 0-.75.75c0 .468.281.75.75.75h2.813a.74.74 0 0 0 .75-.75.74.74 0 0 0-.75-.75zm38.531 102.187H45.469a.74.74 0 0 0-.75.75c0 .375.281.75.75.75h12.468a.74.74 0 0 0 .75-.75c-.093-.469-.374-.75-.843-.75zm8.156 0h-4.031a.74.74 0 0 0-.75.75c0 .375.281.75.75.75H66a.74.74 0 0 0 .75-.75c-.094-.469-.375-.75-.75-.75zm0-4.313h-8.625a.74.74 0 0 0-.75.75c0 .469.281.75.75.75H66a.74.74 0 0 0 .75-.75.74.74 0 0 0-.75-.75zm-15.937.75c0 .375.28.75.75.75h2.812a.74.74 0 0 0 .75-.75c0-.468-.281-.749-.75-.749h-2.813c-.374-.001-.75.375-.75.749zM8.438 22.813a.74.74 0 0 0-.75.75v10.593c0 .375.28.75.75.75a.74.74 0 0 0 .75-.75V23.47c-.094-.375-.376-.657-.75-.657zm0 14.062a.74.74 0 0 0-.75.75v3.469c0 .375.28.75.75.75a.74.74 0 0 0 .75-.75v-3.469c-.094-.469-.376-.75-.75-.75zm110.343 55.313a.74.74 0 0 0-.75.75v10.593c0 .375.281.75.75.75a.74.74 0 0 0 .75-.75V92.937c0-.468-.281-.75-.75-.75zm0 14.062a.74.74 0 0 0-.75.75v3.469c0 .375.281.75.75.75a.74.74 0 0 0 .75-.75V107c0-.469-.281-.75-.75-.75zM49.5 74.281l-1.406-1.406a.736.736 0 0 0-1.032 0 .736.736 0 0 0 0 1.031l1.407 1.406a.717.717 0 0 0 .468.188.716.716 0 0 0 .47-.188c.28-.374.28-.75.093-1.03zm2.063 4.032l1.406 1.406a.717.717 0 0 0 .469.187.716.716 0 0 0 .468-.187.736.736 0 0 0 0-1.031L52.5 77.374a.736.736 0 0 0-1.031 0c-.188.188-.188.656.094.938zm-3.094-.938l-1.407 1.312a.736.736 0 0 0 0 1.032.716.716 0 0 0 .47.187.716.716 0 0 0 .468-.187l1.406-1.407a.736.736 0 0 0 0-1.03c-.187-.188-.656-.188-.937.093zm3.562-1.969a.716.716 0 0 0 .469-.187l1.406-1.406a.736.736 0 0 0 0-1.032.736.736 0 0 0-1.031 0l-1.313 1.5a.736.736 0 0 0 0 1.031c.094.094.282.094.47.094zM1.688 91.625a.736.736 0 0 0-1.032 0 .736.736 0 0 0 0 1.031l1.406 1.406a.716.716 0 0 0 .47.188.716.716 0 0 0 .468-.188.736.736 0 0 0 0-1.03l-1.313-1.407zm4.406 4.5a.736.736 0 0 0-1.032 0 .736.736 0 0 0 0 1.031l1.407 1.406a.716.716 0 0 0 .468.188.716.716 0 0 0 .47-.188.736.736 0 0 0 0-1.03l-1.313-1.407zm-4.031 0L.655 97.437a.736.736 0 0 0 0 1.032.716.716 0 0 0 .469.187.716.716 0 0 0 .469-.187L3 97.062a.736.736 0 0 0 0-1.03c-.188-.188-.656-.188-.938.093zm4.5-4.5l-1.407 1.406a.736.736 0 0 0 0 1.031.716.716 0 0 0 .469.188.716.716 0 0 0 .469-.188L7.5 92.656a.736.736 0 0 0 0-1.031c-.281-.281-.656-.281-.938 0zm94.968-88.219a.716.716 0 0 0 .469.188.718.718 0 0 0 .469-.188.736.736 0 0 0 0-1.031L101.062.969a.735.735 0 0 0-1.031 0 .736.736 0 0 0 0 1.031l1.5 1.406zm4.5 4.407A.716.716 0 0 0 106.5 8a.718.718 0 0 0 .469-.188.736.736 0 0 0 0-1.03l-1.407-1.407a.735.735 0 0 0-1.031 0 .736.736 0 0 0 0 1.031l1.5 1.407zm-5.344.281a.716.716 0 0 0 .469-.188l1.406-1.406a.734.734 0 0 0 0-1.031.735.735 0 0 0-1.031 0l-1.406 1.406a.736.736 0 0 0 0 1.031c.188.094.375.188.562.188zm4.407-4.5a.713.713 0 0 0 .468-.188L106.969 2a.736.736 0 0 0 0-1.031.735.735 0 0 0-1.031 0l-1.407 1.406a.736.736 0 0 0 0 1.031c.188.094.375.188.563.188zM85.969 72.313c0 1.874 1.5 3.374 3.375 3.374s3.375-1.5 3.375-3.374c0-1.876-1.5-3.376-3.375-3.376a3.361 3.361 0 0 0-3.375 3.376zm5.437 0c0 1.124-.937 1.968-1.969 1.968-1.03 0-1.968-.937-1.968-1.969 0-1.124.937-1.968 1.969-1.968 1.03 0 1.968.844 1.968 1.969zm-30.843-62.25c1.874 0 3.374-1.5 3.374-3.376a3.36 3.36 0 0 0-3.374-3.375 3.361 3.361 0 0 0-3.376 3.376c0 1.875 1.5 3.375 3.376 3.375zm0-5.438c1.124 0 1.968.938 1.968 1.969 0 1.125-.937 1.968-1.968 1.968-1.126 0-1.97-.937-1.97-1.968 0-1.032.844-1.969 1.97-1.969z" fill="#616161"/><path d="M116.156 79.25l-3.656-.75-.75-3.656a.96.96 0 0 0-.469-.563.73.73 0 0 0-.75.188l-6.469 6.469c-.187.187-.281.374-.187.656l.75 3.75-4.313 4.312c-1.406-1.312-3-2.437-4.78-3.187-1.97-.844-4.032-1.313-6.188-1.219-2.063 0-4.125.375-6 1.219-.094.094-.281.094-.469.187-.563.281-1.125.563-1.594.844-1.125.656-2.156 1.406-3.094 2.344a4.931 4.931 0 0 0-1.124 1.312c-1.032 1.219-1.782 2.531-2.438 3.938-.469 1.031-.75 2.156-.938 3.281a15.518 15.518 0 0 0-.28 3c0 1.969.374 3.844 1.03 5.625.094.188.094.281.188.469.75 1.969 1.875 3.656 3.375 5.156l.094.094.281.281c1.406 1.406 3.094 2.438 4.875 3.188 1.969.843 4.031 1.218 6.188 1.218h.093c2.063 0 4.125-.375 6-1.218 1.5-.657 2.906-1.5 4.125-2.438.281-.187.563-.469.844-.75.094 0 .094-.094.187-.094l.282-.281c.937-.937 1.687-1.969 2.343-3.094.282-.562.563-1.125.844-1.593.094-.094.094-.188.094-.282.094-.187.187-.375.187-.562a16.683 16.683 0 0 0 1.032-5.719c0-.937-.094-1.875-.282-2.906-.187-1.031-.468-2.063-.937-3.094-.188-.375-.563-.563-.938-.375-.375.188-.562.563-.375.938.375.937.657 1.874.844 2.812.188.938.281 1.781.281 2.625 0 1.781-.281 3.563-.937 5.156-.094.188-.094.282-.188.563 0 .094-.093.094-.093.187a11.222 11.222 0 0 1-.75 1.5c-.563 1.032-1.313 1.969-2.156 2.813l-.282.281s-.094 0-.094.094c-.28.281-.562.469-.843.75a13.783 13.783 0 0 1-3.75 2.25c-1.781.75-3.563 1.031-5.438 1.125h-.094a14.69 14.69 0 0 1-5.624-1.125c-1.688-.656-3.188-1.688-4.5-2.906l-.188-.188-.094-.094c-1.312-1.312-2.344-2.906-3.094-4.687-.093-.094-.093-.188-.187-.375-.656-1.594-.938-3.375-.938-5.063 0-.937.094-1.875.282-2.719.187-1.03.469-1.968.844-3 .562-1.312 1.312-2.53 2.156-3.656.281-.375.656-.75 1.031-1.125.844-.844 1.781-1.5 2.813-2.156.468-.281.937-.563 1.5-.75.093-.094.187-.094.374-.188a13.895 13.895 0 0 1 5.532-1.124h.094c1.874 0 3.843.374 5.624 1.124 1.594.657 3.094 1.688 4.407 2.813l-4.688 4.688c-.656-.563-1.406-1.126-2.25-1.407a10.648 10.648 0 0 0-2.344-.562 6.976 6.976 0 0 0-2.437.187c-.469.094-.844.188-1.219.375a7.333 7.333 0 0 0-2.437 1.594l-.094.094c-.375.375-.75.844-1.125 1.312-.281.375-.469.844-.656 1.313-.375.937-.656 2.062-.656 3.094 0 1.031.187 2.062.562 3a7.496 7.496 0 0 0 1.688 2.531c.093.187.28.281.374.375a9.14 9.14 0 0 0 2.25 1.406c.938.375 1.97.656 3 .656a9 9 0 0 0 3.094-.562c.469-.188.938-.469 1.406-.75.282-.188.657-.469.938-.75l.281-.281.188-.188c.656-.656 1.125-1.5 1.5-2.344.187-.375.281-.843.469-1.312.093-.563.187-1.125.187-1.781v-.657c0-.375-.375-.75-.75-.656-.375 0-.656.375-.656.75v.563c0 .468-.094 1.031-.188 1.5-.094.375-.187.75-.375 1.125-.281.75-.75 1.406-1.312 1.968l-.094.094-.094.094-.187.187c-.281.188-.469.469-.75.563a6.24 6.24 0 0 1-1.125.562c-.75.282-1.594.469-2.438.469-.844 0-1.687-.187-2.531-.469-.656-.281-1.313-.656-1.875-1.218l-.281-.282c-.563-.562-1.031-1.312-1.406-2.062-.282-.75-.47-1.594-.47-2.438 0-.843.188-1.781.47-2.531.187-.375.374-.75.562-1.031l.844-1.125.094-.094A5.96 5.96 0 0 1 87 95.562c.375-.187.656-.28 1.031-.28.469-.094.938-.188 1.406-.188H90c.656.094 1.313.187 1.969.469.656.28 1.219.656 1.781 1.124l-4.781 4.782a.735.735 0 0 0 0 1.031.715.715 0 0 0 .469.188.715.715 0 0 0 .468-.188l15.75-15.75 3.75.75h.094a.718.718 0 0 0 .469-.188l6.468-6.468a.728.728 0 0 0 .188-.75c0-.656-.188-.844-.469-.844zm-6.844 6.375l-3.281-.656-.656-3.281 5.25-5.25.562 2.812a.847.847 0 0 0 .563.563l2.812.562-5.25 5.25zM39 47.281a.74.74 0 0 0 .75-.75V15.594a.94.94 0 0 1 .938-.938h73.687c.563 0 .937.375.937.938v40.218a.939.939 0 0 1-.937.938H47.344a.74.74 0 0 0-.75.75c0 .469.281.75.75.75h67.031a2.32 2.32 0 0 0 2.344-2.344V15.688a2.32 2.32 0 0 0-2.344-2.344H40.594a2.321 2.321 0 0 0-2.344 2.344v30.937c0 .375.281.656.75.656z" fill="#5182DD"/><path d="M107.906 50.281h-52.5a.74.74 0 0 0-.75.75c0 .469.282.75.75.75h52.5a2.32 2.32 0 0 0 2.344-2.343V22.155a2.32 2.32 0 0 0-2.344-2.343H47.062a2.321 2.321 0 0 0-2.343 2.343V42.5c0 .375.281.75.75.75a.74.74 0 0 0 .75-.75V22.156c0-.562.375-.937.937-.937h60.75a.94.94 0 0 1 .938.937v27.282c0 .468-.469.843-.938.843z" fill="#5182DD"/><path d="M37.5 59.281c3.844-1.406 11.156-4.593 16.219-10.593.656-.75.562-1.782.093-2.72l11.813-13.312c.281-.281.188-.75-.094-1.031-.281-.281-.75-.281-1.031.094L52.969 44.75s0-.094-.094-.094c-1.125-1.218-2.625-1.593-3.75-.843a8.24 8.24 0 0 1-.938.562c-.75.469-1.78 1.031-2.624 1.781-4.126 3.375-9.376 4.313-10.126 4.032l-4.312-1.5c-.375-.094-.656 0-.844.374l-4.125 7.688h-1.5l-4.125-7.688c-.187-.374-.562-.562-.843-.374l-4.313 1.593c-1.031.375-1.875.938-2.531 1.782 0 0 0 .093-.094.093-.188.282-.375.469-.563.75-.093.094-.093.188-.093.282a4.4 4.4 0 0 0-.281.656c-.094.187-.094.281-.188.468-.094.094-.094.282-.188.376-.093.187-.093.374-.093.562 0 .094-.094.188-.094.281 0 .282-.094.563-.094.844 0 .094 0 .281-.094.656 0 .282-.093.563-.093.938v.093c0 .376-.094.844-.094 1.313v12.844c.188 1.031.281 1.969.375 2.719.094.656.094 1.406.094 2.156v3.75c.187 1.219 1.312 3.375 4.125 3.094l-.938 29.343c0 .188.094.469.281.563l.094.094s.094.093.188.093h.094c.093.094.187.094.28.188.095.094.282.094.376.187h.094c.093 0 .187.094.374.094.094 0 .094 0 .188.094.188.094.281.094.469.094h.093c.188 0 .375.093.563.093h1.594c.281 0 .468-.093.75-.187.093 0 .187 0 .281-.094.188-.094.375-.094.656-.187.094 0 .188-.094.282-.094.28-.094.562-.281.843-.469.188-.094.282-.281.375-.562l3.188-24.282 3.187 24.282c0 .187.188.375.375.562 1.313.75 2.532 1.031 3.563 1.031 2.062 0 3.468-1.031 3.562-1.031.188-.094.282-.375.282-.562l-1.5-50.157c-.282-1.593.843-3.187 2.437-3.75zm-4.031 3.938l1.5 49.781c-.75.375-2.625 1.219-5.063-.094l-3.843-29.25v-.187s0-.094-.094-.094c0 0 0-.094-.094-.094l-.094-.094s-.093 0-.093-.093c0 0-.094 0-.188-.094h-.375s-.094 0-.094.094c0 0-.093 0-.093.094l-.094.093s0 .094-.094.094c0 .094-.094.188-.094.281l-3.843 29.25c-2.344 1.219-4.313.469-5.063.094l1.594-53.344c0-.375-.282-.75-.657-.75-.375 0-.75.282-.75.657l-1.406 23.062c-1.594-.094-1.969-1.594-2.062-1.875v-4.031c0-.563 0-1.125-.094-1.781-.094-.938-.188-1.876-.375-2.72 0-.093 0-.187-.094-.28v-2.344c-.187-4.125.375-10.125.656-12.375v-.094c0-.375.094-.563.094-.656v-.094c0-.188 0-.469.094-.656.094-.657.375-1.407.75-2.157.563-.937 1.406-1.593 2.438-1.968l3.75-1.313 4.03 7.5c0 .094.095.094.188.188.094 0 .094.093.188.093h2.531c.281 0 .469-.187.656-.374l4.032-7.5 3.75 1.312c1.5.563 7.406-.938 11.53-4.313.75-.656 1.688-1.218 2.438-1.593.375-.188.75-.469 1.032-.657.843-.562 1.687.282 1.874.563.75.844.938 1.875.657 2.25-4.782 5.719-11.813 8.813-15.563 10.125-2.25.844-3.656 3-3.562 5.344z" fill="#616161"/><path d="M21.094 35.094c-1.031 1.125-1.594 2.718-1.5 4.218l.187 3.282c.188 2.906 2.72 5.25 5.625 5.25 2.907 0 5.438-2.25 5.625-5.25l.188-3.282a5.719 5.719 0 0 0-1.5-4.218c-1.031-1.125-2.531-1.782-4.125-1.782h-.469c-1.5 0-3 .657-4.031 1.782zm7.594.937c.843.844 1.218 1.969 1.125 3.188l-.188 3.281c-.187 2.156-1.969 3.938-4.219 3.938-2.156 0-4.03-1.688-4.218-3.938L21 39.219c-.094-1.219.281-2.344 1.125-3.188.844-.843 1.875-1.312 3.094-1.312h.469c1.125 0 2.25.468 3 1.312z" fill="#616161"/></svg>