<svg xmlns="http://www.w3.org/2000/svg" viewBox="0 0 28.52 32.44"><defs><style>.cls-2{fill-rule:evenodd;fill:#7e8090}</style></defs><g id="Слой_2" data-name="Слой 2"><g id="Layer_1" data-name="Layer 1"><path d="M16.55 5.89zM5.63 17.33c1.58.32 4-.64 4.11.89 0 .53-.47 1.1-.64 1.59.9-.08 2.82-.37 2.65 1.14l-.12 1.71c1.29-.32 1.74-1 2.44-1 1.22 0 .9 2 1.56 2.6 1.66-.62 1.73-5.24 4.06-4.3.61.24 1.21.93 1.83 1a10.83 10.83 0 0 0-.17-2.2c-.13-.62-.48-1.43-.12-2.06.77-1.33 2.68 0 3.87 0 .1-1.29-1.5-3.16-1.48-3.83 0-1.28 1.9-2.07 3.15-2.37-.48-1.03-1.77-1.29-2.31-1.68C23.31 8 24.68 7 25 6.36c-1.29-.32-3 .44-2.89-.93 0-.49.48-.9.63-1.31-1 .11-2.16.88-3-.9A14.56 14.56 0 0 1 19 1.41c-1.43.28-2.62 3.31-3.75 2.05l-1.16-1.31c-.26-.25-.39-.45-.65-.67-.44 1.05-.17 3.28-1.14 3.26C11 4.7 9.35 2.9 8 3.07c.12 1 .45 2-.35 2.48a3 3 0 0 1-1.48.13 9.34 9.34 0 0 1 1 1.88c.22 1.23-1 1-1.51 1.34 1.42.8 1.07 1.88.07 2.75a6.23 6.23 0 0 0-1.15 1.2c1.61.89 3.74 1 2 3.25-.58.8-.77.71-.95 1.23z" fill-rule="evenodd" fill="#fff"/><path class="cls-2" d="M22.27 27.58c-.35-.25-.55-.75-1-1.26l-2.92-3.57.8-1.53c.76.29 1.12.84 2.09 1.12 1.91.54 1.55-1.75 1.6-2.39.3.28 1 1.76 1.29 2.26l1.54 2.06c-.84-.09-2.51-.75-3-.24-.37.36-.34 2.83-.36 3.55zM5.63 17.33c1.58.32 4-.64 4.11.89 0 .53-.47 1.1-.64 1.59.9-.08 2.82-.37 2.65 1.14l-.12 1.71c1.29-.32 1.74-1 2.44-1 1.22 0 .9 2 1.56 2.6 1.66-.62 1.73-5.24 4.06-4.3.61.24 1.21.93 1.83 1a10.83 10.83 0 0 0-.17-2.2c-.13-.62-.48-1.43-.12-2.06.77-1.33 2.68 0 3.87 0 .1-1.29-1.5-3.16-1.48-3.83 0-1.28 1.9-2.07 3.15-2.37-.48-1.03-1.77-1.29-2.31-1.68C23.31 8 24.68 7 25 6.36c-1.29-.32-3 .44-2.89-.93 0-.49.48-.9.63-1.31-1 .11-2.16.88-3-.9A14.56 14.56 0 0 1 19 1.41c-1.43.28-2.62 3.31-3.75 2.05l-1.16-1.31c-.26-.25-.39-.45-.65-.67-.44 1.05-.17 3.28-1.14 3.26C11 4.7 9.35 2.9 8 3.07c.12 1 .45 2-.35 2.48a3 3 0 0 1-1.48.13 9.34 9.34 0 0 1 1 1.88c.22 1.23-1 1-1.51 1.34 1.42.8 1.07 1.88.07 2.75a6.23 6.23 0 0 0-1.15 1.2c1.61.89 3.74 1 2 3.25-.62.8-.8.71-1 1.23zm1 12.6c-.46-1-.35-4.27-.73-4.66-.85-.89-2.39 1.11-3.46 1.44C3 25.3 5.18 21.66 6.1 20c.63-1.13.47-1.39 2.05-1.31-.25.56-1 1.49-.4 2.16s1.8.15 2.63.21c0 .4-.06 1-.09 1.49L8.8 25.77c-.35.76-.7 1.44-1 2.15l-.52 1a3.94 3.94 0 0 1-.59 1zm-1.4-19.8c-.37.9-2 1.57-2.07 2.64s2 1.87 2.67 2c-.36.93-1.11 1.2-1.56 2-.68 1.18.77 1.62 1.1 1.87a14.68 14.68 0 0 1-1.15 1.92c-.71 1.19-2.6 4.78-3.22 6.09-.5 1.12-1.65 2.77-.63 3.13.64.22 1-.64 1.73-1.19l2.65-1.76c.19.65.51 3.36.7 4.46.25 1.53 1 1.39 1.68.43a27.4 27.4 0 0 0 1.78-3.23c.47-.89 1.88-4.08 2.17-4.5 1.28.14 1.81-.58 2.7-.8.15 1 .57 2.36 1.56 2.47 1.2.14 2-1.44 2.34-1.69a3.61 3.61 0 0 1 .51.65l1.43 1.81a8 8 0 0 0 .5.64 36.61 36.61 0 0 1 2.17 3.26c.23.23 1.1.52 1.2-.64.11-1.39.06-3 .12-4.38 1.46-.14 4 1.33 4.52 1.12 1-.7-.34-1.76-.78-2.21-2.35-2.45-2.33-3.45-3.85-5.58a6.81 6.81 0 0 0-.39-.57c-.25-.28-.24-.2-.39-.5a12.27 12.27 0 0 0 2 .51c3.55.09.35-4.68.18-5.18 1.16-1.38 5.2-.88 2.24-4a6.69 6.69 0 0 0-1.63-1.06A8.59 8.59 0 0 1 26.3 7c.76-1.08-.49-2-2.4-2.07.2-.45 1.35-1.61.14-2.11-.77-.36-2.04.18-2.92.18-.18-.53-.52-1.12-.78-1.78-1.18-3.05-3.73.48-4.43 1C15 1.32 14.35.06 13.38 0 12-.08 12 2 11.86 3.22c-.86-.34-2.42-1.47-3.5-1.5S6.53 2.06 6.63 3l.16 1.37c-4-.1-1.42 2.37-1.1 3.1-.78.2-2.16.16-2.19 1.09-.02.74 1.18 1.36 1.76 1.57z"/><path class="cls-2" d="M16.26 5.76c.42.74.33.43 1.94 1.27.77.41 1.35.63 2.06 1.05 1.27.76 1.87 2.64 1.56 4.6-.61 3.78-3.11 5.55-7.26 4.88a7.11 7.11 0 0 1-5.62-3.91 4.52 4.52 0 0 1 .13-2.75 7.17 7.17 0 0 1 2.47-3.85 8.2 8.2 0 0 1 4.71-1.29zM15.63 7a6.68 6.68 0 0 0-3.32 1 5.94 5.94 0 0 0-2 3.17 4.61 4.61 0 0 0-.22 1.91 5.9 5.9 0 0 0 4.7 3.23c3.2.51 5.31-.54 5.84-3.85.16-1 0-2.75-1-3.35-.64-.38-1.34-.67-2-1-.34-.18-.68-.34-1-.5a3.05 3.05 0 0 1-.78-.44z"/><path d="M15.63 7a6.68 6.68 0 0 0-3.32 1 5.94 5.94 0 0 0-2 3.17 4.61 4.61 0 0 0-.22 1.91 5.9 5.9 0 0 0 4.7 3.23c3.2.51 5.31-.54 5.84-3.85.16-1 0-2.75-1-3.35-.64-.38-1.34-.67-2-1-.34-.18-.68-.34-1-.5a3.05 3.05 0 0 1-.78-.44zM6.65 29.93a3.94 3.94 0 0 0 .59-1l.52-1c.34-.7.69-1.39 1-2.15l1.49-3.23c0-.45.09-1.09.09-1.49-.82-.06-2.07.42-2.63-.21s.16-1.6.4-2.16c-1.54-.09-1.38.16-2.01 1.31-.92 1.66-3.1 5.3-3.63 6.72 1.07-.32 2.61-2.33 3.46-1.44.37.39.26 3.72.72 4.65zm15.62-2.35c0-.72 0-3.18.36-3.55.52-.52 2.2.15 3 .24l-1.51-2.07c-.34-.5-1-2-1.29-2.26-.05.64.31 2.94-1.6 2.39-1-.28-1.33-.83-2.09-1.12l-.8 1.53 2.92 3.57c.45.52.66 1.02 1.01 1.27z" fill="#ffff98" fill-rule="evenodd"/><path class="cls-2" d="M15.18 11.83a7 7 0 0 0 .06-2.37c-.09-1.07-1.15-.94-1.2-.13a21.78 21.78 0 0 1 0 2.47c-.26 1.13.3 1.09 1.24 1.28 2.1.43 3.64 1.85 3.57.41-.07-.95-2.77-1.58-3.67-1.66z"/></g></g></svg>