<svg width="57" height="56" fill="none" xmlns="http://www.w3.org/2000/svg"><path d="M20.691 44.587c-6.278-3.045-10.335-9.518-10.335-16.49a18.288 18.288 0 0 1 8.226-15.29 1.41 1.41 0 1 0-1.557-2.353c-.29.193-.576.391-.855.596l-2.786-2.338a3.814 3.814 0 0 0-5.368.47l-1.586 1.89a3.784 3.784 0 0 0-.875 2.781A3.783 3.783 0 0 0 6.9 16.44l2.791 2.342a21.07 21.07 0 0 0-1.556 4.299H4.482c-2.1 0-3.81 1.71-3.81 3.81v2.469c0 2.1 1.71 3.81 3.81 3.81h3.667a21.02 21.02 0 0 0 1.563 4.28L6.9 39.81a3.783 3.783 0 0 0-1.344 2.587 3.783 3.783 0 0 0 .875 2.78l1.586 1.892a3.803 3.803 0 0 0 2.922 1.359c.864 0 1.733-.292 2.446-.89l2.823-2.368c1.02.744 2.108 1.4 3.253 1.955a1.411 1.411 0 0 0 1.231-2.538zM4.481 30.348a.99.99 0 0 1-.987-.988v-2.47a.99.99 0 0 1 .988-.987h3.166a21.3 21.3 0 0 0 .006 4.445H4.482zm4.232-16.07a.98.98 0 0 1-.347-.67.98.98 0 0 1 .225-.722l1.587-1.891a.986.986 0 0 1 1.392-.122l2.41 2.023a21.109 21.109 0 0 0-2.856 3.406l-2.411-2.024zm2.857 31.099a.99.99 0 0 1-1.392-.121L8.59 43.364a.98.98 0 0 1-.225-.721.981.981 0 0 1 .347-.671l2.44-2.047a21.23 21.23 0 0 0 2.86 3.402l-2.443 2.05zm41.292-22.296h-3.65a21.017 21.017 0 0 0-1.554-4.302l2.787-2.339a3.815 3.815 0 0 0 .47-5.367L49.328 9.18a3.814 3.814 0 0 0-5.367-.47l-2.787 2.339c-.368-.27-.747-.53-1.135-.777a1.41 1.41 0 1 0-1.52 2.377c5.303 3.388 8.469 9.162 8.469 15.446 0 7.115-4.174 13.643-10.634 16.632a1.41 1.41 0 0 0 1.185 2.56 21.003 21.003 0 0 0 3.596-2.12l2.825 2.37a3.776 3.776 0 0 0 2.781.875 3.783 3.783 0 0 0 2.587-1.344l1.587-1.891a3.814 3.814 0 0 0-.47-5.368l-2.825-2.37a21.192 21.192 0 0 0 1.567-4.27h3.675c2.1 0 3.81-1.71 3.81-3.81v-2.47c0-2.1-1.709-3.809-3.81-3.809zm-4.23 18.89a.99.99 0 0 1 .121 1.393l-1.586 1.891a.98.98 0 0 1-.671.346.98.98 0 0 1-.722-.224l-2.449-2.056a21.303 21.303 0 0 0 2.857-3.405l2.45 2.056zM46.225 16.3a21.065 21.065 0 0 0-2.859-3.405l2.408-2.02a.99.99 0 0 1 1.393.121l1.586 1.891a.99.99 0 0 1-.121 1.393l-2.407 2.02zm7.626 13.06a.99.99 0 0 1-.989.989h-3.174a21.04 21.04 0 0 0 .009-4.445h3.165a.99.99 0 0 1 .988.988v2.469zM38.17 28.097a9.45 9.45 0 0 0-4.492-8.073 1.41 1.41 0 0 1 1.49-2.396 12.255 12.255 0 0 1 5.823 10.469 12.33 12.33 0 0 1-2.921 7.965 1.408 1.408 0 0 1-1.989.163 1.41 1.41 0 0 1-.163-1.988 9.5 9.5 0 0 0 2.252-6.14zm-16.585 6.322a1.41 1.41 0 1 1-2.105 1.88 12.3 12.3 0 0 1-3.127-8.202c0-4.56 2.502-8.727 6.528-10.875a1.41 1.41 0 0 1 1.328 2.49 9.489 9.489 0 0 0-5.034 8.385 9.48 9.48 0 0 0 2.41 6.322zm8.474-1.778a1.42 1.42 0 0 0 .024-.26V14.908l5.119-2.956a1.41 1.41 0 0 0 .705-1.221V4.005c0-.504-.269-.97-.705-1.221L32.29 1.102a1.41 1.41 0 1 0-1.411 2.444l2.207 1.274v5.096l-4.414 2.548-4.413-2.548V4.82l2.206-1.274a1.41 1.41 0 1 0-1.41-2.444l-2.913 1.682a1.41 1.41 0 0 0-.705 1.221v6.726c0 .504.269.97.705 1.221l5.12 2.956V32.38c0 .089.008.176.023.26a4.694 4.694 0 0 0-3.3 4.477V52.07a3.27 3.27 0 0 0 3.267 3.266h2.84a3.27 3.27 0 0 0 3.266-3.266V37.117a4.694 4.694 0 0 0-3.299-4.477zm.478 19.43a.45.45 0 0 1-.445.446h-2.84a.45.45 0 0 1-.444-.445V37.117c0-1.028.836-1.865 1.864-1.865 1.029 0 1.865.837 1.865 1.865V52.07z" fill="#fff"/></svg>