<svg xmlns="http://www.w3.org/2000/svg" viewBox="0 0 4.8 4.8"><g data-name="Слой 2"><g data-name="Layer 1"><circle cx="2.4" cy="2.4" r="2.4" fill="#3796c6"/><path d="M2.31 3.45h.19a.16.16 0 0 0 .09 0 .14.14 0 0 0 0-.08s0-.25.11-.29.26.24.42.35a.3.3 0 0 0 .21.06h.42s.22 0 .12-.19a1.4 1.4 0 0 0-.31-.36c-.26-.24-.23-.21.09-.63.19-.26.27-.42.25-.48s-.17 0-.17 0h-.46a.11.11 0 0 0-.06 0 .13.13 0 0 0 0 .05 2.72 2.72 0 0 1-.21.3c-.21.36-.3.38-.33.36s-.06-.21-.06-.32c0-.35.05-.49-.1-.53a.8.8 0 0 0-.22 0 1 1 0 0 0-.39 0c-.05 0-.1.09-.07.09a.21.21 0 0 1 .17.08.46.46 0 0 1 0 .21s0 .41-.07.46-.15 0-.34-.36a3 3 0 0 1-.17-.35.14.14 0 0 0 0-.05.2.2 0 0 0-.07 0H.78c-.02 0 0 .08 0 .08a5.12 5.12 0 0 0 .75 1.25 1.08 1.08 0 0 0 .78.35z" fill="#fff" fill-rule="evenodd"/></g></g></svg>