<svg height="682pt" viewBox="-21 -21 682.667 682" width="682pt" xmlns="http://www.w3.org/2000/svg"><path d="M629.61 303.508l-81.989-40.82L367.36 352.44c-14.582 7.262-30.957 11.102-47.359 11.102s-32.777-3.84-47.36-11.102L92.38 262.688l-81.988 40.82a18.751 18.751 0 0 0 0 33.57l278.964 138.899c9.594 4.78 20.118 7.168 30.645 7.168 10.523 0 21.05-2.387 30.645-7.16L629.61 337.078a18.751 18.751 0 1 0 0-33.57zm0 0"/><path d="M629.61 460.656l-81.989-40.824L367.36 509.59c-14.582 7.262-30.957 11.094-47.359 11.094s-32.777-3.832-47.36-11.094L92.38 419.832l-81.99 40.824A18.745 18.745 0 0 0 0 477.438a18.761 18.761 0 0 0 10.39 16.789l278.965 138.898c9.594 4.777 20.118 7.168 30.645 7.168 10.523-.004 21.05-2.39 30.645-7.168l278.964-138.898c6.368-3.176 10.391-9.676 10.391-16.79s-4.023-13.613-10.39-16.78zM10.39 179.973l278.965 138.902c9.594 4.773 20.118 7.168 30.645 7.168s21.05-2.395 30.645-7.168l278.964-138.902A18.745 18.745 0 0 0 640 163.19a18.748 18.748 0 0 0-10.39-16.789L350.644 7.496c-19.192-9.55-42.098-9.55-61.29 0L10.391 146.402A18.748 18.748 0 0 0 0 163.192a18.743 18.743 0 0 0 10.39 16.78zm0 0"/></svg>