<svg xmlns="http://www.w3.org/2000/svg" viewBox="0 0 3.84 3.38"><g data-name="Слой 2"><path d="M.37.93l.44.31.56.39.09.07.12.08.11.07.12.06h.11L2 1.9l.12-.06.11-.07.12-.08.09-.07 1-.7a1 1 0 0 0 .3-.25.57.57 0 0 0 .1-.32.33.33 0 0 0-.1-.25.33.33 0 0 0-.24-.1H.34a.31.31 0 0 0-.25.11.43.43 0 0 0-.09.28.5.5 0 0 0 .12.29 1.07 1.07 0 0 0 .25.25zm3.26.23A1.18 1.18 0 0 0 3.84 1v2a.34.34 0 0 1-.34.34H.34a.33.33 0 0 1-.24-.1A.33.33 0 0 1 0 3V1a1.15 1.15 0 0 0 .22.19l1.06.74.2.14.2.1a.62.62 0 0 0 .24.05.62.62 0 0 0 .24-.05l.2-.1.2-.14z" fill="#9099ac" fill-rule="evenodd" data-name="Layer 1"/></g></svg>