<svg xmlns="http://www.w3.org/2000/svg" viewBox="0 0 12 12.16"><defs><style>.cls-3,.cls-4,.cls-7,.cls-8,.cls-9{fill-rule:evenodd}.cls-3{fill:#f9ba4b}.cls-4{fill:#f3a643}.cls-7{fill:#655261}.cls-8{fill:#ea9d40}.cls-9{fill:#564152}.cls-10{fill:#fdfdfd}</style></defs><g id="Слой_2" data-name="Слой 2"><g id="Layer_1" data-name="Layer 1"><path d="M0 7.3a5 5 0 0 0 1.36 3.3 6.35 6.35 0 0 0 4.23 1.56c1.17 0 4.16-.13 5-1.07A5.83 5.83 0 0 0 12 8.57c.3-4.38-.72-7.66-6.12-7.66A6.06 6.06 0 0 0 0 7.3z" fill-rule="evenodd" fill="#e5dbd0"/><path d="M0 6.39a5 5 0 0 0 1.36 3.3 6.35 6.35 0 0 0 4.23 1.56c1.17 0 4.16-.13 5-1.07A5.83 5.83 0 0 0 12 7.66C12.26 3.29 11.23 0 5.83 0A6.06 6.06 0 0 0 0 6.39z" fill="#fff" fill-rule="evenodd"/><path class="cls-3" d="M9.09 1.48a.27.27 0 0 1 .44.21v3.65l-3-1.77z"/><path class="cls-4" d="M9.26 5.18L7.44 4.1 9 2.39a.17.17 0 0 1 .3.12z"/><path class="cls-3" d="M2.91 1.48a.27.27 0 0 0-.44.21v3.65l3-1.77z"/><path class="cls-4" d="M2.74 5.18L4.56 4.1 3 2.39a.17.17 0 0 0-.3.12z"/><ellipse cx="6" cy="6.22" rx="3.81" ry="3.6" fill="#fdce5c"/><path d="M6.54 8.47v.27a.54.54 0 0 1-.54.54.54.54 0 0 1-.54-.54v-.27L6 8.2z" fill="#ec6c80" fill-rule="evenodd"/><path class="cls-7" d="M6.3 7.07h-.6a.15.15 0 0 0-.12.25l.3.37a.15.15 0 0 0 .24 0l.3-.37a.15.15 0 0 0-.12-.25z"/><path class="cls-8" d="M9.67 8.6h-.06a9.67 9.67 0 0 0-2.12-.7.14.14 0 1 1 .05-.27 9.76 9.76 0 0 1 2.2.71.14.14 0 0 1-.06.26zm.27-.95a9.89 9.89 0 0 0-2.16-.17.14.14 0 0 1 0-.27 9.94 9.94 0 0 1 2.22.17.14.14 0 0 1 0 .27z"/><path class="cls-3" d="M7 9.55A3.71 3.71 0 0 1 3.14 6a3.6 3.6 0 0 1 2.24-3.33 3.67 3.67 0 0 0-3.19 3.55A3.71 3.71 0 0 0 6 9.83a4 4 0 0 0 1.57-.32 4.05 4.05 0 0 1-.57.04z"/><path class="cls-8" d="M2.33 8.6a.14.14 0 0 1-.06-.26 9.76 9.76 0 0 1 2.2-.71.14.14 0 1 1 .05.27 9.67 9.67 0 0 0-2.12.68zm-.27-.95a.14.14 0 0 1 0-.27 10 10 0 0 1 2.24-.17.14.14 0 0 1 .13.14.14.14 0 0 1-.14.13 9.89 9.89 0 0 0-2.16.17z"/><path class="cls-9" d="M4.44 6.7A.48.48 0 0 1 4 6.22V6a.48.48 0 0 1 .48-.48.48.48 0 0 1 .43.48v.27a.48.48 0 0 1-.47.43z"/><path class="cls-7" d="M4.44 5.48h-.07v.67a.27.27 0 1 0 .54 0V6a.48.48 0 0 0-.47-.52z"/><circle class="cls-10" cx="4.44" cy="5.82" r=".2"/><path class="cls-9" d="M7.56 6.7a.48.48 0 0 1-.48-.48V6a.48.48 0 0 1 .48-.48A.48.48 0 0 1 8 6v.27a.48.48 0 0 1-.44.43z"/><path class="cls-7" d="M7.56 5.48H7.5v.67a.27.27 0 1 0 .54 0V6a.48.48 0 0 0-.48-.52z"/><circle class="cls-10" cx="7.56" cy="5.82" r=".2"/><path class="cls-9" d="M6.1 7.7l-.3-.6h-.1a.15.15 0 0 0-.12.25l.3.37a.15.15 0 0 0 .23 0z"/><path d="M6 8.2l-.54.27v.27a.55.55 0 0 0 0 .12 1.23 1.23 0 0 0 .39-.12v.13a.14.14 0 1 0 .27 0v-.12a1.23 1.23 0 0 0 .39.12.55.55 0 0 0 0-.12v-.28z" fill="#e95268" fill-rule="evenodd"/><path class="cls-4" d="M6.68 8.6a1 1 0 0 1-.54-.17.26.26 0 0 0-.29 0 1 1 0 0 1-1.17-.08.14.14 0 0 1 .18-.2.69.69 0 0 0 .84.06.53.53 0 0 1 .59 0 .69.69 0 0 0 .84-.06.14.14 0 1 1 .18.2 1 1 0 0 1-.63.25z"/></g></g></svg>