<svg xmlns="http://www.w3.org/2000/svg" viewBox="0 0 12 12.16"><defs><style>.cls-10,.cls-9{fill-rule:evenodd}.cls-3{fill:#a6524f}.cls-4{fill:#f2c49d}.cls-9{fill:#655261}.cls-10{fill:#564152}.cls-12{fill:#fdfdfd}</style></defs><g id="Слой_2" data-name="Слой 2"><g id="Layer_1" data-name="Layer 1"><path d="M0 7.3a5 5 0 0 0 1.36 3.3 6.35 6.35 0 0 0 4.23 1.56c1.17 0 4.16-.13 5-1.07A5.83 5.83 0 0 0 12 8.57c.3-4.38-.72-7.66-6.12-7.66A6.06 6.06 0 0 0 0 7.3z" fill-rule="evenodd" fill="#e5dbd0"/><path d="M0 6.39a5 5 0 0 0 1.36 3.3 6.35 6.35 0 0 0 4.23 1.56c1.17 0 4.16-.13 5-1.07A5.83 5.83 0 0 0 12 7.66C12.26 3.29 11.23 0 5.83 0A6.06 6.06 0 0 0 0 6.39z" fill="#fff" fill-rule="evenodd"/><circle class="cls-3" cx="2.97" cy="5.1" r="1.05"/><circle class="cls-4" cx="2.97" cy="5.1" r=".66"/><circle class="cls-3" cx="9.03" cy="5.1" r="1.05"/><circle class="cls-4" cx="9.03" cy="5.1" r=".66"/><path d="M9 5.72A1.51 1.51 0 0 1 8.76 5a2.76 2.76 0 0 0-1.71-2.59v-.47l-.66.26-.13-.53a2.2 2.2 0 0 0-.87.59A2.76 2.76 0 0 0 3.24 5a1.5 1.5 0 0 1-.24.72 2.29 2.29 0 0 0-.32 1.15A3 3 0 0 0 6 9.57a3 3 0 0 0 3.29-2.7A2.29 2.29 0 0 0 9 5.72z" fill="#be6457" fill-rule="evenodd"/><path d="M4.16 7.35A3 3 0 0 1 4.47 6a2 2 0 0 0 .21-.88 3.27 3.27 0 0 1 1.7-3l-.12-.47a2.2 2.2 0 0 0-.87.59A2.76 2.76 0 0 0 3.24 5a1.5 1.5 0 0 1-.24.72 2.29 2.29 0 0 0-.32 1.15A2.82 2.82 0 0 0 5 9.44a3.06 3.06 0 0 1-.84-2.09z" fill="#a6524f" fill-rule="evenodd"/><path d="M6 9a1.81 1.81 0 0 0 2-1.53A1.29 1.29 0 0 0 7.86 7a.67.67 0 0 1 .1-.7 1.18 1.18 0 0 0-1.7-1.68.38.38 0 0 1-.51 0A1.18 1.18 0 0 0 4 6.25a.67.67 0 0 1 .1.7 1.28 1.28 0 0 0-.1.52A1.81 1.81 0 0 0 6 9z" fill="#fae3c3" fill-rule="evenodd"/><path d="M4 7.47a1.34 1.34 0 0 0 .28.81A3 3 0 0 1 4.47 6a2 2 0 0 0 .21-.88 3.71 3.71 0 0 1 .09-.8A1.18 1.18 0 0 0 4 6.25a.67.67 0 0 1 .1.7 1.28 1.28 0 0 0-.1.52z" fill="#f9d6b1" fill-rule="evenodd"/><path class="cls-9" d="M5.74 6.81h-.06l-.26-.13a.13.13 0 1 1 .12-.24l.26.13a.13.13 0 0 1-.06.25zm.52 0a.13.13 0 0 1-.06-.25l.26-.13a.13.13 0 1 1 .12.24l-.26.13z"/><path class="cls-10" d="M4.83 7.34a.13.13 0 0 0-.13.15A1.28 1.28 0 0 0 6 8.52a1.28 1.28 0 0 0 1.31-1 .13.13 0 0 0-.13-.15z"/><path d="M5.24 8.3a1.43 1.43 0 0 0 1.52 0 .79.79 0 0 0-1.52 0z" fill="#e95268" fill-rule="evenodd"/><path class="cls-10" d="M4.82 5.89a.39.39 0 0 1-.39-.39v-.14A.39.39 0 0 1 4.82 5a.4.4 0 0 1 .39.39v.13a.39.39 0 0 1-.39.37z"/><path class="cls-9" d="M4.82 5v.46a.2.2 0 1 0 .39 0v-.1A.4.4 0 0 0 4.82 5z"/><circle class="cls-12" cx="4.82" cy="5.23" r=".13"/><path class="cls-10" d="M7.18 5.89a.39.39 0 0 1-.39-.39v-.14A.4.4 0 0 1 7.18 5a.39.39 0 0 1 .39.39v.13a.39.39 0 0 1-.39.37z"/><path class="cls-9" d="M7.18 5v.46a.2.2 0 1 0 .39 0v-.1A.39.39 0 0 0 7.18 5z"/><circle class="cls-12" cx="7.18" cy="5.23" r=".13"/><path d="M6 8.52h.13v-.26a.13.13 0 0 0-.26 0v.26z" fill="#ec6c80" fill-rule="evenodd"/></g></g></svg>