<svg xmlns="http://www.w3.org/2000/svg" viewBox="0 0 12 12.16"><defs><style>.cls-3,.cls-4,.cls-8,.cls-9{fill-rule:evenodd}.cls-3{fill:#e35639}.cls-4{fill:#c53d36}.cls-8{fill:#564152}.cls-9{fill:#655261}.cls-10{fill:#fdfdfd}</style></defs><g id="Слой_2" data-name="Слой 2"><g id="Layer_1" data-name="Layer 1"><path d="M0 7.3a5 5 0 0 0 1.36 3.3 6.35 6.35 0 0 0 4.23 1.56c1.17 0 4.16-.13 5-1.07A5.83 5.83 0 0 0 12 8.57c.3-4.38-.72-7.66-6.12-7.66A6.06 6.06 0 0 0 0 7.3z" fill-rule="evenodd" fill="#e5dbd0"/><path d="M0 6.39a5 5 0 0 0 1.36 3.3 6.35 6.35 0 0 0 4.23 1.56c1.17 0 4.16-.13 5-1.07A5.83 5.83 0 0 0 12 7.66C12.26 3.29 11.23 0 5.83 0A6.06 6.06 0 0 0 0 6.39z" fill="#fff" fill-rule="evenodd"/><path class="cls-3" d="M8.93 1.61a.26.26 0 0 1 .36.26 9.75 9.75 0 0 1-.59 2.84l-2-1.39a6.1 6.1 0 0 1 2.23-1.71z"/><path class="cls-4" d="M7.37 3.78A7.06 7.06 0 0 1 8.91 2c.1-.06.19.08.17.27a17.4 17.4 0 0 1-.47 2.38z"/><path class="cls-3" d="M3.07 1.61a.26.26 0 0 0-.36.26 9.75 9.75 0 0 0 .59 2.84l2-1.39a6.1 6.1 0 0 0-2.23-1.71z"/><path class="cls-4" d="M4.62 3.78A7.06 7.06 0 0 0 3.08 2c-.1-.06-.19.08-.17.27a17.4 17.4 0 0 0 .47 2.38z"/><ellipse cx="6" cy="9.13" rx=".79" ry=".53" fill="#f2c49d"/><path d="M5.08 9a21.33 21.33 0 0 0-2.45-1.1l.15-.44a1.9 1.9 0 0 0-.86.09l.39-.66h2.77zm1.84 0a21.34 21.34 0 0 1 2.45-1.1l-.15-.44a1.9 1.9 0 0 1 .86.09l-.39-.66H6.92z" fill="#f2c49d" fill-rule="evenodd"/><path d="M6 3.08c1.92 0 3.57 1.92 4.07 4.45a1.87 1.87 0 0 0-2-.47 1.19 1.19 0 0 0-.58 1.11.94.94 0 0 1-1.38.92.26.26 0 0 0-.2 0 .94.94 0 0 1-1.38-.92 1.19 1.19 0 0 0-.58-1.11 1.87 1.87 0 0 0-2 .47C2.43 5 4.08 3.08 6 3.08z" fill="#ed794b" fill-rule="evenodd"/><path class="cls-8" d="M4.62 6.76a.46.46 0 0 1-.46-.46V6a.46.46 0 0 1 .46-.46.46.46 0 0 1 .46.46v.3a.46.46 0 0 1-.46.46z"/><path class="cls-9" d="M4.62 5.58h-.07v.65a.26.26 0 1 0 .53 0V6a.46.46 0 0 0-.46-.42z"/><circle class="cls-10" cx="4.62" cy="5.91" r=".2"/><path class="cls-8" d="M7.38 6.76a.46.46 0 0 1-.46-.46V6a.46.46 0 0 1 .46-.46.46.46 0 0 1 .46.46v.3a.46.46 0 0 1-.46.46z"/><path class="cls-9" d="M7.38 5.58h-.06v.65a.26.26 0 1 0 .53 0V6a.46.46 0 0 0-.47-.42z"/><circle class="cls-10" cx="7.38" cy="5.91" r=".2"/><path class="cls-3" d="M5.87 9.13a.26.26 0 0 1 .19 0V8.6h-.19v.52z"/><path class="cls-9" d="M6 7.81a.49.49 0 0 1 .53.44c0 .23-.22.35-.39.45a.3.3 0 0 1-.3 0c-.16-.09-.39-.21-.39-.45A.49.49 0 0 1 6 7.81z"/><path class="cls-8" d="M6.12 8.68a.71.71 0 0 1-.39-.57.58.58 0 0 1 .07-.27.45.45 0 0 0-.35.41c0 .23.22.35.39.45a.3.3 0 0 0 .3 0z"/><path class="cls-3" d="M6 3.08h-.26c-1.81.16-3.33 2-3.82 4.43A2 2 0 0 1 3.63 7C3.74 3.69 5.79 3.08 6 3.08z"/></g></g></svg>