<svg xmlns="http://www.w3.org/2000/svg" viewBox="0 0 36.72 35.38"><defs><style>.cls-1,.cls-2{fill:#7e8090;fill-rule:evenodd}.cls-2{fill:#ffff98}</style></defs><g id="Слой_2" data-name="Слой 2"><g id="Layer_1" data-name="Layer 1"><path class="cls-1" d="M17.12 22.6a19.66 19.66 0 0 1 4.77.1L23 26.13v.09a2.07 2.07 0 0 1-1.23-.13 32.91 32.91 0 0 0-4.09-.22l-.62-3.26zm-.73 9a13.72 13.72 0 0 1-.73-4 23.93 23.93 0 0 1 5.4 0l.53 3.84a48.62 48.62 0 0 1-5.2.21zm-2.24-13.18a16.53 16.53 0 0 1 3.75.13c.27.46.31 1.84.64 2.55-1.46 0-2.65.47-4.13 0l-.26-2.65zM16.24 26a19.65 19.65 0 0 1-4 .19c-.79-.2-.9-2.15-1.09-3.34.74 0 1.32-.2 2.06-.25a18.13 18.13 0 0 1 2.33.19l.7 3.21zm-10.8-7.75a97.59 97.59 0 0 0-.17 10.83c.09 2.5-.15.95-.22 2.41a1.65 1.65 0 0 0 .24 1c1 .33 1.09-.07 1.14-1 0-.62.37-.47.4-1.07 0-.89-.07-2.08-.09-3-.07-3.36.19-6.66.15-9.8l9.51-3.82.45-.56c1.15-.12 5 1.41 6.22 1.91.93.42 1.93.85 2.93 1.22s2 1 2.92 1.32c-.38 1.14-.09.72 0 1.57l.1 5.4c0 1.14 0 2.35.07 3.52s.34 2.29.32 3.3c-1.08 0-2.17-.15-3.26-.19s-2.05 0-3.06 0c0-.94-.49-3-.37-3.65a14.77 14.77 0 0 1 3.13.22c.13.63.33 2.44.49 2.83.31.77 1.62.83 1.35-1.08-.48-3.41-.23-3.12-3.62-3.45.48-.9-.15-2-.4-3C23.06 20.92 22 21 19.74 21a8.09 8.09 0 0 0-.28-2.7c-.53-2.09-3.63-1.23-5.33-1.29-.57 0-1-.13-1.24.33a16.88 16.88 0 0 0 .06 3.75c-1 .36-2.6.17-3.22.73a22.9 22.9 0 0 0 .61 4.45c-.91.24-2 0-2.36.88a21.92 21.92 0 0 0 .16 3.1c0 .57 0 1 .57 1.2a.68.68 0 0 0 1-.69c0-.72-.25-2.17-.32-3h2.47l2-.09c.31.05.16 0 .23.08.14.5.18 1.4.31 2s.35 1.3.44 1.89c-4.59.41-3.46.09-8 1-1.71.36-.54-.15-1.8.51-.4.21-2.43.41-3.23.62-1.31.34-.74 1.62.12 1.53.27 0 .84-.23 1.16-.3l2.61-.53a3.17 3.17 0 0 1 1.2-.38c1.73-.26 3.34-.7 5.19-.83s3.86-.18 5.81-.26a78.28 78.28 0 0 1 10.43-.15c1.26.07.54.19 1.3.25s4.28.52 4.62-.39a.8.8 0 0 0-.81-1l-2.57.13c0-1.22-.22-2.07-.31-3.21s-.1-2.3-.11-3.46c0-2.4-.19-4.54-.24-6.84 1.35.39 5 2.23 6 2.22 1.17-1-.07-1.47-1-1.84l-5.5-2.3c-3-1.35-5-2.28-8.16-3.54a39.52 39.52 0 0 0-4.69-1.25c-.85-.21-.92.36-1 .81a6 6 0 0 0-1 .36L8 15.61c-1.3.51-2.63 1.08-3.94 1.56L1.14 18.4a4 4 0 0 0-1.1.35c-.44 2.49 3.39.13 5.4-.5zM30.59 8.07c-1.06-.16-1.94.58-2.71.91.14-.92 2.36-4.85 2-5.6-.72-.64-1.08-.34-1.35.44L27 7.2c-.22.47-.49 1.35-.73 1.74-.13-.59-.13-1.24-.74-1.3s-.69.65-.62 1.19.11 1.28.21 1.82.44 1 1.21.78c.44-.13 2.08-1.11 2.71-1.44s2.63-.77 1.55-1.92z"/><path class="cls-2" d="M16.4 31.57a48.62 48.62 0 0 0 5.2-.21l-.53-3.84a23.93 23.93 0 0 0-5.4 0 13.72 13.72 0 0 0 .73 4.05z"/><path class="cls-1" d="M6.42 9.82c-.79-.31-1.82-.81-1.77.54 0 .1 2.14 1.5 2.93 1.37 1-.16 1.53-.5.94-1.51-.3-.51-.23-.4-.08-1a7.08 7.08 0 0 0 .44-2.28.68.68 0 0 0-1.19 0c-.3.36-.33 1-.59 1.37L5.16 6a4.47 4.47 0 0 1-.44-.6l-.5-.64c-.35-.44-1.11-.85-1.31-.06S5 8 5.51 8.59a9.26 9.26 0 0 1 .91 1.23zm11.5-7.04c-.66 0-1 .72-1.35 1.13-.4-1.56-.12-3.6-.8-3.85s-.88.35-.87.91l.38 4.66c-.66-.62-.83-.74-1.44-.53-.46 1 .49 1.37 1 1.89 1.46 1.55 1.68-.1 3-2.31a5.75 5.75 0 0 0 .6-1 .69.69 0 0 0-.52-.9z"/><path class="cls-2" d="M17.74 25.86a32.91 32.91 0 0 1 4.09.22 2.07 2.07 0 0 0 1.23.13s-.07-.08 0-.09l-1.17-3.42a19.66 19.66 0 0 0-4.77-.1zm-1.5.14l-.66-3.22a18.13 18.13 0 0 0-2.33-.19c-.74 0-1.32.22-2.06.25.19 1.19.3 3.14 1.09 3.34a19.65 19.65 0 0 0 3.96-.18zm-1.82-4.93c1.49.49 2.68 0 4.13 0-.33-.71-.38-2.09-.64-2.55a16.53 16.53 0 0 0-3.75-.12z"/></g></g></svg>