<svg xmlns="http://www.w3.org/2000/svg" viewBox="0 0 3.84 3.84"><g data-name="Слой 2"><path d="M.24 1.92V3.6a.24.24 0 0 0 .24.24h1.2V1.92zm1.92 0v1.92h1.2a.24.24 0 0 0 .24-.24V1.92zM3.6 1h-.76L3 .85a.5.5 0 0 0 0-.71.51.51 0 0 0-.7 0 1.32 1.32 0 0 0-.37.86 1.32 1.32 0 0 0-.36-.86.51.51 0 0 0-.7 0 .5.5 0 0 0 0 .71L1 1H.24a.24.24 0 0 0-.24.2v.36a.12.12 0 0 0 .12.12h1.56V1.2h.48v.48h1.56a.12.12 0 0 0 .12-.12V1.2A.24.24 0 0 0 3.6 1zM1.67.95A1.18 1.18 0 0 1 1 .68a.26.26 0 0 1 0-.37.26.26 0 0 1 .36 0c.16.16.32.58.27.64zm.55 0c-.06-.06.1-.47.27-.64a.26.26 0 0 1 .31.37 1.18 1.18 0 0 1-.58.32z" fill="#f2921a" fill-rule="evenodd" data-name="Layer 1"/></g></svg>