<svg xmlns="http://www.w3.org/2000/svg" viewBox="0 0 30.74 29.11"><defs><style>.cls-1,.cls-2{fill:#7e8090;fill-rule:evenodd}.cls-2{fill:#ffff98}</style></defs><g id="Слой_2" data-name="Слой 2"><g id="Layer_1" data-name="Layer 1"><path class="cls-1" d="M18.68 9.58a6.29 6.29 0 0 0 0-2C18 4.74 18.29 4.21 18 1.91l1.88-.33a6.85 6.85 0 0 0 .24 2.12c.15.6.19 1.6 1 1.55 1.41-.09-.21-1.95.08-3.87a7.09 7.09 0 0 1 2.71.27c.41.17.41.42.44.89l.34 7.32-6-.29zM10 4.32c0-.87-.09-2.22 1.19-2.18a1.33 1.33 0 0 1 .17.89c-.1.81-.38.24-.11 1.35L10 4.32zM7.25 9.53a22 22 0 0 1-.11-3.71 13.71 13.71 0 0 1 5.21.25 20.14 20.14 0 0 0 .7 3.53l-5.8-.07zm1-5.38a3.76 3.76 0 0 1-.92-1.1c-.21-.5-.3-1.08.19-1.3.39.16.4.56.5 1.11.07.39.19.85.24 1.29zM2 9.69c-.6-.92-.65-.36-.74-1.63C1.21 6.64.13 7.39.11 7.42A6.76 6.76 0 0 0 .33 10a3 3 0 0 0 2.14 1l.41-.3c2 .2 5.52.14 7.51.18s6.37 0 8.3 0c3.22 0 6 .29 9.12.4.55 0 1 .27 1.39.16a4.46 4.46 0 0 0 .53-.26c.72-.27.83 0 .67-1.45-.06-.57.21-.4.17-1.11 0-.39 0-1-.23-1.24s-.76-.08-1 .16a3.66 3.66 0 0 0 0 1.36c0 .27-.16.56-.18 1.05l-3-.11c-.25-.16-.15.19-.21-.39L25.69 3c-.08-1.28-.16-2.18-1.27-2.6-2.73-1-5.85.22-6.45.2s-.14 0-.39-.14c-1.51-.8-.93 2.13-.92 2.42A28.19 28.19 0 0 0 17 6.26c.09.53.2 1 .32 1.53a5.49 5.49 0 0 1 0 1.82L14 9.55c.38-.55-.07-2.23-.18-3-.23-1.64-.29-1.5-1.75-2.05 1.33-1.72.46-4.24-1.55-3.67-.8.23-.77.48-1.29.88-.23-.21-.3-.53-.49-.71-1.47-1.77-3.95.5-2.45 2.9a5.71 5.71 0 0 1 .46.67c-.46.19-.83.17-.94.71v1.4c0 .68.12 2.34 0 2.86H3.1c-.69-.03-.63.17-1.1.15zm23.48 17.92l-1.84-.1c.08-.59-.21-.56-.19-2a1.14 1.14 0 0 1 .12-.69l1.72-.11.19 2.88zM19.57 24c0 .61.13.5.37.88.42.65-.14 1.7-2.06 1.19-2.61-.69-.58-2.6-.07-2.61.55.17.88.63 1.76.54zm-14-1.1c.18.47-.1 3.27.31 3.75s.85.16 1.14-.12c.25-.46-.35-2.43 0-3.68h.43c.37.55 0 1 .58 1.68 1.29.18.82-.9.79-1.74a2.58 2.58 0 0 1 1.1.35 13.19 13.19 0 0 1 .28 4.07H2.92c-.8 0-1.16-.22-1.54.42s.85.81 1.38.86c1.82.18 5.49.1 7.3.12 2 0 7-.11 9 0s4.24.25 6.23.46c.65.07 4 .28 4.41-.09.22-.19.14-.34.27-.55s.25-.23.41-.36-.19-1.06-.23-1.33c-.09-.62 0-.52-.33-1-1.34-.15-1 .9-.76 2.11h-2.29a12.54 12.54 0 0 0 0-2.57c-.15-2.07-.9-1.75-3-1.56-.58.05-1.05 0-1.32.52a8.1 8.1 0 0 0-.13 3.28l-2-.12a1 1 0 0 1 .17-.15h.06a2.31 2.31 0 0 0 1-2 2.71 2.71 0 0 0-.55-1.31c-.28-.44-.47-.56-1.12-.46-.34-.92-.47-.48-1-1.1-1-1.11-4.76 1.4-3.28 3.78.33.52.6.53.91.89l-4.88.15c-.05-.87-.06-4.68-.72-5.21-.9-.72-2.77-.66-3.89-.43s-1.89.27-1.49 1.33zM19 15.63h1.66a2 2 0 0 0 .27 1.29c.77 0 1.19.13.94-1.34h3l.37 2.42H19v-2.4zM1.87 19c-1.1-2-.18-2.72-1-2.91-1.7-.37-.53 5.17 1 3.34 1 .8 3.37.4 5.39.29 3.67-.2 11-.28 14.68-.33 1.11 0 8.07.18 8.63-.87a4.22 4.22 0 0 0 .1-1.7c0-.69.32-1.31-.22-1.62-1.1-.64-1.08 2-1.13 2.54L26.6 18c0-.63-.24-1.12-.28-1.85-.13-2.25-.76-1.93-2.33-1.92h-2a27.08 27.08 0 0 0-3.9.22c-.91.42-.26 2.79-.36 3.71-1.56-.1-10.7.33-11.05.25.26-.49-.23-1.38 0-2.14a20.52 20.52 0 0 1 4-.11l1.22.28c.14.62.09 1.43.61 1.66 1.29.55 1-2.2.3-2.74-1.15-.92-7.36-.77-7.77.25-.22.54.25.27.33 1.45a5.33 5.33 0 0 0 .23 1.51c-.51 0-2 .1-2.48.11-.72-.04-.92-.25-1.25.32z"/><path class="cls-2" d="M13.06 9.59a20.17 20.17 0 0 1-.7-3.53 13.71 13.71 0 0 0-5.21-.25 22 22 0 0 0 .11 3.71z"/><path class="cls-1" d="M.87 27.27c.31 0 .44-.16.62-.34s1-.49.46-1.14C.54 24.14-.38 27.14.87 27.27z"/><path d="M10 4.32l1.25.07c-.27-1.11 0-.54.11-1.35a1.33 1.33 0 0 0-.17-.89C9.87 2.09 10 3.44 10 4.32zm-1.73-.17c0-.44-.16-.9-.24-1.29-.1-.55-.11-.95-.5-1.11-.48.22-.39.8-.19 1.3a3.76 3.76 0 0 0 .93 1.1z" fill="#fff" fill-rule="evenodd"/><path class="cls-2" d="M19 15.63h1.66a2 2 0 0 0 .27 1.29c.77 0 1.19.13.94-1.34h3l.37 2.42H19zm.57 8.37c0 .61.13.5.37.88.42.65-.14 1.7-2.06 1.19-2.61-.69-.58-2.6-.07-2.61.54.15.88.62 1.76.54zm5.91 3.61l-1.84-.1c.08-.59-.21-.56-.19-2a1.14 1.14 0 0 1 .12-.69l1.72-.11z"/></g></g></svg>