<svg xmlns="http://www.w3.org/2000/svg" viewBox="0 0 9.6 9.6"><g data-name="Слой 2"><g data-name="Layer 1"><circle cx="4.8" cy="4.8" r="4.8" fill="#c8ccd3"/><path d="M6.57 4.4A1.51 1.51 0 0 0 5.24 3h-.16a.19.19 0 0 0-.2.17.2.2 0 0 0 0 .15.29.29 0 0 0 .21.09h.06a1.06 1.06 0 0 1 1 1v.06c0 .06 0 .24.19.24.16 0 .16-.18.16-.25a.38.38 0 0 1 0-.05zM5.2 3.6a.72.72 0 0 1 .51.24.77.77 0 0 1 .24.52c0 .17-.05.26-.18.27a.21.21 0 0 1-.2-.2.43.43 0 0 0-.42-.43.24.24 0 0 1-.15-.1.19.19 0 0 1 0-.16.23.23 0 0 1 .2-.14zm1.57 2.33c.18.13.4.3.27.64a1.15 1.15 0 0 1-1 .73H6l-.2-.06a6.48 6.48 0 0 1-2-1.35 6.09 6.09 0 0 1-1.34-2 .93.93 0 0 1 0-.75 1 1 0 0 1 .61-.5.5.5 0 0 1 .34 0 2.5 2.5 0 0 1 .88 1.2.5.5 0 0 1-.29.38c-.18.12-.21.27-.11.49A2.06 2.06 0 0 0 5 5.77a.42.42 0 0 0 .17 0 .25.25 0 0 0 .21-.13.56.56 0 0 1 .47-.3.76.76 0 0 1 .43.16l.08.05.37.27.07.05zM5 2.71c-.08 0-.25 0-.24-.19A.2.2 0 0 1 5 2.31h.13A2.23 2.23 0 0 1 7.22 4.5v.1a.24.24 0 0 1-.05.17.19.19 0 0 1-.17.07c-.19 0-.2-.18-.2-.27V4.5a1.8 1.8 0 0 0-1.71-1.79z" fill="#fff" fill-rule="evenodd"/></g></g></svg>