<svg xmlns="http://www.w3.org/2000/svg" viewBox="0 0 36.44 32.51"><defs><style>.cls-1{fill:#7e8090}.cls-1,.cls-2,.cls-3{fill-rule:evenodd}.cls-2{fill:#fff}.cls-3{fill:#ffff98}</style></defs><g id="Слой_2" data-name="Слой 2"><g id="Layer_1" data-name="Layer 1"><path class="cls-1" d="M18.44 13.64l3.34-.06c2.3 0 2.66-.22 2.73 2.54a28.09 28.09 0 0 1-3 .09c-.84-.08-1.85-.3-2.72-.43l-.37-2.14zm2.14 12.22c-.66 0-1.25-.05-1.87-.08-.84 0-1.51 0-1.66-.33a22.18 22.18 0 0 1-.59-3.2l4.23-.05c.09 1.19-.27 2.64-.11 3.66zm2.1-23.39c0 1.58-1.67 1.6-3.63 2.49.52-1.19 2.28-3.52 3.63-2.49zm-5.82 1.77a5 5 0 0 1-.65-.87c-.5-1-.05-1.78.68-1.92.8.7 1 2.36.68 3.63l-.72-.84zm4.57 7.94c-1.06 0-2.46.23-3.39.19-.19 0-2.36-.76-2.69-.9a33.39 33.39 0 0 1 .23-5.05 19.1 19.1 0 0 1 5.58.7c-.12 1.39-.25 4.07.27 5.06zm-8.91 13.06a21.84 21.84 0 0 1-.84-3.16l3.31.15.59 3.19-3.06-.18zM12.34 13a8.48 8.48 0 0 1 3.63.16l.53.19.44.22.38 2c-.77 0-1.69-.09-2.53-.06s-1.63.06-2.46 0V13zm-1.08 7.76l3.56.06-.19-1.88c-.09-.92 1.08-1.34 1.29.14.08.58.2 1.15.26 1.79l4.66-.08c.09-.78.45-.88 1.13-.67l.16.74h3.17l.36.45c-.08 1-.6.9-1.46 1s-1.39 0-2.13 0a9.65 9.65 0 0 1-.38 3.55 7.44 7.44 0 0 0 1.88-.16 7.56 7.56 0 0 0 1.81-.33c.43-1.93 1.07-5.49 1.64-7.27-1 .07-.63-.11-1.16-.38-.76-.39-2.57-.07-3.47 0-1.31.05-4.39-.62-5.9-.75-1.77-.15-4.14.17-6.32-.06a32.28 32.28 0 0 0 1.1 3.9zM7.49 9.5c-.77 0-6-1.6-5.72.09.33.86 1.74.47 2.81.72a20.16 20.16 0 0 0 2.82.61c.07.22 1.2 5.75 1.68 7.46a24 24 0 0 1 .68 2.36l-.56.37c0 .59-.13.9 1 1 .19.88.47 1.83.71 2.72.31 1.15.17 1.82 1.64 1.86 2.61.07 4.6.53 7 .6a22 22 0 0 0 5.34-.37c.68-.08.7.11 1.28.06.39-.18.56-1.88.81-2.91l1.44-5.93c.27-1.11.8-2.37-.74-2.31-.54.78-.21.33-.45 1.26a4.1 4.1 0 0 0-.53-.49c-.22-.15-.59-.26-.72-.45-.85-1.3 1.12-3.8-3.71-3.94.49-.66.19-1.88.18-3.05 0-.88.21-2.28-.14-2.81-.23-.36-.61-.39-1-.69l.51-.24a4.26 4.26 0 0 0 1.36-.76c2.14-2.09.1-5.2-3.07-3.13L19 2.48a13.85 13.85 0 0 0-.71-1.59C17-1.2 14.61.85 14.57 2.38a3.22 3.22 0 0 0 1.13 2.46c-.37.27-.51.12-.9.34-1.14.64-.8 5.06-.74 6.28-2 .22-2.9-.34-3.09 1.23l.15 2.88H9.8c-.11-1-.55-2.4-.78-3.46-.47-2.2.15-2.57-1.53-2.61z"/><path class="cls-2" d="M14.82 20.8l-.19-1.88c-.09-.92 1.08-1.34 1.29.14.08.58.2 1.15.26 1.79l4.66-.08c.09-.78.45-.88 1.13-.67l.16.74h3.17l.36.45c-.08 1-.6.9-1.46 1s-1.39 0-2.13 0a9.65 9.65 0 0 1-.38 3.55 7.44 7.44 0 0 0 1.88-.16 7.56 7.56 0 0 0 1.81-.33c.43-1.93 1.07-5.49 1.64-7.27-1 .07-.63-.11-1.16-.38-.76-.39-2.57-.07-3.47 0-1.31.05-4.39-.62-5.9-.75-1.77-.15-4.14.17-6.32-.06a32.28 32.28 0 0 0 1.1 3.9z"/><path class="cls-3" d="M21.43 12.18c-.53-1-.4-3.67-.27-5.06a19.1 19.1 0 0 0-5.58-.7 33.39 33.39 0 0 0-.23 5.05c.33.14 2.51.89 2.69.9.96.04 2.33-.17 3.39-.19zm-2.62 3.6c.87.13 1.88.34 2.72.43a28.09 28.09 0 0 0 3-.09c-.08-2.76-.43-2.53-2.73-2.54l-3.34.06z"/><path class="cls-2" d="M20.58 25.85c-.17-1 .2-2.47.11-3.66l-4.23.05a22.18 22.18 0 0 0 .59 3.2c.15.37.82.29 1.66.33.61.03 1.2.11 1.87.08z"/><path class="cls-1" d="M23.71 30.24c-.4 1-2 .83-2 .11a2.16 2.16 0 0 1 2-.11zm-.9-1.75a2.57 2.57 0 0 0-2.59 1.82c-.2 1.28 1.09 2 2.3 2a2.5 2.5 0 0 0 2.57-1.73c.3-1.21-1.09-2.06-2.28-2.1zm-9.55 2.61c.21-.3.16-.1.39-.28 0 0 .69-1 1.34-.36-.29.64-.93.67-1.73.64zm1.07 1.35c3.11-.51 2.52-4.18-.35-3.48-3.22.79-2.75 4.03.36 3.48z"/><path class="cls-3" d="M12.33 15.52h2.46c.8 0 1.76.09 2.53.06l-.38-2-.44-.22-.5-.23a8.48 8.48 0 0 0-3.66-.13z"/><path class="cls-1" d="M.94 20c-.37-.25-1.57-.07-.51 1.36.67.9 3.26 4.51 3.88 4.77.94.4 1.19-.67.54-1.41l-2.62-3.16A18.38 18.38 0 0 0 .94 20z"/><path class="cls-2" d="M12.52 25.24l3.06.18-.58-3.18-3.31-.15a21.84 21.84 0 0 0 .83 3.15z"/><path class="cls-1" d="M2.87 18.39c-.73-.4-1.08.39-.7 1.17a12.65 12.65 0 0 0 3.33 3.71c.66.23 1.11-.5.66-1.13-.59-.81-1.73-1.63-2.31-2.39zm32.72-4.02c-.62.62-.29.52-.55 1.38-.37 1.21-1.73 4.08-.23 3.85.84-.13.95-1.71 1.21-2.6s.98-2.59-.43-2.63zm-3.44 4.93c.76-.12 1-1.83 1.2-2.61.14-.52 1-2.71-.28-2.39-.48.12-.57.7-.74 1.22-.33 1.2-1.68 4.02-.18 3.78z"/><path class="cls-2" d="M22.68 2.47c-1.35-1-3.11 1.3-3.63 2.49 1.95-.89 3.61-.91 3.63-2.49zm-5.1 2.61c.29-1.27.12-2.93-.68-3.63-.74.14-1.19.91-.68 1.92a5 5 0 0 0 .65.87z"/><path class="cls-3" d="M23.71 30.24a2.16 2.16 0 0 0-2 .11c-.05.72 1.59.9 2-.11zm-8.71.22c-.65-.6-1.34.36-1.34.36-.23.18-.17 0-.39.28.79.03 1.43 0 1.73-.64z"/></g></g></svg>