<svg xmlns="http://www.w3.org/2000/svg" viewBox="0 0 28.8 28.84"><defs><linearGradient id="a" x1="47.73" y1="186.15" x2="-65.46" y2="-396.12" gradientUnits="userSpaceOnUse"><stop offset="0" stop-color="#f15d22"/><stop offset="1" stop-color="#ca4a1e"/></linearGradient></defs><g data-name="Слой 2"><g data-name="Layer 1" fill-rule="evenodd"><path fill="#ee5421" d="M11.52.26l1.88.93L15.13 0l1.59 1.37L18.7.65l1.2 1.72 2.09-.21.73 1.97 2.08.31.22 2.09 1.93.83-.3 2.07 1.67 1.28-.82 1.94 1.3 1.65-1.27 1.68.85 1.92-1.65 1.3.34 2.08-1.91.86-.19 2.09-2.07.35-.7 1.98-2.09-.17-1.17 1.74-1.99-.69-1.56 1.4-1.76-1.16-1.86.97-1.41-1.56-2.05.47-.97-1.86-2.1-.06-.48-2.04-2.02-.58.04-2.09-1.82-1.06.57-2.03-1.5-1.47 1.05-1.82L0 12.74l1.47-1.5-.6-2.01 1.8-1.09-.08-2.1 2.01-.61.44-2.05 2.1-.09.94-1.88 2.06.43L11.52.26z"/><path d="M11.87 2l-1.21 1.39L8.86 3 8 4.66l-1.84.08-.36 1.8-1.8.53.07 1.84-1.57 1 .16.55 1.56-.96-.07-1.84 1.76-.53.39-1.8 1.84-.08L9 3.6l1.8.38L12 2.59l1.65.82 1.52-1 1.4 1.2 1.73-.63 1.05 1.51 1.83-.18.63 1.69 1.77.27-.06-.57-1.83-.3L21 3.67l-1.83.18-1.01-1.5-1.73.65L15 1.78l-1.52 1L11.87 2zM3 11.68L1.77 13l.26.44 1.14-1.17-.17-.59zm-.4 3.05l-.8 1.4.29.28.75-1.3-.23-.38zm.4 3.06l-.39 1.41.24.14.37-1.34-.22-.21zm1.19 2.84v1.33h.13v-1.29l-.13-.07zm22.35-3.08l.1-.08-.54-1.22-.09.12.52 1.19zm.31-3l.17-.22-.9-1.15-.12.28.85 1.09zm-.41-3l.16-.37-1.28-1-.06.44 1.19.91zm-1.11-2.82l.07-.5-1.64-.7.06.56z" fill="url(#a)"/><path d="M5.53 20.68c.07.37.55.55 1.14.55A7.6 7.6 0 0 0 8 21.14a2.32 2.32 0 0 0 1.81-1.26 3.79 3.79 0 0 0 .22-2.43 2.6 2.6 0 0 0-1.31-2 2.91 2.91 0 0 0-2.4 0c0-.38-.25-1.37-.18-1.32l2.61-.47c.46-.09.43-.52.35-.94-.1-.66-.31-.72-1.1-.59-.2.05-.72.14-1.54.28l-1.53.24-.43.1c-.22.09-.32.3-.27.65l.56 3.31c0 .29.35.54.6.42 1.65-.78 2.78-.5 2.85 1.05a1.15 1.15 0 0 1-1.47 1.32h-.33a1.57 1.57 0 0 0-.47 0c-.18 0-.3.2-.37.48a1.64 1.64 0 0 0-.06.75zm4.9-4.27a7.75 7.75 0 0 1 .06-3.09 2.56 2.56 0 0 1 1.93-2.12c2.25-.45 3.63 2.28 4 4.16a6.55 6.55 0 0 1-.08 3 2.59 2.59 0 0 1-2 1.95 2.52 2.52 0 0 1-2.72-1 7.61 7.61 0 0 1-1.2-2.9zM13 13.17c-.56.1-.84.6-.87 1.51a5.75 5.75 0 0 0 .58 2.63c.37.77.73 1.14 1.14 1.1h.09c.91-.15 1-2.18.54-3.63-.27-1-.85-1.73-1.49-1.59zm3.41-.85c.32 1.39 1 2 1.92 1.79a1.22 1.22 0 0 0 1-.85 2.77 2.77 0 0 0 .09-1.47 4.66 4.66 0 0 0-.33-.94 1.6 1.6 0 0 0-1.65-1 1.09 1.09 0 0 0-.76.55 2.69 2.69 0 0 0-.26 1.88zm1.29-1.53c.83-.17 1.2 2.27.43 2.42-.13 0-.27 0-.4-.19a2.19 2.19 0 0 1-.47-1.3q-.07-.85.45-.94zm2.26 7.7c.05.27.26.37.6.3a.66.66 0 0 0 .41-.25 1.27 1.27 0 0 0 .21-.83v-.09c.1-2.81.26-5.35.48-7.61a1.09 1.09 0 0 1 0-.18v-.2c-.06-.3-.35-.4-.85-.3s-.57.45-.6 1a.74.74 0 0 0 0 .16c-.05.52-.1 1.77-.17 3.76s-.11 3.35-.11 4.05v.15zm2-2.17c.32 1.39 1 2 1.92 1.79a1.22 1.22 0 0 0 1-.85 2.77 2.77 0 0 0 .09-1.47 4.68 4.68 0 0 0-.33-.94 1.6 1.6 0 0 0-1.65-1 1.09 1.09 0 0 0-.76.55 2.69 2.69 0 0 0-.26 1.88zm1.29-1.53c.83-.17 1.2 2.27.43 2.42-.13 0-.27 0-.4-.19a2.19 2.19 0 0 1-.47-1.3q-.12-.85.4-.93z" fill="#c33b0e"/><path d="M5.53 19.72c.07.37.55.55 1.14.55A7.59 7.59 0 0 0 8 20.18a2.32 2.32 0 0 0 1.81-1.26 3.79 3.79 0 0 0 .22-2.43 2.6 2.6 0 0 0-1.31-2 2.91 2.91 0 0 0-2.4 0c0-.38-.25-1.37-.18-1.32l2.61-.47c.46-.09.43-.52.35-.94-.1-.65-.31-.76-1.1-.59-.2.05-.72.14-1.54.28l-1.53.24-.43.1c-.22.09-.32.3-.27.65l.56 3.31c0 .29.35.54.6.42 1.65-.78 2.78-.5 2.85 1.05a1.15 1.15 0 0 1-1.47 1.32h-.33a1.58 1.58 0 0 0-.47 0c-.18 0-.3.2-.37.48a1.64 1.64 0 0 0-.06.75zm4.9-4.27a7.76 7.76 0 0 1 .06-3.09 2.56 2.56 0 0 1 1.93-2.12c2.25-.45 3.63 2.28 4 4.16a6.55 6.55 0 0 1-.08 3 2.59 2.59 0 0 1-2 1.95 2.52 2.52 0 0 1-2.72-1 7.61 7.61 0 0 1-1.2-2.9zM13 12.21c-.56.1-.84.6-.87 1.51a5.75 5.75 0 0 0 .58 2.63c.37.77.73 1.14 1.14 1.1h.09c.91-.15 1-2.18.54-3.63-.27-1-.85-1.73-1.49-1.59zm3.41-.85c.32 1.39 1 2 1.92 1.79a1.22 1.22 0 0 0 1-.85 2.77 2.77 0 0 0 .09-1.47 4.66 4.66 0 0 0-.33-.94 1.6 1.6 0 0 0-1.65-1 1.09 1.09 0 0 0-.76.55 2.69 2.69 0 0 0-.26 1.88zm1.29-1.53c.83-.17 1.2 2.27.43 2.42-.13 0-.27 0-.4-.19a2.19 2.19 0 0 1-.47-1.3q-.07-.85.45-.94zm2.26 7.7c.05.27.26.37.6.3a.66.66 0 0 0 .41-.25 1.27 1.27 0 0 0 .21-.83v-.09c.1-2.81.26-5.35.48-7.61a1.09 1.09 0 0 1 0-.18v-.2c-.06-.3-.35-.4-.85-.3s-.57.45-.6 1a.75.75 0 0 0 0 .16c-.05.52-.1 1.77-.17 3.76s-.11 3.35-.11 4.05v.15zm2-2.17c.32 1.39 1 2 1.92 1.79a1.22 1.22 0 0 0 1-.85 2.77 2.77 0 0 0 .09-1.47 4.68 4.68 0 0 0-.33-.94 1.6 1.6 0 0 0-1.65-1 1.09 1.09 0 0 0-.76.55 2.69 2.69 0 0 0-.26 1.88zm1.29-1.53c.83-.17 1.2 2.27.43 2.42-.13 0-.27 0-.4-.19a2.19 2.19 0 0 1-.47-1.3q-.12-.84.4-.93z" fill="#fff"/><path d="M13 4.81c-1.25-.2-1.8.29-3 .74-.37.15-1.77.74-1.75 1.22a.6.6 0 0 0 .19.48c.49.32 2.65-.92 3.23-1.15.3-.12.62-.19.92-.31.62-.26.64-.45.37-1zM7.66 8.49a.92.92 0 0 0 .08-.32c0-.68-1.13-.79-1.13-.22s.53.65 1.05.54z" fill="#ffb154"/></g></g></svg>