<svg xmlns="http://www.w3.org/2000/svg" viewBox="0 0 3.84 3.85"><g data-name="Слой 2"><path d="M.78 2.56a4.09 4.09 0 0 0 1.36 1.07 2.11 2.11 0 0 0 .76.22H3a.63.63 0 0 0 .49-.21l.15-.16.11-.11a.39.39 0 0 0 0-.57l-.48-.48a.39.39 0 0 0-.28-.13.4.4 0 0 0-.28.13l-.29.29h-.17a3 3 0 0 1-.72-.66 1.75 1.75 0 0 1-.24-.39l.21-.21.07-.07a.41.41 0 0 0 .09-.39.41.41 0 0 0-.13-.29L1.29.37 1.21.28 1.05.12A.4.4 0 0 0 .77 0a.41.41 0 0 0-.28.12l-.3.3a.62.62 0 0 0-.19.4 1.48 1.48 0 0 0 .11.64 3.72 3.72 0 0 0 .67 1.1z" fill="#9099ac" fill-rule="evenodd" data-name="Layer 1"/></g></svg>