<svg xmlns="http://www.w3.org/2000/svg" viewBox="0 0 36 36"><g data-name="Слой 2"><g data-name="Layer 1" fill-rule="evenodd"><path d="M18 36A18 18 0 1 0 0 18a18 18 0 0 0 18 18z" fill="#cb98cb"/><path d="M27.14 16.31L18.5 7.67a1.74 1.74 0 0 0-2.47 0L11.3 12.4a1.77 1.77 0 0 0 0 2.49l.78.81h1.81L12.2 14a.49.49 0 0 1-.14-.34.47.47 0 0 1 .14-.33l.63-.61 3 3h2.85l-4.39-4.42 2.68-2.69a.47.47 0 0 1 .33-.14.46.46 0 0 1 .33.13l8.64 8.64a.46.46 0 0 1 .14.33.49.49 0 0 1-.15.33l-.49.48v1.81l1.4-1.38a1.74 1.74 0 0 0 0-2.47zM9.07 24.94a1.78 1.78 0 0 0 1.79 1.75h12.22a1.73 1.73 0 0 0 1.72-1.75v-.1H9.07v.1zm14-8.43a1.72 1.72 0 0 1 1.72 1.74v4.62H9.07v-4.63a1.78 1.78 0 0 1 1.79-1.74zm-9.74 4.79a1.26 1.26 0 0 1-.88-.35 1.27 1.27 0 1 1 0-1.83 1.27 1.27 0 1 1 .88 2.18z" fill="#fff"/></g></g></svg>