<svg xmlns="http://www.w3.org/2000/svg" viewBox="0 0 35.01 38.31"><defs><style>.cls-1{fill:#7e8090}.cls-1,.cls-2,.cls-3{fill-rule:evenodd}.cls-2{fill:#ffff98}.cls-3{fill:#fff}</style></defs><g id="Слой_2" data-name="Слой 2"><g id="Layer_1" data-name="Layer 1"><path class="cls-1" d="M26.18 13.33c0-.61.85-1.08 1.25-1.44a10.07 10.07 0 0 1 1.7-1.1c.6-.31 2.52-1 3.26-.64s1.72 1.55.78 2.53a2.69 2.69 0 0 1-1.88.91c-1 .16-4.39.21-5.11-.27zm-.58 12.83l.2-.38a2.87 2.87 0 0 0 1.37.81c.56.21 1.22.33 1.77.56.92.39 2 1.56 1.05 2.78-1.15 1.41-3.93-1.64-4-3 0-.54-.11-.48-.27-.64l-.11-.1zm-7.07 10.67c-1.62 0-1.32-3.83-1-5.1a5.3 5.3 0 0 1 1 5.1zm-2.2-26.38a16.27 16.27 0 0 1-1.58-6.6c0-1 .52-2.25 1.38-2.4a2.83 2.83 0 0 1 1.23 2.67 31.93 31.93 0 0 1-1 6.33zm-5.94 13.22c-.23-1.09 1.36-1.08.57-3.36a4.12 4.12 0 0 0-1.53-1.9c-.3-.2-.59-.22-.8-.43A4.93 4.93 0 0 1 10 16.4c.45-.54.23-.39.8-.77 1.49-1 3.4-2.33 5.44-2.2-1 1.14-1.4 3.62-.24 4.8 1.53 1.55 4.81.6 5.23 1.71a1.48 1.48 0 0 1-.73 1.42c-3.2 2.36-2.12 5-1 5.13.64.08 1-.44 1.3-.73s1.2-.22 1.7-.35c.81-.2.9 0 1.66.22a6.77 6.77 0 0 1-3.4 3.19 12.33 12.33 0 0 1-5.75.95c-.38-.11-.11 0-.37-1-.79-3-1.42.12-1.42-2.73 0-3.13-2.26-2.09-2.61-2.19s-.16-.08-.28-.18zm3 5.76l-.13-.68a1.62 1.62 0 0 1-1.29-1.22c-.27-.85.12-1.6-.28-2.31-1.06.07-1.68.12-2.29-.54a1.93 1.93 0 0 1-.25-2.11c.19-.45 1.4-1.3-.14-2.81a1.83 1.83 0 0 0-1-.5s-.08.05-.05.07 0 0-.05.07c-1 1.62-1.6 4.8-.09 6.71 1.18 1.5 3.76 3.27 5.62 3.32zM6.53 32.1c-1.93.13-.33-2 .86-2.72-.07.83 0 1.1-.29 1.62s-.22.7-.57 1.1zm2.25-16.61c-.18-1.91-2-5.51-4.07-6.13-1-.31-2-.5-2.58.3-1.19 1.6-.78 4 .89 4.55a17.72 17.72 0 0 0 3 .48c.93.16 1.79.61 2.72.79zM7.67 16.7c-.32.93-4.13 5.68-1.32 9.91.55.83.67.67.87 1.14a11 11 0 0 0-2.35 2.06c-2.25 3.08 1.68 4.9 3 2.94a5.2 5.2 0 0 0 .35-.71c.19-.39.3-.23.35-.82s.17-1.4.2-2.14A17.27 17.27 0 0 0 12 30.6a16.5 16.5 0 0 0 4.24.67c-.09 1.28-.71 2.52-.26 4.42.31 1.3 1.07 2.71 2.62 2.62 2.07-.13 1.84-4.13 1.21-5.64a17.91 17.91 0 0 1-.95-1.72 10.51 10.51 0 0 0 4.67-2.14c.19-.18.4-.34.59-.56s.3-.46.61-.66c.86 2.82 4.7 5.92 6.53 3 1.52-2.39-.27-4.43-2.74-5.11a7.47 7.47 0 0 1-1.11-.37 2.82 2.82 0 0 1-.47-.27l-.56-.27c.94-2.73 1.46-4.64.41-7.62-.27-.75-.73-1.57-.91-2.22 2.75.58 7.23 1 8.82-1.76 1-1.76-.69-4.32-2.69-4.41a9.14 9.14 0 0 0-4.3 1.33 10.62 10.62 0 0 0-2.11 1.74l-.9 1.09s-.07 0-.05-.05l-.83-.64c-.62-.21-.73.09-1 .33 0 .78.41.93.76 1.34 1.19 1.36 2.63 5.06 2.31 7.33a9.77 9.77 0 0 1-.89 3.16 2 2 0 0 1-1.21-.25 8.71 8.71 0 0 0-2.69.21 2.59 2.59 0 0 0-1.15.5c.12-1.72 1.72-1.93 2.45-3.08a2.33 2.33 0 0 0-1.31-3.5c-1.34-.41-3.83.1-4.26-1.36a3 3 0 0 1 .37-2.13 2.49 2.49 0 0 1 .57-.8c.7-.42.24.13.79-.62 2 .05 2.2.74 2.73.54 1-.75 0-1.3-.77-1.6a6.39 6.39 0 0 0-3-.28 69.68 69.68 0 0 0 1.27-7 6.57 6.57 0 0 0-.66-3.37c-1.18-2.14-3.6-1.86-4.54.93-.63 1.88 0 5.09.78 6.81.19.41.43 1 .61 1.45a2.51 2.51 0 0 0 .32.72.63.63 0 0 0 .31.21l.37.18c-.22.54-.23.21-1.61.56a8.87 8.87 0 0 0-1.61.56A18.51 18.51 0 0 0 10 14.42c-.16-.28-.31-1.11-.48-1.52a13.71 13.71 0 0 0-2.43-3.77c-1.58-1.39-4.68-2.25-6-.46a4.55 4.55 0 0 0 .12 6c1.71 1.76 4.35.93 6.46 2.03z"/><path class="cls-2" d="M10.39 23.67c.12.1-.11.07.28.18s2.61-.94 2.61 2.19c0 2.86.63-.3 1.42 2.73.26 1 0 .9.37 1a12.33 12.33 0 0 0 5.75-.95 6.77 6.77 0 0 0 3.4-3.19c-.76-.22-.85-.42-1.66-.22-.49.12-1.33 0-1.7.35s-.66.81-1.3.73c-1.13-.14-2.22-2.77 1-5.13a1.48 1.48 0 0 0 .73-1.42c-.42-1.11-3.69-.16-5.23-1.71-1.17-1.18-.79-3.66.24-4.8-2-.13-4 1.21-5.44 2.2-.57.38-.35.23-.8.77A4.93 4.93 0 0 0 8.63 18c.22.2.5.23.8.43A4.12 4.12 0 0 1 11 20.31c.75 2.28-.84 2.27-.61 3.36zM4.37 13.06c-1.66.15-1.55-1.79.24-1.53l.35.4a1.29 1.29 0 0 1-.59 1.14zm4.41 2.43c-.18-1.91-2-5.51-4.07-6.13-1-.31-2-.5-2.58.3-1.19 1.6-.78 4 .89 4.55a17.72 17.72 0 0 0 3 .48c.98.16 1.82.61 2.76.8z"/><path class="cls-3" d="M13.35 29.44l-.13-.68a1.62 1.62 0 0 1-1.29-1.22c-.27-.85.12-1.6-.28-2.31-1.06.07-1.68.12-2.29-.54a1.93 1.93 0 0 1-.25-2.11c.19-.45 1.4-1.3-.14-2.81a1.83 1.83 0 0 0-1-.5s-.08.05-.05.07 0 0-.05.07c-1 1.62-1.6 4.8-.09 6.71 1.13 1.49 3.71 3.26 5.57 3.32z"/><path class="cls-2" d="M30.76 11.88c.16 1.3-1.11 1.17-1.34.53-.18-.49.46-1.4 1.34-.53zm-4.58 1.45c.72.48 4.08.42 5.11.27a2.69 2.69 0 0 0 1.88-.91c.94-1 0-2.19-.78-2.53s-2.65.33-3.26.64a10.07 10.07 0 0 0-1.7 1.1c-.43.34-1.2.82-1.25 1.43z"/><path class="cls-3" d="M16 5.9c-.93-.36-.68-1.52-.29-2 .56-.1.95 0 1 .59a1.66 1.66 0 0 1-.27 1.43L16 5.9zm.32 4.55a31.93 31.93 0 0 0 1-6.33 2.83 2.83 0 0 0-1.23-2.67c-.86.14-1.35 1.36-1.38 2.4a16.27 16.27 0 0 0 1.62 6.59z"/><path class="cls-2" d="M25.71 26.26c.16.16.24.1.27.64.08 1.39 2.86 4.44 4 3 1-1.22-.13-2.39-1.05-2.78-.55-.24-1.21-.36-1.77-.56a2.87 2.87 0 0 1-1.37-.81l-.2.38z"/><path class="cls-3" d="M18.53 36.83a5.3 5.3 0 0 0-1-5.1c-.32 1.27-.62 5.11 1 5.1zm-12-4.73c.35-.4.3-.65.57-1.1s.22-.8.29-1.62c-1.18.74-2.79 2.85-.86 2.72z"/><path class="cls-1" d="M16 5.9h.46a1.66 1.66 0 0 0 .27-1.43c-.06-.57-.45-.69-1-.59-.39.5-.65 1.65.27 2.02zM4.37 13.06A1.29 1.29 0 0 0 5 11.92l-.35-.4c-1.83-.25-1.94 1.69-.28 1.54zm26.39-1.18c-.89-.87-1.52 0-1.34.53.23.59 1.51.77 1.34-.53z"/></g></g></svg>