<svg width="15" height="15" fill="none" xmlns="http://www.w3.org/2000/svg"><path fill-rule="evenodd" clip-rule="evenodd" d="M14.554 13.605c-.254.386-.793.897-1.313 1.14-.52.244-1.022.22-1.48.139-.457-.08-.87-.216-1.952-.91-1.08-.696-2.83-1.951-4.326-3.57C3.987 8.783 2.744 6.8 2.015 5.554c-.73-1.244-.945-1.75-1.007-2.26a2.223 2.223 0 0 1 .372-1.547c.344-.523.942-1.054 1.495-1.18.553-.124 1.063.156 1.523.54.46.385.872.874 1.132 1.364.26.49.368.983.236 1.348-.132.365-.503.603-.752.753-.25.15-.376.21-.465.28-.09.07-.14.147-.101.315.039.168.168.426.514 1.087.346.66.91 1.721 1.697 2.648.789.926 1.802 1.717 2.408 2.074.606.357.803.281 1.013.034.21-.247.431-.666.692-.877.262-.21.562-.213.85-.155.287.058.562.177.887.374.325.196.7.47 1.052.797.351.327.68.708.873.974.193.267.25.42.296.627.045.207.077.468-.176.854z" fill="#001270"/></svg>