<svg xmlns="http://www.w3.org/2000/svg" viewBox="0 0 512.03 512.03"><path d="M256.02 321.63V126.37c-5.54.51-11.01 1.37-16.58 1.63H80.02a16 16 0 0 0-16 16v16h-48a16 16 0 0 0-16 16v96a16 16 0 0 0 16 16h48v16a16 16 0 0 0 16 16h9.7l64.31 171.46a31.82 31.82 0 0 0 23.55 19.9c2.15.45 4.3.67 6.4.67 8.55 0 16.68-3.39 22.5-9.47l38.43-38.11c9.83-9.83 12.16-25.15 5.89-37.03L197.1 320h42.5c5.5.26 10.94 1.12 16.42 1.63zM509.4 7.74a15.8 15.8 0 0 0-7.71-6.62c-.1-.03-.17-.16-.27-.2-.32-.09-.6.07-.92-.02-1.44-.42-2.88-.9-4.48-.9-1.1 0-2.05.42-3.1.64-.62.13-1.2.16-1.8.35-2.75.9-5.12 2.43-7 4.55-.14.12-.33.16-.46.28-49.88 60.58-119.45 101.1-195.64 115.94v204.51c76.19 14.85 145.76 55.33 195.64 115.9.13.17.36.23.52.42a15.52 15.52 0 0 0 3.96 3.07c.48.3.87.7 1.35.93 2.01.87 4.19 1.41 6.53 1.41 1.82 0 3.61-.32 5.4-.93.1-.03.16-.16.26-.19a15.56 15.56 0 0 0 6.69-5.12c.38-.51.67-.96 1.02-1.5 1.54-2.47 2.63-5.19 2.63-8.26V16c0-3.07-1.1-5.8-2.63-8.26z"/></svg>