<svg xmlns="http://www.w3.org/2000/svg" viewBox="0 0 4.8 4.8"><g data-name="Слой 2"><g data-name="Layer 1"><circle cx="2.4" cy="2.4" r="2.4" fill="#cb66cb"/><path d="M3.23 1H1.57a.52.52 0 0 0-.57.57v1.66a.52.52 0 0 0 .52.52h1.71a.52.52 0 0 0 .52-.52V1.57A.52.52 0 0 0 3.23 1zm.16.3h.06v.5H3v-.45zm-1 .6a.45.45 0 1 1-.45.45.45.45 0 0 1 .45-.45zm1.06 1.3a.26.26 0 0 1-.26.26H1.6a.26.26 0 0 1-.26-.26V2.1h.37a.86.86 0 0 0-.05.3.74.74 0 0 0 1.48 0 .86.86 0 0 0-.05-.3h.37v1.1z" fill="#fff" fill-rule="evenodd"/></g></g></svg>