<svg xmlns="http://www.w3.org/2000/svg" viewBox="0 0 40.09 34.22"><defs><style>.cls-1{fill:#7e8090}.cls-1,.cls-2,.cls-3{fill-rule:evenodd}.cls-2{fill:#fff}.cls-3{fill:#ffff98}</style></defs><g id="Слой_2" data-name="Слой 2"><g id="Layer_1" data-name="Layer 1"><path class="cls-1" d="M32.82 33.13l-2.55-.22c.22-1.09 1.22-2.58 2.29-2.7v1.58c0 .81-.08.76.25 1.35zm-8.23-21c.29-.58.06-.39 0-.73s.23-.31.39-.54a11.72 11.72 0 0 1 .75-1.16A5.88 5.88 0 0 1 28 8.06c1.67-.5 1.11 1.4.65 2.12-.29.47-.52.79-.81 1.18s-.64.5-.79 1.11l-2.46-.37zm1.8-4.52l.92-.43a2.14 2.14 0 0 1 2.69.54c.78 1.25-.14 2.6-.73 3.63a7.59 7.59 0 0 0 2.23-1.72 5.49 5.49 0 0 0 .56-.77c.69-1.09 1.19-2.77.24-3.73-1.69-1.72-3.72-1.21-5.12.61a3.24 3.24 0 0 0-.78 1.85zm5 11.1c-.52 0-4.86.44-5.75.57-.5.07-.2.29-.69.36s-.16-.36-1-.27c.81 1.4.66 12 .63 13.3l4.49.24a5.92 5.92 0 0 1 1.21-2.45 5.19 5.19 0 0 1 2-1.19c.32-.11.1 0 .27-.16s-.08-4.29-.11-4.92-.09-1.55-.11-2.3c-.06-1.81-.35-2.14.23-3a3.44 3.44 0 0 0-1.2-.21zM21 18.1c-.61-.4-.6-1.54-.64-2.31a9.37 9.37 0 0 1 0-2.78c1 0 3.25.09 4.08.22-.38.89-.05 4.42-.31 5L21 18.1zm.89-6.1c0-1-.5-2.12-.33-3.15.06-.36-.06-.43 0-.73a3.72 3.72 0 0 1 .8-2c.29.18.38.68.48 1.09.43 1.73.09 3.28.89 3.57-.2.6-.35.78 0 1.34L21.89 12zm-1.35-5.2c.25-.27.32-1.08 1-1.61a1.21 1.21 0 0 1 1.8.29 9.41 9.41 0 0 1 .91 4.12c.63-.43 1.08-2.84 1.12-3.44.36-5.15-3.34-6.64-5-2.91a4.77 4.77 0 0 0 .08 3.56zm-1.42 5.06c.13-.43-.1-.64-.43-.86-.57-.38-2.27-1.32-2.14-2 1.62-.15 3.32 1.87 3.81 3a6.1 6.1 0 0 1-1.24-.08zm-1.77-.37a2.55 2.55 0 0 1-2.23-.85l-1.38-1.56a3.17 3.17 0 0 1 .6-4.19c1.54-.95 3.2.14 4.18 1.19A5.72 5.72 0 0 1 20.43 10a7 7 0 0 0-1.71-1.5c-1.39-.83-3.16-.89-3.38.41-.17 1 1.41 2.28 2 2.62zm-4.81 21A7.46 7.46 0 0 1 12.4 30a2.79 2.79 0 0 1 2.15.83 4.56 4.56 0 0 1 .86 1.8 8.93 8.93 0 0 1-2.86-.1zM12.45 29a3.4 3.4 0 0 1 3.05 1.24 5.89 5.89 0 0 1 1.1 2.35h3.26c.59 0 3.05.13 3.41.07.16-.09.11-.55.11-.73v-.79l-.12-7.94c0-.91-.22-2.31-.16-3.17 0-.4.06-.37.29-.61L21 19.2c.57.87.54 4.55.62 5.75l.34 4c0 .22 0 .23.11.35s.82.46 0 1.13c-1.08.88-1.25-1.09-1.32-1.7-.28-2.43-.37-5-.47-7.41 0-.37-.15-1.3-.14-1.52 0-.38.08-.35.26-.58v-.06c-3.61-.3-4.73-.38-8.42-.41.16 2.62.48 4.77.43 7.49 0 .89-.09 1.86-.06 2.74zm7-11a30.76 30.76 0 0 0-3.55-.28c-1.71-.11-6 .18-6.76-.44-.48-.39-.46-2-.49-2.79-.08-1.46.15-.89.12-1.45s-.3-.92-.84-.68-.45 2.29-.42 2.89c.09 2.6.49 3.31 3.49 3.49 0 1.43.17 2.92.25 4.34.13 2.47 0 3.54 0 5.67 0 .73-.19.48-.24.87s.23.29.19 1c-.15 2.68.33 3.23 2.75 3.19 1.6 0 3.15-.16 4.74-.17s3.39 0 4.92.11l6.21.36c1.18-.17 3.37.3 3.69.2.7-.44.29-.82-.25-1.08.63-.31.48-.81.49-1.58 0-2.36-.1-6.43-.23-8.81-.05-1-.27-2.4-.21-3.42l.29.31a.7.7 0 0 0 .39.15l.85-.23c.28-.12.32-.37.24-.67A5 5 0 0 1 35 17c0-.69.05-1.29.1-2 0-.32 0-.71.08-1s.18-.54-.11-.76c-1.1-.63-1 1.12-1.1 1.87a27.92 27.92 0 0 0-.2 3.1 6.27 6.27 0 0 0-2-.63c-1.58-.15-5.62.69-6.41.53v-4.82l.63.08c.23.6.57.62 1.16.27a16.36 16.36 0 0 1 1.78.36c1.31.26 2.22.36 3.55.51.79.09 1.38.39 1.41-.52-.29-.28-.18-.44-.91-.52a22.46 22.46 0 0 1-4.13-.65c.26-.18.68-.34 1-.53a7.61 7.61 0 0 0 .89-.59c.33-.24.53-.37.85-.63 1.26-1 2.65-3.2 2.36-5-.37-2.36-3.32-3.78-5.62-2.73a9.08 9.08 0 0 0-.94.54c-.54.32-.36.5-.86.71-.34-4.5-4.3-6-6.54-2.94A5.65 5.65 0 0 0 19 4.88a4.14 4.14 0 0 1-.69-.53C16.41 3 13.53 3 12.41 5.58c-1.19 2.7.49 4.57 2.47 6.32-1.37.19-2.64.16-4 .42-.52.1-1.58.06-1.57.68 0 .33.31.47.63.53.57.11.47-.09.89-.17a44.65 44.65 0 0 1 8.4-.38 23.62 23.62 0 0 0 0 2.6c-.05 1.24.16 1.95.18 2.42z" transform="translate(-.5 -.07)"/><path class="cls-2" d="M12.45 29a3.4 3.4 0 0 1 3.05 1.24 5.89 5.89 0 0 1 1.1 2.35h3.26c.59 0 3.05.13 3.41.07.16-.09.11-.55.11-.73v-.79l-.12-7.94c0-.91-.22-2.31-.16-3.17 0-.4.06-.37.29-.61L21 19.2c.57.87.54 4.55.62 5.75l.34 4c0 .22 0 .23.11.35s.82.46 0 1.13c-1.08.88-1.25-1.09-1.32-1.7-.28-2.43-.37-5-.47-7.41 0-.37-.15-1.3-.14-1.52 0-.38.08-.35.26-.58v-.06c-3.61-.3-4.73-.38-8.42-.41.16 2.62.48 4.77.43 7.49.08.85.01 1.83.04 2.76zm18.9-10.31c-.52 0-4.86.44-5.75.57-.5.07-.2.29-.69.36s-.16-.36-1-.27c.81 1.4.66 12 .63 13.3l4.49.24a5.92 5.92 0 0 1 1.21-2.45 5.19 5.19 0 0 1 2-1.19c.32-.11.1 0 .27-.16s-.08-4.29-.11-4.92-.09-1.55-.11-2.3c-.06-1.81-.35-2.14.23-3a3.44 3.44 0 0 0-1.17-.18z" transform="translate(-.5 -.07)"/><path class="cls-3" d="M17.36 11.48c-.62-.33-2.19-1.59-2-2.62.22-1.3 2-1.24 3.38-.41A7 7 0 0 1 20.43 10a5.72 5.72 0 0 0-1.91-3.87c-1-1-2.64-2.14-4.18-1.19a3.17 3.17 0 0 0-.6 4.19l1.39 1.54a2.55 2.55 0 0 0 2.23.81zm3.18-4.68c.25-.27.32-1.08 1-1.61a1.21 1.21 0 0 1 1.8.29 9.41 9.41 0 0 1 .91 4.12c.63-.43 1.08-2.84 1.12-3.44.36-5.15-3.34-6.64-5-2.91a4.77 4.77 0 0 0 .17 3.55zm5.86.79l.92-.43a2.14 2.14 0 0 1 2.68.56c.78 1.25-.14 2.6-.73 3.63a7.59 7.59 0 0 0 2.23-1.72 5.49 5.49 0 0 0 .56-.77c.69-1.09 1.19-2.77.24-3.73-1.69-1.72-3.72-1.21-5.12.61a3.24 3.24 0 0 0-.78 1.85zM21 18.1l3.17.14c.25-.59-.07-4.12.31-5-.83-.13-3.09-.2-4.08-.22a9.37 9.37 0 0 0 0 2.78c-.04.76-.05 1.89.6 2.3z" transform="translate(-.5 -.07)"/><path class="cls-2" d="M24.6 12.12l2.46.37c.15-.62.5-.73.79-1.11s.52-.71.81-1.18c.46-.72 1-2.63-.65-2.12a5.88 5.88 0 0 0-2.24 1.62 11.72 11.72 0 0 0-.77 1.14c-.16.23-.41.31-.39.54s.27.16-.01.74zM21.89 12l1.78.1c-.32-.57-.18-.74 0-1.34-.8-.29-.46-1.85-.89-3.57-.1-.41-.2-.92-.48-1.09a3.72 3.72 0 0 0-.8 2c0 .29.1.37 0 .73-.11 1 .39 2.17.39 3.17z" transform="translate(-.5 -.07)"/><path class="cls-1" d="M38.77 13.58A12.56 12.56 0 0 0 39 9.66c-.19-.57-1.09-.66-1 .3a19.83 19.83 0 0 1-.45 3.9 13.28 13.28 0 0 0-.32 1.9c1.17 1.15 1.4-1.35 1.54-2.18zM4.56 18.36c-1.57-.15-.29 1.44.17 2.07a6.36 6.36 0 0 0 .58.64 5.13 5.13 0 0 0 .69.63 7.94 7.94 0 0 0 2.31 1.47c.4.06.7-.19.64-.53-.09-.57-1-.76-2.08-1.66-.29-.24-.43-.41-.68-.63l-.6-.63c-.45-.48-.59-.88-1.03-1.36z" transform="translate(-.5 -.07)"/><path class="cls-3" d="M12.55 32.52a8.93 8.93 0 0 0 2.86.1 4.56 4.56 0 0 0-.86-1.8A2.79 2.79 0 0 0 12.4 30a7.46 7.46 0 0 0 .15 2.52z" transform="translate(-.5 -.07)"/><path class="cls-1" d="M4.49 21.75c-.57-.37-1.07.24-.74 1a5.86 5.86 0 0 0 3.81 2.47c.71.06 1.24-.56.73-1a7.13 7.13 0 0 1-3-1.28c-.84-.67-.55-1.02-.8-1.19zm35.86-9.47c-.76-.14-.72.21-.85.8-.28 1.19-1.44 3.21-.68 3.5s1.18-1.29 1.35-1.87c.22-.79.71-1.88.18-2.43z" transform="translate(-.5 -.07)"/><path class="cls-3" d="M32.82 33.13c-.33-.59-.26-.54-.25-1.35V30.2c-1.07.12-2.07 1.61-2.29 2.7z" transform="translate(-.5 -.07)"/><path class="cls-2" d="M19.13 11.86a6.1 6.1 0 0 0 1.24.08c-.49-1.11-2.19-3.14-3.81-3-.13.72 1.57 1.67 2.14 2 .3.27.56.48.43.92z" transform="translate(-.5 -.07)"/><path d="M.5 8h1.11a2 2 0 0 0 .57 1.22 1.55 1.55 0 0 0 1.08.41A1.68 1.68 0 0 0 4.55 9a2.16 2.16 0 0 0 .53-1.52 2 2 0 0 0-.51-1.42 1.77 1.77 0 0 0-1.33-.52 1.84 1.84 0 0 0-.92.23 1.79 1.79 0 0 0-.64.6l-1-.13.83-4.41h4.28v1H2.36L1.9 5.14a2.8 2.8 0 0 1 1.62-.54 2.57 2.57 0 0 1 1.9.78 2.72 2.72 0 0 1 .77 2 3.13 3.13 0 0 1-.68 2 2.72 2.72 0 0 1-2.26 1 2.78 2.78 0 0 1-1.91-.66A2.56 2.56 0 0 1 .5 8z" transform="translate(-.5 -.07)" fill="#7e8091"/></g></g></svg>