<svg xmlns="http://www.w3.org/2000/svg" viewBox="0 0 36 36"><g data-name="Слой 2"><g data-name="Layer 1" fill-rule="evenodd"><path d="M18 36A18 18 0 1 0 0 18a18 18 0 0 0 18 18z" fill="#8db9b9"/><path d="M27.33 23.87l-1.16-4.65a.77.77 0 0 0-.08-.2 1.73 1.73 0 0 0 .1-.59v-7.67A1.75 1.75 0 0 0 24.44 9H11.56a1.75 1.75 0 0 0-1.74 1.74v7.67a1.73 1.73 0 0 0 .1.59.79.79 0 0 0-.08.2l-1.18 4.71a.78.78 0 0 0 .76 1h17.16a.78.78 0 0 0 .75-1zm-8.9-9.6l1.14 1.14a.23.23 0 0 1 0 .33l-.29.29a.23.23 0 0 1-.33 0l-1.14-1.14-.13.49a.23.23 0 0 1-.44 0l-.85-2.25a.23.23 0 0 1 .3-.3l2.25.85a.23.23 0 0 1 0 .44l-.49.13zM20 23.66h-4a.15.15 0 0 1-.15-.18l.31-1.71a.15.15 0 0 1 .15-.13h3.34a.15.15 0 0 1 .15.13l.31 1.7a.15.15 0 0 1-.15.15zm4.68-5.23a.22.22 0 0 1-.13.2H11.46a.22.22 0 0 1-.13-.2v-7.67a.22.22 0 0 1 .22-.22h12.89a.22.22 0 0 1 .22.22v7.67z" fill="#fff"/></g></g></svg>