<svg xmlns="http://www.w3.org/2000/svg" viewBox="0 0 44.32 29.1"><defs><style>.cls-1,.cls-2{fill:#7e8090;fill-rule:evenodd}.cls-2{fill:#ffff98}</style></defs><g id="Слой_2" data-name="Слой 2"><g id="Layer_1" data-name="Layer 1"><path class="cls-1" d="M12 22.88c-.09-1.32 0-2.65-.12-4s-.22-2.49-.32-3.71l-.36-5.7a1.6 1.6 0 0 1 0-.87c.28-.48 0-.42.19-.73a30.23 30.23 0 0 1 3.37-.32 40.16 40.16 0 0 1 6.73.13 78.53 78.53 0 0 0 7.91.6l5.32-.51c.43-.18.55-1-.34-1.1-1.41-.09-4.62.59-6.27.43l-6.8-.63a38.43 38.43 0 0 0-7.87 0c-.82.09-1.64.19-2.45.32-.51.08-.68.15-.76.67s-.19.75-.22 1.18a91.27 91.27 0 0 0 .59 9.17c.09 1 .14 6.58.38 7 .41.65 1.21.18 1.14-.86a35.57 35.57 0 0 1 5.57.13 111.48 111.48 0 0 0 13.77-.26c.42 0 .86-.05 1-.39.58-1.24-2.08-.69-2.73-.64A132.05 132.05 0 0 1 14 22.71v-.54a51 51 0 0 0 .12-7.09 47.18 47.18 0 0 0-.44-4.89c1.6 0 4 0 5.55.2 2.23.23 4.48.33 6.72.48s4.22-.58 6.54-.49c0 4.14-.17 6.78.09 11a12.83 12.83 0 0 0 .19 1.68c.11.58.18 1.06 1 1 .62-.38.24-.81.13-1.53s-.12-1.31-.16-1.95l-.1-10.18c0-.37.27-.46.09-.8-.45-.82-4.21-.17-4.78-.07a18.67 18.67 0 0 1-4.95.05c.14-.72-.25-1-1-.88-.31.19-.33.28-.33.79l-3.61-.29c-1.11-.08-5.94-.3-6.45 0s-.05 1.4 0 1.9a71.58 71.58 0 0 1 .29 11.41c-.01.38-.62.33-.9.37z" transform="translate(-.36 -1.67)"/><path class="cls-1" d="M21.68 26.73c-.44 0-.7-.09-.81-.46l6.31-.06a7.44 7.44 0 0 1-2.76.23c-.92 0-2 .33-2.75.29zM7.82 29.59a74.67 74.67 0 0 1 8.18-.88c3-.09 6 .1 9-.05s5.73-.16 8.58-.46c1.33-.14 2.75-.31 4-.52a39.86 39.86 0 0 1 4-.62l-.12-1.51-4.46.18c-.41 1-1.06.6-1.19.08l-7.07.37c0 .77.5.76-1.51 1.28a13.26 13.26 0 0 1-2.91.15c-1.17 0-4.23 1.12-4.5-1.33a21 21 0 0 0-3-.08h-3c-2.09.06-3.91.13-6.07.06-.42.66-.51.28-.77.42s0 .79.08 1a6.41 6.41 0 0 0 .81 1.9zm-1.61.56a.51.51 0 0 0 .19.49c.49.38 3.24-.15 3.86-.23a58.24 58.24 0 0 1 11-.5c1.9 0 3.73-.1 5.57-.15a82.73 82.73 0 0 0 10.63-.87l5-.8c.71-.12 2.07-.08 2.24-.77.28-1.09-1.34-.5-1.92-.49a2.1 2.1 0 0 1-.17-1.31c.48 0 .46.34 1 .16.37-.12.44-.41.43-.88-.39-1-5-.19-7.07-.25.13-3.15-.27-6.18-.34-9.28 0-1.52-.1-3.08-.17-4.56 0-.82 0-1.56-.08-2.36 0-.55.18-1.85-.71-1.7-.61.1-.44 1.29-.43 2l.23 6.88c0 1.4.58 8.28.26 9.13-4.9.23-9.73.54-14.76.43-2.56-.06-5.1-.09-7.64 0-1.24 0-2.42.11-3.65.12-1.46 0-2.71-.28-3 .89h-.55c-.81.36.15 3 .4 3.59-.18.18-.29.22-.33.46z" transform="translate(-.36 -1.67)"/><path class="cls-2" d="M7.82 29.59a74.67 74.67 0 0 1 8.18-.88c3-.09 6 .1 9-.05s5.73-.16 8.58-.46c1.33-.14 2.75-.31 4-.52a39.86 39.86 0 0 1 4-.62l-.12-1.51-4.46.18c-.41 1-1.06.6-1.19.08l-7.07.37c0 .77.5.76-1.51 1.28a13.26 13.26 0 0 1-2.91.15c-1.17 0-4.23 1.12-4.5-1.33a21 21 0 0 0-3-.08h-3c-2.09.06-3.91.13-6.07.06-.42.66-.51.28-.77.42s0 .79.08 1a6.41 6.41 0 0 0 .76 1.91z" transform="translate(-.36 -1.67)"/><path class="cls-1" d="M25.09 15c.3-1.37-.78-1.2-1.8-1.08s-.63.06-1.33-.22c-1.08-.42-.78 1.57-.77 2.21 0 .47-.21 1.12 0 1.48a.56.56 0 0 0 1 .06c.12-.2.11-.32.25-.54a1.2 1.2 0 0 1 .19-.24c.19-.18 0-.05.22-.14A12.29 12.29 0 0 0 24 17.91c1.19 1.29.68.32 1 1.58a.8.8 0 0 0 .77.1c1.26-.63-.74-2.33-1.22-2.76a4.11 4.11 0 0 1-.86-1.07c.33-.13.37-.24.7-.4a1.81 1.81 0 0 0 .7-.36zm-16.7 2.4c.33-.79-.14-.89-.77-1.24s-4.45-2-5-1.6a.57.57 0 0 0 0 .88c.21.19 3.59 1.25 4.22 1.52s.88.62 1.55.44zm30.85-1.28c.23-.21.35-.36.54-.54a5.9 5.9 0 0 1 .58-.44l2.41-1.73c.41-.3.86-.7.35-1.19-.67-.23-1.65.63-2.27 1.11A15.22 15.22 0 0 0 39 14.86c-.48.45-.82 1.22.24 1.26zm.3 1.17c.47.29.71.15 1.17-.11 1.05-.6 2.89-1.16 2.41-2-.35-.6-1.51.22-2.12.58-1.11.63-1.59.77-1.46 1.53zM7.22 18.81c.26-1-.8-1-1.63-1-.64-.07-1.9-.46-2.17 0-.51.87 1 1 1.51 1.06s.92.06 1.37.12.58.11.92-.18z" transform="translate(-.36 -1.67)"/><path class="cls-2" d="M21.68 26.73c.73 0 1.83-.29 2.75-.29a7.44 7.44 0 0 0 2.76-.23l-6.31.06c.12.37.37.43.8.46z" transform="translate(-.36 -1.67)"/><path d="M6 9.28v1H.36a1.87 1.87 0 0 1 .12-.73 3.87 3.87 0 0 1 .69-1.14 10.88 10.88 0 0 1 1.38-1.3 11.7 11.7 0 0 0 1.9-1.81 2.18 2.18 0 0 0 .5-1.3 1.41 1.41 0 0 0-.45-1 1.62 1.62 0 0 0-1.17-.43A1.65 1.65 0 0 0 2.11 3a1.73 1.73 0 0 0-.46 1.27L.56 4.16a2.67 2.67 0 0 1 .84-1.85 2.86 2.86 0 0 1 2-.64 2.72 2.72 0 0 1 2 .69 2.25 2.25 0 0 1 .6 1.7 2.58 2.58 0 0 1-.21 1 3.93 3.93 0 0 1-.7 1 17.06 17.06 0 0 1-1.6 1.57q-.95.8-1.22 1.08a3.47 3.47 0 0 0-.45.57z" transform="translate(-.36 -1.67)" fill="#7e8091"/></g></g></svg>