<svg xmlns="http://www.w3.org/2000/svg" viewBox="0 0 12 12.16"><defs><style>.cls-11,.cls-13,.cls-5,.cls-6,.cls-8,.cls-9{fill-rule:evenodd}.cls-5{fill:#f3a643}.cls-6{fill:#ef8043}.cls-8{fill:#fae3c3}.cls-9{fill:#f9d6b1}.cls-11{fill:#655261}.cls-13{fill:#564152}.cls-14{fill:#fdfdfd}</style></defs><g id="Слой_2" data-name="Слой 2"><g id="Layer_1" data-name="Layer 1"><path d="M0 7.3a5 5 0 0 0 1.36 3.3 6.35 6.35 0 0 0 4.23 1.56c1.17 0 4.16-.13 5-1.07A5.83 5.83 0 0 0 12 8.57c.3-4.38-.72-7.66-6.12-7.66A6.06 6.06 0 0 0 0 7.3z" fill-rule="evenodd" fill="#e5dbd0"/><path d="M0 6.39a5 5 0 0 0 1.36 3.3 6.35 6.35 0 0 0 4.23 1.56c1.17 0 4.16-.13 5-1.07A5.83 5.83 0 0 0 12 7.66C12.26 3.29 11.23 0 5.83 0A6.06 6.06 0 0 0 0 6.39z" fill="#fff" fill-rule="evenodd"/><path d="M6 1.75a.27.27 0 0 0 .13 0 1.28 1.28 0 0 1 .65-.17 2.32 2.32 0 0 1 1.05.26l-.26.26a3 3 0 0 1 .75.28 4 4 0 0 1 1.63 1.8h-.53a5.42 5.42 0 0 1 .66 2.5l-.39-.13a4.13 4.13 0 0 1-.53 2l-.39-.26a3.46 3.46 0 0 1-1.06 1.02L7.45 9A3.58 3.58 0 0 1 6 9.7 3.58 3.58 0 0 1 4.55 9l-.26.26a3.46 3.46 0 0 1-1.05-1l-.39.26a4.13 4.13 0 0 1-.53-2l-.39.13a5.42 5.42 0 0 1 .66-2.5h-.54a4 4 0 0 1 1.62-1.8 3 3 0 0 1 .76-.28l-.26-.26a2.33 2.33 0 0 1 1.05-.26 1.28 1.28 0 0 1 .66.17.26.26 0 0 0 .13 0z" fill="#e35639" fill-rule="evenodd"/><path d="M4.9 3a4 4 0 0 1 1-1.26h-.06a1.28 1.28 0 0 0-.65-.17 2.33 2.33 0 0 0-1.05.26l.26.26a3 3 0 0 0-.76.28 4 4 0 0 0-1.59 1.81h.53a5.42 5.42 0 0 0-.66 2.5l.39-.13a4.13 4.13 0 0 0 .53 2l.39-.26a3.46 3.46 0 0 0 1.06 1.02L4.55 9A3.58 3.58 0 0 0 6 9.7S5 9.31 4.9 3z" fill="#c53d36" fill-rule="evenodd"/><path class="cls-5" d="M8.46 2.34a.48.48 0 0 1 .54.51 2.94 2.94 0 0 1-.7 1.49L7 3.07a3.88 3.88 0 0 1 1.46-.73z"/><path class="cls-6" d="M7.38 3.41a5.06 5.06 0 0 1 1.17-.73c.19 0 .31.24.23.53a4.42 4.42 0 0 1-.56 1.06z"/><path class="cls-5" d="M3.54 2.34a.48.48 0 0 0-.54.51 2.94 2.94 0 0 0 .7 1.49L5 3.07a3.88 3.88 0 0 0-1.46-.73z"/><path class="cls-6" d="M4.62 3.41a5.06 5.06 0 0 0-1.17-.73c-.19 0-.31.24-.23.53a4.42 4.42 0 0 0 .56 1.06z"/><path d="M7.58 3.12c-.52-.4-1.58.27-1.58.27s-1.06-.67-1.58-.26C3.24 4 3 6.68 3.1 7.2a3 3 0 0 0 1.85 1.32h2.1A3 3 0 0 0 8.9 7.2C9 6.68 8.76 4 7.58 3.12z" fill="#f9ba4b" fill-rule="evenodd"/><path class="cls-5" d="M3.92 8a11.27 11.27 0 0 1 1-5 .71.71 0 0 0-.48.13C3.24 4 3 6.68 3.1 7.2a1.93 1.93 0 0 0 .83.85z"/><path class="cls-8" d="M8.9 6.54a3 3 0 0 1-1.85 1.32h-2.1A3 3 0 0 1 3.1 6.54a.75.75 0 0 1 0-.09 2.8 2.8 0 0 0 0 .75 3 3 0 0 0 1.85 1.32h2.1A3 3 0 0 0 8.9 7.2a2.8 2.8 0 0 0 0-.75.8.8 0 0 1 0 .09z"/><path class="cls-9" d="M4.91 8.31a.88.88 0 0 0 .87.69h.44a.88.88 0 0 0 .87-.73L6 8.13z"/><path class="cls-8" d="M6.72 7.07a.93.93 0 0 0-.72.31.93.93 0 0 0-.72-.31.78.78 0 0 0-.86.66.78.78 0 0 0 .86.66.93.93 0 0 0 .72-.31.93.93 0 0 0 .72.31.78.78 0 0 0 .86-.66.78.78 0 0 0-.86-.66z"/><path d="M6.67 8.52A1 1 0 0 1 6 8.3a1 1 0 0 1-.63.22 1 1 0 0 1-1-1 .13.13 0 0 1 .26 0 .75.75 0 0 0 .74.75.73.73 0 0 0 .46-.16.33.33 0 0 1 .42 0 .73.73 0 0 0 .46.16.75.75 0 0 0 .74-.75.13.13 0 1 1 .26 0 1 1 0 0 1-1.04 1z" fill="#dbaa8f" fill-rule="evenodd"/><path class="cls-11" d="M5.29 7.3l.28.23a.67.67 0 0 0 .86 0l.28-.23A.17.17 0 0 0 6.6 7H5.4a.17.17 0 0 0-.11.3z"/><path d="M6 5a.13.13 0 0 1-.13-.13V3.76a.13.13 0 1 1 .26 0v1.07A.13.13 0 0 1 6 5z" fill="#fdce5c" fill-rule="evenodd"/><path class="cls-13" d="M4.68 6.28a.39.39 0 0 1-.39-.39v-.13a.39.39 0 0 1 .39-.39.4.4 0 0 1 .39.39v.13a.39.39 0 0 1-.39.39z"/><path class="cls-11" d="M4.68 5.36v.46a.2.2 0 1 0 .39 0v-.06a.4.4 0 0 0-.39-.4z"/><circle class="cls-14" cx="4.68" cy="5.62" r=".13"/><path class="cls-13" d="M7.32 6.28a.39.39 0 0 1-.39-.39v-.13a.4.4 0 0 1 .39-.39.39.39 0 0 1 .39.39v.13a.39.39 0 0 1-.39.39z"/><path class="cls-11" d="M7.32 5.36v.46a.2.2 0 1 0 .39 0v-.06a.39.39 0 0 0-.39-.4z"/><circle class="cls-14" cx="7.32" cy="5.62" r=".13"/><path class="cls-13" d="M6.08 7.52l-.28-.33A.28.28 0 0 1 5.74 7H5.4a.17.17 0 0 0-.11.3l.28.23a.67.67 0 0 0 .67.11.66.66 0 0 1-.16-.12z"/><path class="cls-9" d="M3.1 6.54a.75.75 0 0 1 0-.09 2.8 2.8 0 0 0 0 .75 1.93 1.93 0 0 0 .83.85v-.08a3.62 3.62 0 0 1 0-.61 1.88 1.88 0 0 1-.83-.82z"/></g></g></svg>