<svg xmlns="http://www.w3.org/2000/svg" viewBox="0 0 40.97 32.76"><defs><style>.cls-1,.cls-2{fill:#ffff98;fill-rule:evenodd}.cls-2{fill:#7e8090}</style></defs><g id="Слой_2" data-name="Слой 2"><g id="Layer_1" data-name="Layer 1"><path class="cls-1" d="M23.26 20.32c-3.21-.09-3.48-4.95-1.23-6 1.09-.51 2.51.58 2.85 1 1.3 1.7 1 5-1.61 5zM15 16.91c1.34.48 1.11-.67 2-1.07a49.39 49.39 0 0 0 .15 5.24c-.56 0-1.05.16-1.63.24s-1.15.14-1.2.74c-.13 1.49 3.94-.32 6.26.29 1.4.37 1.34-1.46-.24-1.5h-1.86a33.4 33.4 0 0 0 0-4.37c0-1.24.3-3.14-1.11-3.1A5.52 5.52 0 0 0 16 14.82c-1.16 1.45-1.22 1.3-1 2.09zm-3.38 7.45l.75.08.23.59a39 39 0 0 1 4.31-.14 8.69 8.69 0 0 0 1.89-.29c.74-.06 1.41-.08 2.13-.19a23.85 23.85 0 0 1 4.26-.27c2.34.07 3-.62 3.91.74l.19-15.28c-1.07.33-.78 0-1.3-.42l-1.78-.07c-.06.84.42.65-.28 1.41-.91.11-1.05-.58-1.1-1.37h-2.41c0 .6.63 1.67-.37 1.7S21.18 10 21 9.2l-2.62-.11c0 .36.84 1.89-.39 1.83-.87 0-.91-1.15-1-1.94l-2.82-.08c-.07 1 .57.52.51 1.33s-1.52 1.33-1.87-.59c-.17-.95 0-.62-1.22-.65-.62.84.11.9-.2 2-.24.83.24 12.21.27 13.37z"/><path class="cls-2" d="M11.66 24.36c0-1.15-.5-12.53-.27-13.36.31-1.11-.41-1.17.2-2 1.19 0 1-.29 1.22.65.35 1.92 1.81 1.36 1.87.59s-.58-.3-.51-1.33L17 9c.12.78.15 1.89 1 1.94 1.23.06.44-1.47.39-1.83L21 9.2c.14.76.16 1.71 1 1.68s.41-1.1.37-1.7h2.41c0 .8.19 1.48 1.1 1.37.69-.76.22-.57.28-1.41l1.84.04c.51.44.23.75 1.3.42l-.15 15.27c-.92-1.35-1.57-.67-3.91-.74a23.85 23.85 0 0 0-4.24.27c-.72.11-1.4.12-2.13.19a8.69 8.69 0 0 1-1.89.29 39 39 0 0 0-4.31.14l-.23-.59-.75-.08zm17.62 2.29c-3.71 0-15.16.59-18.7 2.12-1.14.49-.52 1.67.35 1.33a17.16 17.16 0 0 1 5-1.06 102.91 102.91 0 0 1 10.83-.91c1.54-.06 5.39.39 3.73-1.4.24-.59.19-15.49.26-17.53l.3-.28c0-1-1-2.06-1.62-.57a3.16 3.16 0 0 0-2.16-.67c-.44 0-1 .16-1.11-.17-.24-.53.21-.7-.07-1.24s-1.47-.78-1.26 1.43h-2.42c0-.71.25-1.71-.68-1.65s-.6 1.08-.7 1.74l-2.68-.19c-.16-.89.17-1.59-.93-1.62-.52.5-.39.17-.42 1.51h-3c0-.69.2-1.9-.7-1.85s-.58 1.23-.67 2c-1.09.14-1.93-.13-2.51.58-.07.45 0 .38 0 .65S10 9 10 9.26c-.29.89.2 12.66.25 14.23.06 1.79-.3 4.44.83 4.57s1-.88 1.3-1.49c.14-.28.7-.21 1.12-.21 2 0 4.21-.26 6.27-.41a47.8 47.8 0 0 1 4.94-.4 19.66 19.66 0 0 0 2.59-.07c.9-.09 1 .47 1.54.15.35-.21.27-.23.32-.34z"/><path class="cls-2" d="M20.34 20.85h-1.86a33.4 33.4 0 0 0 0-4.37c0-1.24.3-3.14-1.11-3.1A5.52 5.52 0 0 0 16 14.82c-1.16 1.45-1.22 1.3-1 2.09 1.34.48 1.11-.67 2-1.07a49.39 49.39 0 0 0 .15 5.24c-.56 0-1.05.16-1.63.24s-1.15.14-1.2.74c-.13 1.49 3.94-.32 6.26.29 1.42.37 1.34-1.46-.24-1.5z"/><path class="cls-2" d="M23 15.58c.43.37 0 .38.67.72.31.16.19 0 .36.37.35.84.32 2.22-.7 2.21-1.77 0-1.62-3.44-.33-3.31zm.29 4.74c2.57.07 2.91-3.27 1.61-5-.34-.45-1.75-1.53-2.85-1-2.27 1.06-1.99 5.92 1.21 6zM7 26c-1.52-.34-3.68 1.43-4.43 2-4.17 3.12-2.32 4.42-1.2 3.1a17.58 17.58 0 0 1 4.52-3.65C6.3 27.28 8.12 27.1 7 26zM8.68 5.6C8.83 4.39 7.59 3.8 6.67 3c-.32-.27-.57-.46-.86-.7s-.53-.42-.85-.7C4.31 1 2.81-.66 2.25.27c-.21 1 .59 1.35 1.05 1.8A37.78 37.78 0 0 0 6.49 4.6a8.28 8.28 0 0 1 .82.64c.45.44.61 1.13 1.37.36zm25.48 3.07c.26-.27.26-.46.6-.73a8 8 0 0 1 .78-.56c.54-.34 1.05-.68 1.68-1 1.78-.88 3.61-1.15 2.69-2.16-1.07-.75-5.17 1.89-6.11 2.78-.55.59-1.13 1.85.36 1.67zM.77 4.63C.37 6.07 1.94 5.92 4 6.39c.66.15 1.43.29 2 .5s1.33.84 1.81.2c.74-1-2.24-1.73-2.88-1.9s-1.35-.35-2-.49a3.36 3.36 0 0 0-2.16-.07zM39 27.32c.53.18 1.4.8 1.81.3.56-.68-.41-1.21-.76-1.4a15.61 15.61 0 0 0-3.94-1c-.68-.11-1.72-.33-2 .24s.4 1.35 1 1.18c.31-.08 0-.26.93-.05zm-4.2-.27a.68.68 0 1 0-.7 1.16c.47.31.47.21.81.65l.59.75a18.79 18.79 0 0 0 2.45 3c.82.43 1.4-.34.73-1.19-.89-1.1-2.76-3.78-3.88-4.37zm-1.32-16.79c.67.49.6.44 1.48.13 2-.73 4.47-.72 4.44-1.66-.06-1.72-5.78.71-5.89 1z"/><path class="cls-2" d="M5.74 28.35a35.61 35.61 0 0 0-2.94 3c-.5.68-.17 1.42.62 1.19.4-.12 1-.89 1.22-1.17l2.32-2.46c.43-.6.21-1.33-.59-1.18-.37.17-.37.33-.63.62z"/><path class="cls-1" d="M23 15.58c-1.3-.14-1.45 3.29.33 3.31 1 0 1.06-1.37.7-2.21-.16-.39 0-.21-.36-.37C23 16 23.4 16 23 15.58z"/></g></g></svg>