<svg width="570" height="295" viewBox="0 0 570 295" fill="none" xmlns="http://www.w3.org/2000/svg">
<path d="M308.404 214.869H309.438V215.904H308.404V214.869Z" fill="#42474D"/>
<path d="M306.763 216.471H307.797V217.506H306.763V216.471Z" fill="#42474D"/>
<path d="M305.107 216.471H306.141V217.506H305.107V216.471Z" fill="#42474D"/>
<path d="M24.2703 247.448V291.043H39.9595V204.024H77.795V125.482H127.242V291.043H142.846V254.934H175.796V291.043H200.081V187.224H259.043V291.043H285.919V223.687H300.659L308.461 213.267L316.264 226.282H331.004V291.043H360.485V102.146H368.287V70.021H409.918V101.267H420.325V291.043H429.714V82.2417L499.466 82.3486V148.804H549.111V243.238H559.037V151.639H568.255V117.557H590.953V136.016H615.776V218.385H629.964V203.471H701.543V291.043H708V306H0V291.043V247.448H24.2703Z" fill="white"/>
<path d="M16.3121 255.274H21.5938V260.562H16.3121V255.274Z" fill="#42474D"/>
<path d="M16.3121 269.352H21.5938V274.64H16.3121V269.352Z" fill="#42474D"/>
<path d="M7.23393 255.274H12.5156V260.562H7.23393V255.274Z" fill="#42474D"/>
<path d="M7.23393 269.352H12.5156V274.64H7.23393V269.352Z" fill="#42474D"/>
<path d="M148.199 261.852H153.48V267.14H148.199V261.852Z" fill="#42474D"/>
<path d="M148.199 275.93H153.48V281.218H148.199V275.93Z" fill="#42474D"/>
<path d="M108.988 146.663H114.27V151.951H108.988V146.663Z" fill="#42474D"/>
<path d="M108.988 160.741H114.27V166.029H108.988V160.741Z" fill="#42474D"/>
<path d="M108.988 174.833H114.27V180.121H108.988V174.833Z" fill="#42474D"/>
<path d="M108.988 188.911H114.27V194.199H108.988V188.911Z" fill="#42474D"/>
<path d="M108.988 203.003H114.27V208.291H108.988V203.003Z" fill="#42474D"/>
<path d="M108.988 217.081H114.27V222.369H108.988V217.081Z" fill="#42474D"/>
<path d="M99.9136 146.663H105.195V151.951H99.9136V146.663Z" fill="#42474D"/>
<path d="M90.6519 146.663H95.9336V151.951H90.6519V146.663Z" fill="#42474D"/>
<path d="M99.9136 160.741H105.195V166.029H99.9136V160.741Z" fill="#42474D"/>
<path d="M90.6519 160.741H95.9336V166.029H90.6519V160.741Z" fill="#42474D"/>
<path d="M99.9136 174.833H105.195V180.121H99.9136V174.833Z" fill="#42474D"/>
<path d="M90.6519 174.833H95.9336V180.121H90.6519V174.833Z" fill="#42474D"/>
<path d="M99.9136 188.911H105.195V194.199H99.9136V188.911Z" fill="#42474D"/>
<path d="M90.6519 188.911H95.9336V194.199H90.6519V188.911Z" fill="#42474D"/>
<path d="M99.9136 203.003H105.195V208.291H99.9136V203.003Z" fill="#42474D"/>
<path d="M90.6519 203.003H95.9336V208.291H90.6519V203.003Z" fill="#42474D"/>
<path d="M99.9136 217.081H105.195V222.369H99.9136V217.081Z" fill="#42474D"/>
<path d="M90.6519 217.081H95.9336V222.369H90.6519V217.081Z" fill="#42474D"/>
<path d="M567.8 159.054H573.082V164.342H567.8V159.054Z" fill="#42474D"/>
<path d="M567.8 173.146H573.082V178.434H567.8V173.146Z" fill="#42474D"/>
<path d="M567.8 187.224H573.082V192.512H567.8V187.224Z" fill="#42474D"/>
<path d="M567.8 201.316H573.082V206.604H567.8V201.316Z" fill="#42474D"/>
<path d="M567.8 215.394H573.082V220.682H567.8V215.394Z" fill="#42474D"/>
<path d="M567.8 229.486H573.082V234.774H567.8V229.486Z" fill="#42474D"/>
<path d="M537.046 160.599H542.328V165.887H537.046V160.599Z" fill="#42474D"/>
<path d="M527.785 160.599H533.066V165.887H527.785V160.599Z" fill="#42474D"/>
<path d="M518.527 160.599H523.809V165.887H518.527V160.599Z" fill="#42474D"/>
<path d="M537.046 174.677H542.328V179.965H537.046V174.677Z" fill="#42474D"/>
<path d="M527.785 174.677H533.066V179.965H527.785V174.677Z" fill="#42474D"/>
<path d="M518.527 174.677H523.809V179.965H518.527V174.677Z" fill="#42474D"/>
<path d="M537.046 188.769H542.328V194.057H537.046V188.769Z" fill="#42474D"/>
<path d="M527.785 188.769H533.066V194.057H527.785V188.769Z" fill="#42474D"/>
<path d="M518.527 188.769H523.809V194.057H518.527V188.769Z" fill="#42474D"/>
<path d="M537.046 202.847H542.328V208.135H537.046V202.847Z" fill="#42474D"/>
<path d="M527.785 202.847H533.066V208.135H527.785V202.847Z" fill="#42474D"/>
<path d="M518.527 202.847H523.809V208.135H518.527V202.847Z" fill="#42474D"/>
<path d="M537.046 216.939H542.328V222.227H537.046V216.939Z" fill="#42474D"/>
<path d="M527.785 216.939H533.066V222.227H527.785V216.939Z" fill="#42474D"/>
<path d="M518.527 216.939H523.809V222.227H518.527V216.939Z" fill="#42474D"/>
<path d="M537.046 231.017H542.328V236.305H537.046V231.017Z" fill="#42474D"/>
<path d="M527.785 231.017H533.066V236.305H527.785V231.017Z" fill="#42474D"/>
<path d="M518.527 231.017H523.809V236.305H518.527V231.017Z" fill="#42474D"/>
<path d="M509.449 160.599H514.73V165.887H509.449V160.599Z" fill="#42474D"/>
<path d="M500.187 160.599H505.469V165.887H500.187V160.599Z" fill="#42474D"/>
<path d="M509.449 174.677H514.73V179.965H509.449V174.677Z" fill="#42474D"/>
<path d="M500.187 174.677H505.469V179.965H500.187V174.677Z" fill="#42474D"/>
<path d="M509.449 188.769H514.73V194.057H509.449V188.769Z" fill="#42474D"/>
<path d="M500.187 188.769H505.469V194.057H500.187V188.769Z" fill="#42474D"/>
<path d="M509.449 202.847H514.73V208.135H509.449V202.847Z" fill="#42474D"/>
<path d="M500.187 202.847H505.469V208.135H500.187V202.847Z" fill="#42474D"/>
<path d="M509.449 216.939H514.73V222.227H509.449V216.939Z" fill="#42474D"/>
<path d="M500.187 216.939H505.469V222.227H500.187V216.939Z" fill="#42474D"/>
<path d="M509.449 231.017H514.73V236.305H509.449V231.017Z" fill="#42474D"/>
<path d="M500.187 231.017H505.469V236.305H500.187V231.017Z" fill="#42474D"/>
<path d="M404.92 120.435H412.41V126.205H404.92V120.435Z" fill="#42474D"/>
<path d="M391.763 120.435H399.254V126.205H391.763V120.435Z" fill="#42474D"/>
<path d="M378.623 120.435H386.113V126.205H378.623V120.435Z" fill="#42474D"/>
<path d="M404.92 135.817H412.41V141.587H404.92V135.817Z" fill="#42474D"/>
<path d="M378.623 135.817H386.113V141.587H378.623V135.817Z" fill="#42474D"/>
<path d="M404.92 151.214H412.41V156.984H404.92V151.214Z" fill="#42474D"/>
<path d="M391.763 151.214H399.254V156.984H391.763V151.214Z" fill="#42474D"/>
<path d="M378.623 151.214H386.113V156.984H378.623V151.214Z" fill="#42474D"/>
<path d="M404.92 166.61H412.41V172.38H404.92V166.61Z" fill="#42474D"/>
<path d="M391.763 166.61H399.254V172.38H391.763V166.61Z" fill="#42474D"/>
<path d="M378.623 166.61H386.113V172.38H378.623V166.61Z" fill="#42474D"/>
<path d="M404.92 182.006H412.41V187.777H404.92V182.006Z" fill="#42474D"/>
<path d="M391.763 182.006H399.254V187.777H391.763V182.006Z" fill="#42474D"/>
<path d="M404.92 197.389H412.41V203.159H404.92V197.389Z" fill="#42474D"/>
<path d="M378.623 197.389H386.113V203.159H378.623V197.389Z" fill="#42474D"/>
<path d="M365.47 135.817H372.961V141.587H365.47V135.817Z" fill="#42474D"/>
<path d="M365.47 151.214H372.961V156.984H365.47V151.214Z" fill="#42474D"/>
<path d="M365.47 166.61H372.961V172.38H365.47V166.61Z" fill="#42474D"/>
<path d="M365.47 182.006H372.961V187.777H365.47V182.006Z" fill="#42474D"/>
<path d="M365.47 197.389H372.961V203.159H365.47V197.389Z" fill="#42474D"/>
<path d="M412.396 214.812H405.883V209.794H412.396V214.812Z" fill="#42474D"/>
<path d="M372.975 227.218H365.484V221.447H372.975V227.218Z" fill="#42474D"/>
<path d="M386.116 227.218H378.625V221.447H386.116V227.218Z" fill="#42474D"/>
<path d="M399.268 227.218H391.777V221.447H399.268V227.218Z" fill="#42474D"/>
<path d="M372.975 242.614H365.484V236.844H372.975V242.614Z" fill="#42474D"/>
<path d="M399.268 242.614H391.777V236.844H399.268V242.614Z" fill="#42474D"/>
<path d="M372.975 258.01H365.484V252.24H372.975V258.01Z" fill="#42474D"/>
<path d="M386.116 258.01H378.625V252.24H386.116V258.01Z" fill="#42474D"/>
<path d="M372.975 273.393H365.484V267.622H372.975V273.393Z" fill="#42474D"/>
<path d="M399.268 273.393H391.777V267.622H399.268V273.393Z" fill="#42474D"/>
<path d="M412.409 242.614H404.918V236.844H412.409V242.614Z" fill="#42474D"/>
<path d="M412.409 258.01H404.918V252.24H412.409V258.01Z" fill="#42474D"/>
<path d="M478.736 90.1243H486.227V95.8944H478.736V90.1243Z" fill="#42474D"/>
<path d="M465.595 90.1243H473.086V95.8944H465.595V90.1243Z" fill="#42474D"/>
<path d="M452.439 90.1243H459.93V95.8944H452.439V90.1243Z" fill="#42474D"/>
<path d="M478.736 105.521H486.227V111.291H478.736V105.521Z" fill="#42474D"/>
<path d="M452.439 105.521H459.93V111.291H452.439V105.521Z" fill="#42474D"/>
<path d="M478.736 120.917H486.227V126.687H478.736V120.917Z" fill="#42474D"/>
<path d="M465.595 120.917H473.086V126.687H465.595V120.917Z" fill="#42474D"/>
<path d="M452.439 120.917H459.93V126.687H452.439V120.917Z" fill="#42474D"/>
<path d="M478.736 136.299H486.227V142.069H478.736V136.299Z" fill="#42474D"/>
<path d="M465.595 136.299H473.086V142.069H465.595V136.299Z" fill="#42474D"/>
<path d="M452.439 136.299H459.93V142.069H452.439V136.299Z" fill="#42474D"/>
<path d="M478.736 151.696H486.227V157.466H478.736V151.696Z" fill="#42474D"/>
<path d="M465.595 151.696H473.086V157.466H465.595V151.696Z" fill="#42474D"/>
<path d="M478.736 167.092H486.227V172.862H478.736V167.092Z" fill="#42474D"/>
<path d="M452.439 167.092H459.93V172.862H452.439V167.092Z" fill="#42474D"/>
<path d="M439.298 105.521H446.789V111.291H439.298V105.521Z" fill="#42474D"/>
<path d="M439.298 120.917H446.789V126.687H439.298V120.917Z" fill="#42474D"/>
<path d="M439.298 136.299H446.789V142.069H439.298V136.299Z" fill="#42474D"/>
<path d="M439.298 151.696H446.789V157.466H439.298V151.696Z" fill="#42474D"/>
<path d="M439.298 167.092H446.789V172.862H439.298V167.092Z" fill="#42474D"/>
<path d="M486.225 184.516H479.711V179.497H486.225V184.516Z" fill="#42474D"/>
<path d="M446.791 196.921H439.301V191.151H446.791V196.921Z" fill="#42474D"/>
<path d="M459.932 196.921H452.441V191.151H459.932V196.921Z" fill="#42474D"/>
<path d="M473.073 196.921H465.582V191.151H473.073V196.921Z" fill="#42474D"/>
<path d="M446.791 212.303H439.301V206.533H446.791V212.303Z" fill="#42474D"/>
<path d="M473.073 212.303H465.582V206.533H473.073V212.303Z" fill="#42474D"/>
<path d="M446.791 227.699H439.301V221.929H446.791V227.699Z" fill="#42474D"/>
<path d="M459.932 227.699H452.441V221.929H459.932V227.699Z" fill="#42474D"/>
<path d="M446.791 243.096H439.301V237.326H446.791V243.096Z" fill="#42474D"/>
<path d="M473.073 243.096H465.582V237.326H473.073V243.096Z" fill="#42474D"/>
<path d="M486.225 212.303H478.734V206.533H486.225V212.303Z" fill="#42474D"/>
<path d="M486.225 227.699H478.734V221.929H486.225V227.699Z" fill="#42474D"/>
<path d="M213.617 199.87H242.73V202.691H213.617V199.87Z" fill="#42474D"/>
<path d="M213.617 220.526H242.73V223.347H213.617V220.526Z" fill="#42474D"/>
<path d="M213.617 241.196H242.73V244.017H213.617V241.196Z" fill="#42474D"/>
<path d="M213.617 261.866H242.73V264.688H213.617V261.866Z" fill="#42474D"/>
<path d="M213.617 282.523H242.73V285.344H213.617V282.523Z" fill="#42474D"/>
<path d="M230.029 206.845H242.73V209.666H230.029V206.845Z" fill="#42474D"/>
<path d="M230.029 213.692H242.73V216.514H230.029V213.692Z" fill="#42474D"/>
<path d="M42.9886 208.135H72.1016V210.956H42.9886V208.135Z" fill="#42474D"/>
<path d="M42.9886 228.791H72.1016V231.612H42.9886V228.791Z" fill="#42474D"/>
<path d="M42.9886 249.461H72.1016V252.283H42.9886V249.461Z" fill="#42474D"/>
<path d="M42.9886 270.118H72.1016V272.939H42.9886V270.118Z" fill="#42474D"/>
<path d="M42.9886 290.788H72.1016V293.609H42.9886V290.788Z" fill="#42474D"/>
<path d="M59.4 215.11H72.1016V217.931H59.4V215.11Z" fill="#42474D"/>
<path d="M59.4 221.958H72.1016V224.779H59.4V221.958Z" fill="#42474D"/>
<path d="M309.366 231.187H314.336V236.163H309.366V231.187Z" fill="#42474D"/>
<path d="M293.651 231.187H298.621V236.163H293.651V231.187Z" fill="#42474D"/>
<path d="M317.225 238.829H322.195V243.805H317.225V238.829Z" fill="#42474D"/>
<path d="M301.51 238.829H306.48V243.805H301.51V238.829Z" fill="#42474D"/>
<path d="M293.651 238.829H298.621V243.805H293.651V238.829Z" fill="#42474D"/>
<path d="M317.225 246.47H322.195V251.446H317.225V246.47Z" fill="#42474D"/>
<path d="M309.366 246.47H314.336V251.446H309.366V246.47Z" fill="#42474D"/>
<path d="M317.225 254.112H322.195V259.088H317.225V254.112Z" fill="#42474D"/>
<path d="M293.651 254.112H298.621V259.088H293.651V254.112Z" fill="#42474D"/>
<path d="M301.51 261.739H306.48V266.715H301.51V261.739Z" fill="#42474D"/>
<path d="M293.651 261.739H298.621V266.715H293.651V261.739Z" fill="#42474D"/>
<path d="M317.225 269.38H322.195V274.357H317.225V269.38Z" fill="#42474D"/>
<path d="M309.366 269.38H314.336V274.357H309.366V269.38Z" fill="#42474D"/>
<path d="M301.51 269.38H306.48V274.357H301.51V269.38Z" fill="#42474D"/>
<path d="M309.366 277.022H314.336V281.998H309.366V277.022Z" fill="#42474D"/>
<path d="M293.651 277.022H298.621V281.998H293.651V277.022Z" fill="#42474D"/>
<path d="M317.225 284.663H322.195V289.64H317.225V284.663Z" fill="#42474D"/>
<path d="M309.366 284.663H314.336V289.64H309.366V284.663Z" fill="#42474D"/>
<path d="M301.51 284.663H306.48V289.64H301.51V284.663Z" fill="#42474D"/>
</svg>
