<svg xmlns="http://www.w3.org/2000/svg" xmlns:xlink="http://www.w3.org/1999/xlink"><defs><path id="a" d="M278 102v-1h12v1z"/><path id="b" d="M278 106v-1h12v1z"/><path id="c" d="M278 110v-1h12v1z"/><style>.cls-1{fill:#7e8090}.cls-1,.cls-2,.cls-3{fill-rule:evenodd}.cls-2{fill:#fff}.cls-3{fill:#ffff98}</style><style>.cls-1,.cls-2{fill:#7e8090;fill-rule:evenodd}.cls-2{fill:#ffff98}</style><style>.cls-1{fill:#7e8090}.cls-1,.cls-2,.cls-3{fill-rule:evenodd}.cls-2{fill:#ffff98}.cls-3{fill:#fff}</style><style>.cls-2,.cls-3{fill-rule:evenodd}.cls-2{fill:#7e8090}.cls-3{fill:#fff}</style><style>.cls-1{fill:#7e8090}.cls-1,.cls-2,.cls-3{fill-rule:evenodd}.cls-2{fill:#fff}.cls-3{fill:#ffff98}</style><linearGradient id="a" x1="47.73" y1="186.15" x2="-65.46" y2="-396.12" gradientUnits="userSpaceOnUse"><stop offset="0" stop-color="#f15d22"/><stop offset="1" stop-color="#ca4a1e"/></linearGradient></defs><symbol id="icon-001-vk-social-logotype" viewBox="0 0 100 100"><path d="M48.875 0C21.883 0 0 21.882 0 48.875S21.883 97.75 48.875 97.75 97.75 75.868 97.75 48.875 75.867 0 48.875 0zm24.792 54.161c2.278 2.225 4.688 4.319 6.733 6.774.906 1.086 1.76 2.209 2.41 3.472.928 1.801.09 3.776-1.522 3.883l-10.013-.002c-2.586.214-4.644-.829-6.379-2.597-1.385-1.409-2.67-2.914-4.004-4.371-.545-.598-1.119-1.161-1.803-1.604-1.365-.888-2.551-.616-3.333.81-.797 1.451-.979 3.059-1.055 4.674-.109 2.361-.821 2.978-3.19 3.089-5.062.237-9.865-.531-14.329-3.083-3.938-2.251-6.986-5.428-9.642-9.025-5.172-7.012-9.133-14.708-12.692-22.625-.801-1.783-.215-2.737 1.752-2.774 3.268-.063 6.536-.055 9.804-.003 1.33.021 2.21.782 2.721 2.037 1.766 4.345 3.931 8.479 6.644 12.313.723 1.021 1.461 2.039 2.512 2.76 1.16.796 2.044.533 2.591-.762.35-.823.501-1.703.577-2.585.26-3.021.291-6.041-.159-9.05-.28-1.883-1.339-3.099-3.216-3.455-.956-.181-.816-.535-.351-1.081.807-.944 1.563-1.528 3.074-1.528l11.313-.002c1.783.35 2.183 1.15 2.425 2.946l.01 12.572c-.021.695.349 2.755 1.597 3.21 1 .33 1.66-.472 2.258-1.105 2.713-2.879 4.646-6.277 6.377-9.794.764-1.551 1.423-3.156 2.063-4.764.476-1.189 1.216-1.774 2.558-1.754l10.894.013c.321 0 .647.003.965.058 1.836.314 2.339 1.104 1.771 2.895-.894 2.814-2.631 5.158-4.329 7.508-1.82 2.516-3.761 4.944-5.563 7.471-1.656 2.31-1.525 3.473.531 5.479z"/></symbol><symbol id="icon-002-facebook-logo-button" viewBox="0 0 50 50"><path d="M24.826 0C11.137 0 0 11.137 0 24.826c0 13.688 11.137 24.826 24.826 24.826 13.688 0 24.826-11.138 24.826-24.826C49.652 11.137 38.516 0 24.826 0zM31 25.7h-4.039v14.396h-5.985V25.7h-2.845v-5.088h2.845v-3.291c0-2.357 1.12-6.04 6.04-6.04l4.435.017v4.939h-3.219c-.524 0-1.269.262-1.269 1.386v2.99h4.56L31 25.7z"/></symbol><symbol id="icon-003-instagram-logo" viewBox="0 0 50 50"><path d="M24.825 29.796a4.978 4.978 0 0 0 4.972-4.97 4.954 4.954 0 0 0-.94-2.897 4.964 4.964 0 0 0-4.029-2.073c-1.659 0-3.126.82-4.031 2.072a4.947 4.947 0 0 0-.94 2.897 4.973 4.973 0 0 0 4.968 4.971zm10.853-11.05V13.96l-.623.002-4.164.013.016 4.787z"/><path d="M24.826 0C11.137 0 0 11.137 0 24.826c0 13.688 11.137 24.826 24.826 24.826 13.688 0 24.826-11.138 24.826-24.826C49.652 11.137 38.516 0 24.826 0zm14.119 21.929v11.56a5.463 5.463 0 0 1-5.457 5.458H16.164a5.462 5.462 0 0 1-5.457-5.458V16.165a5.462 5.462 0 0 1 5.457-5.457h17.323a5.463 5.463 0 0 1 5.458 5.457v5.764z"/><path d="M32.549 24.826c0 4.257-3.464 7.723-7.723 7.723s-7.722-3.466-7.722-7.723a7.67 7.67 0 0 1 .568-2.897h-4.215v11.56a2.706 2.706 0 0 0 2.706 2.704h17.323a2.707 2.707 0 0 0 2.706-2.704v-11.56h-4.217c.367.894.574 1.873.574 2.897z"/></symbol><symbol id="icon-004-telegram" viewBox="0 0 455.731 455.731"><path d="M316.244 149.903L149.082 253.579a7.605 7.605 0 0 0-3.255 8.717l22.423 72.253c.471 1.518 2.683 1.309 2.861-.271l5.45-48.448a7.603 7.603 0 0 1 2.519-4.847l141.556-125.177c3.389-2.996-.547-8.288-4.392-5.903z"/><path d="M0 0v455.731h455.731V0H0zm379.882 118.418l-52.031 248.76c-2.442 11.673-16.133 16.916-25.747 9.859l-78.559-57.665-40.039 40.881c-7.027 7.175-19.166 4.271-22.185-5.308l-28.901-91.706-77.441-22.868c-10.16-3-10.759-17.165-.888-21.012L358.844 100.6c11.6-4.52 23.587 5.632 21.038 17.818z"/></symbol><symbol id="icon-005-phone-symbol-of-an-auricular-inside-a-circle" viewBox="0 0 485 485"><path d="M242.607 0C108.629 0 .001 108.628.001 242.606c0 133.976 108.628 242.606 242.606 242.606s242.604-108.631 242.604-242.606C485.212 108.628 376.585 0 242.607 0zm128.112 353.989l-19.425 19.429c-3.468 3.463-13.623 5.624-13.949 5.624-61.452.536-120.621-23.602-164.095-67.08-43.593-43.618-67.759-102.998-67.11-164.657 0-.028 2.224-9.892 5.689-13.324l19.424-19.427c7.108-7.141 20.762-10.368 30.327-7.168l4.086 1.363c9.537 3.197 19.55 13.742 22.185 23.457l9.771 35.862c2.635 9.743-.919 23.604-8.025 30.712l-12.97 12.972c12.734 47.142 49.723 84.138 96.873 96.903l12.965-12.975c7.141-7.141 20.997-10.692 30.719-8.061l35.857 9.806c9.717 2.67 20.26 12.62 23.456 22.154l1.363 4.145c3.168 9.538-.034 23.189-7.141 30.265z"/></symbol><symbol id="icon-006-smartphone" viewBox="0 0 512 512"><path d="M368 0H144c-26.4 0-48 21.6-48 48v416c0 26.4 21.6 48 48 48h224c26.4 0 48-21.6 48-48V48c0-26.4-21.6-48-48-48zM192 24h128v16H192V24zm64 456c-17.673 0-32-14.327-32-32s14.327-32 32-32 32 14.327 32 32-14.327 32-32 32zm128-96H128V64h256v320z"/></symbol><symbol id="icon-007-user" viewBox="0 0 299.997 299.997"><path d="M149.996 0C67.157 0 .001 67.158.001 149.997c0 82.837 67.156 150 149.995 150s150-67.163 150-150C299.996 67.156 232.835 0 149.996 0zm.457 220.763v-.002H85.465c0-46.856 41.152-46.845 50.284-59.097l1.045-5.587c-12.83-6.502-21.887-22.178-21.887-40.512 0-24.154 15.712-43.738 35.089-43.738s35.089 19.584 35.089 43.738c0 18.178-8.896 33.756-21.555 40.361l1.19 6.349c10.019 11.658 49.802 12.418 49.802 58.488h-64.069z"/></symbol><symbol id="icon-008-clock" viewBox="0 0 299.995 299.995"><path d="M149.995 0C67.156 0 0 67.158 0 149.995s67.156 150 149.995 150 150-67.163 150-150S232.834 0 149.995 0zm64.847 178.524H151.25c-.215 0-.415-.052-.628-.06-.213.01-.412.06-.628.06-5.729 0-10.374-4.645-10.374-10.374V62.249c0-5.729 4.645-10.374 10.374-10.374s10.374 4.645 10.374 10.374v95.527h54.47c5.729 0 10.374 4.645 10.374 10.374 0 5.729-4.641 10.374-10.37 10.374z"/></symbol><symbol id="icon-009-call-answer" viewBox="0 0 512 512"><path d="M340.273 275.083l-53.755-53.761c-10.707-10.664-28.438-10.34-39.518.744l-27.082 27.076a792.327 792.327 0 0 1-5.344-2.973c-17.102-9.476-40.509-22.464-65.14-47.113-24.704-24.701-37.704-48.144-47.209-65.257-1.003-1.813-1.964-3.561-2.913-5.221l18.176-18.149 8.936-8.947c11.097-11.1 11.403-28.826.721-39.521L73.39 8.194c-10.682-10.68-28.421-10.356-39.518.744l-15.15 15.237.414.411c-5.08 6.482-9.325 13.958-12.484 22.02C3.74 54.28 1.927 61.603 1.098 68.941-6 127.785 20.89 181.564 93.866 254.541c100.875 100.868 182.167 93.248 185.674 92.876 7.638-.913 14.958-2.738 22.397-5.627 7.992-3.122 15.463-7.361 21.941-12.43l.331.294 15.348-15.029c11.074-11.098 11.393-28.83.716-39.542z"/></symbol><symbol id="icon-010-telephone" viewBox="0 0 481.168 481.168"><path d="M410.639 70.5c-94-94-246.3-94-340.2 0-90.4 90.4-93.8 235-10.1 329.5l2.5 2c-9.1 19.6-24.7 43.8-49.5 56-8.2 4-6.3 16.2 2.7 17.6 27.1 4.2 66-.5 102.3-27.9l.5.4c92.2 54.2 212.8 41.8 292-37.4 93.8-93.9 93.8-246.3-.2-340.2zm-90.8 273c-5.3 5.4-10.9 10.4-15.9 16-7.3 8.2-16.5 10.8-26.9 10.2-15.2-.8-29.3-5.9-42.8-12.5-30.1-14.6-55.8-34.9-77.3-60.5-15.9-18.9-29-39.5-37.7-62.8-4.2-11.3-7.2-22.8-6.3-35 .6-7.5 3.4-13.9 8.9-19.2 6-5.7 11.6-11.6 17.5-17.4 7.7-7.6 17.3-7.5 25 0 4.8 4.7 9.4 9.4 14.1 14.1 4.6 4.6 9.2 9.1 13.7 13.7 8 8.1 8 17.5 0 25.6-5.7 5.8-11.4 11.6-17.3 17.2-1.5 1.5-1.7 2.7-.9 4.6 3.8 9.2 9.4 17.4 15.6 25 12.5 15.4 26.7 29.1 43.7 39.7 3.6 2.3 7.6 3.9 11.4 6 1.9 1.1 3.3.7 4.8-.9 5.7-5.9 11.6-11.7 17.4-17.5 7.7-7.6 17.3-7.6 24.9 0 9.4 9.3 18.7 18.6 28 28 8 8.2 8 17.8.1 25.7zm-88.7-155.4l3-21.4c20.7 2.9 39.5 12.3 54.3 27.1 14.1 14.1 23.3 31.8 26.6 51.3l-21.3 3.7c-2.6-15.1-9.7-28.8-20.6-39.7-11.5-11.5-26-18.8-42-21zm118.7 57c-4.8-28-18-53.4-38.1-73.6-21.2-21.2-48.1-34.6-77.8-38.8l3-21.4c34.3 4.8 65.5 20.3 90 44.9 23.3 23.3 38.6 52.8 44.2 85.2l-21.3 3.7z"/></symbol><symbol id="icon-011-picture" viewBox="0 0 548 548"><path d="M534.75 68.238c-8.945-8.945-19.694-13.417-32.261-13.417H45.681c-12.562 0-23.313 4.471-32.264 13.417C4.471 77.185 0 87.936 0 100.499v347.173c0 12.566 4.471 23.318 13.417 32.264 8.951 8.946 19.702 13.419 32.264 13.419h456.815c12.56 0 23.312-4.473 32.258-13.419 8.945-8.945 13.422-19.697 13.422-32.264V100.499c0-12.563-4.477-23.314-13.426-32.261zm-23.127 379.434c0 2.478-.899 4.613-2.707 6.427-1.81 1.8-3.952 2.703-6.427 2.703H45.681c-2.473 0-4.615-.903-6.423-2.703-1.807-1.813-2.712-3.949-2.712-6.427V100.495c0-2.474.902-4.611 2.712-6.423 1.809-1.803 3.951-2.708 6.423-2.708h456.815c2.471 0 4.613.905 6.42 2.708 1.801 1.812 2.707 3.949 2.707 6.423v347.177z"/><path d="M127.91 237.541c15.229 0 28.171-5.327 38.831-15.987 10.657-10.66 15.987-23.601 15.987-38.826 0-15.23-5.333-28.171-15.987-38.832-10.66-10.656-23.603-15.986-38.831-15.986-15.227 0-28.168 5.33-38.828 15.986-10.656 10.66-15.986 23.601-15.986 38.832 0 15.225 5.327 28.169 15.986 38.826 10.66 10.657 23.601 15.987 38.828 15.987zm82.224 82.224l-45.682-45.677-91.36 91.359v54.82h401.993V292.36l-118.77-118.773z"/></symbol><symbol id="icon-012-frame-landscape" viewBox="0 0 315.58 315.58"><path d="M310.58 33.331H5a5 5 0 0 0-5 5v238.918a5 5 0 0 0 5 5h305.58c2.763 0 5-2.238 5-5V38.331c0-2.762-2.237-5-5-5zm-25 209.055l-68.766-71.214a2.047 2.047 0 0 0-2.823-.114l-47.695 41.979-60.962-75.061a2.007 2.007 0 0 0-1.63-.756 2.043 2.043 0 0 0-1.597.822L30 234.797V63.331h255.58v179.055z"/><path d="M210.059 135.555c13.538 0 24.529-10.982 24.529-24.531 0-13.545-10.991-24.533-24.529-24.533-13.549 0-24.528 10.988-24.528 24.533 0 13.548 10.98 24.531 24.528 24.531z"/></symbol><symbol id="icon-013-gift" viewBox="0 0 512 512"><path d="M32 271.692v192c0 17.664 14.368 32 32 32h160v-224H32zm448-128H378.752c7.264-4.96 13.504-9.888 17.856-14.304 25.824-25.952 25.824-68.192 0-94.144-25.088-25.28-68.8-25.216-93.856 0-13.888 13.92-50.688 70.592-45.6 108.448h-2.304c5.056-37.856-31.744-94.528-45.6-108.448-25.088-25.216-68.8-25.216-93.856 0-25.792 25.952-25.792 68.192-.032 94.144 4.384 4.416 10.624 9.344 17.888 14.304H32c-17.632 0-32 14.368-32 32v48c0 8.832 7.168 16 16 16h208v-64h64v64h208c8.832 0 16-7.168 16-16v-48c0-17.632-14.336-32-32-32zm-257.888-1.056s-1.344 1.056-5.92 1.056c-22.112 0-64.32-22.976-78.112-36.864-13.408-13.504-13.408-35.52 0-49.024 6.496-6.528 15.104-10.112 24.256-10.112 9.12 0 17.728 3.584 24.224 10.112 21.568 21.696 43.008 77.12 35.552 84.832zm73.664 1.056c-4.544 0-5.888-1.024-5.888-1.056-7.456-7.712 13.984-63.136 35.552-84.832 12.896-13.024 35.456-13.088 48.48 0 13.44 13.504 13.44 35.52 0 49.024-13.792 13.888-56 36.864-78.144 36.864zm-7.776 128v224h160c17.664 0 32-14.336 32-32v-192H288z"/></symbol><symbol id="icon-014-code" viewBox="0 0 512 512"><path d="M432.73 0H79.27C35.56 0 0 35.56 0 79.27v34.27h512V79.27C512 35.56 476.44 0 432.73 0zM79.27 71.77c-8.25 0-15-6.72-15-15 0-8.28 6.75-15 15-15s15 6.72 15 15c0 8.28-6.75 15-15 15zm64.26 0c-8.25 0-15-6.72-15-15 0-8.28 6.75-15 15-15s15 6.72 15 15c0 8.28-6.75 15-15 15zm64.27 0c-8.25 0-15-6.72-15-15 0-8.28 6.75-15 15-15s15 6.72 15 15c0 8.28-6.75 15-15 15zM0 432.73C0 476.44 35.56 512 79.27 512h353.46c43.71 0 79.27-35.56 79.27-79.27v-289.2H0zm341.8-198.26a15 15 0 1 1 21.2-21.2l64.27 64.26a15 15 0 0 1 0 21.21l-64.26 64.27a14.96 14.96 0 0 1-21.22 0 15 15 0 0 1 0-21.21l53.66-53.66zM210.44 345.7l64.27-128.53a15 15 0 0 1 26.83 13.41l-64.27 128.54a15 15 0 1 1-26.83-13.42zM84.73 277.53l64.26-64.27a15 15 0 0 1 21.22 21.21l-53.66 53.66 53.65 53.66a15 15 0 1 1-21.2 21.22l-64.27-64.27a15 15 0 0 1 0-21.21zm0 0"/></symbol><symbol id="icon-015-paintbrush" viewBox="0 0 444.89 444.89"><path d="M440.5 173.1a15 15 0 0 0 0-21.21l-22.51-22.51a15 15 0 0 0-19.04-1.8l-47.33 32.17 31.97-47.65a15 15 0 0 0-1.85-18.97L332.91 44.3a15 15 0 0 0-17.11-2.9l-8.45 4.06 4.05-8.97a15 15 0 0 0-3.07-16.77L293 4.39a15 15 0 0 0-21.21 0L152.73 123.45l168.7 168.71L440.5 173.1zm-309.94-27.48L96.09 180.1a15 15 0 0 0 0 21.21l32.7 32.7c6.3 6.3 9.35 14.99 8.38 23.84a29.12 29.12 0 0 1-13.37 21.48C27.74 340.55 18.78 349.5 15.84 352.45a54.23 54.23 0 0 0 0 76.6 54.23 54.23 0 0 0 76.6 0c2.94-2.94 11.9-11.9 73.13-107.96a29.1 29.1 0 0 1 21.47-13.34 29.1 29.1 0 0 1 23.86 8.35l32.69 32.7a15 15 0 0 0 21.21 0l34.47-34.47-168.71-168.7zm-60.51 259.2a21.2 21.2 0 1 1-29.98-29.98 21.2 21.2 0 0 1 29.98 29.99z"/></symbol><symbol id="icon-016-megaphone" viewBox="0 0 512.03 512.03"><path d="M256.02 321.63V126.37c-5.54.51-11.01 1.37-16.58 1.63H80.02a16 16 0 0 0-16 16v16h-48a16 16 0 0 0-16 16v96a16 16 0 0 0 16 16h48v16a16 16 0 0 0 16 16h9.7l64.31 171.46a31.82 31.82 0 0 0 23.55 19.9c2.15.45 4.3.67 6.4.67 8.55 0 16.68-3.39 22.5-9.47l38.43-38.11c9.83-9.83 12.16-25.15 5.89-37.03L197.1 320h42.5c5.5.26 10.94 1.12 16.42 1.63zM509.4 7.74a15.8 15.8 0 0 0-7.71-6.62c-.1-.03-.17-.16-.27-.2-.32-.09-.6.07-.92-.02-1.44-.42-2.88-.9-4.48-.9-1.1 0-2.05.42-3.1.64-.62.13-1.2.16-1.8.35-2.75.9-5.12 2.43-7 4.55-.14.12-.33.16-.46.28-49.88 60.58-119.45 101.1-195.64 115.94v204.51c76.19 14.85 145.76 55.33 195.64 115.9.13.17.36.23.52.42a15.52 15.52 0 0 0 3.96 3.07c.48.3.87.7 1.35.93 2.01.87 4.19 1.41 6.53 1.41 1.82 0 3.61-.32 5.4-.93.1-.03.16-.16.26-.19a15.56 15.56 0 0 0 6.69-5.12c.38-.51.67-.96 1.02-1.5 1.54-2.47 2.63-5.19 2.63-8.26V16c0-3.07-1.1-5.8-2.63-8.26z"/></symbol><symbol id="icon-017-envelope" viewBox="0 0 512 512"><path d="M49.1 178.73c6.48 4.57 25.99 18.13 58.53 40.68 32.55 22.56 57.49 39.92 74.8 52.1 1.91 1.34 5.95 4.24 12.14 8.71 6.18 4.48 11.32 8.1 15.41 10.85 4.1 2.76 9.05 5.86 14.85 9.28 5.8 3.42 11.28 6 16.42 7.7a45.24 45.24 0 0 0 14.28 2.57h.57c4.37 0 9.13-.85 14.27-2.57a86.22 86.22 0 0 0 16.41-7.7c5.8-3.43 10.76-6.52 14.85-9.28 4.1-2.75 9.23-6.37 15.42-10.85a1227.6 1227.6 0 0 1 12.13-8.7 252499 252499 0 0 1 133.62-92.8c13.89-9.7 25.5-21.4 34.82-35.11 9.33-13.7 14-28.07 14-43.1 0-12.57-4.53-23.33-13.57-32.27-9.04-8.95-19.75-13.42-32.12-13.42H45.68c-14.66 0-25.93 4.95-33.83 14.84C3.95 79.56 0 91.93 0 106.78c0 11.99 5.24 24.98 15.7 38.97 10.47 14 21.6 24.99 33.4 32.98z"/><path d="M483.07 209.28c-62.42 42.25-109.82 75.08-142.17 98.5a673.69 673.69 0 0 1-26.41 18.7c-6.76 4.47-15.75 9.04-26.98 13.7-11.23 4.67-21.7 7-31.4 7h-.59c-9.71 0-20.18-2.33-31.4-7-11.24-4.66-20.23-9.23-26.99-13.7a676.16 676.16 0 0 1-26.4-18.7c-25.7-18.85-73-51.68-141.9-98.5A151.23 151.23 0 0 1 0 184.44v226.68c0 12.57 4.47 23.32 13.42 32.27 8.94 8.95 19.7 13.42 32.26 13.42h420.27c12.56 0 23.31-4.47 32.26-13.42s13.42-19.7 13.42-32.27V184.44a157.44 157.44 0 0 1-28.56 24.84z"/></symbol><symbol id="icon-018-pencil-edit-button" viewBox="0 0 529 529"><path d="M328.88 89.13l107.6 107.58-272.35 272.34L56.6 361.46 328.88 89.13zm189.23-25.95L470.13 15.2a47.61 47.61 0 0 0-67.26 0l-45.96 45.96 107.6 107.59 53.6-53.61a36.68 36.68 0 0 0 0-51.96zM.3 512.69c-1.96 8.81 6 16.7 14.81 14.56l119.9-29.06-107.54-107.6L.3 512.7z"/></symbol><symbol id="icon-019-garbage" viewBox="0 0 59 59"><path d="M52.5 6H38.46c-.11-1.25-.5-3.36-1.82-4.71A4.23 4.23 0 0 0 33.5 0h-10c-1.25 0-2.31.43-3.14 1.29-1.32 1.35-1.7 3.46-1.82 4.71H6.5a1 1 0 1 0 0 2h2.04l1.92 46.02c.03 1.72 1.1 4.98 4.9 4.98h28.28c3.8 0 4.87-3.26 4.9-4.96L50.46 8h2.04a1 1 0 1 0 0-2zm-32 44a1 1 0 1 1-2 0V17a1 1 0 1 1 2 0v33zm10 0a1 1 0 1 1-2 0V17a1 1 0 1 1 2 0v33zm10 0a1 1 0 1 1-2 0V17a1 1 0 1 1 2 0v33zM21.8 2.68c.44-.46 1-.68 1.7-.68h10c.7 0 1.26.22 1.7.68.81.82 1.13 2.27 1.25 3.32h-15.9c.11-1.05.44-2.5 1.24-3.32z"/></symbol><symbol id="icon-020-shopping-cart"><path d="M153 408c-28.05 0-51 22.95-51 51s22.95 51 51 51 51-22.95 51-51-22.95-51-51-51zM0 0v51h51l91.8 193.8-35.7 61.2c-2.55 7.65-5.1 17.85-5.1 25.5 0 28.05 22.95 51 51 51h306v-51H163.2c-2.55 0-5.1-2.55-5.1-5.1v-2.55l22.95-43.35h188.7c20.4 0 35.7-10.2 43.35-25.5l91.8-165.75c5.1-5.1 5.1-7.65 5.1-12.75 0-15.3-10.2-25.5-25.5-25.5H107.1L84.15 0H0zm408 408c-28.05 0-51 22.95-51 51s22.95 51 51 51 51-22.95 51-51-22.95-51-51-51z"/></symbol><symbol id="icon-021-cart" viewBox="0 0 612 612"><path d="M484.7 247.25c.82-4.9-.4-9.59-3.67-14.08a19.72 19.72 0 0 0-12.85-7.34l-246.64-27.54-3.06-29.99c-.4-3.67-1.83-7.04-4.28-10.1s-5.3-5-8.57-5.81l-54.47-17.14c-4.9-1.63-9.59-1.22-14.07 1.23s-7.55 6.12-9.18 11.01a17 17 0 0 0 1.22 14.08 18.93 18.93 0 0 0 11.02 9.18l42.22 13.46 15.3 150.55-9.79 53.86c-.4 2.45-.3 5 .3 7.65.62 2.65 1.95 5 3.99 7.04a17.39 17.39 0 0 0 14.07 6.73h230.11c5.3 0 9.8-1.74 13.47-5.2s5.5-7.86 5.5-13.16-1.83-9.7-5.5-13.16c-3.67-3.47-8.16-5.2-13.47-5.2H228.27l4.29-24.48h219.1c4.48 0 8.35-1.43 11.62-4.28a18.58 18.58 0 0 0 6.12-11.02l15.3-86.3zm-82 230.72c8.16 0 14.99-2.75 20.5-8.26s8.26-12.34 8.26-20.5-2.75-15-8.26-20.5-12.34-8.27-20.5-8.27-14.9 2.76-20.2 8.27-7.96 12.34-7.96 20.5 2.66 15 7.96 20.5 12.04 8.26 20.2 8.26zm-168.3 0c8.16 0 14.99-2.75 20.5-8.26 5.5-5.5 8.26-12.34 8.26-20.5s-2.75-15-8.26-20.5-12.34-8.27-20.5-8.27-15 2.76-20.5 8.27-8.27 12.34-8.27 20.5 2.76 15 8.26 20.5 12.35 8.26 20.5 8.26zM306 0c42.02 0 81.7 8.06 119.03 24.17s69.77 37.95 97.31 65.49 49.37 59.97 65.49 97.3S612 263.99 612 306a299.2 299.2 0 0 1-11.02 81.4 310.52 310.52 0 0 1-30.9 73.13 305.09 305.09 0 0 1-47.74 61.81 304.92 304.92 0 0 1-61.81 47.74 310.3 310.3 0 0 1-73.14 30.9C361.3 608.33 334.15 612 306 612s-55.28-3.67-81.4-11.02c-26.1-7.34-50.49-17.64-73.13-30.9s-43.25-29.17-61.81-47.74a305.03 305.03 0 0 1-47.74-61.81 310.32 310.32 0 0 1-30.9-73.13C3.67 361.28 0 334.15 0 306s3.67-55.28 11.02-81.4 17.64-50.49 30.9-73.13 29.17-43.25 47.74-61.81 39.17-34.48 61.81-47.74 47.02-23.56 73.13-30.9S277.85 0 306 0z"/></symbol><symbol id="icon-022-musica-searcher" viewBox="0 0 250.31 250.31"><path d="M244.19 214.6l-54.38-54.37c-.3-.3-.63-.5-.93-.76a102.4 102.4 0 0 0 16.94-56.56C205.82 46.08 159.75 0 102.92 0S0 46.08 0 102.91c0 56.84 46.07 102.91 102.91 102.91 20.9 0 40.32-6.24 56.55-16.94.27.3.47.64.76.93l54.38 54.38a20.92 20.92 0 0 0 29.59-29.59zM102.9 170.15a67.24 67.24 0 1 1 0-134.47 67.24 67.24 0 0 1 0 134.47z" clip-rule="evenodd"/></symbol><symbol id="icon-023-arrow-point-to-right" viewBox="0 0 452 452"><path d="M345.44 248.3L151.15 442.56a31.64 31.64 0 0 1-44.75-44.74l171.92-171.91L106.4 54.02a31.65 31.65 0 0 1 44.75-44.75l194.29 194.28a31.53 31.53 0 0 1 9.26 22.37c0 8.1-3.1 16.2-9.27 22.37z"/></symbol><symbol id="icon-024-document" viewBox="0 0 516 516"><path d="M344.25 133.88h95.63L325.13 0v114.75c0 11.47 9.56 19.13 19.12 19.13z"/><path d="M306 114.75V0H114.75A38.36 38.36 0 0 0 76.5 38.25v439.88a38.36 38.36 0 0 0 38.25 38.25h286.88a38.36 38.36 0 0 0 38.25-38.25V153h-95.63A38.36 38.36 0 0 1 306 114.75z"/></symbol><symbol id="icon-62" viewBox="0 0 10.56 10.56"><g data-name="&#x421;&#x43B;&#x43E;&#x439; 2"><g data-name="Layer 1"><path d="M5.28 10.56A5.28 5.28 0 1 0 0 5.28a5.29 5.29 0 0 0 5.28 5.28z"/><path d="M8.33 5.63l-.1-.13a.42.42 0 0 1 0-.49l.09-.13a.42.42 0 0 0-.14-.61L8 4.2a.41.41 0 0 1-.21-.44V3.6a.42.42 0 0 0-.39-.48h-.11a.42.42 0 0 1-.38-.3v-.16a.41.41 0 0 0-.56-.27l-.15.06a.41.41 0 0 1-.47-.1l-.11-.12a.41.41 0 0 0-.62 0l-.11.12a.42.42 0 0 1-.47.11l-.21-.06a.42.42 0 0 0-.56.27v.16a.41.41 0 0 1-.38.3h-.2a.42.42 0 0 0-.38.49v.16a.41.41 0 0 1-.21.44l-.14.08a.42.42 0 0 0-.13.61l.1.13a.42.42 0 0 1 0 .48l-.09.13a.42.42 0 0 0 .14.61l.14.08a.41.41 0 0 1 .21.44v.16a.42.42 0 0 0 .39.48h.16a.42.42 0 0 1 .38.3v.16a.41.41 0 0 0 .56.27l.15-.06a.41.41 0 0 1 .47.1l.18.14a.41.41 0 0 0 .62 0l.11-.12a.42.42 0 0 1 .47-.11l.15.06a.42.42 0 0 0 .56-.27v-.16a.41.41 0 0 1 .38-.3h.16a.42.42 0 0 0 .38-.49v-.16a.41.41 0 0 1 .21-.44l.14-.08a.41.41 0 0 0 .13-.61zM6.46 6.9a.77.77 0 1 1 .77-.77.77.77 0 0 1-.77.77zm-1.9-.36a.25.25 0 1 1-.38-.32L6 4a.25.25 0 0 1 .38.32L4.55 6.54zM3.33 4.43a.77.77 0 1 1 .77.77.77.77 0 0 1-.77-.77zm3.13 1.48a.21.21 0 1 1-.21.21.21.21 0 0 1 .21-.21zM4.1 4.22a.21.21 0 1 1-.21.21.21.21 0 0 1 .21-.21z"/></g></g></symbol><symbol id="icon-63" viewBox="0 0 10.56 10.56"><g data-name="&#x421;&#x43B;&#x43E;&#x439; 2"><g data-name="Layer 1"><path d="M5.28 10.56A5.28 5.28 0 1 0 0 5.28a5.29 5.29 0 0 0 5.28 5.28z"/><path d="M5.28 2.64a2.64 2.64 0 1 0 2.64 2.64 2.64 2.64 0 0 0-2.64-2.64zm-.17 3.22a.37.37 0 0 1-.37-.37V4.08a.37.37 0 0 1 .73 0v1h.63a.37.37 0 0 1 0 .73h-1z"/></g></g></symbol><symbol id="icon-arrow-sm" viewBox="0 0 7.2 4.3"><g data-name="&#x421;&#x43B;&#x43E;&#x439; 2"><path d="M3.6 2.61L6 .2a.7.7 0 0 1 1 1L4.1 4.1a.7.7 0 0 1-1 0L.2 1.19a.7.7 0 0 1 1-1z" data-name="Layer 1"/></g></symbol><symbol id="icon-arrow"><path d="M3.646 9.354a.5.5 0 0 0 .708 0l3.182-3.182a.5.5 0 1 0-.708-.708L4 8.293 1.172 5.464a.5.5 0 1 0-.708.708l3.182 3.182zM3.5 0v9h1V0h-1z"/></symbol><symbol id="icon-auto-repair-service"><path d="M20.691 44.587c-6.278-3.045-10.335-9.518-10.335-16.49a18.288 18.288 0 0 1 8.226-15.29 1.41 1.41 0 1 0-1.557-2.353c-.29.193-.576.391-.855.596l-2.786-2.338a3.814 3.814 0 0 0-5.368.47l-1.586 1.89a3.784 3.784 0 0 0-.875 2.781A3.783 3.783 0 0 0 6.9 16.44l2.791 2.342a21.07 21.07 0 0 0-1.556 4.299H4.482c-2.1 0-3.81 1.71-3.81 3.81v2.469c0 2.1 1.71 3.81 3.81 3.81h3.667a21.02 21.02 0 0 0 1.563 4.28L6.9 39.81a3.783 3.783 0 0 0-1.344 2.587 3.783 3.783 0 0 0 .875 2.78l1.586 1.892a3.803 3.803 0 0 0 2.922 1.359c.864 0 1.733-.292 2.446-.89l2.823-2.368c1.02.744 2.108 1.4 3.253 1.955a1.411 1.411 0 0 0 1.231-2.538zM4.481 30.348a.99.99 0 0 1-.987-.988v-2.47a.99.99 0 0 1 .988-.987h3.166a21.3 21.3 0 0 0 .006 4.445H4.482zm4.232-16.07a.98.98 0 0 1-.347-.67.98.98 0 0 1 .225-.722l1.587-1.891a.986.986 0 0 1 1.392-.122l2.41 2.023a21.109 21.109 0 0 0-2.856 3.406l-2.411-2.024zm2.857 31.099a.99.99 0 0 1-1.392-.121L8.59 43.364a.98.98 0 0 1-.225-.721.981.981 0 0 1 .347-.671l2.44-2.047a21.23 21.23 0 0 0 2.86 3.402l-2.443 2.05zm41.292-22.296h-3.65a21.017 21.017 0 0 0-1.554-4.302l2.787-2.339a3.815 3.815 0 0 0 .47-5.367L49.328 9.18a3.814 3.814 0 0 0-5.367-.47l-2.787 2.339c-.368-.27-.747-.53-1.135-.777a1.41 1.41 0 1 0-1.52 2.377c5.303 3.388 8.469 9.162 8.469 15.446 0 7.115-4.174 13.643-10.634 16.632a1.41 1.41 0 0 0 1.185 2.56 21.003 21.003 0 0 0 3.596-2.12l2.825 2.37a3.776 3.776 0 0 0 2.781.875 3.783 3.783 0 0 0 2.587-1.344l1.587-1.891a3.814 3.814 0 0 0-.47-5.368l-2.825-2.37a21.192 21.192 0 0 0 1.567-4.27h3.675c2.1 0 3.81-1.71 3.81-3.81v-2.47c0-2.1-1.709-3.809-3.81-3.809zm-4.23 18.89a.99.99 0 0 1 .121 1.393l-1.586 1.891a.98.98 0 0 1-.671.346.98.98 0 0 1-.722-.224l-2.449-2.056a21.303 21.303 0 0 0 2.857-3.405l2.45 2.056zM46.225 16.3a21.065 21.065 0 0 0-2.859-3.405l2.408-2.02a.99.99 0 0 1 1.393.121l1.586 1.891a.99.99 0 0 1-.121 1.393l-2.407 2.02zm7.626 13.06a.99.99 0 0 1-.989.989h-3.174c.08-.743.121-1.495.121-2.252 0-.738-.038-1.47-.112-2.193h3.165a.99.99 0 0 1 .988.988v2.469zM38.17 28.097a9.45 9.45 0 0 0-4.492-8.073 1.41 1.41 0 0 1 1.49-2.396 12.255 12.255 0 0 1 5.823 10.469c0 2.916-1.038 5.744-2.921 7.965a1.408 1.408 0 0 1-1.989.163 1.41 1.41 0 0 1-.163-1.988 9.5 9.5 0 0 0 2.252-6.14zm-16.585 6.322a1.41 1.41 0 1 1-2.105 1.88 12.3 12.3 0 0 1-3.127-8.202c0-4.56 2.502-8.727 6.528-10.875a1.41 1.41 0 0 1 1.328 2.49 9.489 9.489 0 0 0-5.034 8.385 9.48 9.48 0 0 0 2.41 6.322zm8.474-1.778a1.42 1.42 0 0 0 .024-.26V14.908l5.119-2.956a1.41 1.41 0 0 0 .705-1.221V4.005c0-.504-.269-.97-.705-1.221L32.29 1.102a1.41 1.41 0 1 0-1.411 2.444l2.207 1.274v5.096l-4.414 2.548-4.413-2.548V4.82l2.206-1.274a1.41 1.41 0 1 0-1.41-2.444l-2.913 1.682a1.41 1.41 0 0 0-.705 1.221v6.726c0 .504.269.97.705 1.221l5.12 2.956V32.38c0 .089.008.176.023.26a4.694 4.694 0 0 0-3.3 4.477V52.07a3.27 3.27 0 0 0 3.267 3.266h2.84a3.27 3.27 0 0 0 3.266-3.266V37.117a4.694 4.694 0 0 0-3.299-4.477zm.478 19.43a.45.45 0 0 1-.445.446h-2.84a.45.45 0 0 1-.444-.445V37.117c0-1.028.836-1.865 1.864-1.865 1.029 0 1.865.837 1.865 1.865V52.07z"/></symbol><symbol id="icon-basket-2" viewBox="0 0 3.54 4.8"><g data-name="&#x421;&#x43B;&#x43E;&#x439; 2"><path d="M2.95.61h-.51v-.1A.51.51 0 0 0 1.93 0H1.6a.51.51 0 0 0-.5.51v.1H.59a.59.59 0 0 0-.59.6v.15h3.54v-.15a.59.59 0 0 0-.59-.6zM.2 1.64v2.87a.29.29 0 0 0 .29.29H3a.29.29 0 0 0 .29-.29V1.64zm1 2.73H.94v-2.3h.29v2.3zm.69 0h-.26v-2.3h.29v2.3zm.69 0h-.26v-2.3h.28v2.3zM2.16.61h-.78v-.1A.22.22 0 0 1 1.6.29h.33a.22.22 0 0 1 .22.22v.1z" data-name="Layer 1"/></g></symbol><symbol id="icon-basket" viewBox="0 0 512 512"><g data-name="&#x421;&#x43B;&#x43E;&#x439; 2"><g data-name="Layer 1"><path d="M5.28 10.56A5.28 5.28 0 1 0 0 5.28a5.29 5.29 0 0 0 5.28 5.28z"/><path d="M4.23 6.85a.52.52 0 1 0 .52.52.52.52 0 0 0-.52-.52zM2.67 2.67v.52h.52l.94 2-.37.63a.93.93 0 0 0-.05.26.52.52 0 0 0 .52.52h3.14v-.54h-3A.06.06 0 0 1 4.29 6l.23-.44h1.94a.48.48 0 0 0 .44-.26l.94-1.7a.14.14 0 0 0 .05-.13.25.25 0 0 0-.26-.26H3.76l-.23-.52zm4.18 4.18a.52.52 0 1 0 .52.52.52.52 0 0 0-.52-.52z"/></g></g></symbol><symbol id="icon-briefcase" viewBox="0 0 50 50"><path d="M27.59 29.79v-1.12a2.46 2.46 0 0 0-4.93 0v1.12a2.46 2.46 0 0 0 4.93 0z"/><path d="M29.28 31.15a4.35 4.35 0 0 1-4.16 3.1 4.35 4.35 0 0 1-4.15-3.1H4a6.94 6.94 0 0 1-2.99-.68v11.27c0 2.2 1.8 4 4 4h40.23c2.2 0 4-1.8 4-4V30.46c-.91.43-1.92.68-3 .68H29.29zm16.8-20.23h-9.6a7.62 7.62 0 0 0-7.51-6.41h-7.7a7.62 7.62 0 0 0-7.5 6.4h-9.6a4.1 4.1 0 0 0-4.17 4v9.24a4 4 0 0 0 4 4h16.78a4.34 4.34 0 0 1 1.33-2.93l.08-.07c.17-.15.35-.3.55-.43l.22-.13c.16-.09.32-.19.5-.26l.43-.13c.12-.04.24-.09.37-.11a4.33 4.33 0 0 1 1.72 0c.13.02.25.07.38.1.14.05.29.08.43.14l.5.26c.06.05.14.08.22.13.2.12.37.27.54.43l.08.07a4.34 4.34 0 0 1 1.34 2.93h16.78a4 4 0 0 0 4-4v-9.23c0-2.2-1.88-4-4.17-4zm-28.46 0a3.86 3.86 0 0 1 3.66-2.67h7.69c1.7 0 3.15 1.13 3.66 2.67H17.62z"/></symbol><symbol id="icon-cart" viewBox="0 0 4.8 4.33"><g data-name="&#x421;&#x43B;&#x43E;&#x439; 2"><path d="M2.28 3.74a.58.58 0 1 0-.58.58.58.58 0 0 0 .58-.58zM4.76.94a.15.15 0 0 0-.13-.06H1L.87.13A.17.17 0 0 0 .71 0H0v.34h.57l.53 2.41a.16.16 0 0 0 .16.14h3a.17.17 0 0 0 .16-.13l.38-1.68a.16.16 0 0 0 0-.14zm-1.2 2.22a.59.59 0 0 0-.12 1.17h.12a.59.59 0 0 0 0-1.17z" data-name="Layer 1"/></g></symbol><symbol id="icon-checkbox-active" viewBox="0 0 4.8 4.8"><g data-name="&#x421;&#x43B;&#x43E;&#x439; 2"><path d="M4.32 0H.48A.48.48 0 0 0 0 .48v3.84a.48.48 0 0 0 .48.48h3.84a.48.48 0 0 0 .48-.48V.48A.48.48 0 0 0 4.32 0zM1.75 3.78l-1.2-1.2.34-.34.87.87L3.91 1l.33.35z" data-name="Layer 1"/></g></symbol><symbol id="icon-doc-2" viewBox="0 0 3.2 3.84"><g data-name="&#x421;&#x43B;&#x43E;&#x439; 2"><path d="M3 .95L2.25.17A.61.61 0 0 0 1.92 0v1.28h1.27A.61.61 0 0 0 3 .95zm-1.16.65H3.2v2a.24.24 0 0 1-.2.24H.24a.23.23 0 0 1-.17-.07A.23.23 0 0 1 0 3.6V.24A.23.23 0 0 1 .07.07.23.23 0 0 1 .24 0H1.6v1.36a.24.24 0 0 0 .24.24z" data-name="Layer 1"/></g></symbol><symbol id="icon-doc" viewBox="0 0 4.8 5.76"><g data-name="&#x421;&#x43B;&#x43E;&#x439; 2"><path d="M4.54 1.43L3.37.26A.91.91 0 0 0 2.88 0v1.92h1.91a.91.91 0 0 0-.24-.49zM.86 3.28h3.08v.54H.86v-.54zm0 1.06H2.5v.54H.86v-.54zm1.9-1.94h2v3a.36.36 0 0 1-.36.36H.36a.35.35 0 0 1-.26-.1.35.35 0 0 1-.1-.26v-5A.35.35 0 0 1 .1.1.35.35 0 0 1 .36 0h2v2a.36.36 0 0 0 .36.36z" data-name="Layer 1"/></g></symbol><symbol id="icon-edit" viewBox="0 0 3.84 3.82"><g data-name="&#x421;&#x43B;&#x43E;&#x439; 2"><path d="M2.39.64l.78.78-2 2-.76-.8 2-2zM3.76.45L3.41.1a.35.35 0 0 0-.49 0l-.33.33.78.78.39-.38a.27.27 0 0 0 0-.38zM0 3.71a.09.09 0 0 0 .11.11L1 3.61l-.8-.78z" data-name="Layer 1"/></g></symbol><symbol id="icon-email" viewBox="0 0 3.84 3.38"><g data-name="&#x421;&#x43B;&#x43E;&#x439; 2"><path d="M.37.93l.44.31.56.39.09.07.12.08.11.07.12.06h.11L2 1.9l.12-.06.11-.07.12-.08.09-.07 1-.7a1 1 0 0 0 .3-.25.57.57 0 0 0 .1-.32.33.33 0 0 0-.1-.25.33.33 0 0 0-.24-.1H.34a.31.31 0 0 0-.25.11.43.43 0 0 0-.09.28.5.5 0 0 0 .12.29 1.07 1.07 0 0 0 .25.25zm3.26.23A1.18 1.18 0 0 0 3.84 1v2a.34.34 0 0 1-.34.34H.34a.33.33 0 0 1-.24-.1A.33.33 0 0 1 0 3V1a1.15 1.15 0 0 0 .22.19l1.06.74.2.14.2.1a.62.62 0 0 0 .24.05.62.62 0 0 0 .24-.05l.2-.1.2-.14z" data-name="Layer 1"/></g></symbol><symbol id="icon-fb" viewBox="0 0 4.8 4.8"><g data-name="&#x421;&#x43B;&#x43E;&#x439; 2"><g data-name="Layer 1"><circle cx="2.4" cy="2.4" r="2.4"/><path d="M3 2.49h-.43v1.57h-.64V2.49h-.31v-.55h.31v-.35a.61.61 0 0 1 .65-.66h.48v.54h-.35a.13.13 0 0 0-.14.15v.32h.48z"/></g></g></symbol><symbol id="icon-guarantee-2" viewBox="0 0 36 36"><g data-name="&#x421;&#x43B;&#x43E;&#x439; 2"><g data-name="Layer 1"><path d="M18 36A18 18 0 1 0 0 18a18 18 0 0 0 18 18z"/><path d="M26.18 11.17A11 11 0 0 1 18 8.07a11 11 0 0 1-8.18 3.1c0 5.56-1.15 13.53 8.18 16.76 9.33-3.24 8.18-11.2 8.18-16.76zm-4.44 3.4a.31.31 0 0 1 .09.23V17a.32.32 0 0 1-.32.32h-2.23a.32.32 0 0 1-.23-.55l.69-.69a2.49 2.49 0 0 0-1.74-.64 2.55 2.55 0 0 0-2.18 1.22 5.92 5.92 0 0 0-.27.59.15.15 0 0 1-.15.11h-1a.16.16 0 0 1-.16-.16A3.9 3.9 0 0 1 15.6 15a3.69 3.69 0 0 1 2.4-.83 3.78 3.78 0 0 1 1.42.28 3.89 3.89 0 0 1 1.23.78l.65-.65a.31.31 0 0 1 .45 0zm-.19 4.07a.16.16 0 0 1 .16.16 3.89 3.89 0 0 1-1.34 2.2 3.67 3.67 0 0 1-2.39.83 3.75 3.75 0 0 1-1.41-.27 3.82 3.82 0 0 1-1.22-.79l-.65.65a.32.32 0 0 1-.55-.22V19a.32.32 0 0 1 .32-.32h2.24a.32.32 0 0 1 .23.55l-.69.69a2.59 2.59 0 0 0 .81.51 2.55 2.55 0 0 0 3.12-1 6 6 0 0 0 .27-.59.15.15 0 0 1 .15-.11z"/></g></g></symbol><symbol id="icon-guarantee-3" viewBox="0 0 10.56 10.56"><g data-name="&#x421;&#x43B;&#x43E;&#x439; 2"><g data-name="Layer 1"><path d="M5.28 10.56A5.28 5.28 0 1 0 0 5.28a5.29 5.29 0 0 0 5.28 5.28z"/><path d="M7.86 3.13a3.47 3.47 0 0 1-2.58-1 3.47 3.47 0 0 1-2.58 1c0 1.75-.36 4.26 2.58 5.28 2.94-1 2.58-3.53 2.58-5.28zM5.07 6.21l-.86-.86.38-.35.47.47.9-.9.38.38z"/></g></g></symbol><symbol id="icon-guarantee" viewBox="0 0 36 36"><g data-name="&#x421;&#x43B;&#x43E;&#x439; 2"><g data-name="Layer 1"><path d="M18 36A18 18 0 1 0 0 18a18 18 0 0 0 18 18z"/><path d="M26.18 11.17A11 11 0 0 1 18 8.07a11 11 0 0 1-8.18 3.1c0 5.56-1.15 13.53 8.18 16.76 9.33-3.24 8.18-11.2 8.18-16.76zM17.32 21l-2.72-2.77L15.82 17l1.51 1.51 2.86-2.86 1.22 1.22z"/></g></g></symbol><symbol id="icon-home" viewBox="0 0 495 495"><path d="M487.08 225.51L412 150.43V63.7a28.4 28.4 0 0 0-56.79 0v29.95l-55.9-55.91c-27.64-27.62-75.7-27.57-103.27.05L8.31 225.51a28.4 28.4 0 0 0 40.17 40.16L236.2 77.94c6.12-6.08 16.9-6.08 22.98-.01l187.74 187.74a28.34 28.34 0 0 0 20.08 8.31 28.4 28.4 0 0 0 20.09-48.47z"/><path d="M257.56 131.84a13.94 13.94 0 0 0-19.72 0L72.7 296.9a13.98 13.98 0 0 0-4.08 9.88v120.4a51.16 51.16 0 0 0 51.16 51.16h81.75v-126.6h92.3v126.6h81.76a51.16 51.16 0 0 0 51.15-51.16V306.8c0-3.71-1.46-7.27-4.08-9.88l-165.1-165.07z"/></symbol><symbol id="icon-inst" viewBox="0 0 4.8 4.8"><g data-name="&#x421;&#x43B;&#x43E;&#x439; 2"><g data-name="Layer 1"><circle cx="2.4" cy="2.4" r="2.4"/><path d="M3.23 1H1.57a.52.52 0 0 0-.57.57v1.66a.52.52 0 0 0 .52.52h1.71a.52.52 0 0 0 .52-.52V1.57A.52.52 0 0 0 3.23 1zm.16.3h.06v.5H3v-.45zm-1 .6a.45.45 0 1 1-.45.45.45.45 0 0 1 .45-.45zm1.06 1.3a.26.26 0 0 1-.26.26H1.6a.26.26 0 0 1-.26-.26V2.1h.37a.86.86 0 0 0-.05.3.74.74 0 0 0 1.48 0 .86.86 0 0 0-.05-.3h.37v1.1z"/></g></g></symbol><symbol id="icon-layer" viewBox="-21 -21 682.667 682"><path d="M629.61 303.508l-81.989-40.82L367.36 352.44c-14.582 7.262-30.957 11.102-47.359 11.102s-32.777-3.84-47.36-11.102L92.38 262.688l-81.988 40.82a18.751 18.751 0 0 0 0 33.57l278.964 138.899c9.594 4.78 20.118 7.168 30.645 7.168 10.523 0 21.05-2.387 30.645-7.16l278.964-138.907a18.751 18.751 0 1 0 0-33.57zm0 0"/><path d="M629.61 460.656l-81.989-40.824L367.36 509.59c-14.582 7.262-30.957 11.094-47.359 11.094s-32.777-3.832-47.36-11.094L92.38 419.832 10.39 460.656A18.745 18.745 0 0 0 0 477.438a18.761 18.761 0 0 0 10.39 16.789l278.965 138.898c9.594 4.777 20.118 7.168 30.645 7.168 10.523-.004 21.05-2.39 30.645-7.168l278.964-138.898c6.368-3.176 10.391-9.676 10.391-16.79s-4.023-13.613-10.39-16.78zm0 0M10.39 179.973l278.965 138.902c9.594 4.773 20.118 7.168 30.645 7.168s21.05-2.395 30.645-7.168l278.964-138.902A18.745 18.745 0 0 0 640 163.19a18.748 18.748 0 0 0-10.39-16.789L350.644 7.496c-19.192-9.55-42.098-9.55-61.29 0L10.391 146.402A18.748 18.748 0 0 0 0 163.192c0 7.109 4.023 13.613 10.39 16.78zm0 0"/></symbol><symbol id="icon-menu-1" viewBox="0 0 4.8 4.8"><g data-name="&#x421;&#x43B;&#x43E;&#x439; 2"><path d="M4.75 1.87a.16.16 0 0 0 0-.23l-.24-.24a.16.16 0 0 0-.21 0l-.51.35.34-.51a.16.16 0 0 0 0-.2L3.59.48a.16.16 0 0 0-.18 0h-.09v-.1a.16.16 0 0 0 0-.18L3.16 0a.16.16 0 0 0-.23 0L1.65 1.33l1.82 1.82 1.28-1.28zm-3.34-.3l1.82 1.82-.37.37a.16.16 0 0 1-.23 0l-.35-.35a.32.32 0 0 0-.49.05A9.28 9.28 0 0 1 1 4.63a.58.58 0 1 1-.83-.83A9.3 9.3 0 0 1 1.34 3a.32.32 0 0 0 .05-.49L1 2.17a.16.16 0 0 1 0-.23l.37-.37zm-.65 2.8a.23.23 0 1 0-.32 0 .23.23 0 0 0 .32 0z" data-name="Layer 1"/></g></symbol><symbol id="icon-menu-2" viewBox="0 0 3.84 3.84"><g data-name="&#x421;&#x43B;&#x43E;&#x439; 2"><path d="M3.36 0H.48A.48.48 0 0 0 0 .48v2.88a.48.48 0 0 0 .48.48h2.88a.48.48 0 0 0 .48-.48V.48A.48.48 0 0 0 3.36 0zM1.68 2.88a.24.24 0 0 1-.24.24H.72a.24.24 0 0 1-.24-.24V.72A.24.24 0 0 1 .72.48h.72a.24.24 0 0 1 .24.24v2.16zm1.68-1a.24.24 0 0 1-.24.24H2.4a.24.24 0 0 1-.24-.24V.72A.24.24 0 0 1 2.4.48h.72a.24.24 0 0 1 .24.24z" data-name="Layer 1"/></g></symbol><symbol id="icon-menu-3" viewBox="0 0 3.84 3.55"><g data-name="&#x421;&#x43B;&#x43E;&#x439; 2"><path d="M3.25 0v.59h.59V.15A.15.15 0 0 0 3.69 0zm.59 3.55V.88H0v2.67h3.84zm-2.42-1a.15.15 0 1 1-.18.24l-.58-.45a.15.15 0 0 1 0-.24l.59-.44a.15.15 0 0 1 .18.24L1 2.22l.43.32zm.79-.72l-.29.88a.15.15 0 0 1-.28-.09l.29-.88a.15.15 0 0 1 .28.09zm.18.93a.15.15 0 0 1 0-.21l.43-.32-.39-.33a.15.15 0 0 1 .18-.24l.59.44a.15.15 0 0 1 0 .24l-.59.44a.15.15 0 0 1-.21 0zM0 .59h3V0H.15A.15.15 0 0 0 0 .15z" data-name="Layer 1"/></g></symbol><symbol id="icon-menu-4" viewBox="0 0 3.84 3.84"><g data-name="&#x421;&#x43B;&#x43E;&#x439; 2"><path d="M1.92 2.41V.95H.6a.12.12 0 0 0-.12.12v.13H.12a.12.12 0 0 0-.12.12V2a.12.12 0 0 0 .12.12h.36v.12a.12.12 0 0 0 .12.16h.07l.48 1.29a.24.24 0 0 0 .18.15.23.23 0 0 0 .17-.07l.29-.29a.24.24 0 0 0 0-.28l-.4-.81h.44zM3.82.06L3.76 0h-.13a2.52 2.52 0 0 1-1.47.91v1.54a2.53 2.53 0 0 1 1.47.87h.15a.12.12 0 0 0 0-.06V.12a.12.12 0 0 0 .04-.06z" data-name="Layer 1"/></g></symbol><symbol id="icon-menu-5" viewBox="0 0 3.84 3.84"><g data-name="&#x421;&#x43B;&#x43E;&#x439; 2"><path d="M3.47 0H.37A.37.37 0 0 0 0 .37v3.1a.37.37 0 0 0 .37.37h3.1a.37.37 0 0 0 .37-.37V.37A.37.37 0 0 0 3.47 0zM3 1a.28.28 0 1 1-.24-.31A.28.28 0 0 1 3 1zm.39 1.38s-.52-.7-.75-.7-.48.32-.48.32l-.27-.38c-.35-.46-.49-.52-.59-.51s-.23.11-.67.89l-.22.38V.42h3z" data-name="Layer 1"/></g></symbol><symbol id="icon-menu-6" viewBox="0 0 2.88 4.8"><g data-name="&#x421;&#x43B;&#x43E;&#x439; 2"><path d="M2.74.14A.46.46 0 0 0 2.4 0H.48a.46.46 0 0 0-.34.14.46.46 0 0 0-.14.34v3.84a.46.46 0 0 0 .14.34.46.46 0 0 0 .34.14H2.4a.49.49 0 0 0 .48-.48V.48a.46.46 0 0 0-.14-.34zm-1.6.34h.6a.05.05 0 0 1 .06.06.05.05 0 0 1-.06.06h-.6a.05.05 0 0 1-.06-.06.05.05 0 0 1 .06-.06zm.51 4.05a.3.3 0 0 1-.42 0A.3.3 0 0 1 1.44 4a.3.3 0 0 1 .21.51zm.87-.81a.12.12 0 0 1-.12.12H.48a.12.12 0 0 1-.12-.12V1.08A.11.11 0 0 1 .4 1a.12.12 0 0 1 .08 0H2.4a.12.12 0 0 1 .12.12v2.6z" data-name="Layer 1"/></g></symbol><symbol id="icon-menu-7" viewBox="0 0 3.84 3.76"><g data-name="&#x421;&#x43B;&#x43E;&#x439; 2"><path d="M3.2 2.07v.26a.22.22 0 0 1-.2.22h-.36a.22.22 0 0 1-.22-.22v-.26h-1v.26a.22.22 0 0 1-.22.22H.84a.22.22 0 0 1-.22-.22v-.26H0V3.5a.27.27 0 0 0 .27.27h3.3a.27.27 0 0 0 .27-.27V2.07zM1.19.94V.29a.06.06 0 0 1 .06-.06h1.32a.06.06 0 0 1 .06.06v.65h.23V.29A.29.29 0 0 0 2.57 0H1.25A.29.29 0 0 0 1 .29v.65zm1.81.8v.58h-.35v-.58zM3.57.8a.27.27 0 0 1 .27.27v.77H3.2v-.11a.22.22 0 0 0-.2-.22h-.36a.22.22 0 0 0-.22.22v.11h-1v-.11a.22.22 0 0 0-.22-.22H.84a.22.22 0 0 0-.22.22v.11H0v-.77A.27.27 0 0 1 .27.8zm-2.72.94h.32v.58H.85z" data-name="Layer 1"/></g></symbol><symbol id="icon-menu-8" viewBox="0 0 3.84 3.84"><g data-name="&#x421;&#x43B;&#x43E;&#x439; 2"><path d="M1.92 0a1.92 1.92 0 1 0 1.92 1.92A1.92 1.92 0 0 0 1.92 0zm.66 2l-1 .6H1.5a.12.12 0 0 1-.06-.1V1.32a.12.12 0 0 1 .18-.1l1 .6a.12.12 0 0 1 0 .2z" data-name="Layer 1"/></g></symbol><symbol id="icon-menu-close-white"><path d="M20.513 1.414L19.099 0l-8.843 8.842L1.414 0 0 1.414l8.842 8.842L0 19.098l1.414 1.414 8.842-8.842 8.843 8.842 1.414-1.414-8.842-8.842z"/></symbol><symbol id="icon-menu-close"><path clip-rule="evenodd" d="M14.142 16.97L.707 30.407l2.829 2.828L16.97 19.799l13.435 13.435 2.828-2.828L19.8 16.97 33.94 2.828 31.113 0 16.97 14.142 2.829 0 0 2.828l14.142 14.143z"/></symbol><symbol id="icon-menu-open-2"><path fill-opacity=".8" d="M0 0h43v4H0zM0 15h43v4H0zM0 31h43v4H0z"/></symbol><symbol id="icon-menu-open"><path d="M0 0h19.958v2H0zm0 6h19.958v2H0zm0 6h19.958v2H0z"/></symbol><symbol id="icon-menu"><use xlink:href="#a" transform="translate(-278 -101)"/><use xlink:href="#b" transform="translate(-278 -101)"/><use xlink:href="#c" transform="translate(-278 -101)"/></symbol><symbol id="icon-order-1" viewBox="0 0 39.92 30.51"><g id="&#x421;&#x43B;&#x43E;&#x439;_2" data-name="&#x421;&#x43B;&#x43E;&#x439; 2"><g id="Layer_1" data-name="Layer 1"><path class="cls-1" d="M36.74 25.28c.08.73 0 1.22 0 1.91a14 14 0 0 1-1.72-.94 9.67 9.67 0 0 0-1.91-.82c-1.65-.49-2.91-.2-4.46-.21l.23-.14.22-.1 1.38-.57a14.45 14.45 0 0 1 6.39-.94 2.72 2.72 0 0 0-.17 1.8zm-11.5.28l-.13.05.58.35a9.68 9.68 0 0 1 1.22-1.1 12.67 12.67 0 0 1 1.5-.81 19 19 0 0 1 3.3-1.24 17.17 17.17 0 0 1 3.8-.57 13.38 13.38 0 0 1 4.23.77c.24-1.08 0-15.23.17-16.05a7.82 7.82 0 0 0-4.2-.96c-2.1 0-7.91.7-9.31 2.2-.44.47 0 1.56-1.08 1.09a15.83 15.83 0 0 0 0 2l.33 12.55c0 .28.08.81.06 1a.78.78 0 0 1-.17.45l-.26.16h-.06zM14 30.94a3.29 3.29 0 0 1-.6-1.52c-.27-1.26.06-.75-.58-1.33 1.54-.73 5.16-2.4 6.67-2.39-.56.33-1.22.51-1.75.88A10.45 10.45 0 0 0 14 30.94zM9.65 19.43c.85.56.11.83.09 1.28l.17 2.91c0 .87.11 4 .43 4.58l2.45-1.38C15.58 25.41 19 24 22.36 24.5a20.71 20.71 0 0 1 2.41.94c-.38-.3-.43-4.55-.46-5.26-.07-1.84 0-3.75-.07-5.62s-.1-3.75-.08-5.61c0-.76.13-.75-.42-1.13-2.83-2-6.52-2-9.87-1.52a14.44 14.44 0 0 0-3.24.81c-.42.15-.67.3-1 .41a1.76 1.76 0 0 1 .28.53c.24.9-.08.78-.08 1.43 0 3.11-.18 7-.13 9.95zM41 22.69v-7.93c0-2 .08-4.81-.07-6.77-.07-.91.65-1.09-.12-1.79-2.92-2.7-14.05-.82-15.35 1.5-.32-.17-.28-.22-.53-.42C22 4.87 18.77 4.71 15.06 5a17.59 17.59 0 0 0-4.93 1.08c-.64.24-2.95 1.19-2.6 2.11.18.47.73.2 1.14.27 0 2.83-.35 8.42-.2 10.76 0 .77.18 1.71.2 2.5s.06 1.71.11 2.56a25.86 25.86 0 0 0 .53 4.88c-.78 1 .1 1.31.53 1a8 8 0 0 1 2.42-1.66c0 .5-.19.89 0 1.27.49.95.38 2.64 1.64 2.45.67-.1.82.07 1.54-1.38a9.85 9.85 0 0 1 2.4-2.84c4.12-2.69 4.83-1.11 6.94-.65.08.28.24.57.61.52s.27-.3.6-.51a9.42 9.42 0 0 1 5.35-1c1.88.08 3.62 1.15 5.21 2.12.15.09.62 1.25 1.23.63a10.83 10.83 0 0 0 .17-2.83 17.17 17.17 0 0 0-.34-2.64l2.18.61c-.12 1.14.3 2 1 1.51.29-.2.21-.62.19-1 0-.83.25-.45.28-1.16-.32-.49-.32-.23-.26-.91z" transform="translate(-1.31 -1.67)"/><path class="cls-2" d="M9.65 19.48c.85.56.11.83.09 1.28l.17 2.91c0 .87.11 4 .43 4.58l2.45-1.38c2.79-1.41 6.23-2.78 9.57-2.33a20.75 20.75 0 0 1 2.41.94c-.38-.3-.43-4.55-.46-5.26-.07-1.84 0-3.75-.07-5.62s-.1-3.75-.08-5.61c0-.76.13-.75-.42-1.13-2.83-2-6.52-2-9.87-1.52a14.42 14.42 0 0 0-3.24.81c-.42.15-.67.3-1 .41a1.76 1.76 0 0 1 .28.53c.24.9-.08.78-.08 1.43-.1 3.12-.24 7.03-.18 9.96z" transform="translate(-1.31 -1.67)"/><path class="cls-2" d="M13.42 15a26.66 26.66 0 0 0 4.44-.81 22.54 22.54 0 0 1-.53-3.12c0-.67 0-.77-.66-.87s-3.29.2-3.55.53c-.39 1 1 2.87-.77 2.53a6.17 6.17 0 0 1-.39-2c-.09-.95 0-1.21.75-1.59a9.27 9.27 0 0 1 4.45-.61c1.8.25 1 2.19 1.68 4.17.19.56.42 1 0 1.58-.83 1-6.08 1.49-6.33 1.33a1.72 1.72 0 0 1-.19-1.51c-.71-.31-.57-1.23-.2-1.35h.54c.6 1.25.11.81.54 1.29a1.84 1.84 0 0 1 .22.43zm-1.03 5a.62.62 0 0 1-.53-.85c.14-.35.59-.44 1-.55 1.11-.29 9.35-1.72 8.28.42-.29.58-.72.17-1.07.09a29.61 29.61 0 0 0-7.16.64c-.13.09-.22.25-.52.25zm.52 2.36c.12-.75.53-.51 2-.84s3.19-.57 4.57-.76c.55-.08 2.08-.51 2.07.3s-1.24.77-1.88.85c-.81.11-1.52.22-2.31.35l-3.46.54c-.62.07-.82.08-.99-.44z" transform="translate(-1.31 -1.67)"/><path class="cls-2" d="M15.1 12.95c-1 0-1.15-.72-.46-1.23l.55.09c.27.51.29.7-.09 1.14zm14.45 8.25a8.41 8.41 0 0 1-.9.32c-.52.05-2.29-1.25 4.94-2.48.6-.1 1.69-.36 1.57.49-.08.56-1.18.64-1.78.73l-3.83.94zm2.15-5.34c.64-.13 4.35-.81 4.68-.33.6.86-1 1-1.55 1.06l-4.62.7c-1.7.3-1.46.59-2.13.29-.55-1.23 2.36-1.48 3.61-1.72zm-3.26-2.59a5.46 5.46 0 0 1 1-.3 28.15 28.15 0 0 1 6.67-.8.69.69 0 0 1 .69.5c-.12.51-.29.61-.82.64-1.44.11-1.67 0-3.43.27l-3.24.51c-.36.09-.68.41-1 .16s-.14-.84.16-1zM31 9.79c-.81.21-1.6.43-2.35.7-.38.14-.73.32-1.07.48-.51.25-.6.48-.32 1 .76.21.81 0 1.27-.27a35.1 35.1 0 0 1 3.56-1 17.37 17.37 0 0 1 3.19-.46c.28 0 .37.18.69.09.55-.16 1.74-2.33-5-.56zm-5.9 15.87l.58.35a9.68 9.68 0 0 1 1.22-1.1 12.59 12.59 0 0 1 1.5-.81 18.93 18.93 0 0 1 3.3-1.24 17.14 17.14 0 0 1 3.8-.57 13.38 13.38 0 0 1 4.23.77C40 22 39.71 7.83 39.91 7a7.82 7.82 0 0 0-4.21-.93c-2.1 0-7.91.7-9.31 2.2-.44.47 0 1.56-1.08 1.09a15.83 15.83 0 0 0 0 2L25.67 24c0 .28.08.81.06 1a.79.79 0 0 1-.17.45l-.26.16h-.06z" transform="translate(-1.31 -1.67)"/><path class="cls-3" d="M36.77 27.24v-1.91a2.72 2.72 0 0 1 .17-1.8 14.45 14.45 0 0 0-6.39.94l-1.42.53-.22.1-.23.14c1.56 0 2.81-.29 4.46.21a9.68 9.68 0 0 1 1.91.82 14 14 0 0 0 1.72.97z" transform="translate(-1.31 -1.67)"/><path class="cls-1" d="M20.08 19.11c.35.08.78.49 1.07-.09 1.07-2.14-7.16-.71-8.28-.42-.43.11-.88.2-1 .55a.62.62 0 0 0 .53.85c.3 0 .4-.17.54-.25a29.61 29.61 0 0 1 7.14-.64zM27.22 12c.76.21.81 0 1.27-.27a35.1 35.1 0 0 1 3.56-1 17.37 17.37 0 0 1 3.19-.46c.28 0 .37.18.69.09.55-.16 1.74-2.33-5-.56-.81.21-1.6.43-2.35.7-.38.14-.73.32-1.07.48-.51.25-.57.48-.29 1.02zm9.58.67a.69.69 0 0 0-.69-.5 28.15 28.15 0 0 0-6.67.8 5.46 5.46 0 0 0-1 .3c-.3.15-.52.74-.16 1s.67-.07 1-.16l3.24-.51c1.76-.23 2-.17 3.43-.27.55-.05.73-.15.85-.66zm-8.71 4.91c.67.3.43 0 2.13-.29l4.62-.7c.56-.05 2.15-.21 1.55-1.06-.33-.48-4 .21-4.68.33-1.26.24-4.17.49-3.62 1.72zm-8.46 4.33c.64-.09 1.87-.1 1.88-.85s-1.53-.38-2.07-.3c-1.38.2-3.25.46-4.57.76s-1.83.09-2 .84c.17.52.37.52.95.44l3.46-.54c.83-.13 1.54-.26 2.35-.35z" transform="translate(-1.31 -1.67)"/><path class="cls-3" d="M14 31a10.45 10.45 0 0 1 3.74-4.36c.53-.36 1.19-.55 1.75-.88-1.51 0-5.13 1.65-6.67 2.39.65.57.32.07.58 1.33A3.29 3.29 0 0 0 14 31z" transform="translate(-1.31 -1.67)"/><path class="cls-1" d="M35.17 19.54c.12-.85-1-.6-1.57-.49-7.23 1.23-5.46 2.53-4.94 2.48a8.41 8.41 0 0 0 .9-.32l3.83-.94c.61-.09 1.7-.17 1.78-.73z" transform="translate(-1.31 -1.67)"/><path d="M4.47 10.3H3.42V3.58a5.45 5.45 0 0 1-1 .73 7.08 7.08 0 0 1-1.11.54v-1a6.37 6.37 0 0 0 1.55-1A4 4 0 0 0 3.8 1.7h.68z" transform="translate(-1.31 -1.67)"/><path transform="rotate(-6.82 .585 22.687)" d="M12.49 10.05h5.58v5h-5.58z"/><path class="cls-1" d="M13.42 15a1.84 1.84 0 0 0-.25-.39c-.43-.48.06 0-.54-1.29h-.54c-.37.12-.51 1 .2 1.35a1.72 1.72 0 0 0 .19 1.51c.24.16 5.5-.32 6.33-1.33.45-.54.21-1 0-1.58-.66-2 .12-3.93-1.68-4.17a9.27 9.27 0 0 0-4.45.61c-.77.38-.84.65-.75 1.59a6.17 6.17 0 0 0 .39 2c1.76.34.38-1.48.77-2.53.26-.33 3-.6 3.55-.53s.62.19.66.87a22.54 22.54 0 0 0 .53 3.12 26.66 26.66 0 0 1-4.41.77z" transform="translate(-1.31 -1.67)"/><path class="cls-1" d="M15.1 12.95c.38-.43.36-.62.08-1.14l-.55-.09c-.68.51-.51 1.28.47 1.23z" transform="translate(-1.31 -1.67)"/></g></g></symbol><symbol id="icon-order-2" viewBox="0 0 44.32 29.1"><g id="&#x421;&#x43B;&#x43E;&#x439;_2" data-name="&#x421;&#x43B;&#x43E;&#x439; 2"><g id="Layer_1" data-name="Layer 1"><path class="cls-1" d="M12 22.88c-.09-1.32 0-2.65-.12-4s-.22-2.49-.32-3.71l-.36-5.7a1.6 1.6 0 0 1 0-.87c.28-.48 0-.42.19-.73a30.23 30.23 0 0 1 3.37-.32 40.16 40.16 0 0 1 6.73.13 78.53 78.53 0 0 0 7.91.6l5.32-.51c.43-.18.55-1-.34-1.1-1.41-.09-4.62.59-6.27.43l-6.8-.63a38.43 38.43 0 0 0-7.87 0c-.82.09-1.64.19-2.45.32-.51.08-.68.15-.76.67s-.19.75-.22 1.18a91.27 91.27 0 0 0 .59 9.17c.09 1 .14 6.58.38 7 .41.65 1.21.18 1.14-.86a35.57 35.57 0 0 1 5.57.13 111.48 111.48 0 0 0 13.77-.26c.42 0 .86-.05 1-.39.58-1.24-2.08-.69-2.73-.64A132.05 132.05 0 0 1 14 22.71v-.54a51 51 0 0 0 .12-7.09 47.18 47.18 0 0 0-.44-4.89c1.6 0 4 0 5.55.2 2.23.23 4.48.33 6.72.48s4.22-.58 6.54-.49c0 4.14-.17 6.78.09 11a12.83 12.83 0 0 0 .19 1.68c.11.58.18 1.06 1 1 .62-.38.24-.81.13-1.53s-.12-1.31-.16-1.95l-.1-10.18c0-.37.27-.46.09-.8-.45-.82-4.21-.17-4.78-.07a18.67 18.67 0 0 1-4.95.05c.14-.72-.25-1-1-.88-.31.19-.33.28-.33.79l-3.61-.29c-1.11-.08-5.94-.3-6.45 0s-.05 1.4 0 1.9a71.58 71.58 0 0 1 .29 11.41c-.01.38-.62.33-.9.37z" transform="translate(-.36 -1.67)"/><path class="cls-1" d="M21.68 26.73c-.44 0-.7-.09-.81-.46l6.31-.06a7.44 7.44 0 0 1-2.76.23c-.92 0-2 .33-2.75.29zM7.82 29.59a74.67 74.67 0 0 1 8.18-.88c3-.09 6 .1 9-.05s5.73-.16 8.58-.46c1.33-.14 2.75-.31 4-.52a39.86 39.86 0 0 1 4-.62l-.12-1.51-4.46.18c-.41 1-1.06.6-1.19.08l-7.07.37c0 .77.5.76-1.51 1.28a13.26 13.26 0 0 1-2.91.15c-1.17 0-4.23 1.12-4.5-1.33a21 21 0 0 0-3-.08h-3c-2.09.06-3.91.13-6.07.06-.42.66-.51.28-.77.42s0 .79.08 1a6.41 6.41 0 0 0 .81 1.9zm-1.61.56a.51.51 0 0 0 .19.49c.49.38 3.24-.15 3.86-.23a58.24 58.24 0 0 1 11-.5c1.9 0 3.73-.1 5.57-.15a82.73 82.73 0 0 0 10.63-.87l5-.8c.71-.12 2.07-.08 2.24-.77.28-1.09-1.34-.5-1.92-.49a2.1 2.1 0 0 1-.17-1.31c.48 0 .46.34 1 .16.37-.12.44-.41.43-.88-.39-1-5-.19-7.07-.25.13-3.15-.27-6.18-.34-9.28 0-1.52-.1-3.08-.17-4.56 0-.82 0-1.56-.08-2.36 0-.55.18-1.85-.71-1.7-.61.1-.44 1.29-.43 2l.23 6.88c0 1.4.58 8.28.26 9.13-4.9.23-9.73.54-14.76.43-2.56-.06-5.1-.09-7.64 0-1.24 0-2.42.11-3.65.12-1.46 0-2.71-.28-3 .89h-.55c-.81.36.15 3 .4 3.59-.18.18-.29.22-.33.46z" transform="translate(-.36 -1.67)"/><path class="cls-2" d="M7.82 29.59a74.67 74.67 0 0 1 8.18-.88c3-.09 6 .1 9-.05s5.73-.16 8.58-.46c1.33-.14 2.75-.31 4-.52a39.86 39.86 0 0 1 4-.62l-.12-1.51-4.46.18c-.41 1-1.06.6-1.19.08l-7.07.37c0 .77.5.76-1.51 1.28a13.26 13.26 0 0 1-2.91.15c-1.17 0-4.23 1.12-4.5-1.33a21 21 0 0 0-3-.08h-3c-2.09.06-3.91.13-6.07.06-.42.66-.51.28-.77.42s0 .79.08 1a6.41 6.41 0 0 0 .76 1.91z" transform="translate(-.36 -1.67)"/><path class="cls-1" d="M25.09 15c.3-1.37-.78-1.2-1.8-1.08s-.63.06-1.33-.22c-1.08-.42-.78 1.57-.77 2.21 0 .47-.21 1.12 0 1.48a.56.56 0 0 0 1 .06c.12-.2.11-.32.25-.54a1.2 1.2 0 0 1 .19-.24c.19-.18 0-.05.22-.14A12.29 12.29 0 0 0 24 17.91c1.19 1.29.68.32 1 1.58a.8.8 0 0 0 .77.1c1.26-.63-.74-2.33-1.22-2.76a4.11 4.11 0 0 1-.86-1.07c.33-.13.37-.24.7-.4a1.81 1.81 0 0 0 .7-.36zm-16.7 2.4c.33-.79-.14-.89-.77-1.24s-4.45-2-5-1.6a.57.57 0 0 0 0 .88c.21.19 3.59 1.25 4.22 1.52s.88.62 1.55.44zm30.85-1.28c.23-.21.35-.36.54-.54a5.9 5.9 0 0 1 .58-.44l2.41-1.73c.41-.3.86-.7.35-1.19-.67-.23-1.65.63-2.27 1.11A15.22 15.22 0 0 0 39 14.86c-.48.45-.82 1.22.24 1.26zm.3 1.17c.47.29.71.15 1.17-.11 1.05-.6 2.89-1.16 2.41-2-.35-.6-1.51.22-2.12.58-1.11.63-1.59.77-1.46 1.53zM7.22 18.81c.26-1-.8-1-1.63-1-.64-.07-1.9-.46-2.17 0-.51.87 1 1 1.51 1.06s.92.06 1.37.12.58.11.92-.18z" transform="translate(-.36 -1.67)"/><path class="cls-2" d="M21.68 26.73c.73 0 1.83-.29 2.75-.29a7.44 7.44 0 0 0 2.76-.23l-6.31.06c.12.37.37.43.8.46z" transform="translate(-.36 -1.67)"/><path d="M6 9.28v1H.36a1.87 1.87 0 0 1 .12-.73 3.87 3.87 0 0 1 .69-1.14 10.88 10.88 0 0 1 1.38-1.3 11.7 11.7 0 0 0 1.9-1.81 2.18 2.18 0 0 0 .5-1.3 1.41 1.41 0 0 0-.45-1 1.62 1.62 0 0 0-1.17-.43A1.65 1.65 0 0 0 2.11 3a1.73 1.73 0 0 0-.46 1.27L.56 4.16a2.67 2.67 0 0 1 .84-1.85 2.86 2.86 0 0 1 2-.64 2.72 2.72 0 0 1 2 .69 2.25 2.25 0 0 1 .6 1.7 2.58 2.58 0 0 1-.21 1 3.93 3.93 0 0 1-.7 1 17.06 17.06 0 0 1-1.6 1.57q-.95.8-1.22 1.08a3.47 3.47 0 0 0-.45.57z" transform="translate(-.36 -1.67)"/></g></g></symbol><symbol id="icon-order-3" viewBox="0 0 35.98 32.19"><g id="&#x421;&#x43B;&#x43E;&#x439;_2" data-name="&#x421;&#x43B;&#x43E;&#x439; 2"><g id="Layer_1" data-name="Layer 1"><path class="cls-1" d="M31 20.76c.14-.21.28-.41.45-.64.3-.39.16-.24.65-.34l.46-.88a4.53 4.53 0 0 1 2.77 1.1l-1.4 1.89L31 20.76zm-2.66 8.64c.26-.57 3-4 3.64-4.84a16.27 16.27 0 0 0 1.2-1.64 16.85 16.85 0 0 0-2.74-1.2 33.27 33.27 0 0 0-2.92 4.72 1.52 1.52 0 0 0-.29.87 1.38 1.38 0 0 1-.44.84c.49.31 1.12 1.07 1.55 1.25zm-3.24 2.69a26.63 26.63 0 0 1 0-2.79c.16-.27 0-.05.26-.25a2.77 2.77 0 0 0 .25-.28 3.59 3.59 0 0 1 1.06.8 4 4 0 0 1 .82.87c-.69.9-.82.8-2 1.47l-.39.18zm-10.87.21a5.4 5.4 0 0 1-.29-1.84c1.37.12 2.67.16 4.07.31 1.15.12 2.94.19 4 .43-2 .49-4 .46-5.86.8a18.76 18.76 0 0 1-1.95.31zm-1.83-8.62a19.8 19.8 0 0 0-.2-2.26c-.1-.79-.1-1.57-.13-2.36-.12-3.51-.16-5.94-.49-9.46 0-.28-.25-2.18-.21-2.23a10.24 10.24 0 0 1 2.22-.25c-.22 2.53-.62 14.51-1.2 16.57zm2.73-20.07c-.16-.45-.52-.58-.89-.16s-.62.13-.71.93c.14.22.28.33.38.49L13.73 6c-1.27.13-3.42-.05-3.63.6 0 .51.07.33.15.67 0 .13 0 .47.05.63l.31 4c.11 1.81.2 3.53.24 5.36a74.8 74.8 0 0 0 .76 9.24c.13.72.09.52.58.9a6.4 6.4 0 0 0 .09 1.79c-.53-.08-1.41-.11-1.11.63.19.46 1.07.41 1.61.54 0 .56.16 1.29.24 1.84s-.3 1.11.44 1.47c.42.21.57-.06.76-.19a16.09 16.09 0 0 1 2.61-.42c1.22-.18 2.48-.23 3.68-.4s2.3-.47 3.44-.66c-.15 1.1-.08 2.47 1.17 1.55a9.69 9.69 0 0 1 2.14-1.25 12.76 12.76 0 0 0 4.83.25.56.56 0 0 0 .14-.92c-.31-.24-2.71-.1-3.53-.18a5.16 5.16 0 0 1 .27-.51c.42-.73-.39-.07.78-1.58a9 9 0 0 1 1.43-1.71 12.56 12.56 0 0 0-.1 2.13c0 .85-.23 1.44.76 1.46.61-.53.42-1.07.41-1.95s.06-1.52.11-2.34c.08-1.3-.08-.87.65-1.83a15.35 15.35 0 0 0 1.12-1.55l.76.2c.69-.55.27-.69 0-1.2.3-.65 1.06-1.27 1.41-1.93a1.47 1.47 0 0 0-.82-2c-.76-.42-3.11-1.24-3.85-.54-1.16 1.09-5.31 7.47-5.77 9.2-.63 0-.74.12-.91.77-1 0-.9 1.33-1.05 2.44a6.32 6.32 0 0 0-2.5-.57c-2.81-.25-5.21-.5-8.08-.65.46-1.15.17-.6 0-1.2a38.46 38.46 0 0 1 .29-4.67c.29-2.13.41-4.19.57-6.3.24-3.13.25-6.26.48-9.16a28.39 28.39 0 0 1 .35-3.22c1.55.21 3.08.27 4.67.4 2.65.21 6.21 1.18 9.48 1.49a20.43 20.43 0 0 1 4.51.81c-.07.76-.3 1.63-.43 2.42a33.1 33.1 0 0 0-.39 4.61c0 .9-.57 1.58.1 2-.85.48-.32 1.12.11 1.15a.54.54 0 0 0 .59-.49c0-.31-.14-.4-.32-.67.91-.37.71-3.14.78-3.92.13-1.39.33-3 .54-4.41.17-.33.64-.41.48-1-.36-1.29-5-1.59-6.14-1.77-.89-.14-1.85-.23-2.79-.39-1.91-.32-3.69-.68-5.63-1-1.73-.22-3.64-.2-5.44-.36z" transform="translate(-.5 -1.67)"/><path class="cls-1" d="M19.94 14.17c0-.53-.24-.82.14-1.35.16-.22.61-.62 1-.51s.83 1.5.7 2.19a7.26 7.26 0 0 1-1.83-.33zm-1.17-.78c.09-2 2.72-3.42 3.83-1a2.92 2.92 0 0 1 .24.87c0 .18.05.31.07.46l.13.54c1.87-.74 1.87-2.32.63-3.4a9.58 9.58 0 0 0-1.79-1.16c-1.31-.7-1.57.3-2.09-.7a4.06 4.06 0 0 0-1.59 1.88 1.94 1.94 0 0 0 .57 2.52zm3-5.07c-.14-.43 0-.42-.48-.62-1.29-.53-2.72.58-3.46 1.47-2.14 2.58-.8 5.46 2.33 6.29 2.36.63 5.16-.36 5.5-2.58.44-2.66-2.66-3.81-3.87-4.55z" transform="translate(-.5 -1.67)"/><path class="cls-2" d="M28.34 29.4c.26-.57 3-4 3.64-4.84a16.27 16.27 0 0 0 1.2-1.64 16.85 16.85 0 0 0-2.74-1.2 33.27 33.27 0 0 0-2.92 4.72 1.52 1.52 0 0 0-.29.87 1.38 1.38 0 0 1-.44.84c.48.31 1.12 1.06 1.55 1.25zM12.4 23.68c.58-2.06 1-14 1.2-16.57a10.24 10.24 0 0 0-2.22.25c0 .06.19 1.95.21 2.23.32 3.53.37 6 .49 9.46 0 .79 0 1.57.13 2.36a19.8 19.8 0 0 1 .19 2.27zm6.37-10.29c.09-2 2.72-3.42 3.83-1a2.92 2.92 0 0 1 .24.87c0 .18.05.31.07.46l.13.54c1.87-.74 1.87-2.32.63-3.4a9.58 9.58 0 0 0-1.79-1.16c-1.31-.7-1.57.3-2.09-.7a4.06 4.06 0 0 0-1.59 1.88 1.94 1.94 0 0 0 .57 2.51z" transform="translate(-.5 -1.67)"/><path class="cls-1" d="M27.59 20.11c.4-.15.74-1-.52-1.24-1.77-.27-3.75-.42-5.53-.54-.87-.06-1.73-.1-2.63-.13-1.28 0-1.9-.27-1.92.69.48.59 1.2.38 2.07.45 2.52.21 5.08.28 7.58.66.36.06.71.2.95.11zm-4.07 2.51c1.38 0 2 .3 2-.42.07-.89-1.22-.75-1.86-.75h-2.29l-2.27.07c-.82 0-1.47-.14-2 .36 0 1 .94.73 1.78.75s1.55 0 2.33 0 1.52-.01 2.31-.01z" transform="translate(-.5 -1.67)"/><path class="cls-2" d="M14.23 32.29a18.76 18.76 0 0 0 1.95-.29c1.86-.34 3.82-.31 5.86-.8-1.09-.24-2.89-.31-4-.43-1.4-.15-2.7-.19-4.07-.31a5.4 5.4 0 0 0 .26 1.83z" transform="translate(-.5 -1.67)"/><path class="cls-3" d="M33.93 21.91l1.4-1.91a4.53 4.53 0 0 0-2.73-1.12l-.46.88c-.5.1-.35-.06-.65.34-.17.23-.31.42-.45.64z" transform="translate(-.5 -1.67)"/><path class="cls-1" d="M17.78 25.27c.59.43 2.21.36 3.06.44a10.81 10.81 0 0 0 1.59.11c.42 0 .91-.33.61-.82s-3.47-.48-4.43-.51c-.68-.02-.88.08-.83.78z" transform="translate(-.5 -1.67)"/><path class="cls-3" d="M25.1 32.09l.39-.18c1.22-.67 1.35-.57 2-1.47a4 4 0 0 0-.82-.87 3.59 3.59 0 0 0-1.06-.8 2.77 2.77 0 0 1-.25.28c-.23.2-.1 0-.26.25a26.63 26.63 0 0 0 0 2.79z" transform="translate(-.5 -1.67)"/><path class="cls-1" d="M27.11 10.23c.34.05.27-.19.79-.11 1 .16 2 .67 2.27.56.59-.2.66-1.27-1.5-1.6-2.93-.45-2.67.98-1.56 1.15z" transform="translate(-.5 -1.67)"/><path class="cls-3" d="M19.94 14.17a7.26 7.26 0 0 0 1.83.33c.13-.69-.22-2.06-.7-2.19s-.83.29-1 .51c-.37.53-.13.82-.13 1.35z" transform="translate(-.5 -1.67)"/><path class="cls-1" d="M30.09 12.64c.24-.89-.5-1-1.2-1.06s-1.62-.46-1.83.07c-.3.75.75.86 1.33 1 .75.12 1.18.35 1.7-.01zm-2.56 1.59a.51.51 0 0 0-.42.89c.58.48 2.65.6 2-.42-.19-.3-1.17-.41-1.58-.47z" transform="translate(-.5 -1.67)"/><path d="M.5 8l1.05-.14a2.32 2.32 0 0 0 .62 1.29 1.53 1.53 0 0 0 1.06.4 1.7 1.7 0 0 0 1.27-.49A1.74 1.74 0 0 0 5 7.78a1.62 1.62 0 0 0-.47-1.2 1.64 1.64 0 0 0-1.21-.47 3 3 0 0 0-.74.12l.12-.93h.17A2.17 2.17 0 0 0 4.08 5a1.2 1.2 0 0 0 .54-1.08 1.28 1.28 0 0 0-.39-1 1.39 1.39 0 0 0-1-.38 1.44 1.44 0 0 0-1 .39 1.94 1.94 0 0 0-.53 1.16L.61 3.9a2.71 2.71 0 0 1 .88-1.64 2.54 2.54 0 0 1 1.71-.58A2.81 2.81 0 0 1 4.49 2a2.18 2.18 0 0 1 .91.82 2.11 2.11 0 0 1 .31 1.11 1.81 1.81 0 0 1-.3 1 2 2 0 0 1-.88.73 2 2 0 0 1 1.18.73 2.22 2.22 0 0 1 .42 1.39 2.54 2.54 0 0 1-.82 1.91 2.89 2.89 0 0 1-2.07.78 2.7 2.7 0 0 1-1.88-.67A2.61 2.61 0 0 1 .5 8z" transform="translate(-.5 -1.67)"/></g></g></symbol><symbol id="icon-order-4" viewBox="0 0 38.9 32.74"><g id="&#x421;&#x43B;&#x43E;&#x439;_2" data-name="&#x421;&#x43B;&#x43E;&#x439; 2"><g id="Layer_1" data-name="Layer 1"><path d="M21.66 14.89c-.24-.92.61-1.58 1.44-1.77 2.1-.49 4.93.46 6.56 1.56.46.31.58.34.7.94s.23.79-.17 1.23a2 2 0 0 1-1.15.58c-1.57.38-6.85-.57-7.36-2.53zM15 19.11c.37.17 1.59.41 2.07.53a55.83 55.83 0 0 1 5.49 2.14c.77-1.72 2.27-2 4-1.65 1.33.27.36.8 2.66-1 .87-.67 4.3-3.15 5.1-3.62-.38-1.25-1.27-1.61-.24-3.16l-.31-.2-.36-.15-1.94-.94a10 10 0 0 0-2.76-1 2.82 2.82 0 0 1-2.78 1.38c-3 .08-2-.51-3.73.43l-7.08 3.67c.65 2.07.26 1.79-.12 3.57z" transform="translate(-.15 -1.71)"/><path class="cls-2" d="M10.71 21.66c-.44 0-1.79-.55-1.63.41.09.55 1.17.59 1.67.76l.1 2.32c-.4-.12-.35-.25-.9-.17-.86 1 .32 1 1 1.42.06.49.09.88.16 1.36.13 1-.92 1.39 1.39 2.39 1.88.81 5.95 1.7 8.33 2.53.67.23 1.34.47 2 .66.15 0 1 .26 1 .3.36.22 0 .72.61.8s.56-.33.86-.63 2.89-2.18 3.79-3.06l1.81-1.65a3.85 3.85 0 0 1 .37-.32l2.45-2.33c.39-.38.11.25 1.18-.88.8-.84 1.39-.78 1.46-1.3 0-.22-.17-.87-.93-.52A4.62 4.62 0 0 0 34 25c-.58.62-.33.32-.79.5-.29.12-.77.78-1.4 1.25s-1.18 1.09-1.7 1.55a3.66 3.66 0 0 0-.37.32 44.6 44.6 0 0 1-3.54 3c-.49.37-1 .76-1.43 1.13-.24-.07-.52-.22-.78-.3l-5.45-1.71c-1.25-.36-5.51-1.38-6.21-1.93a15.8 15.8 0 0 0-.17-2.1 75.52 75.52 0 0 1 9.39 2.35c.94.33 2.61 1.31 2.44.07-.09-.68-2-1.14-2.63-1.36-1.39-.49-4.62-1.3-6.12-1.61a32.31 32.31 0 0 0-3.21-.63L11.87 23c2 .21 10.16 2.09 11.2 3l.06.19c.05.19 0 .27.19.43s.38.15.65.19c1.41.21 1 .89 2.44-.28.17-.15.24-.25.43-.42l7.83-6.29a17.81 17.81 0 0 0 2.67-2.37c.37-.37.67-.36.56-1-.48-.94-1.85.89-2.41 1.34-.25.2-.5.39-.78.59-1 .67-2.24 1.72-3.15 2.5s-2.1 1.65-3.16 2.49l-1.55 1.28c-1.57 1.26-1.3 1.36-2 1.19s0-.25-1-.72c-.52-.26-.88-.47-1.48-.71-1.18-.47-5.46-1.54-6.88-1.87s-2.45-.41-3.69-.66c-.07-.46 0-.92-.51-1s-.54.3-.58.78z" transform="translate(-.15 -1.71)"/><path class="cls-2" d="M36.82 13.86a12.24 12.24 0 0 1-1.5 1 2.49 2.49 0 0 1-.54-.92c-.22-.61.09-.65.28-1.06a4.68 4.68 0 0 1 1.76 1zm-10.08-3.68c.44-.33.12-.34.78-.35-.19.24-.34.3-.78.35zm-2.05 12.53l-1-.45a1.9 1.9 0 0 1 1.93-1.12 1.34 1.34 0 0 1 .86.18 1.71 1.71 0 0 0-.41.34l-1.35 1.05zM15 19.11c.37.17 1.59.41 2.07.53a55.83 55.83 0 0 1 5.49 2.14c.77-1.72 2.27-2 4-1.65 1.33.27.36.8 2.66-1 .87-.67 4.3-3.15 5.1-3.62-.38-1.25-1.27-1.61-.24-3.16l-.31-.2-.36-.15-1.94-.94a10 10 0 0 0-2.76-1 2.82 2.82 0 0 1-2.78 1.38c-3 .08-2-.51-3.73.43l-7.08 3.67c.65 2.08.26 1.81-.08 3.59zm9.39-9.8c-.52.34-1.2.67-1.78 1-2.84 1.5-8.39 4.14-10.78 5.73-1.4.93-.6.86-1.44 1.3-.54.28-1.18.94-.44 1.57h.35c.81-.59.08-.3.88-.83.42-.28.45-.54.79-.83a11.41 11.41 0 0 1 2.18-1.18 3.49 3.49 0 0 1-.38 2.8c-.82.13-2.09-.45-2.81-.3l-.23.23c0 .46-.07.66.91.9.36.09.67.14 1 .22A37.43 37.43 0 0 1 24 23.73c.54.25 1.17.84 1.71.31v-.66c.7-.44 1.07-.93 1.74-1.43.31-.23.61-.44.92-.71 1.29-1.08 6.51-4.76 8.23-5.83.66-.41 1.32-.83 1.93-1.25.93-.64.48-1.58-.63-1-.28-.18-.44-.39-.79-.62-.56-.37-2.06-1.05-2.7-1.36-2.23-1.03-4.41-2.42-6.93-2.46-.42 0-1 .16-1.19.15s-.35-.34-1-.07a6.32 6.32 0 0 0-.86.52zm10.55 13.31c.2-.26.34-.39.57-.71.7-.08.61-.3 1-.36 0 .47-.27 2.73.79 2.21.53-.26.36-1.92.38-2.84 0-.58.42-1.92-.26-2.19-.88 0-.72.75-.82 1.54-.54 0-.55.23-.88.48-.64.5-.61.2-.93.45s-1 1.08-2.08 1.93c-2.2 1.77-4.92 3.55-6.83 5.24a7.81 7.81 0 0 0-.69.67c-.57.62-.47.3-.76.52-.6.46.28 1.6 1 .94a7.25 7.25 0 0 1 .57-.7 8.52 8.52 0 0 0 .67-.61 38.12 38.12 0 0 1 3-2.35 41.45 41.45 0 0 0 5.27-4.22z" transform="translate(-.15 -1.71)"/><path class="cls-2" d="M27.94 16.34A10.66 10.66 0 0 1 25 15.8a3.77 3.77 0 0 1-2.2-1.16c.19-.33.52-.44 1.07-.45a6.57 6.57 0 0 1 3.36.57c1.33.57.6.29 1.07.62s.77.18.91.71a2.13 2.13 0 0 1-1.28.24zm-6.28-1.45c.51 2 5.8 2.91 7.36 2.53a2 2 0 0 0 1.15-.58c.41-.44.28-.71.17-1.23s-.24-.63-.7-.94c-1.63-1.1-4.46-2-6.56-1.56-.81.2-1.66.89-1.42 1.78z" transform="translate(-.15 -1.71)"/><path class="cls-3" d="M27.94 16.34a2.13 2.13 0 0 0 1.28-.24c-.14-.53-.5-.42-.91-.71s.26-.06-1.07-.62a6.57 6.57 0 0 0-3.36-.57c-.55 0-.88.12-1.07.45A3.77 3.77 0 0 0 25 15.8a10.66 10.66 0 0 0 2.94.54z" transform="translate(-.15 -1.71)"/><path class="cls-2" d="M36.08 4.08c.36-.47 1-.77.31-1.47-.79 0-1.18.67-1.51 1.08l-1.1 1.45c-.34.48-.69 1-1 1.51s-.89.9-.25 1.5c.62 0 .65-.22 1.38-1.18zm-19.3 6.54c0-.38-.78-2.45-1-3C15 5 14.15 6 14.12 6.35c0 .14 1.34 3.78 1.63 4.3s.81.5 1.03-.03zM36.2 7.43c.47-.4 2.07-1.5 2.23-2 .22-.62-.42-.89-1.06-.42A30.42 30.42 0 0 0 34 7.93c0 1.73 1.54 0 1.61 0s.39-.32.59-.5zM10.62 9.08a.8.8 0 0 0-.7.23c-.09.86.76 1.4 1.47 2.08l1.26 1.39a.52.52 0 0 0 .65.19c1-.38-.7-1.89-.91-2.11L11.1 9.5a5.15 5.15 0 0 1-.48-.42zm5.02 2.36a14.6 14.6 0 0 0-2.07-4.15h-.49c-.17.22-.32.27-.24.64l1 2c.91 1.8.91 2.17 1.8 1.51z" transform="translate(-.15 -1.71)"/><path class="cls-3" d="M36.82 13.86a4.68 4.68 0 0 0-1.76-1c-.19.41-.51.45-.28 1.06a2.49 2.49 0 0 0 .54.92 12.24 12.24 0 0 0 1.5-.98zM26 21.65a1.71 1.71 0 0 1 .41-.34 1.34 1.34 0 0 0-.86-.18 1.9 1.9 0 0 0-1.93 1.12l1 .45zm1.51-11.82c-.66 0-.34 0-.78.35.44-.05.59-.11.78-.35z" transform="translate(-.15 -1.71)"/><path d="M3.88 10.3V8.24H.15v-1l3.92-5.53h.86v5.56h1.16v1H4.93v2.03zm0-3V3.4L1.19 7.27z" transform="translate(-.15 -1.71)"/></g></g></symbol><symbol id="icon-order-5" viewBox="0 0 40.09 34.22"><g id="&#x421;&#x43B;&#x43E;&#x439;_2" data-name="&#x421;&#x43B;&#x43E;&#x439; 2"><g id="Layer_1" data-name="Layer 1"><path class="cls-1" d="M32.82 33.13l-2.55-.22c.22-1.09 1.22-2.58 2.29-2.7v1.58c0 .81-.08.76.25 1.35zm-8.23-21c.29-.58.06-.39 0-.73s.23-.31.39-.54a11.72 11.72 0 0 1 .75-1.16A5.88 5.88 0 0 1 28 8.06c1.67-.5 1.11 1.4.65 2.12-.29.47-.52.79-.81 1.18s-.64.5-.79 1.11l-2.46-.37zm1.8-4.52l.92-.43a2.14 2.14 0 0 1 2.69.54c.78 1.25-.14 2.6-.73 3.63a7.59 7.59 0 0 0 2.23-1.72 5.49 5.49 0 0 0 .56-.77c.69-1.09 1.19-2.77.24-3.73-1.69-1.72-3.72-1.21-5.12.61a3.24 3.24 0 0 0-.78 1.85zm5 11.1c-.52 0-4.86.44-5.75.57-.5.07-.2.29-.69.36s-.16-.36-1-.27c.81 1.4.66 12 .63 13.3l4.49.24a5.92 5.92 0 0 1 1.21-2.45 5.19 5.19 0 0 1 2-1.19c.32-.11.1 0 .27-.16s-.08-4.29-.11-4.92-.09-1.55-.11-2.3c-.06-1.81-.35-2.14.23-3a3.44 3.44 0 0 0-1.2-.21zM21 18.1c-.61-.4-.6-1.54-.64-2.31a9.37 9.37 0 0 1 0-2.78c1 0 3.25.09 4.08.22-.38.89-.05 4.42-.31 5L21 18.1zm.89-6.1c0-1-.5-2.12-.33-3.15.06-.36-.06-.43 0-.73a3.72 3.72 0 0 1 .8-2c.29.18.38.68.48 1.09.43 1.73.09 3.28.89 3.57-.2.6-.35.78 0 1.34L21.89 12zm-1.35-5.2c.25-.27.32-1.08 1-1.61a1.21 1.21 0 0 1 1.8.29 9.41 9.41 0 0 1 .91 4.12c.63-.43 1.08-2.84 1.12-3.44.36-5.15-3.34-6.64-5-2.91a4.77 4.77 0 0 0 .08 3.56zm-1.42 5.06c.13-.43-.1-.64-.43-.86-.57-.38-2.27-1.32-2.14-2 1.62-.15 3.32 1.87 3.81 3a6.1 6.1 0 0 1-1.24-.08zm-1.77-.37a2.55 2.55 0 0 1-2.23-.85l-1.38-1.56a3.17 3.17 0 0 1 .6-4.19c1.54-.95 3.2.14 4.18 1.19A5.72 5.72 0 0 1 20.43 10a7 7 0 0 0-1.71-1.5c-1.39-.83-3.16-.89-3.38.41-.17 1 1.41 2.28 2 2.62zm-4.81 21A7.46 7.46 0 0 1 12.4 30a2.79 2.79 0 0 1 2.15.83 4.56 4.56 0 0 1 .86 1.8 8.93 8.93 0 0 1-2.86-.1zM12.45 29a3.4 3.4 0 0 1 3.05 1.24 5.89 5.89 0 0 1 1.1 2.35h3.26c.59 0 3.05.13 3.41.07.16-.09.11-.55.11-.73v-.79l-.12-7.94c0-.91-.22-2.31-.16-3.17 0-.4.06-.37.29-.61L21 19.2c.57.87.54 4.55.62 5.75l.34 4c0 .22 0 .23.11.35s.82.46 0 1.13c-1.08.88-1.25-1.09-1.32-1.7-.28-2.43-.37-5-.47-7.41 0-.37-.15-1.3-.14-1.52 0-.38.08-.35.26-.58v-.06c-3.61-.3-4.73-.38-8.42-.41.16 2.62.48 4.77.43 7.49 0 .89-.09 1.86-.06 2.74zm7-11a30.76 30.76 0 0 0-3.55-.28c-1.71-.11-6 .18-6.76-.44-.48-.39-.46-2-.49-2.79-.08-1.46.15-.89.12-1.45s-.3-.92-.84-.68-.45 2.29-.42 2.89c.09 2.6.49 3.31 3.49 3.49 0 1.43.17 2.92.25 4.34.13 2.47 0 3.54 0 5.67 0 .73-.19.48-.24.87s.23.29.19 1c-.15 2.68.33 3.23 2.75 3.19 1.6 0 3.15-.16 4.74-.17s3.39 0 4.92.11l6.21.36c1.18-.17 3.37.3 3.69.2.7-.44.29-.82-.25-1.08.63-.31.48-.81.49-1.58 0-2.36-.1-6.43-.23-8.81-.05-1-.27-2.4-.21-3.42l.29.31a.7.7 0 0 0 .39.15l.85-.23c.28-.12.32-.37.24-.67A5 5 0 0 1 35 17c0-.69.05-1.29.1-2 0-.32 0-.71.08-1s.18-.54-.11-.76c-1.1-.63-1 1.12-1.1 1.87a27.92 27.92 0 0 0-.2 3.1 6.27 6.27 0 0 0-2-.63c-1.58-.15-5.62.69-6.41.53v-4.82l.63.08c.23.6.57.62 1.16.27a16.36 16.36 0 0 1 1.78.36c1.31.26 2.22.36 3.55.51.79.09 1.38.39 1.41-.52-.29-.28-.18-.44-.91-.52a22.46 22.46 0 0 1-4.13-.65c.26-.18.68-.34 1-.53a7.61 7.61 0 0 0 .89-.59c.33-.24.53-.37.85-.63 1.26-1 2.65-3.2 2.36-5-.37-2.36-3.32-3.78-5.62-2.73a9.08 9.08 0 0 0-.94.54c-.54.32-.36.5-.86.71-.34-4.5-4.3-6-6.54-2.94A5.65 5.65 0 0 0 19 4.88a4.14 4.14 0 0 1-.69-.53C16.41 3 13.53 3 12.41 5.58c-1.19 2.7.49 4.57 2.47 6.32-1.37.19-2.64.16-4 .42-.52.1-1.58.06-1.57.68 0 .33.31.47.63.53.57.11.47-.09.89-.17a44.65 44.65 0 0 1 8.4-.38 23.62 23.62 0 0 0 0 2.6c-.05 1.24.16 1.95.18 2.42z" transform="translate(-.5 -.07)"/><path class="cls-2" d="M12.45 29a3.4 3.4 0 0 1 3.05 1.24 5.89 5.89 0 0 1 1.1 2.35h3.26c.59 0 3.05.13 3.41.07.16-.09.11-.55.11-.73v-.79l-.12-7.94c0-.91-.22-2.31-.16-3.17 0-.4.06-.37.29-.61L21 19.2c.57.87.54 4.55.62 5.75l.34 4c0 .22 0 .23.11.35s.82.46 0 1.13c-1.08.88-1.25-1.09-1.32-1.7-.28-2.43-.37-5-.47-7.41 0-.37-.15-1.3-.14-1.52 0-.38.08-.35.26-.58v-.06c-3.61-.3-4.73-.38-8.42-.41.16 2.62.48 4.77.43 7.49.08.85.01 1.83.04 2.76zm18.9-10.31c-.52 0-4.86.44-5.75.57-.5.07-.2.29-.69.36s-.16-.36-1-.27c.81 1.4.66 12 .63 13.3l4.49.24a5.92 5.92 0 0 1 1.21-2.45 5.19 5.19 0 0 1 2-1.19c.32-.11.1 0 .27-.16s-.08-4.29-.11-4.92-.09-1.55-.11-2.3c-.06-1.81-.35-2.14.23-3a3.44 3.44 0 0 0-1.17-.18z" transform="translate(-.5 -.07)"/><path class="cls-3" d="M17.36 11.48c-.62-.33-2.19-1.59-2-2.62.22-1.3 2-1.24 3.38-.41A7 7 0 0 1 20.43 10a5.72 5.72 0 0 0-1.91-3.87c-1-1-2.64-2.14-4.18-1.19a3.17 3.17 0 0 0-.6 4.19l1.39 1.54a2.55 2.55 0 0 0 2.23.81zm3.18-4.68c.25-.27.32-1.08 1-1.61a1.21 1.21 0 0 1 1.8.29 9.41 9.41 0 0 1 .91 4.12c.63-.43 1.08-2.84 1.12-3.44.36-5.15-3.34-6.64-5-2.91a4.77 4.77 0 0 0 .17 3.55zm5.86.79l.92-.43a2.14 2.14 0 0 1 2.68.56c.78 1.25-.14 2.6-.73 3.63a7.59 7.59 0 0 0 2.23-1.72 5.49 5.49 0 0 0 .56-.77c.69-1.09 1.19-2.77.24-3.73-1.69-1.72-3.72-1.21-5.12.61a3.24 3.24 0 0 0-.78 1.85zM21 18.1l3.17.14c.25-.59-.07-4.12.31-5-.83-.13-3.09-.2-4.08-.22a9.37 9.37 0 0 0 0 2.78c-.04.76-.05 1.89.6 2.3z" transform="translate(-.5 -.07)"/><path class="cls-2" d="M24.6 12.12l2.46.37c.15-.62.5-.73.79-1.11s.52-.71.81-1.18c.46-.72 1-2.63-.65-2.12a5.88 5.88 0 0 0-2.24 1.62 11.72 11.72 0 0 0-.77 1.14c-.16.23-.41.31-.39.54s.27.16-.01.74zM21.89 12l1.78.1c-.32-.57-.18-.74 0-1.34-.8-.29-.46-1.85-.89-3.57-.1-.41-.2-.92-.48-1.09a3.72 3.72 0 0 0-.8 2c0 .29.1.37 0 .73-.11 1 .39 2.17.39 3.17z" transform="translate(-.5 -.07)"/><path class="cls-1" d="M38.77 13.58A12.56 12.56 0 0 0 39 9.66c-.19-.57-1.09-.66-1 .3a19.83 19.83 0 0 1-.45 3.9 13.28 13.28 0 0 0-.32 1.9c1.17 1.15 1.4-1.35 1.54-2.18zM4.56 18.36c-1.57-.15-.29 1.44.17 2.07a6.36 6.36 0 0 0 .58.64 5.13 5.13 0 0 0 .69.63 7.94 7.94 0 0 0 2.31 1.47c.4.06.7-.19.64-.53-.09-.57-1-.76-2.08-1.66-.29-.24-.43-.41-.68-.63l-.6-.63c-.45-.48-.59-.88-1.03-1.36z" transform="translate(-.5 -.07)"/><path class="cls-3" d="M12.55 32.52a8.93 8.93 0 0 0 2.86.1 4.56 4.56 0 0 0-.86-1.8A2.79 2.79 0 0 0 12.4 30a7.46 7.46 0 0 0 .15 2.52z" transform="translate(-.5 -.07)"/><path class="cls-1" d="M4.49 21.75c-.57-.37-1.07.24-.74 1a5.86 5.86 0 0 0 3.81 2.47c.71.06 1.24-.56.73-1a7.13 7.13 0 0 1-3-1.28c-.84-.67-.55-1.02-.8-1.19zm35.86-9.47c-.76-.14-.72.21-.85.8-.28 1.19-1.44 3.21-.68 3.5s1.18-1.29 1.35-1.87c.22-.79.71-1.88.18-2.43z" transform="translate(-.5 -.07)"/><path class="cls-3" d="M32.82 33.13c-.33-.59-.26-.54-.25-1.35V30.2c-1.07.12-2.07 1.61-2.29 2.7z" transform="translate(-.5 -.07)"/><path class="cls-2" d="M19.13 11.86a6.1 6.1 0 0 0 1.24.08c-.49-1.11-2.19-3.14-3.81-3-.13.72 1.57 1.67 2.14 2 .3.27.56.48.43.92z" transform="translate(-.5 -.07)"/><path d="M.5 8h1.11a2 2 0 0 0 .57 1.22 1.55 1.55 0 0 0 1.08.41A1.68 1.68 0 0 0 4.55 9a2.16 2.16 0 0 0 .53-1.52 2 2 0 0 0-.51-1.42 1.77 1.77 0 0 0-1.33-.52 1.84 1.84 0 0 0-.92.23 1.79 1.79 0 0 0-.64.6l-1-.13.83-4.41h4.28v1H2.36L1.9 5.14a2.8 2.8 0 0 1 1.62-.54 2.57 2.57 0 0 1 1.9.78 2.72 2.72 0 0 1 .77 2 3.13 3.13 0 0 1-.68 2 2.72 2.72 0 0 1-2.26 1 2.78 2.78 0 0 1-1.91-.66A2.56 2.56 0 0 1 .5 8z" transform="translate(-.5 -.07)"/></g></g></symbol><symbol id="icon-pay-1" viewBox="0 0 36 36"><g data-name="&#x421;&#x43B;&#x43E;&#x439; 2"><g data-name="Layer 1"><path d="M18 36A18 18 0 1 0 0 18a18 18 0 0 0 18 18z"/><path d="M27.14 16.31L18.5 7.67a1.74 1.74 0 0 0-2.47 0L11.3 12.4a1.77 1.77 0 0 0 0 2.49l.78.81h1.81L12.2 14a.49.49 0 0 1-.14-.34.47.47 0 0 1 .14-.33l.63-.61 3 3h2.85l-4.39-4.42 2.68-2.69a.47.47 0 0 1 .33-.14.46.46 0 0 1 .33.13l8.64 8.64a.46.46 0 0 1 .14.33.49.49 0 0 1-.15.33l-.49.48v1.81l1.4-1.38a1.74 1.74 0 0 0 0-2.47zM9.07 24.94a1.78 1.78 0 0 0 1.79 1.75h12.22a1.73 1.73 0 0 0 1.72-1.75v-.1H9.07v.1zm14-8.43a1.72 1.72 0 0 1 1.72 1.74v4.62H9.07v-4.63a1.78 1.78 0 0 1 1.79-1.74zm-9.74 4.79a1.26 1.26 0 0 1-.88-.35 1.27 1.27 0 1 1 0-1.83 1.27 1.27 0 1 1 .88 2.18z"/></g></g></symbol><symbol id="icon-percent" viewBox="0 0 512 512"><path d="M329.904 300.244c-16.388 0-29.724 13.332-29.724 29.72 0 16.392 13.336 29.728 29.724 29.728 16.392 0 29.72-13.336 29.72-29.728-.004-16.388-13.332-29.72-29.72-29.72zM181.768 152.116c-16.392 0-29.728 13.336-29.728 29.728.004 16.384 13.34 29.716 29.728 29.716s29.716-13.332 29.716-29.716c0-16.392-13.328-29.728-29.716-29.728z"/><path d="M256.012 0c-141.164 0-256 114.836-256 256 0 141.156 114.836 256 256 256 141.148 0 255.976-114.844 255.976-256 0-141.164-114.828-256-255.976-256zm-74.244 120.092c34.04 0 61.744 27.696 61.744 61.752 0 34.04-27.704 61.744-61.744 61.744-34.052 0-61.752-27.704-61.752-61.744 0-34.056 27.704-61.752 61.752-61.752zm-18.772 251.556a15.956 15.956 0 0 1-11.32 4.696 15.972 15.972 0 0 1-11.324-4.696c-6.252-6.252-6.252-16.396 0-22.64l208.652-208.66c6.248-6.252 16.388-6.252 22.644 0 6.252 6.252 6.252 16.396 0 22.644L162.996 371.648zm166.908 20.064c-34.048 0-61.752-27.7-61.752-61.752 0-34.04 27.704-61.744 61.752-61.744 34.044 0 61.744 27.704 61.744 61.744-.004 34.052-27.704 61.752-61.744 61.752z"/></symbol><symbol id="icon-phone-2" viewBox="0 0 3.84 3.85"><g data-name="&#x421;&#x43B;&#x43E;&#x439; 2"><path d="M.78 2.56a4.09 4.09 0 0 0 1.36 1.07 2.11 2.11 0 0 0 .76.22H3a.63.63 0 0 0 .49-.21l.15-.16.11-.11a.39.39 0 0 0 0-.57l-.48-.48a.39.39 0 0 0-.28-.13.4.4 0 0 0-.28.13l-.29.29h-.17a3 3 0 0 1-.72-.66 1.75 1.75 0 0 1-.24-.39l.21-.21.07-.07a.41.41 0 0 0 .09-.39.41.41 0 0 0-.13-.29L1.29.37 1.21.28 1.05.12A.4.4 0 0 0 .77 0a.41.41 0 0 0-.28.12l-.3.3a.62.62 0 0 0-.19.4 1.48 1.48 0 0 0 .11.64 3.72 3.72 0 0 0 .67 1.1z" data-name="Layer 1"/></g></symbol><symbol id="icon-phone-dark"><path clip-rule="evenodd" d="M14.554 13.605c-.254.386-.793.897-1.313 1.14-.52.244-1.022.22-1.48.139-.457-.08-.87-.216-1.952-.91-1.08-.696-2.83-1.951-4.326-3.57C3.987 8.783 2.744 6.8 2.015 5.554c-.73-1.244-.945-1.75-1.007-2.26a2.223 2.223 0 0 1 .372-1.547c.344-.523.942-1.054 1.495-1.18.553-.124 1.063.156 1.523.54.46.385.872.874 1.132 1.364.26.49.368.983.236 1.348-.132.365-.503.603-.752.753-.25.15-.376.21-.465.28-.09.07-.14.147-.101.315.039.168.168.426.514 1.087.346.66.91 1.721 1.697 2.648.789.926 1.802 1.717 2.408 2.074.606.357.803.281 1.013.034.21-.247.431-.666.692-.877.262-.21.562-.213.85-.155.287.058.562.177.887.374.325.196.7.47 1.052.797.351.327.68.708.873.974.193.267.25.42.296.627.045.207.077.468-.176.854z"/></symbol><symbol id="icon-phone" viewBox="0 0 9.6 9.6"><g data-name="&#x421;&#x43B;&#x43E;&#x439; 2"><g data-name="Layer 1"><circle cx="4.8" cy="4.8" r="4.8"/><path d="M7.14 6.12a2.73 2.73 0 0 0-.82-.71c-.15-.08-.32-.09-.4.06a3.33 3.33 0 0 1-.26.29.49.49 0 0 1-.66-.07L3.91 4.63a.49.49 0 0 1-.07-.69 3.38 3.38 0 0 1 .29-.26c.15-.08.14-.26.06-.4a2.74 2.74 0 0 0-.71-.82.36.36 0 0 0-.42.06l-.23.23c-.74.74-.38 1.57.36 2.31l1.34 1.36c.74.74 1.57 1.1 2.31.36l.23-.23a.36.36 0 0 0 .07-.43z"/></g></g></symbol><symbol id="icon-pin"><path clip-rule="evenodd" d="M6.5 0c3.59 0 6.447 2.9 6.5 6.477C13.074 11.636 6.732 18 6.5 18 6.25 18 0 11.108 0 6.477 0 2.9 2.91 0 6.5 0zm0 2.266a3.47 3.47 0 0 1 3.477 3.465A3.47 3.47 0 0 1 6.5 9.195a3.47 3.47 0 0 1-3.476-3.464A3.47 3.47 0 0 1 6.5 2.266z"/></symbol><symbol id="icon-pk" viewBox="0 0 36 36"><g data-name="&#x421;&#x43B;&#x43E;&#x439; 2"><g data-name="Layer 1"><path d="M18 36A18 18 0 1 0 0 18a18 18 0 0 0 18 18z"/><path d="M27.33 23.87l-1.16-4.65a.77.77 0 0 0-.08-.2 1.73 1.73 0 0 0 .1-.59v-7.67A1.75 1.75 0 0 0 24.44 9H11.56a1.75 1.75 0 0 0-1.74 1.74v7.67a1.73 1.73 0 0 0 .1.59.79.79 0 0 0-.08.2l-1.18 4.71a.78.78 0 0 0 .76 1h17.16a.78.78 0 0 0 .75-1zm-8.9-9.6l1.14 1.14a.23.23 0 0 1 0 .33l-.29.29a.23.23 0 0 1-.33 0l-1.14-1.14-.13.49a.23.23 0 0 1-.44 0l-.85-2.25a.23.23 0 0 1 .3-.3l2.25.85a.23.23 0 0 1 0 .44l-.49.13zM20 23.66h-4a.15.15 0 0 1-.15-.18l.31-1.71a.15.15 0 0 1 .15-.13h3.34a.15.15 0 0 1 .15.13l.31 1.7a.15.15 0 0 1-.15.15zm4.68-5.23a.22.22 0 0 1-.13.2H11.46a.22.22 0 0 1-.13-.2v-7.67a.22.22 0 0 1 .22-.22h12.89a.22.22 0 0 1 .22.22v7.67z"/></g></g></symbol><symbol id="icon-play" viewBox="0 0 60 60"><path d="M30 0C13.46 0 0 13.46 0 30s13.46 30 30 30 30-13.46 30-30S46.54 0 30 0zm15.56 30.83l-22 15A1 1 0 0 1 22 45V15a1 1 0 0 1 1.56-.83l22 15a1 1 0 0 1 0 1.66z"/></symbol><symbol id="icon-present" viewBox="0 0 3.84 3.84"><g data-name="&#x421;&#x43B;&#x43E;&#x439; 2"><path d="M.24 1.92V3.6a.24.24 0 0 0 .24.24h1.2V1.92zm1.92 0v1.92h1.2a.24.24 0 0 0 .24-.24V1.92zM3.6 1h-.76L3 .85a.5.5 0 0 0 0-.71.51.51 0 0 0-.7 0 1.32 1.32 0 0 0-.37.86 1.32 1.32 0 0 0-.36-.86.51.51 0 0 0-.7 0 .5.5 0 0 0 0 .71L1 1H.24a.24.24 0 0 0-.24.2v.36a.12.12 0 0 0 .12.12h1.56V1.2h.48v.48h1.56a.12.12 0 0 0 .12-.12V1.2A.24.24 0 0 0 3.6 1zM1.67.95A1.18 1.18 0 0 1 1 .68a.26.26 0 0 1 0-.37.26.26 0 0 1 .36 0c.16.16.32.58.27.64zm.55 0c-.06-.06.1-.47.27-.64a.26.26 0 0 1 .31.37 1.18 1.18 0 0 1-.58.32z" data-name="Layer 1"/></g></symbol><symbol id="icon-promo-50" viewBox="0 0 28.8 28.84"><g data-name="&#x421;&#x43B;&#x43E;&#x439; 2"><g data-name="Layer 1"><path d="M11.52.26l1.88.93L15.13 0l1.59 1.37L18.7.65l1.2 1.72 2.09-.21.73 1.97 2.08.31.22 2.09 1.93.83-.3 2.07 1.67 1.28-.82 1.94 1.3 1.65-1.27 1.68.85 1.92-1.65 1.3.34 2.08-1.91.86-.19 2.09-2.07.35-.7 1.98-2.09-.17-1.17 1.74-1.99-.69-1.56 1.4-1.76-1.16-1.86.97-1.41-1.56-2.05.47-.97-1.86-2.1-.06-.48-2.04-2.02-.58.04-2.09-1.82-1.06.57-2.03-1.5-1.47 1.05-1.82L0 12.74l1.47-1.5-.6-2.01 1.8-1.09-.08-2.1 2.01-.61.44-2.05 2.1-.09.94-1.88 2.06.43L11.52.26z"/><path d="M11.87 2l-1.21 1.39L8.86 3 8 4.66l-1.84.08-.36 1.8-1.8.53.07 1.84-1.57 1 .16.55 1.56-.96-.07-1.84 1.76-.53.39-1.8 1.84-.08L9 3.6l1.8.38L12 2.59l1.65.82 1.52-1 1.4 1.2 1.73-.63 1.05 1.51 1.83-.18.63 1.69 1.77.27-.06-.57-1.83-.3L21 3.67l-1.83.18-1.01-1.5-1.73.65L15 1.78l-1.52 1L11.87 2zM3 11.68L1.77 13l.26.44 1.14-1.17-.17-.59zm-.4 3.05l-.8 1.4.29.28.75-1.3-.23-.38zm.4 3.06l-.39 1.41.24.14.37-1.34-.22-.21zm1.19 2.84v1.33h.13v-1.29l-.13-.07zm22.35-3.08l.1-.08-.54-1.22-.09.12.52 1.19zm.31-3l.17-.22-.9-1.15-.12.28.85 1.09zm-.41-3l.16-.37-1.28-1-.06.44 1.19.91zm-1.11-2.82l.07-.5-1.64-.7.06.56z"/><path d="M5.53 20.68c.07.37.55.55 1.14.55A7.6 7.6 0 0 0 8 21.14a2.32 2.32 0 0 0 1.81-1.26 3.79 3.79 0 0 0 .22-2.43 2.6 2.6 0 0 0-1.31-2 2.91 2.91 0 0 0-2.4 0c0-.38-.25-1.37-.18-1.32l2.61-.47c.46-.09.43-.52.35-.94-.1-.66-.31-.72-1.1-.59-.2.05-.72.14-1.54.28l-1.53.24-.43.1c-.22.09-.32.3-.27.65l.56 3.31c0 .29.35.54.6.42 1.65-.78 2.78-.5 2.85 1.05a1.15 1.15 0 0 1-1.47 1.32h-.33a1.57 1.57 0 0 0-.47 0c-.18 0-.3.2-.37.48a1.64 1.64 0 0 0-.06.75zm4.9-4.27a7.75 7.75 0 0 1 .06-3.09 2.56 2.56 0 0 1 1.93-2.12c2.25-.45 3.63 2.28 4 4.16a6.55 6.55 0 0 1-.08 3 2.59 2.59 0 0 1-2 1.95 2.52 2.52 0 0 1-2.72-1 7.61 7.61 0 0 1-1.2-2.9zM13 13.17c-.56.1-.84.6-.87 1.51a5.75 5.75 0 0 0 .58 2.63c.37.77.73 1.14 1.14 1.1h.09c.91-.15 1-2.18.54-3.63-.27-1-.85-1.73-1.49-1.59zm3.41-.85c.32 1.39 1 2 1.92 1.79a1.22 1.22 0 0 0 1-.85 2.77 2.77 0 0 0 .09-1.47 4.66 4.66 0 0 0-.33-.94 1.6 1.6 0 0 0-1.65-1 1.09 1.09 0 0 0-.76.55 2.69 2.69 0 0 0-.26 1.88zm1.29-1.53c.83-.17 1.2 2.27.43 2.42-.13 0-.27 0-.4-.19a2.19 2.19 0 0 1-.47-1.3q-.07-.85.45-.94zm2.26 7.7c.05.27.26.37.6.3a.66.66 0 0 0 .41-.25 1.27 1.27 0 0 0 .21-.83v-.09c.1-2.81.26-5.35.48-7.61a1.09 1.09 0 0 1 0-.18v-.2c-.06-.3-.35-.4-.85-.3s-.57.45-.6 1a.74.74 0 0 0 0 .16c-.05.52-.1 1.77-.17 3.76s-.11 3.35-.11 4.05v.15zm2-2.17c.32 1.39 1 2 1.92 1.79a1.22 1.22 0 0 0 1-.85 2.77 2.77 0 0 0 .09-1.47 4.68 4.68 0 0 0-.33-.94 1.6 1.6 0 0 0-1.65-1 1.09 1.09 0 0 0-.76.55 2.69 2.69 0 0 0-.26 1.88zm1.29-1.53c.83-.17 1.2 2.27.43 2.42-.13 0-.27 0-.4-.19a2.19 2.19 0 0 1-.47-1.3q-.12-.85.4-.93z"/><path d="M5.53 19.72c.07.37.55.55 1.14.55A7.59 7.59 0 0 0 8 20.18a2.32 2.32 0 0 0 1.81-1.26 3.79 3.79 0 0 0 .22-2.43 2.6 2.6 0 0 0-1.31-2 2.91 2.91 0 0 0-2.4 0c0-.38-.25-1.37-.18-1.32l2.61-.47c.46-.09.43-.52.35-.94-.1-.65-.31-.76-1.1-.59-.2.05-.72.14-1.54.28l-1.53.24-.43.1c-.22.09-.32.3-.27.65l.56 3.31c0 .29.35.54.6.42 1.65-.78 2.78-.5 2.85 1.05a1.15 1.15 0 0 1-1.47 1.32h-.33a1.58 1.58 0 0 0-.47 0c-.18 0-.3.2-.37.48a1.64 1.64 0 0 0-.06.75zm4.9-4.27a7.76 7.76 0 0 1 .06-3.09 2.56 2.56 0 0 1 1.93-2.12c2.25-.45 3.63 2.28 4 4.16a6.55 6.55 0 0 1-.08 3 2.59 2.59 0 0 1-2 1.95 2.52 2.52 0 0 1-2.72-1 7.61 7.61 0 0 1-1.2-2.9zM13 12.21c-.56.1-.84.6-.87 1.51a5.75 5.75 0 0 0 .58 2.63c.37.77.73 1.14 1.14 1.1h.09c.91-.15 1-2.18.54-3.63-.27-1-.85-1.73-1.49-1.59zm3.41-.85c.32 1.39 1 2 1.92 1.79a1.22 1.22 0 0 0 1-.85 2.77 2.77 0 0 0 .09-1.47 4.66 4.66 0 0 0-.33-.94 1.6 1.6 0 0 0-1.65-1 1.09 1.09 0 0 0-.76.55 2.69 2.69 0 0 0-.26 1.88zm1.29-1.53c.83-.17 1.2 2.27.43 2.42-.13 0-.27 0-.4-.19a2.19 2.19 0 0 1-.47-1.3q-.07-.85.45-.94zm2.26 7.7c.05.27.26.37.6.3a.66.66 0 0 0 .41-.25 1.27 1.27 0 0 0 .21-.83v-.09c.1-2.81.26-5.35.48-7.61a1.09 1.09 0 0 1 0-.18v-.2c-.06-.3-.35-.4-.85-.3s-.57.45-.6 1a.75.75 0 0 0 0 .16c-.05.52-.1 1.77-.17 3.76s-.11 3.35-.11 4.05v.15zm2-2.17c.32 1.39 1 2 1.92 1.79a1.22 1.22 0 0 0 1-.85 2.77 2.77 0 0 0 .09-1.47 4.68 4.68 0 0 0-.33-.94 1.6 1.6 0 0 0-1.65-1 1.09 1.09 0 0 0-.76.55 2.69 2.69 0 0 0-.26 1.88zm1.29-1.53c.83-.17 1.2 2.27.43 2.42-.13 0-.27 0-.4-.19a2.19 2.19 0 0 1-.47-1.3q-.12-.84.4-.93z"/><path d="M13 4.81c-1.25-.2-1.8.29-3 .74-.37.15-1.77.74-1.75 1.22a.6.6 0 0 0 .19.48c.49.32 2.65-.92 3.23-1.15.3-.12.62-.19.92-.31.62-.26.64-.45.37-1zM7.66 8.49a.92.92 0 0 0 .08-.32c0-.68-1.13-.79-1.13-.22s.53.65 1.05.54z"/></g></g></symbol><symbol id="icon-radio-active" viewBox="0 0 4.8 4.8"><g data-name="&#x421;&#x43B;&#x43E;&#x439; 2"><path d="M2.4 0A2.4 2.4 0 1 1 0 2.4 2.4 2.4 0 0 1 2.4 0zm0 1.28A1.12 1.12 0 1 0 3.53 2.4 1.12 1.12 0 0 0 2.4 1.28zm0-.76A1.89 1.89 0 1 0 4.29 2.4 1.89 1.89 0 0 0 2.4.51z" data-name="Layer 1"/></g></symbol><symbol id="icon-save-money"><path d="M53.224 28.106l-2.541-.318a17.472 17.472 0 0 0-3.261-5.15l1.867-7.914a1.093 1.093 0 0 0-1.064-1.345h-.239-.003c-3.101 0-5.896 1.95-6.995 4.813a17.2 17.2 0 0 0-2.392-.757 1.094 1.094 0 1 0-.503 2.129 15.147 15.147 0 0 1 7.225 4.02c.072.105.16.198.266.273a15.222 15.222 0 0 1 3.286 5.308c.14.386.485.661.892.712l3.19.4a1 1 0 0 1 .875.99v5.515a1 1 0 0 1-.875.99l-2.956.37c-.425.054-.78.35-.908.76a15.176 15.176 0 0 1-4.818 7.164c-.25.207-.396.516-.396.842v6.045a.985.985 0 0 1-.984.984h-6.344a.985.985 0 0 1-.984-.984V50.65c0-.604-.49-1.093-1.094-1.093h-9.19c-.603 0-1.093.49-1.093 1.093v2.304a.985.985 0 0 1-.984.984h-6.345a.985.985 0 0 1-.984-.984v-4.268c0-.402-.219-.77-.571-.962a15.202 15.202 0 0 1-7.96-13.367c0-8.381 6.82-15.2 15.2-15.2h1.371a1.094 1.094 0 0 0 0-2.187h-1.37c-8.12 0-14.956 5.594-16.86 13.13h-.801a2.683 2.683 0 0 1-2.68-2.68 2.683 2.683 0 0 1 2.68-2.68 1.094 1.094 0 0 0 0-2.187A4.873 4.873 0 0 0 .014 27.42a4.873 4.873 0 0 0 4.867 4.868h.397a17.386 17.386 0 0 0 8.407 17.035v3.631a3.175 3.175 0 0 0 3.171 3.172h6.345a3.175 3.175 0 0 0 3.171-3.172v-1.21h7.002v1.21a3.175 3.175 0 0 0 3.171 3.172h6.345a3.175 3.175 0 0 0 3.171-3.172v-5.54a17.35 17.35 0 0 0 4.889-7.185l2.273-.285a3.191 3.191 0 0 0 2.79-3.161v-5.515c0-1.603-1.199-2.962-2.79-3.161zm-7.64-7.209a17.443 17.443 0 0 0-2.608-1.766 5.34 5.34 0 0 1 3.836-3.432l-1.227 5.198z"/><path d="M43.553 27.899a1.102 1.102 0 0 0-.773-.32c-.288 0-.57.116-.774.32-.203.203-.32.485-.32.773 0 .287.117.57.32.773.204.204.486.32.773.32.288 0 .57-.116.774-.32.203-.203.32-.486.32-.773 0-.288-.117-.57-.32-.773zM32.087 6.505c-.604 0-1.094.49-1.094 1.094v4.338a1.094 1.094 0 0 0 2.188 0V7.6c0-.604-.49-1.094-1.094-1.094zM32.86 2.857a1.101 1.101 0 0 0-.773-.32c-.288 0-.57.117-.773.32-.204.204-.32.486-.32.773 0 .29.116.57.32.774.203.203.485.32.773.32.288 0 .57-.117.773-.32.204-.204.32-.486.32-.774 0-.287-.116-.568-.32-.773zM23.201.125c-.604 0-1.093.49-1.093 1.094v1.86a1.094 1.094 0 0 0 2.187 0v-1.86c0-.604-.49-1.094-1.094-1.094zM12.476 34.356a1.094 1.094 0 0 0-2.188 0v.058a1.094 1.094 0 0 0 1.094 1.087h.007a1.094 1.094 0 0 0 1.087-1.1v-.045zM17.317 42.962a10.139 10.139 0 0 1-4.178-5.006 1.094 1.094 0 1 0-2.043.783 12.335 12.335 0 0 0 5.084 6.091 1.093 1.093 0 0 0 1.137-1.869zM23.201 5.38a4.599 4.599 0 0 0-4.593 4.594 4.599 4.599 0 0 0 4.593 4.594 4.599 4.599 0 0 0 4.594-4.594 4.599 4.599 0 0 0-4.594-4.593zm0 7a2.409 2.409 0 0 1-2.406-2.406 2.409 2.409 0 0 1 2.406-2.406 2.409 2.409 0 0 1 2.407 2.406 2.409 2.409 0 0 1-2.407 2.407zM36.983 23.313h-.985c.433-.7.683-1.525.683-2.407a4.599 4.599 0 0 0-4.594-4.593 4.599 4.599 0 0 0-4.594 4.593c0 .882.25 1.706.683 2.407h-5.412a1.094 1.094 0 0 0 0 2.187h14.219a1.094 1.094 0 0 0 0-2.188zm-4.896 0a2.409 2.409 0 0 1-2.406-2.407 2.409 2.409 0 0 1 2.406-2.406 2.409 2.409 0 0 1 2.406 2.406 2.409 2.409 0 0 1-2.406 2.407z"/></symbol><symbol id="icon-search-2" viewBox="0 0 10.56 10.56"><g data-name="&#x421;&#x43B;&#x43E;&#x439; 2"><g data-name="Layer 1"><path d="M5.28 10.56A5.28 5.28 0 1 0 0 5.28a5.29 5.29 0 0 0 5.28 5.28z"/><path d="M5.9 6.56a2 2 0 1 1 .66-.66l1 1a.47.47 0 1 1-.66.66l-1-1zM4.87 6A1.17 1.17 0 1 0 3.7 4.87 1.17 1.17 0 0 0 4.87 6z"/></g></g></symbol><symbol id="icon-search" viewBox="0 0 12 10.56"><g data-name="&#x421;&#x43B;&#x43E;&#x439; 2"><g data-name="Layer 1"><path d="M0 10.56V0h6.72A5.3 5.3 0 0 1 12 5.28a5.3 5.3 0 0 1-5.28 5.28z"/><path d="M6.51 6.56a2 2 0 1 1 .66-.66l1 1a.47.47 0 1 1-.66.66l-1-1zM5.47 6A1.17 1.17 0 1 0 4.3 4.87 1.17 1.17 0 0 0 5.47 6z"/></g></g></symbol><symbol id="icon-security-on" viewBox="0 0 347.971 347.971"><path d="M317.309 54.367C257.933 54.367 212.445 37.403 173.98 0 135.519 37.403 90.033 54.367 30.662 54.367c0 97.405-20.155 236.937 143.317 293.604 163.484-56.666 143.33-196.198 143.33-293.604zM162.107 225.773l-47.749-47.756 21.379-21.378 26.37 26.376 50.121-50.122 21.378 21.378-71.499 71.502z"/></symbol><symbol id="icon-star" viewBox="0 0 512.002 512.002"><path d="M400.07 502.64c-3.551 0-7.116-.825-10.398-2.5l-133.671-68.19-133.671 68.19a22.888 22.888 0 0 1-23.807-1.836 22.887 22.887 0 0 1-9.215-22.026l22.995-149.648L6.579 219.236a22.885 22.885 0 0 1 12.623-38.644l147.912-24.138 68.49-134.585a22.882 22.882 0 0 1 20.397-12.507 22.882 22.882 0 0 1 20.396 12.507l68.49 134.585L492.8 180.592a22.887 22.887 0 0 1 12.623 38.644L399.7 326.628l22.993 149.648a22.886 22.886 0 0 1-22.623 26.364z"/><path d="M146.585 486.578a22.888 22.888 0 0 1-9.215-22.026l22.995-149.647L54.643 207.512a22.885 22.885 0 0 1-5.447-23.163 22.851 22.851 0 0 1 6.199-9.663l-36.193 5.906a22.886 22.886 0 0 0-12.623 38.644l105.724 107.391-22.996 149.649a22.886 22.886 0 0 0 33.022 23.862l25.267-12.89c-.339-.218-.682-.431-1.011-.67z" opacity=".1"/></symbol><symbol id="icon-support"><path d="M18.025 13.063a1.098 1.098 0 0 0-1.54-.148l-.014.011a1.09 1.09 0 0 0-.141 1.534 1.097 1.097 0 0 0 1.54.147 1.09 1.09 0 0 0 .154-1.545zM28.984 8.439c-2.972 0-5.83.646-8.49 1.92a1.094 1.094 0 0 0 .944 1.973 17.34 17.34 0 0 1 7.546-1.706c9.65 0 17.5 7.85 17.5 17.5 0 2.067-.356 4.089-1.06 6.01a1.094 1.094 0 0 0 2.055.752 19.627 19.627 0 0 0 1.193-6.762c0-10.856-8.832-19.687-19.688-19.687z"/><path d="M56.624 34.33l-1.263-1.14a6.833 6.833 0 0 1-2.25-5.064c0-1.927.82-3.773 2.25-5.064l1.263-1.14c.343-.31.454-.803.277-1.23l-2.924-7.05a1.092 1.092 0 0 0-1.066-.673l-1.7.087a6.825 6.825 0 0 1-5.168-1.988A6.828 6.828 0 0 1 44.055 5.9l.087-1.7a1.094 1.094 0 0 0-.674-1.067L36.419.21a1.094 1.094 0 0 0-1.23.278l-1.14 1.262A6.834 6.834 0 0 1 28.984 4a6.834 6.834 0 0 1-5.063-2.25L22.78.487a1.094 1.094 0 0 0-1.23-.278L14.5 3.133a1.094 1.094 0 0 0-.673 1.067l.086 1.7a6.828 6.828 0 0 1-1.988 5.168 6.825 6.825 0 0 1-5.168 1.988l-1.7-.087a1.094 1.094 0 0 0-1.066.673l-2.924 7.05c-.177.427-.066.92.277 1.23l1.263 1.14a6.833 6.833 0 0 1 2.25 5.064c0 1.927-.82 3.773-2.25 5.064l-1.263 1.14c-.343.31-.454.803-.277 1.23l2.924 7.05c.177.427.604.697 1.066.673l1.7-.087a6.824 6.824 0 0 1 5.168 1.988 6.828 6.828 0 0 1 1.988 5.168l-.087 1.7c-.023.462.246.89.674 1.066l7.05 2.924c.427.177.92.067 1.23-.277l1.14-1.262a6.833 6.833 0 0 1 5.063-2.25c1.927 0 3.773.82 5.064 2.25l1.14 1.262a1.093 1.093 0 0 0 1.23.277l7.05-2.924c.427-.177.697-.604.673-1.066l-.086-1.7a6.828 6.828 0 0 1 1.988-5.168 6.824 6.824 0 0 1 5.168-1.988l1.7.087a1.09 1.09 0 0 0 1.066-.673l2.924-7.05c.177-.427.066-.92-.277-1.23zm-4.372 6.73l-.93-.049a9.023 9.023 0 0 0-6.826 2.626 9.02 9.02 0 0 0-2.626 6.827l.048.93-5.624 2.332-.622-.69a9.024 9.024 0 0 0-6.687-2.971 9.024 9.024 0 0 0-6.688 2.972l-.622.689-5.624-2.333.048-.93a9.019 9.019 0 0 0-2.626-6.826 9.016 9.016 0 0 0-6.827-2.626l-.93.048-2.332-5.624.69-.622a9.024 9.024 0 0 0 2.972-6.687 9.024 9.024 0 0 0-2.972-6.688l-.69-.622 2.333-5.623.93.047a9.019 9.019 0 0 0 6.826-2.626A9.02 9.02 0 0 0 16.1 5.788l-.048-.93 5.624-2.332.622.689a9.024 9.024 0 0 0 6.688 2.972 9.024 9.024 0 0 0 6.687-2.972l.622-.69 5.624 2.333-.048.93a9.019 9.019 0 0 0 2.626 6.826 9.018 9.018 0 0 0 6.827 2.626l.93-.047 2.332 5.623-.69.622a9.024 9.024 0 0 0-2.971 6.688 9.024 9.024 0 0 0 2.972 6.687l.689.622-2.333 5.624z"/><path d="M39.435 38.634l-4.011-4.011a4.093 4.093 0 0 0-5.057-.593l-2.032 1.25-6.505-6.505 1.25-2.031a4.092 4.092 0 0 0-.592-5.057l-4.011-4.011a4.111 4.111 0 0 0-5.808 0c-3.896 3.895-3.896 10.234 0 14.13l12.636 12.636a9.926 9.926 0 0 0 7.065 2.926 9.926 9.926 0 0 0 7.065-2.926 4.112 4.112 0 0 0 0-5.808zm-1.547 4.26a7.894 7.894 0 0 1-1.055.884l-3.875-3.875a1.094 1.094 0 0 0-1.547 1.547l3.355 3.356a7.823 7.823 0 0 1-2.396.375 7.752 7.752 0 0 1-5.518-2.286L14.216 30.258a7.81 7.81 0 0 1-1.907-7.91l3.735 3.735a1.09 1.09 0 0 0 1.546 0 1.094 1.094 0 0 0 0-1.547l-4.257-4.257a7.82 7.82 0 0 1 .882-1.057 1.914 1.914 0 0 1 1.358-.561c.491 0 .983.187 1.357.561l4.01 4.011c.632.631.746 1.603.278 2.364l-1.704 2.767c-.266.431-.2.988.158 1.347l7.728 7.727c.358.358.915.424 1.347.158l2.767-1.703a1.913 1.913 0 0 1 2.363.277l4.011 4.01a1.922 1.922 0 0 1 0 2.715z"/><path d="M33.382 27.032h-3.288a1.451 1.451 0 0 1 1.448-1.382 2.937 2.937 0 0 0 2.934-2.934 2.937 2.937 0 0 0-2.934-2.934h-2.544a1.094 1.094 0 0 0 0 2.188h2.544a.747.747 0 0 1 0 1.493 3.641 3.641 0 0 0-3.637 3.637v1.026c0 .604.49 1.094 1.093 1.094h4.384a1.094 1.094 0 0 0 0-2.188zM41.48 19.81c-.604 0-1.094.489-1.094 1.093v2.554H38.19v-2.525a1.094 1.094 0 0 0-2.188 0v3.619c0 .604.49 1.093 1.094 1.093h3.29v2.496a1.094 1.094 0 0 0 2.187 0v-7.237c0-.604-.49-1.094-1.093-1.094z"/></symbol><symbol id="icon-timer" viewBox="0 0 14.4 20.66"><g data-name="&#x421;&#x43B;&#x43E;&#x439; 2"><g data-name="Layer 1"><rect y="1.46" width="14.4" height="19.2" rx="2.28" ry="2.28"/><rect width="14.4" height="19.2" rx="2.28" ry="2.28"/><path d="M1.65 1.61c0 1.14 1.56 1 1.48.23C3 .67 1.65 1.17 1.65 1.61zm2.66-.2c-.19.14-.21.43.07.65.53.41 2 .16 2.65.16h3.58c.49 0 1.15-.36.55-.82-.28-.21-4.67 0-5.69-.05-.39-.03-.85-.17-1.16.06z"/></g></g></symbol><symbol id="icon-user-1" viewBox="0 0 258.75 258.75"><circle cx="129.375" cy="60" r="60"/><path d="M129.375 150c-60.061 0-108.75 48.689-108.75 108.75h217.5c0-60.061-48.689-108.75-108.75-108.75z"/></symbol><symbol id="icon-user-red" viewBox="0 0 3.84 3.77"><g data-name="&#x421;&#x43B;&#x43E;&#x439; 2"><path d="M.16 3.77A.16.16 0 0 1 0 3.61a1.3 1.3 0 0 1 1.3-1.3h1.24a1.3 1.3 0 0 1 1.3 1.3.16.16 0 0 1-.16.16zm1.75-1.69A1 1 0 1 1 3 1a1 1 0 0 1-1.09 1.08z" data-name="Layer 1"/></g></symbol><symbol id="icon-user" viewBox="0 0 512 512"><g data-name="&#x421;&#x43B;&#x43E;&#x439; 2"><g data-name="Layer 1"><path d="M5.28 10.56A5.28 5.28 0 1 0 0 5.28a5.29 5.29 0 0 0 5.28 5.28z"/><path d="M3 7.15a.2.2 0 0 1-.2-.2A1.65 1.65 0 0 1 4.49 5.3h1.58A1.65 1.65 0 0 1 7.72 7a.2.2 0 0 1-.2.2zM5.27 5a1.32 1.32 0 1 1 1.32-1.32A1.32 1.32 0 0 1 5.27 5z"/></g></g></symbol><symbol id="icon-website" viewBox="0 0 439 439"><path d="M433.11 5.42A17.56 17.56 0 0 0 420.27 0h-402C13.33 0 9.05 1.8 5.44 5.42A17.55 17.55 0 0 0 0 18.27v402c0 4.94 1.8 9.23 5.43 12.84a17.57 17.57 0 0 0 12.85 5.43h401.99c4.95 0 9.23-1.81 12.84-5.43a17.56 17.56 0 0 0 5.42-12.85V18.27c0-4.95-1.8-9.23-5.42-12.85zM201 347.17a8.9 8.9 0 0 1-2.57 6.57 8.92 8.92 0 0 1-6.57 2.57H54.82a8.91 8.91 0 0 1-6.57-2.57 8.92 8.92 0 0 1-2.56-6.57V54.81c0-2.66.85-4.85 2.56-6.56a8.9 8.9 0 0 1 6.57-2.57h137.05a8.9 8.9 0 0 1 6.56 2.57A8.88 8.88 0 0 1 201 54.8v292.36zm191.86-109.63c0 2.66-.86 4.85-2.57 6.56a8.87 8.87 0 0 1-6.56 2.57H246.69a8.87 8.87 0 0 1-6.57-2.57 8.88 8.88 0 0 1-2.57-6.56V54.8c0-2.66.86-4.85 2.57-6.56a8.9 8.9 0 0 1 6.57-2.57h137.04a8.9 8.9 0 0 1 6.56 2.57 8.89 8.89 0 0 1 2.57 6.56v182.73z"/></symbol></svg>