<svg xmlns="http://www.w3.org/2000/svg" viewBox="0 0 4.32 4.32"><g data-name="Слой 2"><path d="M2.16 0a2.16 2.16 0 102.16 2.16A2.16 2.16 0 002.16 0zm0 3.89a1.73 1.73 0 111.73-1.73 1.73 1.73 0 01-1.73 1.73zM2.23 2c.38.1.79.26.79.74s-.26.54-.59.6v.36h-.51v-.4a.7.7 0 01-.62-.64h.37c0 .2.16.35.5.35s.45-.19.45-.3-.08-.3-.51-.4-.78-.31-.78-.69A.65.65 0 011.92 1V.65h.5V1a.67.67 0 01.58.66h-.41c0-.21-.12-.35-.42-.35s-.45.13-.45.31.12.26.51.38z" fill="#999" fill-rule="evenodd" data-name="Layer 1"/></g></svg>