<svg width="13" height="8" fill="none" xmlns="http://www.w3.org/2000/svg"><path d="M12.884 7.136c-.035-.064-.251-.57-1.291-1.611-1.089-1.09-.943-.913.369-2.799C12.76 1.578 13.08.877 12.98.578c-.095-.286-.683-.21-.683-.21L10.345.38s-.145-.021-.253.048a.59.59 0 00-.172.226s-.31.888-.722 1.644c-.87 1.594-1.22 1.678-1.361 1.58-.331-.231-.248-.928-.248-1.422C7.588.91 7.805.266 7.165.1c-.213-.055-.37-.092-.913-.098C5.555-.006 4.964.004 4.63.18c-.222.117-.394.38-.29.394.13.018.423.085.578.313.2.293.193.954.193.954s.116 1.819-.269 2.045c-.264.155-.625-.161-1.401-1.608-.398-.74-.698-1.56-.698-1.56S2.685.566 2.582.485c-.125-.1-.301-.13-.301-.13L.424.365s-.28.01-.382.14C-.048.622.035.862.035.862s1.455 3.67 3.1 5.52c1.511 1.696 3.226 1.584 3.226 1.584h.777s.235-.028.354-.167c.11-.128.106-.368.106-.368s-.015-1.125.47-1.29c.476-.163 1.089 1.087 1.738 1.568.49.363.864.284.864.284l1.736-.027s.909-.06.478-.83z"/></svg>