<svg width="102" height="19" fill="none" xmlns="http://www.w3.org/2000/svg"><g clip-path="url(#clip0_135_3364)" fill="#111"><path d="M1.425 17.343a6.865 6.865 0 01-1.264-4.307V6.65a6.95 6.95 0 011.185-4.384c.87-1 2.213-1.462 4.189-1.462s3.24.462 4.03 1.308a5.423 5.423 0 011.186 3.769V7.42H6.878V5.651a3.692 3.692 0 00-.237-1.538 1.12 1.12 0 00-.456-.473 1.164 1.164 0 00-.65-.143c-.553 0-.949.154-1.107.539a4.846 4.846 0 00-.237 1.692v8.23a3.111 3.111 0 00.316 1.616c.158.385.554.539 1.107.539.553 0 .87-.154 1.027-.539.18-.52.26-1.067.237-1.615v-1.846h3.873v1.538a5.775 5.775 0 01-1.186 3.846c-.79.923-2.133 1.385-4.03 1.385-1.897-.077-3.32-.539-4.11-1.539zM15.414 1.036h4.504l3.32 17.538h-3.636l-.632-3.692h-2.608l-.632 3.692h-3.715l3.399-17.538zm3.24 11.538l-.949-6.846-.948 6.846h1.897zm7.349-8.615h-2.686V1.036h9.404v2.846h-2.687v14.692h-4.03V3.96zm13.91-2.923h6.954v1.846h-4.504v5.77h3.635v1.768h-3.635v6.462h4.504v1.77h-7.033V1.035h.079zm9.009 0h1.739l5.137 11.615V1.036h2.054v17.538h-1.58l-5.216-12v12h-2.134V1.036zm11.301 0h6.955v1.846h-4.505v5.77h3.636v1.768h-3.636v6.462h4.505v1.77h-6.955V1.035zm9.01 0h3.635a6.452 6.452 0 014.03 1.077c.87.692 1.265 1.923 1.265 3.538 0 2.23-.711 3.616-2.213 4.077l2.53 8.77h-2.45l-2.371-8.232h-1.976v8.231h-2.53V1.036h.08zm3.477 7.538a3.524 3.524 0 002.292-.615c.474-.385.711-1.154.711-2.308a4.846 4.846 0 00-.237-1.692 1.974 1.974 0 00-.87-.923 3.69 3.69 0 00-1.738-.308h-1.106v5.77h.948v.076zm8.614 8.693a7.613 7.613 0 01-1.106-4.462V6.959a12.26 12.26 0 01.395-3.308 3.916 3.916 0 011.502-2c.882-.508 1.9-.75 2.924-.692 1.66 0 2.845.384 3.556 1.23a5.77 5.77 0 011.106 3.847v.615h-2.37v-.538a11.04 11.04 0 00-.159-1.923 1.533 1.533 0 00-.632-1 2.493 2.493 0 00-1.501-.385 2.417 2.417 0 00-1.58.462 1.7 1.7 0 00-.632 1.23 14.01 14.01 0 00-.16 2.077v6.539a6.815 6.815 0 00.475 2.923c.316.615.948.846 1.897.846.374.045.754-.018 1.091-.182.338-.165.618-.422.805-.741a6.908 6.908 0 00.554-3.077v-1.23h-2.292v-1.77h4.584v8.692H88.2l-.237-2a3.143 3.143 0 01-1.226 1.658 3.288 3.288 0 01-2.014.573 4.046 4.046 0 01-1.899-.352 3.932 3.932 0 01-1.5-1.186zm13.514-4.847L90.966 1.113h2.37l2.767 8.461 2.687-8.461h2.371L97.288 12.42v6.154h-2.37V12.42h-.08z"/></g><defs><clipPath id="clip0_135_3364"><path fill="#fff" transform="translate(.16 .805)" d="M0 0h101v18H0z"/></clipPath></defs></svg>