<svg width="16" height="14" fill="none" xmlns="http://www.w3.org/2000/svg"><path d="M11.85 6.801C10.169 4.8 6.834 4.806 5.147 6.8a4.504 4.504 0 00-.236 5.663 1.82 1.82 0 001.45.726h4.278a1.82 1.82 0 001.45-.726 4.498 4.498 0 00-.237-5.66zM5.394 8.768c-.077.165-.04.479-.286.485a.205.205 0 01-.2-.246c.057-.188.067-.569.354-.495a.203.203 0 01.132.256zm1.453-1.81c-.427.25-.79.595-1.065 1.007a.204.204 0 01-.339-.225c.139-.247 1.229-1.489 1.475-1.06a.204.204 0 01-.071.278z" fill="#42474D"/><path d="M5.072 6.283a4.813 4.813 0 011.36-.938l-.238-1.68a.33.33 0 01.329-.376h3.953a.33.33 0 01.329.378l-.238 1.678a4.79 4.79 0 011.357.936l.343-2.407a1.808 1.808 0 00-1.791-2.062H6.523A1.818 1.818 0 004.73 3.874l.341 2.41z" fill="#42474D"/></svg>