<svg width="83" height="83" fill="none" xmlns="http://www.w3.org/2000/svg"><g clip-path="url(#clip0_72_65)" fill="#fff"><path fill-rule="evenodd" clip-rule="evenodd" d="M3.713 81.398A3.721 3.721 0 010 77.685V48.373a3.717 3.717 0 013.713-3.713h7.051v18.373c0 1.058 1.609 1.057 1.609 0V44.66h6.87a3.706 3.706 0 013.707 3.714v29.31a3.717 3.717 0 01-3.713 3.714H3.713zm11.703-4.062c-4.123 0-4.115-6.26 0-6.26 4.116 0 4.123 6.26 0 6.26z"/><path fill-rule="evenodd" clip-rule="evenodd" d="M51.537 79.072H25.551c-.383 0-3.196-1.461-3.747-1.73a.81.81 0 01-.455-.724V49.365c0-2.353 10.532-.328 10.167-18.881-.033-1.71.034-3.613 1.32-4.512.798-.556 1.897-.57 3.252-.04 2.922 1.146 5.114 5.59 5.201 10.557.074 3.914-.1 8.05-2.768 12.072h19.92a.79.79 0 01.477.144 4.373 4.373 0 01.78 8.167c2.477 2.32 1.47 6.46-1.776 7.392 2.372 2.622.79 6.863-2.733 7.271 2.536 3.039-.088 7.557-3.457 7.557a.917.917 0 01-.195-.02z"/><path d="M51.046 44.298v-29.63h9.462c3.818 0 6.598.774 8.341 2.323 1.77 1.55 2.656 3.68 2.656 6.391a9.82 9.82 0 01-1.079 4.524c-.72 1.41-1.923 2.545-3.61 3.403-1.66.857-3.929 1.286-6.806 1.286h-2.698v11.703h-6.266zm-3.32-4.44v-4.026h15.977v4.026H47.726zm0-7.263V27.45h12.16v5.146h-12.16zm11.661-5.146c1.19 0 2.213-.124 3.071-.373.858-.277 1.522-.706 1.992-1.287.47-.58.706-1.314.706-2.2 0-1.272-.402-2.213-1.204-2.821-.802-.637-2.061-.955-3.776-.955h-2.864v7.636h2.075z"/><path fill-rule="evenodd" clip-rule="evenodd" d="M65.392 51.182c-1.977 0-2.455-2.78-.587-3.434 8.774-3.07 14.656-11.398 14.656-20.69 0-12.09-9.835-21.924-21.925-21.924A21.862 21.862 0 0036.24 21.84c-.554 2.266-3.992 1.419-3.44-.839a25.4 25.4 0 0124.737-19.4C71.58 1.602 83 13.022 83 27.065c0 10.628-6.514 21.153-17.08 24.048a2.01 2.01 0 01-.528.069z"/></g><defs><clipPath id="clip0_72_65"><path fill="#fff" d="M0 0h83v83H0z"/></clipPath></defs></svg>