<svg width="77" height="77" fill="none" xmlns="http://www.w3.org/2000/svg"><g clip-path="url(#clip0_72_98)" fill="#171818"><path d="M4.5 72.5V30.443h4.32v5.315h35.758V0H8.821v5.315H4.499V0H0v77h39.12a12.46 12.46 0 01-2.392-4.5H4.498zM18.641 6.859h9.726c3.978 0 7.215 3.236 7.215 7.214s-3.237 7.215-7.215 7.215h-5.214v7.818h-4.512V6.858zM4.499 9.814h4.322v16.129H4.499V9.814zm36.245 59.221c0 4.392 3.573 7.965 7.965 7.965 4.392 0 7.965-3.573 7.965-7.965 0-4.392-3.573-7.965-7.965-7.965-4.392 0-7.965 3.573-7.965 7.965z"/><path d="M61.002 66.917H77V47.252H44.124L27.18 54.173h5.96v4.512h-5.968v8.232h9.244c1.009-5.874 6.135-10.359 12.293-10.359 6.157 0 11.284 4.485 12.293 10.359zM77 42.74V31.259H57.293L48.31 42.74H77zM77 77v-4.5H60.69a12.46 12.46 0 01-2.392 4.5H77zM31.071 14.072a2.706 2.706 0 00-2.703-2.703h-5.214v5.406h5.214a2.706 2.706 0 002.703-2.703z"/></g><defs><clipPath id="clip0_72_98"><path fill="#fff" d="M0 0h77v77H0z"/></clipPath></defs></svg>