<svg width="77" height="77" viewBox="0 0 77 77" fill="none" xmlns="http://www.w3.org/2000/svg">
<g clip-path="url(#clip0_72_98)">
<path d="M4.49924 72.5008V30.4422H8.82086V35.7573H44.5782V0H8.82086V5.31526H4.49924V0H0V77H39.1193C38.0345 75.6973 37.2122 74.1702 36.7275 72.5008H4.49924ZM18.642 6.85766H28.3683C32.3463 6.85766 35.5829 10.0941 35.5829 14.0722C35.5829 18.0503 32.3463 21.2867 28.3683 21.2867H23.1537V29.1052H18.642V6.85766ZM4.49924 9.81449H8.82086V25.943H4.49924V9.81449Z" fill="#171818"/>
<path d="M40.7438 69.0348C40.7438 73.4268 44.317 76.9998 48.709 76.9998C53.1008 76.9998 56.674 73.4267 56.674 69.0348C56.674 64.643 53.1008 61.0698 48.709 61.0698C44.317 61.0697 40.7438 64.6428 40.7438 69.0348Z" fill="#171818"/>
<path d="M61.0022 66.9169H77V47.2518H44.124L27.1805 54.1731H33.1398V58.6848H27.1723V66.9169H36.4156C37.4249 61.043 42.5514 56.5583 48.709 56.5583C54.8664 56.5582 59.9929 61.043 61.0022 66.9169Z" fill="#171818"/>
<path d="M77 42.74V31.2589H57.2934L48.3103 42.74H77Z" fill="#171818"/>
<path d="M77 77V72.5008H60.6903C60.2056 74.1704 59.3832 75.6973 58.2985 77H77Z" fill="#171818"/>
<path d="M31.0712 14.0722C31.0712 12.5818 29.8587 11.3694 28.3683 11.3694H23.1537V16.7749H28.3683C29.8586 16.7749 31.0712 15.5624 31.0712 14.0722Z" fill="#171818"/>
</g>
<defs>
<clipPath id="clip0_72_98">
<rect width="77" height="77" fill="white"/>
</clipPath>
</defs>
</svg>
