<svg width="97" height="81" fill="none" xmlns="http://www.w3.org/2000/svg"><path d="M86.374 15.983H10.626a5.427 5.427 0 00-5.423 5.424V55.68h86.594V21.407a5.427 5.427 0 00-5.423-5.424zM37 34.016c-.059.269-11.106 14.554-11.106 14.554-.557.935-2.025.939-2.582 0 0 0-10.932-14.159-10.969-14.22a1.525 1.525 0 01-.046-1.413l3.023-6.259a3.623 3.623 0 013.236-2.036H30.65c1.368 0 2.644.806 3.236 2.036l3.023 6.26c.165.34.2.718.092 1.078zm44.436 15.268H57.858c-.85 0-1.519-.684-1.519-1.52 0-.835.668-1.519 1.52-1.519h23.577c1.988.036 2.002 3 0 3.039zm0-7.55h-14.28c-1.991-.027-2.001-3.001 0-3.039h14.28c1.993.036 2 3.01 0 3.038z" fill="#fff"/><path d="M30.65 27.68h-1.884l.698 4.406h3.662L31.15 28a.551.551 0 00-.502-.32zm-10.21 0h-1.884a.551.551 0 00-.5.32l-1.976 4.086h3.662l.698-4.406zm7.399 13.415l4.618-5.97h-3.114l-1.504 5.97zm-3.236.425l1.61-6.395h-3.22l1.61 6.396zm-7.854-6.395l4.618 5.97-1.504-5.97h-3.114zm6.76-7.445l-.684 4.406h3.555l-.683-4.406h-2.188zM5.203 58.718v5.104a5.427 5.427 0 005.423 5.424h75.748a5.427 5.427 0 005.423-5.423v-5.105H5.203z" fill="#fff"/></svg>