<svg width="87" height="86" fill="none" xmlns="http://www.w3.org/2000/svg"><g clip-path="url(#clip0_72_94)"><path d="M77.12 45.521c-8.224-3.632-14.863-.134-18.75 3.064a25.451 25.451 0 013.3 5.384 1.495 1.495 0 01-1.8 2.072 1.496 1.496 0 01-.87-.721c-.762-1.43-2.078-3.694-2.26-3.955a18.511 18.511 0 00-20.752-6.761l-.627 1.41a9.534 9.534 0 01-2.274 10.373 1.503 1.503 0 01-1.84.212 1.466 1.466 0 01-.209-2.336 5.19 5.19 0 001.075-1.224c1.475-1.93.827-4.702.389-6.89l-.554-3.094-2.706-15.154a3.55 3.55 0 002.108-1.405l1.017 1.106a3.317 3.317 0 005.114.732l1.734-1.644-3.065-3.482a2.635 2.635 0 00-1.465-1.061l-1.42-.688a1.497 1.497 0 011.315-2.69c.956.405 1.88.88 2.766 1.42a55.931 55.931 0 014.038 4.439l1.226-1.18-3.574-3.872a2.456 2.456 0 00-1.256-1c-.373-.155-1.316-.63-1.645-.793a1.498 1.498 0 111.316-2.69l1.33.658a5.26 5.26 0 012.528 1.868c.82.877 2.617 2.872 3.454 3.766a3.43 3.43 0 001.002-4.917l-6.086-7.966a6.665 6.665 0 00-8.538-1.734l-13.278 7.503a9.523 9.523 0 00-4.59 6.053L4.27 58.329c-1.58 5.234-1.096 9.506 3.888 10.447a3.472 3.472 0 011.495.672c14.35 9.988 24.07 11.604 35.991 10.462a36.661 36.661 0 008.314-2.092 1.505 1.505 0 011.226.03c4.311 2.49 13.887 1.47 17.195.388a18.324 18.324 0 006.505-1.973 16.055 16.055 0 007.506-9.938c4.156-14.886-9.151-20.759-9.27-20.804zm-54.248 6.576a1.488 1.488 0 012.901.673 4.62 4.62 0 002.811 5.365 1.498 1.498 0 01-.863 2.802 1.483 1.483 0 01-.557-.172 7.565 7.565 0 01-4.292-8.668zM47.05 73.618a1.413 1.413 0 01-1.196 1.016 40.884 40.884 0 01-21.053-2.884 1.492 1.492 0 011.122-2.765 38.056 38.056 0 0019.528 2.69 1.49 1.49 0 011.6 1.943zM81.577 59.66a1.485 1.485 0 01-1.9-.911 10.58 10.58 0 00-5.292-5.65 10.01 10.01 0 00-6.61-.657 1.527 1.527 0 01-1.808-1.091c-.534-3.479 7.663-2.081 9.599-1.002a13.355 13.355 0 016.923 7.398 1.498 1.498 0 01-.912 1.913z" fill="#171818"/></g><defs><clipPath id="clip0_72_94"><path fill="#fff" d="M0 0h87v86H0z"/></clipPath></defs></svg>