<svg width="71" height="71" fill="none" xmlns="http://www.w3.org/2000/svg"><g clip-path="url(#clip0_72_107)" fill="#171818"><path d="M35.5 20.8c-8.029 0-14.56 6.533-14.56 14.561 0 8.029 6.531 14.56 14.56 14.56s14.56-6.531 14.56-14.56c0-8.028-6.531-14.56-14.56-14.56zm9.791 11.872L34.198 43.766c-.407.406-.94.609-1.471.609a2.073 2.073 0 01-1.471-.61l-5.547-5.546a2.08 2.08 0 112.942-2.942l4.076 4.076 9.623-9.623a2.08 2.08 0 012.941 2.942z"/><path d="M60.46 11.094c-8.386 0-16.27-3.266-22.201-9.197L36.971.61a2.08 2.08 0 00-2.942 0l-1.288 1.288c-5.93 5.93-13.815 9.197-22.202 9.197a2.08 2.08 0 00-2.08 2.08v20.748c0 16.678 10.595 31.533 26.364 36.965a2.08 2.08 0 001.354 0c15.77-5.432 26.364-20.287 26.364-36.965V13.174a2.08 2.08 0 00-2.08-2.08zM35.5 54.082c-10.323 0-18.72-8.398-18.72-18.72 0-10.323 8.397-18.721 18.72-18.721 10.323 0 18.72 8.398 18.72 18.72 0 10.323-8.397 18.721-18.72 18.721z"/></g><defs><clipPath id="clip0_72_107"><path fill="#fff" d="M0 0h71v71H0z"/></clipPath></defs></svg>