<svg xmlns="http://www.w3.org/2000/svg" viewBox="0 0 3.78 4.32"><defs><style>.cls-3{fill-rule:evenodd;fill:#cad1d8}</style></defs><g id="Слой_2" data-name="Слой 2"><g id="Layer_1" data-name="Layer 1"><path d="M.81 0a.27.27 0 0 0-.27.27v3.78a.27.27 0 0 0 .27.27h2.7a.27.27 0 0 0 .27-.27v-3L2.7 0z" fill-rule="evenodd" fill="#e2e5e7"/><path d="M3 1.08h.81L2.7 0v.81a.27.27 0 0 0 .3.27z" fill="#b0b7bd" fill-rule="evenodd"/><path class="cls-3" d="M3.78 1.89l-.81-.81h.81v.81z"/><path d="M.13 2h3a.14.14 0 0 1 .14.14v1.37a.14.14 0 0 1-.14.14h-3A.14.14 0 0 1 0 3.51V2.16A.13.13 0 0 1 .13 2z" fill="#f15642"/><path d="M.59 2.56a.07.07 0 0 1 .07-.07h.25a.27.27 0 0 1 0 .51H.73v.14a.07.07 0 0 1-.07.07.07.07 0 0 1-.07-.07v-.58zm.14.06v.27h.18a.13.13 0 0 0 0-.27zm.66.62a.07.07 0 0 1-.07-.07v-.61a.07.07 0 0 1 .07-.07h.25a.37.37 0 0 1 0 .75zm.07-.62v.48h.18a.24.24 0 0 0 0-.48zm.83.01v.17h.28a.08.08 0 0 1 .08.08.07.07 0 0 1-.08.06h-.28v.23a.06.06 0 0 1-.06.07.07.07 0 0 1-.08-.07v-.61a.07.07 0 0 1 .08-.07h.38a.07.07 0 0 1 .08.07.07.07 0 0 1-.08.07z" fill="#fff" fill-rule="evenodd"/><path class="cls-3" d="M3.11 3.65H.54v.13h2.57a.14.14 0 0 0 .14-.13v-.14a.14.14 0 0 1-.14.14z"/></g></g></svg>