<svg xmlns="http://www.w3.org/2000/svg" viewBox="0 0 14.4 12.8"><g data-name="Слой 2"><path d="M4.18 7.42a9 9 0 0 0 1.17-.07V3.29a9 9 0 0 0-1.17-.07C1.87 3.21 0 4.06 0 5.11v.41c0 1 1.87 1.9 4.18 1.9zm6 4.19c-2 0-3.7-.65-4.1-1.51a.92.92 0 0 0-.09.39v.41c0 1 1.87 1.9 4.18 1.9s4.18-.85 4.18-1.9v-.41a.93.93 0 0 0-.09-.39c-.4.86-2.08 1.51-4.1 1.51zm0-2.12c2 0 3.7-.65 4.1-1.51a.93.93 0 0 1 .09.39v.41c0 1-1.87 1.9-4.18 1.9S6 9.83 6 8.78v-.41A.92.92 0 0 1 6.12 8c.4.86 2.08 1.51 4.1 1.51zm0-2.23c-2 0-3.7-.65-4.1-1.51a.92.92 0 0 0-.08.38v.41c0 1 1.87 1.9 4.18 1.9s4.18-.85 4.18-1.9v-.41a.93.93 0 0 0-.09-.39c-.4.86-2.08 1.51-4.1 1.51zm0-2.12c2 0 3.7-.65 4.1-1.51a.93.93 0 0 1 .12.37v.41c0 1-1.87 1.9-4.18 1.9S6 5.48 6 4.43V4a.92.92 0 0 1 .09-.39c.4.86 2.08 1.51 4.1 1.51zm0-5.14C7.91 0 6 .85 6 1.9v.41c0 1 1.87 1.9 4.18 1.9s4.18-.85 4.18-1.9V1.9c0-1-1.87-1.9-4.18-1.9zM5.35 10.49v-.09a9 9 0 0 1-1.17.08c-2 0-3.7-.65-4.1-1.51a.93.93 0 0 0-.08.38v.41c0 1 1.87 1.9 4.18 1.9a8.86 8.86 0 0 0 1.32-.1 1.49 1.49 0 0 1-.16-.66v-.41zm-1.17-.95C1.87 9.54 0 8.69 0 7.64v-.41a.93.93 0 0 1 .09-.39c.4.86 2.08 1.51 4.1 1.51a8.94 8.94 0 0 0 1.17-.08v1.19a9 9 0 0 1-1.18.08z" fill="#008dd2" fill-rule="evenodd" data-name="Layer 1"/></g></svg>