<svg xmlns="http://www.w3.org/2000/svg" viewBox="0 0 3.36 2.64"><g data-name="Слой 2"><path d="M.3 2.64a.29.29 0 0 1-.2-.07l1-1h.07l.17.12.18.09a.54.54 0 0 0 .21 0 .54.54 0 0 0 .21 0l.18-.09.17-.12h.07l1 1a.29.29 0 0 1-.2.07zM.3 0a.29.29 0 0 0-.21.09A.29.29 0 0 0 0 .3a.49.49 0 0 0 .09.28.89.89 0 0 0 .23.23l.68.48.19.13h.05l.1.07.1.06.11.05h.18l.11-.05H2l.1-.07h.05l.19-.13.3-.21L3 .81A.94.94 0 0 0 3.26.6a.44.44 0 0 0 .1-.26.38.38 0 0 0-.08-.24.27.27 0 0 0-.22-.1zM.19 1A1 1 0 0 1 0 .85V2.3l.84-.84L.19 1zm3 0l-.65.45.84.84V.85a1 1 0 0 1-.21.15z" fill="#b3b3b3" fill-rule="evenodd" data-name="Layer 1"/></g></svg>