<svg xmlns="http://www.w3.org/2000/svg" viewBox="0 0 24 24"><defs><style>.cls-2{fill-rule:evenodd;fill:#fff}</style></defs><g id="Слой_2" data-name="Слой 2"><g id="Layer_1" data-name="Layer 1"><path d="M12 24A12 12 0 1 0 0 12a12 12 0 0 0 12 12z" fill-rule="evenodd" fill="#ef7f1a"/><path class="cls-2" d="M6.37 7.69a1.29 1.29 0 0 0 1.26 1.58h2.75a1.43 1.43 0 0 0 .16-2.86 1.62 1.62 0 0 0-2.35-.8 1.43 1.43 0 1 0-1.82 2.08zM9 6.13a.86.86 0 0 1 .85.72l.06.35h.44a.68.68 0 0 1 0 1.36H7.63a.54.54 0 0 1 0-1.07h.09l.47.08v-.54a.87.87 0 0 1 .81-.9zm-2-.4a.68.68 0 0 1 .63.44 1.62 1.62 0 0 0-.2.54 1.28 1.28 0 0 0-.68.29A.68.68 0 0 1 7 5.73zm0 0"/><path class="cls-2" d="M14.91 12.46l.9.52a2.66 2.66 0 0 0 2.19.22l.44-.15-.09-.45a2.67 2.67 0 0 0-1.28-1.79L15 9.63V7.28a2.67 2.67 0 0 0-.91-2L13.77 5l-.35.3a2.67 2.67 0 0 0-.91 2v2.33l-2 1.17a2.67 2.67 0 0 0-1.31 1.79l-.09.41.44.15a2.66 2.66 0 0 0 2.18-.15l.9-.52-.25 4.62H5.57v.75h12.84v-.75h-3.25l-.25-4.62zm-3.55-.14a1.91 1.91 0 0 1-1.37.21 1.92 1.92 0 0 1 .87-1.08l2.29-1.32.13-.22V7.28A1.92 1.92 0 0 1 13.77 6a1.91 1.91 0 0 1 .5 1.29v2.63l.13.22 2.28 1.32a1.91 1.91 0 0 1 .87 1.08 1.91 1.91 0 0 1-1.37-.21L13.9 11h-.26l-2.29 1.32zm2.41-.52l.36.21.18 3.21h-1.07l.18-3.22.36-.21zm-.63 5.28L13.2 16h1.15l.06 1.1zm0 0"/><path class="cls-2" d="M13.4 10h.74v.74h-.74zm0 0"/></g></g></svg>