<svg xmlns="http://www.w3.org/2000/svg" viewBox="0 0 24 24"><g data-name="Слой 2"><g data-name="Layer 1"><circle cx="12" cy="12" r="12" fill="#c82369"/><path d="M10.49 6.9h3v.77h-3V6.9zm7.38 10.31V7.45h-2.6V4.82H8.73V9.2h-2.6v8h-.71v.8h13.16v-.77zM14.5 5.59h-5v11.62h5V5.59zm2.6 7.57v1.7h-1.83v-1.7zm-1.83-.77v-1.7h1.83v1.7zm1.83-2.47h-1.83v-1.7h1.83v1.7zm-8.37 5.21H6.9V10h1.83v5.16zm-1.83.77h1.83v1.31H6.9V15.9zm8.37-.27h1.83v1.58h-1.83v-1.58zm-4.78-.5h3v.77h-3v-.77zm0-1.65h3v.77h-3v-.77zm0-1.65h3v.77h-3v-.77zm0-1.65h3V11h-3v-.77zm0-1.65h3v.77h-3z" fill="#fff" fill-rule="evenodd"/></g></g></svg>