<svg xmlns="http://www.w3.org/2000/svg" viewBox="0 0 5.76 5.76"><g data-name="Слой 2"><path d="M2.88 2.39a.5.5 0 1 0-.5-.49.49.49 0 0 0 .5.49zm0-2.39A2.88 2.88 0 1 1 0 2.88 2.88 2.88 0 0 1 2.88 0zm0 .88a1 1 0 1 1-1 1 1 1 0 0 1 1-1zM4 3.3A.22.22 0 0 0 4 3a.23.23 0 0 0-.26-.11.41.41 0 0 0-.12.11 1.36 1.36 0 0 1-1.5 0L2 2.92a.25.25 0 0 0-.28.41l.09.07a1.56 1.56 0 0 0 .83.3l-.05.05-.68.69a.25.25 0 0 0-.08.17.27.27 0 0 0 .17.25.22.22 0 0 0 .27 0l.53-.53s.07-.05.12 0l.52.53a.25.25 0 0 0 .16.08.27.27 0 0 0 .26-.16.23.23 0 0 0-.05-.27l-.69-.7-.04-.11a2 2 0 0 0 .5-.11A1.22 1.22 0 0 0 4 3.3z" fill="#b3b3b3" fill-rule="evenodd" data-name="Layer 1"/></g></svg>