<svg viewBox="0 0 33 28" fill="none" xmlns="http://www.w3.org/2000/svg"><path d="M14.745 13.894h1.958A19.948 19.948 0 0025 11.411v-5.8c-2.647-1.542-7.135-2.542-11.4-2.61a5.445 5.445 0 00-3.899 1.558 5.686 5.686 0 00-1.7 3.91 5.51 5.51 0 00.688 2.738 10.706 10.706 0 011.22 5.146v3.026c0 .73.282 1.018.638 1.018h.349v3.518a.866.866 0 00.133.746.835.835 0 00.663.339.815.815 0 00.664-.34.856.856 0 00.133-.745V20.43h4.355a.514.514 0 00.493-.276.544.544 0 00-.036-.572l-1.029-1.763a.542.542 0 01-.075-.28v-2.298h-1.451a.651.651 0 01-.517-.168.679.679 0 01-.221-.506.692.692 0 01.221-.505.661.661 0 01.517-.169zm-1.99-4.315a1.83 1.83 0 01-1.039-.318 1.89 1.89 0 01-.688-.856 1.938 1.938 0 01-.103-1.102 1.91 1.91 0 01.516-.974 1.822 1.822 0 012.037-.394c.34.149.628.397.829.714a1.929 1.929 0 01-.255 2.383 1.838 1.838 0 01-1.298.547z" fill="#42474D"/></svg>