<svg viewBox="0 0 33 28" fill="none" xmlns="http://www.w3.org/2000/svg"><path d="M16.956 3.708a.893.893 0 100 1.785.893.893 0 000-1.785zm.122 2.462l-1.16-.156a.295.295 0 00-.324.249l-.347 2.636a.289.289 0 00.284.33h1.158a.296.296 0 00.29-.254l.33-2.48a.29.29 0 00-.22-.325h-.011zm6.287-3.911l-.423-1.078a.296.296 0 00-.377-.162L18.19 2.757a.295.295 0 00-.162.377l.429 1.078a.288.288 0 00.376.162l4.37-1.738a.289.289 0 00.173-.377h-.011z" fill="#42474D"/><path d="M21.968 6.622H20.81a.284.284 0 00-.284.267l-.26 3.79h-9.271l-.261-3.79a.284.284 0 00-.284-.267H9.29a.29.29 0 00-.29.307l1.16 17.232a2.317 2.317 0 002.317 2.162h6.299a2.318 2.318 0 002.317-2.162l1.16-17.232a.29.29 0 00-.285-.307zM13.37 23.854h-.057a.724.724 0 01-.719-.672l-.58-7.532a.723.723 0 111.443-.11l.58 7.532a.726.726 0 01-.667.782z" fill="#42474D"/></svg>