<svg viewBox="0 0 33 28" fill="none" xmlns="http://www.w3.org/2000/svg"><path d="M22.705 4a5.907 5.907 0 00-3.544 1.214 5.99 5.99 0 00-2.12 3.11 5.99 5.99 0 00-2.15-3.132A5.906 5.906 0 0011.303 4C7.833 4 5 7.427 5 11.165 5 17.276 11.06 22.204 17 24c5.94-1.795 12-6.724 12-12.835C29.008 7.427 26.184 4 22.705 4zm3.851 9.67h-5.664a.5.5 0 01-.485-.376l-.478-1.868-1.845 7.433a.499.499 0 01-.477.384.5.5 0 01-.486-.376l-1.82-6.642-1.32 4.896a.515.515 0 01-.469.376.507.507 0 01-.485-.4l-.76-3.468h-4.8a.21.21 0 01-.21-.172l-.114-.685a.132.132 0 01.074-.143.13.13 0 01.056-.012h5.373a.49.49 0 01.485.4l.389 1.844 1.286-4.741a.507.507 0 01.486-.375.507.507 0 01.485.375l1.796 6.569 1.821-7.401a.514.514 0 01.49-.371.507.507 0 01.49.37l.914 3.379h5.43a.128.128 0 01.1.046.132.132 0 01.029.109l-.114.685a.213.213 0 01-.178.164z" fill="#42474D"/></svg>