<svg viewBox="0 0 33 28" fill="none" xmlns="http://www.w3.org/2000/svg"><path d="M18.667 7.338a2.192 2.192 0 11-4.383 0 2.192 2.192 0 014.383 0zm-7.915 18.683l1.16-1.46 2.32-2.923 1.72-2.183.146-.189a1.024 1.024 0 00-1.599-1.28l-1.16 1.46-2.277 2.923-1.72 2.183-.154.189a1.023 1.023 0 001.59 1.28h-.026zm11.482 0l-1.16-1.46-2.32-2.923c-.577-.73-1.152-1.46-1.72-2.183a1.58 1.58 0 00-.146-.189 1.023 1.023 0 011.59-1.28l1.16 1.46 2.32 2.923 1.72 2.183.146.189a1.022 1.022 0 11-1.59 1.28z" fill="#42474D"/><path d="M20.274 5.103a10.494 10.494 0 00-1.409-2.071 8.86 8.86 0 00-.722-.782.946.946 0 00-1.28 0 .86.86 0 000 1.237c.306.303.593.624.859.963a9.16 9.16 0 011.066 1.719c.134.324.234.66.3 1.005.022.22.022.442 0 .662a4.13 4.13 0 01-.249.902 2.992 2.992 0 01-.326.55c-.103.127-.221.24-.353.336a2.224 2.224 0 01-.395.223 3.703 3.703 0 01-.507.138h-1.573a3.433 3.433 0 01-.507-.138 2.306 2.306 0 01-.404-.223 2.151 2.151 0 01-.352-.336 3.57 3.57 0 01-.327-.55 4.682 4.682 0 01-.249-.902 2.839 2.839 0 010-.662c.063-.344.16-.68.292-1.005.29-.61.648-1.187 1.066-1.72.266-.338.553-.659.86-.962a.86.86 0 000-1.237.946.946 0 00-1.281 0 8.845 8.845 0 00-.722.782 10.494 10.494 0 00-1.41 2.071 5.156 5.156 0 00-.627 2.785 4.701 4.701 0 001.195 2.741 3.696 3.696 0 001.718.997c.345.089.702.127 1.058.112a1.46 1.46 0 00.403-.095c.13.05.266.083.404.095a3.74 3.74 0 001.135-.112 3.782 3.782 0 001.719-.997 4.752 4.752 0 001.194-2.741 5.208 5.208 0 00-.576-2.785z" fill="#42474D"/><path d="M18.513 11.05h-4.074a.23.23 0 00-.215.258v7.632a.24.24 0 00.215.266h1.719a.378.378 0 01.318-.215c.155 0 .232.078.318.215h1.719a.24.24 0 00.214-.266v-7.632a.233.233 0 00-.214-.258z" fill="#42474D"/><path d="M13.95 11.11v.07a.679.679 0 01.274.54h.215v-.61h-.49zm5.061 0v.07a.679.679 0 00-.275.54h-.223v-.61h.498zm7.676.143a1.743 1.743 0 11-3.487 0 1.743 1.743 0 013.487 0zM20.393 26.11l.923-1.162 1.845-2.323 1.367-1.736.116-.15a.814.814 0 10-1.271-1.019l-.923 1.162-1.81 2.323-1.367 1.736-.123.15a.813.813 0 001.264 1.019h-.02zm9.13 0l-.922-1.162-1.846-2.323-1.366-1.736a1.26 1.26 0 00-.117-.15.813.813 0 011.265-1.019l.922 1.162 1.845 2.323 1.367 1.736.116.15a.813.813 0 11-1.264 1.019z" fill="#42474D"/><path d="M27.965 9.477a8.345 8.345 0 00-1.12-1.647 7.04 7.04 0 00-.575-.622.752.752 0 00-1.018 0 .685.685 0 000 .984c.244.24.472.496.683.765.332.423.617.881.848 1.367.106.258.186.526.239.8.017.175.017.35 0 .526a3.29 3.29 0 01-.198.717 2.42 2.42 0 01-.26.438c-.081.1-.175.19-.28.266-.099.07-.204.13-.314.178a2.946 2.946 0 01-.404.11h-1.25a2.741 2.741 0 01-.403-.11 1.843 1.843 0 01-.322-.178 1.715 1.715 0 01-.28-.266 2.834 2.834 0 01-.26-.438 3.717 3.717 0 01-.198-.717 2.259 2.259 0 010-.527 4.09 4.09 0 01.233-.8 7.29 7.29 0 01.847-1.366c.212-.269.44-.525.683-.765a.685.685 0 000-.984.752.752 0 00-1.018 0 7.027 7.027 0 00-.574.622 8.345 8.345 0 00-1.12 1.647 4.1 4.1 0 00-.5 2.214 3.75 3.75 0 00.95 2.18 2.938 2.938 0 002.207.882c.11-.01.219-.036.322-.076.103.04.211.066.321.075.304.017.608-.013.902-.089.518-.137.99-.411 1.367-.792a3.78 3.78 0 00.95-2.18 4.142 4.142 0 00-.458-2.214z" fill="#42474D"/><path d="M26.564 14.206h-3.24a.185.185 0 00-.17.205v6.068a.19.19 0 00.099.19.19.19 0 00.072.022h1.367a.3.3 0 01.252-.171c.123 0 .185.061.253.17h1.367a.192.192 0 00.17-.211V14.41a.184.184 0 00-.17-.205z" fill="#42474D"/><path d="M22.935 14.253v.055a.54.54 0 01.219.43h.17v-.485h-.389zm4.025 0v.055a.54.54 0 00-.218.43h-.178v-.485h.396zm-17.273-3a1.743 1.743 0 11-3.485 0 1.743 1.743 0 013.485 0zM3.393 26.11l.923-1.162 1.845-2.323 1.367-1.736.116-.15a.814.814 0 10-1.271-1.019l-.923 1.162-1.81 2.323-1.368 1.736-.123.15a.813.813 0 001.265 1.019h-.02zm9.13 0l-.922-1.162-1.846-2.323-1.366-1.736a1.262 1.262 0 00-.117-.15.813.813 0 011.265-1.019l.922 1.162 1.845 2.323 1.367 1.736.116.15a.813.813 0 11-1.264 1.019z" fill="#42474D"/><path d="M10.965 9.477a8.345 8.345 0 00-1.12-1.647 7.029 7.029 0 00-.575-.622.752.752 0 00-1.018 0 .683.683 0 000 .984 8.2 8.2 0 01.683.765c.332.423.617.881.848 1.367.106.258.186.526.239.8.017.175.017.35 0 .526a3.29 3.29 0 01-.198.717 2.42 2.42 0 01-.26.438 1.502 1.502 0 01-.595.444 2.943 2.943 0 01-.403.11h-1.25a2.742 2.742 0 01-.403-.11 1.839 1.839 0 01-.322-.178 1.713 1.713 0 01-.28-.266 2.834 2.834 0 01-.26-.438 3.722 3.722 0 01-.198-.717 2.262 2.262 0 010-.527 4.09 4.09 0 01.233-.8c.23-.485.515-.943.847-1.366a8.2 8.2 0 01.683-.765.683.683 0 000-.984.752.752 0 00-1.018 0 7.032 7.032 0 00-.574.622 8.344 8.344 0 00-1.12 1.647 4.1 4.1 0 00-.5 2.214c.071.81.405 1.576.95 2.18a2.938 2.938 0 002.207.882c.11-.01.219-.036.322-.076.103.04.211.066.321.075.304.017.608-.013.902-.089.518-.137.99-.411 1.367-.792a3.78 3.78 0 00.95-2.18 4.142 4.142 0 00-.458-2.214z" fill="#42474D"/><path d="M9.564 14.206h-3.24a.185.185 0 00-.17.205v6.068a.191.191 0 00.17.212h1.368a.3.3 0 01.252-.171c.123 0 .185.061.253.17h1.367a.192.192 0 00.17-.211V14.41a.185.185 0 00-.17-.205z" fill="#42474D"/><path d="M5.935 14.253v.055a.54.54 0 01.219.43h.17v-.485h-.389zm4.025 0v.055a.54.54 0 00-.218.43h-.178v-.485h.396z" fill="#42474D"/></svg>