<svg viewBox="0 0 24 24" fill="none" xmlns="http://www.w3.org/2000/svg"><path d="M12 12c-1.238 0-2.297-.44-3.178-1.322C7.94 9.797 7.5 8.738 7.5 7.5c0-1.237.44-2.297 1.322-3.178C9.703 3.44 10.762 3 12 3s2.297.44 3.178 1.322c.881.881 1.322 1.94 1.322 3.178s-.44 2.297-1.322 3.178C14.297 11.56 13.238 12 12 12zm-6.75 9c-.619 0-1.148-.22-1.588-.66A2.168 2.168 0 013 18.75v-.9c0-.638.164-1.224.493-1.758A3.277 3.277 0 014.8 14.869a16.722 16.722 0 013.544-1.309c1.2-.29 2.418-.435 3.656-.435s2.456.145 3.656.435c1.2.291 2.382.727 3.544 1.309.544.281.98.689 1.307 1.223.329.534.493 1.12.493 1.758v.9a2.17 2.17 0 01-.66 1.59 2.17 2.17 0 01-1.59.66H5.25z" fill="#42474D"/></svg>