<svg viewBox="0 0 33 28" fill="none" xmlns="http://www.w3.org/2000/svg"><g clip-path="url(#clip0_451_1425)"><path d="M23.14 14.5a6.64 6.64 0 11-6.64-6.64 6.65 6.65 0 016.64 6.64zM16.5 6.297a.781.781 0 00.781-.781V3.562a.781.781 0 10-1.562 0v1.954a.781.781 0 00.781.78zM9.596 8.699a.791.791 0 001.103 0 .781.781 0 000-1.103L9.322 6.209A.791.791 0 108.21 7.322L9.596 8.7zm-1.3 5.801a.781.781 0 00-.78-.781H5.562a.781.781 0 100 1.562h1.954a.781.781 0 00.78-.781zm1.3 5.8l-1.387 1.378a.791.791 0 000 1.113.83.83 0 00.557.225.81.81 0 00.556-.225l1.377-1.387a.781.781 0 00-1.103-1.103zm6.904 2.403a.781.781 0 00-.781.781v1.953a.781.781 0 101.562 0v-1.953a.782.782 0 00-.781-.78zm6.904-2.402a.781.781 0 00-1.103 1.103l1.377 1.387a.81.81 0 00.556.225.83.83 0 00.557-.225.79.79 0 000-1.113L23.404 20.3zm4.034-6.582h-1.954a.782.782 0 000 1.562h1.953a.781.781 0 100-1.562zm-4.58-4.795a.762.762 0 00.546-.225l1.387-1.377a.79.79 0 00-1.113-1.113L22.3 7.596a.781.781 0 00.255 1.273.762.762 0 00.301.055z" fill="#42474D"/></g><defs><clipPath id="clip0_451_1425"><path fill="#fff" transform="translate(4 2)" d="M0 0h25v25H0z"/></clipPath></defs></svg>