<svg width="23" height="23" fill="none" xmlns="http://www.w3.org/2000/svg"><path d="M11.47 11.5c-1.495 0-2.775-.532-3.84-1.597-1.064-1.065-1.597-2.345-1.597-3.84 0-1.496.533-2.776 1.597-3.84C8.695 1.156 9.975.624 11.47.624c1.496 0 2.776.532 3.84 1.597 1.066 1.065 1.598 2.345 1.598 3.84 0 1.496-.532 2.776-1.597 3.84-1.065 1.066-2.345 1.598-3.84 1.598zM3.315 22.375a2.617 2.617 0 01-1.919-.798 2.619 2.619 0 01-.8-1.92v-1.088c0-.77.2-1.479.596-2.125a3.962 3.962 0 011.58-1.478 20.21 20.21 0 014.282-1.58 18.708 18.708 0 014.418-.527c1.495 0 2.968.176 4.418.527a20.21 20.21 0 014.282 1.58c.657.34 1.183.833 1.58 1.478.396.646.595 1.354.595 2.125v1.087c0 .748-.266 1.388-.798 1.921a2.621 2.621 0 01-1.921.798H3.314z" fill="#42474D"/></svg>