<svg xmlns="http://www.w3.org/2000/svg" xmlns:xlink="http://www.w3.org/1999/xlink"><defs>
<linearGradient id="paint0_linear" x1="14.435" y1="2.1949e-05" x2="77.2232" y2="7.77042" gradientUnits="userSpaceOnUse">
<stop stop-color="#ED0233"/>
<stop offset="1" stop-color="#003EB7"/>
</linearGradient>
<linearGradient id="paint1_linear" x1="11" y1="35.6533" x2="40.0231" y2="6.52189" gradientUnits="userSpaceOnUse">
<stop stop-color="#003D85"/>
<stop offset="0.885417" stop-color="#B80027"/>
</linearGradient>
</defs><symbol id="icon-arrow-down" viewBox="0 0 21 13">
<path d="M1 1L10.5 11L20 1" stroke="#1C3374" stroke-width="2"/>
</symbol><symbol id="icon-arrow" viewBox="0 0 18 34">
<path d="M1 1L17 17L1 33" stroke="#AFAFAF"/>
</symbol><symbol id="icon-Fb--promo" viewBox="0 0 12 9">
<path d="M4.55859 5.23242H1.67578V9H0.603516V0.46875H5.04492V1.39453H1.67578V4.3125H4.55859V5.23242ZM6.36914 9V0.46875H8.80078C9.57812 0.46875 10.1621 0.658203 10.5527 1.03711C10.9473 1.41602 11.1445 1.98438 11.1445 2.74219C11.1445 3.14062 11.0449 3.49219 10.8457 3.79688C10.6465 4.10156 10.377 4.33789 10.0371 4.50586C10.4277 4.62305 10.7363 4.86328 10.9629 5.22656C11.1934 5.58984 11.3086 6.02734 11.3086 6.53906C11.3086 7.30469 11.0977 7.90625 10.6758 8.34375C10.2578 8.78125 9.66016 9 8.88281 9H6.36914ZM7.44141 5.00977V8.08008H8.90625C9.3125 8.08008 9.63477 7.94727 9.87305 7.68164C10.1113 7.41211 10.2305 7.03516 10.2305 6.55078C10.2305 5.52344 9.79688 5.00977 8.92969 5.00977H7.44141ZM7.44141 4.10742H8.81836C9.18945 4.10742 9.48828 3.98242 9.71484 3.73242C9.94531 3.48242 10.0605 3.15039 10.0605 2.73633C10.0605 2.26758 9.95703 1.92773 9.75 1.7168C9.54297 1.50195 9.22656 1.39453 8.80078 1.39453H7.44141V4.10742Z" fill="white"/>
</symbol><symbol id="icon-fb" viewBox="0 0 11 20">
<path d="M7.33333 11.5H9.95238L11 7.5H7.33333V5.5C7.33333 4.47 7.33333 3.5 9.42857 3.5H11V0.14C10.6585 0.0970001 9.36886 0 8.00695 0C5.16267 0 3.14286 1.657 3.14286 4.7V7.5H0V11.5H3.14286V20H7.33333V11.5Z" fill="#F9FBFD"/>
</symbol><symbol id="icon-ig--promo" viewBox="0 0 10 10">
<path d="M1.94922 9H0.876953V0.46875H1.94922V9ZM9.16797 7.93945L8.98047 8.17383C8.44141 8.80273 7.65234 9.11719 6.61328 9.11719C5.69141 9.11719 4.9668 8.8125 4.43945 8.20312C3.91602 7.58984 3.64844 6.72461 3.63672 5.60742V3.93164C3.63672 2.73633 3.875 1.8418 4.35156 1.24805C4.83203 0.650391 5.54883 0.351562 6.50195 0.351562C7.31445 0.351562 7.94922 0.578125 8.40625 1.03125C8.86719 1.48437 9.12109 2.13086 9.16797 2.9707H8.0957C8.05273 2.43945 7.9043 2.02539 7.65039 1.72852C7.40039 1.42773 7.01953 1.27734 6.50781 1.27734C5.89453 1.27734 5.44531 1.47852 5.16016 1.88086C4.875 2.2793 4.72656 2.91797 4.71484 3.79688V5.53711C4.71484 6.39648 4.87891 7.05664 5.20703 7.51758C5.53516 7.97461 6.00586 8.20312 6.61914 8.20312C7.19727 8.20312 7.63672 8.0625 7.9375 7.78125L8.0957 7.63477V5.66602H6.53711V4.75195H9.16797V7.93945Z" fill="white"/>
</symbol><symbol id="icon-insta" viewBox="0 0 20 20">
<path d="M10 0C12.717 0 13.056 0.00999994 14.122 0.0599999C15.187 0.11 15.912 0.277 16.55 0.525C17.21 0.779 17.766 1.123 18.322 1.678C18.8305 2.1779 19.224 2.78259 19.475 3.45C19.722 4.087 19.89 4.813 19.94 5.878C19.987 6.944 20 7.283 20 10C20 12.717 19.99 13.056 19.94 14.122C19.89 15.187 19.722 15.912 19.475 16.55C19.2247 17.2178 18.8311 17.8226 18.322 18.322C17.822 18.8303 17.2173 19.2238 16.55 19.475C15.913 19.722 15.187 19.89 14.122 19.94C13.056 19.987 12.717 20 10 20C7.283 20 6.944 19.99 5.878 19.94C4.813 19.89 4.088 19.722 3.45 19.475C2.78233 19.2245 2.17753 18.8309 1.678 18.322C1.16941 17.8222 0.775931 17.2175 0.525 16.55C0.277 15.913 0.11 15.187 0.0599999 14.122C0.0129999 13.056 0 12.717 0 10C0 7.283 0.00999994 6.944 0.0599999 5.878C0.11 4.812 0.277 4.088 0.525 3.45C0.775236 2.78218 1.1688 2.17732 1.678 1.678C2.17767 1.16923 2.78243 0.775729 3.45 0.525C4.088 0.277 4.812 0.11 5.878 0.0599999C6.944 0.0129999 7.283 0 10 0ZM10 5C8.67392 5 7.40215 5.52678 6.46447 6.46447C5.52678 7.40215 5 8.67392 5 10C5 11.3261 5.52678 12.5979 6.46447 13.5355C7.40215 14.4732 8.67392 15 10 15C11.3261 15 12.5979 14.4732 13.5355 13.5355C14.4732 12.5979 15 11.3261 15 10C15 8.67392 14.4732 7.40215 13.5355 6.46447C12.5979 5.52678 11.3261 5 10 5ZM16.5 4.75C16.5 4.41848 16.3683 4.10054 16.1339 3.86612C15.8995 3.6317 15.5815 3.5 15.25 3.5C14.9185 3.5 14.6005 3.6317 14.3661 3.86612C14.1317 4.10054 14 4.41848 14 4.75C14 5.08152 14.1317 5.39946 14.3661 5.63388C14.6005 5.8683 14.9185 6 15.25 6C15.5815 6 15.8995 5.8683 16.1339 5.63388C16.3683 5.39946 16.5 5.08152 16.5 4.75ZM10 7C10.7956 7 11.5587 7.31607 12.1213 7.87868C12.6839 8.44129 13 9.20435 13 10C13 10.7956 12.6839 11.5587 12.1213 12.1213C11.5587 12.6839 10.7956 13 10 13C9.20435 13 8.44129 12.6839 7.87868 12.1213C7.31607 11.5587 7 10.7956 7 10C7 9.20435 7.31607 8.44129 7.87868 7.87868C8.44129 7.31607 9.20435 7 10 7Z" fill="#F9FBFD"/>
</symbol><symbol id="icon-play" viewBox="0 0 73 73">
<circle cx="36.5" cy="36.5" r="35.5" stroke="url(#paint0_linear)" stroke-opacity="0.2" stroke-width="2"/>
<circle cx="37" cy="36" r="26" fill="url(#paint1_linear)"/>
<path d="M43 36L34 41.1962L34 30.8038L43 36Z" fill="white"/>

</symbol><symbol id="icon-rub" viewBox="0 0 30 42">
<path fill-rule="evenodd" clip-rule="evenodd" d="M18.5 6H10V17H18.5C21.5376 17 24 14.5376 24 11.5C24 8.46243 21.5376 6 18.5 6ZM4 0V23H18.5C24.8513 23 30 17.8513 30 11.5C30 5.14873 24.8513 0 18.5 0H4Z" fill="#102654"/>
<path fill-rule="evenodd" clip-rule="evenodd" d="M0 17H6V23H0V17Z" fill="#102654"/>
<path fill-rule="evenodd" clip-rule="evenodd" d="M3.65854 28.3214V18H9.65854V28.3214H21V34.3214H9.65854V42H3.65854V34.3214H0V28.3214H3.65854Z" fill="#102654"/>
</symbol><symbol id="icon-vk--promo" viewBox="0 0 14 9">
<path d="M4.0918 7.35352L6.04297 0.46875H7.2207L4.56641 9H3.62891L0.980469 0.46875H2.15234L4.0918 7.35352ZM10.291 5.06836L9.45312 6.08203V9H8.38086V0.46875H9.45312V4.58789L10.1562 3.65625L12.4531 0.46875H13.7422L10.9707 4.22461L13.959 9H12.6758L10.291 5.06836Z" fill="white"/>
</symbol><symbol id="icon-vk" viewBox="0 0 24 13">
<path fill-rule="evenodd" clip-rule="evenodd" d="M20.6554 8.26599C21.4515 9.00996 22.2918 9.70992 23.0058 10.5289C23.3212 10.8929 23.6199 11.2684 23.8483 11.6908C24.172 12.2912 23.8788 12.9519 23.3163 12.9878L19.82 12.9863C18.9182 13.0579 18.1988 12.7104 17.5939 12.1203C17.1098 11.6483 16.6615 11.146 16.1961 10.6581C16.0052 10.4587 15.8055 10.2711 15.5669 10.1228C15.0896 9.82623 14.6753 9.91703 14.4025 10.3935C14.1247 10.8781 14.0617 11.4148 14.0344 11.9549C13.997 12.7429 13.7481 12.9501 12.9211 12.9862C11.1537 13.066 9.47629 12.81 7.91806 11.9566C6.54426 11.2043 5.47894 10.1422 4.5517 8.93977C2.74634 6.59842 1.36379 4.02567 0.121208 1.38084C-0.158487 0.784951 0.0460603 0.465084 0.732957 0.453762C1.87358 0.432554 3.01405 0.434063 4.15601 0.452253C4.61959 0.458744 4.92649 0.713249 5.10549 1.13244C5.7226 2.58483 6.47771 3.96665 7.42553 5.24748C7.67794 5.58848 7.93532 5.92948 8.30184 6.16949C8.7073 6.43524 9.01602 6.34716 9.20677 5.91484C9.32781 5.64071 9.3808 5.34544 9.40808 5.05184C9.49845 4.04175 9.51035 3.03338 9.35186 2.02684C9.25455 1.39865 8.88488 0.991982 8.23 0.873108C7.89582 0.8125 7.94558 0.693475 8.10738 0.510898C8.38842 0.196012 8.65274 0 9.17964 0H13.1311C13.7532 0.117516 13.8913 0.385004 13.9765 0.984133L13.9799 5.18536C13.9731 5.4173 14.1009 6.10556 14.5374 6.25908C14.8867 6.36837 15.117 6.10088 15.3265 5.88887C16.2726 4.92776 16.9479 3.79192 17.5511 2.61578C17.8188 2.09861 18.049 1.56153 18.2721 1.02489C18.4373 0.626678 18.6967 0.430742 19.1653 0.439422L22.9684 0.442667C23.0811 0.442667 23.1952 0.444252 23.3044 0.46214C23.9453 0.566675 24.1209 0.830539 23.923 1.42952C23.6111 2.36927 23.0043 3.15241 22.411 3.93917C21.7768 4.77915 21.0985 5.59036 20.4696 6.43532C19.8917 7.20691 19.9376 7.59584 20.6554 8.26599Z" fill="white"/>
</symbol></svg>