<svg xmlns="http://www.w3.org/2000/svg" viewBox="0 0 284 49.5"><path d="M283.8 48.2H160.2v-47h123.6L258 23.5zM1.1 2.2h14.7v10.5l8.6-10.5h17.7L26.2 23 43 47.6H25.5l-9.7-14v14H1.1V2.2zM45.6 25c0-3.3.6-6.3 1.9-9.2 1.2-2.9 2.9-5.4 5.1-7.6C54.8 6 57.3 4.3 60.2 3c2.9-1.2 6-1.9 9.2-1.9 3.3 0 6.3.6 9.2 1.9 2.9 1.2 5.4 2.9 7.6 5.1 2.2 2.2 3.9 4.7 5.1 7.6 1.2 2.9 1.9 6 1.9 9.2s-.6 6.3-1.9 9.2c-1.2 2.9-2.9 5.4-5.1 7.6-2.2 2.2-4.7 3.9-7.6 5.1-2.9 1.2-6 1.9-9.2 1.9-3.3 0-6.3-.6-9.2-1.9-2.9-1.2-5.4-2.9-7.6-5.1-2.2-2.2-3.9-4.7-5.1-7.6-1.2-2.8-1.9-5.9-1.9-9.1zm14.3 0c0 1.3.2 2.5.7 3.7.5 1.2 1.2 2.2 2 3 .9.9 1.9 1.5 3 2 1.2.5 2.4.7 3.7.7 1.3 0 2.5-.2 3.7-.7 1.2-.5 2.2-1.2 3-2 .9-.9 1.5-1.9 2-3 .5-1.2.7-2.4.7-3.7 0-1.3-.2-2.5-.7-3.7-.5-1.2-1.2-2.2-2-3-.9-.9-1.9-1.5-3-2-1.2-.5-2.4-.7-3.7-.7-1.3 0-2.6.2-3.7.7-1.2.5-2.2 1.2-3 2-.9.9-1.5 1.9-2 3-.4 1.1-.7 2.3-.7 3.7zm42.9 0c0-3.3.6-6.3 1.9-9.2 1.2-2.9 2.9-5.4 5.1-7.6 2.2-2.2 4.7-3.9 7.6-5.1 2.9-1.2 6-1.9 9.2-1.9 3.3 0 6.3.6 9.2 1.9 2.9 1.2 5.4 2.9 7.6 5.1 2.2 2.2 3.9 4.7 5.1 7.6 1.2 2.9 1.9 6 1.9 9.2s-.6 6.3-1.9 9.2c-1.2 2.9-2.9 5.4-5.1 7.6-2.2 2.2-4.7 3.9-7.6 5.1-2.9 1.2-6 1.9-9.2 1.9-3.3 0-6.3-.6-9.2-1.9-2.9-1.2-5.4-2.9-7.6-5.1-2.2-2.2-3.9-4.7-5.1-7.6-1.3-2.9-1.9-6-1.9-9.2zm14.2 0c0 1.3.2 2.5.7 3.7.5 1.2 1.2 2.2 2 3 .9.9 1.9 1.5 3 2 1.2.5 2.4.7 3.7.7 1.3 0 2.5-.2 3.7-.7 1.2-.5 2.2-1.2 3-2 .9-.9 1.5-1.9 2-3 .5-1.2.7-2.4.7-3.7 0-1.3-.2-2.5-.7-3.7-.5-1.2-1.2-2.2-2-3-.9-.9-1.9-1.5-3-2-1.2-.5-2.4-.7-3.7-.7-1.3 0-2.6.2-3.7.7-1.2.5-2.2 1.2-3 2-.9.9-1.5 1.9-2 3-.4 1.1-.7 2.3-.7 3.7z" fill="#fff"/></svg>