<svg viewBox="0 0 113 103" fill="none" xmlns="http://www.w3.org/2000/svg"><g filter="url(#filter0_d)" stroke="#2E3A59" stroke-width="2"><path d="M19.16 65.542c-5.857-5.858-5.857-15.355 0-21.213l25.554-25.553c5.858-5.858 15.355-5.858 21.213 0l4.448 4.448c6.364 6.364 5.74 16.899-1.145 22.78-3.85 3.29-7.849 6.845-11.044 10.005-3.74 3.7-7.974 8.436-11.789 12.888-5.884 6.866-16.406 7.475-22.762 1.119l-4.474-4.474z"/><path d="M17.136 63.287c-5.37-5.37-5.871-13.882-1.01-19.666 4.383-5.212 9.662-11.246 14.176-15.71 3.978-3.935 9.252-8.521 13.933-12.44 5.785-4.842 14.285-4.332 19.647 1.03l.4.4c6.365 6.364 5.74 16.899-1.145 22.78-3.85 3.29-7.848 6.845-11.043 10.005-3.74 3.7-7.975 8.436-11.79 12.888-5.883 6.866-16.406 7.475-22.762 1.12l-.406-.407z"/><rect x="38.152" y="30.767" width="15.665" height="15.665" rx="7.833" transform="rotate(-45 38.152 30.767)"/><rect x="73.5" y="68" width="26" height="22" rx="1"/><path d="M75.5 45c7 2 11 5 11 15.999"/></g><defs id="84"><filter id="filter0_d" x=".615" y="0" width="111.885" height="103" filterUnits="userSpaceOnUse" color-interpolation-filters="sRGB"><feFlood flood-opacity="0" result="BackgroundImageFix"/><feColorMatrix in="SourceAlpha" values="0 0 0 0 0 0 0 0 0 0 0 0 0 0 0 0 0 0 127 0"/><feOffset dx="4" dy="4"/><feGaussianBlur stdDeviation="4"/><feColorMatrix values="0 0 0 0 0.65098 0 0 0 0 0.670588 0 0 0 0 0.741176 0 0 0 1 0"/><feBlend in2="BackgroundImageFix" result="effect1_dropShadow"/><feBlend in="SourceGraphic" in2="effect1_dropShadow" result="shape"/></filter></defs></svg>