<svg width="40" height="40" fill="none" xmlns="http://www.w3.org/2000/svg"><rect width="40" height="40" rx="20" fill="#E7EBF0"/><rect x=".5" y=".5" width="39" height="39" rx="19.5" stroke="url(#paint0_linear)" stroke-opacity=".3" style="mix-blend-mode:hard-light"/><path d="M10.67 29.054a7.018 7.018 0 010-9.925l8.465-8.465a7.01 7.01 0 019.914 0c2.972 2.973 2.677 7.891-.518 10.677a75.499 75.499 0 00-3.377 3.102c-1.205 1.193-2.538 2.654-3.804 4.104-2.788 3.192-7.708 3.48-10.68.507z" fill="#fff" stroke="#2E3A59"/><path d="M9.106 27.398c-2.132-2.131-2.33-5.508-.401-7.799 1.723-2.047 3.783-4.398 5.547-6.143 1.551-1.534 3.604-3.322 5.44-4.86 2.29-1.92 5.661-1.72 7.79.409 2.523 2.524 2.278 6.706-.456 9.045-1.496 1.281-3.043 2.66-4.285 3.888-1.458 1.442-3.104 3.28-4.595 5.016-2.34 2.727-6.519 2.966-9.04.444z" fill="#fff" stroke="#2E3A59"/><rect x="17.436" y="14.515" width="6" height="6" rx="3" transform="rotate(-45 17.436 14.515)" fill="#FFD058" stroke="#2E3A59"/><g filter="url(#filter0_d)"><rect x="11" y="23" width="2" height="2" rx="1" transform="rotate(-45 11 23)" fill="#00C368"/></g><defs><linearGradient id="paint0_linear" x1="41.538" y1="40.769" x2="-2.154" y2="-1.231" gradientUnits="userSpaceOnUse"><stop stop-color="#fff"/><stop offset="1" stop-color="#fff" stop-opacity="0"/></linearGradient><filter id="filter0_d" x="10" y="20.586" width="6.828" height="6.828" filterUnits="userSpaceOnUse" color-interpolation-filters="sRGB"><feFlood flood-opacity="0" result="BackgroundImageFix"/><feColorMatrix in="SourceAlpha" values="0 0 0 0 0 0 0 0 0 0 0 0 0 0 0 0 0 0 127 0"/><feOffset dx="1" dy="1"/><feGaussianBlur stdDeviation="1"/><feColorMatrix values="0 0 0 0 0 0 0 0 0 0.764706 0 0 0 0 0.407843 0 0 0 0.8 0"/><feBlend in2="BackgroundImageFix" result="effect1_dropShadow"/><feBlend in="SourceGraphic" in2="effect1_dropShadow" result="shape"/></filter></defs></svg>