<svg width="40" height="40" fill="none" xmlns="http://www.w3.org/2000/svg"><rect width="40" height="40" rx="20" fill="#E7EBF0"/><rect x=".5" y=".5" width="39" height="39" rx="19.5" stroke="url(#paint0_linear)" stroke-opacity=".3" style="mix-blend-mode:hard-light"/><path fill="#2E3A59" d="M15 15h1v10h-1z"/><path fill="#2E3A59" d="M15 15h1v10h-1z"/><path fill="#2E3A59" d="M15 15h1v10h-1z"/><path fill="#2E3A59" d="M20.567 9.358l.866.5-6.684 11.577-.866-.5z"/><path fill="#2E3A59" d="M20.567 9.358l.866.5-6.684 11.577-.866-.5z"/><path fill="#2E3A59" d="M20.567 9.358l.866.5-6.684 11.577-.866-.5z"/><path fill="#2E3A59" d="M25.142 13.567l.5.866-10.459 6.038-.5-.866z"/><path fill="#2E3A59" d="M25.142 13.567l.5.866-10.459 6.038-.5-.866z"/><path fill="#2E3A59" d="M25.142 13.567l.5.866-10.459 6.038-.5-.866z"/><path fill="#2E3A59" d="M25.643 25.567l-.5.866-11.374-6.567.5-.866z"/><path fill="#2E3A59" d="M25.643 25.567l-.5.866-11.374-6.567.5-.866z"/><path fill="#2E3A59" d="M25.643 25.567l-.5.866-11.374-6.567.5-.866z"/><path fill="#2E3A59" d="M21.433 30.143l-.866.5-7.794-13.5.866-.5z"/><path fill="#2E3A59" d="M21.433 30.143l-.866.5-7.794-13.5.866-.5z"/><path fill="#2E3A59" d="M21.433 30.143l-.866.5-7.794-13.5.866-.5z"/><rect x="6" y="13" width="14" height="14" rx="7" fill="#E7EBF0"/><path fill="#2E3A59" d="M12 8h1v24h-1z"/><path d="M27 20h-7" stroke="#2E3A59"/><path d="M12.5 14.522a5.5 5.5 0 010 10.956V14.522z" fill="#fff" stroke="#2E3A59"/><rect x="20.5" y="6.5" width="3" height="3" rx="1.5" fill="#FFD058" stroke="#2E3A59"/><rect x="25.5" y="11.5" width="3" height="3" rx="1.5" fill="#FFD058" stroke="#2E3A59"/><rect x="26.5" y="18.5" width="3" height="3" rx="1.5" fill="#FFD058" stroke="#2E3A59"/><rect x="25.5" y="25.5" width="3" height="3" rx="1.5" fill="#FFD058" stroke="#2E3A59"/><rect x="20.5" y="30.5" width="3" height="3" rx="1.5" fill="#FFD058" stroke="#2E3A59"/><defs><linearGradient id="paint0_linear" x1="41.538" y1="40.769" x2="-2.154" y2="-1.231" gradientUnits="userSpaceOnUse"><stop stop-color="#fff"/><stop offset="1" stop-color="#fff" stop-opacity="0"/></linearGradient></defs></svg>