<svg width="24" height="25" fill="none" xmlns="http://www.w3.org/2000/svg"><path d="M18.848 10.96l-8.131 8.13a3.999 3.999 0 0 1-5.657 0 3.999 3.999 0 0 1 0-5.656l8.838-8.839a2.501 2.501 0 0 1 3.536 3.536l-7.425 7.424a1.003 1.003 0 0 1-1.414 0 1.003 1.003 0 0 1 0-1.414l6.718-6.717-1.061-1.061-6.718 6.717a2.5 2.5 0 0 0 3.536 3.536l7.425-7.425a3.999 3.999 0 0 0 0-5.657 3.999 3.999 0 0 0-5.657 0l-8.84 8.84a5.497 5.497 0 0 0 0 7.777 5.497 5.497 0 0 0 7.78 0l8.13-8.131-1.06-1.06z" fill="#60749D"/></svg>