<svg width="31" height="25" viewBox="0 0 31 25" fill="none" xmlns="http://www.w3.org/2000/svg">
<path d="M27.791 6.25C27.8314 6.41026 27.8516 6.67067 27.8516 7.03125C27.8516 9.91586 27.1452 12.7003 25.7324 15.3846C24.2793 18.2292 22.2409 20.4928 19.6172 22.1755C16.7513 24.0585 13.4616 25 9.74805 25C6.19596 25 2.94661 24.0585 0 22.1755C0.44401 22.2155 0.948568 22.2356 1.51367 22.2356C4.46029 22.2356 7.10417 21.3341 9.44531 19.5312C8.03255 19.5312 6.79134 19.1206 5.72168 18.2993C4.65202 17.478 3.91536 16.4463 3.51172 15.2043C3.91536 15.2444 4.29883 15.2644 4.66211 15.2644C5.22721 15.2644 5.79232 15.2043 6.35742 15.0841C4.9043 14.7636 3.69336 14.0224 2.72461 12.8606C1.75586 11.6987 1.27148 10.3766 1.27148 8.89423V8.77404C2.15951 9.29487 3.10807 9.57532 4.11719 9.61539C3.26953 9.01442 2.58333 8.25321 2.05859 7.33173C1.53385 6.41026 1.27148 5.39864 1.27148 4.29688C1.27148 3.19511 1.57422 2.14343 2.17969 1.14183C3.75391 3.10497 5.68131 4.66747 7.96191 5.82933C10.2425 6.99119 12.6745 7.63221 15.2578 7.7524C15.1771 7.27163 15.1367 6.79087 15.1367 6.3101C15.1367 5.1883 15.4193 4.13662 15.9844 3.15505C16.5495 2.17348 17.3164 1.40224 18.2852 0.841346C19.2539 0.280449 20.3034 0 21.4336 0C22.362 0 23.2197 0.180288 24.0068 0.540865C24.7939 0.901442 25.4902 1.38221 26.0957 1.98317C27.5488 1.70272 28.901 1.20192 30.1523 0.480769C29.668 1.96314 28.7396 3.125 27.3672 3.96635C28.5781 3.80609 29.7891 3.46555 31 2.94471C30.112 4.22676 29.0423 5.32853 27.791 6.25Z" fill="white"/>
</svg>
