<svg width="15" height="26" viewBox="0 0 15 26" fill="none" xmlns="http://www.w3.org/2000/svg">
<path fill-rule="evenodd" clip-rule="evenodd" d="M14.7423 12.4008C14.9141 12.5745 15 12.7742 15 13C15 13.2258 14.9141 13.4255 14.7423 13.5992L2.73196 25.7395C2.56014 25.9132 2.36254 26 2.13918 26C1.91581 26 1.71821 25.9132 1.54639 25.7395L0.257732 24.4369C0.0859098 24.2632 0 24.0635 0 23.8377C0 23.6119 0.0859098 23.4122 0.257732 23.2385L10.3866 13L0.257732 2.76152C0.0859098 2.58784 0 2.38811 0 2.16232C0 1.93654 0.0859098 1.73681 0.257732 1.56313L1.54639 0.260521C1.71821 0.0868395 1.91581 0 2.13918 0C2.36254 0 2.56014 0.0868395 2.73196 0.260521L14.7423 12.4008Z" fill="white"/>
</svg>
