<svg width="125" height="125" viewBox="0 0 125 125" fill="none" xmlns="http://www.w3.org/2000/svg">
<path fill-rule="evenodd" clip-rule="evenodd" d="M105.754 112H20.2461C16.4431 112 13.5269 108.604 14.0639 104.812L21.2015 54.4117C21.6386 51.3058 24.2739 49 27.3837 49H31.7737V61.6C31.7737 65.0776 34.5713 67.9 38.0183 67.9C41.4716 67.9 44.263 65.0776 44.263 61.6V49H81.7308V61.6C81.7308 65.0776 84.5284 67.9 87.9754 67.9C91.4287 67.9 94.2201 65.0776 94.2201 61.6V49H98.6163C101.726 49 104.361 51.3058 104.798 54.4117L111.936 104.812C112.473 108.604 109.557 112 105.754 112ZM43 31.75C43 21.4125 51.5247 13 62 13C72.4817 13 81 19.25 81 31.75V38H43V31.75ZM124.872 110.731L115.941 48.2313C115.066 42.075 109.791 37.5 103.566 37.5H93.747V31.25C93.747 12.5 79.7282 0 62.4969 0C45.2718 0 31.2467 14.0187 31.2467 31.25V37.5H23.3404C17.1216 37.5 9.9341 42.075 9.05285 48.2313L0.127801 110.731C-0.947205 118.262 4.89658 125 12.5029 125H112.497C120.103 125 125.947 118.262 124.872 110.731Z" fill="white"/>
</svg>
