<svg width="15" height="19" fill="none" xmlns="http://www.w3.org/2000/svg"><path d="M7.52 9.5c.48 0 .893-.171 1.236-.514.342-.343.514-.755.514-1.236s-.172-.893-.514-1.236A1.687 1.687 0 007.52 6c-.482 0-.894.171-1.236.514A1.686 1.686 0 005.77 7.75c0 .481.171.893.514 1.236.342.342.754.514 1.236.514zm0 8.75c-2.348-1.998-4.102-3.854-5.261-5.568C1.099 10.97.519 9.383.519 7.925c0-2.188.704-3.93 2.112-5.228C4.038 1.399 5.667.75 7.52.75c1.852 0 3.481.649 4.888 1.947 1.408 1.298 2.112 3.04 2.112 5.228 0 1.458-.58 3.044-1.74 4.757-1.159 1.714-2.913 3.57-5.26 5.568z" fill="currentColor"/></svg>