<svg width="24" height="24" fill="none" xmlns="http://www.w3.org/2000/svg"><g clip-path="url(#icon / money__a)"><path d="M24 3.738c0 .844-.672 1.602-1.797 2.254a14.289 14.289 0 01-5.734 1.453 5.97 5.97 0 00-.533-.235 18.474 18.474 0 00-6.933-1.218c-.39 0-.774 0-1.152.027l-.054-.027C6.672 5.362 6 4.582 6 3.738 6 1.666 10.032 0 15.003 0 19.973 0 24 1.666 24 3.738zM7.53 7.546c.48-.032.971-.053 1.473-.053 2.912 0 5.498.576 7.146 1.474 1.184.635 1.851 1.43 1.851 2.28a1.602 1.602 0 01-.096.534 3.41 3.41 0 01-1.637 1.682h-.038c-1.642.914-4.266 1.506-7.2 1.506a16.147 16.147 0 01-6.933-1.367 2.892 2.892 0 01-.256-.139C.672 12.871 0 12.096 0 11.247c0-1.629 2.501-3.028 6-3.535.49-.075 1.003-.129 1.53-.166zm11.97 3.701a3.545 3.545 0 00-1.131-2.505 15.813 15.813 0 003.573-.961c.74-.297 1.434-.7 2.059-1.196v1.677c0 .908-.773 1.74-2.053 2.387-.791.38-1.623.667-2.48.854v-.25l.032-.006zM18 15.738c0 .844-.672 1.602-1.797 2.254l-.262.133c-1.648.839-4.149 1.368-6.933 1.368-2.95.016-5.541-.55-7.21-1.485C.671 17.378 0 16.598 0 15.738v-1.644a8.2 8.2 0 002.059 1.196 18.53 18.53 0 006.933 1.217 18.521 18.521 0 006.933-1.217 9.122 9.122 0 001.067-.534c.28-.16.55-.338.805-.534l.203-.16v1.676zm1.499 0v-2.702a14.608 14.608 0 002.442-.748A8.12 8.12 0 0024 11.087v1.666a2.073 2.073 0 01-.699 1.447c-.762.764-2.106 1.394-3.813 1.805.005-.08.01-.165.01-.267zM9.003 21.015a18.522 18.522 0 006.933-1.218c.74-.297 1.434-.7 2.059-1.196v1.66c0 2.073-4.032 3.739-8.998 3.739C4.032 24 0 22.334 0 20.262V18.6a8.367 8.367 0 002.059 1.196 18.533 18.533 0 006.944 1.218z" fill="#42474D"/></g><defs><clipPath id="Money"><path fill="#fff" d="M0 0h24v24H0z"/></clipPath></defs></svg>