<svg xmlns="http://www.w3.org/2000/svg" viewBox="0 0 5.76 5.76"><g data-name="Слой 2"><path d="M2.88 0a2.88 2.88 0 1 0 2.88 2.88A2.88 2.88 0 0 0 2.88 0zm1.27 3.15a4.76 4.76 0 0 1 .34.35 1 1 0 0 1 .12.18c0 .09 0 .19-.08.2H4a.39.39 0 0 1-.33-.13l-.2-.22-.07-.1a.11.11 0 0 0-.17 0 .54.54 0 0 0-.05.24c0 .12 0 .15-.16.16a1.31 1.31 0 0 1-.73-.16 1.62 1.62 0 0 1-.49-.46 6.22 6.22 0 0 1-.66-1.11c0-.09 0-.14.09-.14h.5a.15.15 0 0 1 .14.1 3.09 3.09 0 0 0 .34.63.54.54 0 0 0 .13.14.08.08 0 0 0 .13 0 .43.43 0 0 0 0-.13 2 2 0 0 0 0-.46.19.19 0 0 0-.14-.24v-.06a.18.18 0 0 1 .16-.08H3c.09 0 .11.06.12.15v.64s0 .14.08.16.08 0 .12-.06a2 2 0 0 0 .33-.5c0-.08.07-.16.11-.24A.12.12 0 0 1 3.93 2h.61c.09 0 .12.06.09.15a1.39 1.39 0 0 1-.22.38l-.28.38C4 3 4 3 4.15 3.15z" fill="#b3b3b3" fill-rule="evenodd" data-name="Layer 1"/></g></svg>