<svg xmlns="http://www.w3.org/2000/svg" viewBox="0 0 11.64 14.4"><g data-name="Слой 2"><path d="M5.85 7.07a1.27 1.27 0 1 0-1.27-1.26 1.27 1.27 0 0 0 1.27 1.26zm5.34.41a1.19 1.19 0 0 0-.63-.71L7.95 5.58a2.1 2.1 0 0 1-.65 1.76l2.07 1.49a1.21 1.21 0 0 0 .3.16 5 5 0 0 1-.79.7.42.42 0 1 0 .49.69 5.88 5.88 0 0 0 1.75-2 .42.42 0 0 0 0-.12 1.18 1.18 0 0 0 0-.77zM5 3.9a2.11 2.11 0 0 1 1.79 0C6.78 3.63 7 2 7 1.29a1.15 1.15 0 0 0-.3-.91A1.16 1.16 0 0 0 5.84 0a1.18 1.18 0 0 0-1.18 1.29c.07.71.26 2.35.34 2.61zM2.32 8.83L4.4 7.34a2.1 2.1 0 0 1-.66-1.53 2.18 2.18 0 0 1 0-.23L1.13 6.77l-.18.1a5 5 0 0 1 .34-3.1.42.42 0 0 0-.77-.35A5.85 5.85 0 0 0 .45 8.1a2.9 2.9 0 0 0 .15.33 1.16 1.16 0 0 0 .78.57h.26a1.15 1.15 0 0 0 .67-.22zm9.31-3.88A5.83 5.83 0 0 0 8.8.8a.42.42 0 1 0-.43.73 5 5 0 0 1 2.43 3.55.42.42 0 0 0 .42.36h.07a.42.42 0 0 0 .35-.48zm-1.79 8.61h-2l-.14-.84H4l-.14.84h-2a.42.42 0 0 0 0 .84h8a.42.42 0 1 0 0-.84zm-5-5.91a2.1 2.1 0 0 0 2.08 0l.7 4.23H4.11z" fill="#278f60" fill-rule="evenodd" data-name="Layer 1"/></g></svg>