<svg xmlns="http://www.w3.org/2000/svg" viewBox="0 0 3.36 3.36"><g data-name="Слой 2"><path d="M2.55 2.22a.24.24 0 0 0-.36 0L2 2.47h-.07l-.21-.07a2.58 2.58 0 0 1-.62-.57 1.48 1.48 0 0 1-.22-.36.05.05 0 0 1 0-.07l.25-.25a.24.24 0 0 0 0-.36L.94.6.74.4a.24.24 0 0 0-.36 0L.13.65A.41.41 0 0 0 0 .93a1.16 1.16 0 0 0 .09.5 3 3 0 0 0 .54.9 3.33 3.33 0 0 0 1.1.86 1.59 1.59 0 0 0 .61.18.45.45 0 0 0 .38-.15L3 3a.24.24 0 0 0 0-.36l-.4-.4zM2.82.54a1.92 1.92 0 0 1 .54 1H3.1A1.66 1.66 0 0 0 1.7.26V0a1.9 1.9 0 0 1 1.12.54zm-.4 1.12a.9.9 0 0 0-.76-.73V.67a1.16 1.16 0 0 1 1 1z" fill="#b3b3b3" fill-rule="evenodd" data-name="Layer 1"/></g></svg>