<svg xmlns="http://www.w3.org/2000/svg" viewBox="0 0 80.62 15.18"><g data-name="Слой 2"><g data-name="Layer 1"><circle cx="7.59" cy="7.59" r="7.59" fill="#fff"/><path d="M6.39 6.94c0 2.53.32 4.93.32 7.47H5.57c0-2.46.25-4.62.38-7l-.35.45-.65.84-.62.77-.33.4-.48.62-.52.6a2.15 2.15 0 0 1-.27.31l-.13.09v-.23s.24-.41.35-.57c.32-.47.62-1 .93-1.45a7.21 7.21 0 0 1 1.31-1.81l.37-.32.26-.24v-.09a1.71 1.71 0 0 1 .1-.17.48.48 0 0 0-.07-.18c-.16-.33-.32-.66-.47-1-.27-.59-1.51-3.69-1.49-3.84v-.22a3.4 3.4 0 0 1 .34.48l.45 1c.3.63.68 1.24 1 1.84a4.72 4.72 0 0 1 .32.57 2 2 0 0 1 .06.28l.12.46c0 .13.05.27.08.4l.11.17a4.27 4.27 0 0 0 .66 0c.29 0 .6 0 .91.07a3.08 3.08 0 0 1 .6-.75l.27-.24.19-.14v-.05l.07-.13A.35.35 0 0 0 9 5.19c-.12-.24-.23-.49-.34-.73C8.5 4 7.59 1.75 7.6 1.64v-.15a2.61 2.61 0 0 1 .25.35l.33.71c.22.46.5.91.76 1.35a3.35 3.35 0 0 1 .23.44 1.42 1.42 0 0 1 0 .2l.06.34.06.29.08.12a3 3 0 0 0 .48 0c.49 0 1 .09 1.5.15l2 .24h.11a.34.34 0 0 1-.2.13h-.27c-.49 0-1-.06-1.49-.07h-.87a3.2 3.2 0 0 1-.51 0 2 2 0 0 1-.28-.07l-.51-.17v1.3l2.4.28.27.12a.47.47 0 0 1-.27.17h-.37c-.63 0-1.26-.07-1.89-.09.07 1.26.17 2.49.17 3.79h-.81c0-1.32.1-2.53.19-3.78H8l-.09.12-.26.32-.35.45-.3.43a1.49 1.49 0 0 1-.2.23l-.09.07v-.17s.18-.3.26-.42c.23-.33.44-.69.66-1h-.16a2.74 2.74 0 0 1-.39-.09 9.42 9.42 0 0 1-.69-.24zm2-.21l.62.08c0-.31 0-.62.06-.94l-.26.33z" fill-rule="evenodd" fill="#278f60"/><path d="M19.82 1.9a.93.93 0 0 1 .68.29 1 1 0 0 1 .29.7 1 1 0 0 1-.28.69 1 1 0 0 1-1.38 0 1 1 0 0 1 .2-1.58 1 1 0 0 1 .49-.13zm0 .35a.58.58 0 0 0-.44.18.63.63 0 0 0-.18.46.6.6 0 0 0 .22.49.61.61 0 0 0 .4.14.58.58 0 0 0 .43-.18.62.62 0 0 0 .18-.45.63.63 0 0 0-.18-.45.58.58 0 0 0-.44-.19zm2.6-.38v.33h-.67a.51.51 0 0 0-.23.09.4.4 0 0 0-.14.17.79.79 0 0 0 0 .27.53.53 0 0 1 .52-.36.64.64 0 0 1 .47.2.68.68 0 0 1 .2.51.72.72 0 0 1-.21.53.71.71 0 0 1-.52.21.72.72 0 0 1-.7-.53 1.84 1.84 0 0 1-.14-.42 1.39 1.39 0 0 1 .08-.51.68.68 0 0 1 .21-.29.7.7 0 0 1 .29-.13 3.5 3.5 0 0 1 .49 0h.33zm-.26 1.26a.41.41 0 0 0-.1-.29.38.38 0 0 0-.55 0 .44.44 0 0 0 0 .58.36.36 0 0 0 .27.11.37.37 0 0 0 .22-.12.4.4 0 0 0 .11-.29zm2.63.36h.35v.58h-.33v-.25h-2V2.43h.35v1.05h.48V2.43H24v1.05h.48V2.43h.35v1.05zm1.93-.26h-1.11a.38.38 0 0 0 .13.24.4.4 0 0 0 .27.09.46.46 0 0 0 .33-.14l.29.14a.69.69 0 0 1-.26.23.82.82 0 0 1-.36.07.71.71 0 0 1-.53-.2.7.7 0 0 1-.2-.51.72.72 0 0 1 .2-.53.69.69 0 0 1 .52-.22.71.71 0 0 1 .53.21.75.75 0 0 1 .2.55v.07zM26.38 3a.34.34 0 0 0-.14-.18.4.4 0 0 0-.24-.13.42.42 0 0 0-.26.08.45.45 0 0 0-.13.18zm2-.24l-.29.16a.49.49 0 0 0-.16-.12.48.48 0 0 0-.19 0 .44.44 0 0 0-.32.12.39.39 0 0 0-.12.3.38.38 0 0 0 .12.29.42.42 0 0 0 .3.11.44.44 0 0 0 .36-.16l.27.19a.85.85 0 0 1-1.2.07.72.72 0 0 1 .17-1.14.84.84 0 0 1 .4-.1.82.82 0 0 1 .37.08.7.7 0 0 1 .27.23zm.19-.28h1.29v.33h-.46v1.01H29V2.76h-.48v-.33zm1.52 1.39V2.43h.56a.5.5 0 0 1 .37.11.35.35 0 0 1 .1.24.3.3 0 0 1-.2.29.36.36 0 0 1 .27.36.37.37 0 0 1-.07.23.34.34 0 0 1-.18.12 1.22 1.22 0 0 1-.31 0zm.33-.87h.14a.19.19 0 0 0 .13 0 .13.13 0 0 0 0-.09.16.16 0 0 0 0-.12.15.15 0 0 0-.11 0h-.16V3zm0 .57h.18a.19.19 0 0 0 .14 0 .14.14 0 0 0 0-.09.19.19 0 0 0 0-.12.21.21 0 0 0-.17-.06h-.15v.32zm1.7-1.15a.74.74 0 0 1 .37.1.72.72 0 0 1 .37.63.73.73 0 0 1-.1.37.7.7 0 0 1-.27.27.74.74 0 0 1-.37.1.69.69 0 0 1-.51-.21.73.73 0 0 1 0-1.05.7.7 0 0 1 .48-.19zm0 .33a.36.36 0 0 0-.27.11.4.4 0 0 0-.11.29.4.4 0 0 0 .11.29.36.36 0 0 0 .27.11.36.36 0 0 0 .27-.11.4.4 0 0 0 .11-.29.4.4 0 0 0-.11-.29.36.36 0 0 0-.27-.11zm3.1 0l-.29.16a.43.43 0 0 0-.35-.15.44.44 0 0 0-.32.12.39.39 0 0 0-.12.3.38.38 0 0 0 .12.29.42.42 0 0 0 .3.11.44.44 0 0 0 .36-.16l.27.19a.75.75 0 0 1-.63.29.76.76 0 0 1-.56-.27.72.72 0 0 1 .17-1.14.84.84 0 0 1 .4-.1.82.82 0 0 1 .37.08.71.71 0 0 1 .27.23zm1.7-.32a.74.74 0 0 1 .37.1.71.71 0 0 1 .37.63.73.73 0 0 1-.1.37.7.7 0 0 1-.27.27.74.74 0 0 1-.37.1.69.69 0 0 1-.51-.21.73.73 0 0 1 0-1.05.7.7 0 0 1 .48-.19zm0 .33a.36.36 0 0 0-.27.11.4.4 0 0 0-.11.29.41.41 0 0 0 .11.29.36.36 0 0 0 .27.11.36.36 0 0 0 .27-.11.4.4 0 0 0 .11-.29.4.4 0 0 0-.11-.29.36.36 0 0 0-.27-.11zm1-.29h.81v.33h-.46v1.02h-.35V2.43zm1.39 0v.15a.65.65 0 0 1 .2-.14.62.62 0 0 1 .69.16.74.74 0 0 1 .19.52.72.72 0 0 1-.2.52.62.62 0 0 1-.46.21.58.58 0 0 1-.22 0 .67.67 0 0 1-.21-.14v.65H39V2.43zm.36.28a.36.36 0 0 0-.27.11.4.4 0 0 0-.11.29.41.41 0 0 0 .11.3.37.37 0 0 0 .54 0 .45.45 0 0 0 0-.59.35.35 0 0 0-.27-.11zm2-.28h.35v1.35h-.35v-.15a.67.67 0 0 1-.2.14.57.57 0 0 1-.22 0 .62.62 0 0 1-.47-.21.72.72 0 0 1-.2-.52.74.74 0 0 1 .19-.52.61.61 0 0 1 .46-.2.6.6 0 0 1 .23 0 .64.64 0 0 1 .2.14v-.07zm-.37.28a.35.35 0 0 0-.27.11.41.41 0 0 0-.11.29.41.41 0 0 0 .11.3.35.35 0 0 0 .27.12.36.36 0 0 0 .27-.11.42.42 0 0 0 .11-.3.4.4 0 0 0-.11-.29.36.36 0 0 0-.27-.11zm1.41.21h.52v-.5h.35v1.36h-.28v-.58h-.52v.57h-.35V2.43h.35v.5zm1.4.89H44V2.43h.34v.81l.66-.81h.17v1.39h-.34V3l-.69.8zm2.14-.55H46a.75.75 0 0 1-.44-.11.41.41 0 0 1-.15-.36v-.4h.35v.34Q45.8 3 46 3h.28v-.57h.35v1.39h-.35v-.55zm2.08 0h-1.04a.38.38 0 0 0 .13.24.4.4 0 0 0 .27.09.46.46 0 0 0 .31-.22l.29.14a.69.69 0 0 1-.26.23.82.82 0 0 1-.36.07.71.71 0 0 1-.53-.2.7.7 0 0 1-.2-.51.72.72 0 0 1 .2-.53.69.69 0 0 1 .51-.21.71.71 0 0 1 .53.21.75.75 0 0 1 .2.55v.07zm-.27-.3a.34.34 0 0 0-.14-.18.4.4 0 0 0-.24-.07.42.42 0 0 0-.26.08.45.45 0 0 0-.12.17zm1 0h.52v-.5h.35v1.32h-.35v-.58H49v.57h-.35V2.43H49v.5zm1.57 0h.52v-.5h.35v1.32h-.35v-.58h-.55v.57h-.35V2.43h.35v.5zm1.87-.53a.74.74 0 0 1 .37.1.72.72 0 0 1 .37.63.73.73 0 0 1-.1.37.7.7 0 0 1-.27.27.74.74 0 0 1-.37.1.69.69 0 0 1-.5-.3.73.73 0 0 1 0-1.05.7.7 0 0 1 .48-.19zm0 .33a.36.36 0 0 0-.27.11.4.4 0 0 0-.11.29.41.41 0 0 0 .11.29.36.36 0 0 0 .27.11.36.36 0 0 0 .27-.11.4.4 0 0 0 .11-.29.4.4 0 0 0-.11-.29.36.36 0 0 0-.27-.11zm1.2 1.09h-.19V2.43h.34v.81l.71-.81h.17v1.39h-.34V3l-.69.8zm-.09-2h.28a.2.2 0 0 0 .11.01.36.36 0 0 0 .14 0 .39.39 0 0 0 .16 0 .19.19 0 0 0 .08-.07h.28a.38.38 0 0 1-.15.26.6.6 0 0 1-.36.1.69.69 0 0 1-.26 0 .42.42 0 0 1-.23-.19.39.39 0 0 1-.08-.19zm2.85.58a.73.73 0 0 1 .37.1.72.72 0 0 1 .37.63.73.73 0 0 1-.1.37.7.7 0 0 1-.27.27.74.74 0 0 1-.37.1.69.69 0 0 1-.51-.21.73.73 0 0 1 0-1.05.7.7 0 0 1 .48-.19zm0 .33a.36.36 0 0 0-.27.11.4.4 0 0 0-.11.29.41.41 0 0 0 .11.29.36.36 0 0 0 .27.11.36.36 0 0 0 .27-.11.4.4 0 0 0 .11-.29.4.4 0 0 0-.11-.29.36.36 0 0 0-.27-.11zm.89-.29h1.29v.33h-.46v.98h-.35V2.76h-.48v-.33zm1.52 1.39V2.43h.56a.5.5 0 0 1 .37.11.35.35 0 0 1 .1.24.3.3 0 0 1-.2.29.36.36 0 0 1 .27.36.37.37 0 0 1-.07.23.34.34 0 0 1-.18.12 1.21 1.21 0 0 1-.31 0zm.33-.9h.14a.19.19 0 0 0 .13 0 .13.13 0 0 0 0-.09.16.16 0 0 0 0-.12.15.15 0 0 0-.11 0h-.16V3zm0 .57h.18a.18.18 0 0 0 .14 0 .14.14 0 0 0 0-.09.19.19 0 0 0 0-.12.21.21 0 0 0-.17-.06h-.15v.32zm2.44-.33h-1.12a.38.38 0 0 0 .13.24.4.4 0 0 0 .27.09.46.46 0 0 0 .33-.14l.29.14a.69.69 0 0 1-.26.23.82.82 0 0 1-.36.07.71.71 0 0 1-.53-.2.7.7 0 0 1-.2-.51.72.72 0 0 1 .2-.53.69.69 0 0 1 .51-.21.71.71 0 0 1 .53.21.75.75 0 0 1 .2.55v.07zM61.29 3a.34.34 0 0 0-.14-.18.4.4 0 0 0-.24-.07.42.42 0 0 0-.26.08.45.45 0 0 0-.13.18zm.51-.52h1.29v.33h-.46v1.01h-.35V2.76h-.48v-.33zm2.88.28l-.29.16a.49.49 0 0 0-.16-.12.48.48 0 0 0-.19 0 .44.44 0 0 0-.32.12.39.39 0 0 0-.12.3.38.38 0 0 0 .12.29.42.42 0 0 0 .3.11.44.44 0 0 0 .36-.16l.27.19a.75.75 0 0 1-.63.29.76.76 0 0 1-.57-.22.72.72 0 0 1 .17-1.14.84.84 0 0 1 .4-.1.82.82 0 0 1 .37.08.71.71 0 0 1 .27.23zm.19-.28h1.29v.33h-.46v1.01h-.35V2.76h-.48v-.33zm1.52 1.39V2.43h.56a.5.5 0 0 1 .37.11.35.35 0 0 1 .1.24.3.3 0 0 1-.2.29.36.36 0 0 1 .27.36.37.37 0 0 1-.07.23.34.34 0 0 1-.18.12 1.21 1.21 0 0 1-.31 0zm.34-.87h.14A.19.19 0 0 0 67 3a.13.13 0 0 0 0-.09.16.16 0 0 0 0-.12.15.15 0 0 0-.11 0h-.16V3zm0 .57h.18a.19.19 0 0 0 .14 0 .14.14 0 0 0 0-.09.19.19 0 0 0 0-.12.21.21 0 0 0-.17-.06h-.15v.32zm2.44-.33H68a.38.38 0 0 0 .13.24.4.4 0 0 0 .27.09.46.46 0 0 0 .33-.14l.29.14a.69.69 0 0 1-.26.23.82.82 0 0 1-.36.07.71.71 0 0 1-.53-.2.7.7 0 0 1-.2-.51.72.72 0 0 1 .2-.53.69.69 0 0 1 .51-.21.71.71 0 0 1 .53.21.75.75 0 0 1 .2.55v.07zM68.82 3a.34.34 0 0 0-.14-.18.4.4 0 0 0-.24-.07.42.42 0 0 0-.26.08.45.45 0 0 0-.13.18zm1 0h.52v-.5h.35v1.32h-.35v-.58h-.52v.57h-.35V2.43h.35v.5zm1.57 0h.52v-.5h.35v1.32h-.35v-.58h-.52v.57H71V2.43h.35v.5zm1.87-.53a.74.74 0 0 1 .37.1.72.72 0 0 1 .37.63.73.73 0 0 1-.1.37.7.7 0 0 1-.27.27.74.74 0 0 1-.37.1.69.69 0 0 1-.51-.21.73.73 0 0 1 0-1.05.7.7 0 0 1 .48-.19zm0 .33a.36.36 0 0 0-.27.11.4.4 0 0 0-.11.29.41.41 0 0 0 .11.29.36.36 0 0 0 .27.11.36.36 0 0 0 .27-.11.4.4 0 0 0 .11-.29.4.4 0 0 0-.11-.29.36.36 0 0 0-.27-.11zm2.37 0l-.29.16a.49.49 0 0 0-.16-.12.48.48 0 0 0-.19 0 .44.44 0 0 0-.32.12.39.39 0 0 0-.12.3.38.38 0 0 0 .12.29.42.42 0 0 0 .3.11.44.44 0 0 0 .36-.16l.27.19a.85.85 0 0 1-1.2.07.72.72 0 0 1 .17-1.14.84.84 0 0 1 .4-.1.82.82 0 0 1 .37.08.7.7 0 0 1 .27.23zm.19-.28h1.29v.33h-.46v.97h-.35V2.76h-.5v-.33zm1.87.5h.1a1.3 1.3 0 0 1 .34 0 .38.38 0 0 1 .2.14.43.43 0 0 1 .08.27.46.46 0 0 1-.07.27.35.35 0 0 1-.19.14 1.13 1.13 0 0 1-.32 0h-.49V2.43h.35v.5zm0 .62h.24a.16.16 0 0 0 .07-.16.14.14 0 0 0 0-.09q0-.18-.21-.18h-.14v.33zm1.31.18h-.35V2.43H79V3h.19a.72.72 0 0 1 .27-.43.73.73 0 0 1 1 .06.69.69 0 0 1 .22.52.73.73 0 0 1-1.19.57.69.69 0 0 1-.26-.39H79v.52zm1.28-.69a.4.4 0 0 0-.11-.29.36.36 0 0 0-.27-.11.35.35 0 0 0-.27.11.44.44 0 0 0 0 .58.36.36 0 0 0 .27.11.37.37 0 0 0 .27-.11.4.4 0 0 0 .1-.3zM19.15 5.71h.54l-.39 1.17.39 1.12h-.55l-.39-1.15.39-1.17zm1 0h.55l-.39 1.17.36 1.12h-.55l-.39-1.15.39-1.17zM22 7.32l-1.16-2.43h.68l.74 1.76.61-1.76h.62l-.84 2.25a1.76 1.76 0 0 1-.47.77.87.87 0 0 1-.54.19 1.13 1.13 0 0 1-.86-.46l.39-.39a.64.64 0 0 0 .46.27.27.27 0 0 0 .17 0 .92.92 0 0 0 .2-.2zm2.4.68h-.58V5.71h2V8h-.58V6.27h-.84V8zM27 5.71V6a1.1 1.1 0 0 1 .34-.23 1 1 0 0 1 .39-.08 1 1 0 0 1 .77.34 1.25 1.25 0 0 1 .32.88 1.21 1.21 0 0 1-.33.87 1 1 0 0 1-.78.35 1 1 0 0 1-.33-.13 1.12 1.12 0 0 1-.38-.22v1.1h-.58V5.71zm.61.48a.61.61 0 0 0-.46.19.68.68 0 0 0-.18.49.7.7 0 0 0 .18.5.6.6 0 0 0 .46.19.59.59 0 0 0 .45-.19.7.7 0 0 0 .18-.5.69.69 0 0 0-.18-.49.59.59 0 0 0-.45-.19zm3.42-.48h.58V8h-.58v-.21a1.14 1.14 0 0 1-.34.23 1 1 0 0 1-.37.07 1 1 0 0 1-.78-.35 1.21 1.21 0 0 1-.33-.87 1.25 1.25 0 0 1 .34-.87 1 1 0 0 1 .77-.34 1 1 0 0 1 .39.08 1.09 1.09 0 0 1 .34.23v-.26zm-.61.48a.59.59 0 0 0-.45.19.69.69 0 0 0-.18.49.7.7 0 0 0 .18.5.63.63 0 0 0 .91 0 .7.7 0 0 0 .18-.5.68.68 0 0 0-.18-.49.61.61 0 0 0-.46-.19zM32.23 8V5.71h.94a.83.83 0 0 1 .62.18.59.59 0 0 1 .21.41.51.51 0 0 1-.34.49.6.6 0 0 1 .46.6.61.61 0 0 1-.12.39.58.58 0 0 1-.31.21 2.05 2.05 0 0 1-.52.05zm.58-1.41H33a.32.32 0 0 0 .22-.07.21.21 0 0 0 .08-.16.27.27 0 0 0-.08-.2.25.25 0 0 0-.18-.07h-.27v.5zm0 1h.3a.31.31 0 0 0 .24-.08.24.24 0 0 0 .07-.16.31.31 0 0 0-.08-.21.36.36 0 0 0-.28-.14h-.25v.53zm3.85.41h-.59l-.59-1.47L34.89 8h-.59l1-2.33h.38l1 2.33zm.7-1a.61.61 0 0 1-.36-.15.65.65 0 0 1-.12-.39.73.73 0 0 1 .2-.46.63.63 0 0 1 .35-.25 2.87 2.87 0 0 1 .64-.05h.59V8h-.58v-.81H38l-.59.81h-.69l.65-1zm.72-.32v-.49h-.2q-.33 0-.33.28t.37.28zM39.83 8h-.58V5.71h.58v.92h.31a1.22 1.22 0 0 1 .45-.72A1.22 1.22 0 0 1 42.2 6a1.16 1.16 0 0 1 .36.86 1.19 1.19 0 0 1-.35.86 1.18 1.18 0 0 1-.88.36 1.19 1.19 0 0 1-.76-.27 1.15 1.15 0 0 1-.43-.66h-.31V8zM42 6.87a.67.67 0 0 0-.18-.48.61.61 0 0 0-.46-.19.59.59 0 0 0-.45.19.74.74 0 0 0 0 1 .6.6 0 0 0 .45.19.61.61 0 0 0 .45-.19.66.66 0 0 0 .19-.52zm4.42.6H47v1h-.56V8H43V5.71h.58v1.76h.81V5.71H45v1.76h.81V5.71h.58v1.76zM49 5.71h.58V8H49v-.21a1.14 1.14 0 0 1-.34.23 1 1 0 0 1-.37.07 1 1 0 0 1-.78-.35 1.21 1.21 0 0 1-.33-.87 1.25 1.25 0 0 1 .34-.87 1 1 0 0 1 .77-.34 1 1 0 0 1 .39.08A1.08 1.08 0 0 1 49 6v-.29zm-.61.48a.59.59 0 0 0-.45.19.69.69 0 0 0-.18.49.7.7 0 0 0 .18.5.59.59 0 0 0 .45.19.6.6 0 0 0 .46-.19.7.7 0 0 0 .18-.5.68.68 0 0 0-.18-.49.61.61 0 0 0-.46-.19zm2.18.89a.61.61 0 0 1-.31-.23.65.65 0 0 1-.12-.39.72.72 0 0 1 .17-.46.63.63 0 0 1 .35-.25 2.87 2.87 0 0 1 .64-.05h.59V8h-.58v-.81h-.11l-.56.81h-.69l.65-1zm.72-.32v-.57h-.2q-.33 0-.33.28t.37.28zm2.39-1h.58v.87l.81-.87h.71l-1 1.13L55.82 8H55l-.7-.82-.06.07V8h-.54V5.71zm3.45-.06a1.24 1.24 0 0 1 .62.16 1.2 1.2 0 0 1 .62 1.05 1.22 1.22 0 0 1-.16.61 1.18 1.18 0 0 1-.45.45 1.24 1.24 0 0 1-.62.16 1.16 1.16 0 0 1-.86-.35 1.23 1.23 0 0 1 0-1.77 1.17 1.17 0 0 1 .81-.32zm0 .55a.6.6 0 0 0-.45.19.67.67 0 0 0-.18.48.68.68 0 0 0 .18.49.6.6 0 0 0 .45.19.61.61 0 0 0 .46-.19.75.75 0 0 0 0-1 .61.61 0 0 0-.46-.19zm3.13 1L61 5.71h.38L62 8h-.6l-.31-1.37-.7 1.37h-.24l-.68-1.37L59.16 8h-.57l.58-2.33h.38l.73 1.47zm2.61.75h-.58V5.71h2V8h-.58V6.27h-.88V8zm3.77-2.33h.58V8h-.58v-.21a1.14 1.14 0 0 1-.34.21 1 1 0 0 1-.37.07 1 1 0 0 1-.78-.35 1.21 1.21 0 0 1-.33-.87 1.25 1.25 0 0 1 .31-.85 1 1 0 0 1 .77-.34 1 1 0 0 1 .39.08 1.08 1.08 0 0 1 .34.23v-.26zm-.64.52a.59.59 0 0 0-.45.19.69.69 0 0 0-.18.49.7.7 0 0 0 .18.5.59.59 0 0 0 .45.19.6.6 0 0 0 .46-.19.7.7 0 0 0 .18-.5.68.68 0 0 0-.18-.49.61.61 0 0 0-.46-.19zm2.37.36h.88v-.84h.58V8h-.58V7h-.88v1h-.58V5.71h.58v.84zM70.75 8h-.31V5.71H71v1.36l1.2-1.36h.28V8h-.57V6.7L70.75 8zm2.72-1a.61.61 0 0 1-.31-.23.66.66 0 0 1-.16-.31.72.72 0 0 1 .18-.46.63.63 0 0 1 .35-.25 2.87 2.87 0 0 1 .64-.05h.59V8h-.58v-.81h-.11l-.56.81h-.69l.65-1zm.72-.32v-.49H74q-.33 0-.33.28t.37.28zm-55.04 3.51h.54l-.39 1.17.39 1.15h-.55l-.39-1.15.39-1.17zm1 0h.55l-.39 1.17.39 1.15h-.55l-.39-1.15.39-1.17zm1 2.33V9.37h.5a2.57 2.57 0 0 1 .63.06.85.85 0 0 1 .45.28.73.73 0 0 1 .17.48.7.7 0 0 1-.08.33.83.83 0 0 1-.25.28 1 1 0 0 1 .42.34.85.85 0 0 1 .13.48.89.89 0 0 1-.14.48.88.88 0 0 1-.35.33 1.36 1.36 0 0 1-.6.11zm.6-2.58v.67h.13a.5.5 0 0 0 .33-.09.31.31 0 0 0 .11-.25.29.29 0 0 0-.1-.23.48.48 0 0 0-.31-.09zm0 1.2v.81h.15a1 1 0 0 0 .51-.09.31.31 0 0 0 .13-.27.38.38 0 0 0-.15-.32.86.86 0 0 0-.51-.12zm4.21.38H24a.63.63 0 0 0 .22.4.67.67 0 0 0 .45.15.77.77 0 0 0 .56-.23l.49.23a1.16 1.16 0 0 1-.44.39 1.37 1.37 0 0 1-.61.12 1.2 1.2 0 0 1-.89-.34 1.17 1.17 0 0 1-.34-.86 1.21 1.21 0 0 1 .34-.88 1.15 1.15 0 0 1 .86-.35 1.2 1.2 0 0 1 .89.35 1.26 1.26 0 0 1 .34.92v.11zm-.58-.46a.58.58 0 0 0-.23-.31.67.67 0 0 0-.4-.12.71.71 0 0 0-.43.13.74.74 0 0 0-.21.29zm.85-.87h2.17v.56h-.78v1.77H27v-1.78h-.81v-.56zm3.13 0v.26a1.1 1.1 0 0 1 .34-.23 1 1 0 0 1 .39-.08 1 1 0 0 1 .77.34 1.24 1.24 0 0 1 .32.88 1.21 1.21 0 0 1-.33.87 1 1 0 0 1-.78.35 1 1 0 0 1-.37-.07 1.13 1.13 0 0 1-.34-.23v1.1h-.66v-3.19zm.61.48a.61.61 0 0 0-.46.19.68.68 0 0 0-.18.49.69.69 0 0 0 .18.5.6.6 0 0 0 .46.19.59.59 0 0 0 .45-.19.69.69 0 0 0 .18-.5.69.69 0 0 0-.18-.49.59.59 0 0 0-.45-.19zm2.79-.53a1.24 1.24 0 0 1 .62.16 1.2 1.2 0 0 1 .62 1.05 1.22 1.22 0 0 1-.16.61 1.18 1.18 0 0 1-.45.45 1.24 1.24 0 0 1-.62.16 1.16 1.16 0 0 1-.86-.35 1.22 1.22 0 0 1 .85-2.08zm0 .55a.6.6 0 0 0-.45.19.67.67 0 0 0-.18.48.68.68 0 0 0 .18.49.6.6 0 0 0 .45.19.61.61 0 0 0 .46-.19.75.75 0 0 0 0-1 .61.61 0 0 0-.46-.19zm3.34.91h-.78v-.51H36a.7.7 0 0 0-.68-.42.85.85 0 0 0-.61.26l-.49-.27a1.41 1.41 0 0 1 2-.18 1.23 1.23 0 0 1 0 1.74 1.31 1.31 0 0 1-1 .35 1.33 1.33 0 0 1-1.06-.49l.46-.31a.74.74 0 0 0 .62.28.67.67 0 0 0 .67-.45zm1.61-.6h.88v-.84h.58v2.33h-.58v-1h-.88v1h-.58v-2.3h.58V11zm4.37.49h-1.87a.63.63 0 0 0 .22.4.67.67 0 0 0 .45.15.77.77 0 0 0 .56-.23l.49.23a1.16 1.16 0 0 1-.44.39 1.37 1.37 0 0 1-.61.12 1.2 1.2 0 0 1-.89-.34 1.17 1.17 0 0 1-.34-.86 1.21 1.21 0 0 1 .34-.88 1.15 1.15 0 0 1 .86-.35 1.2 1.2 0 0 1 .89.35 1.26 1.26 0 0 1 .34.92v.11zm-.58-.46a.58.58 0 0 0-.23-.31.67.67 0 0 0-.4-.12.71.71 0 0 0-.43.13.74.74 0 0 0-.21.29zm1.64-.87v.26a1.1 1.1 0 0 1 .34-.23 1 1 0 0 1 .39-.08 1 1 0 0 1 .77.34 1.24 1.24 0 0 1 .32.88 1.21 1.21 0 0 1-.33.87 1 1 0 0 1-.78.35 1 1 0 0 1-.37-.07 1.13 1.13 0 0 1-.34-.23v1.1h-.58v-3.16zm.61.48a.61.61 0 0 0-.46.19.68.68 0 0 0-.18.49.7.7 0 0 0 .18.5.6.6 0 0 0 .46.19.59.59 0 0 0 .45-.19.69.69 0 0 0 .18-.5.69.69 0 0 0-.18-.49.59.59 0 0 0-.45-.19zm1.7-.48h1.36v.56H46v1.77h-.58v-2.3zm4.08 1.33h-1.87a.63.63 0 0 0 .22.4.67.67 0 0 0 .45.15.77.77 0 0 0 .56-.23l.49.23a1.16 1.16 0 0 1-.44.39 1.37 1.37 0 0 1-.61.12 1.2 1.2 0 0 1-.89-.34 1.17 1.17 0 0 1-.34-.86 1.21 1.21 0 0 1 .34-.88 1.15 1.15 0 0 1 .86-.35 1.2 1.2 0 0 1 .89.35 1.26 1.26 0 0 1 .34.92v.11zm-.53-.43a.58.58 0 0 0-.23-.31.67.67 0 0 0-.4-.12.71.71 0 0 0-.43.13.75.75 0 0 0-.21.29zm.85-.87H52v.56h-.8v1.77h-.58v-1.78h-.82v-.56zm2.86 2.33h-.31v-2.33h.57v1.37l1.19-1.37h.28v2.33h-.57v-1.35l-1.16 1.34zM55 10.19h.58v.87l.81-.87h.71l-1 1.13 1.05 1.2h-.78l-.7-.82-.06.07v.75H55v-2.33zm4.07 0h.58v2.33h-.58v-.25a1.14 1.14 0 0 1-.34.23 1 1 0 0 1-.37.07 1 1 0 0 1-.78-.35 1.21 1.21 0 0 1-.33-.87 1.25 1.25 0 0 1 .32-.88 1 1 0 0 1 .77-.34 1 1 0 0 1 .39.08 1.08 1.08 0 0 1 .34.23v-.26zm-.61.48a.59.59 0 0 0-.45.19.69.69 0 0 0-.18.49.69.69 0 0 0 .18.5.59.59 0 0 0 .45.19.6.6 0 0 0 .46-.19.7.7 0 0 0 .18-.5.68.68 0 0 0-.18-.49.61.61 0 0 0-.46-.19zm3.05 1.85h-.55l.39-1.17-.39-1.15h.55l.39 1.15-.39 1.17zm-1 0H60l.39-1.17-.39-1.16h.55l.39 1.15z" fill="#fff" fill-rule="evenodd"/></g></g></svg>