<svg xmlns="http://www.w3.org/2000/svg" viewBox="0 0 15.96 11.24"><g data-name="Слой 2"><path d="M10.75 6.59a1 1 0 0 0-.18-.34.91.91 0 0 0-.3-.24.88.88 0 0 0-.4-.09.86.86 0 0 0-.42.08.91.91 0 0 0-.29.25 1 1 0 0 0-.16.36 1.38 1.38 0 0 0-.06.4 1.33 1.33 0 0 0 .06.4 1.07 1.07 0 0 0 .18.35.88.88 0 0 0 .3.24.87.87 0 0 0 .4.09.86.86 0 0 0 .41-.1.9.9 0 0 0 .29-.25 1.09 1.09 0 0 0 .17-.35 1.38 1.38 0 0 0 .06-.4 1.34 1.34 0 0 0-.06-.4zM12 3.29a4 4 0 0 1 0 8H3.42a3.42 3.42 0 0 1 0-6.85h.11v-.11a4.28 4.28 0 0 1 8.45-1zM7.67 8.34A1.06 1.06 0 0 0 7.91 8l-.68-.4a.71.71 0 0 1-.15.23.81.81 0 0 1-.2.15.94.94 0 0 1-.23.09h-.23A.85.85 0 0 1 6 8a.91.91 0 0 1-.3-.24 1.08 1.08 0 0 1-.19-.35A1.29 1.29 0 0 1 5.49 7a1.39 1.39 0 0 1 .06-.39 1 1 0 0 1 .17-.34A.92.92 0 0 1 6 6a.86.86 0 0 1 .41-.1h.23a.85.85 0 0 1 .24.1.84.84 0 0 1 .2.15.74.74 0 0 1 .15.23L7.87 6a1.4 1.4 0 0 0-.55-.57 1.7 1.7 0 0 0-.88-.22 1.76 1.76 0 0 0-.76.16 1.8 1.8 0 0 0-.57.41 1.75 1.75 0 0 0-.35.57 1.81 1.81 0 0 0-.12.65 1.86 1.86 0 0 0 .13.68 1.93 1.93 0 0 0 .36.6 1.81 1.81 0 0 0 .56.42 1.61 1.61 0 0 0 .71.16 2 2 0 0 0 .45-.06 2 2 0 0 0 .44-.16 1.48 1.48 0 0 0 .37-.26zm3.84-.65a1.82 1.82 0 0 1-.94 1 1.69 1.69 0 0 1-.72.15 1.66 1.66 0 0 1-.73-.16 1.79 1.79 0 0 1-.56-.41 1.88 1.88 0 0 1-.36-.58A1.84 1.84 0 0 1 8.08 7a1.79 1.79 0 0 1 .13-.68 1.81 1.81 0 0 1 .94-1 1.71 1.71 0 0 1 .72-.15 1.67 1.67 0 0 1 .73.16 1.78 1.78 0 0 1 .56.41 1.88 1.88 0 0 1 .36.59 1.84 1.84 0 0 1 .13.67 1.79 1.79 0 0 1-.13.68zm.14 1.76h1.18v-.34h-.64l.06-.05.09-.06.1-.06h.09l.1-.07.09-.08a.41.41 0 0 0 .07-.11.4.4 0 0 0-.11-.44.61.61 0 0 0-.39-.11h-.2l-.18.05-.14.07-.1.08.24.28a.71.71 0 0 1 .09-.16.3.3 0 0 1 .17 0 .2.2 0 0 1 .13 0 .13.13 0 0 1 0 .11.09.09 0 0 1 0 .06l-.06.06-.12.07-.19.1-.09.15a.52.52 0 0 0-.11.13.53.53 0 0 0-.06.16 1.08 1.08 0 0 0-.01.16z" fill="#004672" fill-rule="evenodd" data-name="Layer 1"/></g></svg>