<svg xmlns="http://www.w3.org/2000/svg" viewBox="0 0 19.2 19.2"><g data-name="Слой 2"><g data-name="Layer 1" fill-rule="evenodd"><path d="M9.6 19.2A9.6 9.6 0 1 0 0 9.6a9.62 9.62 0 0 0 9.6 9.6z" fill="#278f60"/><path d="M9.6 7.61A.58.58 0 1 0 9 7a.58.58 0 0 0 .58.58zm0-3.78A5.77 5.77 0 1 1 3.83 9.6 5.78 5.78 0 0 1 9.6 3.83zm0 10.71a4.94 4.94 0 1 1 4.94-4.94 4.95 4.95 0 0 1-4.94 4.94zm1-3.1H10V8.77a.41.41 0 0 0-.41-.41h-1a.41.41 0 1 0 0 .83h.62v2.68a.41.41 0 0 0 .41.41h1a.41.41 0 0 0 0-.83z" fill="#fff"/></g></g></svg>