<svg xmlns="http://www.w3.org/2000/svg" version="1.0" width="1133.858" height="534.685"><g fill="red"><path d="M1020.248 304.255c-22.772 6.118 5.26-45.56 5.26-45.56l38.552-80.576-82.33 4.381c-101.606.88-139.259 56.046-139.259 56.046-39.452 47.312-64.853 51.676-64.853 51.676-23.637 3.509-7.856-19.252-7.856-19.252l44.643-80.597c7.89-13.133-2.63-10.503-2.63-10.503l-45.543 8.752c-11.351 1.751-4.36-4.367-4.36-4.367l45.542-56.94c11.386-14.887-7.89-7.014-7.89-7.014l-84.095 24.533-21.007 35.915c-21.041 26.267 5.26 17.518 5.26 17.518-103.855 115.204-105.69 83.88-105.69 83.88-20.764-7.547 43.432-101.99 43.432-101.99l-73.505 11.97c-39.66 84.982-85.826 73.582-85.826 73.582-35.057-4.384 20.142-83.209 20.142-83.209l-64.854 8.752c-41.529 41.563-123.478 81.472-123.478 81.472l55.544-94.442-80.946 17.355-42.913 63.933c-21.04 31.551-34.191 49.049-34.191 49.049-7.856 6.139-42.013 35.915-42.013 35.915C129.462 374.327 39.24 487.309 39.24 487.309c-18.411 24.533 35.922 3.51 35.922 3.51l64.82-17.519c24.5-6.14 42.047-24.536 42.047-24.536l95.446-119.118c18.411-5.264 120.017-64.812 120.017-64.812-28.031 84.96 32.427 79.7 32.427 79.7 43.778 0 95.447-31.53 95.447-31.53 5.26 40.296 38.552 30.651 38.552 30.651 64.819-2.61 167.29-139.27 167.29-139.27l12.251-1.733-34.157 56.043c-53.433 90.22 6.126 86.715 6.126 86.715 49.072-.876 112.127-44.664 112.127-44.664 3.495 49.924 43.812 43.788 43.812 43.788 39.418 0 85.826-34.16 85.826-34.16 2.63 32.405 35.022 33.281 35.022 33.281 34.157 0 55.198-46.415 55.198-46.415l-5.26-2.634c-11.386 8.752-21.906 9.649-21.906 9.649zm-56.929-63.079c-12.25 23.658-44.678 39.421-44.678 39.421-58.659 11.38-19.276-35.915-19.276-35.915 15.781-15.763 37.687-23.636 37.687-23.636 49.904-14.03 26.267 20.13 26.267 20.13M355.446 48.495l61.324-12.279s14.88-5.24 4.36 12.279c0 0-22.771 55.163-65.684 62.178 0 0-41.183 11.382-30.662-19.27 0 0 14.016-36.79 30.662-42.908m703.908 272.932c0 10.766 8.755 19.515 19.553 19.515 10.763 0 19.518-8.749 19.518-19.515 0-10.77-8.755-19.54-19.518-19.54-10.798 0-19.553 8.77-19.553 19.54zm3.772 0c0-8.71 7.094-15.767 15.78-15.767 8.653 0 15.747 7.056 15.747 15.767 0 8.665-7.094 15.743-15.746 15.743-8.687 0-15.781-7.078-15.781-15.743"/><path d="M1070.463 310.19h9.413c1.523 0 2.803.242 3.807.734 1.903.958 2.872 2.73 2.872 5.301 0 1.347-.277 2.447-.761 3.305-.52.855-1.246 1.53-2.18 2.06.795.346 1.418.834 1.834 1.405.415.57.622 1.53.692 2.834l.103 3.042c.035.855.104 1.488.208 1.917.173.713.485 1.18.9 1.384v.492h-3.495c-.07-.204-.173-.45-.208-.755-.07-.308-.07-.9-.104-1.775l-.208-3.772c-.034-1.471-.553-2.468-1.453-2.96-.52-.283-1.315-.407-2.422-.407h-6.195v9.669h-2.803V310.19zm9.067 10.278c1.28 0 2.284-.287 3.01-.858.762-.571 1.108-1.592 1.108-3.06 0-1.609-.485-2.692-1.557-3.263-.52-.304-1.28-.446-2.215-.446h-6.61v7.627h6.264"/></g></svg>