<svg xmlns="http://www.w3.org/2000/svg" xmlns:xlink="http://www.w3.org/1999/xlink"><symbol id="icon-menu-close" viewBox="0 0 34 34">
<path fill-rule="evenodd" clip-rule="evenodd" d="M14.1421 16.9706L0.707031 30.4056L3.53564 33.234L16.9707 19.799L30.4058 33.2341L33.2344 30.4058L19.7988 16.9705L33.9409 2.82849L31.1128 0L16.9707 14.1421L2.82861 0.00012207L0 2.82849L14.1421 16.9706Z" fill="#999999"/>
</symbol><symbol id="icon-menu-contact" viewBox="0 0 200 200"><path d="M186 24.333C186 10.894 175.106 0 161.667 0H24.333C10.894 0 0 10.894 0 24.333v137.333C0 175.106 10.894 186 24.333 186h137.333c13.44 0 24.334-10.894 24.334-24.333V24.333zM92.5 43.142c13.111 0 23.74 10.629 23.74 23.74 0 13.112-10.629 23.74-23.74 23.74s-23.74-10.629-23.74-23.74c0-13.111 10.629-23.74 23.74-23.74zM130.949 153H55.717c-7.173 0-12.988-5.888-12.988-13.061 0-20.497 12.636-38.106 30.539-45.345a33.568 33.568 0 0 0 19.233 6.025 33.57 33.57 0 0 0 19.827-6.448c18.469 6.962 31.61 24.863 31.61 45.768 0 7.173-5.815 13.061-12.989 13.061z"/></symbol><symbol id="icon-menu-dots" viewBox="0 0 300 300"><path d="M33.144 2.471C15.336 2.471.85 16.958.85 34.765s14.48 32.293 32.294 32.293 32.294-14.486 32.294-32.293S50.951 2.471 33.144 2.471zM137.663 2.471c-17.807 0-32.294 14.487-32.294 32.294s14.487 32.293 32.294 32.293c17.808 0 32.297-14.486 32.297-32.293S155.477 2.471 137.663 2.471zM243.873 67.059c17.804 0 32.294-14.486 32.294-32.293S261.689 2.471 243.873 2.471s-32.294 14.487-32.294 32.294 14.489 32.294 32.294 32.294zM32.3 170.539c17.807 0 32.297-14.483 32.297-32.293 0-17.811-14.49-32.297-32.297-32.297S0 120.436 0 138.246c0 17.81 14.493 32.293 32.3 32.293zM136.819 170.539c17.804 0 32.294-14.483 32.294-32.293 0-17.811-14.478-32.297-32.294-32.297-17.813 0-32.294 14.486-32.294 32.297 0 17.81 14.487 32.293 32.294 32.293zM243.038 170.539c17.811 0 32.294-14.483 32.294-32.293 0-17.811-14.483-32.297-32.294-32.297s-32.306 14.486-32.306 32.297c0 17.81 14.49 32.293 32.306 32.293zM33.039 209.108c-17.807 0-32.3 14.483-32.3 32.294 0 17.804 14.493 32.293 32.3 32.293s32.293-14.482 32.293-32.293-14.486-32.294-32.293-32.294zM137.564 209.108c-17.808 0-32.3 14.483-32.3 32.294 0 17.804 14.487 32.293 32.3 32.293 17.804 0 32.293-14.482 32.293-32.293s-14.489-32.294-32.293-32.294zM243.771 209.108c-17.804 0-32.294 14.483-32.294 32.294 0 17.804 14.49 32.293 32.294 32.293 17.811 0 32.294-14.482 32.294-32.293s-14.49-32.294-32.294-32.294z"/></symbol><symbol id="icon-menu-open"><path fill="#999999" d="M0 0h19.958v2H0zm0 6h19.958v2H0zm0 6h19.958v2H0z"/></symbol><symbol id="icon-menu-sms" viewBox="0 0 480.56 480.56"><path d="M484.5 102h-51v229.5H102v51c0 15.3 10.2 25.5 25.5 25.5H408l102 102V127.5c0-15.3-10.2-25.5-25.5-25.5zm-102 153V25.5C382.5 10.2 372.3 0 357 0H25.5C10.2 0 0 10.2 0 25.5v357l102-102h255c15.3 0 25.5-10.2 25.5-25.5z"/></symbol><symbol id="icon-menu-telephone" viewBox="0 0 480.56 480.56"><path d="M365.354 317.9c-15.7-15.5-35.3-15.5-50.9 0-11.9 11.8-23.8 23.6-35.5 35.6-3.2 3.3-5.9 4-9.8 1.8-7.7-4.2-15.9-7.6-23.3-12.2-34.5-21.7-63.4-49.6-89-81-12.7-15.6-24-32.3-31.9-51.1-1.6-3.8-1.3-6.3 1.8-9.4 11.9-11.5 23.5-23.3 35.2-35.1 16.3-16.4 16.3-35.6-.1-52.1-9.3-9.4-18.6-18.6-27.9-28-9.6-9.6-19.1-19.3-28.8-28.8-15.7-15.3-35.3-15.3-50.9.1-12 11.8-23.5 23.9-35.7 35.5-11.3 10.7-17 23.8-18.2 39.1-1.9 24.9 4.2 48.4 12.8 71.3 17.6 47.4 44.4 89.5 76.9 128.1 43.9 52.2 96.3 93.5 157.6 123.3 27.6 13.4 56.2 23.7 87.3 25.4 21.4 1.2 40-4.2 54.9-20.9 10.2-11.4 21.7-21.8 32.5-32.7 16-16.2 16.1-35.8.2-51.8-19-19.1-38.1-38.1-57.2-57.1zM346.254 238.2l36.9-6.3c-5.8-33.9-21.8-64.6-46.1-89-25.7-25.7-58.2-41.9-94-46.9l-5.2 37.1c27.7 3.9 52.9 16.4 72.8 36.3 18.8 18.8 31.1 42.6 35.6 68.8zM403.954 77.8c-42.6-42.6-96.5-69.5-156-77.8l-5.2 37.1c51.4 7.2 98 30.5 134.8 67.2 34.9 34.9 57.8 79 66.1 127.5l36.9-6.3c-9.7-56.2-36.2-107.2-76.6-147.7z"/></symbol><symbol id="icon-phone" viewBox="0 0 9.6 9.6"><g data-name="&#x421;&#x43B;&#x43E;&#x439; 2"><g data-name="Layer 1"><circle cx="4.8" cy="4.8" r="4.8" fill="#008cc9"/><path d="M7.14 6.12a2.73 2.73 0 0 0-.82-.71c-.15-.08-.32-.09-.4.06a3.33 3.33 0 0 1-.26.29.49.49 0 0 1-.66-.07L3.91 4.63a.49.49 0 0 1-.07-.69 3.38 3.38 0 0 1 .29-.26c.15-.08.14-.26.06-.4a2.74 2.74 0 0 0-.71-.82.36.36 0 0 0-.42.06l-.23.23c-.74.74-.38 1.57.36 2.31l1.34 1.36c.74.74 1.57 1.1 2.31.36l.23-.23a.36.36 0 0 0 .07-.43z" fill="#fff" fill-rule="evenodd"/></g></g></symbol><symbol id="icon-user" viewBox="0 0 299.997 299.997"><path d="M149.996 0C67.157 0 .001 67.158.001 149.997c0 82.837 67.156 150 149.995 150s150-67.163 150-150C299.996 67.156 232.835 0 149.996 0zm.457 220.763v-.002H85.465c0-46.856 41.152-46.845 50.284-59.097l1.045-5.587c-12.83-6.502-21.887-22.178-21.887-40.512 0-24.154 15.712-43.738 35.089-43.738s35.089 19.584 35.089 43.738c0 18.178-8.896 33.756-21.555 40.361l1.19 6.349c10.019 11.658 49.802 12.418 49.802 58.488h-64.069z"/></symbol></svg>