<svg width="163" height="34" fill="none" xmlns="http://www.w3.org/2000/svg"><path d="M1.281 21V9.547h1.516v4.703H8.75V9.547h1.516V21H8.75v-5.398H2.797V21H1.28zm14.43 0V10.898h-3.774V9.547h9.079v1.351h-3.79V21h-1.515zm6.82 0V9.547h2.282l2.71 8.11c.25.755.433 1.32.547 1.695.13-.417.334-1.03.61-1.836l2.742-7.97h2.039V21H32v-9.586L28.672 21h-1.367l-3.313-9.75V21h-1.46zm13.313 0V9.547h1.515v10.101H43V21h-7.156zm10.68 0l4.398-11.453h1.633L57.242 21h-1.726l-1.336-3.469h-4.79L48.134 21h-1.61zm3.304-4.703h3.883l-1.195-3.172a31.339 31.339 0 01-.813-2.375 14.588 14.588 0 01-.617 2.188l-1.258 3.359zm13.86 1.664l1.382.18c-.15.953-.539 1.7-1.164 2.242-.62.536-1.383.805-2.289.805-1.135 0-2.05-.37-2.742-1.11-.688-.745-1.031-1.81-1.031-3.195 0-.896.148-1.68.445-2.352.297-.672.747-1.174 1.352-1.508a4.02 4.02 0 011.984-.507c.901 0 1.638.229 2.21.687.574.453.941 1.1 1.102 1.938l-1.367.21c-.13-.557-.362-.976-.695-1.257-.328-.281-.727-.422-1.195-.422-.709 0-1.284.255-1.727.765-.443.506-.664 1.308-.664 2.407 0 1.114.214 1.924.64 2.43.428.505.985.757 1.673.757.552 0 1.013-.169 1.382-.508.37-.338.605-.859.703-1.562zm8 2.016c-.521.442-1.024.755-1.508.937-.48.182-.995.273-1.547.273-.912 0-1.612-.22-2.102-.664-.49-.447-.734-1.018-.734-1.71 0-.407.091-.776.273-1.11.188-.338.43-.61.727-.812.302-.203.64-.357 1.016-.461.275-.073.692-.143 1.25-.211 1.135-.136 1.97-.297 2.507-.485.006-.192.008-.315.008-.367 0-.573-.133-.976-.398-1.21-.36-.319-.894-.477-1.602-.477-.661 0-1.15.117-1.469.351-.312.23-.544.638-.695 1.227l-1.375-.188c.125-.588.33-1.062.617-1.422.287-.364.7-.643 1.242-.835.542-.198 1.17-.297 1.883-.297.709 0 1.284.083 1.727.25.443.166.768.377.976.632.209.25.355.568.438.954.047.24.07.671.07 1.296v1.875c0 1.308.029 2.136.086 2.485.063.344.182.674.36.992h-1.47a2.981 2.981 0 01-.28-1.023zm-.118-3.141c-.51.208-1.276.385-2.297.531-.578.084-.986.177-1.226.281a1.214 1.214 0 00-.75 1.125c0 .375.14.688.422.938.286.25.703.375 1.25.375.541 0 1.023-.117 1.445-.352.422-.24.732-.565.93-.976.15-.318.226-.787.226-1.406v-.516zM80.563 21v-1.047c-.526.823-1.3 1.235-2.32 1.235a3.278 3.278 0 01-1.829-.547c-.552-.365-.982-.873-1.289-1.524-.302-.656-.453-1.409-.453-2.258 0-.828.138-1.578.414-2.25.276-.677.69-1.195 1.242-1.554.552-.36 1.17-.54 1.852-.54.5 0 .945.107 1.336.32.39.21.708.483.953.821v-4.11h1.398V21h-1.305zm-4.446-4.14c0 1.062.224 1.856.672 2.382.448.526.977.79 1.586.79.615 0 1.135-.25 1.563-.75.432-.506.648-1.274.648-2.305 0-1.136-.219-1.97-.656-2.5-.438-.532-.977-.797-1.618-.797-.624 0-1.148.255-1.57.765-.416.51-.625 1.315-.625 2.414zm13.649 1.468l1.453.18c-.23.849-.654 1.508-1.274 1.976-.62.47-1.411.703-2.375.703-1.213 0-2.177-.372-2.89-1.117-.709-.75-1.063-1.8-1.063-3.148 0-1.396.36-2.48 1.078-3.25.72-.771 1.651-1.156 2.797-1.156 1.11 0 2.016.377 2.719 1.132.703.756 1.055 1.818 1.055 3.188 0 .083-.003.208-.008.375H85.07c.052.911.31 1.61.774 2.094.463.484 1.041.726 1.734.726.516 0 .956-.135 1.32-.406.365-.27.654-.703.868-1.297zm-4.618-2.273h4.633c-.062-.698-.24-1.222-.531-1.57-.448-.542-1.029-.813-1.742-.813-.646 0-1.19.216-1.633.648-.438.433-.68 1.01-.727 1.735zM92.992 21v-8.297h1.258v1.164c.26-.406.607-.732 1.04-.976.431-.25.923-.375 1.476-.375.614 0 1.117.127 1.507.382.396.256.675.612.836 1.07.657-.968 1.511-1.452 2.563-1.452.823 0 1.456.229 1.898.687.443.453.664 1.154.664 2.102V21h-1.398v-5.227c0-.562-.047-.966-.141-1.21a1.15 1.15 0 00-.492-.602 1.548 1.548 0 00-.844-.227c-.583 0-1.067.196-1.453.586-.385.386-.578 1.005-.578 1.86V21h-1.406v-5.39c0-.626-.115-1.094-.344-1.407-.229-.312-.604-.469-1.125-.469-.396 0-.763.104-1.101.313a1.778 1.778 0 00-.727.914c-.151.401-.227.98-.227 1.734V21h-1.406zm13.266 3.195l-.156-1.32c.307.083.575.125.804.125.313 0 .563-.052.75-.156.188-.104.341-.25.461-.438.089-.14.232-.49.43-1.047.026-.078.068-.192.125-.343l-3.149-8.313h1.516l1.727 4.805c.224.61.424 1.25.601 1.922a18.98 18.98 0 01.578-1.89l1.774-4.837h1.406l-3.156 8.438c-.339.911-.602 1.539-.789 1.882-.25.464-.537.803-.86 1.016-.323.219-.708.328-1.156.328-.271 0-.573-.057-.906-.172z" fill="#444"/><path d="M149.643.016L149.5 0 136 1.407v24.606L149.5 34l13.5-7.987V1.407L149.643.016zm11.591 25l-11.734 6.94-11.734-6.942V14.93l11.685 6.916.019 1.253-8.016-4.743-.011 1.225 8.046 4.809.02 1.286-8.045-4.758-.01 1.226 8.046 4.808 8.124-4.833V16.91l3.619-2.15-.009 10.256zm0-11.564l-3.219 1.88-1.482.875-7.066-4.187-.011 1.225 6.04 3.573-.053.031-.13.076-.859.492-4.987-2.948-.011 1.225 3.936 2.328-.933.61-.021.012-2.971-1.742-.011 1.225 1.947 1.135-1.987 1.186-11.619-6.872 11.638-6.958 11.799 6.834zm0-1.225L149.44 5.31l-11.674 6.909V2.99L149.5 1.764l11.734 1.226v9.237z" fill="#666"/></svg>