<svg viewBox="0 0 33 28" fill="none" xmlns="http://www.w3.org/2000/svg"><path fill-rule="evenodd" clip-rule="evenodd" d="M1.072 23.54c.17.14 1.9-1.54 2.09-1.94h.1a1 1 0 00.68-.41 5.43 5.43 0 012.76-1.9 6.21 6.21 0 012-.33c2.43 0 4.54 1.44 6.73 2.27 1.19.498 2.462.766 3.75.79.582 0 1.162-.063 1.73-.19a6.57 6.57 0 003.52-1.92c.21-.24 1.54-1.73 1.7-2a1 1 0 00-.27-1.37.82.82 0 00-.54-.16.931.931 0 00-.81.43l-.24.33c-.63.73-2.65 2.51-3.76 2.76a7.38 7.38 0 01-3.14-.11 19.697 19.697 0 01-3.16-1.22 22.632 22.632 0 00-3.59-1.38 7.77 7.77 0 00-1.92-.24 7.922 7.922 0 00-2.63.43 8.001 8.001 0 00-2.05 1 6.89 6.89 0 00-1.67 1.65.735.735 0 00-.09.13c-.21.48-1.59 3.13-1.19 3.38zm22.44-14.28a3.42 3.42 0 116.84.02 3.42 3.42 0 01-6.84-.02zm-13-.43l6.49-1.29.11.41.32 3.59c-.11 0-7.44 2-8.95 2.43 1.018.541 2.1.951 3.22 1.22 4.29 1.16 7.46.49 10.24.65l-3-9.95v-.06a1.16 1.16 0 00-1.33-.81l-7.56 1.52a1.13 1.13 0 00-.89 1.36 1.18 1.18 0 001.35.89v.04z" fill="#42474D"/></svg>