<svg width="24" height="24" fill="none" xmlns="http://www.w3.org/2000/svg"><path d="M2.86 2.702A.703.703 0 002.155 2H.703A.703.703 0 000 2.702v9.366c0 .388.315.703.703.703h1.453a.703.703 0 00.703-.703V9.024h1.407V5.746H2.859V2.702zM23.297 2h-1.453a.703.703 0 00-.703.702v3.044h-1.407v3.278h1.407v3.044c0 .388.314.703.703.703h1.453a.703.703 0 00.703-.703V2.702A.703.703 0 0023.297 2zm-6.551 1.873c-.874 0-1.582.708-1.582 1.58a1.581 1.581 0 00-3.164 0 1.581 1.581 0 00-3.164 0 1.581 1.581 0 00-3.164 0v2.952a3.264 3.264 0 011.406-.317h4.687a2.11 2.11 0 012.11 2.107v.234c0 .15-.01.3-.027.446a1.581 1.581 0 001.316-1.558 1.581 1.581 0 003.164 0V5.454a1.58 1.58 0 00-1.582-1.58z" fill="#42474D"/><path d="M15.164 11.848a2.972 2.972 0 01-1.582.454h-.024a3.285 3.285 0 01-2.964 1.874h-.938v.214a.716.716 0 01-.669.721.703.703 0 01-.737-.701v-.937c0-.388.315-.702.703-.702h1.172a2.343 2.343 0 002.344-2.342v-.234a.703.703 0 00-.704-.702H7.078a1.874 1.874 0 00-1.875 1.873v3.044a3.518 3.518 0 003.281 3.504v2.584c0 .387.315.702.703.702h5.625a.703.703 0 00.703-.702V17.85a3.52 3.52 0 002.813-3.441v-2.562a2.971 2.971 0 01-1.582.454c-.58 0-1.123-.166-1.582-.454z" fill="#42474D"/></svg>