<svg width="79" height="79" fill="none" xmlns="http://www.w3.org/2000/svg"><path d="M13.795 32.23l7.853-.83 2.488 23.557-7.852.83-2.489-23.557zm16.758-4.407a1.317 1.317 0 001.17-1.449l-.277-2.619a1.314 1.314 0 00-1.448-1.17l-26.18 2.77a1.317 1.317 0 00-1.17 1.448l.276 2.62a1.317 1.317 0 001.449 1.17l26.18-2.77zM15.52 10.876a3.908 3.908 0 00-3.407 3.008l7.374-.78a3.902 3.902 0 00-3.966-2.228zM7.462 22.32l18.332-1.94a1.315 1.315 0 001.17-1.448l-.276-2.617a1.317 1.317 0 00-1.449-1.172l-18.33 1.94a1.315 1.315 0 00-1.17 1.449l.276 2.619a1.317 1.317 0 001.447 1.17zm27.127 17.808l1.62-10.817a6.612 6.612 0 016.504-5.611H62.62a6.613 6.613 0 016.504 5.614l1.634 10.855a26.76 26.76 0 014.36 5.332L73.252 26.86a7.875 7.875 0 00-7.854-7.11H39.934a7.84 7.84 0 00-6.056 2.875c.096.277.16.563.195.854l.276 2.619a3.95 3.95 0 01-2.592 4.12L30.21 45.543a26.44 26.44 0 014.378-5.414zM22.444 76.344a3.91 3.91 0 003.413-3.006l-7.38.78a3.899 3.899 0 003.967 2.226zm11.709-14.478a1.317 1.317 0 001.17-1.448l-.276-2.62a1.315 1.315 0 00-1.448-1.17L7.41 59.393a1.315 1.315 0 00-1.17 1.449l.279 2.621a1.309 1.309 0 001.448 1.17l26.186-2.767z" fill="#fff"/><path d="M76.33 58a23.686 23.686 0 00-46.837-3.585l3.836-.405a3.948 3.948 0 014.345 3.512l.276 2.62a3.95 3.95 0 01-3.513 4.344l-.242.026c.201.403.33.837.382 1.283l.276 2.617a3.92 3.92 0 01-1.96 3.836 21.985 21.985 0 001.592 2.178 5.336 5.336 0 004.093 1.94h28.177a5.311 5.311 0 004.053-1.878A23.584 23.584 0 0076.33 58zm-3.875.86h-.11a1.317 1.317 0 01-1.317-1.207A18.606 18.606 0 0054.747 40.93a19.537 19.537 0 00-2.08-.114 1.317 1.317 0 010-2.634 22.35 22.35 0 012.37.132 21.276 21.276 0 0118.62 19.123 1.316 1.316 0 01-1.202 1.417v.005z" fill="#fff"/><path d="M30.503 64.901L12.171 66.84a1.315 1.315 0 00-1.17 1.448l.276 2.62a1.317 1.317 0 001.449 1.17l18.332-1.938a1.317 1.317 0 001.17-1.449l-.276-2.617a1.317 1.317 0 00-1.449-1.172z" fill="#fff"/></svg>