<svg width="70" height="70" fill="none" xmlns="http://www.w3.org/2000/svg"><g clip-path="url(#clip0_72_71)" fill="#fff"><path d="M55.645 32.949c-7.915 0-14.356 6.44-14.356 14.355 0 3.022.931 5.914 2.718 8.396l9.997 13.478a2.05 2.05 0 001.64.822h.003c.645 0 1.253-.307 1.64-.823l10.402-14.07A14.267 14.267 0 0070 47.304c0-7.915-6.44-14.355-14.355-14.355zm0 20.508a6.16 6.16 0 01-6.153-6.153 6.16 6.16 0 016.153-6.152 6.16 6.16 0 016.152 6.152 6.16 6.16 0 01-6.152 6.153zM3.106.292A2.05 2.05 0 000 2.05v41.153c0 .72.379 1.388.995 1.758l19.65 11.708V10.734L3.105.292zm61.797 12.305L45.391.889v31.083a18.345 18.345 0 0110.254-3.125c3.792 0 7.318 1.155 10.253 3.125V14.355a2.05 2.05 0 00-.995-1.758zM41.29.889l-16.544 9.844v45.935l12.59-7.471c-.065-.629-.148-1.254-.148-1.893 0-4.35 1.575-8.3 4.101-11.458V.89z"/></g><defs><clipPath id="clip0_72_71"><path fill="#fff" d="M0 0h70v70H0z"/></clipPath></defs></svg>