<svg width="49" height="43" fill="none" xmlns="http://www.w3.org/2000/svg"><path d="M43.322 22.936c-4.727-2.069-8.542-.076-10.776 1.746a14.48 14.48 0 011.897 3.068.845.845 0 01-.388 1.128.867.867 0 01-1.147-.358c-.438-.816-1.194-2.105-1.299-2.254a10.634 10.634 0 00-5.33-3.853 10.732 10.732 0 00-6.596 0l-.36.805c.397 1.002.485 2.1.253 3.151a5.422 5.422 0 01-1.56 2.759.866.866 0 01-1.332-.151.829.829 0 01.154-1.06c.242-.199.45-.434.618-.697.847-1.1.475-2.679.223-3.926l-.318-1.762-1.555-8.635c.49-.11.92-.395 1.211-.8l.585.63a1.896 1.896 0 001.369.905 1.922 1.922 0 001.57-.488l.997-.937-1.762-1.984a1.513 1.513 0 00-.842-.604l-.817-.392a.847.847 0 01-.38-1.134.868.868 0 011.137-.399c.549.231 1.08.501 1.59.81a31.967 31.967 0 012.32 2.528l.704-.672-2.053-2.206a1.41 1.41 0 00-.722-.57c-.215-.088-.756-.359-.946-.452a.846.846 0 01-.395-1.141.868.868 0 011.152-.392l.764.375c.583.2 1.09.571 1.453 1.064.471.5 1.504 1.637 1.985 2.146a1.964 1.964 0 00.903-1.276 1.937 1.937 0 00-.328-1.525l-3.497-4.539A3.835 3.835 0 0019.536.446a3.86 3.86 0 00-2.639.41l-7.63 4.275a5.46 5.46 0 00-1.682 1.452 5.402 5.402 0 00-.957 1.997L1.455 30.234c-.908 2.982-.63 5.416 2.234 5.952.313.058.608.19.86.383 8.247 5.691 13.832 6.612 20.684 5.961a21.218 21.218 0 004.778-1.192.871.871 0 01.704.017c2.478 1.42 7.981.838 9.883.221a10.596 10.596 0 003.738-1.124 9.202 9.202 0 002.734-2.4 9.107 9.107 0 001.58-3.262c2.389-8.482-5.26-11.828-5.328-11.854zm-31.177 3.747a.849.849 0 01.383-.52.863.863 0 011.172.269c.12.188.16.416.112.634a2.612 2.612 0 00.232 1.828 2.65 2.65 0 001.384 1.23.846.846 0 01.132 1.407.856.856 0 01-.949.091 4.331 4.331 0 01-2.134-2.028 4.274 4.274 0 01-.332-2.91zm13.896 12.262a.805.805 0 01-.688.58 23.684 23.684 0 01-12.1-1.644.843.843 0 01-.006-1.564.865.865 0 01.651-.012 22.043 22.043 0 0011.223 1.533.862.862 0 01.768.303.845.845 0 01.152.804zm19.842-7.953a.86.86 0 01-1.092-.52 6.05 6.05 0 00-3.042-3.218 5.799 5.799 0 00-3.798-.375.883.883 0 01-.646-.104.87.87 0 01-.394-.518c-.306-1.982 4.405-1.185 5.517-.57a7.636 7.636 0 013.979 4.215.847.847 0 01-.034.652.859.859 0 01-.49.438z" fill="#fff"/></svg>