<svg width="25" height="18" fill="none" xmlns="http://www.w3.org/2000/svg"><path fill="currentColor" d="M24.383 2.965a2.993 2.993 0 00-.8-1.346A3.115 3.115 0 0022.199.84C20.272.333 12.528.333 12.528.333s-7.744 0-9.672.507c-.523.137-1 .406-1.383.779a2.993 2.993 0 00-.8 1.346A30.26 30.26 0 00.15 8.762a30.26 30.26 0 00.522 5.797c.14.51.417.974.8 1.347.383.373.86.641 1.383.778 1.928.508 9.672.508 9.672.508s7.744 0 9.671-.508a3.12 3.12 0 001.384-.778c.383-.373.659-.837.8-1.347.36-1.912.534-3.853.521-5.797a30.263 30.263 0 00-.521-5.797zm-14.33 9.41V5.15l6.426 3.612-6.427 3.613z"/></svg>