<svg id="Layer_1" data-name="Layer 1" xmlns="http://www.w3.org/2000/svg" viewBox="0 0 104.59 25.39"><defs><style>.cls-1{fill:#0098ce}</style></defs><path class="cls-1" d="M76.64 65.81l4.13 10.48h.69V65.81h7.39v24.28h-8.46l-4.13-10.44h-.69v10.44h-7.39V65.81zm42.08 16.27v1.8c.24.52.83.8 1.73.8a2 2 0 0 0 1.73-.8v-2c-.17-.38-.69-.66-1.53-.83l-1.11-.21c-5.55-1-7.7-3-8.5-4.51V70c.83-1.6 3.57-4.72 9.4-4.72s8.57 3.16 9.4 4.72v3.71h-7.67V72c-.24-.52-.8-.8-1.73-.8a1.89 1.89 0 0 0-1.73.8v1.7c.17.38.59.66 1.53.83l1.08.21c5.62 1.11 7.7 3 8.53 4.54v6.63c-1 1.66-3.54 4.72-9.4 4.72S112 87.6 111 85.93v-3.85zm32.43 3.85c-1 1.66-3.54 4.72-9.4 4.72S133 87.53 132 85.31V70.6c1-2.22 3.85-5.34 9.71-5.34s8.4 3.05 9.4 4.72v5.9h-7.67V72a1.82 1.82 0 0 0-1.73-.8 1.9 1.9 0 0 0-1.71.8v11.88a1.82 1.82 0 0 0 1.73.8 1.9 1.9 0 0 0 1.73-.8v-4.2h7.67zm11.9-20.67c5.83 0 8.71 3.12 9.71 5.34v14.71c-1 2.22-3.85 5.34-9.71 5.34s-8.71-3.12-9.71-5.34V70.6c1.01-2.22 3.85-5.34 9.71-5.34zm0 19.43a1.82 1.82 0 0 0 1.73-.8V72a2.28 2.28 0 0 0-3.47 0v11.88a1.82 1.82 0 0 0 1.74.8z" transform="translate(-68.18 -65.26)"/><path class="cls-1" d="M39.62 6.75l2.18-4.62V.56H23.45v6.19h16.17zm-2.19 9.04l2.19-4.61V9.6H23.45v6.19h13.98zm-2.18 9.05l2.18-4.62v-1.57H23.45v6.19h11.8z"/></svg>