<svg version="1.0" xmlns="http://www.w3.org/2000/svg" width="5376" height="5376" viewBox="0 0 4032 4032"><path d="M1888 1535.8v15.9l-24.2.6c-13.3.4-34.6.7-47.4.7h-23.3l-.3 15.7-.3 15.8-16 .2-16 .2-.3 15.4-.2 15.5-31.4.7-31.4.7-.7 31.4-.7 31.4-15.7.2-15.6.3-.3 128c-.2 70.4 0 142.1.4 159.2l.6 31.3h15.3c13 0 15.4.2 15.9 1.6.3.9.6 8.2.6 16.4v14.8l31.5.7 31.5.7v30.6l32 .7 32 .7v30.8h23.8c13.1 0 34.7.3 48 .7l24.2.6v30.7h63.3c34.7 0 63.8.4 64.5.9 1 .6 1.2 4.3 1 15.9l-.3 15.2 16 .2 16 .3.3 47.4c.2 37.3 0 47.6-1 48.3-.7.4-7.9.8-16 .8H2049v31h-65v-31h-32v-65h-288l.2 80.2.3 80.3 15.6.3 15.7.2.7 31.5.7 31.5h62.8v32l16.3.2 16.2.3.3 15.7.3 15.8h94.9v32h256v-32l47.8-.2 47.7-.3.3-15.7.3-15.8 16.2-.2 16.2-.3.3-15.8.3-15.7h31.9v-31h14.4c7.9 0 15.1-.3 16-.6 1.4-.5 1.6-2.9 1.6-16.5V2352h31v-318.9l-15.7-.3-15.8-.3-.3-16.3-.2-16.2h-32v-30.8l-32-.7-32-.8v-30.4l-24.2-.6c-13.4-.4-34.8-1-47.5-1.4l-23.3-.6V1905l-9.7-.1c-5.4-.1-34.1-.5-63.8-.8l-54-.6-.3-15.1-.3-15.2-32.4-.7-32.5-.7V1776h31.9l.3-15.8.3-15.7h64l.3 15.7.3 15.7 15.7.3 15.7.3.3 31.7.2 31.8h287v-160h-31v-15.3c0-10.6-.4-15.7-1.2-16.5-.8-.8-5.8-1.2-16-1.2h-14.7l-.3-15.3-.3-15.2-15.7-.3-15.7-.3-.3-15.2-.3-15.2-14.5-.2c-21.1-.4-19 1.5-19-16.8V1553h-22.7c-12.6 0-33.9-.3-47.5-.7l-24.8-.6V1520h-256v15.8zm832 .2v16h-23.2c-12.8 0-34.4.3-48 .7l-24.8.6v30.5l-31.5.7-31.5.7-.2 15.7-.3 15.6-15.7.3-15.7.3-.3 15.7-.3 15.7-15.6.3-15.7.2-.7 31.5-.7 31.5H2464l.2 304.2.3 304.3 15.6.3 15.7.2.7 31.5.7 31.5h31.8v32h32v32h62.9l.3 15.7.3 15.8 47.8.3 47.7.2v32h223.9l.3-15.8.3-15.7 48.3-.3 48.2-.2v-32h63v-32h31.9l.3-15.8.3-15.7 15.8-.3 15.7-.3V2352h32v-256h-288v160h-32v32h-94.9l-.3-15.8-.3-15.7-15.7-.3-15.8-.3V1777h15.4c13.1 0 15.5-.2 16-1.6.3-.9.6-8 .6-15.8v-14.3l23.8-.6c13-.4 34.4-.4 47.5 0l23.7.6v30.7h32v160h288v-254.9l-15.7-.3-15.8-.3-.3-16.3-.2-16.2h-31.9l-.3-15.8-.3-15.7-15.7-.3-15.8-.3v-30.7l-31.5-.7-31.5-.7V1553l-12.2-.1c-6.8-.1-28.5-.4-48.3-.8l-36-.6-.3-15.8-.3-15.7H2720v16zm832 0v16h-23.2c-12.8 0-34.4.3-48 .7l-24.7.6-.3 15.1-.3 15.1-31.7.9-31.8.9v30.6l-15.7.3-15.8.3-.3 15.7-.3 15.7-15.7.3-15.7.3-.5 16-.5 16h-30.2l-.6 23.9c-.9 31.3-.9 594.1 0 624.3l.6 23.3h30.7v32h32v32h32v32l31.8.2 31.7.3.3 15.7.3 15.8 32.7.2c18 .2 39.6.3 48 .3h15.2v31.5h224v-32h96v-32h64v-32h32v-32h31.8l.7-32 .7-32h30.8v-608h-30.8l-.7-31.5-.7-31.5H3968v-32h-32v-31.8l-32-.7-32-.7V1553h-23.2c-12.8 0-34.4-.3-48-.7l-24.8-.6V1520h-224v16zm160 209.7c.8.8 1.2 474.6.5 510l-.7 32.3h-95.9l.2-15.8.1-15.7-16.1-.3-16.1-.2.2-239.8.3-239.7 15.9-.5 15.8-.5-.1-15.2-.2-15.3 16.3-.3c19.4-.4 79.1.3 79.8 1zM0 2016v464h288v-384h32l.2 16.2.3 16.3 15.1.3 15.1.3 1.3 47.4 1.3 47.5H384l.1 29.7c.1 16.4.5 38.1.8 48.3l.7 18.5.2-15.8.2-15.7h28.7l1.3 47.5 1.3 47.5H448v23.8c0 13.1.3 34.7.7 48l.6 24.2H800v-928H513l-.2 192.2-.3 192.3-16.2.3-16.3.2-.2-16.2-.3-16.3-15.5-.5-15.5-.5-.6-36c-.4-19.8-.7-41.1-.8-47.2l-.1-11.2-15.2-.3-15.3-.3-.5-32-.5-32-15.1-.3-15.1-.3-.6-24.2c-.4-13.3-1-34.7-1.4-47.4l-.6-23.2-15.1-.3-15.1-.3-.3-32.3-.2-32.2h-30.9l-.3-15.8-.3-15.7-160.2-.3L0 1552v464zm496.5-50h14.4l.4-14.3.3-14.2.2 14.7.2 14.8h-31l.2-14.8.2-14.7.3 14.2.4 14.3h14.4zm415.7-413.3l-16.2.3.2 111.3.3 111.2 319.6.3 319.7.2.7-31.5.7-31.5h30.5l.8-32 .7-32h30.5l.6-47.6c.4-26.2.4-48 .1-48.5-.5-.8-645.7-.9-688.2-.2z"/><path d="M2783.4 1792.5c0 8.2.2 11.5.3 7.2.2-4.3.2-11 0-15-.1-4-.3-.5-.3 7.8zM912.3 1904.7l-16.3.3v223h545v-30.9l15.3-.3 15.2-.3.3-31.8.2-31.7h31.8l.7-32.5.7-32.5h30.8v-63.8l-303.7.1c-167.1.1-311.1.2-320 .4zm-15.6 352c-.4.3-.7 50.7-.7 112V2480h480v-64h32v-64h32v-96h-271.3c-149.3 0-271.7.3-272 .7z"/></svg>