<svg viewBox="0 0 22 22" xmlns="http://www.w3.org/2000/svg"><path fill="currentColor" d="M8.424 1.897a4 4 0 015.02-.136l.17.136.376.32a2 2 0 00.96.45l.178.022.493.04a4 4 0 013.648 3.468l.02.2.04.494c.03.358.154.702.36.996l.11.142.323.376a4 4 0 01.136 5.02l-.136.17-.321.376a2 2 0 00-.45.96l-.022.178-.04.493a4 4 0 01-3.467 3.648l-.201.021-.493.04a2 2 0 00-.996.36l-.142.111-.377.32a4 4 0 01-5.02.137l-.17-.136-.375-.321a2 2 0 00-.96-.45l-.178-.021-.493-.04a4 4 0 01-3.648-3.468l-.021-.2-.04-.494a2 2 0 00-.36-.996l-.111-.142-.321-.377a4 4 0 01-.136-5.02l.136-.169.32-.376a2 2 0 00.45-.96l.022-.178.04-.493A4 4 0 016.216 2.75l.2-.021.494-.04a2 2 0 00.996-.36l.142-.111.376-.32v-.001zM13.519 12a1.5 1.5 0 100 3 1.5 1.5 0 000-3zm-.207-4.707l-6 6a1 1 0 101.414 1.414l6-6a1 1 0 00-1.414-1.414zM8.519 7a1.5 1.5 0 100 3 1.5 1.5 0 000-3z"/></svg>