<svg xmlns="http://www.w3.org/2000/svg"><symbol id="icon-arrow-down" viewBox="0 0 284.929 284.929"><path d="M282.082 76.511l-14.274-14.273c-1.902-1.906-4.093-2.856-6.57-2.856-2.471 0-4.661.95-6.563 2.856L142.466 174.441 30.262 62.241c-1.903-1.906-4.093-2.856-6.567-2.856-2.475 0-4.665.95-6.567 2.856L2.856 76.515C.95 78.417 0 80.607 0 83.082c0 2.473.953 4.663 2.856 6.565l133.043 133.046c1.902 1.903 4.093 2.854 6.567 2.854s4.661-.951 6.562-2.854L282.082 89.647c1.902-1.903 2.847-4.093 2.847-6.565 0-2.475-.945-4.665-2.847-6.571z"/></symbol><symbol id="icon-clock" viewBox="0 0 299.995 299.995"><path d="M149.995 0C67.156 0 0 67.158 0 149.995s67.156 150 149.995 150 150-67.163 150-150S232.834 0 149.995 0zm64.847 178.524H151.25c-.215 0-.415-.052-.628-.06-.213.01-.412.06-.628.06-5.729 0-10.374-4.645-10.374-10.374V62.249c0-5.729 4.645-10.374 10.374-10.374s10.374 4.645 10.374 10.374v95.527h54.47c5.729 0 10.374 4.645 10.374 10.374 0 5.729-4.641 10.374-10.37 10.374z"/></symbol><symbol id="icon-close" viewBox="0 0 212.982 212.982"><path d="M131.804 106.491l75.936-75.936c6.99-6.99 6.99-18.323 0-25.312-6.99-6.99-18.322-6.99-25.312 0L106.491 81.18 30.554 5.242c-6.99-6.99-18.322-6.99-25.312 0-6.989 6.99-6.989 18.323 0 25.312l75.937 75.936-75.937 75.937c-6.989 6.99-6.989 18.323 0 25.312 6.99 6.99 18.322 6.99 25.312 0l75.937-75.937 75.937 75.937c6.989 6.99 18.322 6.99 25.312 0 6.99-6.99 6.99-18.322 0-25.312l-75.936-75.936z" clip-rule="evenodd"/></symbol><symbol id="icon-email"><path d="M.21 11V4.5l7.5 4 7-4.5v7H.21z"/><path d="M.21 2.5V0h14.5v2.5l-7 4.5-7.5-4.5z"/></symbol><symbol id="icon-left-arrow" viewBox="0 0 31.494 31.494"><path d="M10.273 5.009a1.112 1.112 0 0 1 1.587 0 1.12 1.12 0 0 1 0 1.571l-8.047 8.047h26.554c.619 0 1.127.492 1.127 1.111s-.508 1.127-1.127 1.127H3.813l8.047 8.032c.429.444.429 1.159 0 1.587a1.112 1.112 0 0 1-1.587 0L.321 16.532a1.12 1.12 0 0 1 0-1.571l9.952-9.952z"/></symbol><symbol id="icon-link" viewBox="0 0 465.951 465.951"><path d="M441.962 284.364l-59.389-59.383c-15.984-15.985-35.396-23.982-58.238-23.982-23.223 0-43.013 8.375-59.385 25.125l-25.125-25.125c16.751-16.368 25.125-36.256 25.125-59.671 0-22.841-7.898-42.157-23.698-57.958l-58.815-59.097C166.639 8.095 147.225.003 124.195.003c-22.841 0-42.16 7.902-57.958 23.7l-41.97 41.683C8.088 81.188 0 100.504 0 123.343c0 22.841 7.996 42.258 23.982 58.245l59.385 59.383c15.99 15.988 35.404 23.982 58.245 23.982 23.219 0 43.015-8.374 59.383-25.126l25.125 25.126c-16.75 16.371-25.125 36.258-25.125 59.672 0 22.843 7.898 42.154 23.697 57.958l58.82 59.094c15.801 16.177 35.208 24.27 58.238 24.27 22.844 0 42.154-7.897 57.958-23.698l41.973-41.682c16.177-15.804 24.271-35.118 24.271-57.958-.005-22.838-7.999-42.25-23.99-58.245zM200.999 162.178a687.506 687.506 0 0 1-5.28-5.424c-2.948-3.046-4.995-5.092-6.136-6.14-1.143-1.047-2.952-2.474-5.426-4.286-2.478-1.809-4.902-3.044-7.28-3.711-2.38-.666-4.998-.998-7.854-.998-7.611 0-14.084 2.666-19.414 7.993-5.33 5.327-7.992 11.799-7.992 19.414 0 2.853.332 5.471.998 7.851.666 2.382 1.903 4.808 3.711 7.281 1.809 2.474 3.237 4.283 4.283 5.426 1.044 1.141 3.09 3.188 6.136 6.139 3.046 2.95 4.853 4.709 5.424 5.281-5.711 5.898-12.563 8.848-20.555 8.848-7.804 0-14.277-2.568-19.414-7.705l-59.39-59.386c-5.327-5.33-7.992-11.802-7.992-19.417 0-7.421 2.662-13.796 7.992-19.126l41.971-41.687c5.523-5.14 11.991-7.705 19.417-7.705 7.611 0 14.083 2.663 19.414 7.993l58.813 59.097c5.33 5.33 7.992 11.801 7.992 19.414.001 7.991-3.139 14.94-9.418 20.848zm202.148 199.554l-41.973 41.686c-5.332 4.945-11.8 7.423-19.418 7.423-7.809 0-14.27-2.566-19.41-7.707l-58.813-59.101c-5.331-5.332-7.99-11.8-7.99-19.41 0-7.994 3.138-14.941 9.421-20.841.575.567 2.334 2.381 5.284 5.42 2.95 3.046 4.996 5.093 6.14 6.14 1.143 1.051 2.949 2.478 5.42 4.288 2.478 1.811 4.9 3.049 7.282 3.713 2.382.667 4.997.999 7.851.999 7.618 0 14.086-2.665 19.418-7.994 5.324-5.328 7.994-11.8 7.994-19.41 0-2.854-.339-5.472-1-7.851-.67-2.382-1.902-4.809-3.72-7.282-1.811-2.471-3.23-4.284-4.281-5.428-1.047-1.136-3.094-3.183-6.139-6.14a1189.395 1189.395 0 0 1-5.428-5.276c5.715-6.092 12.566-9.138 20.554-9.138 7.617 0 14.085 2.663 19.41 7.994l59.388 59.382c5.332 5.332 7.995 11.807 7.995 19.417 0 7.416-2.663 13.799-7.985 19.116z"/></symbol><symbol id="icon-menu-close"><path d="M20.513 1.414L19.099 0l-8.843 8.842L1.414 0 0 1.414l8.842 8.842L0 19.098l1.414 1.414 8.842-8.842 8.843 8.842 1.414-1.414-8.842-8.842z"/></symbol><symbol id="icon-menu-dots" viewBox="0 0 290 290"><path d="M0 220h70v70H0zm0-110h70v70H0zM0 0h70v70H0zm110 220h70v70h-70zm0-110h70v70h-70zm0-110h70v70h-70zm110 220h70v70h-70zm0-110h70v70h-70zm0-110h70v70h-70z"/></symbol><symbol id="icon-menu-list" viewBox="0 0 60.123 60.123"><path d="M57.124 51.893H16.92a3 3 0 1 1 0-6h40.203a3 3 0 0 1 .001 6zm0-18.831H16.92a3 3 0 1 1 0-6h40.203a3 3 0 0 1 .001 6zm0-18.831H16.92a3 3 0 1 1 0-6h40.203a3 3 0 0 1 .001 6z"/><circle cx="4.029" cy="11.463" r="4.029"/><circle cx="4.029" cy="30.062" r="4.029"/><circle cx="4.029" cy="48.661" r="4.029"/></symbol><symbol id="icon-menu-open"><path d="M0 0h19.958v2H0zm0 6h19.958v2H0zm0 6h19.958v2H0z"/></symbol><symbol id="icon-menu" viewBox="0 0 512 512"><path d="M491.318 235.318H20.682C9.26 235.318 0 244.577 0 256s9.26 20.682 20.682 20.682h470.636c11.423 0 20.682-9.259 20.682-20.682 0-11.422-9.259-20.682-20.682-20.682zm0-156.879H20.682C9.26 78.439 0 87.699 0 99.121c0 11.422 9.26 20.682 20.682 20.682h470.636c11.423 0 20.682-9.26 20.682-20.682 0-11.422-9.259-20.682-20.682-20.682zm0 313.758H20.682C9.26 392.197 0 401.456 0 412.879s9.26 20.682 20.682 20.682h470.636c11.423 0 20.682-9.259 20.682-20.682s-9.259-20.682-20.682-20.682z"/></symbol><symbol id="icon-phone" viewBox="0 0 472.807 472.807"><path d="M338.649 0H134.158c-13.567 0-24.605 10.632-24.605 23.695v425.433c0 13.046 11.03 23.679 24.605 23.679h204.491c13.575 0 24.605-10.632 24.605-23.679V23.687C363.254 10.624 352.223 0 338.649 0zM200.707 36.822H272.1v5.007h-71.393v-5.007zm35.7 411.184c-7.592 0-13.762-6.17-13.762-13.754 0-7.576 6.17-13.737 13.762-13.737 7.592 0 13.762 6.17 13.762 13.737 0 7.585-6.17 13.754-13.762 13.754zM346.46 396.52H126.379V70.337H346.46V396.52z"/></symbol><symbol id="icon-picture" viewBox="0 0 232.322 232.322"><path d="M224.822 23.935H7.5a7.5 7.5 0 0 0-7.5 7.5v169.451a7.5 7.5 0 0 0 7.5 7.5h217.322a7.5 7.5 0 0 0 7.5-7.5V31.435a7.5 7.5 0 0 0-7.5-7.5zm-7.5 15.001v143.091l-59.995-63.799a7.498 7.498 0 0 0-5.462-2.362h-.001a7.506 7.506 0 0 0-5.462 2.36l-25.62 27.227-34.349-45.291a7.499 7.499 0 0 0-5.976-2.968h-.006a7.499 7.499 0 0 0-5.977 2.978L15 178.861V38.936h202.322zm-9.907 154.451H22.824l57.643-76.269 33.722 44.465a7.498 7.498 0 0 0 5.578 2.957 7.525 7.525 0 0 0 5.86-2.35l26.234-27.879 55.554 59.076z"/><path d="M155.237 101.682c13.597 0 24.658-11.061 24.658-24.656 0-13.597-11.061-24.658-24.658-24.658-13.596 0-24.656 11.062-24.656 24.658 0 13.595 11.061 24.656 24.656 24.656zm0-34.315c5.326 0 9.658 4.333 9.658 9.658 0 5.324-4.332 9.656-9.658 9.656-5.325 0-9.656-4.332-9.656-9.656 0-5.325 4.332-9.658 9.656-9.658z"/></symbol><symbol id="icon-pin"><path clip-rule="evenodd" d="M6.5 0c3.59 0 6.447 2.9 6.5 6.477C13.074 11.636 6.732 18 6.5 18 6.25 18 0 11.108 0 6.477 0 2.9 2.91 0 6.5 0zm0 2.266a3.47 3.47 0 0 1 3.477 3.465A3.47 3.47 0 0 1 6.5 9.195a3.47 3.47 0 0 1-3.476-3.464A3.47 3.47 0 0 1 6.5 2.266z"/></symbol><symbol id="icon-plus-2" viewBox="0 0 42 42"><path d="M42 19H23V0h-4v19H0v4h19v19h4V23h19z"/></symbol><symbol id="icon-plus" viewBox="0 0 52 52"><path d="M26 0C11.664 0 0 11.663 0 26s11.664 26 26 26 26-11.663 26-26S40.336 0 26 0zm12.5 28H28v11a2 2 0 0 1-4 0V28H13.5a2 2 0 0 1 0-4H24V14a2 2 0 0 1 4 0v10h10.5a2 2 0 0 1 0 4z"/></symbol><symbol id="icon-redo-arrow" viewBox="0 0 337.792 337.792"><path d="M337.792 134.824l-130.824 99.441v-52.216C117.061 173.419 30.735 207.817.001 302.41-.337 180.728 99.895 111.781 206.968 88.488V35.382l130.824 99.442z"/></symbol></svg>