<svg xmlns="http://www.w3.org/2000/svg" viewBox="0 0 52.12 21.55"><g data-name="Слой 2"><g data-name="Layer 1" fill-rule="evenodd"><path d="M48.31 21.55c4.88 0 5.18-7.29.32-7.61h-.53a7.8 7.8 0 00-2.1.29 8.46 8.46 0 00-11.46-6 8.46 8.46 0 00-16.6-.32 8.46 8.46 0 00-10.3 5.53h-.3a9.1 9.1 0 00-4 .92 3.81 3.81 0 001.71 7.22z" fill="#0077b2"/><path d="M47.08 20.32c4.88 0 5.18-7.29.32-7.61h-.53a7.78 7.78 0 00-2.1.29 8.46 8.46 0 00-11.45-6 8.46 8.46 0 00-16.6-.32 8.46 8.46 0 00-10.3 5.53h-.3a9.09 9.09 0 00-4 .92 3.81 3.81 0 001.71 7.22z" fill="#fdfdfd"/></g></g></svg>