<svg xmlns="http://www.w3.org/2000/svg" viewBox="0 0 7.2 7.2"><g data-name="Слой 2"><g data-name="Layer 1" fill-rule="evenodd"><path d="M3.6 0a3.6 3.6 0 00-3 5.54L0 7a.15.15 0 00.09.19H.2l1.5-.54A3.6 3.6 0 103.6 0z" fill="#4cae50"/><path d="M5.31 4.21l-.6-.3c-.26-.13-.57.12-.71.26a1.81 1.81 0 01-.6-.38 1.8 1.8 0 01-.4-.6c.14-.14.39-.45.26-.71L3 1.88a.15.15 0 00-.13-.08h-.3a.9.9 0 00-.75.9 3.57 3.57 0 00.94 1.76 3.57 3.57 0 001.74.94.9.9 0 00.9-.75v-.3a.15.15 0 00-.09-.14z" fill="#f9f9f9"/></g></g></svg>