<svg xmlns="http://www.w3.org/2000/svg" viewBox="0 0 7.2 7.2"><defs><style>.cls-1{fill:#03a8f3;fill-rule:evenodd}</style></defs><g id="Слой_2" data-name="Слой 2"><g id="Layer_1" data-name="Layer 1"><path fill="#00b0ea" class="cls-1" d="M3.6 0a3.6 3.6 0 103.6 3.6A3.6 3.6 0 003.6 0zm1 5.73a1.19 1.19 0 01-.6-.18 2 2 0 01-.36 0 2 2 0 01-2-2.28 1.18 1.18 0 011.63-1.61h.32a2 2 0 012 2.24 1.18 1.18 0 01-1 1.85z"/><path fill="#00b0ea" class="cls-1" d="M3.34 3.23c-.57-.14-.26-.63.2-.62s.68.48.88.46.38-.33.06-.61a1.47 1.47 0 00-1.17-.32.92.92 0 00-.87.86c0 .53.58.8 1.08.88s.83.22.54.55-.76.11-.89 0-.28-.38-.52-.36-.37.34-.07.62a1.41 1.41 0 001.2.36C4.41 5 5 4.48 4.75 4s-.84-.63-1.41-.77z"/></g></g></svg>