<svg xmlns="http://www.w3.org/2000/svg" viewBox="0 0 90.76 38.42"><g data-name="Слой 2"><g data-name="Layer 1" fill-rule="evenodd"><path d="M84.12 38.42c8.48 0 9-12.68.55-13.24h-.92a13.55 13.55 0 00-3.65.5A14.72 14.72 0 0060.18 15.2a14.72 14.72 0 00-28.87-.56 14.71 14.71 0 00-17.91 9.62h-.52a15.82 15.82 0 00-7 1.6c-6.28 3.07-4 12.56 3 12.56z" fill="#f6b000"/><path d="M81.89 35.35c8.48 0 9-12.68.55-13.24h-.92a13.55 13.55 0 00-3.64.5A14.72 14.72 0 0058 12.13a14.72 14.72 0 00-28.87-.56 14.71 14.71 0 00-17.92 9.62h-.52a15.82 15.82 0 00-7 1.6c-6.28 3.07-4 12.56 3 12.56z" fill="#fdfdfd"/></g></g></svg>