<svg xmlns="http://www.w3.org/2000/svg" viewBox="0 0 44.49 19.67"><g data-name="Слой 2"><g data-name="Layer 1" fill-rule="evenodd"><path d="M5.14 19.67c-4.08 0-4.33-6.09-.27-6.36h.44a6.52 6.52 0 011.75.24 7.07 7.07 0 019.58-5 7.07 7.07 0 0113.87-.27 7.07 7.07 0 018.61 4.62h.25a7.6 7.6 0 013.35.77 3.19 3.19 0 01-1.43 6z" fill="#f6b000"/><path d="M3.19 17c-4.08 0-4.33-6.09-.27-6.36h.44a6.51 6.51 0 011.75.24 7.07 7.07 0 019.58-5 7.07 7.07 0 0113.87-.27 7.07 7.07 0 018.61 4.62h.25a7.6 7.6 0 013.35.77 3.19 3.19 0 01-1.43 6z" fill="#fdfdfd"/></g></g></svg>