<svg xmlns="http://www.w3.org/2000/svg" viewBox="0 0 53.87 22.4"><g data-name="Слой 2"><g data-name="Layer 1" fill-rule="evenodd"><path d="M49.94 22.4c5 0 5.34-7.5.33-7.84h-.54a8 8 0 00-2.16.3 8.71 8.71 0 00-11.8-6.2 8.71 8.71 0 00-17.08-.33A8.71 8.71 0 008.09 14h-.3a9.36 9.36 0 00-4.13 1 3.92 3.92 0 001.77 7.4z" fill="#0077b2"/><path d="M48.45 20.91c5 0 5.34-7.5.33-7.84h-.54a8 8 0 00-2.16.3 8.71 8.71 0 00-11.79-6.19 8.71 8.71 0 00-17.08-.33 8.71 8.71 0 00-10.6 5.69H6.3a9.36 9.36 0 00-4.12.95 3.92 3.92 0 001.76 7.43z" fill="#fdfdfd"/></g></g></svg>