<svg xmlns="http://www.w3.org/2000/svg" viewBox="0 0 32.25 14.72"><defs><style>.cls-1{fill:#fdfdfd}.cls-1,.cls-2,.cls-3{fill-rule:evenodd}.cls-2{fill:#33a6d6}.cls-3{fill:#1892b9}</style></defs><g id="Слой_2" data-name="Слой 2"><g id="Layer_1" data-name="Layer 1"><path class="cls-1" d="M16.95 7.86L20 7.24a.39.39 0 01.46.3l.35 1.74a.39.39 0 01-.3.46l-3.07.62z"/><path class="cls-2" d="M20 7.25a.4.4 0 01.49.25l.37 1.83a.4.4 0 01-.35.42z"/><path class="cls-3" d="M16.95 7.86l-.91.75.28 1.42 1.14.33-.51-2.5z"/><path class="cls-1" d="M27.13.05l-9.68 2L8 4.16a2.2 2.2 0 01-1.92-.46L4.76 2.6a4.33 4.33 0 00-3.63-.91L0 1.92l3.19 4.6a4.42 4.42 0 004.48 1.83l10.91-2.13L29.15 4a6.2 6.2 0 001.68-.8 5.13 5.13 0 00.82-.61c.57-.52.63-.8.58-.88-.28-.4-3.32-2.02-5.1-1.66z"/><path d="M32.25 1.83c0 .13-.15.39-.59.79a5.13 5.13 0 01-.82.61 6.2 6.2 0 01-1.68.8L18.58 6.22 7.67 8.35a4.42 4.42 0 01-3.49-.8z" fill="#eef0f2" fill-rule="evenodd"/><path class="cls-2" d="M10.1 4.62l-.35.07c-.08 0-.13.14-.1.28l.11.52c0 .14.12.24.2.22l.35-.07c.08 0 .13-.14.1-.28l-.11-.52c-.03-.14-.12-.23-.2-.22zm1.42-.29l-.35.07c-.08 0-.13.14-.1.28l.11.52c0 .14.12.23.2.22l.35-.07c.08 0 .13-.14.1-.28l-.11-.52c-.03-.14-.12-.23-.2-.22zM12.94 4l-.35.07c-.08 0-.13.14-.1.28l.11.52c0 .14.12.24.2.22l.35-.07c.08 0 .13-.14.1-.28l-.11-.52c-.02-.1-.14-.22-.2-.22zm1.43-.25l-.37.07c-.08 0-.13.14-.1.28l.11.52c0 .14.12.23.2.22l.35-.07c.08 0 .13-.14.1-.28L14.57 4c-.03-.17-.12-.26-.2-.25zm1.42-.29l-.35.07c-.08 0-.13.14-.1.28l.11.52c0 .14.12.24.2.22l.35-.07c.08 0 .13-.14.1-.28l-.1-.52c0-.13-.13-.23-.21-.22zm1.43-.29l-.35.07c-.08 0-.13.14-.1.28l.11.52c0 .14.12.23.2.22l.35-.07c.08 0 .13-.14.1-.28l-.11-.52c-.03-.13-.12-.23-.2-.22zm1.42-.29l-.35.12c-.08 0-.13.14-.1.28l.11.52c0 .14.12.24.2.22l.35-.07c.08 0 .13-.14.1-.28l-.11-.52c-.03-.15-.12-.28-.2-.27zm1.42-.28l-.35.07c-.08 0-.13.14-.1.28l.11.52c0 .14.12.23.2.22l.35-.07c.08 0 .13-.14.1-.28l-.11-.52c-.02-.14-.11-.24-.2-.22zm1.43-.29l-.35.07c-.08 0-.13.14-.1.28l.11.52c0 .14.12.24.2.22l.35-.07c.08 0 .13-.14.1-.28l-.1-.52c-.04-.14-.13-.24-.21-.22zM22.91 2l-.35.07c-.08 0-.13.14-.1.28l.1.52c0 .14.12.24.2.22l.36-.09c.08 0 .13-.14.1-.28l-.1-.52c-.04-.1-.12-.2-.21-.2zm1.42-.27L24 1.8c-.08 0-.13.14-.1.28l.11.52c0 .14.12.24.2.22l.35-.07c.08 0 .13-.14.1-.28l-.11-.52c-.04-.14-.13-.24-.22-.22z"/><rect x="25.36" y="1.46" width=".66" height="1.03" rx=".2" ry=".2" transform="rotate(-11.49 25.704 1.984)" fill="#33a6d6"/><path class="cls-2" d="M4.57 4.56l-4.28.87.17.27a.74.74 0 00.78.3l4.07-.8L5 4.76a.45.45 0 00-.43-.2zM31.5 1.21A10.73 10.73 0 0030 .5l-2.8.57s.81.8 1.24.75c.27-.03 1.9-.37 3.06-.61zM17.58 5.2l7.61-1.55L8.81 14.29l-2.13.43 8.77-8.41a4.33 4.33 0 012.13-1.11z"/><path class="cls-3" d="M25.19 3.65L8.81 14.29l-1.41.28L23.78 3.93l1.41-.28z"/><path class="cls-3" d="M8.81 14.29l-1.82-1.6-.7.14.38 1.89 2.14-.43z"/></g></g></svg>