<svg xmlns="http://www.w3.org/2000/svg" xmlns:xlink="http://www.w3.org/1999/xlink" viewBox="0 0 76.96 50.01"><defs><path id="a" d="M58.12 4.56l7.97-2.25L74.06.05c1.6-.45 2.9 1.95 2.9 5.34v18.44c0 3.39-1.3 5.78-2.9 5.33L66.1 26.9l-7.97-2.25c-1.6-.45-2.9-2.48-2.9-4.51V9.07c0-2.03 1.3-4.06 2.9-4.5"/></defs><clipPath id="b"><use xlink:href="#a" overflow="visible"/></clipPath><linearGradient id="c" gradientUnits="userSpaceOnUse" x1="-210.94" y1="107.53" x2="-210.36" y2="107.53" gradientTransform="matrix(-50.9238 0 0 -32.2832 -10673.38 3485.91)"><stop offset="0" stop-color="#003d41"/><stop offset="1" stop-color="#8fc575"/></linearGradient><path clip-path="url(#b)" fill="url(#c)" d="M55.22-.4h21.74v30.01H55.22z"/><defs><path id="d" d="M18.84 4.56l-7.97-2.25L2.9.05C1.3-.4 0 2 0 5.4v18.44c0 3.39 1.3 5.78 2.9 5.33l7.97-2.26 7.97-2.25c1.6-.45 2.9-2.48 2.9-4.51V9.07c0-2.03-1.3-4.06-2.9-4.5"/></defs><clipPath id="e"><use xlink:href="#d" overflow="visible"/></clipPath><linearGradient id="f" gradientUnits="userSpaceOnUse" x1="-206.51" y1="126.09" x2="-206.04" y2="126.09" gradientTransform="matrix(49.9204 0 0 32.2832 10320.02 -4055.97)"><stop offset="0" stop-color="#7ed688"/><stop offset="1" stop-color="#c2f8a8"/></linearGradient><path clip-path="url(#e)" fill="url(#f)" d="M0-.4h21.74v30.01H0z"/><defs><path id="g" d="M44.1 4.56l3.99-2.25L52.07.05c.8-.45 1.45 1.95 1.45 5.34v18.44c0 3.39-.65 5.78-1.45 5.33L48.1 26.9l-3.99-2.25c-.8-.45-1.45-2.48-1.45-4.51V9.07c0-2.03.66-4.06 1.45-4.5"/></defs><clipPath id="h"><use xlink:href="#g" overflow="visible"/></clipPath><linearGradient id="i" gradientUnits="userSpaceOnUse" x1="-213.45" y1="107.53" x2="-212.74" y2="107.53" gradientTransform="matrix(-24.0253 0 0 -32.2832 -5077.06 3485.91)"><stop offset="0" stop-color="#005741"/><stop offset="1" stop-color="#8fc575"/></linearGradient><path clip-path="url(#h)" fill="url(#i)" d="M42.65-.4h10.87v30.01H42.65z"/><defs><path id="j" d="M32.86 4.56l-3.99-2.25L24.9.05C24.09-.4 23.44 2 23.44 5.4v18.44c0 3.39.65 5.78 1.45 5.33l3.98-2.26 3.99-2.25c.8-.45 1.45-2.48 1.45-4.51V9.07c0-2.03-.65-4.06-1.45-4.5"/></defs><clipPath id="k"><use xlink:href="#j" overflow="visible"/></clipPath><linearGradient id="l" gradientUnits="userSpaceOnUse" x1="-204.38" y1="126.09" x2="-203.89" y2="126.09" gradientTransform="matrix(25.3638 0 0 32.2832 5212.6 -4055.97)"><stop offset="0" stop-color="#65bd6f"/><stop offset="1" stop-color="#c2f8a8"/></linearGradient><path clip-path="url(#k)" fill="url(#l)" d="M23.44-.4h10.87v30.01H23.44z"/><defs><path id="m" d="M39.55 4.56l.6-2.25.59-2.26c.12-.45.22 1.95.22 5.34v18.44c0 3.39-.1 5.78-.22 5.33l-.6-2.26-.6-2.25c-.11-.45-.21-2.48-.21-4.51V9.07c0-2.03.1-4.06.22-4.5"/></defs><clipPath id="n"><use xlink:href="#m" overflow="visible"/></clipPath><linearGradient id="o" gradientUnits="userSpaceOnUse" x1="-239.03" y1="107.52" x2="-238.13" y2="107.52" gradientTransform="matrix(-3.6737 0 0 -32.2838 -837.18 3485.7)"><stop offset="0" stop-color="#187041"/><stop offset="1" stop-color="#f5f8ff"/></linearGradient><path clip-path="url(#n)" fill="url(#o)" d="M39.33-.4h1.63v30.01h-1.63z"/><defs><path id="p" d="M37.42 4.56l-.6-2.25-.6-2.26C36.1-.4 36.01 2 36.01 5.4v18.44c0 3.39.1 5.78.21 5.33l.6-2.26.6-2.25c.12-.45.21-2.48.21-4.51V9.07c0-2.03-.1-4.06-.21-4.5"/></defs><clipPath id="q"><use xlink:href="#p" overflow="visible"/></clipPath><linearGradient id="r" gradientUnits="userSpaceOnUse" x1="-188.78" y1="126.09" x2="-187.87" y2="126.09" gradientTransform="matrix(5.472 0 0 32.2832 1068.99 -4055.97)"><stop offset="0" stop-color="#4ba354"/><stop offset="1" stop-color="#f6f6fb"/></linearGradient><path clip-path="url(#q)" fill="url(#r)" d="M36.01-.4h1.63v30.01h-1.63z"/><path fill="#4D4D4D" d="M67.33 40.3a6.96 6.96 0 00-1.22-.1 11.46 11.46 0 00-3.83.68v8.92h2.37v-7.49a4.26 4.26 0 012.25-.05l.43-1.97zm-6.25 2.42a3.75 3.75 0 00-.78-1.34 3.4 3.4 0 00-1.27-.87c-.5-.2-1.07-.3-1.72-.3-.69 0-1.3.12-1.84.35-.54.24-1 .58-1.37 1.01-.37.44-.66.95-.85 1.55-.2.6-.3 1.26-.3 1.98s.1 1.39.3 1.99a3.98 3.98 0 002.38 2.56c.6.24 1.28.36 2.06.36a9.87 9.87 0 002.52-.32c.37-.1.68-.22.95-.36l-.68-1.77a6.08 6.08 0 01-2.61.6 3.2 3.2 0 01-1.24-.24 2.15 2.15 0 01-.9-.68 2.5 2.5 0 01-.46-1.15l6.04-.82c.02-.14.04-.67.04-.8 0-.64-.1-1.22-.27-1.75zm-5.97 1.87c.02-.58.11-1.07.3-1.47.18-.4.43-.7.75-.9a2 2 0 011.1-.3c.36 0 .68.09.95.25.27.15.47.4.62.7.14.32.22.71.22 1.18l-3.94.54zm-5.49-8.46h2.37V49.8h-2.37zm-3.84 0h2.37V49.8h-2.37zm-1.23 6.59a3.73 3.73 0 00-.78-1.34 3.4 3.4 0 00-1.27-.87c-.5-.2-1.08-.3-1.73-.3-.68 0-1.3.12-1.83.35-.54.24-1 .58-1.37 1.01-.37.44-.66.95-.86 1.55-.2.6-.29 1.26-.3 1.98 0 .72.1 1.39.31 1.99a3.98 3.98 0 002.38 2.56c.6.24 1.28.36 2.06.36a9.88 9.88 0 002.52-.32c.36-.1.68-.22.94-.36l-.68-1.77a6.09 6.09 0 01-2.61.6 3.2 3.2 0 01-1.24-.24 2.15 2.15 0 01-.9-.68 2.5 2.5 0 01-.46-1.15l6.05-.82c.02-.14.03-.67.03-.8a5.4 5.4 0 00-.26-1.75zm-5.97 1.87c.01-.58.11-1.07.3-1.47.18-.4.43-.7.74-.9.32-.2.69-.3 1.1-.3.37 0 .68.09.95.25.27.15.48.4.62.7.15.32.22.71.22 1.18l-3.93.54zm-2.48 5.09v-1.97a1.87 1.87 0 01-.68.14c-.2 0-.4-.03-.55-.1a.8.8 0 01-.39-.32c-.1-.15-.14-.35-.14-.6v-4.64h1.76V40.4h-1.76v-2.77l-2.34.68v2.1h-1.2v1.77H32v4.79c0 .98.22 1.72.66 2.22.43.5 1.1.74 2 .74a4.4 4.4 0 001.44-.26zm-8.39-9.27h2.37v9.39h-2.37zm2.54-2.78c0-.25-.06-.46-.18-.65a1.3 1.3 0 00-.49-.45 1.42 1.42 0 00-1.37 0c-.2.1-.37.26-.49.45s-.18.4-.18.65c0 .24.06.45.18.65s.29.34.49.46a1.39 1.39 0 001.37 0c.2-.12.37-.27.49-.46.12-.2.18-.41.18-.65zM26.42 49.8v-6.43a3.2 3.2 0 00-.44-1.72c-.3-.47-.74-.83-1.34-1.07a6.16 6.16 0 00-2.3-.38c-.77 0-1.47.07-2.08.2-.62.12-1.17.28-1.67.48v8.92h2.37v-7.47a4.58 4.58 0 011.41-.23c.55 0 .96.14 1.24.4.28.27.42.64.42 1.12v6.18h2.39zm-9.09-.47v-8.92h-2.37v7.44c-.13.06-.32.1-.55.15-.24.04-.51.06-.82.06-.52 0-.92-.12-1.19-.36-.26-.24-.4-.61-.4-1.12v-6.17H9.63v6.12c0 .8.15 1.47.45 1.98.3.52.74.9 1.33 1.14a5.7 5.7 0 002.18.36 11.64 11.64 0 002.73-.32c.4-.1.74-.22 1.01-.36z"/></svg>