<svg xmlns="http://www.w3.org/2000/svg" viewBox="0 0 9.6 9.6"><g data-name="Слой 2"><g data-name="Layer 1"><circle cx="4.8" cy="4.8" r="4.8" fill="#008cc9"/><path d="M4.62 6.91H5a.32.32 0 00.17-.08.28.28 0 00.05-.17s0-.51.23-.58.53.49.84.7a.6.6 0 00.42.13h.84s.44 0 .23-.37a2.8 2.8 0 00-.63-.72c-.53-.49-.46-.41.18-1.26.39-.52.54-.83.49-1s-.33-.09-.33-.09h-.94a.22.22 0 00-.12 0 .26.26 0 00-.08.1 5.45 5.45 0 01-.35.79c-.42.72-.59.75-.66.71s-.12-.42-.12-.64c0-.69.11-1-.21-1.06a1.6 1.6 0 00-.44 0 2 2 0 00-.79.08c-.11.05-.19.17-.14.18a.43.43 0 01.28.14.91.91 0 01.08.38s.06.82-.13.92-.29-.07-.67-.72a6.05 6.05 0 01-.34-.7.28.28 0 00-.08-.11.39.39 0 00-.15-.06h-.9s-.14 0-.19.06 0 .16 0 .16a10.24 10.24 0 001.5 2.48 2.16 2.16 0 001.58.73z" fill="#fff" fill-rule="evenodd"/></g></g></svg>