<svg xmlns="http://www.w3.org/2000/svg" viewBox="0 0 13.1 7.91"><g data-name="Слой 2"><g data-name="Layer 1" fill-rule="evenodd"><path d="M3.9 0a3.93 3.93 0 102.66 6.84A4 4 0 007 6.42h-.8A3.79 3.79 0 015.86 6h1.39a4 4 0 00.23-.42H5.63a3.83 3.83 0 01-.16-.41h2.17a3.92 3.92 0 00.2-1.25 4 4 0 00-.09-.84H5.36a4 4 0 01.11-.41h2.17a3.93 3.93 0 00-.17-.42H5.63a3.78 3.78 0 01.22-.41h1.39a3.92 3.92 0 00-.3-.42h-.77A3.58 3.58 0 016.56 1a3.9 3.9 0 00-2.64-1z" fill="#921b1d"/><path d="M13.1 3.93a3.92 3.92 0 11-7.84 0 3.92 3.92 0 117.84 0z" fill="#f06622"/><path d="M13.1 4a3.92 3.92 0 11-7.84 0 3.92 3.92 0 117.84 0z" fill="#f6971d"/><path d="M3.9 0a3.93 3.93 0 102.66 6.88A3.9 3.9 0 007 6.46h-.8a3.75 3.75 0 01-.29-.4h1.34a4 4 0 00.23-.42H5.63a3.84 3.84 0 01-.16-.41h2.17A3.92 3.92 0 007.84 4a4 4 0 00-.09-.84H5.36a4 4 0 01.11-.41h2.17a3.92 3.92 0 00-.17-.42H5.63a3.79 3.79 0 01.22-.41h1.39a4 4 0 00-.3-.42h-.77a3.63 3.63 0 01.39-.4A3.9 3.9 0 003.92 0z" fill="#ca2026"/><path d="M5.33 5l.05-.36h-.1c-.15 0-.16-.08-.15-.13l.12-.73h.22l.05-.39h-.21v-.24h-.38s-.25 1.38-.25 1.54A.31.31 0 005 5a1.1 1.1 0 00.33 0zm.13-.7a.66.66 0 00.73.7 1.06 1.06 0 00.44 0l.07-.4a1.29 1.29 0 01-.44.1c-.45 0-.37-.34-.37-.34h.85a3 3 0 00.05-.38.56.56 0 00-.6-.61c-.42 0-.73.45-.73 1zm.73-.59c.24 0 .19.27.19.29h-.45s.07-.29.27-.29zM8.84 5l.07-.46a1 1 0 01-.35.1.41.41 0 01-.41-.47c0-.49.25-.77.54-.77a.74.74 0 01.38.12l.07-.44A1.5 1.5 0 008.67 3c-.48 0-1 .42-1 1.21 0 .52.25.87.75.87A1.92 1.92 0 008.84 5zM3 3.34a1.44 1.44 0 00-.51.09l-.06.36a1.32 1.32 0 01.46-.07c.16 0 .27 0 .27.14a.27.27 0 010 .11H3c-.36 0-.74.15-.74.62a.4.4 0 00.4.45.54.54 0 00.43-.19V5h.37l.16-1.15A.49.49 0 003 3.34zm.09.94c0 .07 0 .4-.3.4a.15.15 0 01-.16-.16c0-.11.06-.25.37-.25zM4 5c.09 0 .63 0 .63-.53s-.5-.42-.5-.63.08-.14.23-.14h.29l.05-.37a2 2 0 00-.38 0c-.31 0-.62.12-.62.55s.52.43.52.63-.15.15-.26.15a1.36 1.36 0 01-.37-.06l-.06.4A1.31 1.31 0 004 5zm8.3-2l-.09.56a.55.55 0 00-.4-.22c-.38 0-.7.46-.7 1 0 .34.17.68.52.68a.52.52 0 00.37-.17V5h.41l.32-2zm-.19 1.1c0 .22-.11.52-.34.52s-.22-.13-.22-.32.15-.54.33-.54.23.09.23.34zM.77 5l.26-1.5.04 1.5h.28l.54-1.5L1.65 5h.43l.33-2h-.66l-.41 1.23L1.31 3h-.6L.37 5h.4zm6.44 0c.12-.69.14-1.25.43-1.15a1.62 1.62 0 01.15-.48h-.07c-.19 0-.33.26-.33.26v-.24H7L6.78 5zM9.8 3.34a1.44 1.44 0 00-.51.09l-.06.36a1.32 1.32 0 01.45-.07c.16 0 .27 0 .27.14a.26.26 0 010 .11h-.18C9.41 4 9 4.11 9 4.58a.4.4 0 00.4.45.54.54 0 00.43-.19V5h.37l.16-1.15a.49.49 0 00-.57-.5zm.09.94c0 .07 0 .4-.3.4a.15.15 0 01-.16-.16c0-.11.06-.25.37-.25zm.82.72c.12-.69.14-1.25.43-1.15a1.61 1.61 0 01.15-.48h-.08c-.19 0-.33.26-.33.26v-.24h-.39L10.28 5z" fill="#fff"/></g></g></svg>