<svg xmlns="http://www.w3.org/2000/svg" viewBox="0 0 45.6 45.6"><g data-name="Слой 2"><g data-name="Layer 1" fill-rule="evenodd"><path d="M22.8 45.6A22.8 22.8 0 100 22.8a22.84 22.84 0 0022.8 22.8z" fill="#ffffb9"/><path d="M30.39 22.8a1.9 1.9 0 011.9-1.9v-3.8a1.9 1.9 0 00-1.9-1.9H15.21a1.9 1.9 0 00-1.89 1.9v3.8a1.9 1.9 0 010 3.8v3.8a1.9 1.9 0 001.9 1.9h15.17a1.9 1.9 0 001.9-1.9v-3.8a1.9 1.9 0 01-1.9-1.9zm-4.2 4.56l-3.4-2.18-3.4 2.18 1-3.91-3.09-2.56 4-.24 1.47-3.74 1.46 3.75 4 .24-3.12 2.55 1 3.9z" fill="#1a1a1a"/></g></g></svg>