<svg version="1.0" xmlns="http://www.w3.org/2000/svg" width="1205.333" height="1205.333" viewBox="0 0 904 904"><path d="M442 .7c-5 1.8-28.8 12.1-36 15.4-4.7 2.2-9.8 4.6-11.5 5.4-6.6 3-68.5 34-75 37.5-3.8 2-13.3 7-21 11-14.9 7.7-30.4 15.8-45 23.5-4.9 2.6-15.5 8.2-23.5 12.3-8 4.1-16.7 8.8-19.5 10.3-2.7 1.5-6.7 3.5-8.7 4.4-2.1 1-3.8 2.1-3.8 2.5 0 .4 3.9.8 8.8 1 18.5.4 82.6 2.1 94.7 2.5 69.4 2.3 221.4 2.3 294 0 4.4-.1 20.2-.6 35-1 14.9-.4 32.2-.9 38.5-1 6.3-.2 16.1-.4 21.8-.5 5.7-.1 10.2-.3 10-.5-.5-.4-19.4-10.3-40.3-21-19.7-10.2-34.5-17.8-60-31-23-12-65.4-33.3-81-40.7C468 6.2 448-1.6 442 .7zM202 194.3V437h223V319l-34.7-.1c-53.7-.1-64.5-1-74.8-5.9-10.5-5.1-10.2-18 .5-22.2 3.9-1.5 14.8-3.6 22.5-4.3 3.9-.4 8.4-.8 10-1.1 19.8-2.4 207.6-2.4 223.7.1 1.3.2 5.5.6 9.5 1 24 2.1 32.4 6.6 31 16.5-.7 5.3-3.6 8.5-10.2 10.9-11.3 4.2-21.4 4.9-78.2 5l-40.3.1v119.1l15.8-.5c8.6-.3 24-.8 34.2-1.1 18.8-.6 29.9-.9 63-2 10.2-.3 24.6-.8 32-1 7.4-.2 22.7-.7 34-1 11.3-.4 24.2-.8 28.8-1 4.5-.1 8.6-.6 9-.9.4-.4.8-4.7.9-9.4.1-9.3 1.2-54.3 1.8-78.2.2-8 .6-26.4 1-41 .3-14.6.8-34.4 1-44 .2-9.6.7-29 1-43 .3-14 .8-33.7 1-43.7l.4-18.1H202v41.1zm6.8 266.5l-6.8.3v283.7h505l.1-3.7V463.5l-.1-3-108.8.2c-59.8.1-109.9.2-111.4.2l-2.8.1v130l43.3.1c43.7.1 48.4.2 58.5 1.3 10.7 1.2 19.1 3.4 22.2 5.9 5.4 4.2 6.8 12.9 2.8 16.8-4.4 4.2-15 7.1-30.3 8.4-4.4.4-9.8.9-12 1.1-20 1.7-138.3 2.3-186 1-28.3-.8-32.7-1-42.2-2.1-3.2-.3-7.8-.9-10.1-1.1-11.7-1.4-22.1-6.8-22.3-11.7-.6-10.8 6.1-15.8 24.5-18.2 8.2-1.2 14.8-1.3 54.4-1.4l38.2-.1-.2-65.1-.3-65.1-104.5-.2c-57.5 0-107.5 0-111.2.2zm170.9 307.8c-.1.1-17.3.5-38.2.8-59.8 1.1-84.5 1.9-114 4.1-10.2.8-20.5 2.2-21.3 3-.7.7 3.3 4.5 4.8 4.5.5 0 1 .4 1 1 0 .5.4 1 .8 1 .5 0 6.1 3.1 12.6 7 6.4 3.8 11.9 7 12.1 7 .2 0 5.3 2.7 11.2 5.9 19.7 10.9 31.3 16.8 94.9 48.5 75.8 37.8 103.9 51.6 105.3 51.6.9 0 104.8-51 108.1-53.1.8-.5 2.4-1.3 3.5-1.8 7.8-3.4 76.5-38.5 82.5-42.1.8-.5 6.7-3.7 13-7.1 22.5-12.1 36.3-21 34.9-22.4-2.9-2.8-51.4-5.5-128.4-7.1-26.9-.6-182.3-1.2-182.8-.8z"/></svg>