<svg xmlns="http://www.w3.org/2000/svg" xmlns:xlink="http://www.w3.org/1999/xlink"><symbol id="icon-buyers" viewBox="0 0 4.32 3.02"><g data-name="&#x421;&#x43B;&#x43E;&#x439; 2"><path d="M1.51 1.51A.76.76 0 10.76.76a.76.76 0 00.76.76zm0-1.08a.32.32 0 11-.32.32.32.32 0 01.32-.32zm0 2.16H.6a2.24 2.24 0 01.91-.22h.07A1 1 0 011.94 2a2.53 2.53 0 00-.43 0C1 1.94 0 2.2 0 2.7V3h1.51v-.3a.59.59 0 010-.11zm1.61-.54c-.4 0-1.19.22-1.19.65V3h2.39v-.3c0-.43-.79-.65-1.19-.65zm.26-.39a.53.53 0 10-.26.07.54.54 0 00.26-.07z" fill="#999" fill-rule="evenodd" data-name="Layer 1"/></g></symbol><symbol id="icon-date" viewBox="0 0 4.32 4.8"><g data-name="&#x421;&#x43B;&#x43E;&#x439; 2"><path d="M1 2.16h.48v.48H1v-.48zM4.32 1a.48.48 0 00-.48-.52H3.6V0h-.48v.48H1.2V0H.72v.48H.48A.48.48 0 000 1v3.32a.48.48 0 00.48.48h3.36a.48.48 0 00.48-.48V1zm-3.84.44V1h3.36v.48zm3.36 2.88v-2.4H.48v2.4zm-1-1.68v-.48h.48v.48zm-1 0v-.48h.56v.48z" fill="#008dca" fill-rule="evenodd" data-name="Layer 1"/></g></symbol><symbol id="icon-exit" viewBox="0 0 4.32 4.32"><g data-name="&#x421;&#x43B;&#x43E;&#x439; 2"><path d="M.43 0v4.32H0V0zm3.89 2.16L2.59.86v.86H.86v.86h1.73v.86z" fill="#fc0" fill-rule="evenodd" data-name="Layer 1"/></g></symbol><symbol id="icon-finance" viewBox="0 0 4.32 4.32"><g data-name="&#x421;&#x43B;&#x43E;&#x439; 2"><path d="M2.16 0a2.16 2.16 0 102.16 2.16A2.16 2.16 0 002.16 0zm0 3.89a1.73 1.73 0 111.73-1.73 1.73 1.73 0 01-1.73 1.73zM2.23 2c.38.1.79.26.79.74s-.26.54-.59.6v.36h-.51v-.4a.7.7 0 01-.62-.64h.37c0 .2.16.35.5.35s.45-.19.45-.3-.08-.3-.51-.4-.78-.31-.78-.69A.65.65 0 011.92 1V.65h.5V1a.67.67 0 01.58.66h-.41c0-.21-.12-.35-.42-.35s-.45.13-.45.31.12.26.51.38z" fill="#999" fill-rule="evenodd" data-name="Layer 1"/></g></symbol><symbol id="icon-goods" viewBox="0 0 4.1 3.89"><g data-name="&#x421;&#x43B;&#x43E;&#x439; 2"><path d="M3.67.43v.87H.43V.43zm0 2.16v.86H.43v-.86zM3.89 0H.22A.22.22 0 000 .22v1.3a.22.22 0 00.22.22h3.67a.22.22 0 00.22-.22V.22A.22.22 0 003.89 0zm0 2.16H.22a.22.22 0 00-.22.22v1.3a.22.22 0 00.22.22h3.67a.22.22 0 00.22-.22v-1.3a.22.22 0 00-.22-.22z" fill="#999" fill-rule="evenodd" data-name="Layer 1"/></g></symbol><symbol id="icon-offer" viewBox="0 0 4.1 4.75"><g data-name="&#x421;&#x43B;&#x43E;&#x439; 2"><path d="M3 0H.43A.43.43 0 000 .43v3h.43v-3H3V0zm-.19.86l1.3 1.3v2.16a.43.43 0 01-.43.43H1.29a.43.43 0 01-.43-.43v-3A.43.43 0 011.3.86zM1.3 4.32v-3h1.3v1.06h1.07v1.94z" fill="#999" fill-rule="evenodd" data-name="Layer 1"/></g></symbol><symbol id="icon-reports" viewBox="0 0 3.93 4.8"><g data-name="&#x421;&#x43B;&#x43E;&#x439; 2"><path d="M3.49.44h-.91a.65.65 0 00-1.23 0H.44A.44.44 0 000 .87v3.49a.44.44 0 00.44.44h3.05a.44.44 0 00.44-.44V.87a.44.44 0 00-.44-.43zM2.32 2.1v.43H1.07V2.1zm.54.9v.43H1.07V3zM2 .44a.22.22 0 11-.22.22A.22.22 0 012 .44zm1.49 3.92H.44V.87h.43v.44h2.18V.87h.44z" fill="#999" fill-rule="evenodd" data-name="Layer 1"/></g></symbol><symbol id="icon-settings" viewBox="0 0 3.89 3.89"><g data-name="&#x421;&#x43B;&#x43E;&#x439; 2"><path d="M0 3v.43h1.3V3zM0 .43v.43h2.16V.43zm2.16 3.46v-.43h1.73V3H2.16v-.41h-.43v1.3zM.86 1.3v.43H0v.43h.86v.43h.44V1.3zm3 .86v-.43H1.73v.43zM2.59 1.3H3V.86h.86V.43H3V0h-.41z" fill="#999" fill-rule="evenodd" data-name="Layer 1"/></g></symbol><symbol id="icon-stats" viewBox="0 0 3.89 3.89"><g data-name="&#x421;&#x43B;&#x43E;&#x439; 2"><path d="M3.46 0h-3A.43.43 0 000 .43v3a.43.43 0 00.43.43h3a.43.43 0 00.43-.43v-3a.43.43 0 00-.4-.43zm0 3.46h-3v-3h3v3zM.86 1.51h.44V3H.86V1.51zm.87-.65h.43V3h-.43V.86zm.86 1.3H3V3h-.41z" fill="#999" fill-rule="evenodd" data-name="Layer 1"/></g></symbol></svg>