<svg xmlns="http://www.w3.org/2000/svg" xmlns:xlink="http://www.w3.org/1999/xlink"><defs><filter id="filter0_d" x=".5" y="0" width="72" height="88" filterUnits="userSpaceOnUse" color-interpolation-filters="sRGB"><feFlood flood-opacity="0" result="BackgroundImageFix"/><feColorMatrix in="SourceAlpha" values="0 0 0 0 0 0 0 0 0 0 0 0 0 0 0 0 0 0 127 0"/><feOffset dx="4" dy="4"/><feGaussianBlur stdDeviation="4"/><feColorMatrix values="0 0 0 0 0.65098 0 0 0 0 0.670588 0 0 0 0 0.741176 0 0 0 1 0"/><feBlend in2="BackgroundImageFix" result="effect1_dropShadow"/><feBlend in="SourceGraphic" in2="effect1_dropShadow" result="shape"/></filter><filter id="filter1_d" x="10.5" y="55" width="48" height="18" filterUnits="userSpaceOnUse" color-interpolation-filters="sRGB"><feFlood flood-opacity="0" result="BackgroundImageFix"/><feColorMatrix in="SourceAlpha" values="0 0 0 0 0 0 0 0 0 0 0 0 0 0 0 0 0 0 127 0"/><feOffset dx="2" dy="2"/><feGaussianBlur stdDeviation="2"/><feColorMatrix values="0 0 0 0 0 0 0 0 0 0.764706 0 0 0 0 0.407843 0 0 0 0.4 0"/><feBlend in2="BackgroundImageFix" result="effect1_dropShadow"/><feBlend in="SourceGraphic" in2="effect1_dropShadow" result="shape"/></filter><filter id="filter0_d" x="0" y="0" width="80" height="87.5" filterUnits="userSpaceOnUse" color-interpolation-filters="sRGB"><feFlood flood-opacity="0" result="BackgroundImageFix"/><feColorMatrix in="SourceAlpha" values="0 0 0 0 0 0 0 0 0 0 0 0 0 0 0 0 0 0 127 0"/><feOffset dx="4" dy="4"/><feGaussianBlur stdDeviation="4"/><feColorMatrix values="0 0 0 0 0.65098 0 0 0 0 0.670588 0 0 0 0 0.741176 0 0 0 1 0"/><feBlend in2="BackgroundImageFix" result="effect1_dropShadow"/><feBlend in="SourceGraphic" in2="effect1_dropShadow" result="shape"/></filter><filter id="filter0_d" x="17.892" y="19.196" width="63.072" height="76.013" filterUnits="userSpaceOnUse" color-interpolation-filters="sRGB"><feFlood flood-opacity="0" result="BackgroundImageFix"/><feColorMatrix in="SourceAlpha" values="0 0 0 0 0 0 0 0 0 0 0 0 0 0 0 0 0 0 127 0"/><feOffset dx="4" dy="4"/><feGaussianBlur stdDeviation="4"/><feColorMatrix values="0 0 0 0 0.65098 0 0 0 0 0.670588 0 0 0 0 0.741176 0 0 0 1 0"/><feBlend in2="BackgroundImageFix" result="effect1_dropShadow"/><feBlend in="SourceGraphic" in2="effect1_dropShadow" result="shape"/></filter><filter id="filter1_d" x="39.88" y="26.234" width="18.316" height="19.73" filterUnits="userSpaceOnUse" color-interpolation-filters="sRGB"><feFlood flood-opacity="0" result="BackgroundImageFix"/><feColorMatrix in="SourceAlpha" values="0 0 0 0 0 0 0 0 0 0 0 0 0 0 0 0 0 0 127 0"/><feOffset dx="2" dy="2"/><feGaussianBlur stdDeviation="2"/><feColorMatrix values="0 0 0 0 0 0 0 0 0 0.764706 0 0 0 0 0.407843 0 0 0 0.4 0"/><feBlend in2="BackgroundImageFix" result="effect1_dropShadow"/><feBlend in="SourceGraphic" in2="effect1_dropShadow" result="shape"/></filter><filter id="filter0_d" x=".615" y="0" width="111.885" height="103" filterUnits="userSpaceOnUse" color-interpolation-filters="sRGB"><feFlood flood-opacity="0" result="BackgroundImageFix"/><feColorMatrix in="SourceAlpha" values="0 0 0 0 0 0 0 0 0 0 0 0 0 0 0 0 0 0 127 0"/><feOffset dx="4" dy="4"/><feGaussianBlur stdDeviation="4"/><feColorMatrix values="0 0 0 0 0.65098 0 0 0 0 0.670588 0 0 0 0 0.741176 0 0 0 1 0"/><feBlend in2="BackgroundImageFix" result="effect1_dropShadow"/><feBlend in="SourceGraphic" in2="effect1_dropShadow" result="shape"/></filter><linearGradient id="paint0_linear" x1="41.538" y1="40.769" x2="-2.154" y2="-1.231" gradientUnits="userSpaceOnUse"><stop stop-color="#fff"/><stop offset="1" stop-color="#fff" stop-opacity="0"/></linearGradient><filter id="filter0_d" x="10" y="20.586" width="6.828" height="6.828" filterUnits="userSpaceOnUse" color-interpolation-filters="sRGB"><feFlood flood-opacity="0" result="BackgroundImageFix"/><feColorMatrix in="SourceAlpha" values="0 0 0 0 0 0 0 0 0 0 0 0 0 0 0 0 0 0 127 0"/><feOffset dx="1" dy="1"/><feGaussianBlur stdDeviation="1"/><feColorMatrix values="0 0 0 0 0 0 0 0 0 0.764706 0 0 0 0 0.407843 0 0 0 0.8 0"/><feBlend in2="BackgroundImageFix" result="effect1_dropShadow"/><feBlend in="SourceGraphic" in2="effect1_dropShadow" result="shape"/></filter><linearGradient id="paint0_linear" x1="41.538" y1="40.769" x2="-2.154" y2="-1.231" gradientUnits="userSpaceOnUse"><stop stop-color="#fff"/><stop offset="1" stop-color="#fff" stop-opacity="0"/></linearGradient><linearGradient id="paint0_linear" x1="41.538" y1="40.769" x2="-2.154" y2="-1.231" gradientUnits="userSpaceOnUse"><stop stop-color="#fff"/><stop offset="1" stop-color="#fff" stop-opacity="0"/></linearGradient><linearGradient id="paint0_linear" x1="41.538" y1="40.769" x2="-2.154" y2="-1.231" gradientUnits="userSpaceOnUse"><stop stop-color="#fff"/><stop offset="1" stop-color="#fff" stop-opacity="0"/></linearGradient><linearGradient id="paint0_linear" x1="41.538" y1="40.769" x2="-2.154" y2="-1.231" gradientUnits="userSpaceOnUse"><stop stop-color="#fff"/><stop offset="1" stop-color="#fff" stop-opacity="0"/></linearGradient></defs><symbol id="icon-81" viewBox="0 73 88"><g filter="url(#filter0_d)"><rect x="5.5" y="5" width="54" height="70" rx="3" stroke="#2E3A59" stroke-width="2"/><path d="M13.5 5h38v5a3 3 0 01-3 3h-32a3 3 0 01-3-3V5z" stroke="#2E3A59" stroke-width="2"/><g filter="url(#filter1_d)"><path d="M13.5 61a3 3 0 013-3h32a3 3 0 013 3v2a3 3 0 01-3 3h-32a3 3 0 01-3-3v-2z" stroke="#00C368" stroke-width="2"/></g></g></symbol><symbol id="icon-82" viewBox="0 0 80 88"><g filter="url(#filter0_d)" stroke="#2E3A59" stroke-width="2"><path d="M64 43.5V29C64 15.745 53.255 5 40 5h-8C18.745 5 8 15.745 8 29v14.5"/><path d="M13 35c0-12.703 10.297-23 23-23s23 10.297 23 23v8c0 12.703-10.297 23-23 23S13 55.703 13 43v-8z"/><path d="M33.5 74.5H40c13.255 0 24-10.745 24-24V40"/><rect x="5" y="36" width="6" height="14" rx="3"/><rect x="61" y="36" width="6" height="14" rx="3"/></g></symbol><symbol id="icon-83" viewBox="0 0 81 96"><g filter="url(#filter0_d)"><circle cx="31.69" cy="73.411" r="7" transform="rotate(-15 31.69 73.41)" stroke="#2E3A59" stroke-width="2"/><path stroke="#2E3A59" stroke-width="2" d="M30.997 32.185l28.978-7.765 7.764 28.978-28.978 7.765z"/><g filter="url(#filter1_d)"><path stroke="#00C368" stroke-width="2" d="M43.105 31.011l5.795-1.553 2.071 7.728-5.796 1.552z"/></g></g></symbol><symbol id="icon-84" viewBox="0 0 113 103"><g filter="url(#filter0_d)" stroke="#2E3A59" stroke-width="2"><path d="M19.16 65.542c-5.857-5.858-5.857-15.355 0-21.213l25.554-25.553c5.858-5.858 15.355-5.858 21.213 0l4.448 4.448c6.364 6.364 5.74 16.899-1.145 22.78-3.85 3.29-7.849 6.845-11.044 10.005-3.74 3.7-7.974 8.436-11.789 12.888-5.884 6.866-16.406 7.475-22.762 1.119l-4.474-4.474z"/><path d="M17.136 63.287c-5.37-5.37-5.871-13.882-1.01-19.666 4.383-5.212 9.662-11.246 14.176-15.71 3.978-3.935 9.252-8.521 13.933-12.44 5.785-4.842 14.285-4.332 19.647 1.03l.4.4c6.365 6.364 5.74 16.899-1.145 22.78-3.85 3.29-7.848 6.845-11.043 10.005-3.74 3.7-7.975 8.436-11.79 12.888-5.883 6.866-16.406 7.475-22.762 1.12l-.406-.407z"/><rect x="38.152" y="30.767" width="15.665" height="15.665" rx="7.833" transform="rotate(-45 38.152 30.767)"/><rect x="73.5" y="68" width="26" height="22" rx="1"/><path d="M75.5 45c7 2 11 5 11 15.999"/></g></symbol><symbol id="icon-arrow"><path d="M18.7.3c-.4-.4-1-.4-1.4 0L9.5 8.1 1.7.3C1.3-.1.7-.1.3.3c-.4.4-.4 1 0 1.4l8.5 8.5c.4.4 1 .4 1.4 0l8.5-8.5c.4-.4.4-1 0-1.4z" fill="#A6ABBD"/></symbol><symbol id="icon-item-1"><rect width="40" height="40" rx="20" fill="#E7EBF0"/><rect x=".5" y=".5" width="39" height="39" rx="19.5" stroke="url(#paint0_linear)" stroke-opacity=".3" style="mix-blend-mode:hard-light"/><path d="M10.67 29.054a7.018 7.018 0 010-9.925l8.465-8.465a7.01 7.01 0 019.914 0c2.972 2.973 2.677 7.891-.518 10.677a75.499 75.499 0 00-3.377 3.102c-1.205 1.193-2.538 2.654-3.804 4.104-2.788 3.192-7.708 3.48-10.68.507z" fill="#fff" stroke="#2E3A59"/><path d="M9.106 27.398c-2.132-2.131-2.33-5.508-.401-7.799 1.723-2.047 3.783-4.398 5.547-6.143 1.551-1.534 3.604-3.322 5.44-4.86 2.29-1.92 5.661-1.72 7.79.409 2.523 2.524 2.278 6.706-.456 9.045-1.496 1.281-3.043 2.66-4.285 3.888-1.458 1.442-3.104 3.28-4.595 5.016-2.34 2.727-6.519 2.966-9.04.444z" fill="#fff" stroke="#2E3A59"/><rect x="17.436" y="14.515" width="6" height="6" rx="3" transform="rotate(-45 17.436 14.515)" fill="#FFD058" stroke="#2E3A59"/><g filter="url(#filter0_d)"><rect x="11" y="23" width="2" height="2" rx="1" transform="rotate(-45 11 23)" fill="#00C368"/></g></symbol><symbol id="icon-item-2"><rect width="40" height="40" rx="20" fill="#E7EBF0"/><rect x=".5" y=".5" width="39" height="39" rx="19.5" stroke="url(#paint0_linear)" stroke-opacity=".3" style="mix-blend-mode:hard-light"/><path d="M12.5 18a7.5 7.5 0 0115 0v7.5h-15V18z" fill="#fff" stroke="#2E3A59"/><path fill="#2E3A59" d="M14 26h2v5h-2zm10 0h2v5h-2z"/><path fill="#A6ABBD" d="M13 23h14v2H13z"/></symbol><symbol id="icon-item-3"><rect width="40" height="40" rx="20" fill="#E7EBF0"/><rect x=".5" y=".5" width="39" height="39" rx="19.5" stroke="url(#paint0_linear)" stroke-opacity=".3" style="mix-blend-mode:hard-light"/><rect x="8.5" y="4.5" width="23" height="23" rx="11.5" fill="#fff" stroke="#2E3A59"/><rect x="16.5" y="32.5" width="7" height="4" rx="1.5" fill="#FFD058" stroke="#2E3A59"/><path d="M14.5 26.5h11V33a1.5 1.5 0 01-1.5 1.5h-8a1.5 1.5 0 01-1.5-1.5v-6.5z" fill="#A6ABBD" stroke="#2E3A59"/><path fill="#2E3A59" d="M15 28h1v1h-1zm9 0h1v1h-1zm-9 2h1v1h-1zm9 0h1v1h-1zm-9 2h1v1h-1zm9 0h1v1h-1zM5.99 33.803l27.8-27.798.707.707-27.8 27.798z"/></symbol><symbol id="icon-item-4"><rect width="40" height="40" rx="20" fill="#E7EBF0"/><rect x=".5" y=".5" width="39" height="39" rx="19.5" stroke="url(#paint0_linear)" stroke-opacity=".3" style="mix-blend-mode:hard-light"/><path fill="#2E3A59" d="M15 15h1v10h-1z"/><path fill="#2E3A59" d="M15 15h1v10h-1z"/><path fill="#2E3A59" d="M15 15h1v10h-1z"/><path fill="#2E3A59" d="M20.567 9.358l.866.5-6.684 11.577-.866-.5z"/><path fill="#2E3A59" d="M20.567 9.358l.866.5-6.684 11.577-.866-.5z"/><path fill="#2E3A59" d="M20.567 9.358l.866.5-6.684 11.577-.866-.5z"/><path fill="#2E3A59" d="M25.142 13.567l.5.866-10.459 6.038-.5-.866z"/><path fill="#2E3A59" d="M25.142 13.567l.5.866-10.459 6.038-.5-.866z"/><path fill="#2E3A59" d="M25.142 13.567l.5.866-10.459 6.038-.5-.866z"/><path fill="#2E3A59" d="M25.643 25.567l-.5.866-11.374-6.567.5-.866z"/><path fill="#2E3A59" d="M25.643 25.567l-.5.866-11.374-6.567.5-.866z"/><path fill="#2E3A59" d="M25.643 25.567l-.5.866-11.374-6.567.5-.866z"/><path fill="#2E3A59" d="M21.433 30.143l-.866.5-7.794-13.5.866-.5z"/><path fill="#2E3A59" d="M21.433 30.143l-.866.5-7.794-13.5.866-.5z"/><path fill="#2E3A59" d="M21.433 30.143l-.866.5-7.794-13.5.866-.5z"/><rect x="6" y="13" width="14" height="14" rx="7" fill="#E7EBF0"/><path fill="#2E3A59" d="M12 8h1v24h-1z"/><path d="M27 20h-7" stroke="#2E3A59"/><path d="M12.5 14.522a5.5 5.5 0 010 10.956V14.522z" fill="#fff" stroke="#2E3A59"/><rect x="20.5" y="6.5" width="3" height="3" rx="1.5" fill="#FFD058" stroke="#2E3A59"/><rect x="25.5" y="11.5" width="3" height="3" rx="1.5" fill="#FFD058" stroke="#2E3A59"/><rect x="26.5" y="18.5" width="3" height="3" rx="1.5" fill="#FFD058" stroke="#2E3A59"/><rect x="25.5" y="25.5" width="3" height="3" rx="1.5" fill="#FFD058" stroke="#2E3A59"/><rect x="20.5" y="30.5" width="3" height="3" rx="1.5" fill="#FFD058" stroke="#2E3A59"/></symbol><symbol id="icon-item-5"><rect width="40" height="40" rx="20" fill="#E7EBF0"/><rect x=".5" y=".5" width="39" height="39" rx="19.5" stroke="url(#paint0_linear)" stroke-opacity=".3" style="mix-blend-mode:hard-light"/><rect x="8.5" y="8.5" width="23" height="23" rx="11.5" stroke="#2E3A59"/><rect x="12.5" y="12.5" width="15" height="15" rx="7.5" stroke="#2E3A59"/><path fill="#E7EBF0" d="M16 5h8v12h-8z"/><rect x="18.5" y="5.5" width="3" height="11" rx="1.5" fill="#FFD058" stroke="#2E3A59"/></symbol><symbol id="icon-quotes"><path d="M19.48 16.543c0 5.223-4.348 9.457-9.713 9.457-5.365 0-9.26-4.088-9.714-9.293C-.64 8.765 5.556 2.116 13.08 0c-2.564 1.51-4.353 4.135-4.651 7.189a9.7 9.7 0 011.339-.104c5.365 0 9.713 4.234 9.713 9.457zm20.52 0C40 21.765 35.651 26 30.286 26s-9.26-4.088-9.714-9.293C19.878 8.765 26.075 2.116 33.599 0c-2.565 1.51-4.353 4.135-4.652 7.189a9.75 9.75 0 011.339-.104c5.365 0 9.714 4.234 9.714 9.457z" fill="#00C368"/></symbol><symbol id="icon-quotes2"><path d="M19.48 16.543c0 5.223-4.348 9.457-9.713 9.457-5.365 0-9.26-4.088-9.714-9.293C-.64 8.765 5.556 2.116 13.08 0c-2.564 1.51-4.353 4.135-4.651 7.189a9.7 9.7 0 011.339-.104c5.365 0 9.713 4.234 9.713 9.457zm20.52 0C40 21.765 35.651 26 30.286 26s-9.26-4.088-9.714-9.293C19.878 8.765 26.075 2.116 33.599 0c-2.565 1.51-4.353 4.135-4.652 7.189a9.75 9.75 0 011.339-.104c5.365 0 9.714 4.234 9.714 9.457z" fill="#e7ebf0"/></symbol></svg>