<svg width="16" height="16" fill="none" xmlns="http://www.w3.org/2000/svg"><path fill-rule="evenodd" clip-rule="evenodd" d="M7.018 1.522a2 2 0 012.691.705l.002.004 5.647 9.426.005.01a2 2 0 01-1.71 3H2.346a2 2 0 01-1.71-3l.005-.01 5.646-9.426.572.342-.57-.346a2 2 0 01.729-.705zm.412 1.396l-5.642 9.419a.667.667 0 00.569.996h11.285a.666.666 0 00.569-.996L8.569 2.92v-.001a.667.667 0 00-1.139 0z" fill="#42474D"/><path fill-rule="evenodd" clip-rule="evenodd" d="M7.334 11.333c0-.368.298-.667.667-.667h.006a.667.667 0 010 1.334h-.006a.667.667 0 01-.667-.667zm.666-6c.369 0 .667.299.667.667v2.667a.667.667 0 01-1.333 0V6c0-.368.298-.667.667-.667z" fill="#42474D"/></svg>