<svg viewBox="0 0 49 45" fill="none" xmlns="http://www.w3.org/2000/svg"><path d="M36.58 37.261a12.409 12.409 0 004.838-.932l-4.853 7.2-4.822-7.296a12.396 12.396 0 004.836 1.028z" fill="#42474D" stroke="#42474D" stroke-width=".524"/><path d="M15 40h19m-5-26.347L21.367 7 7 19.515V30m20-.355V40H15V25h9.924" stroke="#42474D" stroke-width="1.571" stroke-linejoin="round"/><path d="M15 40v-3.944c0-.574-.223-1.125-.62-1.532a2.088 2.088 0 00-1.494-.635h-2.114a3.97 3.97 0 00-.287-1.489 3.893 3.893 0 00-.823-1.262 3.785 3.785 0 00-1.232-.843A3.71 3.71 0 006.977 30H4.61c-.958 0-1.876.39-2.553 1.084A3.747 3.747 0 001 33.7V40h14zm19-28.646L22.96 1.62c-.458-.4-1.04-.62-1.643-.62-.602 0-1.184.22-1.642.62l-7.329 6.457V3.264H7.422v9.16L1 18.074 4.285 22 21.32 7l7.84 6.884M27 29l9.588 15L46 29.571" stroke="#42474D" stroke-width="1.571" stroke-linejoin="round"/><path d="M36.5 34C42.851 34 48 28.851 48 22.5S42.851 11 36.5 11 25 16.149 25 22.5 30.149 34 36.5 34z" stroke="#42474D" stroke-width="1.571" stroke-linejoin="round"/><path d="M42.152 21l-.52.058 1.04-.115-.52.057zm-.666-.9c.06.315.11.635.146.958l1.04-.116c-.039-.35-.092-.698-.158-1.041l-1.028.198zm1.186.843a12.71 12.71 0 00-.158-1.043l-1.028.2c.062.315.11.634.145.957l1.041-.114z" fill="#42474D" mask="url(#a)"/><path d="M42.48 21.052c.03.315.047.633.049.95l1.047-.004c-.002-.351-.02-.702-.055-1.05l-1.042.104zm1.096.946c-.002-.351-.02-.702-.055-1.05l-1.042.104c.032.315.048.633.05.95l1.047-.004z" fill="#42474D" mask="url(#b)"/><path d="M30 21l-.52-.053 1.04.107L30 21zm.152-1l.513.103-1.026-.207.513.104zm.369 1.054c.033-.321.081-.639.144-.95l-1.026-.207c-.07.345-.123.695-.16 1.049l1.042.108zm-.882-1.158c-.07.345-.124.696-.16 1.05l1.042.107c.033-.32.08-.637.144-.949l-1.026-.208z" fill="#42474D" mask="url(#c)"/><path d="M30.524 22c0-.314.018-.629.054-.94l-1.04-.12c-.04.351-.061.705-.062 1.06h1.048zm-.987-1.06c-.04.351-.06.705-.06 1.06h1.047c0-.314.018-.629.054-.94l-1.04-.12z" fill="#42474D" mask="url(#d)"/><path d="M42.337 22.177c.196-3.585-2.327-6.64-5.636-6.824-3.308-.184-6.15 2.572-6.346 6.157-.196 3.584 2.327 6.64 5.636 6.824 3.308.184 6.15-2.573 6.346-6.157z" stroke="#42474D" stroke-width="1.571" stroke-linejoin="round"/></svg>