<svg viewBox="0 0 58 59" fill="none" xmlns="http://www.w3.org/2000/svg"><path d="M44.842 32.28a1.186 1.186 0 00-.83.34 1.15 1.15 0 00-.34.819v23.245H2.34V2.306H32.7v10.16c0 .306.123.6.342.816.22.216.517.337.827.337h3.647c.31 0 .608-.121.827-.337a1.145 1.145 0 000-1.63 1.178 1.178 0 00-.827-.338H35.02V4.026l5.126 5.261a1.173 1.173 0 00.82.358 1.187 1.187 0 00.837-.32 1.154 1.154 0 00.363-.808 1.14 1.14 0 00-.324-.825L34.7.355l-.127-.109-.061-.044a1.103 1.103 0 00-.15-.098 1.173 1.173 0 00-.51-.104H1.154C.846.006.553.13.338.345A1.15 1.15 0 000 1.153v56.683a1.144 1.144 0 00.34.82 1.176 1.176 0 00.83.344h43.672a1.184 1.184 0 00.823-.345 1.152 1.152 0 00.335-.819V33.44a1.144 1.144 0 00-.337-.815 1.177 1.177 0 00-.821-.343z" fill="#42474D"/><path d="M11.49 16a1.125 1.125 0 01-.683-.247l-2.373-1.828a1.112 1.112 0 01-.425-.736 1.103 1.103 0 01.552-1.102 1.12 1.12 0 011.237.084l1.56 1.203 3.7-4.013a1.12 1.12 0 011.94.699 1.1 1.1 0 01-.29.798l-4.394 4.764a1.132 1.132 0 01-.825.378zM58 15.3a1.135 1.135 0 00-.344-.808l-4.176-4.076-4.176-4.077A1.174 1.174 0 0048.47 6a1.196 1.196 0 00-.833.34l-23.64 23.113-.045.054-.089.098a1.087 1.087 0 00-.061.108.2.2 0 00-.039.065l-4.648 9.812-2.988 5.746a1.121 1.121 0 00.042 1.113c.103.167.248.305.422.401.174.097.37.148.57.15.179.002.356-.04.516-.12l5.98-2.856 1.833-.851c.099-.03.192-.074.278-.13l7.886-3.621a.563.563 0 00.11-.065h.04c.061-.04.119-.085.172-.136l.06-.06 23.59-23.027A1.15 1.15 0 0058 15.3zm-9.524-6.505l2.516 2.456L29 32.706l-2.516-2.456L48.476 8.795zM25.38 40.7l-2.888-2.813 2.694-5.681 5.98 5.838L25.38 40.7zm-4.176-.103l.217-.46 1.666 1.626-.478.222-2.838 1.355 1.433-2.743zm11.973-3.832l-2.521-2.434 21.996-21.466 2.516 2.455-21.991 21.445zM16.803 28h-6.606A1.198 1.198 0 019 26.804v-6.608A1.2 1.2 0 0110.197 19h6.606A1.198 1.198 0 0118 20.196v6.608A1.19 1.19 0 0116.803 28zm-5.42-2.397h4.222v-4.206h-4.222v4.206zM16.803 40h-6.606A1.198 1.198 0 019 38.804v-6.608A1.2 1.2 0 0110.197 31h6.606A1.198 1.198 0 0118 32.196v6.608A1.19 1.19 0 0116.803 40zm-5.42-2.392h4.222v-4.2h-4.222v4.2z" fill="#42474D"/><path d="M16.802 52h-6.605A1.197 1.197 0 019 50.802v-6.604A1.204 1.204 0 0110.197 43h5.107a1.197 1.197 0 01.847 2.045 1.195 1.195 0 01-.847.351h-3.92v4.225h4.238a1.198 1.198 0 012.378.221v.977A1.193 1.193 0 0116.802 52z" fill="#42474D"/></svg>