<svg viewBox="0 0 31 22" fill="none" xmlns="http://www.w3.org/2000/svg"><path fill="currentColor" d="M15.901.836h.166c1.536.006 9.319.062 11.417.626a3.756 3.756 0 012.644 2.653c.189.71.321 1.65.41 2.62l.02.194.04.486.016.194a60.35 60.35 0 01.138 3.657v.14c-.002.363-.019 2.07-.153 3.85l-.015.195-.017.195c-.093 1.069-.232 2.13-.44 2.91a3.75 3.75 0 01-2.643 2.654c-2.168.583-10.406.624-11.547.626h-.266c-.577 0-2.965-.011-5.469-.097l-.317-.011-.163-.008-.32-.013-.319-.013c-2.074-.091-4.049-.24-4.959-.486a3.75 3.75 0 01-2.644-2.651c-.207-.78-.346-1.842-.439-2.911l-.015-.197-.015-.194a58.667 58.667 0 01-.153-3.804v-.23c.004-.402.019-1.79.12-3.322l.013-.192.005-.098.015-.194.041-.486.019-.194c.09-.97.222-1.912.411-2.62a3.75 3.75 0 012.644-2.653c.91-.243 2.885-.392 4.959-.486l.318-.013.32-.011.162-.006.32-.013C11.981.876 13.76.844 15.54.838h.361V.836zm-3.085 5.998v9.002l7.768-4.499-7.768-4.503z"/></svg>