<svg width="47" height="48" fill="none" xmlns="http://www.w3.org/2000/svg"><g clip-path="url(#clip0_363_1967)" fill="#fff"><path d="M23.5 14.27c-5.315 0-9.639 4.323-9.639 9.638 0 5.315 4.324 9.639 9.639 9.639 5.315 0 9.639-4.324 9.639-9.639 0-5.315-4.324-9.639-9.639-9.639zm6.482 7.858l-7.344 7.344a1.373 1.373 0 01-1.948 0L17.02 25.8a1.377 1.377 0 111.947-1.948l2.698 2.699 6.37-6.37a1.377 1.377 0 011.948 1.947z"/><path d="M40.023 7.844a20.649 20.649 0 01-14.697-6.088l-.852-.853a1.377 1.377 0 00-1.948 0l-.852.853A20.649 20.649 0 016.977 7.844c-.76 0-1.377.616-1.377 1.377v13.735a25.889 25.889 0 0017.452 24.469 1.378 1.378 0 00.896 0A25.889 25.889 0 0041.4 22.955V9.222c0-.76-.616-1.377-1.377-1.377zM23.5 36.3c-6.833 0-12.393-5.56-12.393-12.393 0-6.833 5.56-12.392 12.393-12.392 6.833 0 12.393 5.559 12.393 12.392 0 6.833-5.56 12.393-12.393 12.393z"/></g><defs><clipPath id="clip0_363_1967"><path fill="#fff" transform="translate(0 .5)" d="M0 0h47v47H0z"/></clipPath></defs></svg>