<svg width="18" height="18" fill="none" xmlns="http://www.w3.org/2000/svg"><path d="M9 13.167c.236 0 .434-.08.594-.24.16-.16.24-.358.24-.594V9a.807.807 0 00-.24-.594.803.803 0 00-.594-.24.807.807 0 00-.594.24.803.803 0 00-.24.594v3.333c0 .236.08.435.24.595.16.16.358.24.594.239zM9 6.5c.236 0 .434-.08.594-.24.16-.16.24-.358.24-.593a.807.807 0 00-.24-.594.803.803 0 00-.594-.24.807.807 0 00-.594.24.803.803 0 00-.24.594c0 .236.08.434.24.594.16.16.358.24.594.24zm0 10.833a8.11 8.11 0 01-3.25-.656 8.426 8.426 0 01-2.646-1.781 8.41 8.41 0 01-1.78-2.646A8.13 8.13 0 01.666 9a8.11 8.11 0 01.656-3.25 8.428 8.428 0 011.781-2.646 8.41 8.41 0 012.646-1.78A8.13 8.13 0 019 .666a8.11 8.11 0 013.25.656 8.43 8.43 0 012.646 1.781 8.422 8.422 0 011.781 2.646A8.102 8.102 0 0117.333 9a8.11 8.11 0 01-.656 3.25 8.43 8.43 0 01-1.781 2.646 8.423 8.423 0 01-2.646 1.782 8.1 8.1 0 01-3.25.655zm0-1.666c1.861 0 3.438-.646 4.73-1.938 1.29-1.291 1.937-2.868 1.937-4.729 0-1.861-.646-3.437-1.938-4.73C12.438 2.98 10.861 2.334 9 2.334c-1.861 0-3.438.646-4.73 1.938C2.98 5.563 2.334 7.139 2.334 9c0 1.86.646 3.437 1.938 4.728 1.29 1.293 2.867 1.939 4.728 1.939z" fill="#667085"/></svg>