<svg xmlns="http://www.w3.org/2000/svg"><defs>
    <filter id="filter0_d" x="0" y="0" width="64" height="64" filterUnits="userSpaceOnUse" color-interpolation-filters="sRGB">
      <feFlood flood-opacity="0" result="BackgroundImageFix"/>
      <feColorMatrix in="SourceAlpha" values="0 0 0 0 0 0 0 0 0 0 0 0 0 0 0 0 0 0 127 0"/>
      <feOffset dy="4"/>
      <feGaussianBlur stdDeviation="4"/>
      <feColorMatrix values="0 0 0 0 0.262009 0 0 0 0 0 0 0 0 0 0 0 0 0 0.24 0"/>
      <feBlend in2="BackgroundImageFix" result="effect1_dropShadow"/>
      <feBlend in="SourceGraphic" in2="effect1_dropShadow" result="shape"/>
    </filter>
  </defs><symbol id="icon-arrow-select" viewBox="0 0 11 7">
<path d="M1 1L5.5 5.5L10 1" stroke="#333333" stroke-width="1.4"/>
</symbol><symbol id="icon-arrow">
  <path d="M30.5 9c0-.8284-.6716-1.5-1.5-1.5H15.5c-.8284 0-1.5.6716-1.5 1.5s.6716 1.5 1.5 1.5h12v12c0 .8284.6716 1.5 1.5 1.5s1.5-.6716 1.5-1.5V9zM9.0607 31.0607l21-21-2.1214-2.1214-21 21 2.1214 2.1214z" fill="#fff"/>
</symbol><symbol id="icon-burger">
  <path d="M0 16h24v-2H0v2zm0-7h24V7H0v2zm0-9v2h24V0H0z" fill="#575757"/>
</symbol><symbol id="icon-close" viewBox="0 0 52 34">
<path d="M35.9856 6.99542L15.9946 26.9863" stroke="#6E6E6E" stroke-width="2"/>
<path d="M35.9858 26.9863L15.9949 6.99542" stroke="#6E6E6E" stroke-width="2"/>
</symbol><symbol id="icon-menu-close"><path fill="#231F20" d="M20.513 1.414L19.099 0l-8.843 8.842L1.414 0 0 1.414l8.842 8.842L0 19.098l1.414 1.414 8.842-8.842 8.843 8.842 1.414-1.414-8.842-8.842z"/></symbol><symbol id="icon-menu-open"><path fill="#231F20" d="M0 0h19.958v2H0zm0 6h19.958v2H0zm0 6h19.958v2H0z"/></symbol><symbol id="icon-minus">
  <path d="M10 5H0" stroke-width="2"/>
</symbol><symbol id="icon-more">
  <g filter="url(#filter0_d)">
    <rect x="8" y="4" width="48" height="48" rx="24" fill="#D62323"/>
    <path d="M33.6001 29v-3h-3.2v3h3.2zM33.6001 35v-3h-3.2v3h3.2zM33.6001 23v-3h-3.2v3h3.2zM27.2 29v-3H24v3h3.2zM40 29v-3h-3.2v3H40zM27.2 35v-3H24v3h3.2zM40 35v-3h-3.2v3H40zM27.2 23v-3H24v3h3.2zM40 23v-3h-3.2v3H40z" fill="#fff"/>
  </g>
  
</symbol><symbol id="icon-order">
  <path d="M183.057 60.4949l-54.561 54.7301-66.8251-55.6346L113.204.4852l69.853 60.0097z" fill="#A0A0A0"/>
  <path d="M186.086 87.292l-70.716 31.151-42.0462-76.1214L142.799 5.9751l43.287 81.3169z" fill="#E5E5E5"/>
  <path d="M145.588 125.637c17.87-31.2247 7.044-71.0232-24.18-88.893-31.2248-17.8697-71.0234-7.0436-88.8931 24.1807-17.8697 31.2243-7.0437 71.0233 24.1807 88.8923 31.2243 17.87 71.0224 7.044 88.8924-24.18z" fill="#8E8E8E"/>
  <path d="M38.8493 166.127l32.5815-72.9875-4.0595-1.9562-37.0197 70.8837c-1.1989 2.356-.2313 5.238 2.1455 6.395 2.3979 1.157 5.2585.105 6.3522-2.335z" fill="#E2E2E2"/>
  <path d="M88.8357 87.8165c5.2395-10.8736 3.1664-22.734-4.6304-26.4909-7.7968-3.7569-18.3647 2.0124-23.6042 12.886s-3.1664 22.734 4.6304 26.4904c7.7968 3.757 18.3648-2.0119 23.6042-12.8855z" fill="#F2F2F2"/>
  <path opacity=".2" d="M83.5971 85.491c3.8123-7.9119 2.8645-16.2716-2.1171-18.672-4.9815-2.4004-12.1104 2.0676-15.9228 9.9795-3.8123 7.9119-2.8645 16.2717 2.117 18.672 4.9816 2.4004 12.1105-2.0676 15.9229-9.9795z" fill="#B3B3B3"/>
  <path d="M152.79 184.868l-32.623-72.966-4.186 1.724 28.122 74.86c.947 2.461 3.744 3.681 6.205 2.671 2.44-1.009 3.576-3.849 2.482-6.289z" fill="#E2E2E2"/>
  <path d="M115.539 83.2115l6.121 14.8288c.42 1.0307-.064 2.1877-1.094 2.6087-1.031.42-2.188-.064-2.608-1.0942l-6.921-16.743c-.252-.631-.883-1.0306-1.556-.9886-1.115.0421-1.851 1.1779-1.409 2.2296l7.046 17.0582c.358.863-.063 1.851-.904 2.188l-.652.273c-.821.337-1.767-.042-2.104-.883l-6.962-16.8483c-.463-1.1358-1.935-1.4093-2.798-.5469-.483.4838-.631 1.22-.357 1.851l7.004 16.9742c.316.757-.042 1.62-.799 1.935l-.968.4c-.757.315-1.619-.042-1.935-.799l-6.0997-14.8083c-.2524-.6099-1.1148-.5258-1.283.0842-1.241 4.8167-.8204 10.7061 1.5565 16.4691 4.6062 11.169 14.8292 17.522 22.8222 14.24 7.992-3.302 10.748-15.018 6.141-26.1868-2.503-6.0368-6.646-10.6852-11.19-13.1462-.652-.3365-1.325.2734-1.051.9045z" fill="#F2F2F2"/>
</symbol><symbol id="icon-plus">
  <path d="M5 0v10M10 5H0" stroke-width="2"/>
</symbol><symbol id="icon-user">
  <path fill-rule="evenodd" clip-rule="evenodd" d="M7.5096 13.9993c-1.9157 0-3.8314.001-5.7474-.0003C1.1705 13.9986 1 13.8353 1 13.2663c-.0004-1.0967.5306-1.9045 1.5279-2.3507.6052-.2705 1.2878-.3778 1.9366-.5546.1531-.0418.315-.055.466-.1024.8616-.2712.8456-.1681.6048-1.0769C5.4 8.6711 5.019 8.202 4.6737 7.771c-.395-.493-.7028-1.0015-.777-1.628-.0093-.0768-.0452-.1702-.0143-.2287.3829-.724.0714-1.501.1847-2.249.0892-.5905.2884-1.0914.7-1.5273.0956-.101.1623-.2584.1769-.396.0444-.4235.249-.6795.6883-.7127 1.358-.1017 2.6753.0512 3.9258.624.7775.356 1.2225.9469 1.3411 1.7567.0636.4318.0305.876.0618 1.3132.022.3131.0668.6262.1232.9354.1258.6878-.1197 1.2748-.5128 1.817-.168.2317-.3761.4365-.5643.6541-.38.4397-.5821.9486-.645 1.519-.0266.2425.0323.41.2877.4723.4368.1068.8719.2234 1.313.3092.8456.1633 1.6472.4058 2.2879 1.0084.6247.5875.8243 1.3094.7252 2.1259-.0408.3359-.2827.4362-.5984.4355-.9579-.0024-1.9161-.0004-2.8739-.0004-.9984 0-1.996-.0003-2.994-.0003zM5.5034 1.6122c.2272.4833-.0583.7009-.3062.9655-.2003.2134-.4145.4833-.4581.7531-.0878.5442-.086 1.106-.0768 1.6598.005.3045.136.6048-.1417.8722-.0596.0577-.056.238-.0106.328.2138.4226.3924.881.694 1.2387.5828.6905 1.0285 1.4087 1.032 2.3341.0022.5199-.0827.7064-.5988.869-.5153.1626-1.0473.2819-1.5793.3864-.6599.1301-1.2938.3107-1.8.7656-.4819.4328-.7301.9596-.6406 1.6176.093.018.1442.036.1953.036 3.7643.0024 7.5285.0017 11.2928.0076.2579.0003.3683-.138.3062-.3321-.124-.3864-.2327-.8081-.4763-1.1205-.4823-.6196-1.2295-.8154-1.9825-.9735-.5689-.1197-1.1326-.2664-1.6905-.4296-.341-.0997-.4802-.3467-.4876-.7113-.0196-.94.3565-1.7107.9955-2.3797.3693-.3868.6698-.8071.739-1.3447.0157-.1194-.0252-.247-.0461-.3698-.0398-.2332-.1101-.4643-.1208-.6985-.0238-.5272.0178-1.06-.0369-1.5834-.0579-.5541-.3491-.989-.8812-1.2595-.7184-.3657-1.4841-.567-2.2843-.6244-.52-.0367-1.0442-.0066-1.6365-.0066z" fill="#575757" stroke="#575757" stroke-width=".6"/>
</symbol></svg>