<svg id="Layer_1" xmlns="http://www.w3.org/2000/svg" viewBox="0 0 124.5 28.8"><style>.st0{fill:#fff}</style><path class="st0" d="M40 2.7c.9-.2 1.9-.3 3.1-.4 1.1-.1 2.2-.1 3.3-.1 1.1 0 2.3.1 3.4.3 1.1.1 2.2.5 3.1 1.1s1.7 1.3 2.3 2.3c.6 1 .9 2.3.9 3.9 0 1.5-.3 2.7-.8 3.7s-1.2 1.8-2 2.5c-.8.6-1.8 1.1-2.9 1.4-1.1.3-2.2.4-3.3.4H45c-.3 0-.4 0-.5-.1v8H40v-23zm6.7 3.4h-1.3c-.4 0-.7.1-1 .1v7.5c.1 0 .2 0 .4.1h1.6c.6 0 1.2-.1 1.8-.2.6-.1 1.1-.3 1.6-.6s.8-.7 1.1-1.2c.3-.5.4-1.2.4-2.1 0-.7-.1-1.3-.4-1.8-.3-.5-.6-.9-1-1.1-.4-.3-.9-.5-1.5-.6-.6-.1-1.1-.1-1.7-.1zm14.3 8c0-3.8.8-6.8 2.5-8.9C65.3 3.1 67.7 2 70.9 2c1.6 0 3.1.3 4.3.9 1.2.6 2.3 1.4 3.1 2.4.8 1.1 1.4 2.3 1.8 3.8.4 1.5.6 3.1.6 4.9 0 3.9-.9 6.8-2.6 8.9C76.4 25 74 26 70.9 26c-1.7 0-3.1-.3-4.4-.9-1.2-.6-2.2-1.4-3.1-2.4-.8-1.1-1.4-2.3-1.8-3.8-.4-1.4-.6-3-.6-4.8zm4.8 0c0 1.2.1 2.2.3 3.2.2 1 .5 1.8.9 2.5s.9 1.3 1.6 1.6 1.4.6 2.3.6c1.6 0 2.8-.6 3.7-1.9.9-1.3 1.3-3.3 1.3-6.1 0-1.1-.1-2.2-.3-3.1-.2-1-.5-1.8-.9-2.5s-.9-1.3-1.6-1.7c-.6-.4-1.4-.6-2.3-.6-1.6 0-2.8.6-3.7 1.9-.9 1.3-1.3 3.3-1.3 6.1zm31.4 5.3c0-.7-.3-1.3-.8-1.7-.5-.4-1.2-.8-1.9-1.2s-1.6-.7-2.5-1.1c-.9-.4-1.8-.9-2.5-1.4-.8-.6-1.4-1.3-1.9-2.1s-.8-1.9-.8-3.2c0-1.1.2-2.1.6-2.9.4-.8.9-1.5 1.6-2.1s1.5-1 2.5-1.2c.9-.3 2-.4 3.2-.4 1.3 0 2.6.1 3.8.3 1.2.2 2.2.6 2.9 1L100 7.2c-.5-.3-1.2-.6-2.2-.8-1-.3-2-.4-3.1-.4s-1.9.2-2.4.6c-.6.4-.8 1-.8 1.7s.3 1.2.8 1.7c.5.4 1.2.8 1.9 1.2.8.4 1.6.8 2.5 1.2.9.4 1.8.9 2.5 1.4.8.6 1.4 1.3 1.9 2.1s.8 1.9.8 3.1c0 1.2-.2 2.3-.6 3.2-.4.9-1 1.6-1.7 2.2-.7.6-1.6 1-2.7 1.3s-2.2.4-3.4.4c-1.6 0-3.1-.2-4.4-.5s-2.2-.6-2.8-.9l1.5-3.9c.2.1.6.3.9.4.4.2.8.3 1.3.4l1.5.3c.5.1 1.1.1 1.7.1 1.3 0 2.4-.2 3.1-.7.5-.3.9-1 .9-1.9zm27.2-12.9h-6.7v19.1h-4.5V6.5h-6.8v-4h18v4zM.1.5h9.2v9.2H.1zm9.1 9.2h9.2v9.2H9.2zm9.2 9.1h9.2V28h-9.2zm0-18.3h9.2v9.2h-9.2z"/><path class="st0" d="M.1 18.8h9.2V28H.1z"/></svg>