<svg id="Layer_1" xmlns="http://www.w3.org/2000/svg" viewBox="0 0 146.7 35.9"><style>.st2{fill:#fff}</style><path fill="none" d="M-.2 3.2h176.8V39H-.2z"/><path class="st2" d="M1.9 35.4c-.2.6-.6.6-1 .1-.8-.8-1.4-2.7-.1-6.1C2.9 24 12 9.1 18 .9c.5-.7 1.1-1 1.8-.3 2.2 1.9 2.8 3.9 1.3 8.3-1.8 5.4-3.8 11.9-5.9 19.8 6.1-10 14.3-18.3 20.4-27.9.5-.8 1-.8 1.6-.2 2.2 2.3 1.7 5.4.2 8.2C33.6 16 28 27.3 25.2 35.4c-.2.6-.4.6-.9.2-.9-.7-1.6-2.4-.6-6.1.8-3.3 4.4-11.1 8.1-18.1-6.5 7.6-13 16.2-17 23.7-.3.6-.6.7-1 .4-1.8-1.3-2.7-3.3-2.1-6.8.5-3.2 2.4-10.9 4.8-18.4-5 7.5-11.3 17.6-14.6 25.1zm66.4.2c-4.6 0-5.8-3.5-4.2-8.2C66 21.9 70.9 16 70 15.6c-.7-.2-3.8 1.2-7.4 5.2-3.2 3.5-5.9 8.9-8.2 14.2-.2.4-.6.7-1.1.2-1-1.1-1.4-2.9-.4-5.7.6-1.7 1.8-4.6 3.5-7.6-1.5 1-3.2 1.5-5.2 1.4-1.1 4.8-4.7 10.5-8.8 11.9-2 .7-4.9.6-7.1-2.4-2.5-3.3-1.6-8.2.9-12.6 2.2-3.8 5.5-7 8.9-7.3 1.7-.2 2.6.3 3.8 1.8 1.3 1.8 3 2.1 2.7 6.2 0 .3 0 .7-.1 1 3.5-.1 7.2-4.1 10.2-8.7.4-.6.8-.6 1.2-.1.8 1.4.8 3.3.2 5.3 2.5-2.6 6.2-5.7 8.1-5.4 1.8.2 3.6 3.1 2.2 5.9-1.2 2.5-3.9 6.6-5.2 9.5-1.5 3.2-1.2 5.7 1 5.7 2.2-.1 4.9-3.7 7.1-7.7.2-.4.8-.4 1 0 .3.7.3 1.8-.6 3.5-1.6 2.9-5.1 5.7-8.4 5.7zM43.9 16.9c-1.6 1.3-3.1 3.2-4.4 5.3-2.5 4.2-3.2 9.4-1.7 10.6 1.5 1.2 5-.7 7.7-5.8 1-1.8 1.6-3.4 2.1-4.8-2-.9-3.6-3.1-3.7-5.3zm4.4 0c-.3-1.8-1.5-1.5-1.7.2-.2 1.2.2 2.9 1.3 3.8.4-1.6.6-3 .4-4z"/><path class="st2" d="M128.5 29.8c-1.6 3.1-5.2 6-8.3 5.9-4.8-.1-6.5-3.9-4.5-8.4 2-4.7 7-10.9 6.2-11.2-.4-.2-2.4.6-6 4.1-4.6 4.6-7.3 9.9-9.7 15.1-.3.7-.8.8-1.3.3-.9-.9-1.6-3-.1-7 1.8-4.6 7.8-12.3 6.7-12.8-.6-.2-3.4 1.3-6.9 5.2-3.2 3.5-5.9 8.7-8.2 13.9-.2.4-.5.6-1.1.2-1.2-1-1.5-2.9-.6-5.7.6-1.8 2-4.7 3.6-7.8-1.6 1.1-3.2 1.6-5.2 1.4-1.1 4.8-4.6 10.6-8.8 12-2 .7-4.9.6-7.1-2.4-2.4-3.2-1.6-8.2 1-12.6 2.1-3.8 5.5-7.1 8.9-7.3 1.7-.1 2.6.4 3.8 1.9 1.3 1.7 3 2 2.7 6.2 0 .3 0 .6-.1.9 3.6-.1 7.2-4.2 10.1-8.7.3-.6.9-.6 1.2 0 .9 1.5.7 3.6-.1 5.8 2.5-2.8 6.6-6.1 8.6-6 1.9.1 2.9 3 2.2 5.5 2.6-2.5 6.4-5.2 8.2-5.1 2 .1 2.5 3.4 1.3 6-1.1 2.5-3.8 6.2-5.1 9-1.6 3.2-.8 5.8 1.2 5.7 2.2-.1 4.8-3.8 6.9-7.7.3-.5.7-.4 1 0s.2 2.2-.5 3.6zM85.8 17c-1.5 1.3-3.1 3.2-4.3 5.3-2.5 4.2-3.2 9.3-1.7 10.6 1.5 1.3 4.9-.7 7.7-5.8 1-1.7 1.6-3.4 2-4.8-2-1.1-3.6-3.1-3.7-5.3zm4.4 0c-.3-1.8-1.5-1.5-1.7.2-.2 1.2.2 2.8 1.3 3.8.4-1.7.6-3 .4-4z"/><path class="st2" d="M144.8 23.4c-1.2 4.8-4.7 10.4-8.8 11.8-2 .7-4.8.4-7.1-2.5-2.5-3.2-1.6-8.1.9-12.6 2.1-3.8 5.5-7.1 8.9-7.3 1.7-.1 2.7.4 3.8 1.9 1.3 1.7 3 2.1 2.6 6.2-.1.4-.1.8-.1 1.3.3 0 .7-.1 1.1-.1.4 0 .4.3.2.6-.4.4-1 .6-1.5.7zM140 22c-1.2-.9-2.5-2.9-2.6-4.9-1.5 1.3-3.1 3.1-4.3 5.3-2.4 4.3-3.2 9.4-1.7 10.6 1.6 1.3 5-.7 7.7-5.8.8-1.6 1.5-3.1 2-4.5-.4-.2-.7-.4-1.1-.7zm1.9-5c-.3-1.8-1.4-1.5-1.7.2-.3 1.5.3 3.1 1.2 4 .5-1.8.7-3.2.5-4.2z"/></svg>