<svg width="134" height="45" fill="none" xmlns="http://www.w3.org/2000/svg"><g clip-path="url(#clip0)" fill="#B22A2E"><path d="M0 44.6h44.6V0H0v44.6zm39.6-5H5V5h34.5v34.6h.1z"/><path d="M26.7 25.2c2.5-1.1 3.9-3.3 3.9-6.2 0-2-.6-3.6-1.8-4.8-1.4-1.4-3.4-2.1-6-2.1h-9.3v20.2h5.2v-6.2h2.6l4.2 6.2h6.1l-4.9-7.1zm-8-8.3h3.8c1.3 0 2.9.4 2.9 2.3 0 1.5-1 2.3-2.8 2.3h-3.8v-4.6h-.1zm36-7.4h5.9c1.6 0 2.9.5 3.8 1.3.7.7 1.1 1.7 1.1 3 0 2.1-1.1 3.4-2.8 4l3.1 4.6h-3.3l-2.8-4.1h-2.2v4.1h-2.8V9.5zm5.7 6.3c1.4 0 2.2-.7 2.2-1.9s-.8-1.8-2.2-1.8h-2.8v3.7h2.8zm7.7-6.3h9.7V12h-6.9v2.6h6v2.6h-6v2.7h7v2.5h-9.8V9.5zm12.3 0H83l6 7.9V9.5h2.8v12.9h-2.4l-6.2-8.2v8.2h-2.8V9.5zm17.5 2.6H94V9.5h10.7v2.6h-3.9v10.3h-2.9V12.1zm11.7-2.7h2.6l5.5 13h-3l-1.2-2.9h-5.4l-1.2 2.9H104l5.6-13zm3 7.6l-1.7-4.2-1.7 4.2h3.4zm-58 12.9h3.3v.5h-2.7v4.7h-.6v-5.2zm4.4 0h2c1.2 0 2 .6 2 1.7s-.9 1.7-2.1 1.7h-1.3v1.8H59v-5.2zm1.9 2.8c.9 0 1.4-.5 1.4-1.2s-.6-1.1-1.4-1.1h-1.3v2.3h1.3zm2.7 2.3l.2-.5c.2.1.4.2.7.2.4 0 .7-.2 1-.8l-2.3-4h.7l1.9 3.4 1.7-3.4h.6l-2 4.1c-.4.9-1 1.2-1.6 1.2-.3 0-.6-.1-.9-.2zm5.6-5.1h4.1v5.2h-.6v-4.7h-2.9v4.7h-.6v-5.2zm5.6 0h4.1v5.2h-.6v-4.7h-2.9v4.7h-.6v-5.2zm7.5-.1h.6l2.4 5.3h-.6l-.7-1.4h-2.8l-.6 1.4H80l2.3-5.3zm1.5 3.4l-1.2-2.7-1.2 2.7h2.4zm4.1-3.4h.6V33l3-3.2h.8l-2.2 2.3 2.3 3h-.7l-2.1-2.6-1.1 1.2v1.4h-.6v-5.3zm5 2.7c0-1.4 1.1-2.7 2.7-2.7s2.7 1.2 2.7 2.7c0 1.4-1.1 2.7-2.7 2.7-1.7 0-2.7-1.3-2.7-2.7zm4.7 0c0-1.2-.9-2.2-2.1-2.2-1.2 0-2 1-2 2.2 0 1.2.9 2.2 2.1 2.2 1.2 0 2-1 2-2.2zm1.8-2.7h.6l1.9 2.9 1.9-2.9h.6v5.3h-.5v-4.3l-2 2.8-1.9-2.7v4.2h-.6v-5.3zm6.5 0h4.1v5.3h-.5v-4.7h-3v4.7h-.6v-5.3zm7.6 0h.6l2.4 5.3h-.6l-.6-1.4h-2.8l-.6 1.4h-.6l2.2-5.3zm1.4 3.4l-1.2-2.7-1.2 2.7h2.4zm2.5-3.4h.6v2.4h3v-2.4h.6v5.3h-.6v-2.4h-3v2.4h-.6v-5.3zm5.7 0h.6v4.4l3.1-4.4h.6v5.3h-.6v-4.4l-3.1 4.4h-.6v-5.3zm5.8 0h.6v4.3l3.1-4.3h.6V35h-.6v-4.3l-3.1 4.3h-.6v-5.2zm1.1-1.3l.4-.1c.1.3.3.5.7.5.4 0 .6-.2.7-.5l.4.1c-.1.5-.5.9-1.1.9-.6 0-1.1-.4-1.1-.9z"/></g><defs><clipPath id="clip0"><path fill="#fff" d="M0 0h133.1v44.6H0z"/></clipPath></defs></svg>