<svg width="190" height="72" fill="none" xmlns="http://www.w3.org/2000/svg"><path d="M88.48 25.939h9.5c2.608 0 4.657.738 6.054 2.123 1.118 1.107 1.77 2.769 1.77 4.707 0 3.323-1.77 5.354-4.471 6.37l5.03 7.292h-5.309l-4.47-6.554h-3.54v6.554h-4.563V25.939zm9.128 9.969c2.235 0 3.539-1.2 3.539-2.954 0-1.939-1.397-2.954-3.54-2.954h-4.563v5.908h4.564zm12.294-9.969h15.554v3.969h-11.084v4.246h9.78v3.97h-9.78v4.338h11.27v3.969h-15.74V25.939zm19.745 0h4.284l9.687 12.646V25.939h4.47V46.43h-3.912l-9.965-13.016V46.43h-4.564V25.939zm28.221 4.153h-6.241V25.94h17.138v4.153h-6.334v16.339h-4.563v-16.34zm18.814-4.338h4.191l8.848 20.677h-4.75l-1.863-4.616h-8.755l-1.863 4.616h-4.657l8.849-20.677zm4.75 12.092l-2.795-6.646-2.794 6.646h5.589zM.652 71.63h71.622V.647H.652v70.985zm63.52-8.03H8.754V8.585h55.51L64.17 63.6z" fill="#B3282D"/><path d="M43.588 40.8c4.099-1.846 6.24-5.261 6.24-9.877 0-3.138-1.024-5.815-2.887-7.661-2.235-2.216-5.495-3.323-9.593-3.323H22.446v32.215h8.29v-9.785h4.098l6.705 9.877h9.78L43.589 40.8zM30.735 27.508h6.054c2.143 0 4.657.646 4.657 3.692 0 2.308-1.676 3.692-4.47 3.692h-6.24v-7.384z" fill="#B3282D"/></svg>