<svg viewBox="0 0 512 512" fill="#fff" xmlns="http://www.w3.org/2000/svg"><path d="M492 511.984c-11.047 0-20-8.953-20-20v-31.996C472 301.18 342.8 171.98 183.996 171.98c-22.058 0-40.004-17.94-40.004-40V40.048c-.031-.02-.07-.031-.105-.043l-.043.043L45.883 137.8A19.9 19.9 0 0040 151.98a19.9 19.9 0 005.883 14.18l97.96 97.757c.016.016.032.027.044.043a.85.85 0 00.105-.043v-21.934c0-11.047 8.957-20.004 20.004-20.004 11.043 0 20 8.958 20 20.004v21.922c0 16.235-9.7 30.75-24.71 36.977-15.028 6.234-32.18 2.84-43.696-8.653l-97.961-97.753C6.262 183.133 0 168.039 0 151.98c0-16.058 6.262-31.148 17.629-42.492l97.96-97.758c11.517-11.488 28.67-14.882 43.697-8.648 15.012 6.227 24.711 20.738 24.711 36.977v91.921c87.61 0 169.98 34.118 231.934 96.07C477.883 290.005 512 372.376 512 459.985v32c0 11.047-8.953 20-20 20zM143.98 39.867"/></svg>