<svg xmlns="http://www.w3.org/2000/svg" viewBox="0 0 7.2 7.2"><g data-name="Слой 2"><path d="M3.2 2.4H4v.8h-.8v-.8zm1.6 0h.8v.8h-.8v-.8zm2 2.6a4.54 4.54 0 01-1.43-.23h-.12a.41.41 0 00-.25.1l-.88.88a6 6 0 01-2.67-2.63l.88-.88a.39.39 0 00.1-.4A4.55 4.55 0 012.2.4a.4.4 0 00-.4-.4H.4a.4.4 0 00-.4.4 6.8 6.8 0 006.8 6.8.4.4 0 00.4-.4V5.4a.4.4 0 00-.4-.4zM.81.8h.6a5.28 5.28 0 00.18 1l-.48.48A6 6 0 01.81.8zM6.4 6.39a6 6 0 01-1.52-.3l.48-.48a5.11 5.11 0 001 .18v.6zm0-4h.8v.8h-.8z" fill="#1b608e" fill-rule="evenodd" data-name="Layer 1"/></g></svg>