<svg width="33" height="32" fill="none" xmlns="http://www.w3.org/2000/svg"><path d="M14.445 18.999l5.367-2.997-5.367-2.998v5.995z" fill="#C4B192"/><path d="M16.5 0C7.389 0 0 7.165 0 16s7.389 16 16.5 16S33 24.835 33 16 25.611 0 16.5 0zm10.31 16.016s0 3.245-.424 4.81a2.545 2.545 0 01-1.818 1.762C22.954 23 16.5 23 16.5 23s-6.438 0-8.068-.428a2.546 2.546 0 01-1.818-1.763C6.19 19.261 6.19 16 6.19 16s0-3.245.424-4.81c.238-.856.952-1.548 1.818-1.778C10.046 9 16.5 9 16.5 9s6.454 0 8.068.428c.883.23 1.58.906 1.817 1.763.442 1.564.425 4.825.425 4.825z" fill="#C4B192"/></svg>