<svg xmlns="http://www.w3.org/2000/svg" viewBox="0 0 29.37 30.43"><g data-name="Слой 2"><path d="M28.93 27.71l-7.24-7.53a12.28 12.28 0 10-9.4 4.39 12.15 12.15 0 007-2.22l7.3 7.59a1.6 1.6 0 002.31-2.22zM12.26 7.2a1.42 1.42 0 011.42 1.42v2.31H16a1.42 1.42 0 011.42 1.42A1.42 1.42 0 0116 13.76h-2.32v2.31a1.42 1.42 0 01-1.42 1.42 1.42 1.42 0 01-1.42-1.42v-2.31h-2.3a1.42 1.42 0 01-1.42-1.42 1.42 1.42 0 011.42-1.42h2.31v-2.3a1.42 1.42 0 011.41-1.42zm0-4a9.08 9.08 0 11-9.06 9.08 9.09 9.09 0 019.08-9.08z" fill="#fff" fill-rule="evenodd" data-name="Layer 1"/></g></svg>