<svg xmlns="http://www.w3.org/2000/svg" viewBox="0 0 3.36 3.36"><g data-name="Слой 2"><path d="M.66.37a2.29 2.29 0 00.08.49l-.22.22A2.78 2.78 0 01.38.37zM2.5 2.62a2.39 2.39 0 00.5.08V3a2.87 2.87 0 01-.71-.14l.22-.22zM.84 0H.19A.19.19 0 000 .19a3.17 3.17 0 003.17 3.17.19.19 0 00.19-.19v-.65a.19.19 0 00-.19-.19 2.13 2.13 0 01-.67-.11h-.05a.19.19 0 00-.13.05l-.41.41A2.83 2.83 0 01.68 1.45L1.09 1a.19.19 0 000-.19A2.13 2.13 0 011 .19.19.19 0 00.84 0z" fill="#ccc" fill-rule="evenodd" data-name="Layer 1"/></g></svg>