<svg xmlns="http://www.w3.org/2000/svg" viewBox="0 0 11.88 9.6"><defs><style>.cls-1{fill:#fff;fill-rule:evenodd}</style></defs><g id="Слой_2" data-name="Слой 2"><g id="Layer_1" data-name="Layer 1"><path class="cls-1" d="M1 0h10a1 1 0 011 1v7.7a1 1 0 01-1 1H1a1 1 0 01-1-1V1a1 1 0 011-1zm0 .48A.48.48 0 00.48 1v7.7a.48.48 0 00.52.42h10a.47.47 0 00.47-.47V1A.48.48 0 0011 .53z"/><path class="cls-1" d="M5.94 5.23a.43.43 0 11.43-.43.43.43 0 01-.43.43zm-1.49 0a.43.43 0 11.43-.43.43.43 0 01-.43.43zm3 0a.43.43 0 11.43-.43.43.43 0 01-.45.43z"/></g></g></svg>