<svg width="64" height="64" fill="none" xmlns="http://www.w3.org/2000/svg"><g filter="url(#filter0_d)"><rect x="8" y="4" width="48" height="48" rx="24" fill="#D62323"/><path d="M33.6 29v-3h-3.2v3h3.2zm0 6v-3h-3.2v3h3.2zm0-12v-3h-3.2v3h3.2zm-6.4 6v-3H24v3h3.2zM40 29v-3h-3.2v3H40zm-12.8 6v-3H24v3h3.2zM40 35v-3h-3.2v3H40zM27.2 23v-3H24v3h3.2zM40 23v-3h-3.2v3H40z" fill="#fff"/></g><defs><filter id="filter0_d" x="0" y="0" width="64" height="64" filterUnits="userSpaceOnUse" color-interpolation-filters="sRGB"><feFlood flood-opacity="0" result="BackgroundImageFix"/><feColorMatrix in="SourceAlpha" values="0 0 0 0 0 0 0 0 0 0 0 0 0 0 0 0 0 0 127 0"/><feOffset dy="4"/><feGaussianBlur stdDeviation="4"/><feColorMatrix values="0 0 0 0 0.262009 0 0 0 0 0 0 0 0 0 0 0 0 0 0.24 0"/><feBlend in2="BackgroundImageFix" result="effect1_dropShadow"/><feBlend in="SourceGraphic" in2="effect1_dropShadow" result="shape"/></filter></defs></svg>