<svg width="187" height="192" fill="none" xmlns="http://www.w3.org/2000/svg"><path d="M183.057 60.495l-54.561 54.73L61.671 59.59 113.204.485l69.853 60.01z" fill="#A0A0A0"/><path d="M186.086 87.292l-70.716 31.151-42.046-76.121 69.475-36.347 43.287 81.317z" fill="#E5E5E5"/><path d="M145.588 125.637c17.87-31.225 7.044-71.023-24.18-88.893-31.225-17.87-71.023-7.044-88.893 24.18-17.87 31.225-7.044 71.024 24.18 88.893 31.225 17.87 71.023 7.044 88.893-24.18z" fill="#8E8E8E"/><path d="M38.85 166.127L71.43 93.14l-4.059-1.957-37.02 70.884a4.729 4.729 0 0 0 2.146 6.395 4.708 4.708 0 0 0 6.352-2.335z" fill="#E2E2E2"/><path d="M88.836 87.817c5.24-10.874 3.166-22.734-4.63-26.491-7.797-3.757-18.365 2.012-23.605 12.886s-3.166 22.734 4.63 26.49c7.797 3.757 18.365-2.012 23.605-12.886z" fill="#F2F2F2"/><path opacity=".2" d="M83.597 85.491c3.812-7.912 2.865-16.272-2.117-18.672-4.981-2.4-12.11 2.068-15.923 9.98-3.812 7.911-2.864 16.271 2.117 18.671 4.982 2.4 12.11-2.067 15.923-9.979z" fill="#B3B3B3"/><path d="M152.79 184.868l-32.623-72.966-4.186 1.724 28.122 74.86a4.727 4.727 0 0 0 6.205 2.671c2.44-1.009 3.576-3.849 2.482-6.289z" fill="#E2E2E2"/><path d="M115.539 83.212l6.121 14.828a1.99 1.99 0 0 1-1.094 2.609 1.99 1.99 0 0 1-2.608-1.094l-6.921-16.743a1.576 1.576 0 0 0-1.556-.989 1.598 1.598 0 0 0-1.409 2.23l7.046 17.058c.358.863-.063 1.851-.904 2.188l-.652.273a1.602 1.602 0 0 1-2.104-.883l-6.962-16.848c-.463-1.136-1.935-1.41-2.798-.547a1.68 1.68 0 0 0-.357 1.85l7.004 16.975a1.476 1.476 0 0 1-.799 1.935l-.968.4a1.478 1.478 0 0 1-1.935-.799l-6.1-14.808c-.252-.61-1.115-.526-1.283.084-1.24 4.817-.82 10.706 1.557 16.469 4.606 11.169 14.829 17.522 22.822 14.24 7.992-3.302 10.748-15.018 6.141-26.187-2.503-6.037-6.646-10.685-11.19-13.146-.652-.337-1.325.273-1.051.904z" fill="#F2F2F2"/></svg>