<svg width="15" height="15" fill="none" xmlns="http://www.w3.org/2000/svg"><path fill-rule="evenodd" clip-rule="evenodd" d="M7.51 14l-5.748-.001c-.591 0-.762-.164-.762-.733 0-1.096.53-1.904 1.528-2.35.605-.27 1.288-.378 1.936-.555.154-.042.315-.055.466-.102.862-.272.846-.169.605-1.077-.135-.51-.516-.98-.861-1.411-.395-.493-.703-1.002-.777-1.628-.01-.077-.045-.17-.015-.229.383-.724.072-1.5.185-2.249.09-.59.288-1.091.7-1.527a.722.722 0 0 0 .177-.396c.044-.423.249-.68.688-.713 1.358-.101 2.676.052 3.926.624.778.356 1.223.947 1.341 1.757.064.432.03.876.062 1.313.022.313.067.626.123.936.126.687-.12 1.274-.513 1.817-.168.231-.376.436-.564.654-.38.44-.582.948-.645 1.519-.026.242.032.41.288.472.437.107.872.223 1.313.31.845.163 1.647.405 2.288 1.008.624.587.824 1.309.725 2.126-.04.335-.283.436-.598.435-.958-.002-1.917 0-2.874 0H7.51zM5.503 1.611c.228.483-.058.701-.306.966-.2.213-.414.483-.458.753-.088.544-.086 1.106-.077 1.66.005.304.136.604-.141.872-.06.057-.056.238-.011.328.214.422.392.88.694 1.239.583.69 1.028 1.408 1.032 2.334.002.52-.083.706-.599.869a14.6 14.6 0 0 1-1.58.386c-.659.13-1.293.31-1.8.766-.481.432-.73.96-.64 1.617.093.018.145.036.196.036 3.764.003 7.528.002 11.292.008.258 0 .369-.138.307-.332-.124-.387-.233-.808-.477-1.12-.482-.62-1.23-.816-1.982-.974a22.61 22.61 0 0 1-1.69-.43c-.342-.1-.48-.347-.488-.711-.02-.94.356-1.71.995-2.38.37-.387.67-.807.74-1.345.015-.119-.026-.247-.047-.37-.04-.233-.11-.464-.12-.698-.024-.527.017-1.06-.038-1.583-.057-.554-.349-.99-.88-1.26A5.92 5.92 0 0 0 7.14 1.62c-.52-.037-1.044-.007-1.637-.007z" fill="#575757" stroke="#575757" stroke-width=".6"/></svg>