<svg width="47" height="47" fill="none" xmlns="http://www.w3.org/2000/svg"><g clip-path="url(#clip0)"><path d="M20.41 35.833l5.14-5.14 1.04 1.038-5.141 5.14-1.039-1.038z" fill="url(#paint0_linear)"/><path d="M20.563 30.844h1.468v1.468h-1.468v-1.468z" fill="url(#paint1_linear)"/><path d="M24.969 35.25h1.468v1.469H24.97V35.25z" fill="url(#paint2_linear)"/><path d="M23.5 41.125a7.344 7.344 0 10-7.344-7.344 7.352 7.352 0 007.344 7.344zm0-13.219a5.875 5.875 0 11-5.875 5.875 5.882 5.882 0 015.875-5.875z" fill="url(#paint3_linear)"/><path d="M7.344 43.328v.734h32.312v-.734a3.676 3.676 0 013.672-3.672h.734v-11.75h-.734a3.676 3.676 0 01-3.672-3.672V23.5H7.344v.734a3.676 3.676 0 01-3.672 3.672h-.735v11.75h.735a3.676 3.676 0 013.672 3.672zM4.406 29.323a5.153 5.153 0 004.355-4.354H38.24a5.153 5.153 0 004.354 4.354v8.916a5.153 5.153 0 00-4.355 4.355H8.761a5.153 5.153 0 00-4.355-4.355v-8.916z" fill="url(#paint4_linear)"/><path d="M40.097 9.037l-3.781 1.013-5.14-9.663L.39 16.762l.69 1.297L30.57 2.373l4.289 8.067-1.46.39-1.37-2.58-.649.348a3.67 3.67 0 01-4.961-1.518l-.348-.65-12.655 6.735.69 1.297L25.51 8.394a5.148 5.148 0 005.886 1.8l.546 1.028L7.947 17.65l.38 1.419 30.73-8.234 2.603 9.727h-1.523l-.982-3.666-.708.189a3.685 3.685 0 01-4.5-2.602l-.19-.71L19.29 17.65l.38 1.419 13.096-3.51a5.164 5.164 0 005.333 3.085l.515 1.92H0V47h47V20.562h-3.819L40.097 9.037zM45.53 45.53H1.47v-23.5h44.06v23.5z" fill="url(#paint5_linear)"/><path d="M38.188 0H47v1.469h-8.813V0z" fill="url(#paint6_linear)"/><path d="M41.125 2.938H47v1.468h-5.875V2.938z" fill="url(#paint7_linear)"/><path d="M44.063 5.875H47v1.469h-2.938V5.875z" fill="url(#paint8_linear)"/><path d="M0 0h8.813v1.469H0V0z" fill="url(#paint9_linear)"/><path d="M0 2.938h5.875v1.468H0V2.938z" fill="url(#paint10_linear)"/><path d="M0 5.875h2.938v1.469H0V5.875z" fill="url(#paint11_linear)"/></g><defs><linearGradient id="paint0_linear" x1="20.41" y1="30.731" x2="26.713" y2="30.859" gradientUnits="userSpaceOnUse"><stop stop-color="#EB5D56"/><stop offset="1" stop-color="#390A40"/></linearGradient><linearGradient id="paint1_linear" x1="20.563" y1="30.853" x2="22.061" y2="30.883" gradientUnits="userSpaceOnUse"><stop stop-color="#EB5D56"/><stop offset="1" stop-color="#390A40"/></linearGradient><linearGradient id="paint2_linear" x1="24.969" y1="35.259" x2="26.467" y2="35.29" gradientUnits="userSpaceOnUse"><stop stop-color="#EB5D56"/><stop offset="1" stop-color="#390A40"/></linearGradient><linearGradient id="paint3_linear" x1="16.156" y1="26.528" x2="31.137" y2="26.834" gradientUnits="userSpaceOnUse"><stop stop-color="#EB5D56"/><stop offset="1" stop-color="#390A40"/></linearGradient><linearGradient id="paint4_linear" x1="2.938" y1="23.627" x2="44.832" y2="25.337" gradientUnits="userSpaceOnUse"><stop stop-color="#EB5D56"/><stop offset="1" stop-color="#390A40"/></linearGradient><linearGradient id="paint5_linear" x1="0" y1=".675" x2="47.939" y2="1.661" gradientUnits="userSpaceOnUse"><stop stop-color="#EB5D56"/><stop offset="1" stop-color="#390A40"/></linearGradient><linearGradient id="paint6_linear" x1="38.188" y1=".009" x2="47.047" y2="1.094" gradientUnits="userSpaceOnUse"><stop stop-color="#EB5D56"/><stop offset="1" stop-color="#390A40"/></linearGradient><linearGradient id="paint7_linear" x1="41.125" y1="2.947" x2="47.08" y2="3.433" gradientUnits="userSpaceOnUse"><stop stop-color="#EB5D56"/><stop offset="1" stop-color="#390A40"/></linearGradient><linearGradient id="paint8_linear" x1="44.063" y1="5.884" x2="47.055" y2="6.006" gradientUnits="userSpaceOnUse"><stop stop-color="#EB5D56"/><stop offset="1" stop-color="#390A40"/></linearGradient><linearGradient id="paint9_linear" x1="0" y1=".009" x2="8.86" y2="1.094" gradientUnits="userSpaceOnUse"><stop stop-color="#EB5D56"/><stop offset="1" stop-color="#390A40"/></linearGradient><linearGradient id="paint10_linear" x1="0" y1="2.947" x2="5.955" y2="3.433" gradientUnits="userSpaceOnUse"><stop stop-color="#EB5D56"/><stop offset="1" stop-color="#390A40"/></linearGradient><linearGradient id="paint11_linear" x1="0" y1="5.884" x2="2.992" y2="6.006" gradientUnits="userSpaceOnUse"><stop stop-color="#EB5D56"/><stop offset="1" stop-color="#390A40"/></linearGradient><clipPath id="clip0"><path fill="#fff" d="M0 0h47v47H0z"/></clipPath></defs></svg>