<svg width="47" height="47" fill="none" xmlns="http://www.w3.org/2000/svg"><path d="M3.79 4.548h22.742v5.307c0 .42.339.758.758.758h5.307v6.064h1.516V9.855c0-.21-.086-.4-.223-.537l-6.062-6.062a.757.757 0 00-.538-.224H6.823V1.516h28.806v16.677h1.516V.759A.757.757 0 0036.387 0H6.064a.757.757 0 00-.758.758v2.274H3.032a.757.757 0 00-.758.758v42.452c0 .42.339.758.758.758h25.774v-1.516H3.79V4.548zM28.048 5.62l3.477 3.477h-3.477V5.62z" fill="url(#paint0_linear)"/><path d="M43.968 22.742h-1.142a11.34 11.34 0 01-8.735-4.09l-.153-.185c-.287-.346-.878-.346-1.165 0l-.154.184a11.341 11.341 0 01-8.735 4.09h-1.142a.757.757 0 00-.758.759v12.278c0 2.985 1.61 5.76 4.202 7.24l6.793 3.882a.757.757 0 00.752 0l6.793-3.882a8.357 8.357 0 004.202-7.24V23.5a.757.757 0 00-.758-.758zm-.758 13.036a6.834 6.834 0 01-3.438 5.923l-6.417 3.669-6.417-3.668a6.837 6.837 0 01-3.438-5.924v-11.52h.384a12.85 12.85 0 009.47-4.148 12.849 12.849 0 009.472 4.148h.384v11.52z" fill="url(#paint1_linear)"/><path d="M33.355 25.016c-4.598 0-8.339 3.741-8.339 8.339 0 4.598 3.741 8.339 8.339 8.339 4.598 0 8.339-3.742 8.339-8.34 0-4.597-3.742-8.338-8.34-8.338zm0 15.161a6.83 6.83 0 01-6.823-6.822 6.83 6.83 0 016.823-6.823 6.83 6.83 0 016.822 6.823 6.83 6.83 0 01-6.822 6.822z" fill="url(#paint2_linear)"/><path d="M32.993 35.712l-1.376-1.377-1.072 1.072 2.274 2.274a.756.756 0 001.262-.318l2.274-7.58-1.452-.436-1.91 6.365z" fill="url(#paint3_linear)"/><path d="M5.306 12.129h19.71v1.516H5.306V12.13z" fill="url(#paint4_linear)"/><path d="M5.306 15.161h19.71v1.516H5.306v-1.516z" fill="url(#paint5_linear)"/><path d="M5.306 18.194h19.71v1.516H5.306v-1.517z" fill="url(#paint6_linear)"/><path d="M5.306 21.226h15.162v1.516H5.306v-1.516z" fill="url(#paint7_linear)"/><path d="M5.306 24.258h15.162v1.516H5.306v-1.516z" fill="url(#paint8_linear)"/><path d="M5.306 27.29h15.162v1.517H5.306V27.29z" fill="url(#paint9_linear)"/><path d="M5.306 36.387h15.162v1.516H5.306v-1.516z" fill="url(#paint10_linear)"/><path d="M5.306 39.42h15.162v1.515H5.306V39.42z" fill="url(#paint11_linear)"/><path d="M5.306 42.452h15.162v1.516H5.306v-1.516z" fill="url(#paint12_linear)"/><path d="M6.065 6.065H7.58V7.58H6.065V6.065z" fill="url(#paint13_linear)"/><path d="M9.097 6.065h1.516V7.58H9.097V6.065z" fill="url(#paint14_linear)"/><path d="M12.13 6.065h1.515V7.58H12.13V6.065z" fill="url(#paint15_linear)"/><path d="M15.161 6.065h9.855V7.58h-9.855V6.065z" fill="url(#paint16_linear)"/><defs><linearGradient id="paint0_linear" x1="2.274" y1=".29" x2="37.849" y2=".829" gradientUnits="userSpaceOnUse"><stop stop-color="#EB5D56"/><stop offset="1" stop-color="#390A40"/></linearGradient><linearGradient id="paint1_linear" x1="21.984" y1="18.385" x2="45.184" y2="18.759" gradientUnits="userSpaceOnUse"><stop stop-color="#EB5D56"/><stop offset="1" stop-color="#390A40"/></linearGradient><linearGradient id="paint2_linear" x1="25.016" y1="25.119" x2="42.027" y2="25.466" gradientUnits="userSpaceOnUse"><stop stop-color="#EB5D56"/><stop offset="1" stop-color="#390A40"/></linearGradient><linearGradient id="paint3_linear" x1="30.545" y1="29.4" x2="36.473" y2="29.482" gradientUnits="userSpaceOnUse"><stop stop-color="#EB5D56"/><stop offset="1" stop-color="#390A40"/></linearGradient><linearGradient id="paint4_linear" x1="5.306" y1="12.138" x2="24.096" y2="17.123" gradientUnits="userSpaceOnUse"><stop stop-color="#EB5D56"/><stop offset="1" stop-color="#390A40"/></linearGradient><linearGradient id="paint5_linear" x1="5.306" y1="15.171" x2="24.096" y2="20.156" gradientUnits="userSpaceOnUse"><stop stop-color="#EB5D56"/><stop offset="1" stop-color="#390A40"/></linearGradient><linearGradient id="paint6_linear" x1="5.306" y1="18.203" x2="24.096" y2="23.188" gradientUnits="userSpaceOnUse"><stop stop-color="#EB5D56"/><stop offset="1" stop-color="#390A40"/></linearGradient><linearGradient id="paint7_linear" x1="5.306" y1="21.235" x2="20.159" y2="24.266" gradientUnits="userSpaceOnUse"><stop stop-color="#EB5D56"/><stop offset="1" stop-color="#390A40"/></linearGradient><linearGradient id="paint8_linear" x1="5.306" y1="24.267" x2="20.159" y2="27.299" gradientUnits="userSpaceOnUse"><stop stop-color="#EB5D56"/><stop offset="1" stop-color="#390A40"/></linearGradient><linearGradient id="paint9_linear" x1="5.306" y1="27.3" x2="20.159" y2="30.331" gradientUnits="userSpaceOnUse"><stop stop-color="#EB5D56"/><stop offset="1" stop-color="#390A40"/></linearGradient><linearGradient id="paint10_linear" x1="5.306" y1="36.397" x2="20.159" y2="39.428" gradientUnits="userSpaceOnUse"><stop stop-color="#EB5D56"/><stop offset="1" stop-color="#390A40"/></linearGradient><linearGradient id="paint11_linear" x1="5.306" y1="39.429" x2="20.159" y2="42.46" gradientUnits="userSpaceOnUse"><stop stop-color="#EB5D56"/><stop offset="1" stop-color="#390A40"/></linearGradient><linearGradient id="paint12_linear" x1="5.306" y1="42.461" x2="20.159" y2="45.492" gradientUnits="userSpaceOnUse"><stop stop-color="#EB5D56"/><stop offset="1" stop-color="#390A40"/></linearGradient><linearGradient id="paint13_linear" x1="6.065" y1="6.074" x2="7.611" y2="6.105" gradientUnits="userSpaceOnUse"><stop stop-color="#EB5D56"/><stop offset="1" stop-color="#390A40"/></linearGradient><linearGradient id="paint14_linear" x1="9.097" y1="6.074" x2="10.643" y2="6.105" gradientUnits="userSpaceOnUse"><stop stop-color="#EB5D56"/><stop offset="1" stop-color="#390A40"/></linearGradient><linearGradient id="paint15_linear" x1="12.129" y1="6.074" x2="13.675" y2="6.105" gradientUnits="userSpaceOnUse"><stop stop-color="#EB5D56"/><stop offset="1" stop-color="#390A40"/></linearGradient><linearGradient id="paint16_linear" x1="15.161" y1="6.074" x2="25.043" y2="7.385" gradientUnits="userSpaceOnUse"><stop stop-color="#EB5D56"/><stop offset="1" stop-color="#390A40"/></linearGradient></defs></svg>