<svg width="52" height="52" fill="none" xmlns="http://www.w3.org/2000/svg"><path d="M27.745 32.267a2.706 2.706 0 001.986-1.124l7.137-9.972a.777.777 0 00-.08-.996.758.758 0 00-.985-.08l-9.867 7.216a2.748 2.748 0 00-1.11 2.006 2.76 2.76 0 00.787 2.155 2.694 2.694 0 002.132.795zm-1.4-2.83c.027-.352.206-.674.486-.88l6.02-4.401-4.354 6.082a1.19 1.19 0 01-.872.493 1.196 1.196 0 01-1.28-1.294z" fill="url(#paint0_linear)"/><path d="M44.819 18.072c-.008-.016-.008-.033-.017-.049-.009-.015-.023-.024-.033-.038a20.928 20.928 0 00-2.717-3.705l1.637-1.654 1.078 1.089L48 10.446l-3.233-3.268-3.234 3.268 1.078 1.09-1.637 1.654a20.718 20.718 0 00-3.665-2.747c-.015-.01-.023-.025-.039-.034-.016-.01-.032-.008-.048-.017a20.287 20.287 0 00-7.83-2.622v-.918h1.143a1.918 1.918 0 001.905-1.926A1.918 1.918 0 0030.534 3h-6.86a1.918 1.918 0 00-1.905 1.926c0 1.062.854 1.926 1.905 1.926h1.143v.89c-.823.09-1.644.225-2.457.413a.77.77 0 00-.572.923.761.761 0 00.913.578 19.24 19.24 0 012.119-.367l.818-.064c.25-.02.48-.033.704-.044v1.523c0 .426.34.77.762.77a.766.766 0 00.762-.77V9.186a18.75 18.75 0 017.97 2.192l-.752 1.315a.775.775 0 00.28 1.053.76.76 0 001.041-.282l.749-1.312a19.308 19.308 0 015.924 5.988l-1.298.757a.774.774 0 00-.278 1.052.76.76 0 001.041.282l1.301-.76a19.28 19.28 0 012.172 8.182h-1.505a.766.766 0 00-.763.77c0 .426.341.77.763.77h1.505a19.28 19.28 0 01-2.172 8.181l-1.3-.76a.757.757 0 00-1.042.283.775.775 0 00.28 1.052l1.297.758a19.31 19.31 0 01-5.924 5.987l-.749-1.312a.757.757 0 00-1.041-.282.774.774 0 00-.28 1.053l.752 1.315a18.752 18.752 0 01-7.97 2.191v-1.516c0-.426-.34-.77-.761-.77a.766.766 0 00-.763.77v1.523a19.041 19.041 0 01-3.64-.476.759.759 0 00-.913.579.77.77 0 00.572.923c1.522.354 3.076.533 4.618.533.037 0 .073-.002.11-.003.006 0 .01.003.014.003.006 0 .012-.004.018-.004a20.28 20.28 0 0010.075-2.753c.024-.01.049-.016.072-.03.015-.009.023-.024.038-.034a20.843 20.843 0 007.449-7.52c.014-.02.033-.037.046-.06.009-.016.008-.033.016-.049a20.824 20.824 0 002.741-10.351c0-3.768-1-7.3-2.74-10.352zm-.053-8.715l1.078 1.09-1.078 1.09-1.079-1.09 1.079-1.09zM26.342 7.639V5.31h-2.668a.384.384 0 01-.381-.385c0-.212.172-.385.381-.385h6.86c.21 0 .381.173.381.385a.384.384 0 01-.381.385h-2.668v2.33a18.386 18.386 0 00-.762-.017l-.067.002-.057-.002c-.125 0-.25.009-.375.011-.089.003-.172.002-.263.006z" fill="url(#paint1_linear)"/><path d="M20.244 13.786h-3.81a.766.766 0 00-.763.77c0 .426.34.77.762.77h3.811a.766.766 0 00.762-.77c0-.426-.34-.77-.762-.77z" fill="url(#paint2_linear)"/><path d="M20.244 19.179h-7.622a.766.766 0 00-.762.77c0 .426.34.77.762.77h7.622a.766.766 0 00.762-.77c0-.426-.34-.77-.762-.77z" fill="url(#paint3_linear)"/><path d="M20.244 24.572H8.811a.766.766 0 00-.762.77c0 .426.34.77.762.77h11.433a.766.766 0 00.762-.77c0-.426-.34-.77-.762-.77z" fill="url(#paint4_linear)"/><path d="M20.244 29.965H5.762a.766.766 0 00-.762.77c0 .426.34.77.762.77h14.482a.766.766 0 00.762-.77c0-.426-.34-.77-.762-.77z" fill="url(#paint5_linear)"/><path d="M20.244 35.358h-9.909a.766.766 0 00-.762.77c0 .426.34.77.762.77h9.91a.766.766 0 00.761-.77c0-.426-.34-.77-.762-.77z" fill="url(#paint6_linear)"/><path d="M20.244 40.75H14.91a.766.766 0 00-.763.77c0 .427.341.771.763.771h5.335a.766.766 0 00.762-.77c0-.426-.34-.77-.762-.77z" fill="url(#paint7_linear)"/><defs><linearGradient id="paint0_linear" x1="24.818" y1="20.026" x2="37.256" y2="20.277" gradientUnits="userSpaceOnUse"><stop stop-color="#EB5D56"/><stop offset="1" stop-color="#390A40"/></linearGradient><linearGradient id="paint1_linear" x1="21.768" y1="3.286" x2="48.532" y2="3.596" gradientUnits="userSpaceOnUse"><stop stop-color="#EB5D56"/><stop offset="1" stop-color="#390A40"/></linearGradient><linearGradient id="paint2_linear" x1="15.671" y1="13.795" x2="21.088" y2="14.178" gradientUnits="userSpaceOnUse"><stop stop-color="#EB5D56"/><stop offset="1" stop-color="#390A40"/></linearGradient><linearGradient id="paint3_linear" x1="11.86" y1="19.188" x2="21.058" y2="20.303" gradientUnits="userSpaceOnUse"><stop stop-color="#EB5D56"/><stop offset="1" stop-color="#390A40"/></linearGradient><linearGradient id="paint4_linear" x1="8.049" y1="24.581" x2="20.892" y2="26.785" gradientUnits="userSpaceOnUse"><stop stop-color="#EB5D56"/><stop offset="1" stop-color="#390A40"/></linearGradient><linearGradient id="paint5_linear" x1="5" y1="29.974" x2="20.631" y2="33.288" gradientUnits="userSpaceOnUse"><stop stop-color="#EB5D56"/><stop offset="1" stop-color="#390A40"/></linearGradient><linearGradient id="paint6_linear" x1="9.573" y1="35.367" x2="20.978" y2="37.094" gradientUnits="userSpaceOnUse"><stop stop-color="#EB5D56"/><stop offset="1" stop-color="#390A40"/></linearGradient><linearGradient id="paint7_linear" x1="14.146" y1="40.76" x2="21.089" y2="41.391" gradientUnits="userSpaceOnUse"><stop stop-color="#EB5D56"/><stop offset="1" stop-color="#390A40"/></linearGradient></defs></svg>