<svg width="17" height="17" fill="none" xmlns="http://www.w3.org/2000/svg"><path d="M16.96 13.24c-.04-.14-.35-.36-.92-.64a28.42 28.42 0 00-1.42-.79 26.06 26.06 0 01-.96-.59 3.4 3.4 0 00-.43-.26.8.8 0 00-.35-.08c-.16 0-.36.11-.6.34-.24.23-.47.48-.67.75-.2.28-.42.53-.64.76-.23.23-.42.34-.56.34-1.29 0-3.08-1.77-3.9-2.58-.88-.88-2.58-2.54-2.58-3.9 0-.14.11-.33.34-.56.23-.22.48-.44.76-.64.27-.2.52-.43.75-.67.23-.24.34-.44.34-.6a.8.8 0 00-.08-.35 26.67 26.67 0 01-1.27-2.15L4.4.95C4.12.39 3.9.08 3.76.04A.68.68 0 003.5 0a4.8 4.8 0 00-1.69.38c-.4.17-.83.66-1.28 1.48C-.71 4.15.46 7.34 1.75 9.42c1.42 2.3 3.53 4.4 5.83 5.83 2.08 1.3 5.28 2.46 7.56 1.22.9-.5 1.44-1.01 1.7-1.94l.04-.18c.08-.35.12-.63.12-.85 0-.11-.01-.2-.04-.26z" fill="url(#paint0_linear)"/><defs><linearGradient id="paint0_linear" x1="0" y1=".11" x2="17.34" y2=".46" gradientUnits="userSpaceOnUse"><stop stop-color="#EB5D56"/><stop offset="1" stop-color="#390A40"/></linearGradient></defs></svg>