<svg width="24" height="24" fill="none" xmlns="http://www.w3.org/2000/svg"><path d="M8.944 11.297H3.353A2.356 2.356 0 0 1 1 8.944V3.353A2.356 2.356 0 0 1 3.353 1h5.591a2.356 2.356 0 0 1 2.353 2.353v5.591a2.356 2.356 0 0 1-2.353 2.353ZM3.353 1.93c-.786 0-1.424.638-1.424 1.424v5.591c0 .787.638 1.424 1.424 1.424h5.591c.787 0 1.424-.637 1.424-1.424V3.353c0-.786-.637-1.424-1.424-1.424H3.353ZM8.944 23H3.353A2.356 2.356 0 0 1 1 20.647v-5.591a2.356 2.356 0 0 1 2.353-2.353h5.591a2.356 2.356 0 0 1 2.353 2.353v5.591A2.356 2.356 0 0 1 8.944 23Zm-5.591-9.368c-.786 0-1.424.637-1.424 1.424v5.591c0 .786.638 1.424 1.424 1.424h5.591c.787 0 1.424-.638 1.424-1.424v-5.591c0-.787-.637-1.424-1.424-1.424H3.353ZM20.647 23h-5.591a2.356 2.356 0 0 1-2.353-2.353v-5.591a2.356 2.356 0 0 1 2.353-2.353h5.591A2.356 2.356 0 0 1 23 15.056v5.591A2.356 2.356 0 0 1 20.647 23Zm-5.591-9.368c-.787 0-1.424.637-1.424 1.424v5.591c0 .786.637 1.424 1.424 1.424h5.591c.786 0 1.424-.638 1.424-1.424v-5.591c0-.787-.638-1.424-1.424-1.424h-5.591ZM20.647 1h-5.591a2.356 2.356 0 0 0-2.353 2.353v5.591a2.356 2.356 0 0 0 2.353 2.353h5.591A2.356 2.356 0 0 0 23 8.944V3.353A2.356 2.356 0 0 0 20.647 1Zm.483 3.625L17.356 8.4a.467.467 0 0 1-.656 0l-2.044-2.043a.462.462 0 0 1 0-.656.462.462 0 0 1 .657 0l1.715 1.715 3.446-3.446a.462.462 0 0 1 .656 0 .461.461 0 0 1 0 .656Z" fill="#42474D"/></svg>