<svg xmlns="http://www.w3.org/2000/svg" viewBox="0 0 512 512"><path d="M512 256l-38.797-58.203 4.5-69.797L415 97l-31-62.703-69.797 4.5L256 0l-58.188 38.797-69.812-4.5L97 97l-62.688 31 4.5 69.805L0 256l38.812 58.188-4.5 69.812L97 415l31 62.703 69.812-4.5L256 512l58.203-38.797 69.797 4.5L415.016 415l62.688-31-4.5-69.812L512 256zM405.562 395.875l-6.469 3.203-3.203 6.469-24.702 49.953-55.609-3.594-7.203-.469-6 4.016L256 486.359l-46.359-30.906-6-4.016-7.203.469-55.609 3.594-24.703-49.953-3.188-6.469-6.469-3.203-49.953-24.688 3.578-55.625.469-7.188-4-6L25.641 256l30.922-46.367 4-6-.469-7.203-3.578-55.609 49.953-24.703 6.469-3.195 3.188-6.469L140.828 56.5l55.609 3.586 7.203.469 6-4.008L256 25.641l46.375 30.906 6 4.008 7.203-.469 55.609-3.586 24.703 49.953 3.188 6.469 6.469 3.195L455.5 140.82l-3.578 55.609-.469 7.195 4 6.008L486.375 256l-30.922 46.375-4 6 .469 7.188 3.578 55.625-49.938 24.687z"/><path d="M164.297 214.531v61.813l-37.969-61.813h-20.609v92.281h19.578v-61.96l38.234 61.96h20.219v-92.281zm64.672 75.297v-22.68h45.093v-15.945h-45.093v-20.086h49.125v-16.586h-69.219v92.281H279v-16.984zm165.359-75.297l-15.281 63.5-15.953-63.5h-19.047l-16.203 62.719-14.766-62.719h-20.359l24.5 92.281h20.609l15.547-62.992 15.813 62.992h20.218l24.891-92.281z"/></svg>