<svg width="37" height="25" fill="none" xmlns="http://www.w3.org/2000/svg"><path d="M6.2 25c-2.133 0-3.7-.533-4.7-1.6C.567 22.267.1 20.833.1 19.1v-1.4c0-2.733.8-5.733 2.4-9C4.1 5.367 6.333 2.467 9.2 0h6.7c-2 2.133-3.633 4.167-4.9 6.1-1.2 1.867-2.067 3.967-2.6 6.3 1.333.333 2.3.967 2.9 1.9.667.933 1 2.067 1 3.4v1.4c0 1.733-.5 3.167-1.5 4.3-.933 1.067-2.467 1.6-4.6 1.6zm20.2 0c-2.133 0-3.7-.533-4.7-1.6-.933-1.133-1.4-2.567-1.4-4.3v-1.4c0-2.733.8-5.733 2.4-9 1.6-3.333 3.833-6.233 6.7-8.7h6.7c-2 2.133-3.633 4.167-4.9 6.1-1.2 1.867-2.067 3.967-2.6 6.3 1.333.333 2.3.967 2.9 1.9.667.933 1 2.067 1 3.4v1.4c0 1.733-.5 3.167-1.5 4.3-.933 1.067-2.467 1.6-4.6 1.6z" fill="#1995C9"/></svg>