<svg version="1.1" id="Слой_1" xmlns="http://www.w3.org/2000/svg" x="0" y="0" viewBox="0 0 71.75 75.875" xml:space="preserve"><style>.st0{fill:#1995c9}</style><path class="st0" d="M42.058 73.75h21.8a1.21 1.21 0 0 0 1.211-1.211V45.894a1.001 1.001 0 0 0-.022-.109 30.713 30.713 0 0 0-5.157-16.504l-2.088-3.128V2.293a1.21 1.21 0 0 0-1.211-1.211h-7.267a1.21 1.21 0 0 0-1.211 1.211v23.859l-2.088 3.132a30.72 30.72 0 0 0-5.157 16.5 1.314 1.314 0 0 0-.022.109v26.645c.001.67.543 1.212 1.212 1.212zm1.211-2.422v-4.845h19.378v4.845H43.269zm0-24.223h7.977l5.701 5.701c.473.473 1.24.473 1.713 0l3.988-3.988v15.243H43.269V47.105zm11.402 0h6.264l-3.132 3.132-3.132-3.132zm-4.135-31.489h4.845v10.399l-2.422 2.422-2.422-2.422V15.616zm4.844-2.423h-4.845v-2.422h4.845v2.422zm0-9.689v4.845h-4.845V3.504h4.845zm-7.339 27.121l1.472-2.208 2.589 2.588c.473.473 1.24.473 1.713 0l2.589-2.588 1.472 2.208a28.282 28.282 0 0 1 4.709 14.058H43.327a28.278 28.278 0 0 1 4.714-14.058z"/><path class="st0" d="M45.691 59.217h2.422v2.422h-2.422zM3.332 37.832l.782 9.395a6.522 6.522 0 0 0 5.243 5.813v18.288H3.301v2.422h14.534v-2.422h-6.056V53.04a6.523 6.523 0 0 0 5.243-5.813l.832-9.983 1.192-14.26a1.21 1.21 0 0 0-1.211-1.311H3.301a1.21 1.21 0 0 0-1.211 1.312l1.241 14.846v.001zm7.236 12.907a4.078 4.078 0 0 1-4.039-3.717l-.606-7.336c.463.104.937.155 1.412.153a5.941 5.941 0 0 0 3.959-1.453 3.595 3.595 0 0 1 2.505-.969 3.278 3.278 0 0 1 1.582.351l-.771 9.254a4.078 4.078 0 0 1-4.042 3.717zm5.951-26.645l-.931 11.175a5.847 5.847 0 0 0-1.79-.275 5.946 5.946 0 0 0-3.956 1.453 3.597 3.597 0 0 1-2.503.969 3.192 3.192 0 0 1-1.64-.388l-1.08-12.935h11.9zm21.586-2.031a1.212 1.212 0 0 0-.891-.391H22.68a1.21 1.21 0 0 0-1.211 1.312l1.238 14.846.782 9.391a6.522 6.522 0 0 0 5.247 5.819v18.288H22.68v2.422h14.534v-2.422h-6.056V53.04a6.523 6.523 0 0 0 5.243-5.813l.832-9.983 1.192-14.26a1.217 1.217 0 0 0-.32-.921zm-2.208 2.031l-.931 11.175a5.847 5.847 0 0 0-1.79-.275 5.946 5.946 0 0 0-3.956 1.453 3.597 3.597 0 0 1-2.503.969 3.192 3.192 0 0 1-1.64-.388l-1.08-12.935h11.9zm-5.951 26.645a4.078 4.078 0 0 1-4.039-3.717l-.606-7.336c.463.104.937.155 1.412.153a5.941 5.941 0 0 0 3.959-1.453 3.595 3.595 0 0 1 2.505-.969 3.278 3.278 0 0 1 1.582.351l-.771 9.254a4.078 4.078 0 0 1-4.042 3.717zM10.568 4.715h2.422v2.422h-2.422zm3.634 9.69h2.422v2.422h-2.422zm-9.689-2.423h2.422v2.422H4.513zm25.433-4.844h2.422V9.56h-2.422zm3.634 9.689h2.422v2.422H33.58zm-9.689-2.422h2.422v2.422h-2.422z"/><path class="st0" d="M4.513 55.583h2.422v8.478H4.513zm0 10.9h2.422v2.422H4.513zm62.979-15.909v14.698h2.422V50.574c0-4.964-.669-9.906-1.989-14.691l-2.334.644a52.918 52.918 0 0 1 1.901 14.047zm0 17.12h2.422v2.422h-2.422z"/></svg>