<svg width="88" height="88" fill="none" xmlns="http://www.w3.org/2000/svg"><path fill-rule="evenodd" clip-rule="evenodd" d="M79.484 34.065V0H0v70.968h39.742V88H88V34.065h-8.516zM76.645 2.839v8.516H2.84V2.839h73.806zM2.84 68.129V14.193h73.806v19.872H49.09l-9.348 9.347v7.685H12.774a7.105 7.105 0 0 0-7.097 7.096 7.105 7.105 0 0 0 7.097 7.097h26.968v2.839H2.839zm19.87-5.677v-2.84h25.55v2.84H22.71zm-9.935 0a4.263 4.263 0 0 1-4.258-4.258 4.263 4.263 0 0 1 4.258-4.259h1.42v8.517h-1.42zm4.258-8.517h2.839v8.517h-2.839v-8.517zm34.065.63l8.108 3.04a.63.63 0 0 1-.001 1.178l-8.107 3.04v-7.259zm-2.839 2.21H22.71v-2.84h25.548v2.84zm0-17.865v3.67h-3.67l3.67-3.67zm36.903 46.251h-42.58v-19.87h7.353l10.267-3.85a3.482 3.482 0 0 0 2.25-3.248 3.483 3.483 0 0 0-2.25-3.247l-10.267-3.85h-7.353V45.42h8.516v-8.516H85.16v48.258zM8.516 5.677H5.677v2.84h2.84v-2.84zm5.678 0h-2.84v2.84h2.84v-2.84zm2.838 0h2.839v2.84h-2.839v-2.84zm36.903 34.065h28.388v2.839H53.936v-2.84zm28.388 5.677H53.936v2.84h28.387v-2.84zM65.29 51.097h17.033v2.838H65.29v-2.838zm17.033 5.677H65.29v2.839h17.033v-2.839zM65.29 62.452h17.033v2.838H65.29v-2.838zm17.033 5.677H45.419v2.839h36.904v-2.839zm-36.904 5.677h36.904v2.84H45.419v-2.84zm36.904 5.678h-2.84v2.839h2.84v-2.84zm-36.904 0h31.226v2.839H45.42v-2.84zm-8.516-62.452H5.677v14.194h31.226V17.032zm-2.838 11.355H8.516v-8.516h25.549v8.516zM5.677 34.065h31.226v14.193H5.677V34.064zm2.84 11.354h25.548v-8.516H8.516v8.516z" fill="#1995C9"/></svg>