<svg width="99" height="124" fill="none" xmlns="http://www.w3.org/2000/svg"><path d="M24.75 43.4c5.119 0 9.281-4.17 9.281-9.3 0-5.129-4.162-9.3-9.281-9.3-5.119 0-9.281 4.171-9.281 9.3 0 5.13 4.162 9.3 9.281 9.3zm0-15.5c3.412 0 6.188 2.781 6.188 6.2 0 3.42-2.776 6.2-6.188 6.2s-6.188-2.78-6.188-6.2c0-3.419 2.776-6.2 6.188-6.2zm49.5 15.5c5.119 0 9.281-4.17 9.281-9.3 0-5.129-4.162-9.3-9.281-9.3-5.119 0-9.281 4.171-9.281 9.3 0 5.13 4.162 9.3 9.281 9.3zm0-15.5c3.412 0 6.188 2.781 6.188 6.2 0 3.42-2.776 6.2-6.188 6.2s-6.188-2.78-6.188-6.2c0-3.419 2.776-6.2 6.188-6.2zm15.469 18.6v20.15a4.651 4.651 0 0 1-4.64 4.65V54.25c0-4.273-3.47-7.75-7.735-7.75h-7.735c-.853 0-1.546.694-1.546 1.55v9.3H55.687c-.853 0-1.546.694-1.546 1.55v4.65h-9.282V58.9c0-.856-.693-1.55-1.547-1.55H30.938v-9.3a1.55 1.55 0 0 0-1.547-1.55h-7.735c-4.264 0-7.734 3.477-7.734 7.75V71.3a4.651 4.651 0 0 1-4.64-4.65V46.5H6.186v20.15c0 3.17 1.914 5.893 4.641 7.093V93h3.094V74.4H29.39v17.05c0 .856.693 1.55 1.547 1.55h7.735V66.65h21.656V93h7.734c.854 0 1.547-.694 1.547-1.55V74.4h15.469V93h3.094V73.743c2.727-1.2 4.64-3.923 4.64-7.093V46.5H89.72zM37.125 63.55H24.75v-9.3h-3.094V65.1c0 .856.693 1.55 1.547 1.55h10.828a1.55 1.55 0 0 1 1.547 1.55v21.7h-3.094V72.85c0-.856-.693-1.55-1.547-1.55h-13.92V54.25a4.651 4.651 0 0 1 4.64-4.65h6.188v9.3c0 .856.693 1.55 1.547 1.55h12.375v3.1h-4.641zm30.938 7.75c-.854 0-1.547.694-1.547 1.55V89.9h-3.094V68.2c0-.854.694-1.55 1.547-1.55h10.828a1.55 1.55 0 0 0 1.547-1.55V54.25H74.25v9.3H57.235v-3.1h12.374c.854 0 1.547-.694 1.547-1.55v-9.3h6.188a4.651 4.651 0 0 1 4.64 4.65V71.3H68.063zM35.578 21.7v4.65a1.55 1.55 0 0 0 1.547 1.55c.478 0 .939-.223 1.237-.62l4.177-5.58h11.602a4.65 4.65 0 0 0 4.64-4.65v-6.2a4.65 4.65 0 0 0-4.64-4.65H35.578a4.651 4.651 0 0 0-4.64 4.65v6.2a4.651 4.651 0 0 0 4.64 4.65zm-1.547-10.85c0-.854.695-1.55 1.547-1.55h18.563c.852 0 1.547.696 1.547 1.55v6.2c0 .854-.695 1.55-1.547 1.55H41.766c-.488 0-.945.23-1.238.62l-1.856 2.48v-1.55a1.55 1.55 0 0 0-1.547-1.55h-1.547a1.551 1.551 0 0 1-1.547-1.55v-6.2z" fill="#1995C9"/><path d="M52.594 12.4H37.125v3.1h15.469v-3.1zm4.64 32.55h-9.28v3.1h9.28v-3.1z" fill="#1995C9"/><path d="M46.406 38.75a4.651 4.651 0 0 0-4.64 4.65v6.2a4.651 4.651 0 0 0 4.64 4.65h12.375a4.651 4.651 0 0 0 4.64-4.65v-1.08l2.835-4.26a1.55 1.55 0 0 0-1.287-2.41h-1.812a4.65 4.65 0 0 0-4.376-3.1H46.406zm13.922 4.65c0 .856.693 1.55 1.547 1.55h.203l-1.49 2.24a1.56 1.56 0 0 0-.26.86v1.55a1.55 1.55 0 0 1-1.547 1.55H46.406a1.55 1.55 0 0 1-1.547-1.55v-6.2c0-.854.695-1.55 1.547-1.55h12.375a1.55 1.55 0 0 1 1.547 1.55zM44.86 31h-3.094v3.1h3.093V31zm6.187 0h-3.094v3.1h3.094V31zm6.187 0h-3.093v3.1h3.093V31z" fill="#1995C9"/></svg>