<svg width="16" height="19" xmlns="http://www.w3.org/2000/svg"><path fill-rule="evenodd" clip-rule="evenodd" d="M14.743 17.471c-.352.406-1.055.912-1.693 1.11-.639.2-1.213.092-1.729-.072-.515-.164-.97-.385-2.108-1.357-1.138-.972-2.96-2.694-4.43-4.797C3.31 10.252 2.186 7.768 1.54 6.218.895 4.668.726 4.052.734 3.454a2.587 2.587 0 0 1 .673-1.728C1.886 1.177 2.658.66 3.316.601c.658-.057 1.201.346 1.672.862.471.516.87 1.143 1.092 1.75.223.607.27 1.192.06 1.592-.209.401-.674.617-.985.75-.311.134-.467.185-.58.251-.114.066-.185.148-.166.348.019.2.127.518.423 1.334.295.815.778 2.128 1.542 3.32.764 1.193 1.81 2.264 2.452 2.771.643.508.883.45 1.163.198.281-.252.602-.7.937-.902.334-.202.681-.158 1.004-.046.323.112.62.292.964.57.344.278.735.653 1.089 1.085.354.433.673.923.854 1.26.18.339.224.525.244.77.019.246.015.552-.338.957z" fill="#fff"/></svg>