<svg viewBox="0 0 33 28" fill="none" xmlns="http://www.w3.org/2000/svg"><path d="M2.635 12.748h.723v3.173h-.723A.634.634 0 012 15.286v-1.904a.634.634 0 01.635-.634zm27.73 0h-.723v3.173h.836a.627.627 0 00.522-.619v-1.92a.634.634 0 00-.635-.634zm-8.531 0h-10.66v3.165h10.66v-3.165zm6.571-3.246h-1.759a.602.602 0 00-.321.089l-.12.096v9.262a.634.634 0 00.441.185h1.76a.65.65 0 00.329-.088.634.634 0 00.305-.546v-8.387a.634.634 0 00-.635-.61zM24.967 8h-1.904a.643.643 0 00-.554.321.633.633 0 00-.072.306v11.407a.626.626 0 00.626.634h1.904a.635.635 0 00.635-.634v-11.4A.635.635 0 0024.967 8zM4.595 9.502a.602.602 0 00-.37.12l-.088.073a.643.643 0 00-.177.442v8.395a.522.522 0 00.04.216.634.634 0 00.595.418h1.759a.633.633 0 00.466-.217V9.687a.635.635 0 00-.442-.185H4.595zM9.937 8H8.033a.627.627 0 00-.546.313.602.602 0 00-.089.322v11.399a.635.635 0 00.635.634h1.904a.626.626 0 00.627-.634v-11.4A.628.628 0 009.936 8z" fill="#42474D"/></svg>