<svg viewBox="0 0 33 28" fill="none" xmlns="http://www.w3.org/2000/svg"><g clip-path="url(#clip0_451_1436)" fill="#42474D"><path d="M16.2 14.5a2.1 2.1 0 114.2 0 2.1 2.1 0 01-4.2 0z"/><path fill-rule="evenodd" clip-rule="evenodd" d="M7.1 4A2.1 2.1 0 005 6.1v15.4a2.1 2.1 0 002.1 2.1h.7V25h1.4v-1.4h12.6V25h1.4v-1.4h.7a2.1 2.1 0 002.1-2.1V6.1A2.1 2.1 0 0023.9 4H7.1zm.7 4.2v4.2h1.4V8.2H7.8zM18.3 11a3.5 3.5 0 100 7 3.5 3.5 0 000-7zM7.8 19.4v-4.2h1.4v4.2H7.8z"/></g><defs><clipPath id="clip0_451_1436"><path fill="#fff" transform="translate(5 4)" d="M0 0h21v21H0z"/></clipPath></defs></svg>