<svg width="67" height="63" fill="none" xmlns="http://www.w3.org/2000/svg"><path d="M63.125 36.438a3.292 3.292 0 00-3.292 3.291v13.167a3.292 3.292 0 01-3.292 3.291H10.458a3.292 3.292 0 01-3.292-3.291V21.329l19.355 19.355a9.875 9.875 0 0013.957 0L52.295 28.9a3.305 3.305 0 00-4.674-4.675L35.837 36.042a3.292 3.292 0 01-4.674 0L11.808 16.687h38.15a3.292 3.292 0 100-6.583h-39.5A9.875 9.875 0 00.583 19.98v32.917a9.875 9.875 0 009.875 9.875h46.083a9.875 9.875 0 009.875-9.875V39.729a3.292 3.292 0 00-3.291-3.291zm0-29.626a3.456 3.456 0 002.337-.954l.395-.527c.13-.168.23-.357.296-.56.118-.182.207-.382.263-.592a4.251 4.251 0 000-.658 3.456 3.456 0 00-.954-2.337 3.292 3.292 0 00-4.674 0 3.292 3.292 0 000 4.674 3.46 3.46 0 002.337.955zm0 3.292a3.292 3.292 0 00-3.292 3.292v13.166a3.292 3.292 0 106.583 0V13.396a3.292 3.292 0 00-3.291-3.292z" fill="#42474D" fill-opacity=".5"/></svg>