<svg viewBox="0 0 33 28" fill="none" xmlns="http://www.w3.org/2000/svg"><path d="M29.449 5.278a1.545 1.545 0 00-1.208.582h-2.786a5.066 5.066 0 00-1.748-1.372A5.035 5.035 0 0021.544 4H6.59a3.101 3.101 0 00-1.87.617 3.17 3.17 0 00-.596.58l-.023.03-.01.014-.004.004c-.132.173-.245.36-.34.556l-.013.029a1.55 1.55 0 00-1.623-.488 1.566 1.566 0 00-.365 2.833A1.544 1.544 0 003.44 8.12v6.2c0 .276.11.54.303.734.193.195.455.304.729.304H6.39v6.851c0 .262.104.514.288.699a.98.98 0 00.694.29H25.63a.98.98 0 00.694-.29.995.995 0 00.288-.699V9.103a5.14 5.14 0 00-.162-1.283h1.79a1.552 1.552 0 001.387.571 1.546 1.546 0 001.22-.877 1.57 1.57 0 00-.65-2.041 1.544 1.544 0 00-.75-.195zm-23.617.373l.005.003a1.6 1.6 0 01.041.032H4.271c.032-.05.065-.1.1-.148l.071-.023.038-.012.08-.024.024-.006a2.726 2.726 0 01.273-.062c.343-.052.694.034.975.24zM2.553 7.997a1.145 1.145 0 01-.984-.557 1.163 1.163 0 01.356-1.57 1.145 1.145 0 011.571.307.201.201 0 00.165.087h2.626c.059.133.093.275.102.42l.002.068v.665H3.66a.2.2 0 00-.165.086 1.154 1.154 0 01-.943.494zm1.919 6.957a.637.637 0 01-.63-.634V7.993H6.39v6.961H4.47zm24.977-6.957a1.146 1.146 0 01-.943-.494l-.06-.086h-2.107a5.243 5.243 0 00-.55-1.153h2.657l.06-.086a1.152 1.152 0 011.017-.493 1.145 1.145 0 01.946.62 1.163 1.163 0 01-.456 1.544 1.144 1.144 0 01-.564.148z" fill="#42474D"/><path d="M25.745 17.279H7.298c-.116 0-.21.13-.21.293v3.25c0 .16.094.292.21.292h18.447c.116 0 .21-.13.21-.293v-3.25c0-.161-.094-.292-.21-.292zM7.088 15.707c0 .162.094.293.21.293h18.447c.116 0 .21-.13.21-.293 0-.162-.094-.293-.21-.293H7.298c-.116 0-.21.131-.21.293z" fill="#E2F0FB"/></svg>