<svg width="371" height="912" fill="none" xmlns="http://www.w3.org/2000/svg"><path d="M456.253 90.75c2.252 0 4.521.086 6.795.28l30.369 1.541c8.289 1.009 13.818 1.971 13.887 1.977l.647.12.349.567c.046.098 5.81 9.665 10.799 19.015a464.154 464.154 0 0 1 6.726 12.947c.012.034 1.759 3.506 2.55 5.471l15.697 4.062c1.759.481 3.603.934 5.528 1.409 3.466.848 7.373 1.81 11.315 3.128l28.197 10.324c2.08.802 4.016 1.758 5.895 2.692 1.043.516 2.057 1.026 3.088 1.496l15.652 7.539c5.259 2.412 8.771 4.262 11.045 5.82l3.907 2.384-1.489 2.48-3.982-2.435c-2.217-1.501-5.586-3.271-10.707-5.625l-15.663-7.54c-1.02-.469-2.057-.991-3.134-1.518-1.81-.899-3.695-1.833-5.614-2.572l-28.141-10.306c-3.781-1.266-7.476-2.166-11.045-3.042-1.959-.487-3.838-.951-5.597-1.433l-17.445-4.508v-.837a75.59 75.59 0 0 0-2.641-5.666c-1.758-3.511-4.142-8.192-6.679-12.89-4.274-7.98-9.098-16.126-10.404-18.32-1.667-.281-6.491-1.043-12.982-1.834l-30.311-1.541c-5.483-.475-10.966-.235-16.081.103l-27.471 1.398c-.55.515-1.564 1.57-2.875 3.082l-7.104 8.181-10.106 12.197-12.953 1.965c-4.589.859-10.18 2.331-16.093 3.89-3.437.911-6.995 1.85-10.564 2.727-7.585 1.592-14.723 4.256-21.002 6.588a254.433 254.433 0 0 1-5.081 1.873l-12.289 4.486-4.153-1.593c-1.61-.624-3.627-1.398-5.529-1.936l-8.828-2.624L289.8 140.5c-1.352.716-2.887 1.426-4.486 2.159-2.944 1.364-5.986 2.779-8.971 4.709l-15.027 9.127c-1.759 1.122-3.592 2.217-5.414 3.294-3.323 1.97-6.456 3.838-9.298 5.969l-24.605 18.401-4.589-.217-8.617.074-12.351.35-14.546 13.291-13.898 15.244c-1.364 1.57-2.819 3.145-4.297 4.744-3.792 4.148-7.745 8.433-11.022 13.194l-3.111 4.147c-8.817 11.682-17.129 22.727-22.314 32.214l-10.272 16.946c.115.768.401 2.423.974 4.658l2.927 11.727c2.143 8.289 4.503 16.327 4.526 16.407l.166.533-5.156 10.713c-1.598 3.942-3.414 8.943-5.328 14.225-1.065 2.945-2.159 5.975-3.288 9-.527 1.507-1.106 3.025-1.667 4.543-1.031 2.744-2.005 5.328-2.761 7.9l-5.552 21.604 7.196 13.251 9.017 13.669-1.461 9.596c-.189 1.759-.538 3.77-.905 5.901-.716 4.233-1.535 9.017-1.524 13.835l-1.489 29.338-2.888-.138 1.49-29.263c-.023-4.984.819-9.905 1.552-14.248.367-2.079.694-4.033.894-5.809l1.312-8.553-8.479-12.833-7.797-14.362 5.849-22.755c.82-2.727 1.845-5.489 2.842-8.147a201.48 201.48 0 0 0 1.644-4.509c1.129-3.047 2.24-6.078 3.3-9.017 1.936-5.311 3.747-10.329 5.391-14.402l4.698-9.791c-.55-1.942-2.561-8.863-4.389-15.984l-2.933-11.727c-.836-3.334-1.083-5.431-1.106-5.522l-.057-.487 10.765-17.754c5.236-9.619 13.629-20.745 22.514-32.518l3.077-4.084c3.357-4.887 7.373-9.241 11.234-13.463a280.824 280.824 0 0 0 4.262-4.715l14.008-15.359 15.445-14.128 22.176-.441 3.627.178 23.775-17.788c2.967-2.217 6.313-4.211 9.555-6.136 1.794-1.071 3.604-2.131 5.38-3.26l15.004-9.12c3.122-2.017 6.399-3.541 9.298-4.881 1.552-.716 3.03-1.404 4.388-2.12l13.996-6.743 9.882 2.939c2.017.567 4.096 1.369 5.764 2.017l3.133 1.203 11.28-4.119a304.448 304.448 0 0 0 5.048-1.857c6.399-2.377 13.617-5.07 21.368-6.708 3.512-.854 7.047-1.793 10.473-2.693 5.964-1.569 11.612-3.059 16.35-3.941l11.905-1.811 9.441-11.377 7.115-8.187c2.005-2.326 3.38-3.626 3.449-3.683l.378-.356 28.536-1.455c3.105-.223 6.348-.39 9.647-.39z" fill="url(#paint0_linear)"/><path d="M112.656 470.872l1.735 34.288c.47 3.804 1.106 7.854 1.748 11.973.401 2.504.807 5.03 1.163 7.562.435 2.366.773 4.812 1.094 7.23.596 4.297 1.129 8.358 2.257 12.157l7.39 28.753 1.799 4.944-.435.619c-.057.08-6.021 8.593-11.681 17.645-4.744 7.476-9.287 15.359-10.931 18.252l1.065 2.951c.562 1.357 1.421 3.116 2.418 5.161a264.674 264.674 0 0 1 1.822 3.799c1.266 2.497 2.595 5.339 4.027 8.375 2.784 5.849 5.93 12.484 9.424 18.86l15.789 25.992c1.318 2.372 2.761 4.216 4.016 5.838.67.847 1.255 1.609 1.724 2.314l1.902 2.555 14.672 3.185 15.388 2.899.344.556c0 .006.63.985 1.993 2.412l6.165 6.76c1.793 1.89 3.769 4.108 5.883 6.474 3.827 4.308 8.181 9.177 12.867 13.611l20.412 18.556c1.759 1.73 3.466 2.962 4.979 4.056a35.994 35.994 0 0 1 2.091 1.553l3.157 2.354 1.97 10.135 1.937 9.183 2.853 2.126a74.33 74.33 0 0 1 1.678 1.254c1.856 1.415 4.177 3.169 7.047 4.778 2.641 1.582 5.528 3.346 8.599 5.225 5.964 3.644 12.724 7.774 19.541 11.721l29.493 14.202c2.583 1.209 4.955 2.04 7.058 2.779 1.1.389 2.096.733 2.921 1.077l4.331 1.57 6.491 11.727 6.388 10.936c.693.275 2.269.86 4.663 1.558l34.305 8.829c4.801.956 9.871 1.713 15.216 2.509 2.71.407 5.425.808 8.135 1.243 12.775 2.475 25.969 3.082 36.567 3.564 2.687.12 5.237.234 7.631.372 9.888.773 17.044.412 19.525.24a594.085 594.085 0 0 0 12.374-11.532 596.625 596.625 0 0 0 11.572-11.417v-.831l1.45-.017c1.117-.023 5.224-.172 10.965-1.226l24.674-3.764c3.804-.424 7.465-1.381 11-2.309l23.517-6.05c1.312-1.993 4.698-7.338 7.665-13.153l8.725-16.918.716 1.914c7.219-2.349 48.112-20.876 50.799-23.792l.905.83 1.564-.836-.126 1.696c-1.776 2.578-45.236 22.915-53.113 25.041l-6.903 13.371c-3.065 6.05-6.611 11.595-7.889 13.543v.693l-25.133 6.462c-3.638.957-7.407 1.937-11.354 2.372l-24.572 3.753c-5.213.956-9.177 1.191-10.844 1.249-1.433 1.455-6.4 6.485-11.624 11.48-6.119 5.884-12.736 11.859-12.805 11.922l-.979.882-.516-.475c-2.744.189-9.968.515-19.805-.246a685.428 685.428 0 0 0-7.562-.373c-10.696-.481-23.998-1.083-36.922-3.592-2.664-.43-5.38-.831-8.067-1.237-5.391-.797-10.484-1.553-15.439-2.55l-34.431-8.857c-5.379-1.564-6.199-2.028-6.33-2.761l-6.468-11.085-5.981-10.811-3.346-1.22a59.928 59.928 0 0 0-2.853-1.048c-2.057-.722-4.612-1.633-7.339-2.899L279.2 799.534c-6.937-4.016-13.709-8.158-19.696-11.814-3.076-1.873-5.94-3.632-8.536-5.19-3.019-1.69-5.413-3.512-7.35-4.978-.601-.453-1.14-.865-1.644-1.226l-3.747-2.802-3.93-19.329-2.314-1.736c-.596-.487-1.255-.957-1.982-1.478-1.524-1.094-3.426-2.452-5.294-4.308l-20.389-18.522c-4.801-4.543-9.189-9.464-13.056-13.818-2.08-2.337-4.039-4.52-5.849-6.422l-6.153-6.76c-.951-.98-1.587-1.816-1.971-2.32l-14.208-2.687-15.766-3.42-2.595-3.483c-.481-.711-1.031-1.415-1.644-2.2-1.255-1.633-2.836-3.655-4.228-6.17l-15.789-25.992c-3.569-6.497-6.743-13.182-9.533-19.066a485.536 485.536 0 0 0-4.016-8.353c-.658-1.375-1.254-2.629-1.833-3.798-1.02-2.108-1.902-3.924-2.498-5.374l-1.564-4.268.333-.59c1.415-2.498 6.267-10.954 11.337-18.945 4.824-7.694 9.859-15.016 11.338-17.147l-1.341-3.666-7.396-28.828c-1.174-3.965-1.77-8.324-2.337-12.541-.327-2.377-.648-4.778-1.089-7.155-.367-2.567-.768-5.082-1.163-7.58-.659-4.147-1.289-8.238-1.77-12.179l-1.747-34.379 2.876-.138z" fill="url(#paint1_linear)"/><path d="M455.714 139.747c35.066.854 67.211 5.615 95.747 14.156 4.967 1.416 9.859 3.249 14.568 5.03 2.607.986 5.214 1.96 7.832 2.876l11.062 4.068 10.857 5.225c2.509 1.277 5.001 2.446 7.476 3.597 4.474 2.097 9.097 4.268 13.474 6.875l19.467 11.825c28.633 19.489 50.34 38.211 66.518 57.346 6.892 6.932 12.701 14.82 18.316 22.446 2.263 3.082 4.508 6.13 6.811 9.097 2.75 3.478 4.944 7.219 7.058 10.828 1.117 1.896 2.217 3.787 3.392 5.608 1.22 2.057 2.395 3.948 3.546 5.827 2.125 3.443 4.228 6.834 6.055 10.323 26.078 49.836 33.612 91.348 35.783 111.657l1.49 9.658c.223 2.298.315 4.297.401 6.199l1.443 28.358-8.266.424-1.433-28.421c-.091-1.776-.154-3.626-.349-5.54l-1.478-9.619c-2.126-19.919-9.464-60.262-34.912-108.877-1.736-3.312-3.735-6.549-5.775-9.82a356.285 356.285 0 0 1-3.535-5.832c-1.151-1.776-2.325-3.758-3.5-5.769-2.057-3.523-4.016-6.846-6.422-9.905-2.372-3.048-4.663-6.159-6.984-9.304-5.425-7.384-11.045-15.015-17.736-21.752-15.921-18.803-37.072-37.038-64.897-55.983l-19.267-11.687c-3.981-2.383-8.226-4.371-12.712-6.474-2.561-1.197-5.127-2.406-7.642-3.684l-10.415-5.03-10.628-3.89c-2.612-.905-5.27-1.913-7.946-2.921-4.566-1.719-9.286-3.489-13.984-4.835-27.871-8.336-59.294-12.994-93.421-13.83-33.95.836-65.355 5.494-93.175 13.818-4.766 1.352-9.475 3.128-14.041 4.847-2.687 1.008-5.351 2.016-8.021 2.944l-10.919 4.016-10.117 4.91c-2.464 1.243-5.013 2.452-7.563 3.649-4.485 2.103-8.736 4.091-12.769 6.491l-19.404 11.79c-27.636 18.831-48.787 37.066-64.496 55.622-6.915 6.984-12.535 14.615-17.972 21.999-2.314 3.145-4.611 6.256-6.949 9.275-2.44 3.082-4.377 6.405-6.456 9.928-1.163 2.011-2.338 3.993-3.581 5.913a340.783 340.783 0 0 1-3.46 5.683c-2.028 3.271-4.028 6.508-5.775 9.825-25.431 48.61-32.758 88.952-34.866 108.683l-1.541 10.043c-.143 1.678-.235 3.529-.315 5.304l-1.432 28.422-8.267-.424 1.455-28.358c.074-1.902.155-3.902.361-5.97l1.547-10.071c2.137-20.126 9.67-61.638 35.748-111.473 1.833-3.484 3.942-6.881 6.067-10.324 1.151-1.873 2.314-3.764 3.46-5.677 1.266-1.965 2.372-3.856 3.478-5.752 2.125-3.609 4.308-7.344 7.081-10.85 2.268-2.945 4.52-5.993 6.788-9.075 5.62-7.625 11.418-15.514 18.545-22.687 15.966-18.893 37.65-37.61 66.094-56.991l19.639-11.916c4.411-2.629 9.04-4.801 13.503-6.897 2.475-1.152 4.955-2.321 7.407-3.564l10.553-5.104 11.355-4.205c2.698-.934 5.293-1.908 7.9-2.893 4.72-1.782 9.613-3.615 14.637-5.047 28.484-8.514 60.635-13.274 95.507-14.134z" fill="url(#paint2_linear)" opacity=".35"/><path opacity=".35" d="M455.807 115.447l.596.023c25.333.888 58.251 3.014 88.213 11.607 2.017.567 4.205 1.094 6.365 1.627 4.497 1.111 9.155 2.263 13.893 3.941l18.16 6.652c8.852 2.784 17.256 6.937 24.675 10.604 2.899 1.426 5.74 2.836 8.547 4.113l7.528 3.627c2.315 1.203 4.039 2.257 5.741 3.294l28.867 18.075 21.627 16.172-19.805 26.485-27.367-19.983-20.687-12.603c-1.054-.647-2.102-1.318-3.231-1.908l-6.691-3.208c-2.796-1.266-5.953-2.83-9.189-4.417-6.657-3.288-13.549-6.691-20.687-8.96l-18.7-6.817c-3.053-1.077-6.708-1.994-10.615-2.957a259.95 259.95 0 0 1-7.431-1.907c-26.416-7.58-56.441-9.527-79.815-10.364-23.351.837-53.382 2.779-79.666 10.329-2.629.728-5.093 1.335-7.551 1.942-3.907.963-7.585 1.874-10.81 3.014l-17.834 6.531c-7.82 2.503-14.712 5.901-21.392 9.189-3.225 1.598-6.376 3.157-9.498 4.577l-6.892 3.312c-.596.338-1.679 1.014-2.733 1.673l-24.256 14.78-23.763 17.783-19.817-26.485 25.66-19.095 24.783-15.118c1.725-1.06 3.46-2.12 5.305-3.082l7.711-3.724c3.123-1.427 5.964-2.824 8.886-4.262 7.396-3.661 15.8-7.803 25.333-10.839l17.33-6.354c4.91-1.747 9.567-2.893 14.076-4.004 2.16-.533 4.331-1.066 6.491-1.662 29.807-8.559 62.737-10.684 88.082-11.578l.561-.023z" fill="url(#paint3_linear)"/><path d="M132.872 470.736l1.432 28.41c.08 1.776.166 3.626.349 5.551l1.49 9.613c2.125 19.914 9.453 60.263 34.883 108.878 1.748 3.306 3.753 6.548 5.775 9.814 1.186 1.919 2.383 3.855 3.546 5.826 1.152 1.776 2.326 3.764 3.489 5.769 2.08 3.518 4.016 6.846 6.434 9.905 2.36 3.042 4.657 6.159 6.972 9.304 5.437 7.385 11.057 15.021 17.748 21.753 15.932 18.802 37.083 37.037 64.885 55.988l19.267 11.699c3.993 2.377 8.244 4.359 12.735 6.468 2.549 1.191 5.105 2.394 7.631 3.672l10.415 5.03 10.622 3.89c2.606.905 5.27 1.913 7.957 2.916 4.566 1.718 9.275 3.494 13.973 4.835 27.882 8.341 59.294 12.987 93.444 13.829 33.926-.836 65.344-5.488 93.175-13.812 4.743-1.358 9.464-3.134 14.03-4.852 2.675-1.003 5.333-2.011 8.032-2.933l10.896-4.034 10.129-4.904c2.452-1.243 5.013-2.446 7.573-3.637 4.486-2.109 8.726-4.091 12.747-6.491l19.427-11.796c27.636-18.831 48.787-37.066 64.479-55.616 6.915-6.984 12.535-14.626 17.96-22.005 2.314-3.145 4.612-6.256 6.961-9.281 2.429-3.076 4.388-6.41 6.445-9.922 1.174-2.005 2.348-3.993 3.592-5.913a327.602 327.602 0 0 1 3.448-5.683c2.034-3.271 4.039-6.508 5.787-9.825 25.43-48.609 32.775-88.958 34.877-108.683l1.535-10.031c.155-1.69.224-3.54.316-5.316l1.432-28.41 8.267.424-1.444 28.347c-.092 1.913-.178 3.907-.378 5.975l-1.536 10.077c-2.148 20.12-9.681 61.631-35.748 111.456-1.833 3.494-3.941 6.897-6.067 10.34-1.151 1.868-2.326 3.759-3.449 5.678-1.277 1.97-2.377 3.85-3.489 5.746-2.113 3.615-4.308 7.344-7.08 10.85-2.281 2.939-4.532 5.999-6.795 9.069-5.614 7.631-11.423 15.52-18.539 22.687-15.955 18.888-37.661 37.61-66.105 56.985l-19.628 11.933c-4.411 2.624-9.028 4.784-13.503 6.892-2.475 1.158-4.967 2.326-7.407 3.564l-10.564 5.104-11.344 4.205c-2.698.934-5.304 1.914-7.911 2.893-4.709 1.776-9.602 3.609-14.626 5.042-28.478 8.519-60.623 13.285-95.489 14.144-35.078-.859-67.223-5.625-95.748-14.162-4.978-1.415-9.87-3.248-14.591-5.024-2.607-.979-5.202-1.959-7.82-2.87l-11.057-4.068-10.856-5.224c-2.526-1.278-5.013-2.447-7.488-3.604-4.463-2.102-9.097-4.268-13.474-6.869l-19.478-11.83c-28.633-19.49-50.317-38.212-66.507-57.346-6.904-6.921-12.701-14.815-18.321-22.44-2.269-3.077-4.52-6.136-6.8-9.092-2.762-3.483-4.945-7.213-7.07-10.828-1.106-1.896-2.217-3.781-3.391-5.597a428.245 428.245 0 0 0-3.547-5.826c-2.125-3.443-4.228-6.846-6.055-10.324-26.095-49.841-33.623-91.353-35.771-111.656l-1.501-9.665c-.235-2.297-.315-4.291-.39-6.204l-1.455-28.347 8.267-.441z" fill="url(#paint4_linear)"/><path opacity=".24" d="M251.399 720.232l27.378 19.982 20.676 12.604c1.054.647 2.114 1.317 3.242 1.908l6.669 3.202c2.795 1.272 5.952 2.83 9.189 4.428 6.668 3.289 13.56 6.686 20.698 8.955l18.699 6.823c3.042 1.077 6.726 1.988 10.61 2.95 2.475.607 4.944 1.22 7.431 1.908 26.427 7.579 56.458 9.539 79.815 10.369 23.374-.836 53.405-2.79 79.689-10.329 2.607-.728 5.081-1.341 7.539-1.948 3.907-.956 7.585-1.873 10.811-3.007l17.822-6.531c7.832-2.504 14.723-5.901 21.392-9.201 3.231-1.593 6.388-3.145 9.51-4.566l6.88-3.311c.613-.338 1.69-1.014 2.75-1.673l24.245-14.786 23.763-17.777 19.817 26.479-25.649 19.094-24.794 15.113c-1.713 1.054-3.461 2.126-5.305 3.088l-7.711 3.724c-3.134 1.432-5.976 2.836-8.874 4.274-7.408 3.655-15.812 7.797-25.334 10.827l-17.33 6.359c-4.921 1.736-9.578 2.888-14.076 3.999-2.171.533-4.342 1.066-6.513 1.667-29.808 8.559-62.726 10.679-88.059 11.572l-.596.023-.573-.023c-25.333-.887-58.263-3.013-88.214-11.612-2.033-.561-4.205-1.1-6.364-1.627-4.509-1.111-9.155-2.263-13.91-3.941l-18.172-6.658c-8.84-2.789-17.256-6.931-24.652-10.592-2.91-1.432-5.752-2.848-8.559-4.125l-7.528-3.621c-2.314-1.203-4.038-2.251-5.728-3.3l-28.88-18.08-21.638-16.173 19.834-26.467z" fill="url(#paint5_linear)"/><path opacity=".12" d="M456.69 67.354c31.756 0 58.521 3.552 77.954 7.298 35.885 7.975 68.133 18.596 90.877 29.934 3.804 1.862 7.35 3.552 10.576 5.087 5.471 2.624 10.014 4.795 13.451 6.623l8.204 4.989-3.225 5.294-8.055-4.898c-3.214-1.713-7.677-3.839-13.045-6.411-3.242-1.547-6.806-3.242-10.65-5.122-22.325-11.13-54.069-21.575-89.394-29.423-29.618-5.723-76.767-10.982-132.704-3.415-50.116 6.726-99.786 23.764-143.635 49.298-43.815 25.241-83.447 59.735-114.635 99.763-28.811 36.98-50.632 77.334-63.121 116.697-2.945 7.144-4.733 14.231-6.446 21.077l-1.5 5.832c-.728 3.088-1.553 6.176-2.372 9.212-1.421 5.311-2.762 10.324-3.535 15.199l-3.369 22.136c-.28 2.235-.647 4.458-1.008 6.629-.682 4.176-1.34 8.129-1.329 11.738l-1.822 36.207-6.198-.315 1.833-36.041c-.035-3.953.659-8.158 1.41-12.609.337-2.091.692-4.251.973-6.479l3.386-22.211c.819-5.225 2.206-10.393 3.672-15.875.796-2.973 1.61-5.998 2.349-9.103l1.49-5.838c1.781-7.064 3.614-14.368 6.656-21.684 12.587-39.81 34.763-80.84 64.027-118.393 31.675-40.653 71.937-75.685 116.434-101.316 44.531-25.93 94.997-43.253 145.921-50.076a425.904 425.904 0 0 1 56.83-3.804z" fill="url(#paint6_linear)"/><path opacity=".25" d="M427.699 50.03l1.243 24.766-4.194.212c-.716.058-1.97.12-3.391.172-2.103.086-4.675.183-7.643.527-2.944.493-7.006 1.095-11.538 1.77-8.627 1.278-18.395 2.716-29.463 4.773-39.009 8.473-81.225 24.789-115.461 44.679l-17.341 10.542c-3.873 2.32-7.511 4.52-10.541 6.989l-26.943 20.234-29.453 27.109-12.174 13.395c-9.647 9.911-16.585 19.3-22.165 26.834l-10.896 14.608c-1.111 1.427-1.633 2.229-1.793 2.464l-21.214-12.827s.997-1.73 3.277-4.669l10.678-14.305c5.718-7.717 13.526-18.281 24.056-29.086l16.001-17.278 28.329-25.723 27.023-20.292c4.016-3.271 8.594-6.032 13.011-8.691l17.479-10.615c36.602-21.272 81.448-38.596 123.228-47.67 11.882-2.218 22.332-3.758 30.725-4.99 4.388-.648 8.301-1.238 11.715-1.8 4.297-.503 7.499-.64 10.106-.744 1.06-.051 2.005-.08 2.796-.143l4.543-.24z" fill="url(#paint7_linear)"/><path d="M57.907 470.799l1.822 36.04c-.011 3.776.648 7.729 1.33 11.911.36 2.165.727 4.394 1.019 6.703l3.357 22.062c.773 4.886 2.114 9.893 3.535 15.204.82 3.031 1.644 6.124 2.406 9.298l1.467 5.741c1.712 6.851 3.5 13.926 6.353 20.818 12.575 39.627 34.396 79.976 63.207 116.962 31.182 40.028 70.815 74.527 114.624 99.757 43.86 25.534 93.53 42.583 143.646 49.303 55.937 7.568 103.086 2.309 132.785-3.426 35.244-7.831 66.988-18.269 89.29-29.395a1322.4 1322.4 0 0 1 10.673-5.139c5.374-2.566 9.837-4.697 13.194-6.485l7.912-4.812 3.225 5.293-8.043 4.899c-3.592 1.913-8.135 4.084-13.606 6.708a938.45 938.45 0 0 0-10.61 5.105c-22.715 11.32-54.963 21.941-90.758 29.899-30.248 5.843-78.113 11.177-134.875 3.5-50.924-6.823-101.385-24.136-145.933-50.082-44.49-25.62-84.747-60.658-116.422-101.31-29.264-37.559-51.44-78.583-64.118-118.64-2.95-7.075-4.784-14.374-6.566-21.432l-1.466-5.751c-.762-3.191-1.576-6.222-2.372-9.19-1.466-5.476-2.853-10.65-3.672-15.869l-3.363-22.148c-.304-2.297-.659-4.457-.997-6.559-.75-4.446-1.444-8.639-1.409-12.77l-1.833-35.869 6.198-.326z" fill="url(#paint8_linear)"/><path opacity=".24" d="M116.752 686.948l9.149 5.774c.115.184.665 1.02 1.69 2.349l11.023 14.752c5.586 7.551 12.523 16.946 21.884 26.559l19.043 20 22.893 20.819 26.553 19.948c3.392 2.744 7.007 4.921 10.845 7.23l17.634 10.707c34.024 19.771 76.246 36.081 115.62 44.634 10.731 1.982 20.521 3.432 29.172 4.709 4.497.659 8.536 1.261 12.054 1.839 2.371.258 4.944.355 7.058.441 1.409.058 2.664.115 3.723.195l3.85.189-1.243 24.772-4.194-.212a92.09 92.09 0 0 0-3.145-.16c-2.606-.104-5.809-.241-9.487-.665-3.993-.647-7.9-1.22-12.242-1.856-8.416-1.243-18.889-2.79-30.45-4.939-42.159-9.149-86.993-26.473-123.383-47.624l-17.771-10.776c-4.4-2.647-8.943-5.379-13.314-8.943l-27.527-20.738-34.54-32.437-9.195-10.129c-10.26-10.507-18.08-21.094-23.775-28.805l-10.81-14.46c-1.759-2.269-2.744-3.832-2.956-4.176l10.449-6.669 1.392-12.328z" fill="url(#paint9_linear)"/><path d="M456.453 164.756c24.101 0 44.41 2.693 59.156 5.54 27.132 6.021 51.595 14.076 68.948 22.71a1117.9 1117.9 0 0 0 7.969 3.832c4.182 2.005 7.665 3.655 10.272 5.059l6.21 3.775-2.137 3.535-6.119-3.724c-2.486-1.312-5.883-2.944-10.014-4.904-2.429-1.174-5.104-2.457-8.009-3.867-17.072-8.49-41.185-16.425-67.962-22.36-22.526-4.354-58.366-8.347-100.84-2.601-38.109 5.11-75.862 18.069-109.21 37.479-33.302 19.192-63.43 45.407-87.131 75.822-21.861 28.077-38.458 58.755-47.968 88.718-2.24 5.442-3.603 10.844-4.921 16.075a355.655 355.655 0 0 1-1.117 4.371c-.55 2.32-1.163 4.641-1.782 6.921-1.094 4.067-2.125 7.906-2.721 11.658-.59 4.337-1.249 8.49-1.891 12.437-1.117 7.007-2.102 13.051-2.44 18.499l-1.387 27.333-4.13-.207 1.375-27.361c.366-5.672 1.398-12.105 2.498-18.917.635-3.913 1.289-8.043 1.89-12.386.636-4.004 1.679-7.951 2.807-12.122.602-2.246 1.209-4.514 1.753-6.857.396-1.473.762-2.916 1.123-4.377 1.352-5.368 2.75-10.92 5.059-16.477 9.601-30.265 26.404-61.391 48.592-89.846 24.01-30.827 54.545-57.409 88.306-76.865 33.8-19.673 72.104-32.809 110.728-37.988a319.618 319.618 0 0 1 43.093-2.905z" fill="url(#paint10_linear)"/><path d="M177.218 329.261l14.895 7.189-9.613 20.246-7.797 21.237c-1.547 3.718-2.475 7.379-3.438 11.263l-4.709 18.327c-.871 2.945-1.231 5.374-1.535 7.522l-.871 5.735-16.356-2.464.859-5.66c.367-2.429.848-5.763 1.971-9.555l4.612-17.932c1.02-4.096 2.188-8.742 4.073-13.257l9.43-25.058 8.479-17.593z" fill="url(#paint11_linear)"/><path d="M275.257 215.826l9.905 13.24-11.48 8.582c-4.801 3.213-9.946 7.957-15.388 12.987-2.596 2.383-5.237 4.824-7.946 7.207-3.134 2.629-5.918 5.712-8.594 8.696l-12.351 13.589c-1.914 1.954-3.249 3.77-4.411 5.38a63.383 63.383 0 0 1-1.759 2.326l-2.183 2.933-13.251-9.888 2.36-3.174c.585-.705.986-1.295 1.456-1.936 1.363-1.862 3.213-4.417 5.763-7.007l12.071-13.302c2.933-3.249 6.238-6.932 10.14-10.175 2.44-2.148 4.99-4.508 7.476-6.806 5.952-5.488 11.572-10.661 17.072-14.339l11.12-8.313z" fill="url(#paint12_linear)"/><path d="M414.921 161.141l2.509 16.35-14.179 2.16c-5.516.521-11.95 2.257-18.762 4.079-3.695.991-7.476 2.005-11.291 2.904-4.194.888-8.29 2.418-12.26 3.89l-16.585 6.073c-3.123 1.026-5.563 2.211-7.511 3.174l-4.801 2.314-7.218-14.883 4.755-2.298c2.28-1.111 5.402-2.646 9.367-3.935l16.235-5.947c4.308-1.604 9.195-3.414 14.403-4.52 3.477-.825 7.092-1.793 10.621-2.744 7.522-2.011 14.615-3.919 21.048-4.509l13.669-2.108z" fill="url(#paint13_linear)"/><path opacity=".14" d="M153.358 470.842l1.386 27.355c.338 5.426 1.318 11.47 2.441 18.476.636 3.942 1.3 8.101 1.902 12.472.584 3.712 1.609 7.562 2.709 11.624.613 2.274 1.232 4.594 1.794 6.972.366 1.386.739 2.841 1.105 4.314 1.318 5.23 2.687 10.627 4.858 15.909 9.573 30.128 26.17 60.807 48.037 88.89 23.701 30.414 53.829 56.636 87.12 75.816 33.353 19.409 71.107 32.374 109.215 37.478 42.486 5.735 78.314 1.748 100.904-2.612 26.708-5.918 50.821-13.858 67.887-22.337 2.922-1.426 5.597-2.704 8.021-3.867 4.13-1.971 7.527-3.598 10.117-4.978l6.021-3.661 2.137 3.535-6.107 3.712c-2.71 1.461-6.187 3.116-10.375 5.122-2.429 1.162-5.105 2.44-7.981 3.838-17.341 8.628-41.803 16.682-68.878 22.681-22.939 4.434-59.26 8.496-102.301 2.658-38.625-5.173-76.928-18.315-110.729-37.989-33.76-19.455-64.295-46.031-88.305-76.853-22.188-28.467-38.997-59.586-48.65-90.012-2.251-5.391-3.649-10.948-5.001-16.316a451.332 451.332 0 0 0-1.094-4.32 236.375 236.375 0 0 0-1.782-6.903c-1.129-4.177-2.171-8.124-2.807-12.094-.602-4.377-1.255-8.507-1.891-12.42-1.094-6.812-2.131-13.251-2.497-18.894l-1.375-27.39 4.119-.206z" fill="url(#paint14_linear)"/><path d="M332.002 739.813l4.846 2.338c2.057.996 4.389 2.136 7.23 3.07l16.849 6.165c3.97 1.472 8.078 2.996 12.105 3.855 3.97.928 7.757 1.948 11.446 2.939 6.812 1.828 13.257 3.546 18.281 4.022l14.661 2.217-2.498 16.35-14.179-2.171c-5.941-.533-13.034-2.441-20.556-4.451-3.511-.946-7.138-1.92-10.764-2.768-5.059-1.077-9.934-2.893-14.265-4.491l-16.505-6.044c-3.649-1.186-6.783-2.715-9.063-3.838l-4.755-2.286 7.167-14.907z" fill="url(#paint15_linear)"/><path d="M221.068 651.148l2.349 3.134c.355.464.939 1.243 1.552 2.102 1.175 1.61 2.509 3.432 4.205 5.162l12.587 13.841c2.675 2.979 5.448 6.056 8.427 8.548 2.853 2.503 5.494 4.932 8.055 7.315 5.459 5.036 10.621 9.785 15.049 12.73l11.859 8.851-9.905 13.245-11.481-8.587c-5.161-3.409-10.776-8.599-16.74-14.093-2.474-2.286-5.012-4.641-7.608-6.921-3.729-3.105-7.029-6.789-9.956-10.025l-12.306-13.549c-2.326-2.372-4.194-4.916-5.551-6.783-.47-.642-.883-1.221-1.278-1.719l-2.538-3.391 13.28-9.86z" fill="url(#paint16_linear)" opacity=".25"/><path opacity=".25" d="M164.149 521.115l.871 5.746c.304 2.143.659 4.572 1.455 7.207l3.735 14.535c.35 1.277.705 2.698 1.066 4.136.974 3.867 1.879 7.516 3.277 10.879l8.616 23.368 8.932 18.476-14.884 7.167-12.243-27.121-5.809-15.875c-1.747-4.17-2.922-8.799-3.93-12.89l-4.698-18.263c-1.042-3.478-1.523-6.806-1.879-9.235l-.87-5.666 16.361-2.464z" fill="url(#paint17_linear)"/><path d="M90.244 455.946l3.747.195-.75 14.912-3.759-.195.762-14.912z" fill="url(#paint18_linear)"/><path d="M96.54 399.444l3.717.625a58.151 58.151 0 0 0-.35 2.383l-2.84 18.653-3.713-.573 2.83-18.596c.109-.859.223-1.718.355-2.492zm-5.237 35.342l3.758.178-.36 7.098-3.748-.184.35-7.092z" fill="url(#paint19_linear)"/><path d="M434.005 105.724l.212 3.752-3.781.2c-1.117.104-2.515.144-4.073.201-2.91.097-6.525.223-10.621.836-.785.138-1.645.293-2.527.442l-.624-3.719c.87-.137 1.713-.28 2.538-.435 4.365-.653 8.1-.785 11.102-.882 1.49-.057 2.807-.103 3.947-.195l3.827-.2zm-35.421 3.775l.561 3.718c-2.263.332-4.589.682-7.007 1.077l-.595-3.718a642.77 642.77 0 0 1 7.041-1.077zm-21.106 3.724l.808 3.678a193.39 193.39 0 0 0-14.534 3.741 326.528 326.528 0 0 0-12.77 3.54l-1.077-3.598a325.089 325.089 0 0 1 12.821-3.575 201.073 201.073 0 0 1 14.752-3.786zm-37.782 10.61l1.197 3.569a360.608 360.608 0 0 0-19.873 7.338l-1.398-3.489a363.183 363.183 0 0 1 20.074-7.418zm-33.21 12.993l1.524 3.437a329.032 329.032 0 0 0-6.428 2.945l-1.599-3.409a295.18 295.18 0 0 1 6.503-2.973zm-19.313 9.269l1.748 3.34a373.085 373.085 0 0 0-24.629 13.881l-1.97-3.208a378.602 378.602 0 0 1 24.851-14.013zm-33.886 19.77l2.068 3.146a336.737 336.737 0 0 0-17.33 12.168l-2.268-2.996a325.004 325.004 0 0 1 17.53-12.318zm-28.765 21.152l2.406 2.893a531.503 531.503 0 0 0-4.8 4.039l-.516.498-2.572-2.744.584-.556a415.25 415.25 0 0 1 4.898-4.13zm-15.966 14.196l2.498 2.801c-7.511 6.715-14.202 12.839-19.989 19.742l-2.893-2.412c5.958-7.104 12.753-13.319 20.384-20.131zm-27.47 27.968l2.784 2.527-7.597 8.364-5.895 7.866-2.996-2.263 7.539-9.716 6.165-6.778zm-22.303 27.78l2.985 2.286a150.635 150.635 0 0 0-4.142 5.665l-3.094-2.159a183.863 183.863 0 0 1 4.251-5.792zm-12.013 17.817l3.213 1.959c-1.289 2.108-2.537 4.199-3.804 6.279a518.701 518.701 0 0 1-4.073 6.731l-4.846 7.969c-.55 1.037-1.1 2.166-1.645 3.294l-3.391-1.627a77.066 77.066 0 0 1 1.782-3.523l4.892-8.072c1.352-2.211 2.71-4.44 4.073-6.703a322.63 322.63 0 0 1 3.799-6.307zm-19.169 34.196l3.403 1.626-5.105 10.576a99.143 99.143 0 0 0-4.016 8.553l-3.477-1.443a102.575 102.575 0 0 1 4.148-8.811l5.047-10.501zm-14.179 32.711l3.534 1.272a166.437 166.437 0 0 1-2.217 5.958l-.269.717-3.512-1.318.258-.716c.773-1.931 1.478-3.89 2.206-5.913zm-7.27 20.075l3.58 1.163c-.962 2.973-1.655 5.494-2.114 7.705l-5.047 19.656-3.65-.94 5.025-19.564c.47-2.263 1.197-4.91 2.206-8.02z" fill="url(#paint20_linear)"/><path d="M94.326 492.557l.2 3.758c.098 1.117.156 2.509.201 4.085.115 2.899.224 6.519.837 10.61.143.785.292 1.644.447 2.538l-3.713.613c-.143-.871-.28-1.707-.435-2.532-.659-4.372-.785-8.107-.894-11.103-.046-1.489-.091-2.813-.189-3.947l-.206-3.85 3.752-.172zm3.753 35.072c.338 2.252.681 4.584 1.077 6.995l-3.713.596c-.389-2.429-.75-4.778-1.076-7.041l3.712-.55zm3.678 20.848a192.044 192.044 0 0 0 3.735 14.54 320.76 320.76 0 0 0 3.546 12.752l-3.603 1.083a304.296 304.296 0 0 1-3.569-12.833 197.416 197.416 0 0 1-3.793-14.74l3.684-.802zm10.507 37.387a362.864 362.864 0 0 0 7.327 19.879l-3.489 1.409c-2.675-6.674-5.179-13.428-7.407-20.091l3.569-1.197zm12.855 32.895c.951 2.137 1.937 4.28 2.928 6.422l-3.386 1.593a285.196 285.196 0 0 1-2.985-6.497l3.443-1.518zm9.178 19.095a371.799 371.799 0 0 0 13.875 24.617l-3.202 1.965a376.091 376.091 0 0 1-14.03-24.864l3.357-1.718zm19.558 33.554a340.933 340.933 0 0 0 12.186 17.33l-3.008 2.263a328.056 328.056 0 0 1-12.306-17.525l3.128-2.068zm20.911 28.427a326.902 326.902 0 0 0 4.05 4.795l.493.521-2.75 2.572-.55-.59c-1.444-1.667-2.784-3.282-4.142-4.904l2.899-2.394zm14.099 15.869c6.714 7.51 12.832 14.196 19.759 19.994l-2.429 2.875c-7.104-5.958-13.326-12.746-20.143-20.366l2.813-2.503zm27.693 27.189l8.37 7.602 7.866 5.895-2.263 3.002-9.699-7.55-6.794-6.165 2.52-2.784zm27.551 22.096a163.073 163.073 0 0 0 5.66 4.142l-2.149 3.088a138.899 138.899 0 0 1-5.809-4.245l2.298-2.985zm17.49 11.802a826.914 826.914 0 0 0 6.279 3.792 967.788 967.788 0 0 1 6.725 4.074l7.969 4.852c1.032.544 2.16 1.1 3.3 1.644l-1.633 3.386a112.607 112.607 0 0 1-3.523-1.77l-8.078-4.904c-2.205-1.358-4.439-2.704-6.691-4.062a601.514 601.514 0 0 1-6.302-3.81l1.954-3.202zm33.869 18.968l10.564 5.093c2.664 1.427 5.448 2.733 8.559 4.022l-1.432 3.472c-3.243-1.341-6.13-2.693-8.84-4.148l-10.484-5.047 1.633-3.392zm32.346 14.03c2.045.739 4.05 1.473 5.963 2.217l.716.27-1.329 3.517-.716-.269a201.539 201.539 0 0 0-5.906-2.194l1.272-3.541zm19.976 7.247c2.968.963 5.483 1.656 7.7 2.114l19.65 5.053-.94 3.638-19.558-5.03c-2.263-.47-4.91-1.186-8.009-2.194l1.157-3.581z" fill="url(#paint21_linear)"/><path d="M93.243 470.856l.75 14.907-3.747.195-.762-14.907 3.759-.195z" fill="url(#paint22_linear)"/><path d="M444.584 30.593l.212 4.13-16.505.825-.212-4.119 16.505-.836zm-33.033 1.695l.247 4.13-1.054.052-15.119 2.32-.625-4.084 16.551-2.418zm-32.895 4.91l.613 4.085-7.15 1.082c-2.606.35-5.339.9-8.931 1.8l-.997-4.005c3.735-.945 6.611-1.53 9.344-1.885l7.121-1.077zm-32.471 7.127l1.031 3.998-16.013 4.154-1.019-4.005 16.001-4.147zm-31.899 9.344l1.409 3.878-15.416 5.632-1.455-3.862 15.462-5.648zm-31.142 11.543l1.69 3.764c-1.994.9-3.982 1.868-5.964 2.853-1.553.75-3.099 1.518-4.675 2.246l-4.216 2.04-1.793-3.73 4.239-2.045a231.155 231.155 0 0 0 4.623-2.223c2.034-1.003 4.062-1.994 6.096-2.905zM253.29 79.57l1.794 3.724-7.654 3.69a467.911 467.911 0 0 0-6.812 3.94l-2.091-3.563a541.085 541.085 0 0 1 6.995-4.044l7.768-3.747zM224.348 96l2.206 3.495a542.174 542.174 0 0 0-13.773 9.023l-2.314-3.409A510.36 510.36 0 0 1 224.348 96zm-27.482 18.659l2.452 3.34a478.198 478.198 0 0 0-13.147 9.911l-2.55-3.254c4.383-3.414 8.8-6.748 13.245-9.997zM170.714 135.1l2.641 3.174a487.957 487.957 0 0 0-12.443 10.776l-2.762-3.071a487.201 487.201 0 0 1 12.564-10.879zm-24.795 22.228l2.945 2.922-1.925 1.868a459.85 459.85 0 0 0-9.441 9.974l-3.042-2.785a441.181 441.181 0 0 1 9.567-10.122l1.896-1.857zm-22.486 24.394l3.157 2.693a544.972 544.972 0 0 0-10.495 12.683l-3.231-2.566a474.911 474.911 0 0 1 10.569-12.81zm-20.715 25.946l3.322 2.475c-3.3 4.417-6.49 8.88-9.624 13.366l-3.392-2.361a528.901 528.901 0 0 1 9.694-13.48zm-18.952 27.258l3.478 2.252a495.34 495.34 0 0 0-8.714 13.961l-3.546-2.125a519.899 519.899 0 0 1 8.782-14.088zM66.78 263.564l3.713 1.793-7.185 14.89-3.712-1.788 7.184-14.895zm-14.368 29.773l3.712 1.816c-1.151 2.366-2.28 4.721-3.27 7.127l-2.905 7.958-3.884-1.421 2.933-8.032c1.054-2.555 2.217-4.996 3.414-7.448zM40.37 324.342l3.884 1.421-5.563 15.342-4.004-1.003.882-2.635 4.8-13.125zm-9.82 31.744l4.005 1.037-2.028 7.814c-.636 2.75-1.392 5.511-2.114 8.21l-3.993-1.072c.716-2.664 1.455-5.368 2.091-8.129l2.04-7.86zm-7.665 32.362l4.073.631-2.497 16.339-4.085-.619 2.51-16.351zm-4.99 32.69l4.074.613-.66 4.354-.6 11.921-4.131-.217.641-12.117.676-4.554zm-2.17 33.187l4.13.212-.837 16.517-4.119-.207.825-16.522z" fill="url(#paint23_linear)"/><path d="M19.583 481.964l.83 16.516-4.119.212-.836-16.511 4.125-.217zm1.684 33.01l.057 1.042 2.326 15.125-4.084.624-2.43-16.551 4.131-.24zm4.881 32.505l1.083 7.156c.35 2.606.894 5.345 1.793 8.925l-3.993 1.014c-.951-3.746-1.524-6.628-1.89-9.361l-1.083-7.103 4.09-.631zm7.052 32.059l4.154 16.013-4.016 1.031-4.142-16.012 4.004-1.032zm9.207 31.521l5.637 15.422-3.861 1.472 1.959-.653-1.96.642-5.66-15.462 3.885-1.421zm11.435 30.867c.905 2 1.879 3.982 2.841 5.97.75 1.552 1.524 3.099 2.252 4.68l2.033 4.217-3.723 1.793-2.034-4.24c-.728-1.575-1.49-3.105-2.24-4.629-.986-2.028-1.982-4.05-2.899-6.089l3.77-1.702zm14.31 29.756l3.696 7.648a607.744 607.744 0 0 0 3.924 6.818l-3.558 2.085a515.222 515.222 0 0 1-4.039-6.989l-3.746-7.775 3.723-1.787zm16.202 28.53c2.91 4.612 5.93 9.201 9.028 13.767l-3.414 2.325a499.163 499.163 0 0 1-9.109-13.881l3.495-2.211zm18.521 27.241a493.7 493.7 0 0 0 9.9 13.148l-3.254 2.543a488 488 0 0 1-9.991-13.251l3.345-2.44zm20.263 25.952a449.796 449.796 0 0 0 10.765 12.443l-3.065 2.761a463.737 463.737 0 0 1-10.862-12.546l3.162-2.658zm21.965 24.497l1.868 1.925a506.768 506.768 0 0 0 9.979 9.435l-2.795 3.042a451.69 451.69 0 0 1-10.106-9.561l-1.868-1.908 2.922-2.933zm24.165 22.285a507.127 507.127 0 0 0 12.689 10.484l-2.572 3.225a500.798 500.798 0 0 1-12.81-10.569l2.693-3.14zm25.74 20.532a523.928 523.928 0 0 0 13.348 9.625l-2.349 3.392a537.69 537.69 0 0 1-13.474-9.688l2.475-3.329zm27.017 18.797a527.738 527.738 0 0 0 13.967 8.719l-2.125 3.547a484.756 484.756 0 0 1-14.076-8.794l2.234-3.472zm28.186 16.751l14.895 7.179-1.793 3.723-14.895-7.184 1.793-3.718zm29.813 14.374c2.361 1.152 4.721 2.28 7.116 3.271l7.957 2.905-1.409 3.884-8.021-2.945c-2.572-1.037-5.012-2.211-7.464-3.408l1.821-3.707zm30.598 11.865l15.342 5.557-1.008 4.01-2.629-.888-13.125-4.795 1.42-3.884zm31.366 9.704l7.809 2.023c2.75.641 5.517 1.386 8.203 2.119l-1.065 3.988c-2.664-.716-5.362-1.455-8.124-2.086l-7.854-2.033 1.031-4.011zm31.945 7.591l16.35 2.498-.625 4.079-16.338-2.492.613-4.085zm32.672 4.99l4.365.659 11.916.619-.212 4.125-12.128-.636-4.543-.682.602-4.085zm32.786 2.12l16.528.836-.212 4.125-16.516-.836.2-4.125z" fill="url(#paint24_linear)"/><path d="M101.064 163.44c.831 0 1.575.246 2.148.745.585.584.905 1.323 1.008 2.154 0 .819-.269 1.65-.836 2.303l-2.314 2.486c-.413.499-.82.911-1.244 1.41-.727.739-1.478 1.655-2.394 2.646-.997 1.238-3.054 1.404-4.377.333-1.243-1.077-1.41-2.979-.338-4.297.997-1.163 1.902-2.154 2.652-2.985.413-.412.74-.825 1.066-1.237l2.406-2.561c.567-.665 1.409-.997 2.223-.997zm-43.322 59.609c.584 0 1.163.081 1.667.407.647.413 1.14 1.077 1.41 1.902.154.831.068 1.661-.425 2.4-.83 1.404-2.807 1.902-4.216.992-1.49-.831-1.89-2.733-1.077-4.211 0-.086.092-.086.092-.086a3.01 3.01 0 0 1 2.549-1.404zm-35.875 70.437c.338 0 .74.08 1.078.161.738.332 1.409.91 1.735 1.655.338.739.413 1.57.166 2.315-.326.825-.572 1.655-.916 2.635l-9.991 27.373c-1.662 4.05-2.733 8.261-3.896 12.729l-.08.504c-1.077 4.297-2.24 8.508-3.3 12.638l-.166.837c-.837 3.219-1.656 6.445-2.498 9.59-1.398 5.46-2.807 10.656-3.793 15.623a1192.943 1192.943 0 0 1-2.474 16.213l-1.25 8.427c-1.065 6.697-1.97 12.901-2.812 18.355a166.226 166.226 0 0 0-.567 10.089c-.08 1.736-.167 3.385-.247 4.961-.504 8.513-.75 13.388-.75 13.388-.08 1.656-1.398 2.894-3.054 2.894h-.166c-1.736-.081-2.985-1.49-2.887-3.226 0 0 .246-5.122.647-13.388.092-1.49.166-3.054.246-4.709.086-3.146.258-6.783.585-10.754l.091-.166a875.662 875.662 0 0 1 1.983-12.97l4.554-30.18c1.077-5.459 2.55-10.839 4.039-16.539.75-2.979 1.575-6.038 2.315-9.178.658-2.4 1.254-4.795 1.902-7.195l1.747-6.783c1.065-4.377 2.223-8.932 4.05-13.389 2.395-6.542 4.801-13.148 7.196-19.679l2.72-7.522c.339-.83.585-1.741.906-2.646.401-1.232 1.57-2.063 2.887-2.063z" fill="url(#paint25_linear)"/><path d="M455.739.575c41.913 0 83.573 5.545 123.911 16.539.744.16 1.409.659 1.821 1.404.424.744.573 1.57.338 2.394-.424 1.57-2.16 2.567-3.809 2.149-39.685-10.748-80.864-16.288-122.095-16.288h-.67c-9.756 0-19.673.333-29.596.997l-.584.086c-.997.08-1.982.08-2.979.166-1.81.08-3.225-1.157-3.311-2.899-.08-.83.166-1.564.762-2.228.492-.59 1.312-.997 2.148-1.077 1.066-.08 2.229-.08 3.38-.16h.166C435.218.906 445.479.574 455.739.574zm-48.289 2.48a3.144 3.144 0 0 1 3.145 2.813c.166 1.65-1.077 3.225-2.818 3.392h-.081c-1.564.16-3.133-1.077-3.299-2.727-.166-1.656 1.077-3.146 2.641-3.392.166-.086.332-.086.412-.086zm-63.745 11.16c1.409 0 2.664.991 2.984 2.32.247.825.081 1.65-.326 2.395-.424.659-1.083 1.157-1.902 1.404-1.667.406-3.403-.665-3.816-2.31-.401-1.655.671-3.305 2.315-3.723h.092c.246-.086.406-.086.653-.086zm-74.969 25.299c1.232 0 2.315.745 2.796 1.908.338.739.338 1.564.092 2.308-.327.745-.917 1.404-1.656 1.742a449.84 449.84 0 0 0-6.783 2.973c-42.566 18.436-73.903 42.085-96.796 59.363l-4.308 3.226h-.08c-7.104 6.101-13.148 11.646-18.023 16.115a177.454 177.454 0 0 1-4.881 4.463l-.08.086c-1.163.991-3.226.905-4.297-.333-1.163-1.243-1.008-3.225.246-4.388 1.49-1.318 3.054-2.807 4.784-4.377 4.961-4.549 11.08-10.174 18.441-16.459l.08-.08c1.576-1.157 3.054-2.315 4.629-3.472 23.065-17.358 54.654-41.168 97.718-59.775a255.272 255.272 0 0 1 6.858-3.054c.418-.16.836-.246 1.26-.246zm384.415 4.629c.413 0 .906.166 1.318.338a2.971 2.971 0 0 1 1.575 1.736c.247.83.247 1.655-.091 2.395-.751 1.495-2.641 2.154-4.131 1.495a3.01 3.01 0 0 1-1.575-1.736c-.327-.83-.247-1.656.091-2.4.499-1.078 1.576-1.828 2.813-1.828zm56.642 31.417c.659 0 1.232.16 1.724.504 1.41.906 1.822 2.808.917 4.291-.917 1.324-2.899 1.816-4.297.917-1.409-.917-1.821-2.905-.916-4.303a3.039 3.039 0 0 1 2.572-1.409zm11.985 8.026c.659 0 1.232.155 1.822.499 20.99 14.465 40.663 30.667 58.601 47.945 19.93 19.014 38.366 40.257 54.825 63.081.481.665.739 1.484.573 2.314-.166.831-.573 1.564-1.243 1.988-1.318.986-3.38.659-4.377-.658-16.218-22.498-34.396-43.408-54.075-62.262-17.599-17.021-37.118-32.987-57.873-47.287-.648-.492-1.152-1.157-1.244-1.982-.166-.825 0-1.655.505-2.314.584-.825 1.489-1.324 2.486-1.324zm-595.417 52.328c.837 0 1.736.338 2.315.991 1.163 1.243.997 3.231-.246 4.383-1.152 1.077-3.226 1.002-4.389-.241-1.065-1.243-.985-3.139.166-4.296 0 0 0-.092.081-.092.584-.504 1.334-.745 2.073-.745zm748.934 125.75c1.152 0 2.24.659 2.733 1.736a3.117 3.117 0 0 1-1.404 4.13c-1.495.751-3.397.086-4.136-1.398a3.12 3.12 0 0 1 1.398-4.136c.412-.258.917-.332 1.409-.332zm24.64 59.85c1.329 0 2.487.83 2.888 2.068.338.819.257 1.644-.081 2.394-.326.745-.996 1.318-1.735 1.564-1.564.579-3.403-.326-3.971-1.896 0 0 0-.086-.08-.086-.166-.739-.166-1.57.166-2.234.413-.745.98-1.318 1.811-1.65.326-.075.676-.16 1.002-.16zm4.285 13.72c1.433 0 2.653.991 2.985 2.389 1.232 4.721 2.395 9.264 3.558 13.646l2.475 9.51c.338 1.244.584 2.481.916 3.713 1.822 7.041 3.547 13.646 4.297 20.011l5.047 33.153c.739 4.383.986 7.448.986 9.183l.08 1.324c0 .997.103 1.484.103 1.736 0 .836-.269 1.569-.836 2.234-.493.573-1.318.991-2.149.991a3.058 3.058 0 0 1-3.225-2.893s-.08-1.071-.178-3.134c0-1.747-.143-4.554-.905-8.364a4121.563 4121.563 0 0 1-3.947-25.872l-1.163-7.522c-.584-5.952-2.315-12.643-4.217-19.765l-2.056-8.014c-1.49-5.786-3.065-11.899-4.709-18.35v-.08a3.05 3.05 0 0 1 2.217-3.724c.229-.086.475-.172.721-.172z" fill="url(#paint26_linear)"/><path d="M-9.97 508.764c1.735 0 3.064 1.237 3.145 2.887 0 .086.091 1.158.166 3.226 0 1.569.166 4.296.905 8.352a9287.457 9287.457 0 0 0 5.133 33.314c.573 5.866 2.32 12.403 4.045 19.347.338 1.151.67 2.394.996 3.637a2821.1 2821.1 0 0 1 5.953 23.231c.258.825.08 1.65-.333 2.309-.412.745-1.065 1.243-1.89 1.495-1.576.413-3.311-.664-3.804-2.234l-.418-1.736c-1.902-7.614-3.804-14.798-5.546-21.489-.326-1.323-.653-2.653-.985-3.97-1.816-6.949-3.558-13.475-4.217-19.759l-5.035-33.153c-.751-4.217-.997-7.282-.997-9.178l-.092-1.409c0-.911-.08-1.41-.08-1.57v-.08c-.086-1.656 1.232-3.14 2.99-3.226h.063v.006zM11.695 614.17c1.318 0 2.486.831 2.899 2.062.32.74.258 1.656-.092 2.401-.412.745-.985 1.323-1.81 1.57-1.49.578-3.392-.338-3.884-1.902-.585-1.57.246-3.386 1.821-3.971.316-.074.74-.16 1.066-.16zm24.726 59.856c1.14 0 2.229.664 2.721 1.73.413.75.413 1.655.166 2.4-.246.831-.83 1.41-1.564 1.736-1.49.831-3.391.086-4.13-1.404-.424-.744-.424-1.569-.178-2.4a2.957 2.957 0 0 1 1.576-1.736c.412-.166.905-.326 1.409-.326zm40.664 67.87c.996 0 1.902.493 2.498 1.318 16.281 22.491 34.465 43.408 54.132 62.17 17.536 17.032 37.049 32.907 57.885 47.292 1.398.991 1.724 2.887.83 4.296-1.008 1.404-2.979 1.811-4.388.825-21.082-14.551-40.761-30.672-58.618-47.956-19.92-19.014-38.344-40.257-54.814-63.075-.986-1.324-.74-3.312.67-4.303a2.985 2.985 0 0 1 1.805-.567zm708.178 57.959c.905 0 1.736.333 2.314.991.487.579.831 1.404.831 2.235-.092.825-.412 1.569-1.083 2.148l-.068.086c-1.163.991-3.231.905-4.297-.332-1.163-1.243-1.008-3.226.235-4.383.578-.504 1.317-.745 2.068-.745zm-10.662 9.671c.814 0 1.725.332 2.315.997 1.151 1.317 1.077 3.225-.246 4.376-1.576 1.404-3.231 2.979-5.133 4.715-4.87 4.463-10.908 10.003-18.092 16.116l-.103.08c-1.479 1.157-2.957 2.234-4.543 3.391-23.048 17.445-54.648 41.254-97.793 59.936-2.228.991-4.543 1.988-6.857 2.985-1.49.659-3.403-.092-4.051-1.575-.659-1.57 0-3.386 1.564-4.051 2.315-.997 4.555-1.982 6.783-3.059 42.578-18.436 73.903-41.999 96.733-59.283l4.297-3.225c7.184-6.113 13.314-11.739 18.183-16.201 1.736-1.57 3.392-3.054 4.881-4.389v-.08c.573-.487 1.323-.733 2.062-.733zm-572.758 50.678c.573 0 1.163.16 1.656.492 1.409.905 1.81 2.807.916 4.217-.916 1.403-2.91 1.81-4.308.985-1.409-.911-1.81-2.887-.916-4.297.584-.899 1.581-1.397 2.652-1.397zm56.63 31.331c.493 0 .905.086 1.329.246.739.413 1.312.991 1.644 1.816.247.751.247 1.57-.166 2.321-.658 1.483-2.56 2.234-4.142 1.483h-.08c-.659-.332-1.232-.991-1.478-1.736-.258-.739-.258-1.569.08-2.314.493-1.157 1.662-1.816 2.813-1.816zm74.327 27.201c.246 0 .573.08.819.08 49.355 13.394 100.703 18.768 152.378 15.29l3.546-.246a3.036 3.036 0 0 1 3.311 2.893c.155 1.656-1.163 3.226-2.819 3.306-.658 0-1.231.086-1.821.086-.659.08-1.232.08-1.799.166-51.927 3.472-104.421-1.902-154.446-15.457-1.644-.492-2.641-2.148-2.148-3.804.332-1.409 1.57-2.314 2.979-2.314zm235.108 2.807c1.49 0 2.733.911 3.065 2.32.413 1.65-.658 3.386-2.314 3.724-1.656.487-3.311-.584-3.724-2.234-.401-1.662.584-3.312 2.24-3.724.246-.086.499-.086.733-.086zm-63.82 11.085c1.656 0 2.985 1.238 3.146 2.802.166 1.661-1.077 3.231-2.808 3.397-1.655.246-3.225-1.071-3.391-2.813-.166-1.655 1.083-3.225 2.807-3.386h.246z" fill="url(#paint27_linear)"/><defs><linearGradient id="paint0_linear" x1="-1562.94" y1="1215.49" x2="2370.61" y2="-821.848" gradientUnits="userSpaceOnUse"><stop stop-color="#F2FFFF"/><stop offset=".463" stop-color="#0AA9CC"/><stop offset="1" stop-color="#00439F"/></linearGradient><linearGradient id="paint1_linear" x1="-1393.56" y1="1542.46" x2="2539.91" y2="-494.839" gradientUnits="userSpaceOnUse"><stop stop-color="#F2FFFF"/><stop offset=".463" stop-color="#0AA9CC"/><stop offset="1" stop-color="#00439F"/></linearGradient><linearGradient id="paint2_linear" x1="-1481.17" y1="1373.4" x2="2452.4" y2="-663.947" gradientUnits="userSpaceOnUse"><stop stop-color="#F2FFFF"/><stop offset=".463" stop-color="#0AA9CC"/><stop offset="1" stop-color="#00439F"/></linearGradient><linearGradient id="paint3_linear" x1="-1551.06" y1="1238.52" x2="2382.58" y2="-798.867" gradientUnits="userSpaceOnUse"><stop stop-color="#F2FFFF"/><stop offset=".463" stop-color="#0AA9CC"/><stop offset="1" stop-color="#00439F"/></linearGradient><linearGradient id="paint4_linear" x1="-1398.84" y1="1532.32" x2="2534.73" y2="-505.03" gradientUnits="userSpaceOnUse"><stop stop-color="#F2FFFF"/><stop offset=".463" stop-color="#0AA9CC"/><stop offset="1" stop-color="#00439F"/></linearGradient><linearGradient id="paint5_linear" x1="-1329.02" y1="1667.25" x2="2604.65" y2="-370.153" gradientUnits="userSpaceOnUse"><stop stop-color="#F2FFFF"/><stop offset=".463" stop-color="#0AA9CC"/><stop offset="1" stop-color="#00439F"/></linearGradient><linearGradient id="paint6_linear" x1="-1377.76" y1="1477.8" x2="681.302" y2="-45.689" gradientUnits="userSpaceOnUse"><stop stop-color="#F2FFFF"/><stop offset=".463" stop-color="#0AA9CC"/><stop offset="1" stop-color="#00439F"/></linearGradient><linearGradient id="paint7_linear" x1="-1435.45" y1="1399.79" x2="623.593" y2="-123.685" gradientUnits="userSpaceOnUse"><stop stop-color="#F2FFFF"/><stop offset=".463" stop-color="#0AA9CC"/><stop offset="1" stop-color="#00439F"/></linearGradient><linearGradient id="paint8_linear" x1="-1162.66" y1="1768.56" x2="896.43" y2="245.06" gradientUnits="userSpaceOnUse"><stop stop-color="#F2FFFF"/><stop offset=".463" stop-color="#0AA9CC"/><stop offset="1" stop-color="#00439F"/></linearGradient><linearGradient id="paint9_linear" x1="-1123.22" y1="1821.88" x2="935.894" y2="298.359" gradientUnits="userSpaceOnUse"><stop stop-color="#F2FFFF"/><stop offset=".463" stop-color="#0AA9CC"/><stop offset="1" stop-color="#00439F"/></linearGradient><linearGradient id="paint10_linear" x1="-1542.42" y1="1255.12" x2="2391.14" y2="-782.228" gradientUnits="userSpaceOnUse"><stop stop-color="#F2FFFF"/><stop offset=".463" stop-color="#0AA9CC"/><stop offset="1" stop-color="#00439F"/></linearGradient><linearGradient id="paint11_linear" x1="-1539.63" y1="1260.86" x2="2394.26" y2="-776.656" gradientUnits="userSpaceOnUse"><stop stop-color="#F2FFFF"/><stop offset=".463" stop-color="#0AA9CC"/><stop offset="1" stop-color="#00439F"/></linearGradient><linearGradient id="paint12_linear" x1="-1572.98" y1="1196.53" x2="2360.95" y2="-841.006" gradientUnits="userSpaceOnUse"><stop stop-color="#F2FFFF"/><stop offset=".463" stop-color="#0AA9CC"/><stop offset="1" stop-color="#00439F"/></linearGradient><linearGradient id="paint13_linear" x1="-1575.62" y1="1190.63" x2="2357.63" y2="-846.552" gradientUnits="userSpaceOnUse"><stop stop-color="#F2FFFF"/><stop offset=".463" stop-color="#0AA9CC"/><stop offset="1" stop-color="#00439F"/></linearGradient><linearGradient id="paint14_linear" x1="-1401.92" y1="1526.38" x2="2531.63" y2="-510.953" gradientUnits="userSpaceOnUse"><stop stop-color="#F2FFFF"/><stop offset=".463" stop-color="#0AA9CC"/><stop offset="1" stop-color="#00439F"/></linearGradient><linearGradient id="paint15_linear" x1="-1339.39" y1="1647.44" x2="2594.49" y2="-390.064" gradientUnits="userSpaceOnUse"><stop stop-color="#F2FFFF"/><stop offset=".463" stop-color="#0AA9CC"/><stop offset="1" stop-color="#00439F"/></linearGradient><linearGradient id="paint16_linear" x1="-1395.38" y1="1539.86" x2="2539.02" y2="-497.914" gradientUnits="userSpaceOnUse"><stop stop-color="#F2FFFF"/><stop offset=".463" stop-color="#0AA9CC"/><stop offset="1" stop-color="#00439F"/></linearGradient><linearGradient id="paint17_linear" x1="-1462.03" y1="1409.79" x2="2471" y2="-627.284" gradientUnits="userSpaceOnUse"><stop stop-color="#F2FFFF"/><stop offset=".463" stop-color="#0AA9CC"/><stop offset="1" stop-color="#00439F"/></linearGradient><linearGradient id="paint18_linear" x1="-1342.57" y1="1524.73" x2="716.05" y2="1.561" gradientUnits="userSpaceOnUse"><stop stop-color="#F2FFFF"/><stop offset=".463" stop-color="#0AA9CC"/><stop offset="1" stop-color="#00439F"/></linearGradient><linearGradient id="paint19_linear" x1="-1361.92" y1="1499.18" x2="697.116" y2="-24.291" gradientUnits="userSpaceOnUse"><stop stop-color="#F2FFFF"/><stop offset=".463" stop-color="#0AA9CC"/><stop offset="1" stop-color="#00439F"/></linearGradient><linearGradient id="paint20_linear" x1="-1401.2" y1="1446.12" x2="657.862" y2="-77.361" gradientUnits="userSpaceOnUse"><stop stop-color="#F2FFFF"/><stop offset=".463" stop-color="#0AA9CC"/><stop offset="1" stop-color="#00439F"/></linearGradient><linearGradient id="paint21_linear" x1="-1199.02" y1="1719.37" x2="860.028" y2="195.897" gradientUnits="userSpaceOnUse"><stop stop-color="#F2FFFF"/><stop offset=".463" stop-color="#0AA9CC"/><stop offset="1" stop-color="#00439F"/></linearGradient><linearGradient id="paint22_linear" x1="-1336.02" y1="1534.8" x2="723.446" y2="11.004" gradientUnits="userSpaceOnUse"><stop stop-color="#F2FFFF"/><stop offset=".463" stop-color="#0AA9CC"/><stop offset="1" stop-color="#00439F"/></linearGradient><linearGradient id="paint23_linear" x1="-1973.76" y1="1667.96" x2="1673.93" y2="-742.125" gradientUnits="userSpaceOnUse"><stop stop-color="#fff"/><stop offset=".14" stop-color="#FAFAFA"/><stop offset=".302" stop-color="#ECECEC"/><stop offset=".476" stop-color="#D5D5D6"/><stop offset=".659" stop-color="#B4B5B6"/><stop offset=".846" stop-color="#8A8C8D"/><stop offset="1" stop-color="#626466"/></linearGradient><linearGradient id="paint24_linear" x1="-1748.99" y1="2008.25" x2="1898.78" y2="-401.877" gradientUnits="userSpaceOnUse"><stop stop-color="#fff"/><stop offset=".14" stop-color="#FAFAFA"/><stop offset=".302" stop-color="#ECECEC"/><stop offset=".476" stop-color="#D5D5D6"/><stop offset=".659" stop-color="#B4B5B6"/><stop offset=".846" stop-color="#8A8C8D"/><stop offset="1" stop-color="#626466"/></linearGradient><linearGradient id="paint25_linear" x1="-1985.45" y1="1650.25" x2="1662.24" y2="-759.831" gradientUnits="userSpaceOnUse"><stop stop-color="#fff"/><stop offset=".14" stop-color="#FAFAFA"/><stop offset=".302" stop-color="#ECECEC"/><stop offset=".476" stop-color="#D5D5D6"/><stop offset=".659" stop-color="#B4B5B6"/><stop offset=".846" stop-color="#8A8C8D"/><stop offset="1" stop-color="#626466"/></linearGradient><linearGradient id="paint26_linear" x1="-1853.5" y1="1850" x2="1794.21" y2="-560.094" gradientUnits="userSpaceOnUse"><stop stop-color="#fff"/><stop offset=".14" stop-color="#FAFAFA"/><stop offset=".302" stop-color="#ECECEC"/><stop offset=".476" stop-color="#D5D5D6"/><stop offset=".659" stop-color="#B4B5B6"/><stop offset=".846" stop-color="#8A8C8D"/><stop offset="1" stop-color="#626466"/></linearGradient><linearGradient id="paint27_linear" x1="-1718.52" y1="2054.32" x2="1929.21" y2="-355.788" gradientUnits="userSpaceOnUse"><stop stop-color="#fff"/><stop offset=".14" stop-color="#FAFAFA"/><stop offset=".302" stop-color="#ECECEC"/><stop offset=".476" stop-color="#D5D5D6"/><stop offset=".659" stop-color="#B4B5B6"/><stop offset=".846" stop-color="#8A8C8D"/><stop offset="1" stop-color="#626466"/></linearGradient></defs></svg>