<svg width="19" height="18" fill="none" xmlns="http://www.w3.org/2000/svg"><path d="M5.02 14a.968.968 0 0 0 .713-.288A.967.967 0 0 0 6.02 13a.97.97 0 0 0-.287-.713A.97.97 0 0 0 5.02 12a.97.97 0 0 0-.713.287.97.97 0 0 0-.287.713c0 .283.095.52.287.712.192.192.43.288.713.288Zm0-4a.968.968 0 0 0 .713-.288A.967.967 0 0 0 6.02 9a.97.97 0 0 0-.287-.713A.97.97 0 0 0 5.02 8a.97.97 0 0 0-.713.287A.97.97 0 0 0 4.02 9c0 .283.095.52.287.712.192.192.43.288.713.288Zm0-4a.968.968 0 0 0 .713-.288A.967.967 0 0 0 6.02 5a.97.97 0 0 0-.287-.713A.97.97 0 0 0 5.02 4a.97.97 0 0 0-.713.287A.97.97 0 0 0 4.02 5c0 .283.095.52.287.712.192.192.43.288.713.288Zm3 8h6v-2h-6v2Zm0-4h6V8h-6v2Zm0-4h6V4h-6v2Zm-6 12a1.93 1.93 0 0 1-1.413-.587A1.928 1.928 0 0 1 .02 16V2C.02 1.45.215.979.607.587A1.928 1.928 0 0 1 2.02 0h14c.55 0 1.02.196 1.413.587.39.392.587.863.587 1.413v14a1.93 1.93 0 0 1-.587 1.413A1.928 1.928 0 0 1 16.02 18h-14Z" fill="currentColor"/></svg>
