<svg xmlns="http://www.w3.org/2000/svg" xmlns:xlink="http://www.w3.org/1999/xlink"><symbol id="icon-clock" viewBox="0 0 480 480"><path d="M240 0C107.453 0 0 107.453 0 240s107.453 240 240 240 240-107.453 240-240C479.852 107.516 372.484.148 240 0zm0 464C116.29 464 16 363.71 16 240S116.29 16 240 16s224 100.29 224 224c-.14 123.652-100.348 223.86-224 224zm0 0"/><path d="M240 48C133.96 48 48 133.96 48 240s85.96 192 192 192 192-85.96 192-192c-.125-105.988-86.012-191.875-192-192zm8 367.8V392a8 8 0 0 0-16 0v23.8C141.14 411.56 68.441 338.86 64.2 248H88a8 8 0 0 0 0-16H64.2C68.44 141.14 141.14 68.441 232 64.2V88a8 8 0 0 0 16 0V64.2c90.86 4.241 163.559 76.94 167.8 167.8H392a8 8 0 0 0 0 16h23.8c-4.241 90.86-76.94 163.559-167.8 167.8zm0 0"/><path d="M344 232h-81.473A24.003 24.003 0 0 0 240 216c-3.57.012-7.09.832-10.297 2.398l-.047-.07-88-88a8 8 0 0 0-11.312 11.313l88 88 .07.047A23.72 23.72 0 0 0 216 240c-.023 11.676 8.379 21.664 19.887 23.645 11.508 1.976 22.761-4.633 26.64-15.645H344a8 8 0 0 0 0-16zm-104 16a8 8 0 1 1 0-16 8 8 0 0 1 0 16zm0 0"/></symbol><symbol id="icon-close-red-circle"><g fill="none" fill-rule="evenodd"><circle fill="#F24612" cx="12" cy="12" r="12"/><path fill="#FFF" d="M17.28 7.32l-.48-.48-4.728 4.752L7.32 6.84l-.48.48 4.752 4.752L6.84 16.8l.48.48 4.752-4.752L16.8 17.28l.48-.48-4.752-4.728z"/></g></symbol><symbol id="icon-g" viewBox="0 0 31.8 31.8"><path d="M.9 14.5C5.2 19.4 9.8 24 14.1 29c.4.5 1.3.3 1.6-.2 5.1-8.4 10.1-16.8 15-25.4.7-1.2-.5-2.1-1.3-.9C19.3 18 19 18.4 13.9 26.7c.5-.1 1.1-.1 1.6-.2-4.4-4.8-8.9-8.6-13.9-12.8-.4-.4-1.1.3-.7.8z"/></symbol><symbol id="icon-gift" viewBox="0 0 57 57"><path d="M57 12.002H41.741A6.957 6.957 0 0 0 43 7.995a6.951 6.951 0 0 0-2.043-4.95 7.008 7.008 0 0 0-9.899 0l-2.829 2.829-2.828-2.829a7.008 7.008 0 0 0-9.899 0 6.951 6.951 0 0 0-2.043 4.95c0 1.458.444 2.842 1.259 4.007H0v14h5v30h48v-30h4v-14zM32.472 4.459a5.006 5.006 0 0 1 7.071 0A4.967 4.967 0 0 1 41 7.995c0 1.34-.518 2.596-1.457 3.535l-.472.472H24.929l4.714-4.714 2.829-2.829zM16.916 11.53a4.964 4.964 0 0 1-1.457-3.535c0-1.341.518-2.596 1.457-3.536a5.006 5.006 0 0 1 7.071 0l2.828 2.829-3.535 3.535a6.159 6.159 0 0 0-.581.689c-.054.073-.107.152-.159.229-.06.088-.123.167-.18.26h-4.972l-.472-.471zM2 24.002v-10h26v10H2zm26 2v12H7v-12h21zm-21 14h21v14H7v-14zm23 14v-14h21v14H30zm21-16H30v-12h21v12zm4-14H30v-10h25v10z"/></symbol><symbol id="icon-list-01" viewBox="0 0 100 100"><style>.st1{display:none}.st2{display:inline}.st2,.st3{fill:none;stroke:#231f20;stroke-width:2;stroke-miterlimit:10}.st4{display:inline}.st5{fill:none;stroke:#000;stroke-width:2;stroke-miterlimit:10}</style><circle cx="50" cy="50.2" r="50" fill="#e2e2e2"/><g class="st1"><path class="st2" d="M63.9 71.7c0-6.6-4.6-12.1-10.8-13.4v-3.4c2.3-1.1 3.9-3.4 3.9-6.2v-3.4c0-3.8-3.1-6.8-6.8-6.8-3.8 0-6.8 3.1-6.8 6.8v3.4c0 2.7 1.6 5 3.8 6.1v3.5c-6.1 1.4-10.7 6.8-10.7 13.4h27.4z"/><path class="st2" d="M57.1 43.3c1-.6 2.1-1.1 3.2-1.3v-2.6c-1.7-.8-2.9-2.6-2.9-4.6v-2.6c0-2.9 2.3-5.2 5.2-5.2 2.9 0 5.2 2.3 5.2 5.2v2.6c0 2.1-1.2 3.8-3 4.7V42c4.7 1 8.2 5.1 8.2 10.1H56.2M43.7 43.3c-1-.6-2.1-1.1-3.2-1.3v-2.6c1.7-.8 3-2.6 3-4.7v-2.6c0-2.9-2.3-5.2-5.2-5.2-2.8 0-5.2 2.3-5.2 5.2v2.6c0 2 1.2 3.8 2.9 4.6V42c-4.6 1-8.1 5.2-8.1 10.1h15.8"/></g><path class="st3" d="M72.8 29.4H43.7v23.1h6.7v6.6l6.7-6.6h15.7z"/><path class="st3" d="M43.7 42.1H29.8v23.1h7.3l6.7 7.1v-7.1h16.5V52.8"/><ellipse transform="matrix(1 -.0037 .0037 1 -.13 .189)" class="st3" cx="51" cy="35.5" rx="1.7" ry="1.7"/><ellipse transform="matrix(1 -.0037 .0037 1 -.13 .217)" class="st3" cx="58.8" cy="35.5" rx="1.7" ry="1.7"/><g class="st1"><path class="st2" d="M25.8 32.3h5.5l9.2 30.8h24.1l3.9-25.5H32.9"/><ellipse class="st2" cx="43.6" cy="69.9" rx="3.1" ry="3.1"/><circle class="st2" cx="61.1" cy="70.1" r="3.1"/><path class="st2" d="M38.9 57.8l2.8 9.4M47 69.3h11"/></g><g class="st1"><g class="st4"><path class="st5" d="M23.2 44.2h45.2v24.7H23.2z"/><circle class="st5" cx="46" cy="56.5" r="7.7"/><path class="st5" d="M27.9 48.9v15.3M63.8 48.9v15.3"/></g><g class="st4"><path class="st5" d="M28.7 44.2v-6h45.2v24.7h-5.5"/></g><g class="st4"><path class="st5" d="M33.8 38.7v-6H79v24.7h-5.5"/></g></g><g class="st1"><g class="st4"><circle class="st5" cx="50.8" cy="49.4" r="20.2"/><path class="st5" d="M50.4 34.2v19.1M50.4 53.3l6.6-6.6"/></g><circle cx="50.8" cy="49.4" r="25.2" fill="none" stroke="#000" stroke-width="2" stroke-miterlimit="10"/></g></symbol><symbol id="icon-list-02" viewBox="0 0 100 100"><style>.st1{fill:none;stroke:#231f20;stroke-width:2;stroke-miterlimit:10}</style><circle cx="50" cy="50.2" r="49" fill="#e2e2e2"/><path class="st1" d="M30.9 72.1c0-10.8 8.8-19.6 19.6-19.6S70 61.3 70 72.1H30.9z"/><circle class="st1" cx="50.1" cy="36.9" r="10.9"/></symbol><symbol id="icon-logo" viewBox="0 0 660.6 100.8">
<g>
	<path d="M0.6,74.7c0-4.9,4.9-14.9,14.7-30c-4-0.3-8.9-0.4-14.7-0.4c1.6-4.3,5.5-6.4,11.6-6.4c1.3,0,3.8,0.2,7.4,0.7
		c7.5-10.9,14.5-20,21-27.4C47.1,3.7,51.4,0,53.5,0c1.7,0,4,1.3,6.8,3.9C58.1,5.6,55,13.6,50.9,28s-6.2,25.6-6.2,33.7
		c0,5.4,1.2,8.1,3.5,8.1c3.6,0,8-5.1,13.3-15.2l1.8,1.9c-2.1,5.6-4.9,10.1-8.2,13.5c-3.3,3.4-6.8,5.1-10.4,5.1
		c-5.9,0-8.9-5.1-8.9-15.2c0-3.3,0.4-7.6,1.3-12.7c-3.4-0.5-8.2-1.2-14.3-1.9c-6.2,11-12.1,22.9-17.6,35.6
		C2.1,79.3,0.6,77.3,0.6,74.7z M26,40c1.5,0.3,3.8,0.8,6.7,1.4s4.7,1,5.5,1.1C40.5,31,44.1,19.8,48.7,8.8C42.8,13.6,35.2,24,26,40z"/>
	<path d="M58.8,64.7c0-6.1,2.1-14.5,6.3-25c4.2-10.5,8.9-19.7,14-27.6c5.1-7.9,8.9-11.9,11.4-11.9c1.1,0,2.1,0.9,2.9,2.7
		c0.8,1.8,1.2,3.6,1.3,5.4c0,3.1-1.1,7.4-3.4,13.1c-2.3,5.6-5.6,11.6-9.9,18c-4.3,6.3-8.8,11.4-13.6,15.1c-0.7,3.9-1.1,7-1.1,9.1
		c0,0.1,0,0.2,0,0.3c0,4.6,1.4,6.9,4.3,6.9c2.3,0,4.8-1.6,7.4-4.7c2.6-3.1,5-6.9,7-11.3l2.4,1.3c-2.9,6-6.1,10.7-9.7,14.1
		c-3.5,3.4-7.2,5-11,5C61.7,75.2,58.8,71.7,58.8,64.7z M69.7,48.2c5.3-5.8,10.1-12.8,14.2-21.1c4.2-8.2,6.3-14.2,6.3-17.8
		c-0.9,0-2.6,1.9-5.1,5.8c-2.5,3.9-5.3,8.9-8.3,15.2C73.9,36.5,71.5,42.5,69.7,48.2z"/>
	<path d="M81.4,64.5c0-6,2.8-12.3,8.4-18.7c5.6-6.4,11.4-9.6,17.4-9.6c4.9,0,7.4,2.2,7.4,6.6c0,4.8-2.6,9.1-7.9,12.8
		c-5.2,3.7-11.1,5.9-17.5,6.6c-0.1,0.7-0.2,1.4-0.2,2.3c0,0.7,0,1.3,0.2,1.9c0.1,0.6,0.4,1.4,0.8,2.4c0.4,1,1.2,1.9,2.4,2.5
		c1.2,0.6,2.6,1,4.4,1c4.1,0,8.2-1.6,12.5-5c4.2-3.3,7.6-7.4,10.3-12.4l2,1.6c-2.7,6-6.5,10.8-11.5,14.4c-5,3.6-10.1,5.5-15.5,5.5
		c-4.2,0-7.4-1.1-9.7-3.4C82.6,70.9,81.4,68,81.4,64.5z M90.4,58.5c3.9-0.5,8-2.4,12.3-5.8s6.5-6.9,6.5-10.4c0-1.3-0.6-1.9-1.7-1.9
		c-3,0-6.2,1.9-9.7,5.8C94.4,50.1,91.9,54.2,90.4,58.5z"/>
	<path d="M118,57.9c0.5-0.9,1.2-2.3,2-4.2c0.8-1.8,1.6-3.4,2.3-4.6c0.7-1.3,1.5-2.5,2.5-3.8c1-1.3,2.2-2.3,3.5-3c1.4-0.7,3-1,4.8-1
		c2.5,0,4.5,0.7,5.9,2.1c1.4,1.4,2.5,3.5,3.3,6.3c7.1-7,11.5-10.5,13.3-10.5c0.5,0,1.1,0.2,1.8,0.7c0.7,0.5,1.2,1.1,1.5,1.9
		c-1.3,0-3.4,1.2-6.3,3.7c-2.9,2.5-6.1,5.6-9.5,9.4c0.1,0.5,0.2,1.5,0.3,3c0.2,1.5,0.3,2.9,0.5,4.1c0.2,1.2,0.5,2.5,0.9,3.9
		c0.4,1.3,0.9,2.4,1.5,3.2c0.7,0.8,1.5,1.2,2.4,1.2c2.1,0,4.5-1.7,7.4-5c2.8-3.3,5-6.7,6.5-9.9l1.6,1.5c-1.9,4.9-4.5,9.1-8,12.8
		c-3.5,3.7-7,5.5-10.5,5.5c-4.7,0-7.8-4.1-9.1-12.2c-4.1,4.6-8.1,9.5-12.2,14.6c-0.5,0.6-1.1,0.9-1.7,0.9c-0.5,0-1-0.2-1.3-0.6
		c-0.3-0.4-0.5-0.9-0.5-1.4c0-2.6,5-9.2,14.9-19.7c-0.3-2-0.6-3.5-0.8-4.4c-0.2-0.9-0.4-1.9-0.8-3c-0.3-1.1-0.7-1.8-1.2-2.2
		c-0.5-0.4-1.1-0.6-1.8-0.6c-0.9,0-1.7,0.3-2.5,0.8c-0.8,0.5-1.6,1.4-2.4,2.5c-0.8,1.1-1.5,2.2-2.2,3.2c-0.6,1-1.4,2.4-2.3,4
		s-1.7,2.9-2.3,3.9L118,57.9z"/>
	<path d="M186.5,62.6c0-4.9,1.5-8.5,4.6-10.6c3.1-2.2,6.7-3.3,10.8-3.3c-4.3,4.5-6.5,9.2-6.5,13.9c0,3.6,1.4,6.7,4.2,9.2
		c2.8,2.5,6.6,3.8,11.5,3.8c4.9,0,9.2-1.2,12.9-3.6c3.7-2.4,5.6-5.7,5.6-9.9c0-3-1.1-5.7-3.3-8.1c-2.2-2.4-4.9-4.4-8.1-6.1l-9.5-5.2
		c-3.1-1.7-5.8-4-8.1-6.6c-2.3-2.7-3.4-5.8-3.4-9.1c0-3.8,1.2-7.7,3.5-11.8c2.3-4,5.8-7.5,10.4-10.5c4.6-3,9.7-4.5,15.3-4.5
		c8.3,0,12.5,3.5,12.5,10.5c0,3.4-0.8,7.2-2.4,11.4c-1.6,4.2-3.4,7.9-5.5,11c-3-0.6-4.5-2.3-4.5-5.1c0-1.9,1-5.3,3-10.1
		c2-4.9,3-8.3,3-10c0-1.3-0.4-2.2-1.2-2.9c-0.8-0.6-2.2-1-4.3-1c-5.9,0-11,2.3-15.4,7c-4.4,4.7-6.5,9.2-6.5,13.6
		c0,2.6,1.1,5,3.3,7.1c2.2,2.1,4.9,3.9,8,5.5c3.1,1.6,6.3,3.3,9.4,5c3.1,1.8,5.8,4.1,8,7c2.2,2.9,3.3,6.3,3.3,10.1
		c0,6.5-2.8,11.8-8.4,15.7c-5.6,3.9-11.9,5.9-19,5.9c-6.3,0-11.7-1.6-16.2-4.8C188.7,72.9,186.5,68.4,186.5,62.6z"/>
	<path d="M239.5,72.2c3.9-16,5.9-24.4,6.2-25.4c0.2-0.7,0.9-1.4,2.1-1.9c1.2-0.6,2.4-0.8,3.4-0.8s1.8,0.3,2.4,0.8
		c0.6,0.6,1,1.3,1,2.3c0,1.1-0.5,3.5-1.4,7.4c7.5-10.4,14-15.7,19.5-15.7c4.2,0,6.3,2.9,6.3,8.6c0,2-0.6,4.7-1.7,8.1
		c4.7-7,9.5-10.5,14.5-10.5c2.4,0,4.1,0.7,5.2,2.2c1.1,1.5,1.6,3.3,1.6,5.5c0,1.8-0.6,4.6-1.7,8.2c-1.1,3.6-1.7,5.9-1.7,6.9
		c0,1.8,0.8,2.7,2.4,2.7c4.2,0,8.7-5.1,13.5-15.4l1.7,2.1c-1.9,5-4.4,9.2-7.5,12.8c-3,3.6-6.5,5.4-10.4,5.4c-2.5,0-4.4-0.7-5.8-2.2
		c-1.3-1.5-2-3.3-2-5.6c0-1.5,0.5-3.8,1.4-6.8c0.9-3,1.4-5.1,1.4-6.2c0-2-0.8-3-2.3-3c-1.5,0-3.2,1.1-5.1,3.2
		c-1.9,2.1-4.5,5.6-7.8,10.4c-0.9,1.2-1.9,2.9-3.2,5.2c-1.2,2.3-2,3.7-2.3,4.2c-1.2,0-2.5-0.2-3.9-0.7c-1.4-0.5-2.1-1.1-2.1-1.9
		c0-0.5,1.1-3.6,3.3-9.5c2.2-5.9,3.3-10,3.3-12.4c0-2.1-0.7-3.1-2.1-3.1c-2.7,0-6.5,3-11.3,9c-4.8,6-8.4,12.4-10.8,19
		c-1.2,0-2.5-0.3-4.1-1C240.3,73.3,239.5,72.7,239.5,72.2z"/>
	<path d="M308,66.3c0-2.7,0.7-6.2,2.1-10.6c1.4-4.4,3.3-8.4,5.7-12c2.4-3.7,4.8-5.5,7.1-5.5c0.9,0,1.6,0.3,2.1,0.8
		c0.6,0.5,0.8,1.2,0.8,2.2c0,0.9-0.8,2.7-2.5,5.5c-1.7,2.8-3.4,5.9-5.1,9.4c-1.7,3.5-2.6,6.5-2.6,9.1c0,2.1,0.4,3.5,1.1,4.2
		c0.7,0.7,1.8,1.1,3.4,1.1c5.3,0,10.5-5.1,15.7-15.3l1.5,1.6c-2.3,5.8-5.3,10.4-8.9,13.7s-7.4,4.9-11.5,4.9c-2.8,0-5-0.8-6.6-2.5
		S308,68.9,308,66.3z M323.6,26.2c0-1.5,0.9-2.9,2.5-4c1.7-1.2,3.5-1.8,5.5-1.8c2.9,0,4.3,1.2,4.3,3.7c0,1.4-0.8,2.8-2.3,4.1
		c-1.5,1.3-3.2,1.9-5,1.9c-1.4,0-2.6-0.3-3.5-1C324.1,28.4,323.6,27.5,323.6,26.2z"/>
	<path d="M332.5,66.2c0-5.6,1.9-13.6,5.8-24.1c-1.7-0.6-2.9-1-3.6-1.3v-3.1c0.8,0.1,1.6,0.3,2.6,0.5c0.9,0.2,1.7,0.4,2.3,0.5
		c2.9-7.4,6-13.6,9.3-18.7c3.2-5.1,6-7.6,8.2-7.6c0.7,0,1.4,0.3,2,0.8c0.6,0.5,0.9,1.1,0.9,1.8c0,1.1-1,3.6-3,7.4
		c-2,3.8-4.1,7.7-6.4,11.6c-2.3,4-3.5,6.1-3.7,6.4c3.4,0.6,6.5,0.9,9.2,0.9c3.5,0,7.8-0.5,12.9-1.5c3.8-10.1,8.2-19.1,13.1-27.1
		s9-11.9,12-11.9c1.2,0,2.2,0.7,2.9,2.2c0.7,1.4,1.1,3.1,1.1,5c0,4.8-2.2,10.9-6.7,18.2c-4.5,7.3-9.6,12.7-15.5,16.1
		c-1.2,2.8-2.3,6.6-3.2,11.4c-0.9,4.8-1.4,8.5-1.4,11.1c6-15.3,12.7-22.9,20.4-22.9c2.8,0,5,0.9,6.4,2.6c1.5,1.8,2.2,3.9,2.2,6.3
		c0,2.2-0.7,5.2-2,9c-1.4,3.8-2.1,6.4-2.1,7.7c0,2.2,0.9,3.3,2.7,3.3c2.2,0,4.9-1.7,8.1-5c3.2-3.4,5.7-7.2,7.6-11.5l1.9,1.9
		c-2.3,5.5-5.3,9.9-8.8,13.4c-3.6,3.5-7.3,5.3-11.2,5.3c-2.5,0-4.4-0.7-5.8-2c-1.4-1.3-2.1-3-2.1-5.1c0-1.4,0.5-3.8,1.4-7.2
		c1-3.5,1.5-6,1.5-7.6c0-2.9-1.2-4.4-3.5-4.4c-2.2,0-4.3,1.5-6.3,4.4c-2,2.9-3.5,6.1-4.7,9.6s-2.5,6.6-4.1,9.5
		c-1.6,2.9-3.1,4.3-4.6,4.3c-1.7,0-3-1.5-3.8-4.5c-0.8-3-1.2-5.7-1.2-8.2c-2.7,4.2-5.9,7.4-9.5,9.8c-3.6,2.4-7.3,3.6-11.2,3.6
		c-3.2,0-5.6-0.9-7.4-2.7C333.4,72.3,332.5,69.7,332.5,66.2z M340.2,63.8c0,2.9,0.4,4.9,1.2,6.1s2.2,1.8,4.2,1.8
		c3.3,0,6.7-1.5,10.1-4.5c3.4-3,6.3-7.1,8.8-12.3c0.9-4.4,1.9-8.1,3.1-11c-4,0.8-7.8,1.2-11.3,1.2c-3.4,0-7-0.4-10.9-1.1
		C341.9,51.4,340.2,58,340.2,63.8z M378,35.8c4.2-3.6,7.9-8.1,11-13.5s4.6-9.4,4.6-12c-1.4,0.4-3.7,3.1-7.1,8.3
		C383.1,23.7,380.2,29.4,378,35.8z"/>
	<path d="M426.6,11c0-1.1,1.1-3,3.3-5.5c2.2-2.5,3.4-4.4,3.8-5.5c0.9,0,1.8,0.4,2.6,1.1c0.8,0.7,1.2,1.5,1.2,2.4
		c0,0.9-0.4,1.9-1.2,3.2c-0.8,1.3-1.9,2.8-3.4,4.6c-1.4,1.8-2.4,3.1-2.8,3.8C427.7,13.8,426.6,12.5,426.6,11z"/>
	<path d="M425.7,63.7c0-2.3,0.4-4.1,1.2-5.3c0.8-1.2,1.9-2.1,3.2-2.6c1.3-0.5,2-0.9,2.1-1c4.2-4.4,7.4-9,9.6-13.7v-1
		c0-4.9,1.5-7.3,4.6-7.3c1.5,0,2.3,0.7,2.4,2c0,0.2-0.1,0.7-0.3,1.4c-0.2,0.8-0.3,1.5-0.3,2.2c0,1.8,1,5.4,2.9,10.8
		c1.9,5.4,2.9,9.8,2.9,13c0,1.1-0.1,2.5-0.4,4.1c4.5-1.1,8.5-4.9,11.8-11.3l1.2,0.9c-2.7,7.9-7.4,12.4-13.9,13.4
		c-1.1,2.7-2.8,4.7-5.2,6c-2.4,1.4-5.2,2.1-8.3,2.1c-4.6,0-8.1-1.4-10.3-4.1C426.8,70.7,425.7,67.4,425.7,63.7z M431.2,63.8
		c0,2.4,0.7,4.5,2,6.4c1.3,1.8,3.1,2.8,5.5,2.8c3,0,5.1-1.3,6.4-3.9c-2.6-0.5-5-1.5-7.2-3c-2.2-1.5-4-3.1-5.3-4.9
		C431.7,61.3,431.2,62.2,431.2,63.8z M434.1,57.5c1.1,1.9,2.7,3.7,4.8,5.3c2.1,1.6,4.4,2.7,7,3.3c0.2-0.6,0.3-1.6,0.3-3.1
		c0-1.4-0.1-3-0.4-4.7c-0.3-1.7-0.5-3-0.7-4c-0.2-1-0.6-2.6-1.2-4.9c-0.6-2.3-1-3.8-1.1-4.4C439.5,50.7,436.6,54.8,434.1,57.5z"/>
	<path d="M492.8,71.7c0-0.7,0.4-1,1.1-1c0.2,0,0.6,0.1,1.3,0.4c0.7,0.3,1.8,0.5,3.2,0.8c1.4,0.2,3.1,0.3,5.1,0.3
		c11.3,0,20.7-2.2,28.3-6.7c7.6-4.5,11.4-9.6,11.4-15.5c0-7.9-8.3-11.9-25-11.9c-0.1,0-0.1,0-0.2,0c-0.8,0-2.1,0-3.7,0.1
		c-1.6,0-2.8,0-3.5,0c-1,3.6-2.4,9-4.4,16.2c-1.9,7.2-3.4,12.3-4.5,15.4c-1.9,0-3.6-0.5-5.1-1.6c-1.4-1.1-2.1-2.4-2.1-3.9
		c0-1.2,0.3-2.7,1-4.6l0.4-1.2c0.1-0.3,0.8-2.4,2-6.1l3.5-10.8l4.2-12.2c1.7-4.6,3.4-9.1,5.2-13.5c1.8-4.4,3.5-8.1,5.2-11.3
		c-2.3,0.5-4.5,1.2-6.4,2.1s-3.4,1.6-4.5,2.1c-1,0.6-1.8,0.8-2.2,0.8c-0.7,0-1.5-0.5-2.5-1.4c-1-0.9-1.5-1.7-1.5-2.4
		c3.1-1.3,5.5-2.2,7.4-2.9c1.9-0.6,4.5-1.3,7.7-1.9s6.6-0.9,10-0.9c2.2,0,4.3,0.1,6.3,0.3c2,0.2,4.2,0.6,6.6,1.3
		c2.4,0.7,4.5,1.6,6.2,2.7c1.7,1.1,3.2,2.7,4.3,4.7c1.2,2,1.8,4.4,1.8,7.1c0,9.3-7,15.6-21,19c7.6,1,13.1,3,16.5,6.1
		c3.4,3.1,5.1,6.4,5.1,10c0,4.5-1.6,8.7-4.8,12.5c-3.2,3.8-7.1,6.9-11.9,9.2c-4.7,2.3-9.6,4-14.6,5.3c-5,1.2-9.7,1.9-14,1.9
		C497,80.3,492.9,77.4,492.8,71.7z M511.7,34.4c4-0.1,7.7-0.6,11.1-1.3c3.4-0.7,6.6-1.8,9.6-3.2c3-1.4,5.4-3.3,7.1-5.7
		c1.7-2.4,2.6-5.3,2.6-8.5c0-7.9-6.3-11.9-18.8-11.9C519.5,10.9,515.7,21.1,511.7,34.4z"/>
	<path d="M553.9,64.7c0-6.1,2.1-14.5,6.3-25c4.2-10.5,8.9-19.7,14-27.6c5.1-7.9,8.9-11.9,11.4-11.9c1.1,0,2.1,0.9,2.9,2.7
		c0.8,1.8,1.2,3.6,1.3,5.4c0,3.1-1.1,7.4-3.4,13.1c-2.3,5.6-5.6,11.6-9.9,18c-4.3,6.3-8.8,11.4-13.6,15.1c-0.7,3.9-1.1,7-1.1,9.1
		c0,0.1,0,0.2,0,0.3c0,4.6,1.4,6.9,4.3,6.9c2.3,0,4.8-1.6,7.4-4.7c2.6-3.1,5-6.9,7-11.3l2.4,1.3c-2.9,6-6.1,10.7-9.7,14.1
		c-3.5,3.4-7.2,5-11,5C556.7,75.2,553.9,71.7,553.9,64.7z M564.8,48.2c5.3-5.8,10.1-12.8,14.2-21.1c4.2-8.2,6.3-14.2,6.3-17.8
		c-0.9,0-2.6,1.9-5.1,5.8c-2.5,3.9-5.3,8.9-8.3,15.2C569,36.5,566.6,42.5,564.8,48.2z"/>
	<path d="M577,66c0-4.4,1.3-8.7,3.8-12.9c2.5-4.2,5.3-6.3,8.2-6.3c0.8,0,1.8,0.3,3.1,0.8c0.4-3.1,1.5-5.7,3.2-7.7c1.7-2,4.2-3,7.4-3
		c2.8,0,4.9,0.8,6.2,2.3c1.3,1.5,2,3.5,2,5.9c0,4.6-2.3,10.3-7,17.1c0.8,0.4,1.8,0.6,2.9,0.6c1.9,0,3.9-0.6,6-1.9
		c2.1-1.2,3.8-3.1,4.9-5.7l1.8,1.3c-1.4,3.2-3.3,5.6-5.6,7.2c-2.4,1.7-4.8,2.5-7.4,2.5c-1.6,0-3.2-0.3-5.1-0.9
		c-5.5,6.6-11,10-16.5,10c-2.8,0-4.8-0.9-6-2.7C577.6,70.9,577,68.7,577,66z M585,65.7c0,3.1,1.1,4.6,3.4,4.6c2.3,0,5.5-2.3,9.4-7
		c-3.7-3.3-5.6-8.3-5.8-14.8c-1.3,0.7-2.8,3-4.5,6.9C585.9,59.5,585,62.9,585,65.7z M597.5,50.3c0,1.5,0.3,3.3,0.8,5.3
		c0.5,2,1.2,3.5,2.1,4.6c3.9-5.6,5.9-10.5,5.9-15c0-2.9-0.9-4.4-2.8-4.4c-1.4,0-2.8,0.9-4,2.8S597.5,47.6,597.5,50.3z"/>
	<path d="M613.6,93.9c0-1.6,0.5-3.2,1.4-4.8c0.9-1.6,1.9-2.9,3-3.9c1.1-1,2.7-2.2,5-3.6c2.2-1.3,3.9-2.3,5-2.8l5.7-2.8
		c1.7-4.1,3-8.2,4-12.2c-5.4,6.6-10.5,9.9-15.2,9.9c-2.7,0-4.8-0.9-6.3-2.7s-2.3-4.2-2.3-7.2c0-6.8,3.1-12.9,9.3-18.3
		c6.2-5.4,12.3-8.1,18.5-8.1c2.1,0,3.6,0.4,4.8,1.1c1.1,0.8,1.6,1.7,1.6,2.8c0,0.7-0.2,1.3-0.6,1.8c-0.4,0.5-0.7,0.8-1,0.9
		c-1.2-1.2-2.6-1.8-4.3-1.8c-0.1,0-0.1,0-0.2,0c-4.9,0-9.5,2.6-13.6,7.7c-4.1,5.1-6.2,9.9-6.2,14.4c0,2.8,1,4.2,3.1,4.2
		c1.8,0,4-1.2,6.7-3.6c2.6-2.4,5.3-5.4,7.8-9.1c0.7-3.8,1.6-6.5,2.6-8.2c1-1.7,2.4-2.5,4.3-2.5c0.9,0,1.8,0.1,2.9,0.4
		c0,1.7-0.7,5.2-2.2,10.4c-1.5,5.2-3.2,10.6-5.3,16.2c3.3-1.4,6.6-3.6,9.7-6.5c3.1-3,5.3-6.4,6.7-10.2l1.8,1.8
		c-1.5,4.2-4.1,7.9-7.9,11.3c-3.8,3.4-7.6,5.9-11.5,7.7c-6.6,16-13.3,24-20.1,24c-1.9,0-3.6-0.5-4.9-1.6
		C614.3,97.5,613.6,95.9,613.6,93.9z M618.4,92.9c0,1.9,0.6,2.8,1.8,2.8c1.3,0,3.1-1.2,5.2-3.7c2.1-2.5,4.3-6.2,6.6-11.3
		c-4.3,2.1-7.7,4.2-10.1,6.1C619.6,88.7,618.4,90.8,618.4,92.9z"/>
</g>
</symbol><symbol id="icon-ok-arrow"><g fill="none" fill-rule="evenodd"><circle fill="#17a2b8" cx="12" cy="12" r="12"/><path fill="#FFF" d="M10.776 16.32l-5.592-5.592.504-.528 5.088 5.088 8.016-8.016.504.528z"/></g></symbol><symbol id="icon-star" viewBox="0 0 49.94 49.94"><path d="M48.856 22.731a3.56 3.56 0 0 0 .906-3.671 3.56 3.56 0 0 0-2.892-2.438l-12.092-1.757a1.58 1.58 0 0 1-1.19-.865L28.182 3.043a3.56 3.56 0 0 0-3.212-1.996 3.56 3.56 0 0 0-3.211 1.996L16.352 14c-.23.467-.676.79-1.191.865L3.069 16.623A3.557 3.557 0 0 0 .178 19.06a3.56 3.56 0 0 0 .906 3.671l8.749 8.528c.373.364.544.888.456 1.4L8.224 44.702a3.559 3.559 0 0 0 1.424 3.502 3.552 3.552 0 0 0 3.772.273l10.814-5.686a1.583 1.583 0 0 1 1.472 0l10.815 5.686a3.568 3.568 0 0 0 3.772-.273 3.559 3.559 0 0 0 1.424-3.502L39.651 32.66a1.582 1.582 0 0 1 .456-1.4l8.749-8.529zM37.681 32.998l2.065 12.042a1.553 1.553 0 0 1-.629 1.547 1.558 1.558 0 0 1-1.665.121l-10.815-5.687a3.588 3.588 0 0 0-3.334.001L12.49 46.708a1.56 1.56 0 0 1-1.666-.121 1.554 1.554 0 0 1-.629-1.547l2.065-12.042a3.581 3.581 0 0 0-1.03-3.17l-8.75-8.529a1.55 1.55 0 0 1-.4-1.621c.19-.586.667-.988 1.276-1.077l12.091-1.757a3.576 3.576 0 0 0 2.697-1.959l5.407-10.957a1.551 1.551 0 0 1 1.418-.881c.616 0 1.146.329 1.419.881l5.407 10.957a3.575 3.575 0 0 0 2.696 1.959l12.092 1.757a1.552 1.552 0 0 1 1.276 1.077c.19.585.041 1.191-.4 1.621l-8.749 8.528a3.58 3.58 0 0 0-1.029 3.171z"/></symbol><symbol id="icon-talk" viewBox="0 -28 480 480"><path d="M456 136H304V24c0-13.254-10.746-24-24-24H24C10.746 0 0 10.746 0 24v192c0 13.254 10.746 24 24 24h152v78.113l-47.16 94.313a8.001 8.001 0 0 0 1.265 9.004 8.009 8.009 0 0 0 8.872 2.004L257.535 376H456c13.254 0 24-10.746 24-24V160c0-13.254-10.746-24-24-24zM24 224a8 8 0 0 1-8-8V24a8 8 0 0 1 8-8h256a8 8 0 0 1 8 8v112h-20.45a31.665 31.665 0 0 0 4.45-16c0-17.672-14.328-32-32-32s-32 14.328-32 32a31.665 31.665 0 0 0 4.45 16H200c-13.254 0-24 10.746-24 24v64zm200-104c0-8.836 7.164-16 16-16s16 7.164 16 16-7.164 16-16 16-16-7.164-16-16zm240 232a8 8 0 0 1-8 8H256c-1.02 0-2.027.191-2.977.566l-100.457 40.235 38.633-77.227A8.024 8.024 0 0 0 192 320V160a8 8 0 0 1 8-8h256a8 8 0 0 1 8 8zm0 0"/><path d="M152 88c-17.672 0-32 14.328-32 32s14.328 32 32 32 32-14.328 32-32-14.328-32-32-32zm0 48c-8.836 0-16-7.164-16-16s7.164-16 16-16 16 7.164 16 16-7.164 16-16 16zM64 88c-17.672 0-32 14.328-32 32s14.328 32 32 32 32-14.328 32-32-14.328-32-32-32zm0 48c-8.836 0-16-7.164-16-16s7.164-16 16-16 16 7.164 16 16-7.164 16-16 16zm264 88c-17.672 0-32 14.328-32 32s14.328 32 32 32 32-14.328 32-32-14.328-32-32-32zm0 48c-8.836 0-16-7.164-16-16s7.164-16 16-16 16 7.164 16 16-7.164 16-16 16zm88-48c-17.672 0-32 14.328-32 32s14.328 32 32 32 32-14.328 32-32-14.328-32-32-32zm0 48c-8.836 0-16-7.164-16-16s7.164-16 16-16 16 7.164 16 16-7.164 16-16 16zm-176-48c-17.672 0-32 14.328-32 32s14.328 32 32 32 32-14.328 32-32-14.328-32-32-32zm0 48c-8.836 0-16-7.164-16-16s7.164-16 16-16 16 7.164 16 16-7.164 16-16 16zm0 0"/></symbol><symbol id="icon-team" viewBox="0 -42 480 480"><path d="M240 144c39.766 0 72-32.234 72-72S279.766 0 240 0s-72 32.234-72 72c.043 39.746 32.254 71.957 72 72zm0-128c30.93 0 56 25.07 56 56s-25.07 56-56 56-56-25.07-56-56c.035-30.914 25.086-55.965 56-56zM72 120c22.09 0 40-17.91 40-40S94.09 40 72 40 32 57.91 32 80c.027 22.082 17.918 39.973 40 40zm0-64c13.254 0 24 10.746 24 24s-10.746 24-24 24-24-10.746-24-24 10.746-24 24-24zm336 64c22.09 0 40-17.91 40-40s-17.91-40-40-40-40 17.91-40 40c.027 22.082 17.918 39.973 40 40zm0-64c13.254 0 24 10.746 24 24s-10.746 24-24 24-24-10.746-24-24 10.746-24 24-24zm0 0"/><path d="M440 120c-1.73 0-3.414.563-4.8 1.602L408 142l-27.2-20.398A8.006 8.006 0 0 0 376 120a39.6 39.6 0 0 0-32.855 17.426A87.333 87.333 0 0 0 304 128a8.001 8.001 0 0 0-5.656 2.344L240 188.688l-58.344-58.344A8.001 8.001 0 0 0 176 128a87.333 87.333 0 0 0-39.145 9.426A39.6 39.6 0 0 0 104 120c-1.73 0-3.414.563-4.8 1.602L72 142l-27.2-20.398A8.006 8.006 0 0 0 40 120c-22.082.027-39.973 17.918-40 40v71.121a24.079 24.079 0 0 0 11.281 20.383l48.95 30.61a24.38 24.38 0 0 0 12.664 3.534 23.926 23.926 0 0 0 10.68-2.488L88 280.945v36.657a23.994 23.994 0 0 0 14.273 21.949l121.504 53.992a39.817 39.817 0 0 0 32.43 0l121.512-54A23.996 23.996 0 0 0 392 317.602v-44.68l5.297 2.629a23.977 23.977 0 0 0 21.398 0l48-24A23.88 23.88 0 0 0 480 230.078V160c-.027-22.082-17.918-39.973-40-40zM76.426 268.8a8.143 8.143 0 0 1-7.785-.343l-48.801-30.52a8.25 8.25 0 0 1-3.84-6.816V160c0-12.29 9.281-22.594 21.504-23.871l29.695 22.27a7.992 7.992 0 0 0 9.602 0l29.695-22.27a23.78 23.78 0 0 1 16.703 9.512c-.535.398-1 .87-1.527 1.28-1.238.974-2.399 2-3.602 3.032-1.535 1.336-3.03 2.695-4.46 4.125a93.938 93.938 0 0 0-3.204 3.395 85.819 85.819 0 0 0-3.87 4.617c-.942 1.215-1.864 2.398-2.743 3.695-1.16 1.656-2.227 3.36-3.266 5.086a70.407 70.407 0 0 0-2.261 3.93c-.961 1.816-1.817 3.68-2.649 5.597-.594 1.344-1.219 2.672-1.746 4.059-.8 2.008-1.39 4.063-2.016 6.137-.398 1.336-.855 2.636-1.19 4-.575 2.316-.978 4.695-1.36 7.07-.192 1.168-.473 2.313-.618 3.488A89.13 89.13 0 0 0 88 216v47.055zM376 317.603a8 8 0 0 1-4.8 7.328l-121.505 54.008a23.794 23.794 0 0 1-19.406 0L108.801 324.93a8 8 0 0 1-4.801-7.328V216a72.73 72.73 0 0 1 2.313-18.238c8.07-30.492 34.984-52.223 66.488-53.692l61.597 61.602c3.125 3.125 8.192 3.125 11.313 0l61.602-61.602c38.41 1.832 68.628 33.477 68.687 71.93zm88-87.524a8.003 8.003 0 0 1-4.465 7.203l-48 24a7.943 7.943 0 0 1-7.078 0L392 255.04V216a89.72 89.72 0 0 0-.688-10.887c-.144-1.183-.425-2.328-.617-3.496-.39-2.402-.8-4.746-1.36-7.058-.335-1.368-.8-2.68-1.198-4-.617-2.055-1.242-4.102-2-6.102-.535-1.394-1.168-2.738-1.77-4.098a74.097 74.097 0 0 0-2.625-5.52c-.71-1.35-1.504-2.663-2.285-4a103.06 103.06 0 0 0-3.2-5.023 93.673 93.673 0 0 0-2.792-3.761c-1.219-1.598-2.48-3.063-3.809-4.543a87.644 87.644 0 0 0-3.258-3.457c-1.406-1.414-2.886-2.75-4.398-4.07-1.191-1.04-2.398-2.083-3.648-3.063-.52-.41-.985-.883-1.52-1.281a23.772 23.772 0 0 1 16.695-9.512l29.672 22.27a7.992 7.992 0 0 0 9.602 0l29.695-22.27C454.72 137.406 464 147.71 464 160zm0 0"/></symbol><symbol id="icon-wifi" viewBox="0 0 54.908 54.908"><path d="M54.615 19.123C47.372 11.879 37.725 7.89 27.454 7.89S7.537 11.878.293 19.123a.999.999 0 1 0 1.414 1.414C8.573 13.67 17.717 9.889 27.454 9.889s18.881 3.781 25.747 10.647a.997.997 0 0 0 1.414 0 .998.998 0 0 0 0-1.413z"/><path d="M6.171 25a.999.999 0 1 0 1.414 1.414c10.955-10.956 28.781-10.956 39.737 0A.999.999 0 1 0 48.736 25C37.002 13.266 17.907 13.264 6.171 25z"/><path d="M27.454 24.508c-5.825 0-11.295 2.263-15.404 6.371a.999.999 0 1 0 1.414 1.414c3.731-3.73 8.699-5.785 13.99-5.785s10.259 2.055 13.99 5.785a.997.997 0 0 0 1.414 0 .999.999 0 0 0 0-1.414c-4.108-4.108-9.579-6.371-15.404-6.371zm0 9.408c-3.612 0-6.551 2.939-6.551 6.552s2.939 6.552 6.551 6.552c3.613 0 6.552-2.939 6.552-6.552s-2.939-6.552-6.552-6.552zm0 11.103c-2.51 0-4.551-2.042-4.551-4.552s2.042-4.552 4.551-4.552 4.552 2.042 4.552 4.552-2.042 4.552-4.552 4.552z"/></symbol></svg>