<svg viewBox="0 0 511 511.998" xmlns="http://www.w3.org/2000/svg"><path d="M501.426 238.11L419.203 197l82.223-41.113c14.707-7.352 14.722-28.414 0-35.778l-236-118a20.022 20.022 0 0 0-17.89 0l-236 118c-14.708 7.356-14.723 28.418 0 35.778L93.757 197l-82.223 41.11c-14.707 7.355-14.722 28.413 0 35.777L93.758 315l-82.223 41.11c-14.707 7.355-14.722 28.413 0 35.777l236 118a20.01 20.01 0 0 0 17.89 0l236-118c14.708-7.356 14.723-28.414 0-35.778L419.204 315l82.223-41.113c14.707-7.352 14.722-28.414 0-35.778zM256.48 42.36L447.758 138 256.48 233.637 65.203 138zM447.758 374L256.48 469.637 65.203 374l73.277-36.64 109.055 54.527a20.01 20.01 0 0 0 17.89 0l109.055-54.528zM256.48 351.637L65.203 256l73.277-36.64 109.055 54.527a20.01 20.01 0 0 0 17.89 0l109.055-54.528L447.758 256zm0 0"/></svg>