<svg xmlns="http://www.w3.org/2000/svg" viewBox="0 0 232.322 232.322"><path d="M224.822 23.935H7.5a7.5 7.5 0 0 0-7.5 7.5v169.451a7.5 7.5 0 0 0 7.5 7.5h217.322a7.5 7.5 0 0 0 7.5-7.5V31.435a7.5 7.5 0 0 0-7.5-7.5zm-7.5 15.001v143.091l-59.995-63.799a7.498 7.498 0 0 0-5.462-2.362h-.001a7.506 7.506 0 0 0-5.462 2.36l-25.62 27.227-34.349-45.291a7.499 7.499 0 0 0-5.976-2.968h-.006a7.499 7.499 0 0 0-5.977 2.978L15 178.861V38.936h202.322zm-9.907 154.451H22.824l57.643-76.269 33.722 44.465a7.498 7.498 0 0 0 5.578 2.957 7.525 7.525 0 0 0 5.86-2.35l26.234-27.879 55.554 59.076z"/><path d="M155.237 101.682c13.597 0 24.658-11.061 24.658-24.656 0-13.597-11.061-24.658-24.658-24.658-13.596 0-24.656 11.062-24.656 24.658 0 13.595 11.061 24.656 24.656 24.656zm0-34.315c5.326 0 9.658 4.333 9.658 9.658 0 5.324-4.332 9.656-9.658 9.656-5.325 0-9.656-4.332-9.656-9.656 0-5.325 4.332-9.658 9.656-9.658z"/></svg>