<svg xmlns="http://www.w3.org/2000/svg" viewBox="0 0 496 496"><path d="M496 320.8c0 96.8-78.4 175.2-175.2 175.2H175.2C78.4 496 0 417.6 0 320.8V175.2C0 78.4 78.4 0 175.2 0h145.6C417.6 0 496 78.4 496 175.2v145.6z" fill="#ce0909"/><path d="M0 175.2C0 78.4 78.4 0 175.2 0h145.6C417.6 0 496 78.4 496 175.2v145.6c0 96.8-78.4 175.2-175.2 175.2" fill="#b70000"/><g fill="#960000"><path d="M320.8 0C417.6 0 496 78.4 496 175.2v145.6c0 96.8-78.4 175.2-175.2 175.2"/><path d="M264.8 262.4l67.2-67.2c4.8-4.8 4.8-12 0-16.8s-12-4.8-16.8 0L248 245.6l-67.2-67.2c-4.8-4.8-12-4.8-16.8 0s-4.8 12 0 16.8l67.2 67.2-67.2 67.2c-4.8 4.8-4.8 12 0 16.8 2.4 2.4 5.6 3.2 8 3.2s5.6-.8 8-3.2l67.2-67.2 67.2 67.2c2.4 2.4 5.6 3.2 8 3.2s5.6-.8 8-3.2c4.8-4.8 4.8-12 0-16.8l-65.6-67.2z"/></g><path d="M264.8 248l67.2-67.2c4.8-4.8 4.8-12 0-16.8s-12-4.8-16.8 0L248 231.2 180.8 164c-4.8-4.8-12-4.8-16.8 0s-4.8 12 0 16.8l67.2 67.2-67.2 67.2c-4.8 4.8-4.8 12 0 16.8 2.4 2.4 5.6 3.2 8 3.2s5.6-.8 8-3.2l67.2-67.2 67.2 67.2c2.4 2.4 5.6 3.2 8 3.2s5.6-.8 8-3.2c4.8-4.8 4.8-12 0-16.8L264.8 248z" fill="#fff"/></svg>