<svg xmlns="http://www.w3.org/2000/svg" viewBox="0 0 511.627 511.627"><path d="M503.633 117.628c-5.332-5.327-11.8-7.993-19.41-7.993H365.446c-11.417 0-23.603 3.806-36.542 11.42V27.412c0-7.616-2.662-14.092-7.994-19.417C315.578 2.666 309.11 0 301.492 0H182.725c-7.614 0-15.99 1.903-25.125 5.708-9.136 3.806-16.368 8.376-21.7 13.706L19.414 135.901c-5.33 5.329-9.9 12.563-13.706 21.698C1.903 166.738 0 175.108 0 182.725v191.858c0 7.618 2.663 14.093 7.992 19.417 5.33 5.332 11.803 7.994 19.414 7.994h155.318v82.229c0 7.61 2.662 14.085 7.992 19.41 5.327 5.332 11.8 7.994 19.414 7.994h274.091c7.61 0 14.085-2.662 19.41-7.994 5.332-5.325 7.994-11.8 7.994-19.41V137.046c.002-7.614-2.66-14.088-7.992-19.418zm-174.729 52.821v85.364h-85.366l85.366-85.364zM146.178 60.813v85.364H60.814l85.364-85.364zm55.961 184.722c-5.33 5.33-9.9 12.564-13.706 21.701-3.805 9.141-5.708 17.508-5.708 25.126v73.083H36.547v-182.72h118.766c7.616 0 14.087-2.664 19.417-7.994 5.327-5.33 7.994-11.801 7.994-19.412V36.547h109.637v118.771l-90.222 90.217zm272.939 229.55H219.263v-182.73h118.775c7.614 0 14.082-2.662 19.41-7.994 5.328-5.325 7.994-11.797 7.994-19.41V146.178h109.629v328.907h.007z"/></svg>