<svg xmlns="http://www.w3.org/2000/svg" viewBox="0 0 64 64" width="512" height="512"><path d="M57 4H7a5.006 5.006 0 0 0-5 5v36a5.006 5.006 0 0 0 5 5h16.867l-.75 6H22a2 2 0 0 0-2 2v2h-2v2h28v-2h-2v-2a2 2 0 0 0-2-2h-1.117l-.75-6H57a5.006 5.006 0 0 0 5-5V9a5.006 5.006 0 0 0-5-5zM7 6h50a3 3 0 0 1 3 3v31H4V9a3 3 0 0 1 3-3zm35 54H22v-2h20zm-3.133-4H25.133l.75-6h12.234zM57 48H7a3 3 0 0 1-3-3v-3h56v3a3 3 0 0 1-3 3z"/><path d="M55 44h2v2h-2zM22.219 17.988a10.86 10.86 0 0 0-.679 1.639l-2.682.383A1 1 0 0 0 18 21v4a1 1 0 0 0 .858.99l2.682.383a10.86 10.86 0 0 0 .679 1.639l-1.625 2.166a1 1 0 0 0 .093 1.307l2.828 2.828a1 1 0 0 0 1.306.093l2.167-1.624a10.855 10.855 0 0 0 1.639.678l.383 2.682A1 1 0 0 0 30 37h4a1 1 0 0 0 .99-.858l.383-2.682a10.9 10.9 0 0 0 1.639-.678l2.167 1.624a1 1 0 0 0 1.306-.093l2.828-2.828a1 1 0 0 0 .093-1.307l-1.625-2.166a10.86 10.86 0 0 0 .679-1.639l2.682-.383A1 1 0 0 0 46 25v-4a1 1 0 0 0-.858-.99l-2.682-.383a10.86 10.86 0 0 0-.679-1.639l1.625-2.166a1 1 0 0 0-.093-1.307l-2.828-2.828a1 1 0 0 0-1.306-.093l-2.167 1.624a10.9 10.9 0 0 0-1.639-.678l-.383-2.682A1 1 0 0 0 34 9h-4a1 1 0 0 0-.99.858l-.383 2.682a10.855 10.855 0 0 0-1.639.678l-2.167-1.624a.994.994 0 0 0-1.306.093l-2.828 2.828a1 1 0 0 0-.093 1.307zm1.987-.683l-1.492-1.99 1.6-1.6 1.991 1.492a1 1 0 0 0 1.11.06 8.859 8.859 0 0 1 2.356-.975 1 1 0 0 0 .744-.828L30.867 11h2.266l.351 2.463a1 1 0 0 0 .744.828 8.859 8.859 0 0 1 2.356.975 1 1 0 0 0 1.11-.06l1.991-1.492 1.6 1.6-1.492 1.99a1 1 0 0 0-.061 1.111 8.923 8.923 0 0 1 .977 2.357 1 1 0 0 0 .827.742l2.464.353v2.266l-2.463.352a1 1 0 0 0-.827.742 8.923 8.923 0 0 1-.977 2.357 1 1 0 0 0 .061 1.111l1.492 1.99-1.6 1.6-1.991-1.492a1 1 0 0 0-1.11-.06 8.859 8.859 0 0 1-2.356.975 1 1 0 0 0-.744.828L33.133 35h-2.266l-.351-2.463a1 1 0 0 0-.744-.828 8.859 8.859 0 0 1-2.356-.975 1 1 0 0 0-1.11.06l-1.991 1.492-1.6-1.6 1.492-1.99a1 1 0 0 0 .061-1.111 8.923 8.923 0 0 1-.977-2.357 1 1 0 0 0-.827-.742L20 24.133v-2.266l2.463-.352a1 1 0 0 0 .827-.742 8.923 8.923 0 0 1 .977-2.357 1 1 0 0 0-.061-1.111z"/><path d="M32 29a6 6 0 1 0-6-6 6.006 6.006 0 0 0 6 6zm0-10a4 4 0 1 1-4 4 4 4 0 0 1 4-4zm16.414-7H50v-2h-2a1 1 0 0 0-.707.293l-3 3 1.414 1.414zM52 9h4v2h-4zm0 4h4v2h-4zm-6.293 17.293l-1.414 1.414 3 3A1 1 0 0 0 48 35h2v-2h-1.586zM52 31h4v2h-4zm0 4h4v2h-4zM18.293 14.707l1.414-1.414-3-3A1 1 0 0 0 16 10h-2v2h1.586zM8 9h4v2H8zm0 4h4v2H8zm8.707 21.707l3-3-1.414-1.414L15.586 33H14v2h2a1 1 0 0 0 .707-.293zM8 31h4v2H8zm0 4h4v2H8zm23-22h2v2h-2zm-6.778 3.636l1.414-1.414 1.414 1.415-1.414 1.413zM22 22h2v2h-2zm2.222 7.364l1.414-1.415 1.415 1.414-1.414 1.415zM31 31h2v2h-2zm5.95-1.636l1.414-1.414 1.414 1.415-1.414 1.414zM40 22h2v2h-2zm-3.05-5.364l1.414-1.414 1.414 1.414-1.414 1.414z"/></svg>