<svg width="130" height="22" fill="none" xmlns="http://www.w3.org/2000/svg"><path fill-rule="evenodd" clip-rule="evenodd" d="M66.837 1.512L64.011 3.01l3.038.082c1.67.045 4.405.045 6.076 0l3.038-.082-2.892-1.512C71.681.666 70.22-.008 70.021 0c-.197.008-1.63.689-3.184 1.512zm-2.685 5.675v3.457h5.37v-2.88h-1.413c-1.068 0-1.413-.106-1.413-.433 0-.362.596-.432 3.674-.432 3.077 0 3.673.07 3.673.432 0 .332-.36.432-1.554.432h-1.554v2.902l2.614-.082 2.614-.083.08-3.385.08-3.385H64.151v3.457zM45.8 5.697c-1.044.57-1.996 2.083-1.996 3.17 0 1.896 1.596 3.397 4.188 3.94 1.055.22 1.417.803.896 1.442-.517.635-1.957.514-3.317-.279l-1.201-.7v1.56c0 1.467.055 1.59.918 2.058 1.357.734 4.178.697 5.207-.069 1.139-.848 1.888-2.514 1.668-3.71-.28-1.525-1.14-2.389-2.93-2.941-2.046-.632-2.434-.91-2.006-1.435.458-.563 2.215-.486 3.442.152l1.048.545V6.097l-1.136-.463c-1.513-.617-3.587-.59-4.78.063zm9.102-.115c-1.78.82-2.555 3.24-1.626 5.072.489.962 1.442 1.537 3.368 2.032 1.506.386 1.934 1.005 1.125 1.623-.714.545-2.507.304-3.54-.474-.436-.33-.862-.598-.946-.598-.084 0-.153.628-.153 1.396 0 1.65.419 2.14 2.25 2.637 3.183.865 5.663-.777 5.663-3.75 0-2.03-.71-2.726-3.71-3.634-.821-.248-1.377-.584-1.377-.832 0-.91 2.748-.87 4.14.06l.665.444v-1.61c0-1.425-.087-1.67-.748-2.112-.996-.664-3.904-.809-5.11-.254zm38.076.216c-1.787.94-2.543 2.53-2.543 5.348 0 3.406 1.185 5.454 3.546 6.128 2.532.722 5.15-.314 6.204-2.457.44-.893.565-1.723.565-3.74 0-4.105-1.169-5.594-4.567-5.82-1.626-.108-2.135-.022-3.205.54zm21.878-.233c-.479.221-1.159.774-1.511 1.228-.535.69-.619 1.083-.514 2.387.151 1.872.816 2.591 3.092 3.341 1.979.653 2.402 1.052 1.784 1.683-.658.67-1.826.587-3.35-.239l-1.314-.712v1.514c0 1.367.08 1.563.825 2.01 3.056 1.841 7.084.123 7.087-3.023.003-2.094-.866-3.007-3.67-3.856-1.406-.425-1.838-1.043-.968-1.384.802-.313 1.932-.172 3.156.394l1.201.556V7.9c0-1.373-.091-1.625-.748-2.064-.978-.653-3.904-.81-5.07-.271zM0 11.365v5.905h2.826v-4.321h5.087v-2.881H2.826V8.34h5.087V5.459H0v5.905zm9.043 0v5.905h3.109V5.459H9.043v5.905zm4.24-4.466v1.44h3.108V17.3l1.484-.087 1.484-.087.078-4.393.078-4.393h2.811V5.459h-9.043v1.44zm10.173 4.454v5.917h3.109l.013-3.817.012-3.817 1.585 3.829 1.585 3.829 1.864-.084 1.865-.084.077-5.834.076-5.833h-3.12l-.015 3.385-.016 3.385-1.223-3.313-1.224-3.313-2.294-.084-2.294-.084v5.918zm11.588.011v5.906h7.912V14.1h-2.402c-2.374 0-2.402-.008-2.402-.72s.028-.72 2.402-.72h2.402V9.78h-2.402c-2.374 0-2.402-.008-2.402-.72s.028-.72 2.402-.72h2.402V5.459h-7.912v5.905zm44.652 0v5.906h2.826v-4.61h3.391v4.609h3.109V5.459h-3.109v4.32h-3.391V5.46h-2.826v5.905zm22.609-1.368c.001 3.989.068 4.648.552 5.458.863 1.442 1.852 1.95 3.808 1.955 2.19.006 3.384-.516 4.186-1.83.578-.947.647-1.474.738-5.583l.101-4.537h-3.168v3.889c0 3.505-.056 3.946-.565 4.465-.666.678-1.376.734-2.137.168-.489-.365-.559-.85-.646-4.466l-.098-4.056h-2.772l.001 4.537zm19.782 1.368v5.906H130V14.1h-2.563c-2.497 0-2.561-.017-2.473-.648.085-.608.243-.653 2.563-.732l2.473-.083V9.78h-2.543c-2.525 0-2.544-.005-2.544-.72 0-.714.019-.72 2.544-.72H130V5.46h-7.913v5.905zm-25.156-2.51c.68.562 1.065 2.614.738 3.94-.45 1.826-2.204 2.427-3.432 1.176-.584-.596-.694-.983-.694-2.462s.11-1.866.694-2.461c.82-.836 1.828-.907 2.694-.192zm-32.779 5.823v3.457h12.152V11.22h-5.369v3.169h1.554c1.193 0 1.554.1 1.554.432 0 .362-.596.432-3.673.432-3.078 0-3.674-.07-3.674-.432 0-.326.345-.432 1.413-.432h1.413V11.22h-5.37v3.457zm7.56 1.364c-.739.06-1.946.06-2.685 0-.738-.06-.134-.108 1.343-.108 1.476 0 2.08.049 1.342.108zm-7.461 2.885c.072.119 1.415.86 2.984 1.645L70.087 22l2.852-1.429c1.569-.786 2.912-1.526 2.984-1.645.073-.118-2.553-.216-5.836-.216-3.282 0-5.909.098-5.836.216z" fill="#42474D"/></svg>