<svg width="21" height="22" fill="currentColor" xmlns="http://www.w3.org/2000/svg"><path d="M10.5 11c.481 0 .893-.171 1.236-.514.343-.343.514-.755.514-1.236s-.171-.893-.514-1.236A1.687 1.687 0 0010.5 7.5c-.481 0-.893.171-1.236.514A1.686 1.686 0 008.75 9.25c0 .481.171.893.514 1.236.343.342.755.514 1.236.514zm0 8.75c-2.348-1.998-4.101-3.854-5.26-5.568C4.08 12.47 3.5 10.883 3.5 9.425c0-2.188.704-3.93 2.111-5.228C7.018 2.899 8.648 2.25 10.5 2.25c1.852 0 3.482.649 4.889 1.947S17.5 7.237 17.5 9.425c0 1.458-.58 3.044-1.739 4.757-1.16 1.714-2.913 3.57-5.261 5.568z"/></svg>