<svg width="201" height="202" fill="none" xmlns="http://www.w3.org/2000/svg"><g filter="url(#filter0_d_3386_10549)"><rect x="29" y="24" width="145" height="145" rx="72.5" fill="#fff"/><path d="M101.886 131.689c19.164 0 34.699-15.535 34.699-34.7 0-19.163-15.535-34.698-34.699-34.698-19.164 0-34.698 15.535-34.698 34.699 0 19.164 15.534 34.699 34.698 34.699z" fill="#E2F0FB" stroke="#42474D" stroke-width="2.32" stroke-linecap="round" stroke-linejoin="round"/><path d="M90.68 97.788v-5.795c0-7.217 5.1-10.166 11.346-6.558l5.032 2.915 5.031 2.915c6.246 3.608 6.246 9.507 0 13.116l-5.031 2.914-5.032 2.915c-6.246 3.609-11.346.659-11.346-6.558v-5.864zm67.678 6.279l-.741-1.092a1.69 1.69 0 00.636-.72 2.43 2.43 0 00.275-.953c.057-.773-.161-1.427-.655-1.96-.495-.527-1.14-.819-1.935-.877-.831-.061-1.525.122-2.083.55-.55.434-.854 1.042-.912 1.823-.059.803.19 1.441.746 1.914l-.843 1.029c-.836-.774-1.208-1.789-1.116-3.043.087-1.19.531-2.136 1.332-2.841.808-.704 1.803-1.013 2.986-.926 1.196.088 2.128.545 2.795 1.372.673.835.966 1.85.878 3.047a4.205 4.205 0 01-.415 1.536c-.231.502-.547.882-.948 1.141zm-6.687.706l7.38 1.939-.54 2.054-5.747.54-.008.031 4.744 3.275-.543 2.064-7.379-1.94.342-1.303 5.931 1.559.006-.021-5.342-3.8.241-.917 6.512-.651.005-.021-5.931-1.559.329-1.25zm.722 11.705c1.082.536 1.779 1.306 2.092 2.31.309 1.011.199 2.051-.33 3.12-.536 1.081-1.299 1.806-2.291 2.173-.991.367-2.028.282-3.109-.253-1.063-.526-1.76-1.304-2.092-2.334-.328-1.021-.226-2.068.306-3.144.526-1.062 1.294-1.772 2.305-2.13 1.017-.354 2.057-.268 3.119.258zm-.655 1.323c-.734-.363-1.447-.444-2.141-.242-.686.205-1.2.652-1.541 1.341-.345.696-.39 1.379-.137 2.049.26.674.757 1.192 1.491 1.556.714.354 1.418.43 2.112.228.69-.196 1.208-.645 1.556-1.346.344-.696.386-1.38.127-2.054-.263-.667-.752-1.178-1.467-1.532zm-8.438 7.293l5.226 3.772 1.368-1.896.962.694-3.533 4.893-.961-.693 1.369-1.897-5.226-3.772.795-1.101zm-3.124 4.184l5.55 5.236-1.709 1.811c-1.316 1.395-2.51 1.588-3.581.577-.575-.542-.806-1.135-.692-1.779.113-.644.473-1.287 1.08-1.93l.717-.76-2.297-2.167.932-.988zm2.196 3.939l-.651.69c-.774.82-.889 1.487-.346 1.999.298.281.605.364.922.248.312-.111.641-.349.986-.715l.68-.721-1.591-1.501zm-6.95.956l4.798 5.933-3.931 3.178-.745-.922 2.874-2.324-1.219-1.509-2.724 2.203-.718-.889 2.723-2.202-1.355-1.676-3.025 2.446-.759-.938 4.081-3.3zm-6.666 5.009l3.339 5.512 2-1.211.614 1.014-5.162 3.126-.614-1.014 2.001-1.211-3.339-5.513 1.161-.703zm-4.558 2.642l3.051 6.994-1.244.543-1.211-2.776-1.037.453c-.791.344-1.502.447-2.135.308-.64-.137-1.113-.557-1.421-1.262-.304-.698-.29-1.331.042-1.899.325-.566.877-1.018 1.654-1.357l2.301-1.004zm-.787 1.59l-.939.41c-.988.43-1.328.998-1.02 1.703.152.349.395.556.73.622.337.072.742.005 1.217-.202l.938-.409-.926-2.124zm-9.766 2.227l1.376 6.296 2.284-.499.254 1.158-5.896 1.289-.253-1.158 2.284-.5-1.376-6.296 1.327-.29zm-5.154 1.035l.617 7.606-2.481.201c-1.912.155-2.928-.501-3.047-1.969-.064-.788.162-1.383.677-1.785.515-.402 1.213-.639 2.094-.711l1.042-.084-.256-3.148 1.354-.11zm-1.006 4.396l-.945.077c-1.124.091-1.656.509-1.596 1.254.033.408.207.675.519.801.306.127.71.17 1.211.129l.988-.08-.177-2.181zm-5.984-3.94l-.412 7.619-5.047-.273.064-1.184 3.69.2.105-1.937-3.497-.189.062-1.141 3.497.189.117-2.152-3.885-.21.065-1.205 5.241.283zm-6.721-.393l-1.572 7.466-1.329-.28.635-3.016-3.49-.735-.636 3.016-1.328-.28 1.572-7.466 1.329.28-.698 3.311 3.491.735.697-3.311 1.33.28zm-8.524-1.918l-2.84 7.082-1.26-.506 2.078-5.181-.03-.012-5.4 3.849-1.36-.545 2.84-7.082 1.261.506-2.062 5.141.02.008 5.373-3.813 1.38.553zm-8.086-3.45l-3.906 6.555-2.139-1.274c-1.648-.982-2.095-2.106-1.34-3.371.404-.679.932-1.033 1.585-1.062.653-.029 1.36.182 2.118.634l.899.536 1.616-2.713 1.166.695zm-3.368 2.999l-.815-.485c-.969-.578-1.645-.545-2.027.097-.21.351-.223.669-.041.953.175.281.48.55.912.807l.851.507 1.12-1.879zm-4.61-3.244c-.78.922-1.694 1.414-2.744 1.476-1.055.058-2.039-.298-2.95-1.068-.921-.779-1.441-1.694-1.56-2.744-.119-1.051.212-2.037.99-2.959.766-.905 1.689-1.395 2.768-1.471 1.07-.074 2.063.276 2.979 1.051.905.765 1.41 1.681 1.515 2.748.1 1.073-.233 2.061-.998 2.967zm-1.127-.953c.528-.626.778-1.299.748-2.021-.035-.716-.345-1.322-.933-1.818-.592-.501-1.244-.709-1.956-.624-.716.091-1.339.449-1.868 1.074-.514.609-.757 1.275-.727 1.996.024.717.336 1.328.934 1.834.592.501 1.247.706 1.963.615.71-.095 1.324-.447 1.839-1.056zm-4.003-8.656l-5.845 4.905-1.912-2.279c-.416-.495-.648-1.018-.697-1.568-.053-.555.168-1.041.663-1.456.32-.268.665-.404 1.038-.407.372-.003.737.113 1.094.348l.016-.014c-.269-.421-.38-.849-.331-1.283.048-.434.265-.813.65-1.137a2.15 2.15 0 01.96-.482c.327-.068.644-.048.951.061.307.108.597.263.87.466.273.202.532.449.776.741l1.767 2.105zm-5.86 3.144l1.52-1.275-.776-.924c-.291-.347-.582-.553-.872-.62-.29-.066-.561.007-.814.22-.26.217-.365.465-.318.745.041.284.228.624.56 1.02l.7.834zm2.411-2.023l1.7-1.427-.782-.933c-.73-.869-1.386-1.059-1.97-.57-.297.25-.423.529-.379.839.044.31.249.682.614 1.117l.817.974zm-1.472-7.127l-6.526 3.953-.704-1.161 2.82-1.709-.016-.028-4.473-1.019-.95-1.568 4.863 1.226 1.541-5.381.988 1.631-1.536 4.849.017.028 3.273-1.982.703 1.161zm-3.944-6.61l-7.082 2.841-.505-1.26 5.181-2.079-.012-.03-6.513-1.242-.546-1.361 7.082-2.84.506 1.26-5.142 2.062.008.02 6.47 1.249.553 1.38zM44.908 89.176l.74 1.092a1.694 1.694 0 00-.636.72c-.159.305-.25.623-.275.953-.057.773.162 1.427.656 1.96.494.526 1.14.819 1.935.877.83.061 1.525-.122 2.082-.55.55-.434.855-1.042.912-1.823.06-.803-.19-1.44-.745-1.914l.843-1.03c.836.775 1.208 1.79 1.116 3.043-.087 1.19-.532 2.137-1.332 2.842-.809.704-1.804 1.013-2.986.926-1.197-.088-2.128-.545-2.795-1.372-.674-.835-.967-1.85-.879-3.047.04-.53.178-1.042.416-1.536.23-.502.547-.882.948-1.141zm6.675-.672l-7.38-1.94.54-2.053 5.747-.54.008-.031-4.744-3.275.543-2.064 7.379 1.94-.343 1.303-5.93-1.56-.006.022 5.342 3.8-.241.917-6.512.65-.005.021 5.93 1.56-.328 1.25zm-.769-11.643c-1.082-.535-1.78-1.305-2.092-2.31-.309-1.01-.199-2.05.33-3.12.536-1.08 1.3-1.805 2.29-2.172.992-.367 2.029-.283 3.11.252 1.063.526 1.76 1.305 2.092 2.335.328 1.02.226 2.068-.306 3.143-.526 1.063-1.294 1.772-2.305 2.13-1.017.354-2.057.268-3.12-.258zm.655-1.323c.734.364 1.447.444 2.14.242.688-.205 1.201-.652 1.542-1.34.345-.696.39-1.38.137-2.05-.26-.673-.757-1.192-1.49-1.555-.715-.354-1.42-.43-2.113-.228-.69.195-1.208.644-1.556 1.346-.344.695-.386 1.38-.127 2.053.263.668.752 1.178 1.467 1.532zm8.473-7.375l-5.225-3.772-1.37 1.897-.96-.694 3.532-4.894.961.694-1.369 1.896 5.226 3.772-.795 1.101zm3.173-4.266l-5.53-5.257 1.714-1.804c1.322-1.39 2.516-1.579 3.584-.564.573.544.801 1.138.686 1.782-.116.643-.478 1.285-1.087 1.925l-.72.758 2.288 2.175-.935.985zm-2.181-3.947l.653-.687c.777-.818.895-1.484.353-1.999-.297-.282-.604-.366-.921-.251-.312.11-.642.347-.988.711l-.683.719 1.586 1.507zm6.722-.75l-4.798-5.932 3.93-3.178.746.922-2.874 2.324 1.22 1.508 2.723-2.202.718.888-2.723 2.203 1.355 1.676 3.025-2.447.76.939-4.082 3.3zm6.713-5.074l-3.339-5.512-2 1.212-.614-1.014 5.162-3.127.614 1.014-2 1.212 3.338 5.512-1.161.703zm4.701-2.746l-3.025-7.005 1.247-.538 1.2 2.78 1.04-.448c.79-.342 1.503-.442 2.135-.3.64.139 1.111.56 1.416 1.267.302.699.285 1.332-.049 1.899-.328.564-.88 1.014-1.659 1.35l-2.305.995zm.794-1.587l.94-.405c.989-.428 1.331-.994 1.026-1.7-.15-.35-.393-.558-.727-.625-.337-.073-.743-.008-1.218.197l-.94.406.919 2.128zm9.636-2.188l-1.376-6.296-2.285.5-.253-1.158 5.896-1.29.253 1.159-2.285.5 1.376 6.295-1.326.29zm5.091-1.046l-.617-7.605 2.481-.202c1.912-.155 2.928.501 3.047 1.97.064.787-.162 1.382-.677 1.784-.515.402-1.213.64-2.094.71l-1.042.085.256 3.148-1.354.11zm1.006-4.396l.945-.077c1.124-.091 1.656-.51 1.596-1.254-.033-.408-.207-.675-.52-.801-.305-.127-.709-.17-1.21-.129l-.988.08.177 2.18zm5.82 3.906l.412-7.62 5.047.274-.064 1.183-3.691-.2-.105 1.938 3.498.189-.062 1.14-3.497-.188-.117 2.152 3.885.21-.065 1.205-5.241-.283zm6.713.338l1.572-7.467 1.329.28-.635 3.016 3.491.735.635-3.016 1.328.28-1.572 7.466-1.329-.28.698-3.31-3.491-.736-.697 3.311-1.329-.28zm8.864 1.973l2.866-7.071 1.259.51-2.098 5.173.03.013 5.414-3.83 1.358.551-2.867 7.071-1.258-.51 2.081-5.133-.02-.009-5.387 3.794-1.378-.56zm7.903 3.35l3.905-6.555 2.139 1.274c1.648.981 2.095 2.105 1.341 3.37-.404.68-.933 1.033-1.586 1.063-.653.029-1.359-.183-2.118-.635l-.898-.535-1.616 2.713-1.167-.695zm3.367-3l.815.486c.969.577 1.645.545 2.027-.097.21-.352.224-.67.042-.954-.176-.28-.48-.55-.912-.807l-.852-.507-1.12 1.88zm4.739 3.312c.779-.922 1.694-1.414 2.744-1.477 1.056-.057 2.039.299 2.95 1.069.922.779 1.442 1.694 1.56 2.744.119 1.05-.211 2.037-.991 2.959-.765.905-1.687 1.395-2.767 1.47-1.069.075-2.062-.276-2.979-1.05-.905-.765-1.41-1.682-1.515-2.748-.1-1.073.233-2.062.998-2.967zm1.128.953c-.529.626-.778 1.299-.749 2.02.035.716.346 1.322.933 1.819.592.5 1.244.709 1.956.623.717-.09 1.339-.448 1.868-1.074.515-.609.757-1.274.727-1.995-.024-.717-.335-1.328-.933-1.834-.593-.5-1.247-.706-1.964-.615-.711.095-1.323.447-1.838 1.056zm3.975 8.591l5.845-4.904 1.912 2.278c.416.495.648 1.018.697 1.568.053.556-.168 1.041-.663 1.457-.319.267-.665.403-1.038.406-.372.003-.737-.113-1.094-.348l-.016.014c.269.421.379.849.331 1.283-.048.435-.265.814-.65 1.137a2.145 2.145 0 01-.96.482 1.737 1.737 0 01-.951-.06 3.301 3.301 0 01-.87-.466 4.545 4.545 0 01-.776-.742l-1.767-2.105zm5.859-3.144l-1.519 1.275.776.925c.291.346.582.553.872.619.29.066.561-.007.814-.22.259-.217.365-.465.318-.744-.041-.284-.228-.625-.561-1.02l-.7-.835zm-2.41 2.023l-1.701 1.427.783.933c.73.87 1.386 1.06 1.97.57.297-.25.423-.529.379-.839-.044-.31-.249-.682-.614-1.117l-.817-.974zm1.511 7.145l6.526-3.953.704 1.162-2.821 1.708.017.028 4.473 1.02.949 1.567-4.862-1.226-1.541 5.382-.988-1.632 1.536-4.849-.017-.027-3.272 1.982-.704-1.162zm3.959 6.598l7.082-2.84.506 1.26-5.182 2.078.012.03 6.514 1.243.545 1.36-7.081 2.84-.506-1.26 5.141-2.062-.008-.02-6.469-1.248-.554-1.38z" fill="#42474D"/></g><defs><filter id="filter0_d_3386_10549" x="0" y=".8" width="200.68" height="200.68" filterUnits="userSpaceOnUse" color-interpolation-filters="sRGB"><feFlood flood-opacity="0" result="BackgroundImageFix"/><feColorMatrix in="SourceAlpha" values="0 0 0 0 0 0 0 0 0 0 0 0 0 0 0 0 0 0 127 0" result="hardAlpha"/><feOffset dx="-1.16" dy="4.64"/><feGaussianBlur stdDeviation="13.92"/><feComposite in2="hardAlpha" operator="out"/><feColorMatrix values="0 0 0 0 0 0 0 0 0 0 0 0 0 0 0 0 0 0 0.1 0"/><feBlend in2="BackgroundImageFix" result="effect1_dropShadow_3386_10549"/><feBlend in="SourceGraphic" in2="effect1_dropShadow_3386_10549" result="shape"/></filter></defs></svg>