<svg viewBox="0 0 33 28" fill="none" xmlns="http://www.w3.org/2000/svg"><path d="M22.32 18.743H11.033c-.666 0-1.227.813-1.236 1.821-.008 1.009.553 1.846 1.212 1.846h11.295c.659 0 1.22-.813 1.228-1.822.008-1.008-.545-1.845-1.212-1.845zM19.295 7.635a2.635 2.635 0 11-1.62-2.434 2.627 2.627 0 011.62 2.434z" fill="#42474D"/><path d="M19.108 12.083H14.23a.293.293 0 00-.26.309v9.156a.3.3 0 00.26.317h2.188a.26.26 0 01.512 0h2.187a.301.301 0 00.26-.317v-9.156a.292.292 0 00-.268-.31z" fill="#42474D"/><path d="M24.678 19.182l-.382-.285A11.233 11.233 0 0122.5 17.02a8.528 8.528 0 01-.935-1.684c-.195-.504-.35-1.016-.585-1.512a5.4 5.4 0 00-2.383-2.57 3.904 3.904 0 00-1.049-.357 2.828 2.828 0 00-.594-.066h-.35a3.822 3.822 0 00-1.667.358 5.351 5.351 0 00-2.488 2.44c-.252.48-.43.984-.642 1.488a8.518 8.518 0 01-1.008 1.626 10.721 10.721 0 01-1.879 1.814 4.66 4.66 0 01-.39.26 1.065 1.065 0 00-.399 1.431 1.049 1.049 0 001.424.398 10.57 10.57 0 001.626-1.252 10.302 10.302 0 002.44-3.293c.154-.35.284-.7.43-1.05.184-.404.41-.789.675-1.146.177-.21.373-.404.586-.577.177-.126.368-.233.569-.317.16-.056.322-.1.488-.13h.341c.065.007.13.007.196 0h.146c.167.032.33.081.488.146.192.096.374.21.545.341.21.18.4.382.569.602.248.368.458.76.626 1.171.138.358.252.716.39 1.066a10.14 10.14 0 002.326 3.39c.48.492 1.005.936 1.57 1.326a1.05 1.05 0 101.097-1.79l.017.05z" fill="#42474D"/></svg>