<svg width="31" height="32" fill="none" xmlns="http://www.w3.org/2000/svg"><path fill="currentColor" d="M15.013 5.543c.328-1.062 1.83-1.062 2.158 0l2.108 6.82a1.13 1.13 0 001.079.795h6.935c1.08 0 1.545 1.372.686 2.028l-5.707 4.36a1.13 1.13 0 00-.393 1.23l2.156 6.98c.325 1.05-.89 1.898-1.765 1.23l-5.492-4.195a1.13 1.13 0 00-1.372 0l-5.492 4.196c-.874.667-2.09-.18-1.765-1.232l2.156-6.978a1.13 1.13 0 00-.393-1.232l-5.707-4.36c-.859-.655-.395-2.027.686-2.027h6.935a1.13 1.13 0 001.08-.796l2.107-6.82z"/></svg>