<svg width="40" height="40" fill="none" xmlns="http://www.w3.org/2000/svg"><rect width="40" height="40" rx="20" fill="#E7EBF0"/><rect x=".5" y=".5" width="39" height="39" rx="19.5" stroke="url(#paint0_linear)" stroke-opacity=".3" style="mix-blend-mode:hard-light"/><rect x="8.5" y="4.5" width="23" height="23" rx="11.5" fill="#fff" stroke="#2E3A59"/><rect x="16.5" y="32.5" width="7" height="4" rx="1.5" fill="#FFD058" stroke="#2E3A59"/><path d="M14.5 26.5h11V33a1.5 1.5 0 01-1.5 1.5h-8a1.5 1.5 0 01-1.5-1.5v-6.5z" fill="#A6ABBD" stroke="#2E3A59"/><path fill="#2E3A59" d="M15 28h1v1h-1zm9 0h1v1h-1zm-9 2h1v1h-1zm9 0h1v1h-1zm-9 2h1v1h-1zm9 0h1v1h-1zM5.99 33.803l27.8-27.798.707.707-27.8 27.798z"/><defs><linearGradient id="paint0_linear" x1="41.538" y1="40.769" x2="-2.154" y2="-1.231" gradientUnits="userSpaceOnUse"><stop stop-color="#fff"/><stop offset="1" stop-color="#fff" stop-opacity="0"/></linearGradient></defs></svg>