<svg xmlns="http://www.w3.org/2000/svg" xmlns:xlink="http://www.w3.org/1999/xlink"><defs><style>.cls-1{fill:#fff;fill-rule:evenodd}</style></defs><symbol id="icon-add" viewBox="0 0 47 47"><path d="M23 47a2 2 0 002-2V24.619h19.5a2 2 0 000-4H25V2a2 2 0 00-4 0v18.619H2.5a2 2 0 000 4H21V45a2 2 0 002 2z"/></symbol><symbol id="icon-address" viewBox="0 0 7.2 6.48"><g data-name="&#x421;&#x43B;&#x43E;&#x439; 2"><path d="M3.6 1.44V0H0v6.48h7.2v-5zM1.44 5.76H.72V5h.72v.72zm0-1.44H.72V3.6h.72v.72zm0-1.44H.72v-.72h.72v.72zm0-1.44H.72V.72h.72v.72zm1.44 4.32h-.72V5h.72v.72zm0-1.44h-.72V3.6h.72v.72zm0-1.44h-.72v-.72h.72v.72zm0-1.44h-.72V.72h.72v.72zm3.6 4.32H3.6V5h.72v-.68H3.6V3.6h.72v-.72H3.6v-.72h2.88v3.6zm-.72-2.88v.72H5v-.72zm0 1.44V5H5v-.68z" fill="#1b608e" fill-rule="evenodd" data-name="Layer 1"/></g></symbol><symbol id="icon-arrow_left" viewBox="0 0 14.4 15.71"><g data-name="&#x421;&#x43B;&#x43E;&#x439; 2"><g data-name="Layer 1" fill-rule="evenodd"><path d="M7.2 15.71A7.2 7.2 0 100 8.51a7.21 7.21 0 007.2 7.2z" fill="#e6e6e6"/><path d="M7.2 14.4A7.2 7.2 0 100 7.2a7.21 7.21 0 007.2 7.2z" fill="#fff"/><path fill="#ccc" d="M6.52 5.24L4.7 7.06l-.14.14.14.14 1.82 1.82.28-.29L5.33 7.4h4.51V7H5.33L6.8 5.53l-.28-.29z"/></g></g></symbol><symbol id="icon-arrow_left_a" viewBox="0 0 14.4 15.71"><g data-name="&#x421;&#x43B;&#x43E;&#x439; 2"><g data-name="Layer 1" fill-rule="evenodd"><path d="M7.2 15.71A7.2 7.2 0 100 8.51a7.21 7.21 0 007.2 7.2z" fill="#e6e6e6"/><path d="M7.2 14.4A7.2 7.2 0 100 7.2a7.21 7.21 0 007.2 7.2z" fill="#fff"/><path fill="#1b608e" d="M6.52 5.24L4.7 7.06l-.14.14.14.14 1.82 1.82.28-.29L5.33 7.4h4.51V7H5.33L6.8 5.53l-.28-.29z"/></g></g></symbol><symbol id="icon-arrow_right" viewBox="0 0 14.4 15.71"><g data-name="&#x421;&#x43B;&#x43E;&#x439; 2"><g data-name="Layer 1" fill-rule="evenodd"><path d="M7.2 15.71A7.2 7.2 0 100 8.51a7.21 7.21 0 007.2 7.2z" fill="#e6e6e6"/><path d="M7.2 14.4A7.2 7.2 0 100 7.2a7.21 7.21 0 007.2 7.2z" fill="#fff"/><path fill="#ccc" d="M7.88 5.24L9.7 7.06l.14.14-.14.14-1.82 1.82-.28-.29L9.07 7.4H4.56V7h4.51L7.6 5.53l.28-.29z"/></g></g></symbol><symbol id="icon-arrow_right_a" viewBox="0 0 14.4 15.71"><g data-name="&#x421;&#x43B;&#x43E;&#x439; 2"><g data-name="Layer 1" fill-rule="evenodd"><path d="M7.2 15.71A7.2 7.2 0 100 8.51a7.21 7.21 0 007.2 7.2z" fill="#e6e6e6"/><path d="M7.2 14.4A7.2 7.2 0 100 7.2a7.21 7.21 0 007.2 7.2z" fill="#fff"/><path fill="#1b608e" d="M7.88 5.24L9.7 7.06l.14.14-.14.14-1.82 1.82-.28-.29L9.07 7.4H4.56V7h4.51L7.6 5.53l.28-.29z"/></g></g></symbol><symbol id="icon-badge_1" viewBox="0 0 47.53 57.86"><g data-name="&#x421;&#x43B;&#x43E;&#x439; 2"><g data-name="Layer 1" fill-rule="evenodd"><path d="M7.16 42.45L0 51.66l8.27-1 2.07 7.23 7.23-9.3a31.7 31.7 0 00-4.68-3.89 32 32 0 00-5.73-2.25zm33.2 0a32.05 32.05 0 00-5.75 2.17 31.62 31.62 0 00-4.68 3.89l7.26 9.35 2.07-7.23 8.27 1z" fill="#1b608e"/><path d="M45.46 25.83c0-4.33 2.7-9.42.67-12.92S38.22 9.12 34.61 7s-6.52-7-10.85-7-7.35 5-10.85 7-9.43 2.31-11.52 5.91.67 8.59.67 12.92-2.7 9.42-.67 12.91 7.92 3.79 11.52 5.88 6.52 7 10.85 7 7.35-5 10.85-7 9.39-2.27 11.53-5.87-.68-8.59-.68-12.92z" fill="#f08518"/><path d="M38.74 48.56a18 18 0 017.74 1.76l-6.12-7.87a32 32 0 00-5.75 2.17 31.61 31.61 0 00-4.68 3.89l1.31 1.69a18 18 0 017.5-1.64zm-25.83-3.93a32 32 0 00-5.75-2.17l-.32.41a13.4 13.4 0 015.56 10.86 13.55 13.55 0 01-.1 1.61l5.27-6.78a31.71 31.71 0 00-4.66-3.93z" fill="#0a4770"/></g></g></symbol><symbol id="icon-badge_2" viewBox="0 0 47.53 57.86"><g data-name="&#x421;&#x43B;&#x43E;&#x439; 2"><g data-name="Layer 1" fill-rule="evenodd"><path d="M7.16 42.45L0 51.66l8.27-1 2.07 7.23 7.23-9.3a31.7 31.7 0 00-4.68-3.89 32 32 0 00-5.73-2.25zm33.2 0a32.05 32.05 0 00-5.75 2.17 31.62 31.62 0 00-4.68 3.89l7.26 9.35 2.07-7.23 8.27 1z" fill="#f08518"/><path d="M45.46 25.83c0-4.33 2.7-9.42.67-12.92S38.22 9.12 34.61 7s-6.52-7-10.85-7-7.35 5-10.85 7-9.43 2.31-11.52 5.91.67 8.59.67 12.92-2.7 9.42-.67 12.91 7.92 3.79 11.52 5.88 6.52 7 10.85 7 7.35-5 10.85-7 9.39-2.27 11.53-5.87-.68-8.59-.68-12.92z" fill="#1b608e"/><path d="M38.74 48.56a18 18 0 017.74 1.76l-6.12-7.87a32 32 0 00-5.75 2.17 31.61 31.61 0 00-4.68 3.89l1.31 1.69a18 18 0 017.5-1.64zm-25.83-3.93a32 32 0 00-5.75-2.17l-.32.41a13.4 13.4 0 015.56 10.86 13.55 13.55 0 01-.1 1.61l5.27-6.78a31.71 31.71 0 00-4.66-3.93z" fill="#c60"/></g></g></symbol><symbol id="icon-badge_gerb" viewBox="0 0 47.53 57.86"><g data-name="&#x421;&#x43B;&#x43E;&#x439; 2"><g data-name="Layer 1" fill-rule="evenodd"><path d="M7.16 42.45L0 51.66l8.27-1 2.07 7.23 7.23-9.3a31.71 31.71 0 00-4.68-3.89 32 32 0 00-5.73-2.25zm33.21 0a32 32 0 00-5.75 2.17 31.61 31.61 0 00-4.68 3.89l7.26 9.35 2.07-7.23 8.27 1z" fill="#1b608e"/><path d="M45.46 25.83c0-4.33 2.7-9.42.67-12.92S38.22 9.12 34.61 7s-6.52-7-10.85-7-7.35 5-10.85 7-9.43 2.31-11.52 5.91.67 8.59.67 12.92-2.7 9.42-.67 12.91 7.92 3.79 11.52 5.88 6.52 7 10.85 7 7.35-5 10.85-7 9.39-2.27 11.53-5.87-.68-8.59-.68-12.92z" fill="#f08518"/><path d="M38.75 48.56a18 18 0 017.74 1.76l-6.12-7.87a32 32 0 00-5.75 2.17 31.61 31.61 0 00-4.68 3.89l1.31 1.69a18 18 0 017.5-1.64zm-25.84-3.93a32 32 0 00-5.75-2.17l-.32.41a13.4 13.4 0 015.56 10.86 13.57 13.57 0 01-.1 1.61l5.27-6.78a31.71 31.71 0 00-4.66-3.93z" fill="#0a4770"/><path d="M22.11 31.52c-.05-.29.35-.8.85-1.29a1.22 1.22 0 00.17 1.07 2 2 0 00-1 .22zm.09-5.73l.43 1.2c-.37.09-1 .36-1 .71s.84.78 1.32.74a.32.32 0 00.08.29 1.08 1.08 0 00-.62.2.75.75 0 00-.85-.18c-.19.15-.2.39 0 .68a.48.48 0 010 .61c.58 0 .37-.76.6-.76a1 1 0 00.05.51.34.34 0 010 .34 3.09 3.09 0 00-.44 1.62c-.19 0-.29 0-.22-.31 0-.1 0-.17-.11 0a1 1 0 00-.13.45c0 .56.66.67.92.55a2.74 2.74 0 002.65.28l-2.53-7a.1.1 0 10-.19.07zm2.9 3.82c.36-.13.93 0 .91.5 0 .12.16.12.17 0 .11-.79-.42-1-1-.92l-.19-.74c-.06-.23-.07-.55.15-.55s.07.33.06.47 0 .2.14.2.14-.08.19-.13a.81.81 0 000-1.19 1.17 1.17 0 00-1.31.26 1.47 1.47 0 00-.26-.41c-.07-.08-.09-.14 0-.22a.5.5 0 00.19-.32.26.26 0 00-.28-.25.35.35 0 00-.35.38.37.37 0 00.05.19 1.89 1.89 0 00-.54 0l2 5.62a1.57 1.57 0 001-1.24c0-.42-.62-.28-.92 0-.1-.53-.18-1-.28-1.51 0-.13 0-.18.15-.22zm7.52 5.17l-1-.8a1.78 1.78 0 00-.82 1.08c-.61.09-2.29-.29-2.12-.53 1.83-2.58.43-4.12-1.25-4v1.73a1 1 0 01-1.08 1h-1.21a1.88 1.88 0 00-1.38.84 1.88 1.88 0 00-1.38-.84h-1.16a1 1 0 01-1.08-1V30.5c-1.69-.08-3.09 1.45-1.26 4 .16.24-1.56.63-2.37.54a1.19 1.19 0 00-.86-.36 1.24 1.24 0 00-.43.08s-3.17-3-3.23-3v-.06c.18-.34-.1-.71-.27-.68a1.12 1.12 0 00-.91-1.56v.65S10 29.64 9.58 30s.15 1.28.15 1.28h-.66a1.14 1.14 0 001.64.8c0 .17.38.42.71.22l.15-.07 3.11 3a1 1 0 00-.16.74 1.12 1.12 0 00.89.88 1.23 1.23 0 00.87-.14l.82.76a.38.38 0 00.28.1.34.34 0 00.33-.36.32.32 0 00-.11-.21l-.83-.78a5.82 5.82 0 013-.81.21.21 0 00.21-.31c-.47-1.14.54-2 1.6-1.29a3.53 3.53 0 011.28 1.83c-1.73.42-3.9 1.57-4.34 2.83-.17.49.39 1.15 1.07 1.28A5.15 5.15 0 0123 36.19l.09.24a4.78 4.78 0 00-2.57 3c-.15.62.55 1.18 1.12 1.34h.06a6.25 6.25 0 011.55-3.84v.39a12.41 12.41 0 00-.7 3.35c0 .66 1 1.12 1.12 1.18s1.16-.52 1.16-1.18a12.41 12.41 0 00-.7-3.35v-.39a6.25 6.25 0 011.55 3.84h.06c.57-.15 1.27-.71 1.12-1.34a4.78 4.78 0 00-2.57-3l.09-.24a5.15 5.15 0 013.43 3.52c.68-.13 1.24-.8 1.07-1.28-.44-1.26-2.61-2.41-4.34-2.83A3.53 3.53 0 0126 33.8c1.05-.67 2.07.15 1.6 1.29a.21.21 0 00.21.31 5.3 5.3 0 013.22 1 1.94 1.94 0 001.82.83 1.85 1.85 0 001.68-1.55 1.73 1.73 0 00-.87-1.7l-1 .8zM14.4 25.61a15.18 15.18 0 01-4.13.44 2.14 2.14 0 01-1.94-2.42h.07a10.12 10.12 0 005.63.88c0-.14-.06-.28-.08-.42a13.33 13.33 0 01-4.56-1.13 2.59 2.59 0 01-1.08-3.32h.08a10.72 10.72 0 005.5 3.23v-.49a13.79 13.79 0 01-3.75-2.8 3 3 0 010-4.07.05.05 0 01.07 0c.33.54 3.37 5.46 6.72 7.59l.12.08a.16.16 0 010 .26 1.85 1.85 0 00-.63 1.38 2 2 0 001.68 1.89 3.9 3.9 0 001.86-.16h.06v3h-.09a2.32 2.32 0 00-2.17-1.32 5.68 5.68 0 01-1 2.64 1.69 1.69 0 01-2.44.25 5 5 0 002.39-3 3.52 3.52 0 01-.4-.16 5.68 5.68 0 01-2 2.07 1.86 1.86 0 01-2.56-.5v-.06a5.45 5.45 0 003.67-2.12c-.1-.09-.2-.19-.3-.3a7.81 7.81 0 01-3.2 1.47c-1.11.15-2.36-.2-2.39-1.49h.05a9.77 9.77 0 005-1.03q-.1-.18-.18-.37zm24.73-2h.07A2.14 2.14 0 0137.26 26a15.19 15.19 0 01-4.13-.44q-.08.19-.18.37a9.76 9.76 0 004.85.93c0 1.29-1.28 1.64-2.39 1.49A7.8 7.8 0 0132.26 27c-.09.1-.19.2-.3.3a5.45 5.45 0 003.67 2.12v.06a1.86 1.86 0 01-2.56.5 5.68 5.68 0 01-2-2.07 3.45 3.45 0 01-.4.16 5 5 0 002.39 3 1.69 1.69 0 01-2.44-.25 5.68 5.68 0 01-1-2.64 2.32 2.32 0 00-2.17 1.32h-.09v-3h.06a3.91 3.91 0 001.86.16A2 2 0 0031 24.77a1.85 1.85 0 00-.63-1.38.16.16 0 010-.26l.12-.08c3.34-2.13 6.39-7 6.72-7.59a3 3 0 010 4.07 13.78 13.78 0 01-3.76 2.8v.49a10.72 10.72 0 005.5-3.23h.08a2.59 2.59 0 01-1.08 3.32A13.34 13.34 0 0133.58 24c0 .14 0 .28-.08.42a10.13 10.13 0 005.63-.88zm-21-6.29h2a2.58 2.58 0 002.7-2h1.73a2.58 2.58 0 002.7 2h2a4.6 4.6 0 00.44-.72c.32-.86-.09-1.26-.69-1.26l-.77.7-.77-.7c-.6 0-1 .4-.69 1.26a2.57 2.57 0 00.23.41 2.11 2.11 0 01-1.84-1.65 11.64 11.64 0 00.66-1.19c.48-1.23-.13-1.73-1-1.73l-1.16 1.36-1.16-1.36c-.9 0-1.51.5-1 1.73a11.58 11.58 0 00.66 1.19A2.11 2.11 0 0120.41 17a2.49 2.49 0 00.23-.41c.32-.86-.09-1.26-.69-1.26l-.77.7-.77-.7c-.6 0-1 .4-.69 1.26a4.59 4.59 0 00.44.72zm1.56-3.25l-.54.65-.54-.65.54-.66.54.66zM33.3 33.21l-.69.64-.69-.64.69-.73.69.73zm-4.41-19.15l-.54.65-.54-.65.54-.66.54.66zm-4.36-2.82l-.76-.93-.76.93.76 1 .76-1zM18 20.9a1.76 1.76 0 011.6-.3 2.4 2.4 0 00-1.08-.6 1.18 1.18 0 00-.54.92zM13.53 18c.29-.22 1.34-.82 1.09.34a.67.67 0 00.47-.58c0-.72-1-1.05-1-1.75 0-1 1.66-1 1.61-.87-.29.92.26 2.07 1.83 2.15a1.48 1.48 0 000-.22 1.32 1.32 0 01-.88-2.38c-.56-1.74-1.4 0-2.11.45-.4.25-1.51.1-1.6.6-.12.71 1.15.7.58 2.26zm18.28-2.86c-.05-.16 1.61-.17 1.61.87 0 .7-1 1-1 1.75a.67.67 0 00.47.58c-.26-1.16.8-.55 1.09-.34-.57-1.56.71-1.55.58-2.26-.09-.5-1.2-.35-1.6-.6-.71-.45-1.55-2.19-2.11-.45a1.32 1.32 0 01-.85 2.39 1.44 1.44 0 000 .22c1.57-.08 2.11-1.23 1.83-2.15zm-.69 4c-.32-1.73-4.34-.58-6.36-1.32 0 .5.62 1.31 1.25 1.61a7.85 7.85 0 00-2.25 5.14 7.85 7.85 0 00-2.25-5.14c.63-.3 1.29-1.11 1.25-1.61-2 .73-6-.41-6.36 1.32a1.43 1.43 0 00.3 1.08.9.9 0 01.77-.58c2.83-.43 5.19 3.93 3.06 5.69v.08H27v-.08c-2.13-1.76.23-6.12 3.06-5.69a.9.9 0 01.77.58 1.43 1.43 0 00.3-1.08zm-1.56 1.76A1.18 1.18 0 0029 20a2.41 2.41 0 00-1.07.63 1.76 1.76 0 011.63.27z" fill="#fff"/></g></g></symbol><symbol id="icon-button_blue" viewBox="0 0 50.4 12"><g data-name="&#x421;&#x43B;&#x43E;&#x439; 2"><rect width="50.4" height="12" rx=".88" ry=".88" fill="#1b608e" data-name="Layer 1"/></g></symbol><symbol id="icon-button_orange" viewBox="0 0 50.4 12"><g data-name="&#x421;&#x43B;&#x43E;&#x439; 2"><rect width="50.4" height="12" rx=".88" ry=".88" fill="#f08518" data-name="Layer 1"/></g></symbol><symbol id="icon-button_orange_a" viewBox="0 0 50.4 12"><g data-name="&#x421;&#x43B;&#x43E;&#x439; 2"><rect width="50.4" height="12" rx=".88" ry=".88" fill="#c96500" data-name="Layer 1"/></g></symbol><symbol id="icon-button_upload" viewBox="0 0 11.88 9.6"><g id="&#x421;&#x43B;&#x43E;&#x439;_2" data-name="&#x421;&#x43B;&#x43E;&#x439; 2"><g id="Layer_1" data-name="Layer 1"><path class="cls-1" d="M1 0h10a1 1 0 011 1v7.7a1 1 0 01-1 1H1a1 1 0 01-1-1V1a1 1 0 011-1zm0 .48A.48.48 0 00.48 1v7.7a.48.48 0 00.52.42h10a.47.47 0 00.47-.47V1A.48.48 0 0011 .53z"/><path class="cls-1" d="M5.94 5.23a.43.43 0 11.43-.43.43.43 0 01-.43.43zm-1.49 0a.43.43 0 11.43-.43.43.43 0 01-.43.43zm3 0a.43.43 0 11.43-.43.43.43 0 01-.45.43z"/></g></g></symbol><symbol id="icon-curved-arrow" viewBox="0 0 512 512"><path d="M492 511.984c-11.047 0-20-8.953-20-20v-31.996C472 301.18 342.8 171.98 183.996 171.98c-22.058 0-40.004-17.94-40.004-40V40.048c-.031-.02-.07-.031-.105-.043l-.043.043L45.883 137.8A19.9 19.9 0 0040 151.98a19.9 19.9 0 005.883 14.18l97.96 97.757c.016.016.032.027.044.043a.85.85 0 00.105-.043v-21.934c0-11.047 8.957-20.004 20.004-20.004 11.043 0 20 8.958 20 20.004v21.922c0 16.235-9.7 30.75-24.71 36.977-15.028 6.234-32.18 2.84-43.696-8.653l-97.961-97.753C6.262 183.133 0 168.039 0 151.98c0-16.058 6.262-31.148 17.629-42.492l97.96-97.758c11.517-11.488 28.67-14.882 43.697-8.648 15.012 6.227 24.711 20.738 24.711 36.977v91.921c87.61 0 169.98 34.118 231.934 96.07C477.883 290.005 512 372.376 512 459.985v32c0 11.047-8.953 20-20 20zM143.98 39.867"/></symbol><symbol id="icon-details" viewBox="0 0 29.37 30.43"><g data-name="&#x421;&#x43B;&#x43E;&#x439; 2"><path d="M28.93 27.71l-7.24-7.53a12.28 12.28 0 10-9.4 4.39 12.15 12.15 0 007-2.22l7.3 7.59a1.6 1.6 0 002.31-2.22zM12.26 7.2a1.42 1.42 0 011.42 1.42v2.31H16a1.42 1.42 0 011.42 1.42A1.42 1.42 0 0116 13.76h-2.32v2.31a1.42 1.42 0 01-1.42 1.42 1.42 1.42 0 01-1.42-1.42v-2.31h-2.3a1.42 1.42 0 01-1.42-1.42 1.42 1.42 0 011.42-1.42h2.31v-2.3a1.42 1.42 0 011.41-1.42zm0-4a9.08 9.08 0 11-9.06 9.08 9.09 9.09 0 019.08-9.08z" fill="#fff" fill-rule="evenodd" data-name="Layer 1"/></g></symbol><symbol id="icon-fb" viewBox="0 0 2.23 4.8"><g data-name="&#x421;&#x43B;&#x43E;&#x439; 2"><path d="M2.14 2.4h-.67v2.4h-1V2.4H0v-.85h.47V1a.94.94 0 011-1h.74v.83h-.53a.2.2 0 00-.21.23v.5h.76z" fill="#f08518" fill-rule="evenodd" data-name="Layer 1"/></g></symbol><symbol id="icon-ins" viewBox="0 0 4.32 4.32"><g data-name="&#x421;&#x43B;&#x43E;&#x439; 2"><path d="M4.32 1.72v1.77a.84.84 0 01-.84.83H.83A.84.84 0 010 3.49V.84A.84.84 0 01.83 0h2.65a.84.84 0 01.84.84v.88zm-2.16 1.2a.76.76 0 10-.76-.76.76.76 0 00.76.76zm1.66-1.69V.5h-.73v.73zm-.48.93a1.18 1.18 0 11-2.28-.44H.42v1.77a.41.41 0 00.41.41h2.65a.41.41 0 00.41-.41V1.72h-.64a1.18 1.18 0 01.09.44z" fill="#f08518" fill-rule="evenodd" data-name="Layer 1"/></g></symbol><symbol id="icon-marker_dot_blue" viewBox="0 0 2.4 2.4"><g data-name="&#x421;&#x43B;&#x43E;&#x439; 2"><circle cx="1.2" cy="1.2" r="1.2" fill="#1b608e" data-name="Layer 1"/></g></symbol><symbol id="icon-marker_dot_orange" viewBox="0 0 2.4 2.4"><g data-name="&#x421;&#x43B;&#x43E;&#x439; 2"><circle cx="1.2" cy="1.2" r="1.2" fill="#f08518" data-name="Layer 1"/></g></symbol><symbol id="icon-menu" viewBox="0 0 9.12 6.38"><g data-name="&#x421;&#x43B;&#x43E;&#x439; 2"><path d="M0 2.74h9.12v.91H0v-.91zm0 2.73h9.12v.91H0v-.91zM0 0h9.12v.91H0z" fill="#ccc" fill-rule="evenodd" data-name="Layer 1"/></g></symbol><symbol id="icon-menu_about" viewBox="0 0 3.36 3.36"><g data-name="&#x421;&#x43B;&#x43E;&#x439; 2"><path d="M1.51 1.18h.34V.84h-.34v.34zm0 1.34h.34v-1h-.34v1zm.17.84a1.68 1.68 0 111.68-1.68 1.68 1.68 0 01-1.68 1.68zm0-3A1.34 1.34 0 11.34 1.68 1.34 1.34 0 011.68.34z" fill="#ccc" fill-rule="evenodd" data-name="Layer 1"/></g></symbol><symbol id="icon-menu_arrow" viewBox="0 0 3.84 2.85"><g data-name="&#x421;&#x43B;&#x43E;&#x439; 2"><path fill="#f08518" fill-rule="evenodd" d="M2.42 0l1.32 1.32.1.11-.1.1-1.32 1.32-.21-.21 1.07-1.07H0v-.29h3.28L2.21.21 2.42 0z" data-name="Layer 1"/></g></symbol><symbol id="icon-menu_close" viewBox="0 0 7.2 7.2"><g data-name="&#x421;&#x43B;&#x43E;&#x439; 2"><path fill="#ccc" fill-rule="evenodd" d="M0 6.3l2.7-2.7L0 .9.9 0l2.7 2.7L6.3 0l.9.9-2.7 2.7 2.7 2.7-.9.9-2.7-2.7L.9 7.2 0 6.3z" data-name="Layer 1"/></g></symbol><symbol id="icon-menu_contacts" viewBox="0 0 3.36 3.36"><g data-name="&#x421;&#x43B;&#x43E;&#x439; 2"><path d="M.66.37a2.29 2.29 0 00.08.49l-.22.22A2.78 2.78 0 01.38.37zM2.5 2.62a2.39 2.39 0 00.5.08V3a2.87 2.87 0 01-.71-.14l.22-.22zM.84 0H.19A.19.19 0 000 .19a3.17 3.17 0 003.17 3.17.19.19 0 00.19-.19v-.65a.19.19 0 00-.19-.19 2.13 2.13 0 01-.67-.11h-.05a.19.19 0 00-.13.05l-.41.41A2.83 2.83 0 01.68 1.45L1.09 1a.19.19 0 000-.19A2.13 2.13 0 011 .19.19.19 0 00.84 0z" fill="#ccc" fill-rule="evenodd" data-name="Layer 1"/></g></symbol><symbol id="icon-menu_mail" viewBox="0 0 3.36 2.69"><g data-name="&#x421;&#x43B;&#x43E;&#x439; 2"><path d="M3.36.34A.34.34 0 003 0H.34A.34.34 0 000 .34v2a.34.34 0 00.34.34H3a.34.34 0 00.34-.34v-2zM3 .34l-1.34.84L.34.34zm0 2H.34V.67l1.34.84L3 .67z" fill="#ccc" fill-rule="evenodd" data-name="Layer 1"/></g></symbol><symbol id="icon-menu_projects" viewBox="0 0 3.36 3.36"><g data-name="&#x421;&#x43B;&#x43E;&#x439; 2"><path d="M3 .37v.38h-.76V.37zm-1.88 0v1.12H.37V.37zM3 1.87V3h-.76V1.87zm-1.87.75V3H.37v-.39zM3.36 0H1.87v1.12h1.49V0zM1.49 0H0v1.87h1.49V0zm1.87 1.49H1.87v1.87h1.49V1.49zm-1.87.75H0v1.12h1.49z" fill="#ccc" fill-rule="evenodd" data-name="Layer 1"/></g></symbol><symbol id="icon-menu_services" viewBox="0 0 3.36 3.19"><g data-name="&#x421;&#x43B;&#x43E;&#x439; 2"><path d="M1 .66V.35A.35.35 0 011.35 0H2a.35.35 0 01.35.35v.31H3a.35.35 0 01.36.34v1.84a.35.35 0 01-.36.35H.35A.35.35 0 010 2.84V1A.35.35 0 01.35.66zM.37 1v1.82H3V1zM2 .66V.37h-.63v.29z" fill="#ccc" fill-rule="evenodd" data-name="Layer 1"/></g></symbol><symbol id="icon-open_list" viewBox="0 0 2.88 1.65"><g data-name="&#x421;&#x43B;&#x43E;&#x439; 2"><path fill="#f08518" fill-rule="evenodd" d="M2.88.21L1.54 1.54l-.1.11-.11-.11L0 .21.21 0l1.23 1.23L2.67 0l.21.21z" data-name="Layer 1"/></g></symbol><symbol id="icon-page_dot" viewBox="0 0 4.32 4.32"><g data-name="&#x421;&#x43B;&#x43E;&#x439; 2"><circle cx="2.16" cy="2.16" r="2.16" fill="#e6e6e6" data-name="Layer 1"/></g></symbol><symbol id="icon-page_dot_a" viewBox="0 0 4.32 4.32"><g data-name="&#x421;&#x43B;&#x43E;&#x439; 2"><circle cx="2.16" cy="2.16" r="2.16" fill="#f08518" data-name="Layer 1"/></g></symbol><symbol id="icon-phone" viewBox="0 0 7.2 7.2"><g data-name="&#x421;&#x43B;&#x43E;&#x439; 2"><path d="M3.2 2.4H4v.8h-.8v-.8zm1.6 0h.8v.8h-.8v-.8zm2 2.6a4.54 4.54 0 01-1.43-.23h-.12a.41.41 0 00-.25.1l-.88.88a6 6 0 01-2.67-2.63l.88-.88a.39.39 0 00.1-.4A4.55 4.55 0 012.2.4a.4.4 0 00-.4-.4H.4a.4.4 0 00-.4.4 6.8 6.8 0 006.8 6.8.4.4 0 00.4-.4V5.4a.4.4 0 00-.4-.4zM.81.8h.6a5.28 5.28 0 00.18 1l-.48.48A6 6 0 01.81.8zM6.4 6.39a6 6 0 01-1.52-.3l.48-.48a5.11 5.11 0 001 .18v.6zm0-4h.8v.8h-.8z" fill="#1b608e" fill-rule="evenodd" data-name="Layer 1"/></g></symbol><symbol id="icon-support" viewBox="0 0 6.17 7.2"><g data-name="&#x421;&#x43B;&#x43E;&#x439; 2"><path d="M5.49 0H.69A.69.69 0 000 .69v4.8a.69.69 0 00.69.69h1.37l1 1 1-1h1.43a.69.69 0 00.69-.69V.69A.69.69 0 005.49 0zm0 5.49H3.83l-.2.2-.54.54-.55-.55-.2-.2H.69V.69h4.8v4.8zm-2.74-1h.69v.69h-.7v-.72zm.34-2.74a.69.69 0 00-.69.69h-.69a1.37 1.37 0 112.74 0c0 .86-1 .94-1 1.71h-.71c0-1.11 1-1 1-1.71a.69.69 0 00-.65-.73z" fill="#1b608e" fill-rule="evenodd" data-name="Layer 1"/></g></symbol><symbol id="icon-support_tech" viewBox="0 0 7.2 7.2"><g data-name="&#x421;&#x43B;&#x43E;&#x439; 2"><path d="M6.48 0H.72A.72.72 0 000 .72V7.2l1.44-1.44h5A.72.72 0 007.2 5V.72A.72.72 0 006.48 0zm0 5H1.14l-.21.21-.21.21V.72h5.76V5zM3.24 3.6H4v.72h-.76V3.6zm0-2.16H4v1.44h-.76z" fill="#1b608e" fill-rule="evenodd" data-name="Layer 1"/></g></symbol><symbol id="icon-tag" viewBox="0 0 18.96 8.16"><g data-name="&#x421;&#x43B;&#x43E;&#x439; 2"><path d="M.81 0h17.34a.81.81 0 01.85.81v6.54a.81.81 0 01-.81.81H.81A.81.81 0 010 7.35V.81A.81.81 0 01.81 0zm0 .41a.4.4 0 00-.4.4v6.54a.4.4 0 00.4.4h17.34a.4.4 0 00.4-.4V.81a.4.4 0 00-.4-.4z" fill="#999" fill-rule="evenodd" data-name="Layer 1"/></g></symbol><symbol id="icon-tag_a" viewBox="0 0 42.11 8.16"><g data-name="&#x421;&#x43B;&#x43E;&#x439; 2"><path d="M.81 0H41.3a.81.81 0 01.81.81v6.54a.81.81 0 01-.81.81H.81A.81.81 0 010 7.35V.81A.81.81 0 01.81 0zm0 .41a.41.41 0 00-.4.4v6.54a.41.41 0 00.4.4H41.3a.4.4 0 00.4-.4V.81a.41.41 0 00-.4-.4z" fill="#f08518" fill-rule="evenodd" data-name="Layer 1"/></g></symbol><symbol id="icon-time" viewBox="0 0 7.2 7.2"><g data-name="&#x421;&#x43B;&#x43E;&#x439; 2"><path d="M3.6 0a3.6 3.6 0 103.6 3.6A3.61 3.61 0 003.6 0zm0 6.48A2.88 2.88 0 116.48 3.6 2.88 2.88 0 013.6 6.48zm.18-4.68v1.87l1.62 1-.29.47L3.24 4V1.8z" fill="#1b608e" fill-rule="evenodd" data-name="Layer 1"/></g></symbol><symbol id="icon-utton_blue_a" viewBox="0 0 50.4 12"><g data-name="&#x421;&#x43B;&#x43E;&#x439; 2"><rect width="50.4" height="12" rx=".88" ry=".88" fill="#124a70" data-name="Layer 1"/></g></symbol><symbol id="icon-you" viewBox="0 0 4.8 3.64"><g data-name="&#x421;&#x43B;&#x43E;&#x439; 2"><path d="M4.75.79a1.22 1.22 0 00-.19-.52.64.64 0 00-.48-.21C3.41 0 2.4 0 2.4 0s-1 0-1.68.06a.67.67 0 00-.48.21A1.11 1.11 0 000 .79a8.29 8.29 0 000 .84V2a8 8 0 000 .84 1.22 1.22 0 00.19.51.8.8 0 00.53.22h1.63s1 0 1.68-.06a.67.67 0 00.48-.22 1.22 1.22 0 00.19-.51A8.24 8.24 0 004.8 2v-.37a8.28 8.28 0 000-.84zM1.82 1l1.57.92-1.57.88z" fill="#f08518" fill-rule="evenodd" data-name="Layer 1"/></g></symbol></svg>