<svg xmlns="http://www.w3.org/2000/svg" xmlns:xlink="http://www.w3.org/1999/xlink"><symbol id="icon-arrow-down" viewBox="0 0 284.929 284.929"><path d="M282.082 76.511l-14.274-14.273c-1.902-1.906-4.093-2.856-6.57-2.856-2.471 0-4.661.95-6.563 2.856L142.466 174.441 30.262 62.241c-1.903-1.906-4.093-2.856-6.567-2.856-2.475 0-4.665.95-6.567 2.856L2.856 76.515C.95 78.417 0 80.607 0 83.082c0 2.473.953 4.663 2.856 6.565l133.043 133.046c1.902 1.903 4.093 2.854 6.567 2.854s4.661-.951 6.562-2.854L282.082 89.647c1.902-1.903 2.847-4.093 2.847-6.565 0-2.475-.945-4.665-2.847-6.571z"/></symbol><symbol id="icon-basket-2" viewBox="0 0 512 512"><path d="M465.423 48.241h-137.61V23.955C327.813 10.746 317.082 0 303.893 0h-95.785c-13.19 0-23.92 10.746-23.92 23.955V48.24H46.577c-6.655 0-12.049 5.394-12.049 12.049 0 6.655 5.394 12.049 12.049 12.049h22.332l15.228 396.396A44.858 44.858 0 0 0 129.099 512h253.804a44.855 44.855 0 0 0 44.96-43.267l15.228-396.396h22.332c6.653 0 12.049-5.394 12.049-12.049 0-6.653-5.394-12.047-12.049-12.047zM208.285 24.097h95.43V48.24h-95.43V24.097zm195.499 443.712a20.833 20.833 0 0 1-20.882 20.094H129.099a20.835 20.835 0 0 1-20.882-20.095L93.025 72.338h325.952l-15.193 395.471z"/><path d="M182.63 181.571c-.127-6.575-5.494-11.817-12.042-11.817-.078 0-.158 0-.236.002-6.652.128-11.943 5.626-11.815 12.278l3.781 196.634c.126 6.575 5.495 11.817 12.042 11.817.078 0 .158 0 .236-.002 6.653-.128 11.943-5.624 11.815-12.278l-3.781-196.634zM255.998 169.753c-6.654 0-12.049 5.394-12.049 12.049v196.634c0 6.654 5.394 12.049 12.049 12.049 6.655 0 12.049-5.394 12.049-12.049V181.802c0-6.654-5.394-12.049-12.049-12.049zM341.645 169.756c-6.628-.147-12.151 5.162-12.278 11.815l-3.781 196.634c-.129 6.653 5.162 12.15 11.815 12.278l.236.002c6.546 0 11.916-5.244 12.042-11.817l3.781-196.634c.128-6.654-5.161-12.151-11.815-12.278z"/></symbol><symbol id="icon-basket" viewBox="0 0 59 59"><path d="M52.5 6H38.456c-.11-1.25-.495-3.358-1.813-4.711C35.809.434 34.751 0 33.499 0H23.5c-1.252 0-2.31.434-3.144 1.289C19.038 2.642 18.653 4.75 18.543 6H6.5a1 1 0 1 0 0 2h2.041l1.915 46.021C10.493 55.743 11.565 59 15.364 59h28.272c3.799 0 4.871-3.257 4.907-4.958L50.459 8H52.5a1 1 0 1 0 0-2zm-32 44a1 1 0 1 1-2 0V17a1 1 0 1 1 2 0v33zm10 0a1 1 0 1 1-2 0V17a1 1 0 1 1 2 0v33zm10 0a1 1 0 1 1-2 0V17a1 1 0 1 1 2 0v33zM21.792 2.681C22.24 2.223 22.799 2 23.5 2h9.999c.701 0 1.26.223 1.708.681.805.823 1.128 2.271 1.24 3.319H20.553c.112-1.048.435-2.496 1.239-3.319z"/></symbol><symbol id="icon-close" viewBox="0 0 212.982 212.982"><path d="M131.804 106.491l75.936-75.936c6.99-6.99 6.99-18.323 0-25.312-6.99-6.99-18.322-6.99-25.312 0L106.491 81.18 30.554 5.242c-6.99-6.99-18.322-6.99-25.312 0-6.989 6.99-6.989 18.323 0 25.312l75.937 75.936-75.937 75.937c-6.989 6.99-6.989 18.323 0 25.312 6.99 6.99 18.322 6.99 25.312 0l75.937-75.937 75.937 75.937c6.989 6.99 18.322 6.99 25.312 0 6.99-6.99 6.99-18.322 0-25.312l-75.936-75.936z" fill-rule="evenodd" clip-rule="evenodd"/></symbol><symbol id="icon-code" viewBox="0 0 522.468 522.468"><path d="M325.762 70.513l-17.706-4.854c-2.279-.76-4.524-.521-6.707.715-2.19 1.237-3.669 3.094-4.429 5.568L190.426 440.53c-.76 2.475-.522 4.809.715 6.995 1.237 2.19 3.09 3.665 5.568 4.425l17.701 4.856c2.284.766 4.521.526 6.71-.712 2.19-1.243 3.666-3.094 4.425-5.564L332.042 81.936c.759-2.474.523-4.808-.716-6.999-1.238-2.19-3.089-3.665-5.564-4.424zM166.167 142.465c0-2.474-.953-4.665-2.856-6.567l-14.277-14.276c-1.903-1.903-4.093-2.857-6.567-2.857s-4.665.955-6.567 2.857L2.856 254.666C.95 256.569 0 258.759 0 261.233s.953 4.664 2.856 6.566l133.043 133.044c1.902 1.906 4.089 2.854 6.567 2.854s4.665-.951 6.567-2.854l14.277-14.268c1.903-1.902 2.856-4.093 2.856-6.57 0-2.471-.953-4.661-2.856-6.563L51.107 261.233l112.204-112.201c1.906-1.902 2.856-4.093 2.856-6.567zM519.614 254.663L386.567 121.619c-1.902-1.902-4.093-2.857-6.563-2.857-2.478 0-4.661.955-6.57 2.857l-14.271 14.275c-1.902 1.903-2.851 4.09-2.851 6.567s.948 4.665 2.851 6.567l112.206 112.204-112.206 112.21c-1.902 1.902-2.851 4.093-2.851 6.563 0 2.478.948 4.668 2.851 6.57l14.271 14.268c1.909 1.906 4.093 2.854 6.57 2.854 2.471 0 4.661-.951 6.563-2.854L519.614 267.8c1.903-1.902 2.854-4.096 2.854-6.57 0-2.475-.951-4.665-2.854-6.567z"/></symbol><symbol id="icon-copy" viewBox="0 0 511.627 511.627"><path d="M503.633 117.628c-5.332-5.327-11.8-7.993-19.41-7.993H365.446c-11.417 0-23.603 3.806-36.542 11.42V27.412c0-7.616-2.662-14.092-7.994-19.417C315.578 2.666 309.11 0 301.492 0H182.725c-7.614 0-15.99 1.903-25.125 5.708-9.136 3.806-16.368 8.376-21.7 13.706L19.414 135.901c-5.33 5.329-9.9 12.563-13.706 21.698C1.903 166.738 0 175.108 0 182.725v191.858c0 7.618 2.663 14.093 7.992 19.417 5.33 5.332 11.803 7.994 19.414 7.994h155.318v82.229c0 7.61 2.662 14.085 7.992 19.41 5.327 5.332 11.8 7.994 19.414 7.994h274.091c7.61 0 14.085-2.662 19.41-7.994 5.332-5.325 7.994-11.8 7.994-19.41V137.046c.002-7.614-2.66-14.088-7.992-19.418zm-174.729 52.821v85.364h-85.366l85.366-85.364zM146.178 60.813v85.364H60.814l85.364-85.364zm55.961 184.722c-5.33 5.33-9.9 12.564-13.706 21.701-3.805 9.141-5.708 17.508-5.708 25.126v73.083H36.547v-182.72h118.766c7.616 0 14.087-2.664 19.417-7.994 5.327-5.33 7.994-11.801 7.994-19.412V36.547h109.637v118.771l-90.222 90.217zm272.939 229.55H219.263v-182.73h118.775c7.614 0 14.082-2.662 19.41-7.994 5.328-5.325 7.994-11.797 7.994-19.41V146.178h109.629v328.907h.007z"/></symbol><symbol id="icon-docs" viewBox="0 0 512 512"><path d="M322.783 9.783v123.782h123.782z"/><path d="M306.087 166.957c-9.217 0-16.696-7.479-16.696-16.696V0H72.348c-9.217 0-16.696 7.479-16.696 16.696v478.609c0 9.217 7.479 16.696 16.696 16.696h367.304c9.217 0 16.696-7.479 16.696-16.696V166.957H306.087zm-33.391 244.869H139.13c-9.217 0-16.696-7.479-16.696-16.696s7.479-16.696 16.696-16.696h133.565c9.217 0 16.696 7.479 16.696 16.696s-7.478 16.696-16.695 16.696zm100.174-66.783H139.13c-9.217 0-16.696-7.479-16.696-16.696s7.479-16.696 16.696-16.696h233.74c9.217 0 16.696 7.479 16.696 16.696s-7.479 16.696-16.696 16.696zm0-66.782H139.13c-9.217 0-16.696-7.479-16.696-16.696 0-9.217 7.479-16.696 16.696-16.696h233.74c9.217 0 16.696 7.479 16.696 16.696-.001 9.217-7.479 16.696-16.696 16.696z"/></symbol><symbol id="icon-dots" viewBox="0 0 512 512"><circle cx="256" cy="256" r="64"/><circle cx="256" cy="448" r="64"/><circle cx="256" cy="64" r="64"/></symbol><symbol id="icon-double-arrow" viewBox="0 0 284.936 284.936"><path d="M277.515 135.9L144.464 2.857C142.565.955 140.375 0 137.9 0c-2.472 0-4.659.955-6.562 2.857l-14.277 14.275c-1.903 1.903-2.853 4.089-2.853 6.567 0 2.478.95 4.664 2.853 6.567L229.268 142.47 117.062 254.677c-1.903 1.903-2.853 4.093-2.853 6.564 0 2.477.95 4.667 2.853 6.57l14.277 14.271c1.902 1.905 4.089 2.854 6.562 2.854 2.478 0 4.665-.951 6.563-2.854l133.051-133.044c1.902-1.902 2.851-4.093 2.851-6.567s-.949-4.664-2.851-6.571z"/><path d="M170.732 142.471c0-2.474-.947-4.665-2.857-6.571L34.833 2.857C32.931.955 30.741 0 28.267 0S23.602.955 21.7 2.857L7.426 17.133C5.52 19.036 4.57 21.222 4.57 23.7c0 2.478.95 4.664 2.856 6.567L119.63 142.471 7.426 254.677c-1.906 1.903-2.856 4.093-2.856 6.564 0 2.477.95 4.667 2.856 6.57l14.273 14.271c1.903 1.905 4.093 2.854 6.567 2.854s4.664-.951 6.567-2.854l133.042-133.044c1.91-1.902 2.857-4.093 2.857-6.567z"/></symbol><symbol id="icon-eye" viewBox="0 0 488.85 488.85"><path d="M244.425 98.725c-93.4 0-178.1 51.1-240.6 134.1-5.1 6.8-5.1 16.3 0 23.1 62.5 83.1 147.2 134.2 240.6 134.2s178.1-51.1 240.6-134.1c5.1-6.8 5.1-16.3 0-23.1-62.5-83.1-147.2-134.2-240.6-134.2zm6.7 248.3c-62 3.9-113.2-47.2-109.3-109.3 3.2-51.2 44.7-92.7 95.9-95.9 62-3.9 113.2 47.2 109.3 109.3-3.3 51.1-44.8 92.6-95.9 95.9zm-3.1-47.4c-33.4 2.1-61-25.4-58.8-58.8 1.7-27.6 24.1-49.9 51.7-51.7 33.4-2.1 61 25.4 58.8 58.8-1.8 27.7-24.2 50-51.7 51.7z"/></symbol><symbol id="icon-folder" viewBox="0 0 510 510"><path d="M204 51H51C22.95 51 0 73.95 0 102v306c0 28.05 22.95 51 51 51h408c28.05 0 51-22.95 51-51V153c0-28.05-22.95-51-51-51H255l-51-51z"/></symbol><symbol id="icon-forward-arrow" viewBox="0 0 460 420"><path d="M459 216.75L280.5 38.25v102c-178.5 25.5-255 153-280.5 280.5C63.75 331.5 153 290.7 280.5 290.7v104.55L459 216.75z"/></symbol><symbol id="icon-layers" viewBox="0 0 511 511.998"><path d="M501.426 238.11L419.203 197l82.223-41.113c14.707-7.352 14.722-28.414 0-35.778l-236-118a20.022 20.022 0 0 0-17.89 0l-236 118c-14.708 7.356-14.723 28.418 0 35.778L93.757 197l-82.223 41.11c-14.707 7.355-14.722 28.413 0 35.777L93.758 315l-82.223 41.11c-14.707 7.355-14.722 28.413 0 35.777l236 118a20.01 20.01 0 0 0 17.89 0l236-118c14.708-7.356 14.723-28.414 0-35.778L419.204 315l82.223-41.113c14.707-7.352 14.722-28.414 0-35.778zM256.48 42.36L447.758 138 256.48 233.637 65.203 138zM447.758 374L256.48 469.637 65.203 374l73.277-36.64 109.055 54.527a20.01 20.01 0 0 0 17.89 0l109.055-54.528zM256.48 351.637L65.203 256l73.277-36.64 109.055 54.527a20.01 20.01 0 0 0 17.89 0l109.055-54.528L447.758 256zm0 0"/></symbol><symbol id="icon-layout" viewBox="0 0 64 64"><path d="M59 2H5a3 3 0 0 0-3 3v54a3 3 0 0 0 3 3h54a3 3 0 0 0 3-3V5a3 3 0 0 0-3-3zm1 57a1 1 0 0 1-1 1H5a1 1 0 0 1-1-1V12h56zM4 10V5a1 1 0 0 1 1-1h54a1 1 0 0 1 1 1v5z"/><path d="M6.29 6.29A1.033 1.033 0 0 0 6 7a1 1 0 0 0 .08.38.933.933 0 0 0 .21.33 1 1 0 0 0 1.42-1.42 1.047 1.047 0 0 0-1.42 0zM10.29 6.29A1.052 1.052 0 0 0 10 7a1.355 1.355 0 0 0 .02.2.636.636 0 0 0 .06.18.757.757 0 0 0 .09.18 1.576 1.576 0 0 0 .12.15 1.014 1.014 0 0 0 1.42 0l.12-.15a.757.757 0 0 0 .09-.18.636.636 0 0 0 .06-.18A1.355 1.355 0 0 0 12 7a1 1 0 0 0-1.71-.71zM14.29 6.29a1.014 1.014 0 0 0 0 1.42 1 1 0 0 0 1.42-1.42 1.047 1.047 0 0 0-1.42 0zM58 14H6v14h52zm-2 12H8V16h48zM24 30H6v28h18zm-2 26H8V32h14zM26 43h32V30H26zm2-11h28v9H28zM26 58h32V45H26zm2-11h28v9H28z"/></symbol><symbol id="icon-link" viewBox="0 0 465.951 465.951"><path d="M441.962 284.364l-59.389-59.383c-15.984-15.985-35.396-23.982-58.238-23.982-23.223 0-43.013 8.375-59.385 25.125l-25.125-25.125c16.751-16.368 25.125-36.256 25.125-59.671 0-22.841-7.898-42.157-23.698-57.958l-58.815-59.097C166.639 8.095 147.225.003 124.195.003c-22.841 0-42.16 7.902-57.958 23.7l-41.97 41.683C8.088 81.188 0 100.504 0 123.343c0 22.841 7.996 42.258 23.982 58.245l59.385 59.383c15.99 15.988 35.404 23.982 58.245 23.982 23.219 0 43.015-8.374 59.383-25.126l25.125 25.126c-16.75 16.371-25.125 36.258-25.125 59.672 0 22.843 7.898 42.154 23.697 57.958l58.82 59.094c15.801 16.177 35.208 24.27 58.238 24.27 22.844 0 42.154-7.897 57.958-23.698l41.973-41.682c16.177-15.804 24.271-35.118 24.271-57.958-.005-22.838-7.999-42.25-23.99-58.245zM200.999 162.178a687.506 687.506 0 0 1-5.28-5.424c-2.948-3.046-4.995-5.092-6.136-6.14-1.143-1.047-2.952-2.474-5.426-4.286-2.478-1.809-4.902-3.044-7.28-3.711-2.38-.666-4.998-.998-7.854-.998-7.611 0-14.084 2.666-19.414 7.993-5.33 5.327-7.992 11.799-7.992 19.414 0 2.853.332 5.471.998 7.851.666 2.382 1.903 4.808 3.711 7.281 1.809 2.474 3.237 4.283 4.283 5.426 1.044 1.141 3.09 3.188 6.136 6.139 3.046 2.95 4.853 4.709 5.424 5.281-5.711 5.898-12.563 8.848-20.555 8.848-7.804 0-14.277-2.568-19.414-7.705l-59.39-59.386c-5.327-5.33-7.992-11.802-7.992-19.417 0-7.421 2.662-13.796 7.992-19.126l41.971-41.687c5.523-5.14 11.991-7.705 19.417-7.705 7.611 0 14.083 2.663 19.414 7.993l58.813 59.097c5.33 5.33 7.992 11.801 7.992 19.414.001 7.991-3.139 14.94-9.418 20.848zm202.148 199.554l-41.973 41.686c-5.332 4.945-11.8 7.423-19.418 7.423-7.809 0-14.27-2.566-19.41-7.707l-58.813-59.101c-5.331-5.332-7.99-11.8-7.99-19.41 0-7.994 3.138-14.941 9.421-20.841.575.567 2.334 2.381 5.284 5.42 2.95 3.046 4.996 5.093 6.14 6.14 1.143 1.051 2.949 2.478 5.42 4.288 2.478 1.811 4.9 3.049 7.282 3.713 2.382.667 4.997.999 7.851.999 7.618 0 14.086-2.665 19.418-7.994 5.324-5.328 7.994-11.8 7.994-19.41 0-2.854-.339-5.472-1-7.851-.67-2.382-1.902-4.809-3.72-7.282-1.811-2.471-3.23-4.284-4.281-5.428-1.047-1.136-3.094-3.183-6.139-6.14a1189.395 1189.395 0 0 1-5.428-5.276c5.715-6.092 12.566-9.138 20.554-9.138 7.617 0 14.085 2.663 19.41 7.994l59.388 59.382c5.332 5.332 7.995 11.807 7.995 19.417 0 7.416-2.663 13.799-7.985 19.116z"/></symbol><symbol id="icon-menu-dots" viewBox="0 0 290 290"><path d="M0 220h70v70H0zM0 110h70v70H0zM0 0h70v70H0zM110 220h70v70h-70zM110 110h70v70h-70zM110 0h70v70h-70zM220 220h70v70h-70zM220 110h70v70h-70zM220 0h70v70h-70z"/></symbol><symbol id="icon-menu-list" viewBox="0 0 60.123 60.123"><path d="M57.124 51.893H16.92a3 3 0 1 1 0-6h40.203a3 3 0 0 1 .001 6zM57.124 33.062H16.92a3 3 0 1 1 0-6h40.203a3 3 0 0 1 .001 6zM57.124 14.231H16.92a3 3 0 1 1 0-6h40.203a3 3 0 0 1 .001 6z"/><circle cx="4.029" cy="11.463" r="4.029"/><circle cx="4.029" cy="30.062" r="4.029"/><circle cx="4.029" cy="48.661" r="4.029"/></symbol><symbol id="icon-menu" viewBox="0 0 512 512"><path d="M491.318 235.318H20.682C9.26 235.318 0 244.577 0 256s9.26 20.682 20.682 20.682h470.636c11.423 0 20.682-9.259 20.682-20.682 0-11.422-9.259-20.682-20.682-20.682zM491.318 78.439H20.682C9.26 78.439 0 87.699 0 99.121c0 11.422 9.26 20.682 20.682 20.682h470.636c11.423 0 20.682-9.26 20.682-20.682 0-11.422-9.259-20.682-20.682-20.682zM491.318 392.197H20.682C9.26 392.197 0 401.456 0 412.879s9.26 20.682 20.682 20.682h470.636c11.423 0 20.682-9.259 20.682-20.682s-9.259-20.682-20.682-20.682z"/></symbol><symbol id="icon-monitor" viewBox="0 0 548.172 548.172"><path d="M534.75 49.965c-8.945-8.945-19.694-13.422-32.261-13.422H45.681c-12.562 0-23.313 4.477-32.264 13.422C4.471 58.913 0 69.663 0 82.226v310.633c0 12.566 4.471 23.315 13.417 32.265 8.951 8.945 19.702 13.414 32.264 13.414h155.318c0 7.231-1.524 14.661-4.57 22.269-3.044 7.614-6.09 14.273-9.136 19.981-3.042 5.715-4.565 9.897-4.565 12.56 0 4.948 1.807 9.24 5.424 12.847 3.615 3.621 7.898 5.435 12.847 5.435h146.179c4.949 0 9.233-1.813 12.848-5.435 3.62-3.606 5.427-7.898 5.427-12.847 0-2.468-1.526-6.611-4.571-12.415-3.046-5.801-6.092-12.566-9.134-20.267-3.046-7.71-4.569-15.085-4.569-22.128h155.318c12.56 0 23.309-4.469 32.254-13.414 8.949-8.949 13.422-19.698 13.422-32.265V82.226c.003-12.563-4.474-23.313-13.423-32.261zm-23.123 269.803c0 2.475-.903 4.613-2.711 6.424-1.81 1.804-3.952 2.707-6.427 2.707H45.681c-2.473 0-4.615-.903-6.423-2.707-1.807-1.817-2.712-3.949-2.712-6.424V82.226c0-2.475.902-4.615 2.712-6.423 1.809-1.805 3.951-2.712 6.423-2.712h456.815c2.471 0 4.617.904 6.42 2.712 1.808 1.809 2.711 3.949 2.711 6.423v237.542z"/></symbol><symbol id="icon-pencil-2" viewBox="0 0 485.219 485.219"><path d="M467.476 146.438l-21.445 21.455L317.35 39.23l21.445-21.457c23.689-23.692 62.104-23.692 85.795 0l42.886 42.897c23.657 23.679 23.657 62.078 0 85.768zm-300.243 257.31c-5.922 5.922-5.922 15.513 0 21.436 5.925 5.955 15.521 5.955 21.443 0L424.59 189.335l-21.469-21.457-235.888 235.87zM60 296.54c-5.925 5.927-5.925 15.514 0 21.44 5.922 5.923 15.518 5.923 21.443 0L317.35 82.113 295.914 60.67 60 296.54zm278.767-193L102.881 339.421c-11.845 11.822-11.815 31.041 0 42.886 11.85 11.846 31.038 11.901 42.914-.032l235.886-235.837-42.914-42.898zM145.734 446.572c-7.253-7.262-10.749-16.465-12.05-25.948-3.083.476-6.188.919-9.36.919-16.202 0-31.419-6.333-42.881-17.795-11.462-11.491-17.77-26.687-17.77-42.887 0-2.954.443-5.833.859-8.703-9.803-1.335-18.864-5.629-25.972-12.737-.682-.677-.917-1.596-1.538-2.338L0 485.216l147.748-36.986c-.651-.593-1.388-1.037-2.014-1.658z"/></symbol><symbol id="icon-pencil" viewBox="0 0 528.899 528.899"><path d="M328.883 89.125l107.59 107.589-272.34 272.34L56.604 361.465l272.279-272.34zm189.23-25.948l-47.981-47.981c-18.543-18.543-48.653-18.543-67.259 0l-45.961 45.961 107.59 107.59 53.611-53.611c14.382-14.383 14.382-37.577 0-51.959zM.3 512.69c-1.958 8.812 5.998 16.708 14.811 14.565l119.891-29.069L27.473 390.597.3 512.69z"/></symbol><symbol id="icon-phone" viewBox="0 0 472.807 472.807"><path fill="#32c5d2" d="M338.649 0H134.158c-13.567 0-24.605 10.632-24.605 23.695v425.433c0 13.046 11.03 23.679 24.605 23.679h204.491c13.575 0 24.605-10.632 24.605-23.679V23.687C363.254 10.624 352.223 0 338.649 0zM200.707 36.822H272.1v5.007h-71.393v-5.007zm35.7 411.184c-7.592 0-13.762-6.17-13.762-13.754 0-7.576 6.17-13.737 13.762-13.737 7.592 0 13.762 6.17 13.762 13.737 0 7.585-6.17 13.754-13.762 13.754zM346.46 396.52H126.379V70.337H346.46V396.52z"/></symbol><symbol id="icon-picture" viewBox="0 0 232.322 232.322"><path d="M224.822 23.935H7.5a7.5 7.5 0 0 0-7.5 7.5v169.451a7.5 7.5 0 0 0 7.5 7.5h217.322a7.5 7.5 0 0 0 7.5-7.5V31.435a7.5 7.5 0 0 0-7.5-7.5zm-7.5 15.001v143.091l-59.995-63.799a7.498 7.498 0 0 0-5.462-2.362h-.001a7.506 7.506 0 0 0-5.462 2.36l-25.62 27.227-34.349-45.291a7.499 7.499 0 0 0-5.976-2.968h-.006a7.499 7.499 0 0 0-5.977 2.978L15 178.861V38.936h202.322zm-9.907 154.451H22.824l57.643-76.269 33.722 44.465a7.498 7.498 0 0 0 5.578 2.957 7.525 7.525 0 0 0 5.86-2.35l26.234-27.879 55.554 59.076z"/><path d="M155.237 101.682c13.597 0 24.658-11.061 24.658-24.656 0-13.597-11.061-24.658-24.658-24.658-13.596 0-24.656 11.062-24.656 24.658 0 13.595 11.061 24.656 24.656 24.656zm0-34.315c5.326 0 9.658 4.333 9.658 9.658 0 5.324-4.332 9.656-9.658 9.656-5.325 0-9.656-4.332-9.656-9.656 0-5.325 4.332-9.658 9.656-9.658z"/></symbol><symbol id="icon-plus-2" viewBox="0 0 42 42"><path d="M42 19H23V0h-4v19H0v4h19v19h4V23h19z"/></symbol><symbol id="icon-plus" viewBox="0 0 52 52"><path d="M26 0C11.664 0 0 11.663 0 26s11.664 26 26 26 26-11.663 26-26S40.336 0 26 0zm12.5 28H28v11a2 2 0 0 1-4 0V28H13.5a2 2 0 0 1 0-4H24V14a2 2 0 0 1 4 0v10h10.5a2 2 0 0 1 0 4z"/></symbol><symbol id="icon-redo-arrow" viewBox="0 0 337.792 337.792"><path d="M337.792 134.824l-130.824 99.441v-52.216C117.061 173.419 30.735 207.817.001 302.41-.337 180.728 99.895 111.781 206.968 88.488V35.382l130.824 99.442z"/></symbol><symbol id="icon-settings" viewBox="0 0 268.765 268.765"><path d="M267.92 119.461c-.425-3.778-4.83-6.617-8.639-6.617-12.315 0-23.243-7.231-27.826-18.414-4.682-11.454-1.663-24.812 7.515-33.231a7.463 7.463 0 0 0 .817-10.133 132.977 132.977 0 0 0-21.289-21.5c-3.063-2.458-7.557-2.116-10.213.825-8.01 8.871-22.398 12.168-33.516 7.529-11.57-4.867-18.866-16.591-18.152-29.176a7.455 7.455 0 0 0-6.595-7.849 134.163 134.163 0 0 0-30.232-.08 7.478 7.478 0 0 0-6.654 7.689c.438 12.461-6.946 23.98-18.401 28.672-10.985 4.487-25.272 1.218-33.266-7.574-2.642-2.896-7.063-3.252-10.141-.853a133.478 133.478 0 0 0-21.74 21.493c-2.481 3.086-2.116 7.559.802 10.214 9.353 8.47 12.373 21.944 7.514 33.53-4.639 11.046-16.109 18.165-29.24 18.165-4.261-.137-7.296 2.723-7.762 6.597a134.618 134.618 0 0 0-.058 30.561c.422 3.794 4.961 6.608 8.812 6.608 11.702-.299 22.937 6.946 27.65 18.415 4.698 11.454 1.678 24.804-7.514 33.23a7.469 7.469 0 0 0-.817 10.126 133.459 133.459 0 0 0 21.259 21.508c3.079 2.481 7.559 2.131 10.228-.81 8.04-8.893 22.427-12.184 33.501-7.536 11.599 4.852 18.895 16.575 18.181 29.167a7.464 7.464 0 0 0 6.595 7.85 133.572 133.572 0 0 0 30.233.081 7.479 7.479 0 0 0 6.653-7.696c-.451-12.454 6.946-23.973 18.386-28.657 11.059-4.517 25.286-1.211 33.281 7.572a7.51 7.51 0 0 0 10.142.848 133.787 133.787 0 0 0 21.74-21.494 7.461 7.461 0 0 0-.803-10.213c-9.353-8.47-12.388-21.946-7.529-33.524 4.568-10.899 15.612-18.217 27.491-18.217l1.662.043c3.853.313 7.398-2.655 7.865-6.588a134.504 134.504 0 0 0 .06-30.561zm-133.325 60.03c-24.718 0-44.824-20.106-44.824-44.824 0-24.717 20.106-44.824 44.824-44.824 24.717 0 44.823 20.107 44.823 44.824 0 24.718-20.106 44.824-44.823 44.824z" fill-rule="evenodd" clip-rule="evenodd"/></symbol><symbol id="icon-tablet" viewBox="0 0 401.991 401.991"><path d="M352.029 13.418C343.077 4.471 332.332 0 319.766 0H82.223C69.66 0 58.906 4.471 49.959 13.418c-8.945 8.949-13.418 19.7-13.418 32.264v310.633c0 12.566 4.473 23.309 13.418 32.261 8.947 8.949 19.701 13.415 32.264 13.415h237.542c12.566 0 23.312-4.466 32.264-13.415 8.946-8.952 13.422-19.701 13.422-32.261V45.683c0-12.565-4.486-23.319-13.422-32.265zM213.843 378.299c-3.613 3.614-7.898 5.421-12.849 5.421-4.952 0-9.233-1.807-12.85-5.421-3.617-3.62-5.424-7.904-5.424-12.847 0-4.948 1.807-9.239 5.424-12.847 3.621-3.62 7.902-5.434 12.85-5.434 4.95 0 9.235 1.813 12.849 5.434 3.614 3.607 5.428 7.898 5.428 12.847 0 4.943-1.814 9.224-5.428 12.847zm115.059-58.532c0 2.478-.91 4.613-2.71 6.427-1.813 1.814-3.949 2.711-6.427 2.711H82.223c-2.474 0-4.615-.904-6.423-2.711s-2.712-3.949-2.712-6.427V45.683c0-2.475.903-4.617 2.712-6.424 1.809-1.809 3.949-2.712 6.423-2.712h237.542c2.478 0 4.613.9 6.427 2.712 1.807 1.807 2.71 3.949 2.71 6.424v274.084z"/></symbol></svg>