<svg width="120" height="120" fill="none" xmlns="http://www.w3.org/2000/svg"><path d="M114.75 27.375a.74.74 0 0 0 .75-.75V15.281a.74.74 0 0 0-.75-.75c-.469 0-.75.281-.75.75v11.344c.094.375.375.75.75.75zm0 7.406a.74.74 0 0 0 .75-.75v-3.656a.74.74 0 0 0-.75-.75c-.469 0-.75.281-.75.75v3.656c.094.469.375.75.75.75zM5.063 73.031a.74.74 0 0 0-.75.75v11.344c0 .375.28.75.75.75a.74.74 0 0 0 .75-.75V73.781a.74.74 0 0 0-.75-.75zm0 15.094a.74.74 0 0 0-.75.75v3.656c0 .375.28.75.75.75a.74.74 0 0 0 .75-.75v-3.656a.74.74 0 0 0-.75-.75zm80.531-30.75a.716.716 0 0 0 .469.188.717.717 0 0 0 .468-.188.736.736 0 0 0 0-1.031l-1.5-1.5a.736.736 0 0 0-1.031 0 .736.736 0 0 0 0 1.031l1.594 1.5zm3.281 3.375l1.5 1.5a.716.716 0 0 0 .469.188.717.717 0 0 0 .469-.188.736.736 0 0 0 0-1.031l-1.5-1.5a.736.736 0 0 0-1.032 0c-.187.281-.187.75.094 1.031zm-4.781 1.406a.717.717 0 0 0 .469.188.716.716 0 0 0 .468-.188l1.5-1.5a.736.736 0 0 0 0-1.031.736.736 0 0 0-1.03 0l-1.5 1.5c-.188.375-.188.75.093 1.031zm5.344-4.593a.716.716 0 0 0 .468-.188l1.5-1.5a.736.736 0 0 0 0-1.031.736.736 0 0 0-1.031 0l-1.5 1.5a.736.736 0 0 0 0 1.031c.188.188.375.188.563.188zM50.156 5.344a.716.716 0 0 0 .469.187.716.716 0 0 0 .469-.187.736.736 0 0 0 0-1.032l-1.407-1.5a.736.736 0 0 0-1.03 0 .736.736 0 0 0 0 1.032l1.5 1.5zm4.782 4.781a.716.716 0 0 0 .468.188.717.717 0 0 0 .469-.188.736.736 0 0 0 0-1.031l-1.5-1.5a.736.736 0 0 0-1.031 0 .736.736 0 0 0 0 1.031l1.593 1.5zm-5.813.188a.717.717 0 0 0 .469-.188l1.5-1.5a.736.736 0 0 0 0-1.031.736.736 0 0 0-1.032 0l-1.5 1.5a.736.736 0 0 0 0 1.031c.188.188.376.188.563.188zM54 5.531a.716.716 0 0 0 .469-.187l1.5-1.5a.736.736 0 0 0 0-1.031.736.736 0 0 0-1.032 0l-1.5 1.5a.736.736 0 0 0 0 1.03c.188.095.376.188.563.188zm.281 82.407l-1.5-1.5a.736.736 0 0 0-1.031 0 .736.736 0 0 0 0 1.03l1.5 1.5c.188.094.375.094.563.094a.716.716 0 0 0 .468-.187c.282-.281.282-.656 0-.938zm3.282 3.281a.736.736 0 0 0-1.032 0 .736.736 0 0 0 0 1.031l1.5 1.5a.717.717 0 0 0 .469.188.716.716 0 0 0 .469-.188.736.736 0 0 0 0-1.031l-1.407-1.5zm-4.313 0l-1.5 1.5a.736.736 0 0 0 0 1.031.716.716 0 0 0 .469.188.717.717 0 0 0 .468-.188l1.5-1.5a.736.736 0 0 0 0-1.031c-.187-.281-.656-.281-.937 0zm4.875-4.781l-1.5 1.5a.736.736 0 0 0 0 1.03.717.717 0 0 0 .469.188.716.716 0 0 0 .468-.187l1.5-1.5a.736.736 0 0 0 0-1.031c-.28-.282-.656-.282-.937 0zM2.719 109.875a.736.736 0 0 0-1.031 0 .735.735 0 0 0 0 1.031l1.5 1.5a.715.715 0 0 0 .468.188.715.715 0 0 0 .469-.188.735.735 0 0 0 0-1.031l-1.406-1.5zm4.875 4.781a.736.736 0 0 0-1.032 0 .735.735 0 0 0 0 1.031l1.5 1.5a.715.715 0 0 0 .47.188.715.715 0 0 0 .468-.188.735.735 0 0 0 0-1.031l-1.406-1.5zm-4.313 0l-1.5 1.5a.735.735 0 0 0 0 1.031.715.715 0 0 0 .469.188.715.715 0 0 0 .469-.188l1.5-1.5a.735.735 0 0 0 0-1.031c-.282-.281-.657-.281-.938 0zm4.782-4.781l-1.5 1.5a.735.735 0 0 0 0 1.031.715.715 0 0 0 .468.188.715.715 0 0 0 .469-.188l1.5-1.5a.735.735 0 0 0 0-1.031c-.188-.281-.656-.281-.938 0zM99.469 32.25c0-1.688-1.313-3-3-3-1.688 0-3 1.313-3 3 0 1.688 1.312 3 3 3 1.687 0 3-1.313 3-3zm-4.5 0c0-.844.75-1.594 1.594-1.594.843 0 1.593.75 1.593 1.594 0 .844-.75 1.594-1.594 1.594-.937 0-1.593-.657-1.593-1.594zm-19.406 78.188c-1.688 0-3 1.312-3 2.999 0 1.688 1.312 3 3 3 1.687 0 3-1.312 3-3 0-1.687-1.407-2.999-3-2.999zm0 4.499c-.844 0-1.594-.75-1.594-1.593 0-.844.75-1.594 1.594-1.594.843 0 1.593.75 1.593 1.594-.094.937-.75 1.593-1.594 1.593zM26.156 96.469c0-1.688-1.312-3-3-3-1.687 0-3 1.312-3 3 0 1.687 1.313 3 3 3 1.688-.094 3-1.406 3-3zm-4.5 0c0-.844.75-1.594 1.594-1.594.844 0 1.594.75 1.594 1.594 0 .844-.75 1.594-1.594 1.594-.938-.094-1.594-.75-1.594-1.594zm-13.312-40.5c0 .375.281.75.75.75h12.094a.74.74 0 0 0 .75-.75c0-.469-.375-.657-.75-.657H9.094c-.375 0-.75.282-.75.657zm-3.281-.656H1.219a.74.74 0 0 0-.75.75c0 .468.281.75.75.75h3.937a.74.74 0 0 0 .75-.75c0-.47-.375-.75-.843-.75zM1.219 52.5h8.437a.74.74 0 0 0 .75-.75c0-.469-.281-.75-.75-.75H1.22a.74.74 0 0 0-.75.75c0 .469.281.75.75.75zm14.812 0a.74.74 0 0 0 .75-.75c0-.469-.281-.75-.75-.75h-2.718a.74.74 0 0 0-.75.75c0 .469.28.75.75.75h2.718zm69.188 41.25a.74.74 0 0 0-.75-.75H72.375a.74.74 0 0 0-.75.75c0 .375.281.75.75.75h12.094c.469-.094.75-.375.75-.75zm7.219-.75H88.5a.74.74 0 0 0-.75.75c0 .375.281.75.75.75h3.938a.74.74 0 0 0 .75-.75c-.094-.375-.376-.75-.75-.75zm0 4.219H84a.74.74 0 0 0-.75.75c0 .375.281.75.75.75h8.438a.74.74 0 0 0 .75-.75c-.094-.469-.376-.75-.75-.75zm-12.094 0h-2.719a.74.74 0 0 0-.75.75c0 .375.281.75.75.75h2.719a.74.74 0 0 0 .75-.75c-.094-.469-.375-.75-.75-.75z" fill="#616161"/><path d="M22.5 27.281v4.969c0 .375.281.656.75.656.375 0 .75-.281.656-.75v-4.968c1.219-.282 2.063-1.407 2.063-2.625 0-.75-.375-1.5-.844-1.97l4.781-9c.188-.374.094-.75-.281-.937-.375-.187-.75-.094-.938.281l-4.78 9c-.188-.093-.376-.093-.657-.093a2.72 2.72 0 0 0-2.719 2.718c0 1.407.844 2.438 1.969 2.72zm.75-3.937c.75 0 1.313.562 1.313 1.312S24 25.97 23.25 25.97s-1.313-.563-1.313-1.313.563-1.312 1.313-1.312z" fill="#5182DD"/><path d="M23.25 44.719c11.063 0 20.063-9 20.063-20.063-.094-11.062-9-19.968-20.063-19.968-11.063 0-20.063 8.906-20.063 19.968 0 11.063 9 20.063 20.063 20.063zm0-38.625c10.219 0 18.656 8.343 18.656 18.656 0 10.219-8.343 18.656-18.656 18.656-10.219 0-18.656-8.343-18.656-18.656 0-10.313 8.343-18.656 18.656-18.656z" fill="#616161"/><path d="M23.25 11.438a.74.74 0 0 0 .75-.75V8.624a.74.74 0 0 0-.75-.75.74.74 0 0 0-.75.75v2.156c0 .375.375.656.75.656zM9.281 24H7.125a.74.74 0 0 0-.75.75c0 .375.281.75.75.75h2.156a.74.74 0 0 0 .75-.75.74.74 0 0 0-.75-.75zM23.25 37.875a.74.74 0 0 0-.75.75v2.156c0 .375.281.75.75.75a.74.74 0 0 0 .75-.75v-2.156c-.094-.375-.375-.75-.75-.75zm13.875-12.469h2.156a.74.74 0 0 0 .75-.75.74.74 0 0 0-.75-.75h-2.156a.74.74 0 0 0-.75.75c.094.375.375.75.75.75zm44.344 15.657c.281 0 .469-.094.562-.376.188-.374.094-.75-.281-.937L55.781 24.469c-.375-.188-.75-.094-.937.281-.188.375-.094.75.281.938l25.969 15.28c.094.094.187.094.375.094zm-29.25-1.219h.187c.282 0 .563-.188.657-.563 0-.093.093-.187.093-.281.188-.375.469-.469 1.032-.563.562-.093 1.218-.187 1.687-.843.281-.282.188-.75-.094-1.032-.281-.28-.75-.187-1.031.094-.188.282-.469.282-.938.375-.562.094-1.406.282-1.968 1.219l-.282.563c0 .562.188.937.657 1.03zm5.062-6.469c.563-.094 1.407-.281 1.969-1.219.188-.375.094-.75-.281-.937-.375-.188-.75-.094-.938.281-.187.375-.468.469-1.031.563-.563.093-1.406.28-1.969 1.218 0 .094-.093.094-.093.188-.188.375 0 .75.28.937.094.094.188.094.282.094.281 0 .469-.188.656-.375v-.094c.282-.562.563-.562 1.125-.656zm-8.437 10.219c-.188.375-.094.75.281.937.094.094.281.094.375.094.281 0 .469-.094.563-.375.187-.375.468-.469 1.03-.563.47-.093.938-.187 1.407-.562.281-.281.375-.656.094-1.031-.282-.282-.657-.375-1.032-.094-.187.188-.468.188-.843.281-.469.188-1.313.375-1.875 1.313zm9.937-1.219c.188-.375.469-.469 1.032-.563.562-.093 1.218-.187 1.687-.843.281-.282.188-.75-.094-1.032-.281-.28-.75-.187-1.031.094-.188.188-.469.282-.938.375-.562.094-1.406.282-1.968 1.219l-.282.563c-.093.374.094.75.47.843h.187c.281 0 .562-.187.656-.562.188.093.281 0 .281-.094zm-4.312 4.5c-.188.375-.094.75.281.938.094.093.281.093.375.093.281 0 .469-.093.563-.375.187-.375.468-.468 1.03-.562.47-.094.938-.188 1.407-.563.281-.281.375-.656.094-1.031-.282-.281-.657-.375-1.032-.094-.187.188-.468.188-.843.282-.469.28-1.313.374-1.875 1.312zm6.375-9.281c.094.093.187.093.281.093.281 0 .469-.187.656-.374v-.094c.188-.375.47-.469 1.032-.563.562-.093 1.406-.281 1.968-1.218.188-.376.094-.75-.28-.938-.376-.188-.75-.094-.938.281-.188.375-.47.469-1.032.563-.562.093-1.406.281-1.968 1.218 0 .094-.094.094-.094.188a.693.693 0 0 0 .375.844zm-.469 13.594c.094.093.281.093.375.093.281 0 .469-.093.563-.375.187-.375.468-.468 1.03-.562.47-.094.938-.188 1.407-.563.281-.281.375-.656.094-1.031-.282-.281-.657-.375-1.032-.094-.187.188-.468.188-.843.282-.563.093-1.407.28-1.969 1.218-.094.375.094.844.375 1.032zm6.094-10.313c.094.094.187.094.281.094.281 0 .469-.188.656-.375l.094-.094c.188-.375.469-.469 1.031-.563.563-.093 1.406-.28 1.969-1.218.188-.375.094-.75-.281-.938-.375-.187-.75-.093-.938.282-.187.374-.469.468-1.031.562-.563.094-1.406.281-1.969 1.219 0 .093-.094.093-.094.187-.187.282 0 .75.282.844zm-2.063 4.875c.188-.375.469-.469 1.031-.563.563-.093 1.22-.187 1.688-.843.281-.282.188-.75-.094-1.032-.281-.28-.75-.187-1.031.094-.188.188-.469.282-.938.375-.468.094-1.312.282-1.874 1.219l-.282.563c-.093.374.094.75.469.843h.188c.28 0 .562-.187.656-.562.094 0 .187 0 .187-.094zm8.719-1.875c.188-.375.469-.469 1.031-.563.563-.093 1.406-.28 1.969-1.218.188-.375.094-.75-.281-.938-.375-.187-.75-.093-.938.282-.187.374-.469.468-1.031.562-.563.094-1.406.281-1.969 1.219 0 .093-.094.093-.094.187-.187.375 0 .75.282.938.094.093.187.093.281.093.375-.093.563-.28.75-.562zM66 54.469c.094.093.281.093.375.093.281 0 .469-.093.563-.374.187-.376.468-.47 1.03-.563.47-.094.938-.188 1.407-.563.281-.28.375-.656.094-1.03-.281-.282-.656-.376-1.031-.094-.188.187-.47.187-.844.28-.563.094-1.406.282-1.969 1.22-.094.468.094.843.375 1.03zm4.031-5.438c.188-.375.469-.468 1.031-.562.563-.094 1.22-.188 1.688-.844.281-.281.188-.75-.094-1.031-.281-.282-.75-.188-1.031.093-.188.188-.469.282-.938.376-.562.093-1.406.28-1.968 1.218l-.281.563c-.094.375.093.75.468.843h.188c.281 0 .562-.187.656-.562.188.094.281 0 .281-.094z" fill="#616161"/><path d="M72.281 75.844c.094-.375-.187-.75-.562-.75-3.75-.844-7.125-5.25-9.656-8.438-.282-.375-.563-.75-.844-1.031-2.719-3.469-6.844-5.719-10.688-5.906-2.812-.094-5.25.937-7.218 3.093-1.782 1.97-2.626 4.782-2.25 7.407-1.688 1.781-2.907 3.75-3.75 5.531V62.906c-.094-1.218 0-3.75.843-5.531.375 1.125 1.407 1.969 2.625 1.969a2.72 2.72 0 0 0 2.719-2.719 2.72 2.72 0 0 0-2.719-2.719c-.468 0-.843.094-1.312.282h-.188c-3.843 1.5-3.375 8.53-3.375 8.812v18.938c-.468-.938-1.218-1.97-2.062-2.907.375-1.969-.188-4.031-1.5-5.437-1.313-1.5-3.094-2.25-5.063-2.156-2.625.093-5.531 1.687-7.406 4.03l-.563.75c-1.687 2.157-3.937 5.063-6.375 5.626-.374.094-.562.375-.562.75s.375.656.75.656c4.219-.188 8.063 0 11.625.469.938.187 1.875.281 2.813.281.937 0 1.968-.188 3-.656 1.312-.563 2.25-1.5 2.906-2.813 1.875 2.25 2.531 4.969 2.625 5.344v12.563c-2.157.28-3.375 1.968-4.594 3.562-.75 1.031-1.5 1.969-2.531 2.719-1.219.844-2.625 1.406-3.938 1.875-2.531.844-5.156 1.781-6.468 5.156-.094.188-.094.469.093.656.094.188.375.282.563.282H57.75c.375 0 .656-.282.75-.657 0-.375-.281-.656-.656-.75-5.25-.468-7.688-3.281-10.219-6.281-2.25-2.719-4.594-5.438-9.094-6.469-.375-.094-.656-.094-1.031-.187V80.156c.094-.562 1.125-4.781 4.125-8.25.75 2.156 2.344 3.938 4.406 4.875 1.5.656 2.907.844 4.313.844 1.312 0 2.718-.188 4.031-.375 5.25-.844 10.875-1.031 17.156-.75.375 0 .656-.281.75-.656zM42.187 56.53c0 .75-.562 1.313-1.312 1.313s-1.313-.563-1.313-1.313.563-1.312 1.313-1.312c.75-.094 1.313.562 1.313 1.312zM30 81.938c-1.688.75-3.188.562-5.063.28-2.625-.374-5.437-.562-8.437-.562h-.281c1.687-1.312 3.093-3.187 4.312-4.687l.563-.75c1.312-1.688 3.843-3.469 6.375-3.563 1.593-.094 2.906.563 3.937 1.688.844.937 1.313 2.156 1.219 3.375-.938-.656-1.969-1.125-3.188-1.5-.093 0-2.25-.563-4.78.75-.376.187-.47.562-.282.937s.563.469.938.281c2.062-1.03 3.75-.656 3.75-.656 1.312.281 2.437.938 3.28 1.688-.374 1.312-1.218 2.25-2.343 2.719zm16.5 23.906c1.688 1.969 3.375 4.031 6 5.344H20.25c1.125-2.063 3-2.625 5.156-3.375 1.407-.469 2.907-1.032 4.313-2.063 1.218-.844 2.062-1.969 2.812-3 1.5-1.969 2.625-3.563 5.532-2.906 4.03.937 6.187 3.469 8.437 6zm7.688-30c-2.72.375-5.063.75-7.594-.375-1.969-.844-3.375-2.531-3.844-4.688a9.364 9.364 0 0 1 2.719-1.875c.281 0 1.875-.094 4.875 2.156a.716.716 0 0 0 .468.188c.188 0 .47-.094.563-.281a.763.763 0 0 0-.188-1.031 14.923 14.923 0 0 0-3.28-1.97H48c.188 0 4.875-1.124 9.563 3.938.28.281.75.281 1.03.094.282-.281.282-.75.094-1.031-5.25-5.719-10.687-4.406-10.874-4.313-2.063.469-3.75 1.406-5.157 2.531 0-1.968.657-3.843 1.969-5.343 1.594-1.782 3.563-2.625 5.813-2.625h.28c3.844.093 7.594 2.812 9.657 5.343.281.376.563.657.844 1.032 1.875 2.437 4.312 5.531 7.125 7.406-5.25-.188-9.844.094-14.156.844z" fill="#5182DD"/><path d="M36.188 102.656c-.375-.187-.75 0-.938.375 0 0-1.594 3.844-4.594 4.219-.375.094-.656.375-.562.844.094.375.375.562.656.562h.094c3.75-.562 5.625-4.969 5.625-5.062.281-.375.094-.75-.281-.938z" fill="#5182DD"/><path d="M119.531 111.656l-2.062-5.812a.706.706 0 0 0-.656-.469h-8.438V17.906c0-1.687-.75-3.375-1.969-4.593l-4.218-4.032a6.26 6.26 0 0 0-4.313-1.687H83.344L80.625 6a2.062 2.062 0 0 0-1.313-.187c-.468.093-.75.375-1.03.75l-.094.093c-.376.844-.094 1.875.656 2.344l.75.469-5.813 9.844-1.5-.844c-.375-.188-.75-.094-.937.281l-1.594 2.719c-6.188-2.438-11.719-2.157-13.594 1.031-.093.188-.093.375-.093.563 0 .187.187.375.28.468l25.97 15.282c.093.093.28.093.374.093.282 0 .47-.093.563-.375 1.125-1.968.75-4.593-1.125-7.5a21.72 21.72 0 0 0-4.5-4.875l1.594-2.718c.094-.188.094-.375.094-.563-.094-.188-.188-.375-.282-.469l-1.406-.843 5.813-9.844.75.469c.28.187.562.187.843.187.563 0 1.125-.281 1.406-.844l.094-.094c.469-.75.188-1.78-.562-2.25l-.188-.093h12.094c1.219 0 2.438.469 3.375 1.312l4.219 4.031c.937.938 1.5 2.25 1.5 3.563v87.469h-8.438a.704.704 0 0 0-.656.469l-2.063 5.812c-.093.188 0 .469.094.656.094.188.375.282.563.282h22.312c.188 0 .469-.094.563-.282.187-.281.187-.468.187-.75zM81 31.781c1.406 2.063 1.875 3.938 1.406 5.344L57.75 22.687c2.344-2.437 9.094-1.593 15.375 2.063 3.469 1.969 6.188 4.5 7.875 7.031zm-4.406-6.656l-5.531-3.281 1.124-1.875 1.5.843 2.626 1.5 1.5.844-1.22 1.969zm-.188-4.313l-.094-.093L75 20.062l5.813-9.843 1.406.844-5.813 9.75zm8.906-10.125l-.093.094c-.094.094-.188.188-.375.094l-1.313-.75-2.625-1.5-1.312-.75c-.094-.094-.188-.281-.094-.375l.094-.094c.094-.093.094-.093.187-.093h.188l5.25 3.093c.094 0 .187.094.094.281zM97.5 111.189l1.5-4.407h17.25l1.5 4.407H97.5z" fill="#616161"/></svg>