<svg xmlns="http://www.w3.org/2000/svg" viewBox="0 0 512 512"><g data-name="Слой 2"><g data-name="Layer 1" fill-rule="evenodd"><path d="M5.28 10.56A5.28 5.28 0 1 0 0 5.28a5.29 5.29 0 0 0 5.28 5.28z" fill="#f2921a"/><path d="M4.23 6.85a.52.52 0 1 0 .52.52.52.52 0 0 0-.52-.52zM2.67 2.67v.52h.52l.94 2-.37.63a.93.93 0 0 0-.05.26.52.52 0 0 0 .52.52h3.14v-.54h-3A.06.06 0 0 1 4.29 6l.23-.44h1.94a.48.48 0 0 0 .44-.26l.94-1.7a.14.14 0 0 0 .05-.13.25.25 0 0 0-.26-.26H3.76l-.23-.52zm4.18 4.18a.52.52 0 1 0 .52.52.52.52 0 0 0-.52-.52z" fill="#fff"/></g></g></svg>