<svg xmlns="http://www.w3.org/2000/svg" viewBox="0 0 35.98 32.19"><defs><style>.cls-1{fill:#7e8090}.cls-1,.cls-2,.cls-3{fill-rule:evenodd}.cls-2{fill:#ffff98}.cls-3{fill:#fff}</style></defs><g id="Слой_2" data-name="Слой 2"><g id="Layer_1" data-name="Layer 1"><path class="cls-1" d="M31 20.76c.14-.21.28-.41.45-.64.3-.39.16-.24.65-.34l.46-.88a4.53 4.53 0 0 1 2.77 1.1l-1.4 1.89L31 20.76zm-2.66 8.64c.26-.57 3-4 3.64-4.84a16.27 16.27 0 0 0 1.2-1.64 16.85 16.85 0 0 0-2.74-1.2 33.27 33.27 0 0 0-2.92 4.72 1.52 1.52 0 0 0-.29.87 1.38 1.38 0 0 1-.44.84c.49.31 1.12 1.07 1.55 1.25zm-3.24 2.69a26.63 26.63 0 0 1 0-2.79c.16-.27 0-.05.26-.25a2.77 2.77 0 0 0 .25-.28 3.59 3.59 0 0 1 1.06.8 4 4 0 0 1 .82.87c-.69.9-.82.8-2 1.47l-.39.18zm-10.87.21a5.4 5.4 0 0 1-.29-1.84c1.37.12 2.67.16 4.07.31 1.15.12 2.94.19 4 .43-2 .49-4 .46-5.86.8a18.76 18.76 0 0 1-1.95.31zm-1.83-8.62a19.8 19.8 0 0 0-.2-2.26c-.1-.79-.1-1.57-.13-2.36-.12-3.51-.16-5.94-.49-9.46 0-.28-.25-2.18-.21-2.23a10.24 10.24 0 0 1 2.22-.25c-.22 2.53-.62 14.51-1.2 16.57zm2.73-20.07c-.16-.45-.52-.58-.89-.16s-.62.13-.71.93c.14.22.28.33.38.49L13.73 6c-1.27.13-3.42-.05-3.63.6 0 .51.07.33.15.67 0 .13 0 .47.05.63l.31 4c.11 1.81.2 3.53.24 5.36a74.8 74.8 0 0 0 .76 9.24c.13.72.09.52.58.9a6.4 6.4 0 0 0 .09 1.79c-.53-.08-1.41-.11-1.11.63.19.46 1.07.41 1.61.54 0 .56.16 1.29.24 1.84s-.3 1.11.44 1.47c.42.21.57-.06.76-.19a16.09 16.09 0 0 1 2.61-.42c1.22-.18 2.48-.23 3.68-.4s2.3-.47 3.44-.66c-.15 1.1-.08 2.47 1.17 1.55a9.69 9.69 0 0 1 2.14-1.25 12.76 12.76 0 0 0 4.83.25.56.56 0 0 0 .14-.92c-.31-.24-2.71-.1-3.53-.18a5.16 5.16 0 0 1 .27-.51c.42-.73-.39-.07.78-1.58a9 9 0 0 1 1.43-1.71 12.56 12.56 0 0 0-.1 2.13c0 .85-.23 1.44.76 1.46.61-.53.42-1.07.41-1.95s.06-1.52.11-2.34c.08-1.3-.08-.87.65-1.83a15.35 15.35 0 0 0 1.12-1.55l.76.2c.69-.55.27-.69 0-1.2.3-.65 1.06-1.27 1.41-1.93a1.47 1.47 0 0 0-.82-2c-.76-.42-3.11-1.24-3.85-.54-1.16 1.09-5.31 7.47-5.77 9.2-.63 0-.74.12-.91.77-1 0-.9 1.33-1.05 2.44a6.32 6.32 0 0 0-2.5-.57c-2.81-.25-5.21-.5-8.08-.65.46-1.15.17-.6 0-1.2a38.46 38.46 0 0 1 .29-4.67c.29-2.13.41-4.19.57-6.3.24-3.13.25-6.26.48-9.16a28.39 28.39 0 0 1 .35-3.22c1.55.21 3.08.27 4.67.4 2.65.21 6.21 1.18 9.48 1.49a20.43 20.43 0 0 1 4.51.81c-.07.76-.3 1.63-.43 2.42a33.1 33.1 0 0 0-.39 4.61c0 .9-.57 1.58.1 2-.85.48-.32 1.12.11 1.15a.54.54 0 0 0 .59-.49c0-.31-.14-.4-.32-.67.91-.37.71-3.14.78-3.92.13-1.39.33-3 .54-4.41.17-.33.64-.41.48-1-.36-1.29-5-1.59-6.14-1.77-.89-.14-1.85-.23-2.79-.39-1.91-.32-3.69-.68-5.63-1-1.73-.22-3.64-.2-5.44-.36z" transform="translate(-.5 -1.67)"/><path class="cls-1" d="M19.94 14.17c0-.53-.24-.82.14-1.35.16-.22.61-.62 1-.51s.83 1.5.7 2.19a7.26 7.26 0 0 1-1.83-.33zm-1.17-.78c.09-2 2.72-3.42 3.83-1a2.92 2.92 0 0 1 .24.87c0 .18.05.31.07.46l.13.54c1.87-.74 1.87-2.32.63-3.4a9.58 9.58 0 0 0-1.79-1.16c-1.31-.7-1.57.3-2.09-.7a4.06 4.06 0 0 0-1.59 1.88 1.94 1.94 0 0 0 .57 2.52zm3-5.07c-.14-.43 0-.42-.48-.62-1.29-.53-2.72.58-3.46 1.47-2.14 2.58-.8 5.46 2.33 6.29 2.36.63 5.16-.36 5.5-2.58.44-2.66-2.66-3.81-3.87-4.55z" transform="translate(-.5 -1.67)"/><path class="cls-2" d="M28.34 29.4c.26-.57 3-4 3.64-4.84a16.27 16.27 0 0 0 1.2-1.64 16.85 16.85 0 0 0-2.74-1.2 33.27 33.27 0 0 0-2.92 4.72 1.52 1.52 0 0 0-.29.87 1.38 1.38 0 0 1-.44.84c.48.31 1.12 1.06 1.55 1.25zM12.4 23.68c.58-2.06 1-14 1.2-16.57a10.24 10.24 0 0 0-2.22.25c0 .06.19 1.95.21 2.23.32 3.53.37 6 .49 9.46 0 .79 0 1.57.13 2.36a19.8 19.8 0 0 1 .19 2.27zm6.37-10.29c.09-2 2.72-3.42 3.83-1a2.92 2.92 0 0 1 .24.87c0 .18.05.31.07.46l.13.54c1.87-.74 1.87-2.32.63-3.4a9.58 9.58 0 0 0-1.79-1.16c-1.31-.7-1.57.3-2.09-.7a4.06 4.06 0 0 0-1.59 1.88 1.94 1.94 0 0 0 .57 2.51z" transform="translate(-.5 -1.67)"/><path class="cls-1" d="M27.59 20.11c.4-.15.74-1-.52-1.24-1.77-.27-3.75-.42-5.53-.54-.87-.06-1.73-.1-2.63-.13-1.28 0-1.9-.27-1.92.69.48.59 1.2.38 2.07.45 2.52.21 5.08.28 7.58.66.36.06.71.2.95.11zm-4.07 2.51c1.38 0 2 .3 2-.42.07-.89-1.22-.75-1.86-.75h-2.29l-2.27.07c-.82 0-1.47-.14-2 .36 0 1 .94.73 1.78.75s1.55 0 2.33 0 1.52-.01 2.31-.01z" transform="translate(-.5 -1.67)"/><path class="cls-2" d="M14.23 32.29a18.76 18.76 0 0 0 1.95-.29c1.86-.34 3.82-.31 5.86-.8-1.09-.24-2.89-.31-4-.43-1.4-.15-2.7-.19-4.07-.31a5.4 5.4 0 0 0 .26 1.83z" transform="translate(-.5 -1.67)"/><path class="cls-3" d="M33.93 21.91l1.4-1.91a4.53 4.53 0 0 0-2.73-1.12l-.46.88c-.5.1-.35-.06-.65.34-.17.23-.31.42-.45.64z" transform="translate(-.5 -1.67)"/><path class="cls-1" d="M17.78 25.27c.59.43 2.21.36 3.06.44a10.81 10.81 0 0 0 1.59.11c.42 0 .91-.33.61-.82s-3.47-.48-4.43-.51c-.68-.02-.88.08-.83.78z" transform="translate(-.5 -1.67)"/><path class="cls-3" d="M25.1 32.09l.39-.18c1.22-.67 1.35-.57 2-1.47a4 4 0 0 0-.82-.87 3.59 3.59 0 0 0-1.06-.8 2.77 2.77 0 0 1-.25.28c-.23.2-.1 0-.26.25a26.63 26.63 0 0 0 0 2.79z" transform="translate(-.5 -1.67)"/><path class="cls-1" d="M27.11 10.23c.34.05.27-.19.79-.11 1 .16 2 .67 2.27.56.59-.2.66-1.27-1.5-1.6-2.93-.45-2.67.98-1.56 1.15z" transform="translate(-.5 -1.67)"/><path class="cls-3" d="M19.94 14.17a7.26 7.26 0 0 0 1.83.33c.13-.69-.22-2.06-.7-2.19s-.83.29-1 .51c-.37.53-.13.82-.13 1.35z" transform="translate(-.5 -1.67)"/><path class="cls-1" d="M30.09 12.64c.24-.89-.5-1-1.2-1.06s-1.62-.46-1.83.07c-.3.75.75.86 1.33 1 .75.12 1.18.35 1.7-.01zm-2.56 1.59a.51.51 0 0 0-.42.89c.58.48 2.65.6 2-.42-.19-.3-1.17-.41-1.58-.47z" transform="translate(-.5 -1.67)"/><path d="M.5 8l1.05-.14a2.32 2.32 0 0 0 .62 1.29 1.53 1.53 0 0 0 1.06.4 1.7 1.7 0 0 0 1.27-.49A1.74 1.74 0 0 0 5 7.78a1.62 1.62 0 0 0-.47-1.2 1.64 1.64 0 0 0-1.21-.47 3 3 0 0 0-.74.12l.12-.93h.17A2.17 2.17 0 0 0 4.08 5a1.2 1.2 0 0 0 .54-1.08 1.28 1.28 0 0 0-.39-1 1.39 1.39 0 0 0-1-.38 1.44 1.44 0 0 0-1 .39 1.94 1.94 0 0 0-.53 1.16L.61 3.9a2.71 2.71 0 0 1 .88-1.64 2.54 2.54 0 0 1 1.71-.58A2.81 2.81 0 0 1 4.49 2a2.18 2.18 0 0 1 .91.82 2.11 2.11 0 0 1 .31 1.11 1.81 1.81 0 0 1-.3 1 2 2 0 0 1-.88.73 2 2 0 0 1 1.18.73 2.22 2.22 0 0 1 .42 1.39 2.54 2.54 0 0 1-.82 1.91 2.89 2.89 0 0 1-2.07.78 2.7 2.7 0 0 1-1.88-.67A2.61 2.61 0 0 1 .5 8z" transform="translate(-.5 -1.67)" fill="#7e8091"/></g></g></svg>