<svg xmlns="http://www.w3.org/2000/svg" viewBox="0 0 59 59"><path d="M52.5 6H38.46c-.11-1.25-.5-3.36-1.82-4.71A4.23 4.23 0 0 0 33.5 0h-10c-1.25 0-2.31.43-3.14 1.29-1.32 1.35-1.7 3.46-1.82 4.71H6.5a1 1 0 1 0 0 2h2.04l1.92 46.02c.03 1.72 1.1 4.98 4.9 4.98h28.28c3.8 0 4.87-3.26 4.9-4.96L50.46 8h2.04a1 1 0 1 0 0-2zm-32 44a1 1 0 1 1-2 0V17a1 1 0 1 1 2 0v33zm10 0a1 1 0 1 1-2 0V17a1 1 0 1 1 2 0v33zm10 0a1 1 0 1 1-2 0V17a1 1 0 1 1 2 0v33zM21.8 2.68c.44-.46 1-.68 1.7-.68h10c.7 0 1.26.22 1.7.68.81.82 1.13 2.27 1.25 3.32h-15.9c.11-1.05.44-2.5 1.24-3.32z"/></svg>