<svg xmlns="http://www.w3.org/2000/svg" viewBox="0 0 444.89 444.89"><path d="M440.5 173.1a15 15 0 0 0 0-21.21l-22.51-22.51a15 15 0 0 0-19.04-1.8l-47.33 32.17 31.97-47.65a15 15 0 0 0-1.85-18.97L332.91 44.3a15 15 0 0 0-17.11-2.9l-8.45 4.06 4.05-8.97a15 15 0 0 0-3.07-16.77L293 4.39a15 15 0 0 0-21.21 0L152.73 123.45l168.7 168.71L440.5 173.1zm-309.94-27.48L96.09 180.1a15 15 0 0 0 0 21.21l32.7 32.7c6.3 6.3 9.35 14.99 8.38 23.84a29.12 29.12 0 0 1-13.37 21.48C27.74 340.55 18.78 349.5 15.84 352.45a54.23 54.23 0 0 0 0 76.6 54.23 54.23 0 0 0 76.6 0c2.94-2.94 11.9-11.9 73.13-107.96a29.1 29.1 0 0 1 21.47-13.34 29.1 29.1 0 0 1 23.86 8.35l32.69 32.7a15 15 0 0 0 21.21 0l34.47-34.47-168.71-168.7zm-60.51 259.2a21.2 21.2 0 1 1-29.98-29.98 21.2 21.2 0 0 1 29.98 29.99z"/></svg>