<svg xmlns="http://www.w3.org/2000/svg" viewBox="0 0 50 50"><path d="M27.59 29.79v-1.12a2.46 2.46 0 0 0-4.93 0v1.12a2.46 2.46 0 0 0 4.93 0z"/><path d="M29.28 31.15a4.35 4.35 0 0 1-4.16 3.1 4.35 4.35 0 0 1-4.15-3.1H4a6.94 6.94 0 0 1-2.99-.68v11.27c0 2.2 1.8 4 4 4h40.23c2.2 0 4-1.8 4-4V30.46c-.91.43-1.92.68-3 .68H29.29zm16.8-20.23h-9.6a7.62 7.62 0 0 0-7.51-6.41h-7.7a7.62 7.62 0 0 0-7.5 6.4h-9.6a4.1 4.1 0 0 0-4.17 4v9.24a4 4 0 0 0 4 4h16.78a4.34 4.34 0 0 1 1.33-2.93l.08-.07c.17-.15.35-.3.55-.43l.22-.13c.16-.09.32-.19.5-.26l.43-.13c.12-.04.24-.09.37-.11a4.33 4.33 0 0 1 1.72 0c.13.02.25.07.38.1.14.05.29.08.43.14l.5.26c.06.05.14.08.22.13.2.12.37.27.54.43l.08.07a4.34 4.34 0 0 1 1.34 2.93h16.78a4 4 0 0 0 4-4v-9.23c0-2.2-1.88-4-4.17-4zm-28.46 0a3.86 3.86 0 0 1 3.66-2.67h7.69c1.7 0 3.15 1.13 3.66 2.67H17.62z"/></svg>