<svg height="512pt" viewBox="0 0 512 512" width="512pt" xmlns="http://www.w3.org/2000/svg"><path d="M432.73 0H79.27C35.56 0 0 35.56 0 79.27v34.27h512V79.27C512 35.56 476.44 0 432.73 0zM79.27 71.77c-8.25 0-15-6.72-15-15 0-8.28 6.75-15 15-15s15 6.72 15 15c0 8.28-6.75 15-15 15zm64.26 0c-8.25 0-15-6.72-15-15 0-8.28 6.75-15 15-15s15 6.72 15 15c0 8.28-6.75 15-15 15zm64.27 0c-8.25 0-15-6.72-15-15 0-8.28 6.75-15 15-15s15 6.72 15 15c0 8.28-6.75 15-15 15zM0 432.73C0 476.44 35.56 512 79.27 512h353.46c43.71 0 79.27-35.56 79.27-79.27v-289.2H0zm341.8-198.26a15 15 0 1 1 21.2-21.2l64.27 64.26a15 15 0 0 1 0 21.21l-64.26 64.27a14.96 14.96 0 0 1-21.22 0 15 15 0 0 1 0-21.21l53.66-53.66zM210.44 345.7l64.27-128.53a15 15 0 0 1 26.83 13.41l-64.27 128.54a15 15 0 1 1-26.83-13.42zM84.73 277.53l64.26-64.27a15 15 0 0 1 21.22 21.21l-53.66 53.66 53.65 53.66a15 15 0 1 1-21.2 21.22l-64.27-64.27a15 15 0 0 1 0-21.21zm0 0"/></svg>