<svg xmlns="http://www.w3.org/2000/svg" viewBox="0 0 495 495"><path d="M487.08 225.51L412 150.43V63.7a28.4 28.4 0 0 0-56.79 0v29.95l-55.9-55.91c-27.64-27.62-75.7-27.57-103.27.05L8.31 225.51a28.4 28.4 0 0 0 40.17 40.16L236.2 77.94c6.12-6.08 16.9-6.08 22.98-.01l187.74 187.74a28.34 28.34 0 0 0 20.08 8.31 28.4 28.4 0 0 0 20.09-48.47z"/><path d="M257.56 131.84a13.94 13.94 0 0 0-19.72 0L72.7 296.9a13.98 13.98 0 0 0-4.08 9.88v120.4a51.16 51.16 0 0 0 51.16 51.16h81.75v-126.6h92.3v126.6h81.76a51.16 51.16 0 0 0 51.15-51.16V306.8c0-3.71-1.46-7.27-4.08-9.88l-165.1-165.07z"/></svg>