<svg xmlns="http://www.w3.org/2000/svg" viewBox="0 0 3.84 3.76"><g data-name="Слой 2"><path d="M3.2 2.07v.26a.22.22 0 0 1-.2.22h-.36a.22.22 0 0 1-.22-.22v-.26h-1v.26a.22.22 0 0 1-.22.22H.84a.22.22 0 0 1-.22-.22v-.26H0V3.5a.27.27 0 0 0 .27.27h3.3a.27.27 0 0 0 .27-.27V2.07zM1.19.94V.29a.06.06 0 0 1 .06-.06h1.32a.06.06 0 0 1 .06.06v.65h.23V.29A.29.29 0 0 0 2.57 0H1.25A.29.29 0 0 0 1 .29v.65zm1.81.8v.58h-.35v-.58zM3.57.8a.27.27 0 0 1 .27.27v.77H3.2v-.11a.22.22 0 0 0-.2-.22h-.36a.22.22 0 0 0-.22.22v.11h-1v-.11a.22.22 0 0 0-.22-.22H.84a.22.22 0 0 0-.22.22v.11H0v-.77A.27.27 0 0 1 .27.8zm-2.72.94h.32v.58H.85z" fill="#f66" fill-rule="evenodd" data-name="Layer 1"/></g></svg>