<svg xmlns="http://www.w3.org/2000/svg" viewBox="0 0 36 36"><g data-name="Слой 2"><g data-name="Layer 1" fill-rule="evenodd"><path d="M18 36A18 18 0 1 0 0 18a18 18 0 0 0 18 18z" fill="#ff9866"/><path d="M26.18 11.17A11 11 0 0 1 18 8.07a11 11 0 0 1-8.18 3.1c0 5.56-1.15 13.53 8.18 16.76 9.33-3.24 8.18-11.2 8.18-16.76zm-4.44 3.4a.31.31 0 0 1 .09.23V17a.32.32 0 0 1-.32.32h-2.23a.32.32 0 0 1-.23-.55l.69-.69a2.49 2.49 0 0 0-1.74-.64 2.55 2.55 0 0 0-2.18 1.22 5.92 5.92 0 0 0-.27.59.15.15 0 0 1-.15.11h-1a.16.16 0 0 1-.16-.16A3.9 3.9 0 0 1 15.6 15a3.69 3.69 0 0 1 2.4-.83 3.78 3.78 0 0 1 1.42.28 3.89 3.89 0 0 1 1.23.78l.65-.65a.31.31 0 0 1 .45 0zm-.19 4.07a.16.16 0 0 1 .16.16 3.89 3.89 0 0 1-1.34 2.2 3.67 3.67 0 0 1-2.39.83 3.75 3.75 0 0 1-1.41-.27 3.82 3.82 0 0 1-1.22-.79l-.65.65a.32.32 0 0 1-.55-.22V19a.32.32 0 0 1 .32-.32h2.24a.32.32 0 0 1 .23.55l-.69.69a2.59 2.59 0 0 0 .81.51 2.55 2.55 0 0 0 3.12-1 6 6 0 0 0 .27-.59.15.15 0 0 1 .15-.11z" fill="#fff"/></g></g></svg>