<svg xmlns="http://www.w3.org/2000/svg" viewBox="0 0 512.002 512.002"><path d="M400.07 502.64c-3.551 0-7.116-.825-10.398-2.5l-133.671-68.19-133.671 68.19a22.888 22.888 0 0 1-23.807-1.836 22.887 22.887 0 0 1-9.215-22.026l22.995-149.648L6.579 219.236a22.885 22.885 0 0 1 12.623-38.644l147.912-24.138 68.49-134.585a22.882 22.882 0 0 1 20.397-12.507 22.882 22.882 0 0 1 20.396 12.507l68.49 134.585L492.8 180.592a22.887 22.887 0 0 1 12.623 38.644L399.7 326.628l22.993 149.648a22.886 22.886 0 0 1-22.623 26.364z" fill="#f0d355"/><path d="M146.585 486.578a22.888 22.888 0 0 1-9.215-22.026l22.995-149.647L54.643 207.512a22.885 22.885 0 0 1-5.447-23.163 22.851 22.851 0 0 1 6.199-9.663l-36.193 5.906a22.886 22.886 0 0 0-12.623 38.644l105.724 107.391-22.996 149.649a22.886 22.886 0 0 0 33.022 23.862l25.267-12.89c-.339-.218-.682-.431-1.011-.67z" fill="#414042" opacity=".1"/></svg>