<svg xmlns="http://www.w3.org/2000/svg" viewBox="0 0 10.56 10.56"><g data-name="Слой 2"><g data-name="Layer 1" fill-rule="evenodd"><path d="M5.28 10.56A5.28 5.28 0 1 0 0 5.28a5.29 5.29 0 0 0 5.28 5.28z" fill="#80c7d0"/><path d="M8.33 5.63l-.1-.13a.42.42 0 0 1 0-.49l.09-.13a.42.42 0 0 0-.14-.61L8 4.2a.41.41 0 0 1-.21-.44V3.6a.42.42 0 0 0-.39-.48h-.11a.42.42 0 0 1-.38-.3v-.16a.41.41 0 0 0-.56-.27l-.15.06a.41.41 0 0 1-.47-.1l-.11-.12a.41.41 0 0 0-.62 0l-.11.12a.42.42 0 0 1-.47.11l-.21-.06a.42.42 0 0 0-.56.27v.16a.41.41 0 0 1-.38.3h-.2a.42.42 0 0 0-.38.49v.16a.41.41 0 0 1-.21.44l-.14.08a.42.42 0 0 0-.13.61l.1.13a.42.42 0 0 1 0 .48l-.09.13a.42.42 0 0 0 .14.61l.14.08a.41.41 0 0 1 .21.44v.16a.42.42 0 0 0 .39.48h.16a.42.42 0 0 1 .38.3v.16a.41.41 0 0 0 .56.27l.15-.06a.41.41 0 0 1 .47.1l.18.14a.41.41 0 0 0 .62 0l.11-.12a.42.42 0 0 1 .47-.11l.15.06a.42.42 0 0 0 .56-.27v-.16a.41.41 0 0 1 .38-.3h.16a.42.42 0 0 0 .38-.49v-.16a.41.41 0 0 1 .21-.44l.14-.08a.41.41 0 0 0 .13-.61zM6.46 6.9a.77.77 0 1 1 .77-.77.77.77 0 0 1-.77.77zm-1.9-.36a.25.25 0 1 1-.38-.32L6 4a.25.25 0 0 1 .38.32L4.55 6.54zM3.33 4.43a.77.77 0 1 1 .77.77.77.77 0 0 1-.77-.77zm3.13 1.48a.21.21 0 1 1-.21.21.21.21 0 0 1 .21-.21zM4.1 4.22a.21.21 0 1 1-.21.21.21.21 0 0 1 .21-.21z" fill="#fff"/></g></g></svg>