<svg xmlns="http://www.w3.org/2000/svg" viewBox="0 0 612 612"><path d="M484.7 247.25c.82-4.9-.4-9.59-3.67-14.08a19.72 19.72 0 0 0-12.85-7.34l-246.64-27.54-3.06-29.99c-.4-3.67-1.83-7.04-4.28-10.1s-5.3-5-8.57-5.81l-54.47-17.14c-4.9-1.63-9.59-1.22-14.07 1.23s-7.55 6.12-9.18 11.01a17 17 0 0 0 1.22 14.08 18.93 18.93 0 0 0 11.02 9.18l42.22 13.46 15.3 150.55-9.79 53.86c-.4 2.45-.3 5 .3 7.65.62 2.65 1.95 5 3.99 7.04a17.39 17.39 0 0 0 14.07 6.73h230.11c5.3 0 9.8-1.74 13.47-5.2s5.5-7.86 5.5-13.16-1.83-9.7-5.5-13.16c-3.67-3.47-8.16-5.2-13.47-5.2H228.27l4.29-24.48h219.1c4.48 0 8.35-1.43 11.62-4.28a18.58 18.58 0 0 0 6.12-11.02l15.3-86.3zm-82 230.72c8.16 0 14.99-2.75 20.5-8.26s8.26-12.34 8.26-20.5-2.75-15-8.26-20.5-12.34-8.27-20.5-8.27-14.9 2.76-20.2 8.27-7.96 12.34-7.96 20.5 2.66 15 7.96 20.5 12.04 8.26 20.2 8.26zm-168.3 0c8.16 0 14.99-2.75 20.5-8.26 5.5-5.5 8.26-12.34 8.26-20.5s-2.75-15-8.26-20.5-12.34-8.27-20.5-8.27-15 2.76-20.5 8.27-8.27 12.34-8.27 20.5 2.76 15 8.26 20.5 12.35 8.26 20.5 8.26zM306 0c42.02 0 81.7 8.06 119.03 24.17s69.77 37.95 97.31 65.49 49.37 59.97 65.49 97.3S612 263.99 612 306a299.2 299.2 0 0 1-11.02 81.4 310.52 310.52 0 0 1-30.9 73.13 305.09 305.09 0 0 1-47.74 61.81 304.92 304.92 0 0 1-61.81 47.74 310.3 310.3 0 0 1-73.14 30.9C361.3 608.33 334.15 612 306 612s-55.28-3.67-81.4-11.02c-26.1-7.34-50.49-17.64-73.13-30.9s-43.25-29.17-61.81-47.74a305.03 305.03 0 0 1-47.74-61.81 310.32 310.32 0 0 1-30.9-73.13C3.67 361.28 0 334.15 0 306s3.67-55.28 11.02-81.4 17.64-50.49 30.9-73.13 29.17-43.25 47.74-61.81 39.17-34.48 61.81-47.74 47.02-23.56 73.13-30.9S277.85 0 306 0z" fill="#010002"/></svg>