<svg xmlns="http://www.w3.org/2000/svg" viewBox="0 0 2.88 4.8"><g data-name="Слой 2"><path d="M2.74.14A.46.46 0 0 0 2.4 0H.48a.46.46 0 0 0-.34.14.46.46 0 0 0-.14.34v3.84a.46.46 0 0 0 .14.34.46.46 0 0 0 .34.14H2.4a.49.49 0 0 0 .48-.48V.48a.46.46 0 0 0-.14-.34zm-1.6.34h.6a.05.05 0 0 1 .06.06.05.05 0 0 1-.06.06h-.6a.05.05 0 0 1-.06-.06.05.05 0 0 1 .06-.06zm.51 4.05a.3.3 0 0 1-.42 0A.3.3 0 0 1 1.44 4a.3.3 0 0 1 .21.51zm.87-.81a.12.12 0 0 1-.12.12H.48a.12.12 0 0 1-.12-.12V1.08A.11.11 0 0 1 .4 1a.12.12 0 0 1 .08 0H2.4a.12.12 0 0 1 .12.12v2.6z" fill="#80c7d0" fill-rule="evenodd" data-name="Layer 1"/></g></svg>