<svg xmlns="http://www.w3.org/2000/svg" viewBox="0 0 439 439"><path d="M433.11 5.42A17.56 17.56 0 0 0 420.27 0h-402C13.33 0 9.05 1.8 5.44 5.42A17.55 17.55 0 0 0 0 18.27v402c0 4.94 1.8 9.23 5.43 12.84a17.57 17.57 0 0 0 12.85 5.43h401.99c4.95 0 9.23-1.81 12.84-5.43a17.56 17.56 0 0 0 5.42-12.85V18.27c0-4.95-1.8-9.23-5.42-12.85zM201 347.17a8.9 8.9 0 0 1-2.57 6.57 8.92 8.92 0 0 1-6.57 2.57H54.82a8.91 8.91 0 0 1-6.57-2.57 8.92 8.92 0 0 1-2.56-6.57V54.81c0-2.66.85-4.85 2.56-6.56a8.9 8.9 0 0 1 6.57-2.57h137.05a8.9 8.9 0 0 1 6.56 2.57A8.88 8.88 0 0 1 201 54.8v292.36zm191.86-109.63c0 2.66-.86 4.85-2.57 6.56a8.87 8.87 0 0 1-6.56 2.57H246.69a8.87 8.87 0 0 1-6.57-2.57 8.88 8.88 0 0 1-2.57-6.56V54.8c0-2.66.86-4.85 2.57-6.56a8.9 8.9 0 0 1 6.57-2.57h137.04a8.9 8.9 0 0 1 6.56 2.57 8.89 8.89 0 0 1 2.57 6.56v182.73z"/></svg>