<svg xmlns="http://www.w3.org/2000/svg" viewBox="0 0 38.9 32.74"><defs><style>.cls-2,.cls-3{fill-rule:evenodd}.cls-2{fill:#7e8090}.cls-3{fill:#fff}</style></defs><g id="Слой_2" data-name="Слой 2"><g id="Layer_1" data-name="Layer 1"><path d="M21.66 14.89c-.24-.92.61-1.58 1.44-1.77 2.1-.49 4.93.46 6.56 1.56.46.31.58.34.7.94s.23.79-.17 1.23a2 2 0 0 1-1.15.58c-1.57.38-6.85-.57-7.36-2.53zM15 19.11c.37.17 1.59.41 2.07.53a55.83 55.83 0 0 1 5.49 2.14c.77-1.72 2.27-2 4-1.65 1.33.27.36.8 2.66-1 .87-.67 4.3-3.15 5.1-3.62-.38-1.25-1.27-1.61-.24-3.16l-.31-.2-.36-.15-1.94-.94a10 10 0 0 0-2.76-1 2.82 2.82 0 0 1-2.78 1.38c-3 .08-2-.51-3.73.43l-7.08 3.67c.65 2.07.26 1.79-.12 3.57z" transform="translate(-.15 -1.71)" fill-rule="evenodd" fill="#ffff98"/><path class="cls-2" d="M10.71 21.66c-.44 0-1.79-.55-1.63.41.09.55 1.17.59 1.67.76l.1 2.32c-.4-.12-.35-.25-.9-.17-.86 1 .32 1 1 1.42.06.49.09.88.16 1.36.13 1-.92 1.39 1.39 2.39 1.88.81 5.95 1.7 8.33 2.53.67.23 1.34.47 2 .66.15 0 1 .26 1 .3.36.22 0 .72.61.8s.56-.33.86-.63 2.89-2.18 3.79-3.06l1.81-1.65a3.85 3.85 0 0 1 .37-.32l2.45-2.33c.39-.38.11.25 1.18-.88.8-.84 1.39-.78 1.46-1.3 0-.22-.17-.87-.93-.52A4.62 4.62 0 0 0 34 25c-.58.62-.33.32-.79.5-.29.12-.77.78-1.4 1.25s-1.18 1.09-1.7 1.55a3.66 3.66 0 0 0-.37.32 44.6 44.6 0 0 1-3.54 3c-.49.37-1 .76-1.43 1.13-.24-.07-.52-.22-.78-.3l-5.45-1.71c-1.25-.36-5.51-1.38-6.21-1.93a15.8 15.8 0 0 0-.17-2.1 75.52 75.52 0 0 1 9.39 2.35c.94.33 2.61 1.31 2.44.07-.09-.68-2-1.14-2.63-1.36-1.39-.49-4.62-1.3-6.12-1.61a32.31 32.31 0 0 0-3.21-.63L11.87 23c2 .21 10.16 2.09 11.2 3l.06.19c.05.19 0 .27.19.43s.38.15.65.19c1.41.21 1 .89 2.44-.28.17-.15.24-.25.43-.42l7.83-6.29a17.81 17.81 0 0 0 2.67-2.37c.37-.37.67-.36.56-1-.48-.94-1.85.89-2.41 1.34-.25.2-.5.39-.78.59-1 .67-2.24 1.72-3.15 2.5s-2.1 1.65-3.16 2.49l-1.55 1.28c-1.57 1.26-1.3 1.36-2 1.19s0-.25-1-.72c-.52-.26-.88-.47-1.48-.71-1.18-.47-5.46-1.54-6.88-1.87s-2.45-.41-3.69-.66c-.07-.46 0-.92-.51-1s-.54.3-.58.78z" transform="translate(-.15 -1.71)"/><path class="cls-2" d="M36.82 13.86a12.24 12.24 0 0 1-1.5 1 2.49 2.49 0 0 1-.54-.92c-.22-.61.09-.65.28-1.06a4.68 4.68 0 0 1 1.76 1zm-10.08-3.68c.44-.33.12-.34.78-.35-.19.24-.34.3-.78.35zm-2.05 12.53l-1-.45a1.9 1.9 0 0 1 1.93-1.12 1.34 1.34 0 0 1 .86.18 1.71 1.71 0 0 0-.41.34l-1.35 1.05zM15 19.11c.37.17 1.59.41 2.07.53a55.83 55.83 0 0 1 5.49 2.14c.77-1.72 2.27-2 4-1.65 1.33.27.36.8 2.66-1 .87-.67 4.3-3.15 5.1-3.62-.38-1.25-1.27-1.61-.24-3.16l-.31-.2-.36-.15-1.94-.94a10 10 0 0 0-2.76-1 2.82 2.82 0 0 1-2.78 1.38c-3 .08-2-.51-3.73.43l-7.08 3.67c.65 2.08.26 1.81-.08 3.59zm9.39-9.8c-.52.34-1.2.67-1.78 1-2.84 1.5-8.39 4.14-10.78 5.73-1.4.93-.6.86-1.44 1.3-.54.28-1.18.94-.44 1.57h.35c.81-.59.08-.3.88-.83.42-.28.45-.54.79-.83a11.41 11.41 0 0 1 2.18-1.18 3.49 3.49 0 0 1-.38 2.8c-.82.13-2.09-.45-2.81-.3l-.23.23c0 .46-.07.66.91.9.36.09.67.14 1 .22A37.43 37.43 0 0 1 24 23.73c.54.25 1.17.84 1.71.31v-.66c.7-.44 1.07-.93 1.74-1.43.31-.23.61-.44.92-.71 1.29-1.08 6.51-4.76 8.23-5.83.66-.41 1.32-.83 1.93-1.25.93-.64.48-1.58-.63-1-.28-.18-.44-.39-.79-.62-.56-.37-2.06-1.05-2.7-1.36-2.23-1.03-4.41-2.42-6.93-2.46-.42 0-1 .16-1.19.15s-.35-.34-1-.07a6.32 6.32 0 0 0-.86.52zm10.55 13.31c.2-.26.34-.39.57-.71.7-.08.61-.3 1-.36 0 .47-.27 2.73.79 2.21.53-.26.36-1.92.38-2.84 0-.58.42-1.92-.26-2.19-.88 0-.72.75-.82 1.54-.54 0-.55.23-.88.48-.64.5-.61.2-.93.45s-1 1.08-2.08 1.93c-2.2 1.77-4.92 3.55-6.83 5.24a7.81 7.81 0 0 0-.69.67c-.57.62-.47.3-.76.52-.6.46.28 1.6 1 .94a7.25 7.25 0 0 1 .57-.7 8.52 8.52 0 0 0 .67-.61 38.12 38.12 0 0 1 3-2.35 41.45 41.45 0 0 0 5.27-4.22z" transform="translate(-.15 -1.71)"/><path class="cls-2" d="M27.94 16.34A10.66 10.66 0 0 1 25 15.8a3.77 3.77 0 0 1-2.2-1.16c.19-.33.52-.44 1.07-.45a6.57 6.57 0 0 1 3.36.57c1.33.57.6.29 1.07.62s.77.18.91.71a2.13 2.13 0 0 1-1.28.24zm-6.28-1.45c.51 2 5.8 2.91 7.36 2.53a2 2 0 0 0 1.15-.58c.41-.44.28-.71.17-1.23s-.24-.63-.7-.94c-1.63-1.1-4.46-2-6.56-1.56-.81.2-1.66.89-1.42 1.78z" transform="translate(-.15 -1.71)"/><path class="cls-3" d="M27.94 16.34a2.13 2.13 0 0 0 1.28-.24c-.14-.53-.5-.42-.91-.71s.26-.06-1.07-.62a6.57 6.57 0 0 0-3.36-.57c-.55 0-.88.12-1.07.45A3.77 3.77 0 0 0 25 15.8a10.66 10.66 0 0 0 2.94.54z" transform="translate(-.15 -1.71)"/><path class="cls-2" d="M36.08 4.08c.36-.47 1-.77.31-1.47-.79 0-1.18.67-1.51 1.08l-1.1 1.45c-.34.48-.69 1-1 1.51s-.89.9-.25 1.5c.62 0 .65-.22 1.38-1.18zm-19.3 6.54c0-.38-.78-2.45-1-3C15 5 14.15 6 14.12 6.35c0 .14 1.34 3.78 1.63 4.3s.81.5 1.03-.03zM36.2 7.43c.47-.4 2.07-1.5 2.23-2 .22-.62-.42-.89-1.06-.42A30.42 30.42 0 0 0 34 7.93c0 1.73 1.54 0 1.61 0s.39-.32.59-.5zM10.62 9.08a.8.8 0 0 0-.7.23c-.09.86.76 1.4 1.47 2.08l1.26 1.39a.52.52 0 0 0 .65.19c1-.38-.7-1.89-.91-2.11L11.1 9.5a5.15 5.15 0 0 1-.48-.42zm5.02 2.36a14.6 14.6 0 0 0-2.07-4.15h-.49c-.17.22-.32.27-.24.64l1 2c.91 1.8.91 2.17 1.8 1.51z" transform="translate(-.15 -1.71)"/><path class="cls-3" d="M36.82 13.86a4.68 4.68 0 0 0-1.76-1c-.19.41-.51.45-.28 1.06a2.49 2.49 0 0 0 .54.92 12.24 12.24 0 0 0 1.5-.98zM26 21.65a1.71 1.71 0 0 1 .41-.34 1.34 1.34 0 0 0-.86-.18 1.9 1.9 0 0 0-1.93 1.12l1 .45zm1.51-11.82c-.66 0-.34 0-.78.35.44-.05.59-.11.78-.35z" transform="translate(-.15 -1.71)"/><path d="M3.88 10.3V8.24H.15v-1l3.92-5.53h.86v5.56h1.16v1H4.93v2.03zm0-3V3.4L1.19 7.27z" transform="translate(-.15 -1.71)" fill="#7e8091"/></g></g></svg>