<svg xmlns="http://www.w3.org/2000/svg" viewBox="0 0 4.8 4.8"><g data-name="Слой 2"><path d="M4.75 1.87a.16.16 0 0 0 0-.23l-.24-.24a.16.16 0 0 0-.21 0l-.51.35.34-.51a.16.16 0 0 0 0-.2L3.59.48a.16.16 0 0 0-.18 0h-.09v-.1a.16.16 0 0 0 0-.18L3.16 0a.16.16 0 0 0-.23 0L1.65 1.33l1.82 1.82 1.28-1.28zm-3.34-.3l1.82 1.82-.37.37a.16.16 0 0 1-.23 0l-.35-.35a.32.32 0 0 0-.49.05A9.28 9.28 0 0 1 1 4.63a.58.58 0 1 1-.83-.83A9.3 9.3 0 0 1 1.34 3a.32.32 0 0 0 .05-.49L1 2.17a.16.16 0 0 1 0-.23l.37-.37zm-.65 2.8a.23.23 0 1 0-.32 0 .23.23 0 0 0 .32 0z" fill="#ee5421" fill-rule="evenodd" data-name="Layer 1"/></g></svg>