<svg xmlns="http://www.w3.org/2000/svg" viewBox="0 0 548 548"><path d="M534.75 68.238c-8.945-8.945-19.694-13.417-32.261-13.417H45.681c-12.562 0-23.313 4.471-32.264 13.417C4.471 77.185 0 87.936 0 100.499v347.173c0 12.566 4.471 23.318 13.417 32.264 8.951 8.946 19.702 13.419 32.264 13.419h456.815c12.56 0 23.312-4.473 32.258-13.419 8.945-8.945 13.422-19.697 13.422-32.264V100.499c0-12.563-4.477-23.314-13.426-32.261zm-23.127 379.434c0 2.478-.899 4.613-2.707 6.427-1.81 1.8-3.952 2.703-6.427 2.703H45.681c-2.473 0-4.615-.903-6.423-2.703-1.807-1.813-2.712-3.949-2.712-6.427V100.495c0-2.474.902-4.611 2.712-6.423 1.809-1.803 3.951-2.708 6.423-2.708h456.815c2.471 0 4.613.905 6.42 2.708 1.801 1.812 2.707 3.949 2.707 6.423v347.177z"/><path d="M127.91 237.541c15.229 0 28.171-5.327 38.831-15.987 10.657-10.66 15.987-23.601 15.987-38.826 0-15.23-5.333-28.171-15.987-38.832-10.66-10.656-23.603-15.986-38.831-15.986-15.227 0-28.168 5.33-38.828 15.986-10.656 10.66-15.986 23.601-15.986 38.832 0 15.225 5.327 28.169 15.986 38.826 10.66 10.657 23.601 15.987 38.828 15.987zm82.224 82.224l-45.682-45.677-91.36 91.359v54.82h401.993V292.36l-118.77-118.773z"/></svg>