<svg xmlns="http://www.w3.org/2000/svg" viewBox="0 0 9.6 9.6"><g data-name="Слой 2"><g data-name="Layer 1"><circle cx="4.8" cy="4.8" r="4.8" fill="#008cc9"/><path d="M7.14 6.12a2.73 2.73 0 0 0-.82-.71c-.15-.08-.32-.09-.4.06a3.33 3.33 0 0 1-.26.29.49.49 0 0 1-.66-.07L3.91 4.63a.49.49 0 0 1-.07-.69 3.38 3.38 0 0 1 .29-.26c.15-.08.14-.26.06-.4a2.74 2.74 0 0 0-.71-.82.36.36 0 0 0-.42.06l-.23.23c-.74.74-.38 1.57.36 2.31l1.34 1.36c.74.74 1.57 1.1 2.31.36l.23-.23a.36.36 0 0 0 .07-.43z" fill="#fff" fill-rule="evenodd"/></g></g></svg>