<svg width="57" height="57" fill="none" xmlns="http://www.w3.org/2000/svg"><path d="M53.224 28.106l-2.541-.318a17.472 17.472 0 0 0-3.261-5.15l1.867-7.914a1.093 1.093 0 0 0-1.064-1.345h-.242c-3.101 0-5.896 1.95-6.995 4.813a17.2 17.2 0 0 0-2.392-.757 1.094 1.094 0 1 0-.503 2.129 15.147 15.147 0 0 1 7.225 4.02c.072.105.16.198.266.273a15.222 15.222 0 0 1 3.286 5.308c.14.386.485.661.892.712l3.19.4a1 1 0 0 1 .875.99v5.515a1 1 0 0 1-.875.99l-2.956.37c-.425.054-.78.35-.908.76a15.176 15.176 0 0 1-4.818 7.164c-.25.207-.396.516-.396.842v6.045a.985.985 0 0 1-.984.984h-6.344a.985.985 0 0 1-.984-.984V50.65c0-.604-.49-1.093-1.094-1.093h-9.19c-.603 0-1.093.49-1.093 1.093v2.304a.985.985 0 0 1-.984.984h-6.345a.985.985 0 0 1-.984-.984v-4.268c0-.402-.219-.77-.571-.962a15.202 15.202 0 0 1-7.96-13.367c0-8.381 6.82-15.2 15.2-15.2h1.371a1.094 1.094 0 0 0 0-2.187h-1.37c-8.12 0-14.956 5.594-16.86 13.13h-.801a2.683 2.683 0 0 1-2.68-2.68 2.683 2.683 0 0 1 2.68-2.68 1.094 1.094 0 0 0 0-2.187A4.873 4.873 0 0 0 .014 27.42a4.873 4.873 0 0 0 4.867 4.868h.397a17.386 17.386 0 0 0 8.407 17.035v3.631a3.175 3.175 0 0 0 3.171 3.172h6.345a3.175 3.175 0 0 0 3.171-3.172v-1.21h7.002v1.21a3.175 3.175 0 0 0 3.171 3.172h6.345a3.175 3.175 0 0 0 3.171-3.172v-5.54a17.35 17.35 0 0 0 4.889-7.185l2.273-.285a3.191 3.191 0 0 0 2.79-3.161v-5.515a3.19 3.19 0 0 0-2.79-3.161zm-7.64-7.209a17.443 17.443 0 0 0-2.608-1.766 5.34 5.34 0 0 1 3.836-3.432l-1.227 5.198z" fill="#fff"/><path d="M43.553 27.899a1.102 1.102 0 0 0-.773-.32c-.288 0-.57.116-.774.32-.203.203-.32.485-.32.773 0 .287.117.57.32.773a1.1 1.1 0 0 0 .773.32c.288 0 .57-.116.774-.32.203-.203.32-.486.32-.773 0-.288-.117-.57-.32-.773zM32.087 6.505c-.604 0-1.094.49-1.094 1.094v4.338a1.094 1.094 0 0 0 2.188 0V7.6c0-.604-.49-1.094-1.094-1.094zm.773-3.648a1.101 1.101 0 0 0-.773-.32c-.288 0-.57.117-.773.32a1.098 1.098 0 0 0 0 1.547c.203.203.485.32.773.32.288 0 .57-.117.773-.32.204-.204.32-.486.32-.774 0-.287-.116-.568-.32-.773zM23.201.125c-.604 0-1.093.49-1.093 1.094v1.86a1.094 1.094 0 0 0 2.187 0v-1.86c0-.604-.49-1.094-1.094-1.094zM12.476 34.356a1.094 1.094 0 0 0-2.188 0v.058a1.094 1.094 0 0 0 1.094 1.087h.007a1.094 1.094 0 0 0 1.087-1.1v-.045zm4.841 8.606a10.139 10.139 0 0 1-4.178-5.006 1.094 1.094 0 1 0-2.043.783 12.335 12.335 0 0 0 5.084 6.091 1.093 1.093 0 0 0 1.137-1.869zM23.201 5.38a4.599 4.599 0 0 0-4.593 4.594 4.599 4.599 0 0 0 4.593 4.594 4.599 4.599 0 0 0 4.594-4.594 4.599 4.599 0 0 0-4.594-4.593zm0 7a2.409 2.409 0 0 1-2.406-2.406 2.409 2.409 0 0 1 2.406-2.406 2.409 2.409 0 0 1 2.407 2.406 2.409 2.409 0 0 1-2.407 2.407zm13.782 10.933h-.985c.433-.7.683-1.525.683-2.407a4.599 4.599 0 0 0-4.594-4.593 4.599 4.599 0 0 0-4.594 4.593c0 .882.25 1.706.683 2.407h-5.412a1.094 1.094 0 0 0 0 2.187h14.219a1.094 1.094 0 0 0 0-2.188zm-4.896 0a2.409 2.409 0 0 1-2.406-2.407 2.409 2.409 0 0 1 2.406-2.406 2.409 2.409 0 0 1 2.406 2.406 2.409 2.409 0 0 1-2.406 2.407z" fill="#fff"/></svg>