<svg xmlns="http://www.w3.org/2000/svg" viewBox="0 0 3.84 3.55"><g data-name="Слой 2"><path d="M3.25 0v.59h.59V.15A.15.15 0 0 0 3.69 0zm.59 3.55V.88H0v2.67h3.84zm-2.42-1a.15.15 0 1 1-.18.24l-.58-.45a.15.15 0 0 1 0-.24l.59-.44a.15.15 0 0 1 .18.24L1 2.22l.43.32zm.79-.72l-.29.88a.15.15 0 0 1-.28-.09l.29-.88a.15.15 0 0 1 .28.09zm.18.93a.15.15 0 0 1 0-.21l.43-.32-.39-.33a.15.15 0 0 1 .18-.24l.59.44a.15.15 0 0 1 0 .24l-.59.44a.15.15 0 0 1-.21 0zM0 .59h3V0H.15A.15.15 0 0 0 0 .15z" fill="#f2921a" fill-rule="evenodd" data-name="Layer 1"/></g></svg>