<svg xmlns="http://www.w3.org/2000/svg" viewBox="0 0 512 512"><path d="M49.1 178.73c6.48 4.57 25.99 18.13 58.53 40.68 32.55 22.56 57.49 39.92 74.8 52.1 1.91 1.34 5.95 4.24 12.14 8.71 6.18 4.48 11.32 8.1 15.41 10.85 4.1 2.76 9.05 5.86 14.85 9.28 5.8 3.42 11.28 6 16.42 7.7a45.24 45.24 0 0 0 14.28 2.57h.57c4.37 0 9.13-.85 14.27-2.57a86.22 86.22 0 0 0 16.41-7.7c5.8-3.43 10.76-6.52 14.85-9.28 4.1-2.75 9.23-6.37 15.42-10.85a1227.6 1227.6 0 0 1 12.13-8.7 252499 252499 0 0 1 133.62-92.8c13.89-9.7 25.5-21.4 34.82-35.11 9.33-13.7 14-28.07 14-43.1 0-12.57-4.53-23.33-13.57-32.27-9.04-8.95-19.75-13.42-32.12-13.42H45.68c-14.66 0-25.93 4.95-33.83 14.84C3.95 79.56 0 91.93 0 106.78c0 11.99 5.24 24.98 15.7 38.97 10.47 14 21.6 24.99 33.4 32.98z"/><path d="M483.07 209.28c-62.42 42.25-109.82 75.08-142.17 98.5a673.69 673.69 0 0 1-26.41 18.7c-6.76 4.47-15.75 9.04-26.98 13.7-11.23 4.67-21.7 7-31.4 7h-.59c-9.71 0-20.18-2.33-31.4-7-11.24-4.66-20.23-9.23-26.99-13.7a676.16 676.16 0 0 1-26.4-18.7c-25.7-18.85-73-51.68-141.9-98.5A151.23 151.23 0 0 1 0 184.44v226.68c0 12.57 4.47 23.32 13.42 32.27 8.94 8.95 19.7 13.42 32.26 13.42h420.27c12.56 0 23.31-4.47 32.26-13.42s13.42-19.7 13.42-32.27V184.44a157.44 157.44 0 0 1-28.56 24.84z"/></svg>