<svg width="57" height="57" fill="none" xmlns="http://www.w3.org/2000/svg"><path d="M18.025 13.063a1.098 1.098 0 0 0-1.54-.148l-.014.011a1.09 1.09 0 0 0-.141 1.534 1.097 1.097 0 0 0 1.54.147 1.09 1.09 0 0 0 .154-1.545zm10.959-4.624c-2.972 0-5.83.646-8.49 1.92a1.094 1.094 0 0 0 .944 1.973 17.34 17.34 0 0 1 7.546-1.706c9.65 0 17.5 7.85 17.5 17.5a17.41 17.41 0 0 1-1.06 6.01 1.094 1.094 0 0 0 2.055.752 19.627 19.627 0 0 0 1.193-6.762c0-10.856-8.832-19.687-19.688-19.687z" fill="#fff"/><path d="M56.624 34.33l-1.263-1.14a6.833 6.833 0 0 1-2.25-5.064c0-1.927.82-3.773 2.25-5.064l1.263-1.14c.343-.31.454-.803.277-1.23l-2.924-7.05a1.092 1.092 0 0 0-1.066-.673l-1.7.087a6.825 6.825 0 0 1-5.168-1.988A6.828 6.828 0 0 1 44.055 5.9l.087-1.7a1.094 1.094 0 0 0-.674-1.067L36.419.21a1.094 1.094 0 0 0-1.23.278l-1.14 1.262A6.834 6.834 0 0 1 28.984 4a6.834 6.834 0 0 1-5.063-2.25L22.78.487a1.094 1.094 0 0 0-1.23-.278L14.5 3.133a1.094 1.094 0 0 0-.673 1.067l.086 1.7a6.828 6.828 0 0 1-1.988 5.168 6.825 6.825 0 0 1-5.168 1.988l-1.7-.087a1.094 1.094 0 0 0-1.066.673l-2.924 7.05c-.177.427-.066.92.277 1.23l1.263 1.14a6.833 6.833 0 0 1 2.25 5.064c0 1.927-.82 3.773-2.25 5.064l-1.263 1.14c-.343.31-.454.803-.277 1.23l2.924 7.05c.177.427.604.697 1.066.673l1.7-.087a6.824 6.824 0 0 1 5.168 1.988 6.828 6.828 0 0 1 1.988 5.168l-.087 1.7c-.023.462.246.89.674 1.066l7.05 2.924c.427.177.92.067 1.23-.277l1.14-1.262a6.833 6.833 0 0 1 5.063-2.25c1.927 0 3.773.82 5.064 2.25l1.14 1.262a1.093 1.093 0 0 0 1.23.277l7.05-2.924c.427-.177.697-.604.673-1.066l-.086-1.7a6.828 6.828 0 0 1 1.988-5.168 6.824 6.824 0 0 1 5.168-1.988l1.7.087a1.09 1.09 0 0 0 1.066-.673l2.924-7.05c.177-.427.066-.92-.277-1.23zm-4.372 6.73l-.93-.049a9.023 9.023 0 0 0-6.826 2.626 9.02 9.02 0 0 0-2.626 6.827l.048.93-5.624 2.332-.622-.69a9.024 9.024 0 0 0-6.687-2.971 9.024 9.024 0 0 0-6.688 2.972l-.622.689-5.624-2.333.048-.93a9.019 9.019 0 0 0-2.626-6.826 9.016 9.016 0 0 0-6.827-2.626l-.93.048-2.332-5.624.69-.622a9.024 9.024 0 0 0 2.972-6.687 9.024 9.024 0 0 0-2.972-6.688l-.69-.622 2.333-5.623.93.047a9.019 9.019 0 0 0 6.826-2.626A9.02 9.02 0 0 0 16.1 5.788l-.048-.93 5.624-2.332.622.689a9.024 9.024 0 0 0 6.688 2.972 9.024 9.024 0 0 0 6.687-2.972l.622-.69 5.624 2.333-.048.93a9.019 9.019 0 0 0 2.626 6.826 9.018 9.018 0 0 0 6.827 2.626l.93-.047 2.332 5.623-.69.622a9.024 9.024 0 0 0-2.971 6.688 9.024 9.024 0 0 0 2.972 6.687l.689.622-2.333 5.624z" fill="#fff"/><path d="M39.435 38.634l-4.011-4.011a4.093 4.093 0 0 0-5.057-.593l-2.032 1.25-6.505-6.505 1.25-2.031a4.092 4.092 0 0 0-.592-5.057l-4.011-4.011a4.111 4.111 0 0 0-5.808 0c-3.896 3.895-3.896 10.234 0 14.13l12.636 12.636a9.926 9.926 0 0 0 7.065 2.926 9.926 9.926 0 0 0 7.065-2.926 4.112 4.112 0 0 0 0-5.808zm-1.547 4.26a7.894 7.894 0 0 1-1.055.884l-3.875-3.875a1.094 1.094 0 0 0-1.547 1.547l3.355 3.356a7.823 7.823 0 0 1-2.396.375 7.752 7.752 0 0 1-5.518-2.286L14.216 30.258a7.81 7.81 0 0 1-1.907-7.91l3.735 3.735a1.09 1.09 0 0 0 1.546 0 1.094 1.094 0 0 0 0-1.547l-4.257-4.257a7.82 7.82 0 0 1 .882-1.057 1.914 1.914 0 0 1 1.358-.561c.491 0 .983.187 1.357.561l4.01 4.011c.632.631.746 1.603.278 2.364l-1.704 2.767c-.266.431-.2.988.158 1.347l7.728 7.727c.358.358.915.424 1.347.158l2.767-1.703a1.913 1.913 0 0 1 2.363.277l4.011 4.01a1.922 1.922 0 0 1 0 2.715z" fill="#fff"/><path d="M33.382 27.032h-3.288a1.451 1.451 0 0 1 1.448-1.382 2.937 2.937 0 0 0 2.934-2.934 2.937 2.937 0 0 0-2.934-2.934h-2.544a1.094 1.094 0 0 0 0 2.188h2.544a.747.747 0 0 1 0 1.493 3.641 3.641 0 0 0-3.637 3.637v1.026c0 .604.49 1.094 1.093 1.094h4.384a1.094 1.094 0 0 0 0-2.188zm8.098-7.222c-.604 0-1.094.489-1.094 1.093v2.554H38.19v-2.525a1.094 1.094 0 0 0-2.188 0v3.619c0 .604.49 1.093 1.094 1.093h3.29v2.496a1.094 1.094 0 0 0 2.187 0v-7.237c0-.604-.49-1.094-1.093-1.094z" fill="#fff"/></svg>