<svg xmlns="http://www.w3.org/2000/svg" viewBox="0 0 39.92 30.51"><defs><style>.cls-1{fill:#7e8090}.cls-1,.cls-2,.cls-3{fill-rule:evenodd}.cls-2{fill:#fff}.cls-3{fill:#ffff98}</style></defs><g id="Слой_2" data-name="Слой 2"><g id="Layer_1" data-name="Layer 1"><path class="cls-1" d="M36.74 25.28c.08.73 0 1.22 0 1.91a14 14 0 0 1-1.72-.94 9.67 9.67 0 0 0-1.91-.82c-1.65-.49-2.91-.2-4.46-.21l.23-.14.22-.1 1.38-.57a14.45 14.45 0 0 1 6.39-.94 2.72 2.72 0 0 0-.17 1.8zm-11.5.28l-.13.05.58.35a9.68 9.68 0 0 1 1.22-1.1 12.67 12.67 0 0 1 1.5-.81 19 19 0 0 1 3.3-1.24 17.17 17.17 0 0 1 3.8-.57 13.38 13.38 0 0 1 4.23.77c.24-1.08 0-15.23.17-16.05a7.82 7.82 0 0 0-4.2-.96c-2.1 0-7.91.7-9.31 2.2-.44.47 0 1.56-1.08 1.09a15.83 15.83 0 0 0 0 2l.33 12.55c0 .28.08.81.06 1a.78.78 0 0 1-.17.45l-.26.16h-.06zM14 30.94a3.29 3.29 0 0 1-.6-1.52c-.27-1.26.06-.75-.58-1.33 1.54-.73 5.16-2.4 6.67-2.39-.56.33-1.22.51-1.75.88A10.45 10.45 0 0 0 14 30.94zM9.65 19.43c.85.56.11.83.09 1.28l.17 2.91c0 .87.11 4 .43 4.58l2.45-1.38C15.58 25.41 19 24 22.36 24.5a20.71 20.71 0 0 1 2.41.94c-.38-.3-.43-4.55-.46-5.26-.07-1.84 0-3.75-.07-5.62s-.1-3.75-.08-5.61c0-.76.13-.75-.42-1.13-2.83-2-6.52-2-9.87-1.52a14.44 14.44 0 0 0-3.24.81c-.42.15-.67.3-1 .41a1.76 1.76 0 0 1 .28.53c.24.9-.08.78-.08 1.43 0 3.11-.18 7-.13 9.95zM41 22.69v-7.93c0-2 .08-4.81-.07-6.77-.07-.91.65-1.09-.12-1.79-2.92-2.7-14.05-.82-15.35 1.5-.32-.17-.28-.22-.53-.42C22 4.87 18.77 4.71 15.06 5a17.59 17.59 0 0 0-4.93 1.08c-.64.24-2.95 1.19-2.6 2.11.18.47.73.2 1.14.27 0 2.83-.35 8.42-.2 10.76 0 .77.18 1.71.2 2.5s.06 1.71.11 2.56a25.86 25.86 0 0 0 .53 4.88c-.78 1 .1 1.31.53 1a8 8 0 0 1 2.42-1.66c0 .5-.19.89 0 1.27.49.95.38 2.64 1.64 2.45.67-.1.82.07 1.54-1.38a9.85 9.85 0 0 1 2.4-2.84c4.12-2.69 4.83-1.11 6.94-.65.08.28.24.57.61.52s.27-.3.6-.51a9.42 9.42 0 0 1 5.35-1c1.88.08 3.62 1.15 5.21 2.12.15.09.62 1.25 1.23.63a10.83 10.83 0 0 0 .17-2.83 17.17 17.17 0 0 0-.34-2.64l2.18.61c-.12 1.14.3 2 1 1.51.29-.2.21-.62.19-1 0-.83.25-.45.28-1.16-.32-.49-.32-.23-.26-.91z" transform="translate(-1.31 -1.67)"/><path class="cls-2" d="M9.65 19.48c.85.56.11.83.09 1.28l.17 2.91c0 .87.11 4 .43 4.58l2.45-1.38c2.79-1.41 6.23-2.78 9.57-2.33a20.75 20.75 0 0 1 2.41.94c-.38-.3-.43-4.55-.46-5.26-.07-1.84 0-3.75-.07-5.62s-.1-3.75-.08-5.61c0-.76.13-.75-.42-1.13-2.83-2-6.52-2-9.87-1.52a14.42 14.42 0 0 0-3.24.81c-.42.15-.67.3-1 .41a1.76 1.76 0 0 1 .28.53c.24.9-.08.78-.08 1.43-.1 3.12-.24 7.03-.18 9.96z" transform="translate(-1.31 -1.67)"/><path class="cls-2" d="M13.42 15a26.66 26.66 0 0 0 4.44-.81 22.54 22.54 0 0 1-.53-3.12c0-.67 0-.77-.66-.87s-3.29.2-3.55.53c-.39 1 1 2.87-.77 2.53a6.17 6.17 0 0 1-.39-2c-.09-.95 0-1.21.75-1.59a9.27 9.27 0 0 1 4.45-.61c1.8.25 1 2.19 1.68 4.17.19.56.42 1 0 1.58-.83 1-6.08 1.49-6.33 1.33a1.72 1.72 0 0 1-.19-1.51c-.71-.31-.57-1.23-.2-1.35h.54c.6 1.25.11.81.54 1.29a1.84 1.84 0 0 1 .22.43zm-1.03 5a.62.62 0 0 1-.53-.85c.14-.35.59-.44 1-.55 1.11-.29 9.35-1.72 8.28.42-.29.58-.72.17-1.07.09a29.61 29.61 0 0 0-7.16.64c-.13.09-.22.25-.52.25zm.52 2.36c.12-.75.53-.51 2-.84s3.19-.57 4.57-.76c.55-.08 2.08-.51 2.07.3s-1.24.77-1.88.85c-.81.11-1.52.22-2.31.35l-3.46.54c-.62.07-.82.08-.99-.44z" transform="translate(-1.31 -1.67)"/><path class="cls-2" d="M15.1 12.95c-1 0-1.15-.72-.46-1.23l.55.09c.27.51.29.7-.09 1.14zm14.45 8.25a8.41 8.41 0 0 1-.9.32c-.52.05-2.29-1.25 4.94-2.48.6-.1 1.69-.36 1.57.49-.08.56-1.18.64-1.78.73l-3.83.94zm2.15-5.34c.64-.13 4.35-.81 4.68-.33.6.86-1 1-1.55 1.06l-4.62.7c-1.7.3-1.46.59-2.13.29-.55-1.23 2.36-1.48 3.61-1.72zm-3.26-2.59a5.46 5.46 0 0 1 1-.3 28.15 28.15 0 0 1 6.67-.8.69.69 0 0 1 .69.5c-.12.51-.29.61-.82.64-1.44.11-1.67 0-3.43.27l-3.24.51c-.36.09-.68.41-1 .16s-.14-.84.16-1zM31 9.79c-.81.21-1.6.43-2.35.7-.38.14-.73.32-1.07.48-.51.25-.6.48-.32 1 .76.21.81 0 1.27-.27a35.1 35.1 0 0 1 3.56-1 17.37 17.37 0 0 1 3.19-.46c.28 0 .37.18.69.09.55-.16 1.74-2.33-5-.56zm-5.9 15.87l.58.35a9.68 9.68 0 0 1 1.22-1.1 12.59 12.59 0 0 1 1.5-.81 18.93 18.93 0 0 1 3.3-1.24 17.14 17.14 0 0 1 3.8-.57 13.38 13.38 0 0 1 4.23.77C40 22 39.71 7.83 39.91 7a7.82 7.82 0 0 0-4.21-.93c-2.1 0-7.91.7-9.31 2.2-.44.47 0 1.56-1.08 1.09a15.83 15.83 0 0 0 0 2L25.67 24c0 .28.08.81.06 1a.79.79 0 0 1-.17.45l-.26.16h-.06z" transform="translate(-1.31 -1.67)"/><path class="cls-3" d="M36.77 27.24v-1.91a2.72 2.72 0 0 1 .17-1.8 14.45 14.45 0 0 0-6.39.94l-1.42.53-.22.1-.23.14c1.56 0 2.81-.29 4.46.21a9.68 9.68 0 0 1 1.91.82 14 14 0 0 0 1.72.97z" transform="translate(-1.31 -1.67)"/><path class="cls-1" d="M20.08 19.11c.35.08.78.49 1.07-.09 1.07-2.14-7.16-.71-8.28-.42-.43.11-.88.2-1 .55a.62.62 0 0 0 .53.85c.3 0 .4-.17.54-.25a29.61 29.61 0 0 1 7.14-.64zM27.22 12c.76.21.81 0 1.27-.27a35.1 35.1 0 0 1 3.56-1 17.37 17.37 0 0 1 3.19-.46c.28 0 .37.18.69.09.55-.16 1.74-2.33-5-.56-.81.21-1.6.43-2.35.7-.38.14-.73.32-1.07.48-.51.25-.57.48-.29 1.02zm9.58.67a.69.69 0 0 0-.69-.5 28.15 28.15 0 0 0-6.67.8 5.46 5.46 0 0 0-1 .3c-.3.15-.52.74-.16 1s.67-.07 1-.16l3.24-.51c1.76-.23 2-.17 3.43-.27.55-.05.73-.15.85-.66zm-8.71 4.91c.67.3.43 0 2.13-.29l4.62-.7c.56-.05 2.15-.21 1.55-1.06-.33-.48-4 .21-4.68.33-1.26.24-4.17.49-3.62 1.72zm-8.46 4.33c.64-.09 1.87-.1 1.88-.85s-1.53-.38-2.07-.3c-1.38.2-3.25.46-4.57.76s-1.83.09-2 .84c.17.52.37.52.95.44l3.46-.54c.83-.13 1.54-.26 2.35-.35z" transform="translate(-1.31 -1.67)"/><path class="cls-3" d="M14 31a10.45 10.45 0 0 1 3.74-4.36c.53-.36 1.19-.55 1.75-.88-1.51 0-5.13 1.65-6.67 2.39.65.57.32.07.58 1.33A3.29 3.29 0 0 0 14 31z" transform="translate(-1.31 -1.67)"/><path class="cls-1" d="M35.17 19.54c.12-.85-1-.6-1.57-.49-7.23 1.23-5.46 2.53-4.94 2.48a8.41 8.41 0 0 0 .9-.32l3.83-.94c.61-.09 1.7-.17 1.78-.73z" transform="translate(-1.31 -1.67)"/><path d="M4.47 10.3H3.42V3.58a5.45 5.45 0 0 1-1 .73 7.08 7.08 0 0 1-1.11.54v-1a6.37 6.37 0 0 0 1.55-1A4 4 0 0 0 3.8 1.7h.68z" transform="translate(-1.31 -1.67)" fill="#7e8091"/><path transform="rotate(-6.82 .585 22.687)" fill="#ffff98" d="M12.49 10.05h5.58v5h-5.58z"/><path class="cls-1" d="M13.42 15a1.84 1.84 0 0 0-.25-.39c-.43-.48.06 0-.54-1.29h-.54c-.37.12-.51 1 .2 1.35a1.72 1.72 0 0 0 .19 1.51c.24.16 5.5-.32 6.33-1.33.45-.54.21-1 0-1.58-.66-2 .12-3.93-1.68-4.17a9.27 9.27 0 0 0-4.45.61c-.77.38-.84.65-.75 1.59a6.17 6.17 0 0 0 .39 2c1.76.34.38-1.48.77-2.53.26-.33 3-.6 3.55-.53s.62.19.66.87a22.54 22.54 0 0 0 .53 3.12 26.66 26.66 0 0 1-4.41.77z" transform="translate(-1.31 -1.67)"/><path class="cls-1" d="M15.1 12.95c.38-.43.36-.62.08-1.14l-.55-.09c-.68.51-.51 1.28.47 1.23z" transform="translate(-1.31 -1.67)"/></g></g></svg>