<svg xmlns="http://www.w3.org/2000/svg" viewBox="0 0 58.62 11.04"><g data-name="Слой 2"><g data-name="Layer 1"><circle cx="5.52" cy="5.52" r="5.52" fill="#fff"/><path d="M4.64 5c0 1.84.24 3.58.23 5.44H4c0-1.79.18-3.36.27-5.13l-.25.33-.47.61-.45.56-.25.32-.35.45-.35.44a1.57 1.57 0 0 1-.2.23l-.09.07v-.13s.17-.3.26-.42c.24-.34.45-.7.67-1.06a5.24 5.24 0 0 1 .94-1.31L4 5.17 4.23 5v-.06l.07-.12a.35.35 0 0 0-.05-.13c-.11-.24-.23-.48-.34-.73-.19-.43-1.1-2.69-1.09-2.79V1a2.49 2.49 0 0 1 .25.35l.33.71c.22.46.5.9.75 1.34a3.44 3.44 0 0 1 .23.43 1.41 1.41 0 0 1 0 .2l.06.34.06.29.08.12a3.1 3.1 0 0 0 .48 0h.66a2.25 2.25 0 0 1 .44-.55l.2-.17.2-.06.05-.09a.26.26 0 0 0 0-.09l-.25-.53c-.14-.31-.81-2-.8-2v-.21a1.88 1.88 0 0 1 .18.26l.24.52c.16.34.36.66.55 1a2.43 2.43 0 0 1 .17.32 1 1 0 0 1 0 .15v.46l.06.09a2.25 2.25 0 0 0 .35 0c.35 0 .74.06 1.09.11l1.49.17h.08a.25.25 0 0 1-.15.09H7.81a2.32 2.32 0 0 1-.37 0l-.21-.05-.37-.2v.95l1.75.2h.11a.34.34 0 0 1-.2.13h-.27c-.46 0-.92-.05-1.37-.06C7 6.19 7 7.09 7 8h-.58c0-1 .07-1.84.14-2.75h-.74l-.07.09-.19.23-.25.33-.26.32a1.07 1.07 0 0 1-.15.17h-.07v-.04S5 6.14 5 6c.17-.24.32-.5.48-.75h-.05a2 2 0 0 1-.28-.07L4.64 5zm1.49-.1l.45.1v-.68l-.19.24z" fill-rule="evenodd" fill="#278f60"/><path d="M14.41 1.38a.68.68 0 0 1 .5.21.7.7 0 0 1 .21.51.69.69 0 0 1-.21.5.71.71 0 0 1-1 0 .72.72 0 0 1 .15-1.12.7.7 0 0 1 .36-.1zm0 .25a.42.42 0 0 0-.32.13.46.46 0 0 0-.09.34.44.44 0 0 0 .16.36.44.44 0 0 0 .29.1.42.42 0 0 0 .31-.13.45.45 0 0 0 .13-.33.46.46 0 0 0-.13-.33.42.42 0 0 0-.32-.13zm1.89-.28v.25h-.49a.37.37 0 0 0-.16.07.3.3 0 0 0-.1.12.59.59 0 0 0 0 .2.38.38 0 0 1 .38-.26.47.47 0 0 1 .34.14.5.5 0 0 1 .14.37.53.53 0 0 1-.15.39.52.52 0 0 1-.38.15.53.53 0 0 1-.51-.38 1.35 1.35 0 0 1 0-.33 1 1 0 0 1 .06-.37.49.49 0 0 1 .15-.21.51.51 0 0 1 .21-.1h.6zm-.19.91a.3.3 0 0 0-.11-.2.28.28 0 0 0-.4 0 .32.32 0 0 0 0 .42.26.26 0 0 0 .2.08.27.27 0 0 0 .2-.08.29.29 0 0 0 .08-.21zm1.89.27h.26V3H18v-.22h-1.43v-1h.25v.76h.35v-.77h.25v.76h.35v-.76H18v.76zm1.4-.19h-.81a.27.27 0 0 0 .09.17.29.29 0 0 0 .19.06.33.33 0 0 0 .24-.1l.21.1a.51.51 0 0 1-.19.17.59.59 0 0 1-.26.05.52.52 0 0 1-.38-.15.51.51 0 0 1-.15-.37.52.52 0 0 1 .15-.38.5.5 0 0 1 .37-.15.52.52 0 0 1 .39.15.55.55 0 0 1 .15.4zm-.25-.2a.25.25 0 0 0-.1-.13.29.29 0 0 0-.14-.01.31.31 0 0 0-.19.06.32.32 0 0 0-.09.13zM20.63 2l-.21.12A.35.35 0 0 0 20.3 2h-.14a.32.32 0 0 0-.23.08.29.29 0 0 0-.09.22.28.28 0 0 0 .08.21.31.31 0 0 0 .22.08.32.32 0 0 0 .26-.12l.2.14a.54.54 0 0 1-.46.21.55.55 0 0 1-.42-.16.52.52 0 0 1 .13-.83.61.61 0 0 1 .29-.07.6.6 0 0 1 .27.06.51.51 0 0 1 .2.17zm.14-.21h.94V2h-.34v.77h-.25V2h-.35v-.23zm1.1 1v-1h.41a.36.36 0 0 1 .27.08.26.26 0 0 1 .07.18.22.22 0 0 1-.15.21.26.26 0 0 1 .2.26.27.27 0 0 1-.05.17.25.25 0 0 1-.13.09h-.23zm.25-.61h.1a.14.14 0 0 0 .1 0 .09.09 0 0 0 0-.07.12.12 0 0 0 0-.09.11.11 0 0 0-.08 0h-.12v.22zm0 .42h.13a.13.13 0 0 0 .11 0 .1.1 0 0 0 0-.07.14.14 0 0 0 0-.09.16.16 0 0 0-.12 0h-.11v.23zm1.24-.84a.53.53 0 0 1 .27.07.51.51 0 0 1 .2.19.52.52 0 0 1 .07.26.53.53 0 0 1-.07.27.51.51 0 0 1-.19.19.54.54 0 0 1-.27.07.5.5 0 0 1-.37-.16.53.53 0 0 1 0-.77.51.51 0 0 1 .35-.14zm0 .24a.26.26 0 0 0-.2.08.29.29 0 0 0-.08.21.29.29 0 0 0 .08.21.26.26 0 0 0 .2.08.26.26 0 0 0 .2-.08.29.29 0 0 0 .08-.21.29.29 0 0 0-.08-.21.26.26 0 0 0-.2-.08zm2.25 0l-.21.12a.35.35 0 0 0-.11-.12h-.14a.32.32 0 0 0-.23.08.29.29 0 0 0-.09.22.28.28 0 0 0 .08.21.31.31 0 0 0 .22.08.32.32 0 0 0 .26-.12l.2.14a.54.54 0 0 1-.46.21.55.55 0 0 1-.42-.16.52.52 0 0 1 .13-.83.61.61 0 0 1 .29-.07.6.6 0 0 1 .27.06.51.51 0 0 1 .2.17zm1.23-.23a.54.54 0 0 1 .27.07.52.52 0 0 1 .27.46.53.53 0 0 1-.07.27.51.51 0 0 1-.19.19.54.54 0 0 1-.27.07.5.5 0 0 1-.37-.15.53.53 0 0 1 0-.77.51.51 0 0 1 .35-.14zm0 .24a.26.26 0 0 0-.2.08.29.29 0 0 0-.08.21.29.29 0 0 0 .08.21.26.26 0 0 0 .2.08.26.26 0 0 0 .2-.08.29.29 0 0 0 .08-.21.29.29 0 0 0-.08-.21.26.26 0 0 0-.2-.08zm.74-.21h.59V2h-.34v.77h-.25v-1zm1 0v.11a.48.48 0 0 1 .15-.1.43.43 0 0 1 .17 0 .44.44 0 0 1 .34.15.54.54 0 0 1 .14.38.52.52 0 0 1-.14.38.45.45 0 0 1-.34.15.42.42 0 0 1-.16 0 .49.49 0 0 1-.15-.1v.48h-.25V1.77zm.27.21a.26.26 0 0 0-.2.08.29.29 0 0 0-.08.21.3.3 0 0 0 .08.22.27.27 0 0 0 .39 0 .3.3 0 0 0 .08-.21.3.3 0 0 0-.08-.21.26.26 0 0 0-.2-.08zm1.48-.21h.25v1h-.25v-.13a.5.5 0 0 1-.15.1.42.42 0 0 1-.16 0 .45.45 0 0 1-.34-.15.52.52 0 0 1-.14-.38.54.54 0 0 1 .14-.38.44.44 0 0 1 .32-.12.43.43 0 0 1 .17 0 .47.47 0 0 1 .15.1v-.07zm-.25.2a.26.26 0 0 0-.2.08.33.33 0 0 0 0 .43.26.26 0 0 0 .19.08.26.26 0 0 0 .2-.08.3.3 0 0 0 .08-.22.29.29 0 0 0-.08-.21.26.26 0 0 0-.2-.08zm1 .16h.38v-.39h.25v1h-.25v-.41h-.38v.42h-.25v-1h.25v.36zm1 .65H32v-1h.25v.59l.52-.59h.12v1h-.25V2.2l-.5.58zm1.55-.4h-.2a.54.54 0 0 1-.32-.08A.3.3 0 0 1 33 2v-.23h.25V2c0 .09.06.13.18.13h.2v-.36h.25v1h-.25v-.4zm1.52 0h-.81a.27.27 0 0 0 .09.17.29.29 0 0 0 .19.06.33.33 0 0 0 .24-.1l.21.1a.5.5 0 0 1-.19.17.59.59 0 0 1-.26.05.52.52 0 0 1-.38-.15.51.51 0 0 1-.15-.37.52.52 0 0 1 .15-.38.5.5 0 0 1 .37-.15.52.52 0 0 1 .39.09.55.55 0 0 1 .15.4zm-.25-.2a.25.25 0 0 0-.1-.13.29.29 0 0 0-.13-.08.31.31 0 0 0-.19.06.32.32 0 0 0-.09.13zm.71 0H36v-.44h.25v1H36v-.41h-.38v.42h-.22v-1h.25v.36zm1.14 0h.38v-.44h.25v1h-.25v-.41h-.38v.42h-.25v-1h.25v.36zm1.36-.39a.54.54 0 0 1 .27.07.51.51 0 0 1 .2.19.52.52 0 0 1 .07.26.53.53 0 0 1-.07.27.51.51 0 0 1-.19.19.54.54 0 0 1-.27.07.5.5 0 0 1-.37-.15.53.53 0 0 1 0-.77.51.51 0 0 1 .35-.14zm0 .24a.26.26 0 0 0-.2.08.29.29 0 0 0-.08.21.29.29 0 0 0 .08.21.26.26 0 0 0 .2.08.26.26 0 0 0 .2-.08.29.29 0 0 0 .08-.21.29.29 0 0 0-.08-.21.26.26 0 0 0-.2-.08zm.87.8h-.13v-1h.25v.59l.52-.59h.12v1h-.25V2.2l-.5.58zM39 1.32h.2a.15.15 0 0 0 .07.06h.21a.14.14 0 0 0 .06-.05h.2a.28.28 0 0 1-.11.19.43.43 0 0 1-.27.07.51.51 0 0 1-.19 0 .3.3 0 0 1-.17-.13.28.28 0 0 1 0-.14zm2 .42a.54.54 0 0 1 .27.07.52.52 0 0 1 .27.46.53.53 0 0 1-.07.27.51.51 0 0 1-.19.19.54.54 0 0 1-.28.07.51.51 0 0 1-.37-.15.53.53 0 0 1 0-.77.51.51 0 0 1 .37-.14zM41 2a.26.26 0 0 0-.2.08.29.29 0 0 0-.08.21.29.29 0 0 0 .08.21.26.26 0 0 0 .2.08.26.26 0 0 0 .2-.08.29.29 0 0 0 .08-.21.29.29 0 0 0-.08-.21A.26.26 0 0 0 41 2zm.65-.21h.94V2h-.34v.77H42V2h-.35v-.23zm1.1 1v-1h.41a.36.36 0 0 1 .27.08.26.26 0 0 1 .07.18.22.22 0 0 1-.15.21.26.26 0 0 1 .2.26.27.27 0 0 1-.05.17.25.25 0 0 1-.13.09h-.23zm.25-.63h.1a.14.14 0 0 0 .1 0 .09.09 0 0 0 0-.07.12.12 0 0 0 0-.09.11.11 0 0 0-.08 0H43v.22zm0 .42h.13a.13.13 0 0 0 .11 0 .1.1 0 0 0 0-.07.13.13 0 0 0 0-.09.15.15 0 0 0-.12 0H43v.23zm1.77-.24H44a.28.28 0 0 0 .09.17.29.29 0 0 0 .19.06.33.33 0 0 0 .24-.1l.21.1a.51.51 0 0 1-.19.17.59.59 0 0 1-.26.05.52.52 0 0 1-.38-.15.51.51 0 0 1-.15-.37.52.52 0 0 1 .15-.38.5.5 0 0 1 .37-.15.52.52 0 0 1 .39.15.55.55 0 0 1 .15.4zm-.25-.2a.25.25 0 0 0-.1-.13.29.29 0 0 0-.12-.01.31.31 0 0 0-.19.06.32.32 0 0 0-.09.13zm.37-.38h.94V2h-.34v.77h-.25V2h-.35v-.23zM47 2l-.21.12A.35.35 0 0 0 46.7 2h-.14a.32.32 0 0 0-.23.08.29.29 0 0 0-.09.22.28.28 0 0 0 .08.21.31.31 0 0 0 .22.08.32.32 0 0 0 .26-.12l.2.14a.54.54 0 0 1-.46.21.55.55 0 0 1-.42-.16.52.52 0 0 1 .13-.83.61.61 0 0 1 .29-.07.6.6 0 0 1 .27.06A.51.51 0 0 1 47 2zm.14-.21h.94V2h-.34v.77h-.25V2h-.35v-.23zm1.1 1v-1h.41a.36.36 0 0 1 .27.08A.26.26 0 0 1 49 2a.22.22 0 0 1-.15.21.26.26 0 0 1 .2.26.27.27 0 0 1-.05.17.25.25 0 0 1-.13.09h-.23zm.25-.61h.1a.14.14 0 0 0 .1 0 .09.09 0 0 0 0-.07.12.12 0 0 0 0-.09.11.11 0 0 0-.08 0h-.12v.22zm0 .42h.13a.13.13 0 0 0 .11 0 .1.1 0 0 0 0-.07.13.13 0 0 0 0-.09.15.15 0 0 0-.12 0h-.11v.23zm1.77-.24h-.81a.28.28 0 0 0 .09.17.29.29 0 0 0 .19.06.33.33 0 0 0 .24-.1l.21.1a.51.51 0 0 1-.19.17.59.59 0 0 1-.26.05.52.52 0 0 1-.38-.15.51.51 0 0 1-.15-.37.52.52 0 0 1 .15-.38.5.5 0 0 1 .37-.15.52.52 0 0 1 .39.15.55.55 0 0 1 .15.4zM50 2.15a.25.25 0 0 0-.1-.13.29.29 0 0 0-.13-.02.31.31 0 0 0-.19.06.32.32 0 0 0-.09.13zm.71 0h.38v-.38h.25v1h-.25v-.41h-.38v.42h-.21v-1h.25v.36zm1.14 0h.38v-.38h.25v1h-.25v-.41h-.38v.42h-.25v-1h.25v.36zm1.36-.39a.54.54 0 0 1 .27.07.52.52 0 0 1 .27.46.53.53 0 0 1-.07.27.51.51 0 0 1-.19.19.54.54 0 0 1-.27.07.5.5 0 0 1-.37-.15.53.53 0 0 1 0-.77.51.51 0 0 1 .35-.14zm0 .24a.26.26 0 0 0-.2.08.29.29 0 0 0-.08.21.29.29 0 0 0 .08.21.26.26 0 0 0 .2.08.26.26 0 0 0 .2-.08.29.29 0 0 0 .08-.21.29.29 0 0 0-.08-.21.26.26 0 0 0-.2-.08zM55 2l-.21.12a.35.35 0 0 0-.14-.12h-.14a.32.32 0 0 0-.23.08.29.29 0 0 0-.09.22.28.28 0 0 0 .08.21.31.31 0 0 0 .22.08.32.32 0 0 0 .26-.12l.2.14a.54.54 0 0 1-.46.21.55.55 0 0 1-.42-.16.52.52 0 0 1 .13-.83.61.61 0 0 1 .29-.07.6.6 0 0 1 .27.06A.51.51 0 0 1 55 2zm.14-.21h.94V2h-.34v.77h-.25V2h-.35v-.23zm1.36.36h.08a.94.94 0 0 1 .24 0 .28.28 0 0 1 .14.1.32.32 0 0 1 .06.2.33.33 0 0 1-.05.19.25.25 0 0 1-.13.1.83.83 0 0 1-.23 0h-.36v-1h.25v.36zm0 .45h.23a.1.1 0 0 0 0-.07c0-.09 0-.13-.15-.13h-.11v.24zm1 .2h-.25v-1h.25v.4h.13a.53.53 0 0 1 .19-.31.53.53 0 0 1 .7 0 .5.5 0 0 1 .16.37.53.53 0 0 1-.86.41.5.5 0 0 1-.19-.29h-.13v.38zm.93-.5a.29.29 0 0 0-.08-.21.26.26 0 0 0-.2-.08.26.26 0 0 0-.2.08.29.29 0 0 0-.08.21.29.29 0 0 0 .08.21.26.26 0 0 0 .2.08.27.27 0 0 0 .2-.08.29.29 0 0 0 .02-.24zM13.92 4.15h.4L14 5l.28.84h-.4L13.64 5l.28-.85zm.71 0H15l-.26.85.29.84h-.4L14.34 5l.29-.85zM16 5.32l-.81-1.77h.49l.54 1.28.44-1.28h.45l-.61 1.64a1.28 1.28 0 0 1-.34.56.63.63 0 0 1-.39.14.82.82 0 0 1-.63-.33l.29-.29a.47.47 0 0 0 .34.2.2.2 0 0 0 .12 0l.11-.15zm1.78.52h-.42V4.15h1.48v1.69h-.42V4.56h-.64v1.28zm1.91-1.69v.19a.8.8 0 0 1 .25-.17.73.73 0 0 1 .29-.06.74.74 0 0 1 .56.25A.91.91 0 0 1 21 5a.88.88 0 0 1-.24.63.75.75 0 0 1-.57.25.71.71 0 0 1-.27-.05.82.82 0 0 1-.25-.17v.8h-.42V4.15zm.44.35a.44.44 0 0 0-.33.14.49.49 0 0 0-.13.36.51.51 0 0 0 .13.36.44.44 0 0 0 .33.14.43.43 0 0 0 .33-.14.51.51 0 0 0 .1-.36.5.5 0 0 0-.13-.36.43.43 0 0 0-.33-.14zm2.49-.35H23v1.69h-.42v-.18a.83.83 0 0 1-.25.17.71.71 0 0 1-.27.05.75.75 0 0 1-.57-.25.88.88 0 0 1-.23-.63.91.91 0 0 1 .23-.64.74.74 0 0 1 .56-.25.73.73 0 0 1 .29.06.8.8 0 0 1 .25.17v-.19zm-.45.35a.43.43 0 0 0-.33.14.5.5 0 0 0-.13.36.51.51 0 0 0 .13.36.46.46 0 0 0 .66 0 .51.51 0 0 0 .11-.36.49.49 0 0 0-.13-.36.44.44 0 0 0-.33-.14zm1.3 1.34V4.15h.68a.61.61 0 0 1 .45.13.43.43 0 0 1 .12.3.37.37 0 0 1-.25.36.43.43 0 0 1 .33.43.44.44 0 0 1-.09.28.42.42 0 0 1-.22.15 1.5 1.5 0 0 1-.38 0zm.42-1H24a.23.23 0 0 0 .16-.05.15.15 0 0 0 .06-.12.2.2 0 0 0-.06-.15.18.18 0 0 0-.13-.05h-.2v.37zm0 .7h.22a.23.23 0 0 0 .18-.06.18.18 0 0 0 .05-.11.23.23 0 0 0-.06-.15.26.26 0 0 0-.28-.09h-.18v.39zm2.79.33h-.43l-.45-1.1-.43 1.07h-.43l.72-1.69h.27l.72 1.69zm.51-.69a.44.44 0 0 1-.25-.18.48.48 0 0 1-.09-.28.53.53 0 0 1 .15-.35.46.46 0 0 1 .26-.18 2.08 2.08 0 0 1 .46 0h.43v1.65h-.42v-.61h-.08l-.41.61h-.5l.47-.69zm.52-.24V4.5h-.15c-.16 0-.24.07-.24.2s.09.2.27.2zm1.29.9h-.42V4.15H29v.67h.23a.88.88 0 0 1 .33-.52.89.89 0 0 1 1.17.07.85.85 0 0 1 .26.63.89.89 0 0 1-1.45.7.84.84 0 0 1-.31-.48H29v.63zM30.52 5a.49.49 0 0 0-.13-.35.44.44 0 0 0-.33-.14.43.43 0 0 0-.33.14.54.54 0 0 0 0 .7.44.44 0 0 0 .33.14.45.45 0 0 0 .33-.14.48.48 0 0 0 .13-.35zm3.22.44h.43v.7h-.4v-.3h-2.48V4.15h.42v1.28h.59V4.15h.42v1.28h.59V4.15h.42v1.28zm1.91-1.28h.42v1.68h-.42v-.18a.83.83 0 0 1-.25.17.71.71 0 0 1-.27.05.75.75 0 0 1-.57-.25.88.88 0 0 1-.24-.63.91.91 0 0 1 .23-.64.74.74 0 0 1 .56-.25.73.73 0 0 1 .29.06.8.8 0 0 1 .25.17v-.19zm-.45.35a.43.43 0 0 0-.33.14.5.5 0 0 0-.13.36.51.51 0 0 0 .13.36.43.43 0 0 0 .33.14.44.44 0 0 0 .33-.14.51.51 0 0 0 .14-.37.49.49 0 0 0-.13-.36.44.44 0 0 0-.33-.14zm1.59.65a.44.44 0 0 1-.23-.16.48.48 0 0 1-.09-.28.53.53 0 0 1 .11-.33.46.46 0 0 1 .26-.18 2.08 2.08 0 0 1 .46 0h.43v1.63h-.42v-.61h-.08l-.4.61h-.5l.47-.69zm.52-.24V4.5h-.15q-.24 0-.24.2c0 .14.09.2.27.2zm1.74-.76h.42v.63l.59-.63h.52l-.76.84.77.87H40l-.51-.6v.59h-.42V4.15zm2.51 0a.9.9 0 0 1 .45.12.87.87 0 0 1 .45.77.89.89 0 0 1-.12.45.86.86 0 0 1-.32.32.9.9 0 0 1-.45.12.85.85 0 0 1-.62-.26.89.89 0 0 1 0-1.29.85.85 0 0 1 .59-.23zm0 .4a.44.44 0 0 0-.33.14.49.49 0 0 0-.13.3.5.5 0 0 0 .13.36.44.44 0 0 0 .33.14.44.44 0 0 0 .33-.14.54.54 0 0 0 0-.71.44.44 0 0 0-.33-.14zm2.27.71l.52-1.07h.28l.42 1.69h-.41l-.23-1-.51 1h-.17l-.49-1-.23 1h-.41l.4-1.74h.28l.53 1.07zm1.88.62h-.42V4.15h1.48v1.69h-.42V4.56h-.64v1.28zm2.74-1.69h.42v1.64h-.42v-.18a.83.83 0 0 1-.25.17.71.71 0 0 1-.27.05.75.75 0 0 1-.57-.25.88.88 0 0 1-.23-.63.91.91 0 0 1 .23-.64.74.74 0 0 1 .56-.25.72.72 0 0 1 .29.06.8.8 0 0 1 .25.17v-.19zm-.45.3a.43.43 0 0 0-.33.14.5.5 0 0 0-.13.36.5.5 0 0 0 .13.36.43.43 0 0 0 .33.14.44.44 0 0 0 .33-.14.51.51 0 0 0 .15-.36.49.49 0 0 0-.13-.36.44.44 0 0 0-.35-.14zm1.72.26h.64v-.61h.42v1.69h-.42v-.7h-.64v.7h-.42V4.15h.42v.61zm1.71 1.08h-.23V4.15h.41v1l.87-1h.2v1.69h-.41v-1l-.84 1zm2-.69a.44.44 0 0 1-.24-.15.48.48 0 0 1-.09-.28.53.53 0 0 1 .11-.33.46.46 0 0 1 .26-.18 2.08 2.08 0 0 1 .46 0h.43v1.63h-.42v-.61h-.08l-.41.61h-.5l.47-.69zm.52-.24V4.5h-.15c-.16 0-.24.07-.24.2s.09.2.27.2zm-40.03 2.5h.4l-.32.85.28.84h-.4l-.28-.84.28-.85zm.71 0H15l-.29.85.29.84h-.4l-.29-.84.29-.85zm.69 1.69V6.81h.36a1.86 1.86 0 0 1 .46 0 .62.62 0 0 1 .33.2.53.53 0 0 1 .12.35.51.51 0 0 1-.05.24.61.61 0 0 1-.18.2.71.71 0 0 1 .3.24.62.62 0 0 1 .1.35.65.65 0 0 1-.1.35.64.64 0 0 1-.26.26 1 1 0 0 1-.4.1zm.43-1.87v.48h.1a.37.37 0 0 0 .24-.07.23.23 0 0 0 .08-.18.21.21 0 0 0-.07-.17.35.35 0 0 0-.23-.06zm0 .87v.59h.11a.69.69 0 0 0 .37-.07.23.23 0 0 0 .1-.2.28.28 0 0 0-.11-.23.63.63 0 0 0-.37-.09zm3.06.27h-1.35a.46.46 0 0 0 .16.29.49.49 0 0 0 .33.11.56.56 0 0 0 .41-.17l.36.17a.84.84 0 0 1-.32.28 1 1 0 0 1-.44.09.87.87 0 0 1-.65-.25.85.85 0 0 1-.31-.63.88.88 0 0 1 .25-.64.84.84 0 0 1 .63-.26.87.87 0 0 1 .65.25.92.92 0 0 1 .25.67v.08zM18.4 8a.42.42 0 0 0-.17-.23.49.49 0 0 0-.29-.09.52.52 0 0 0-.31.1.54.54 0 0 0-.16.21zm.6-.59h1.58v.4H20V9.1h-.42V7.81H19v-.4zm2.28 0v.19a.8.8 0 0 1 .25-.17.73.73 0 0 1 .29-.06.74.74 0 0 1 .56.25.9.9 0 0 1 .23.64.88.88 0 0 1-.24.63.75.75 0 0 1-.57.25.71.71 0 0 1-.27-.05.82.82 0 0 1-.25-.17v.8h-.42V7.41zm.44.35a.44.44 0 0 0-.33.14.49.49 0 0 0-.13.36.51.51 0 0 0 .13.36.46.46 0 0 0 .66 0 .51.51 0 0 0 .13-.36.5.5 0 0 0-.13-.36.43.43 0 0 0-.33-.14zm2-.39a.9.9 0 0 1 .45.12.87.87 0 0 1 .45.77.89.89 0 0 1-.12.45.86.86 0 0 1-.33.32.9.9 0 0 1-.45.12.85.85 0 0 1-.62-.26.89.89 0 0 1 .62-1.52zm0 .4a.44.44 0 0 0-.33.14.49.49 0 0 0-.13.35.5.5 0 0 0 .13.36.44.44 0 0 0 .33.14.44.44 0 0 0 .33-.14.54.54 0 0 0 0-.71.44.44 0 0 0-.33-.14zm2.43.66h-.57v-.37h.57a.51.51 0 0 0-.5-.31.62.62 0 0 0-.44.19l-.35-.19a1 1 0 0 1 1.47-.13.89.89 0 0 1 0 1.27 1 1 0 0 1-.7.25 1 1 0 0 1-.77-.35l.33-.23a.53.53 0 0 0 .45.2.49.49 0 0 0 .49-.33zM27.42 8h.64v-.59h.42V9.1h-.42v-.7h-.64v.7H27V7.41h.42V8zm3.18.36h-1.36a.46.46 0 0 0 .16.29.49.49 0 0 0 .33.11.56.56 0 0 0 .41-.17l.36.17a.84.84 0 0 1-.32.28 1 1 0 0 1-.44.09.87.87 0 0 1-.65-.25.85.85 0 0 1-.25-.63.88.88 0 0 1 .25-.64.84.84 0 0 1 .63-.26.87.87 0 0 1 .65.25.92.92 0 0 1 .25.67v.08zM30.18 8a.42.42 0 0 0-.18-.19.49.49 0 0 0-.29-.09.52.52 0 0 0-.31.1.54.54 0 0 0-.16.21zm1.19-.63v.19a.8.8 0 0 1 .25-.17.73.73 0 0 1 .29-.06.74.74 0 0 1 .56.25.91.91 0 0 1 .23.64.88.88 0 0 1-.24.63.75.75 0 0 1-.57.25.71.71 0 0 1-.27-.05.82.82 0 0 1-.25-.17v.8h-.42V7.41zm.44.35a.44.44 0 0 0-.33.14.49.49 0 0 0-.13.36.51.51 0 0 0 .13.36.46.46 0 0 0 .66 0 .51.51 0 0 0 .13-.36.5.5 0 0 0-.13-.36.43.43 0 0 0-.33-.14zm1.23-.35h1v.4h-.56V9.1h-.42V7.41zm3 1h-1.38a.46.46 0 0 0 .16.29.49.49 0 0 0 .33.11.56.56 0 0 0 .41-.17l.36.17a.85.85 0 0 1-.32.28 1 1 0 0 1-.44.09.87.87 0 0 1-.65-.25.85.85 0 0 1-.25-.63.88.88 0 0 1 .25-.64.84.84 0 0 1 .63-.26.87.87 0 0 1 .65.25.92.92 0 0 1 .25.67v.08zM35.6 8a.42.42 0 0 0-.17-.23.49.49 0 0 0-.29-.09.52.52 0 0 0-.31.1.55.55 0 0 0-.16.21zm.62-.63h1.58v.4h-.56V9.1h-.44V7.81h-.59v-.4zm2.07 1.73h-.23V7.41h.41v1l.87-1h.2V9.1h-.41v-1l-.84 1zM40 7.41h.42V8l.58-.59h.52l-.76.82.77.87H41l-.51-.6v.6H40V7.41zm3 0h.42V9.1H43v-.18a.83.83 0 0 1-.25.17.7.7 0 0 1-.27.05.76.76 0 0 1-.57-.25.88.88 0 0 1-.24-.63.9.9 0 0 1 .23-.64.74.74 0 0 1 .56-.25.72.72 0 0 1 .29.06.79.79 0 0 1 .25.17v-.19zm-.45.35a.43.43 0 0 0-.33.14.5.5 0 0 0-.13.36.51.51 0 0 0 .13.36.46.46 0 0 0 .66 0 .51.51 0 0 0 .12-.37.49.49 0 0 0-.13-.36.44.44 0 0 0-.33-.14zm2.17 1.34h-.4l.29-.85-.29-.84h.4l.29.84-.29.85zm-.7 0h-.4l.28-.85-.28-.84H44l.28.84z" fill="#fff" fill-rule="evenodd"/></g></g></svg>