<svg xmlns="http://www.w3.org/2000/svg" xmlns:xlink="http://www.w3.org/1999/xlink"><symbol id="icon-arrow"><path fill-rule="evenodd" clip-rule="evenodd" d="M14.742 12.4A.828.828 0 0115 13a.828.828 0 01-.258.6L2.732 25.74a.81.81 0 01-.593.26.81.81 0 01-.593-.26L.258 24.436a.828.828 0 01-.258-.6c0-.225.086-.425.258-.599L10.387 13 .257 2.762a.828.828 0 01-.257-.6c0-.225.086-.425.258-.599L1.546.261A.81.81 0 012.14 0a.81.81 0 01.593.26l12.01 12.14z" fill="#fff"/></symbol><symbol id="icon-fb"><path fill-rule="evenodd" clip-rule="evenodd" d="M15.91.221v4.862h-2.89c-1.056 0-1.768.22-2.137.663-.368.441-.552 1.104-.552 1.988v3.48h5.396l-.719 5.452h-4.677v13.977H4.696V16.666H0v-5.451h4.696V7.2c0-2.283.638-4.054 1.915-5.312C7.888.629 9.588 0 11.712 0c1.805 0 3.204.074 4.199.221z" fill="#fff"/></symbol><symbol id="icon-shop"><path fill-rule="evenodd" clip-rule="evenodd" d="M105.754 112H20.246c-3.803 0-6.72-3.396-6.182-7.188l7.137-50.4C21.64 51.306 24.274 49 27.384 49h4.39v12.6c0 3.478 2.797 6.3 6.244 6.3 3.454 0 6.245-2.822 6.245-6.3V49h37.468v12.6c0 3.478 2.797 6.3 6.244 6.3 3.454 0 6.245-2.822 6.245-6.3V49h4.396c3.11 0 5.745 2.306 6.182 5.412l7.138 50.4c.537 3.792-2.379 7.188-6.182 7.188zM43 31.75C43 21.413 51.525 13 62 13c10.482 0 19 6.25 19 18.75V38H43v-6.25zm81.872 78.981l-8.931-62.5c-.875-6.156-6.15-10.731-12.375-10.731h-9.819v-6.25C93.747 12.5 79.728 0 62.497 0c-17.225 0-31.25 14.019-31.25 31.25v6.25H23.34c-6.218 0-13.406 4.575-14.287 10.731l-8.925 62.5C-.947 118.262 4.897 125 12.503 125h99.994c7.606 0 13.45-6.738 12.375-14.269z" fill="#fff"/></symbol><symbol id="icon-tw"><path d="M27.791 6.25c.04.16.06.42.06.781 0 2.885-.706 5.67-2.119 8.354-1.453 2.844-3.491 5.108-6.115 6.79C16.751 24.058 13.462 25 9.748 25 6.196 25 2.947 24.058 0 22.175c.444.04.949.06 1.514.06 2.946 0 5.59-.9 7.931-2.704-1.412 0-2.654-.41-3.723-1.232-1.07-.821-1.807-1.853-2.21-3.095.403.04.787.06 1.15.06.565 0 1.13-.06 1.695-.18-1.453-.32-2.664-1.062-3.632-2.223-.97-1.162-1.454-2.484-1.454-3.967v-.12c.889.52 1.837.801 2.846.841A7.019 7.019 0 012.06 7.332a6.026 6.026 0 01-.788-3.035c0-1.102.303-2.154.909-3.155a17.505 17.505 0 005.782 4.687 17.702 17.702 0 007.296 1.923 8.698 8.698 0 01-.121-1.442 6.22 6.22 0 01.847-3.155A6.198 6.198 0 0118.285.841 6.176 6.176 0 0121.434 0c.928 0 1.786.18 2.573.54.787.361 1.483.842 2.089 1.443A12.995 12.995 0 0030.152.481c-.484 1.482-1.412 2.644-2.785 3.485 1.211-.16 2.422-.5 3.633-1.021a13.917 13.917 0 01-3.209 3.305z" fill="#fff"/></symbol></svg>