<svg xmlns="http://www.w3.org/2000/svg" xmlns:xlink="http://www.w3.org/1999/xlink"><symbol id="icon-dots" viewBox="0 0 350 350"><path d="M33.144 2.471C15.336 2.471.85 16.958.85 34.765s14.48 32.293 32.294 32.293 32.294-14.486 32.294-32.293S50.951 2.471 33.144 2.471zm104.519 0c-17.807 0-32.294 14.487-32.294 32.294s14.487 32.293 32.294 32.293c17.808 0 32.297-14.486 32.297-32.293S155.477 2.471 137.663 2.471zm106.21 64.588c17.804 0 32.294-14.486 32.294-32.293S261.689 2.471 243.873 2.471s-32.294 14.487-32.294 32.294 14.489 32.294 32.294 32.294zM32.3 170.539c17.807 0 32.297-14.483 32.297-32.293 0-17.811-14.49-32.297-32.297-32.297S0 120.436 0 138.246c0 17.81 14.493 32.293 32.3 32.293zm104.519 0c17.804 0 32.294-14.483 32.294-32.293 0-17.811-14.478-32.297-32.294-32.297-17.813 0-32.294 14.486-32.294 32.297 0 17.81 14.487 32.293 32.294 32.293zm106.219 0c17.811 0 32.294-14.483 32.294-32.293 0-17.811-14.483-32.297-32.294-32.297s-32.306 14.486-32.306 32.297c0 17.81 14.49 32.293 32.306 32.293zM33.039 209.108c-17.807 0-32.3 14.483-32.3 32.294 0 17.804 14.493 32.293 32.3 32.293s32.293-14.482 32.293-32.293-14.486-32.294-32.293-32.294zm104.525 0c-17.808 0-32.3 14.483-32.3 32.294 0 17.804 14.487 32.293 32.3 32.293 17.804 0 32.293-14.482 32.293-32.293s-14.489-32.294-32.293-32.294zm106.207 0c-17.804 0-32.294 14.483-32.294 32.294 0 17.804 14.49 32.293 32.294 32.293 17.811 0 32.294-14.482 32.294-32.293s-14.49-32.294-32.294-32.294z"/></symbol><symbol id="icon-loupe" viewBox="0 0 512.005 512.005"><path d="M505.749 475.587l-145.6-145.6c28.203-34.837 45.184-79.104 45.184-127.317C405.333 90.926 314.41.003 202.666.003S0 90.925 0 202.669s90.923 202.667 202.667 202.667c48.213 0 92.48-16.981 127.317-45.184l145.6 145.6c4.16 4.16 9.621 6.251 15.083 6.251s10.923-2.091 15.083-6.251c8.341-8.341 8.341-21.824-.001-30.165zM202.667 362.669c-88.235 0-160-71.765-160-160s71.765-160 160-160 160 71.765 160 160-71.766 160-160 160z"/></symbol><symbol id="icon-menu"><path fill="#B1AFA9" d="M8 0h21v2H8zM5 9h24v2H5zm-5 9h29v2H0z"/></symbol><symbol id="icon-pin" viewBox="0 0 40 50"><path d="M40 20c0 11.046-20 30-20 30S0 31.046 0 20 8.954 0 20 0s20 8.954 20 20z" fill="#C4B192"/><circle cx="19.5" cy="19.5" r="7" fill="#C4B192" stroke="#fff" stroke-width="3"/></symbol><symbol id="icon-placeholder" viewBox="0 0 512 512"><path d="M256 0C156.748 0 76 80.748 76 180c0 33.534 9.289 66.26 26.869 94.652l142.885 230.257A15 15 0 00258.499 512h.119a14.997 14.997 0 0012.75-7.292L410.611 272.22C427.221 244.428 436 212.539 436 180 436 80.748 355.252 0 256 0zm128.866 256.818L258.272 468.186l-129.905-209.34C113.734 235.214 105.8 207.95 105.8 180c0-82.71 67.49-150.2 150.2-150.2S406.1 97.29 406.1 180c0 27.121-7.411 53.688-21.234 76.818z"/><path d="M256 90c-49.626 0-90 40.374-90 90 0 49.309 39.717 90 90 90 50.903 0 90-41.233 90-90 0-49.626-40.374-90-90-90zm0 150.2c-33.257 0-60.2-27.033-60.2-60.2 0-33.084 27.116-60.2 60.2-60.2s60.1 27.116 60.1 60.2c0 32.683-26.316 60.2-60.1 60.2z"/></symbol></svg>