<svg width="120" height="38" fill="none" xmlns="http://www.w3.org/2000/svg"><path d="M61.092 9.559c1.87-2.492 4.298-3.894 7.287-4.203 2.987-.31 5.587.384 7.799 2.083.18.138.367.293.562.464.197.17.389.373.58.604.154.119.294.257.417.416.123.16.253.313.387.457 1.46 1.89 2.166 4.108 2.12 6.655-.048 2.547-.792 4.782-2.235 6.704-.06.082-.126.17-.198.265l-.198.263c-.087.063-.166.14-.236.235l-.2.263c-1.948 2.004-4.274 3.08-6.976 3.224-2.703.145-5.082-.572-7.14-2.151-2.262-1.738-3.613-4.11-4.052-7.114-.44-3.006.254-5.728 2.083-8.165zm2.221 8.416c.164 1.324.934 2.61 1.84 3.346l.078.06.077.059.211.162.213.164c1.234.732 2.674.985 4.324.759 1.65-.228 3.064-1.128 4.243-2.7 1.077-1.433 1.559-3.05 1.446-4.843-.113-1.795-.851-3.214-2.214-4.261-1.479-1.136-3.026-1.384-4.881-.866-1.603.448-3.337 1.67-4.18 3.224-.868 1.596-1.367 3.191-1.157 4.896z" fill="#0094FF"/><path d="M80.033 26.31L83.427.106l5.923.04-1.185 9.745L98.077.113l7.973.016-12.615 11.718 9.648 14.431-7.207.005-8.202-12.353-1.5 12.344-6.14.037z" fill="#E31E24"/><path d="M118.524 12.27a7.397 7.397 0 0 0-1.784-1.576 8.282 8.282 0 0 0-2.058-.946l-.776-.183a6.132 6.132 0 0 0-.783-.131c-1.626-.17-3.135.23-4.523 1.199-1.388.968-2.196 2.502-2.42 4.603-.183 1.7.1 3.221.846 4.563.747 1.342 1.989 2.221 3.727 2.636a.895.895 0 0 1 .201.047c.066.023.132.04.199.046.069.007.119.02.151.041.032.02.065.032.099.036a2.135 2.135 0 0 0 .548.158 6.296 6.296 0 0 0 2.998-.398 9.158 9.158 0 0 0 2.669-1.644l-.563 5.25a13.468 13.468 0 0 1-2.74.626c-.594.108-1.174.166-1.739.174a13.725 13.725 0 0 1-1.613-.066c-2.88-.299-5.292-1.526-7.236-3.683-1.945-2.158-2.738-4.92-2.376-8.287.351-3.268 1.752-5.718 4.205-7.351 2.454-1.632 5.121-2.3 8.002-2.001.373.038.76.095 1.163.17.403.077.805.169 1.204.277.532.157 1.068.347 1.609.572.542.224 1.054.48 1.537.766l-.547 5.102z" fill="#E31E24"/><path d="M35.001 23.862L52.802 0l5.925.039-1.186 9.747-.491 4.038-1.5 12.344-6.141.038L51.68 8.672c-4.322 5.853-8.202 11.67-12.735 17.516A25.123 25.123 0 0 1 0 29.347l.004-8.273A20.05 20.05 0 0 0 18.271 32.86c6.77 0 13.055-3.373 16.73-8.997z" fill="#0094FF"/><path fill-rule="evenodd" clip-rule="evenodd" d="M35.533 11.588a17.621 17.621 0 0 1 .063 2.525c-.321-.552-.63-.988-.885-1.187-1.11-.865-3.416-.396-4.215-.029-.797.368-4.258 1.522-5.375 1.469-1.12-.052-1.307-.381-3.834-1.311-2.526-.931-4.1-.63-5.163-.421-1.065.21-3.886 1.575-5.696 1.575-1.81 0-3.846-2.112-5.709-1.798-1.067.18-2.498.785-3.528 1.27a18.057 18.057 0 0 1-.005-.403c0-.092.003-.184.004-.278.054-.03 2.952-1.614 4.773-1.925 1.836-.316 3.844 1.797 5.628 1.797 1.785 0 4.566-1.364 5.616-1.574 1.05-.21 2.6-.512 5.091.42 2.49.93 2.677 1.26 3.78 1.312 1.102.052 4.513-1.103 5.3-1.47.787-.368 3.062-.836 4.155.028zm-.156 4.559a17.453 17.453 0 0 1-.324 1.51c-1.153-.573-2.202-1.064-2.843-1.293-2.12-.759-3.68.13-4.48.497-.799.367-3.422 1.785-4.685 1.732-1.261-.053-1.998-.643-4.524-1.575-2.526-.93-3.557-.73-4.621-.52-1.065.21-3.417 1.937-5.227 1.937-1.81 0-4.857-2.375-6.72-2.06-.15.026-.308.06-.47.1a19.296 19.296 0 0 1-.103-.598c1.005-.46 2.3-.99 3.285-1.156 1.863-.315 3.9 1.798 5.709 1.798 1.81 0 4.631-1.365 5.697-1.574 1.065-.212 2.636-.512 5.164.419 2.526.93 2.713 1.259 3.832 1.312 1.117.052 4.578-1.102 5.377-1.47.797-.367 3.105-.836 4.213.029.212.165.459.49.72.912zm-.925 3.365c-.32.821-.7 1.611-1.135 2.366-1.314-.661-2.544-1.246-3.261-1.502-2.12-.76-3.683.128-4.482.496-.797.367-3.566 1.785-4.683 1.733-1.119-.054-1.998-.644-4.526-1.576-2.526-.93-2.97-1.15-4.035-.94-1.065.21-4.002 2.358-5.812 2.358-.91 0-2.13-.6-3.357-1.156a17.03 17.03 0 0 1-1.218-2.948c1.877-.04 4.698 2.087 6.41 2.087 1.811 0 4.162-1.727 5.227-1.937 1.065-.211 2.095-.41 4.621.52 2.528.93 3.407 1.522 4.526 1.575 1.117.052 3.886-1.365 4.683-1.732.8-.368 2.361-1.256 4.482-.497.587.21 1.518.641 2.56 1.153zm-1.748 3.347a17.413 17.413 0 0 1-1.63 2.07c-.89-.433-1.675-.789-2.19-.973-2.122-.759-3.683.13-4.482.497-.799.367-3.411 2.42-4.524 2.309-2.187-.22-6.594-3.662-8.644-3.486-1.09.092-3.035 1.76-4.707 2.465a17.376 17.376 0 0 1-1.84-2.057c.865.154 1.676.285 2.31.285 1.81 0 4.366-2.898 5.652-2.935 2.224-.064 7.192 3.658 8.88 3.67 1.119.006 3.727-1.943 4.524-2.31.8-.366 2.362-1.256 4.482-.496.513.183 1.288.534 2.169.961zm-2.74 3.17A17.15 17.15 0 0 1 18.4 30.496 17.14 17.14 0 0 1 7.607 26.69c1.327-.814 2.147-1.864 3.283-2.022 2.172-.304 7.533 3.606 8.88 3.669 1.12.053 3.727-1.942 4.527-2.31.797-.367 2.359-1.255 4.48-.496.31.111.72.286 1.188.5z" fill="#0094FF"/></svg>