<svg version="1.0" xmlns="http://www.w3.org/2000/svg" width="2560" height="2560" viewBox="0 0 1920 1920"><path d="M844 656.7c0 .5-1.1 2.1-2.4 3.8-1.4 1.6-10.2 13.3-19.6 26-9.4 12.6-17.6 23.7-18.3 24.5-.7.8-1.9 2.6-2.8 4-.9 1.4-2.5 3.5-3.5 4.8-2.5 3-33.5 44.5-41.2 55.1-.9 1.3-2.1 2.9-2.7 3.5-.5.7-2.1 2.7-3.5 4.6-1.3 1.9-2.8 3.9-3.2 4.5-.5.5-4 5.3-7.9 10.5-3.9 5.2-7.9 10.6-9 12-1.1 1.4-3 3.9-4.2 5.6-1.2 1.7-4.2 5.8-6.6 9-2.5 3.3-8.5 11.3-13.4 17.9-4.8 6.6-9.5 12.8-10.3 13.8-.8 1-5.8 7.7-11.1 15-5.4 7.3-10.2 13.7-10.8 14.4-1.4 1.7-5.5 7.2-21.9 29.3-8 10.7-15.2 20.4-16 21.5-.8 1.1-6.3 8.5-12.3 16.5-5.9 8-11 14.7-11.3 15-.3.3-1.8 2.3-3.3 4.6-1.5 2.2-3.5 4.9-4.5 6-.9 1.1-3.3 4.2-5.1 6.9-1.9 2.8-3.8 5.2-4.1 5.5-.3.3-3.7 4.8-7.5 10s-7.2 9.7-7.5 10c-.3.3-2.4 3-4.5 6-2.2 3-4.5 6.2-5.2 7-.7.8-4.2 5.5-7.8 10.5-3.5 4.9-6.9 9.5-7.5 10.2-.5.7-1 1.6-1 2 0 .5-1.2 2.3-2.7 4-1.6 1.7-4.4 5.3-6.3 8-1.9 2.6-4.2 5.4-5 6.3-.8.9-3.3 3.8-5.5 6.5-5.1 6.4-25.4 26.6-32.5 32.5-3 2.5-6.1 5.2-7 6-5.1 4.8-33.7 24.6-39.2 27.1-1.6.7-2.8 1.6-2.8 2.1 0 .4-.9.8-1.9.8-1.1 0-2.1.4-2.3.9-.5 1.2-19.1 10.4-32.6 16.1-18.2 7.5-41.4 14.7-60.2 18.4-1.4.2-4.7.9-7.5 1.5-2.7.5-7.7 1.3-11 1.6-3.3.4-6.9.9-8 1.1-12.6 2.4-55.8 2.3-74.5-.1-14.5-1.9-34.2-5.5-42.5-7.9-.5-.2-2.3-.6-4-1.1-4.9-1.2-24.7-7.6-28-8.9-5.1-2.2-10-4.1-10.5-4.1-2.5-.2-36.4-17.3-36.8-18.6-.2-.5-1-.9-1.8-.9s-2.7-.8-4.2-1.9c-1.5-1-6.1-4-10.2-6.7-12-7.8-24.7-17.4-37.4-28.4-7.6-6.6-25.1-24.6-33.5-34.5-14-16.4-29.5-40.1-40.7-62.3L0 993.5v132.2l11.9 11.6c6.6 6.3 12.2 11.3 12.5 10.9.3-.3.6 0 .6.6s3.5 3.9 7.8 7.3c4.2 3.5 8.6 7.1 9.7 8.1 3.5 3.1 19.5 14.6 25.4 18.3.9.5 4.1 2.6 7.1 4.6 4.8 3.1 20.4 12.4 25.1 14.9 11.2 5.9 32.3 16 36.9 17.5.3.1 1.4.5 2.5 1 10.4 4.2 13.5 5.4 17 6.6 2.2.7 4.3 1.4 4.8 1.5.4.1.9.3 1.2.4.3.1.8.3 1.3.4.4.1 1.2.4 1.7.7.6.3 3 1.1 5.5 1.8 2.5.8 6.6 2 9.1 2.7 2.5.8 5.5 1.7 6.7 1.9 3.1.7 5 1.2 10.2 2.5 2.5.6 5.4 1.3 6.5 1.5 1.1.2 3.1.7 4.5 1 1.4.4 3.4.8 4.5 1 1.1.2 3.4.6 5 .9 3.1.6 18.1 2.9 27 4.1 22.6 3.1 61.5 3.5 84.5 1 1.9-.2 5.7-.6 8.4-.9 8.7-.9 22.9-3.2 37.7-6.1 6.3-1.2 26.2-6.5 35.9-9.6 5.8-1.8 10.7-3.3 11-3.4 1.2-.2 15.9-5.9 19.7-7.6 2.4-1 4.5-1.9 4.7-1.9.2 0 2.1-.8 4.2-1.7 2.2-.9 4.2-1.6 4.7-1.5.4.1.7-.2.7-.8 0-.5.6-1 1.3-1 1.3 0 23.4-11 31.7-15.7 10-5.7 31-19.3 39.5-25.6 8.9-6.5 14.2-10.7 16-12.4 1.1-1 3.4-2.9 5-4.1 11.7-9 32-29.2 49.2-49.1 3.6-4.1 19-24.2 22.3-29.1.8-1.2 7.1-9.4 13.9-18.3 6.7-8.9 13.2-17.3 14.2-18.7 1.1-1.4 4.4-5.9 7.4-10s6.2-8.4 7-9.5c2.7-3.4 5.4-7.2 17.6-23.9 6.5-8.8 12.6-17.2 13.6-18.6 1-1.3 8.9-12.4 17.5-24.5 8.7-12.1 16.4-22.9 17.2-24 2.3-3.1 18.4-25.8 19.8-27.9.7-1 2.3-3.1 3.6-4.6 1.2-1.5 2.2-3 2.2-3.3 0-.3 2.8-4.4 6.3-9.1 3.4-4.7 12-16.7 19.2-26.8 7.1-10.1 13.3-18.8 13.8-19.3.4-.6 4.9-6.6 9.8-13.5s9.6-13.3 10.4-14.3c.8-.9 3.3-4.4 5.5-7.6 2.2-3.2 4.7-6.4 5.5-7.1 1.2-1 1.3-.8 1 1.2-.3 1.2-.7 4.3-1 6.8-.3 2.5-.7 6.1-1 8-.3 1.9-.7 5.7-1 8.5-.3 2.7-.8 6.1-1 7.5-.6 2.9-1.5 10-2 15-.2 1.9-.6 5.1-.9 7-.3 1.9-.7 5.5-1 8-1.2 9.2-1.7 13.6-2.2 17-1 6.4-2.5 18.1-2.9 22-.5 5-1.6 13.6-2 16-.4 2.6-1.1 7.5-1.9 14.5-.3 2.2-.7 5.6-1 7.5-.3 1.9-.8 5.7-1.1 8.5-.4 2.7-.9 6.3-1.1 8-.2 1.6-.6 5-.9 7.5-.3 2.5-.8 6.1-1 8-.3 1.9-.7 4.6-.9 6-.2 1.4-.7 5.2-1.1 8.5-.3 3.3-.8 7.3-1.1 8.9-.3 1.6-.7 4.8-.9 7-.2 2.3-.6 5.7-.9 7.6-.3 1.9-1 7.3-1.6 12-.6 4.7-1.3 9.6-1.5 11-.2 1.4-.6 4.7-1 7.5-.3 2.7-.8 6.1-1 7.5-.2 1.4-.6 4.7-1 7.5-.4 2.7-.8 6.1-1 7.5-.2 1.4-.6 5.2-1 8.4-.3 3.3-.8 6.3-1.1 6.8-.6 1-5.1.9 40.1.7 20.9-.1 42.6-.1 48.3-.1 9.7 0 10.2-.1 10.3-2.2 0-1.1.2-3 .4-4.1.4-3.1 1.6-12.6 2-16.5.1-1.9.6-5.3.9-7.5 1.3-9.2 2.4-18.3 3-24.5.4-4.7 1.3-12 2.2-18 .6-4 1-7.3 1.9-15.1.3-3.1.7-6.5.9-7.5.2-1.1.7-4.8 1-8.4.7-6 1.2-10.8 2.1-17 1-7.8 1.5-12 2-16.5.3-2.8.7-6.1 1-7.5.2-1.4.7-5.6 1-9.3.4-3.7.8-7.7 1-8.7.2-1 .6-4.3.9-7.2.4-2.9.8-6.4 1-7.8.2-1.4.7-5.2 1.1-8.5.7-6.8 1.2-10.3 2-16 .3-2.2.8-6.3 1.1-9 .7-7.6 1.9-17.7 3-24.5.2-1.4.6-5.6.9-9.3.4-3.7.9-7.8 1.1-9 .3-1.2.7-4.1.9-6.5.2-2.3.7-6.6 1.1-9.5.3-2.9.8-6.3.9-7.7.1-1.4.5-4.3.9-6.5.3-2.2.9-6.5 1.2-9.5.3-3 .7-6.6.9-8 .3-2.2 1-8.3 2-17 .2-1.4.6-4.5.9-7 .7-5.5 1.3-10.6 2.2-18.5.3-3.3.8-7.1 1-8.5.3-1.4.7-4.5.9-7 .3-2.5.7-6.1 1-8 .2-1.9.7-6.2 1.1-9.5.3-3.3.8-6.9 1-8 .3-1.1.7-4.5 1-7.5.3-3 .7-6.5.9-7.8.2-1.3.7-5.3 1.1-9 .3-3.7.8-7 1.1-7.5.2-.4.1-.7-.4-.8-4.8-.6-95.3-.7-95.3-.2zm491.7 1.5c-1.2.7-1.2.7-2.7 13.6-.6 5.1-1.3 10.2-1.5 11.5-.2 1.2-.6 4.4-1 7.2-.3 2.7-.8 6.3-1.1 8-.3 1.6-.6 4.6-.8 6.5-.2 1.9-.7 6.2-1.2 9.5-.4 3.3-.8 7.1-.9 8.5-.1 1.4-.3 2.5-.5 2.5-.1 0-.3 1.6-.5 3.5-.4 4.9-1.2 11.2-2.5 20-.6 4.1-1.3 9.3-1.6 11.5-.6 5.3-1.2 10-1.4 10 0 0-.3 2.2-.5 5-.3 2.7-.7 6.3-.9 8-.2 1.6-.7 5.7-1.1 9-.4 3.3-1.1 7-1.6 8.2-.5 1.5-.5 2.3.2 2.3.6 0 .7.4.4 1-.8 1.2-1.3 4-2 10.4-.3 2.8-.8 6.2-1 7.6-.2 1.4-.7 4.7-1 7.5-1 8.6-1.6 13.9-2.1 16.5-.5 2.7-1.1 7.8-2 15.5-.3 2.7-.7 5.7-.9 6.5-.2.8-.7 4.2-1 7.5-.4 3.3-.9 7.6-1.2 9.5-.2 1.9-.6 5.1-.8 7-.2 1.9-.4 3.7-.5 4-.2.3-.2.8-.2 1.1.1.5-.6 5.6-2.2 16.9-.3 1.9-.8 5.5-1.1 8-.3 2.5-.7 5.9-.9 7.5-.3 1.7-.7 5-1 7.5-.3 2.5-.8 6.2-1.1 8.2-.2 2-.7 5.7-.9 8.1-.3 2.5-1.2 9.6-2.1 15.8-.9 6.3-1.8 13.6-2.1 16.4-.3 2.7-.9 7.5-1.4 10.5-.5 3-1.2 8.4-1.6 12-.3 3.6-.8 7.4-1 8.5-.4 2-1 6.5-1.9 14.5-.2 2.5-.7 5.6-.9 7-.3 1.4-.7 4.7-1 7.5-1 8-1.7 13.8-2.2 16.5-.2 1.4-.7 5.3-1 8.7l-.6 6.3 48.5-.3c26.8-.2 48.8-.5 49.1-.8.3-.2.7-2.5 1-4.9.4-2.5.9-6.5 1.2-9 .6-5.1.9-6.9 1.9-16 .4-3.6.9-7.3 1.1-8.3.2-1 .6-4.6.9-8 .3-3.4.8-6.9 1-7.7.2-.8.6-4.4 1-8 .3-3.6.8-8.1 1-10 .3-1.9.8-5.5 1.1-8 .3-2.5.7-6.3 1-8.5.3-2.2.7-5.8.9-7.9.3-2.1.7-5.5 1-7.5.3-2 .7-6.1 1-9.2.3-3.1.8-6.6 1-7.9.2-1.3.7-4.6 1-7.4.8-8.2 1.6-14.8 2-16.7.2-1 .7-4.9 1-8.6.4-3.7.9-7.7 1.2-8.8.2-1.1.6-4.7.9-8 .3-3.3.7-7 .9-8.1.2-1.2.7-4.8 1.1-8 1-8.8 1-8.9 1.7-8.9.3 0 4 5.2 8.2 11.5 4.1 6.3 8 12.2 8.5 13 .6.8 3.7 5.5 7 10.3 3.3 4.9 6 9.2 6 9.7s.3 1 .8 1.2c.4.1 2.7 3.4 5.2 7.3 2.5 3.8 4.9 7.4 5.3 8 2.4 3 35.7 53.7 35.7 54.5 0 .4.4 1 .8 1.2.4.1 7.9 11.1 16.7 24.3 8.7 13.2 16.2 24.1 16.7 24.3.4.2.8.8.8 1.3s4.3 7.3 9.5 15.2l9.5 14.2 56.2-.1c31-.1 56.9-.2 57.6-.3.7 0-5-9.4-12.7-20.9-7.6-11.4-13.9-21.1-13.9-21.6s-.4-1.2-.9-1.5c-.6-.3-3.8-4.9-7.3-10.1-3.5-5.2-6.7-9.7-7.2-9.8-.4-.2-.8-.8-.8-1.3 0-.8-27.2-42.2-29.8-45.4-.4-.6-7.5-11.1-15.7-23.5s-15.2-22.7-15.6-23c-.3-.3-.8-1-1-1.5-.2-.6-8.5-13.1-18.4-27.8-9.9-14.7-18.4-27.5-19-28.4-.5-.9-3.2-4.8-5.8-8.7l-4.8-7.1 5.8-5.3c3.2-2.9 8.3-7.6 11.4-10.5 3-2.9 10.9-10.2 17.5-16.3 10.6-9.9 15-14 27.4-25.4 1.9-1.8 6.5-6 10.1-9.4 15.6-14.6 29.6-27.6 32.4-30.2 5.8-5.3 23.8-22 28-25.9 3.9-3.8 21.8-20.4 29.5-27.5 1.9-1.7 8.4-7.8 14.4-13.3 6-5.6 11.4-10.7 12-11.2 7.2-6.4 12.3-11.6 11.7-12-.6-.3-119.1-.9-124.8-.6-.7.1-7.9 6.7-16 14.7-21.2 20.9-109 107.5-127.1 125.3-8.4 8.3-15.8 15.1-16.3 15.1-.6 0-.8-.4-.5-.9.3-.5.8-3 1.1-5.7.3-2.7.8-6 1-7.4.2-1.4.7-5.7 1.1-9.5.3-3.9.8-7.2.9-7.5.2-.3.6-3.7 1-7.5.3-3.9.8-7.7 1-8.5.2-.8.7-4.4 1.1-8 1-10.2 1.1-11 2.3-20.5 1.6-12.7 2-16 2.6-20.3.3-2 .7-6 1-8.7.2-2.8.7-6 .9-7.2.3-1.2.7-5 1-8.5.4-3.5.8-7.4 1-8.8.3-1.4.7-5 1.1-8 .3-3 .9-8.2 1.3-11.6l.8-6.1-34.1-.2c-18.7-.1-39.6-.3-46.3-.4-6.8-.1-12.9.1-13.5.5zm-228 82.3c-.1.2-3.8.5-8.2.9-13.2 1.1-20.2 2.1-27.3 4-2.9.8-5.5 1.5-5.7 1.5-.3.1-.6.1-.7.2-.2 0-1 .2-1.8.4-2.2.4-13 4.1-17 5.8-1.9.9-3.8 1.4-4.1 1.4-.4-.1-1.7.7-2.9 1.8s-2.4 1.9-2.6 1.7c-.4-.2-4.8 2-8.6 4.3-.9.5-4.1 2.4-7 4.1-2.9 1.8-6.3 4.1-7.5 5.3-1.2 1.2-2.5 2.1-2.8 2.1-1.7 0-21.8 19.8-28.5 28-2.5 3-4.8 5.6-5.2 5.8-.5.2-.8.8-.8 1.3 0 .8-2 3.6-8.4 12.2-2.2 3-14.3 27.8-16.4 33.7-1.1 3-2.3 6.4-2.8 7.5-.4 1.1-.9 2.9-1.1 4-.2 1.1-.8 3.6-1.3 5.6-5 18.5-6 46.8-2.4 70.9 1.4 9.9 7.8 33.7 9.5 35.4.5.6.9 2 .9 3.3 0 1.3.5 2.3 1 2.3.6 0 .9.3.9.7-.1.5 0 1.1.1 1.5.1.5.3 1.1.4 1.5.8 3.5 13.6 26.3 14.8 26.3.4 0 .8.5.8 1.1 0 4.1 33.5 39.1 35.5 37.1.3-.3.5-.1.5.5s2.6 2.8 5.8 4.9c3.1 2.1 5.9 4 6.2 4.3 1.2 1.4 20.4 11.4 27.5 14.2 8.3 3.4 20.3 7 28 8.4 1.1.2 2.9.6 4.1.9 5.8 1.3 23.6 2.8 31.7 2.6h8c6.5.2 28.4-2.9 35.3-5.1 1.7-.5 4-1.1 5.1-1.3 3.9-.8 17.9-6.1 24.8-9.4 20.5-9.9 39.4-24.5 54-41.6 2.8-3.2 5.5-6.4 6-7 4.8-5.3 24.2-38.1 23.5-39.8 0-.2 1.2-3.5 2.8-7.3 2.5-6.2 6.6-19.8 7.8-25.9.2-1.1.6-3.2.9-4.6.5-2.8 1.1-6.4 2.3-15.8 1-7.4.8-36.1-.3-44.7-1.2-9.1-1.3-10-1.5-10-.1 0-.3-.9-.5-2-2.6-17.7-13.6-43.4-26.5-61.7-6.1-8.6-25.2-29-33-35.2-13.9-11-35.2-22.6-50.5-27.4-13.2-4.2-23.8-6.4-37.1-7.7-5.4-.6-25.3-1.3-25.7-1zm30.8 70c18.5 3.7 31.9 10.8 46.9 25 4.4 4.1 11.6 13 11.6 14.3 0 .6.4 1.2.8 1.4.5.1 2.5 3.7 4.5 7.8 4.7 9.7 7.2 17.7 8.2 25.5.2 1.6.7 4.8 1 7 .6 4.8.7 19.6 0 24.5-1.1 8.3-1.7 11.8-3.1 17-.8 3-1.8 6.2-2.1 7-.3.8-.7 2.1-.9 2.9-.8 3.8-9.8 20.6-15 27.8-8.3 11.4-19.8 23.3-27.3 28.3-1.3.8-3.3 2.2-4.5 3.1-6.1 4.7-22.8 11.4-33.1 13.4-11.1 2.2-28.7 2.5-39.5.8-8.9-1.4-25.4-6.6-28-8.8-.8-.7-2.4-1.5-3.5-1.9-3.8-1.1-17.9-13.5-23.6-20.6-9.5-11.9-16.1-27.6-17.8-42-1.7-15.1.5-35.8 4.9-46.5.5-1.1 1.2-3.1 1.5-4.5 1.7-6.5 12.2-27.8 17.5-35.5 3-4.3 14.7-16.6 20.2-21.2 4.7-3.8 16.2-11.3 17.5-11.3.7 0 1.3-.3 1.3-.8 0-.4 1.5-1.3 3.3-2.1 1.7-.7 4.9-2.2 7-3.2 2-1 3.7-1.6 3.7-1.3 0 .2.8 0 1.8-.5 3.1-1.6 17.1-5 23.6-5.7 3.3-.4 6.2-.7 6.3-.8.4-.3 14.1.4 16.8.9z"/><path d="M1776 742.1c-3 .4-7.8 1-10.7 1.4-4.2.5-13.7 2.8-28.3 6.9-14.3 4-40 17.5-55.3 29-17.7 13.3-32.8 31.2-42.4 50.1-7.1 13.9-13.8 34.8-15.8 49-.3 2.3-.8 5.2-1.1 6.5-2.8 13.6-2.2 52.1 1.1 66 .3 1.4.7 3.6.9 5 1.1 7.8 8.4 27.5 13.8 37.5 1.5 2.7 3.5 6.5 4.4 8.2.9 1.8 2 3.3 2.5 3.3s.9.5.9 1c0 .6 1.9 3.6 4.3 6.8 18.8 25.1 45.3 45.9 73.7 57.7 3.6 1.5 7 2.8 7.5 2.9.6.2 1.7.6 2.5.9 5.1 2 22.4 6.3 31 7.6 16.9 2.7 45.3 3 57.5.7 1.1-.2 4.2-.7 6.8-1 2.7-.4 5.7-.9 6.7-1.1.9-.2 3.3-.6 5.1-.9 6-.9 17.2-3.6 24.7-5.8 5.8-1.7 7.2-2.6 7.3-4.2.1-1.2.3-3 .4-4.1.1-1.1.6-5.4 1-9.5s.8-8.2 1-9c.2-.8.6-4.9 1-9 .3-4.1.8-8.6 1-10 .2-1.4.7-5.4 1.1-9 .3-3.6.7-7.6.9-9 .2-1.4.6-5.7.9-9.5.4-3.9.9-8.3 1.3-9.9l.5-2.9-3.3 2.3c-1.9 1.3-4.1 3.1-5 4-.9.9-4 3.1-7 5s-5.6 3.7-5.9 4c-.9 1.1-21.5 10.8-26 12.3-12.1 4-19 5.1-32.5 5-11.3 0-13.4-.3-22.3-3.2-3.5-1.2-6.8-1.9-7.2-1.6-.5.3-1.1.1-1.4-.4-.3-.5-2.3-1.2-4.3-1.7-4.2-.8-4.1-.8-6.5-1.7-2.1-.8-5.1-1.8-5.8-1.9-1.4-.3-16-8.5-19-10.7-19.6-14.5-32.5-37.7-36.8-66.1-.9-6-.9-29.2 0-35.5.9-5.8 1.6-10.4 2.1-12.5 3-12.6 5.8-20.2 10.4-29 2.5-4.7 4.9-8.7 5.4-8.8.5-.2.9-.9.9-1.6 0-2.2 13.8-15.4 21.4-20.5 7.6-5.2 23.5-13.1 26.1-13.1.9 0 2.5-.5 3.5-1 4.4-2.3 18.4-4.4 30-4.3 9.7 0 15.5.6 25.5 2.9 9 2 10 2.2 10 2.4 0 .1.8.3 1.8.6 5.9 1.4 10.4 3.3 21.4 9 13.7 7 27.6 17.7 35.6 27.4 2.5 3 3.4 1.7 4.1-6.5.4-3.9.9-8.6 1.1-10.5.3-1.9.7-6 1-9 .3-3 .7-7.1.9-9 .8-6.5 2.6-21.9 3.1-27.5.2-2.2.7-6.7 1-10.1l.6-6-12.3-6.1c-6.8-3.3-13.4-6.4-14.8-6.8-1.4-.4-2.9-1.1-3.5-1.5-.5-.4-4.1-1.7-8-2.9-3.8-1.2-7.7-2.5-8.5-2.8-.8-.3-2-.7-2.6-.8-.6-.2-4.9-1.2-9.5-2.3-8.2-2-9.8-2.3-18.9-3.7-2.5-.4-5.6-.9-7-1.2-4.4-.8-38.3-1-44-.2zM100.8 832.5c-.2.2-2.3.5-4.8.9-2.5.3-5.2.7-6 .9-14.9 3.6-31.3 10.1-59.2 23.6l-11.7 5.6v5.8c-.1 3.2.2 5.6.7 5.4 1.3-.8 12.7-5.9 12.9-5.8.2 0 4-1.6 8.5-3.5 4.6-2 9-3.7 9.8-3.9.8-.2 3.5-1.1 6-2 2.5-.9 5.3-1.8 6.3-2 1-.2 2.7-.7 3.7-1 4.3-1.4 7-1.7 14.8-1.9 4.5-.2 8.5.1 8.8.6.3.4.9.6 1.4.3.5-.3 2.4.1 4.2.8 1.8.8 3.5 1.4 3.8 1.5 1.4.2 5.1 1.7 11 4.4 13.1 6.1 17.6 8.3 20.5 10.3 1.7 1.1 3 1.8 3 1.7 0-.4 3.3.9 10 3.8 9.9 4.4 23.6 6.2 33.5 4.5 1.4-.2 4.1-.7 6-1 1.9-.4 5.3-1.1 7.5-1.7 2.2-.6 4.5-1.2 5-1.4 4-1 22.4-7.1 34-11.2 27.1-9.8 38.2-12.2 57.5-12.3 4.7-.1 10.5.2 13 .5s6.1.8 8.1 1.1c11.2 1.5 29.4 7.1 49.9 15.6 24.9 10.2 29.3 11.9 34.1 12.7 5 1 17.4.8 21.9-.2 1.4-.4 3.9-.9 5.5-1.2 11.5-2 39.6-10.7 70-21.7 9.7-3.5 11.4-4 20-5.4 4.8-.8 25.8-.9 30-.1 4.7.9 11.7 4.3 15.3 7.3 3.6 3 12.2 14.6 12.2 16.4 0 .7.4 1 .9.7.5-.4.8-8.6.6-19.2-.3-15.9-.6-18.9-2.1-20.5-.9-1-2.2-1.9-2.9-1.9-.6 0-1.6-.5-2.3-1.2-.6-.6-1.7-1.3-2.4-1.4-16.2-3.2-18.5-3.4-30.3-2-13.6 1.5-21.5 3.8-39 11.2-2.9 1.2-20.3 7.1-23.5 8-.8.2-4.6 1.3-8.5 2.4-3.8 1.1-7.9 2.2-9 2.5-1.1.3-5.5 1.3-9.7 2.4-8.9 2.2-15.6 3.3-21.3 3.4-4.4.1-13.4-1.2-15-2.1-.5-.4-1.7-.7-2.5-.9-.8-.1-2.3-.6-3.5-1.1-1.7-.9-4.7-2.1-18-7.7-21.5-9-41.9-15.8-51.5-17.1-1.4-.1-4.1-.6-6-.9-7-1.2-24.4-1.1-33.3.1-15 2.2-17.3 2.8-40 11-22.9 8.3-38.4 12.9-48.8 14.7-8.1 1.4-19.5 1.5-25.2.3-4.9-1.1-15.8-5.7-26.4-11.2-5.7-2.9-10.3-5-10.3-4.7 0 .3-.8 0-1.7-.8-4.5-3.7-19.9-9.3-29.5-10.7-3.2-.5-5.9-.8-6-.7zm-26 59c-.1.2-2 .6-4.1.9-5.6.9-23.7 7-36.7 12.4-12.4 5.2-11.7 4.4-10.8 11.9.2 2.2 1.1 2.8 3.3 2.3.6-.1 1.9-.4 3-.6C41.1 916 58 920 81.4 930.9c13.8 6.5 34.5 15 40.1 16.6 3.3 1 6.9 2.1 8.1 2.5 1.1.4 6.1.6 11 .5 13.4-.5 25.4-4.5 50.9-17 15.9-7.7 24-11.5 25.8-12 .4-.2.8-.3 1-.5.3-.2 2.6-.7 7.1-1.5 2.1-.4 4.8-.9 6-1.1 4.2-1 20-1.2 25.5-.3 3.1.5 7.2 1.1 9.1 1.4 10.7 1.7 38.6 11.3 59 20.2 33.4 14.7 41.7 16.1 61.5 10.9 3-.7 14.7-5.2 19.8-7.4 2.5-1.1 4.8-1.8 5.1-1.4.3.3.6 0 .6-.6 0-.7.4-1.2 1-1.2.5 0 5.8-2.3 11.7-5.1 26.1-12.4 31.3-14.8 38.4-17.2 4.1-1.4 9-2.8 10.9-3.2 6.6-1.2 21.5-1.4 26.5-.4 2.8.6 6 1.2 7.3 1.5 5.6 1.1 12.8 4 27.2 10.7 3.6 1.7 6.7 3.1 7 3.2.3 0 4.5 2 9.3 4.4 4.9 2.4 9.1 4.1 9.4 3.8.2-.3.9-2.5 1.5-4.9 1.4-6.4 1.8-7.9 3.3-16 .9-4.5-8.2-16.1-15.4-19.7-5.8-3-15.4-5.1-23.6-5.2-3.1-.1-17 1.1-18.4 1.5-.9.3-3.2.8-5.1 1.1-4.6.7-13.2 3.5-14.7 4.8-.7.5-1.3.7-1.3.3 0-.3-2.4.5-5.3 1.8-2.9 1.2-7.7 3.1-10.7 4-3 1-6.4 2.1-7.5 2.6-2.4 1-11.4 3.9-14.1 4.5-1 .2-5 1.4-8.9 2.5-3.8 1.2-7.7 2.3-8.5 2.4-.9.1-2.1.5-2.8 1-.6.4-1.2.5-1.2.2 0-.2-1.5 0-3.2.5-10.3 3.2-24.7 4.2-33.8 2.4-3.8-.8-13-4.1-20-7.3-5-2.2-19.4-7.9-31.5-12.4-8.3-3.1-21.3-6.8-25.5-7.3-1.4-.2-3.6-.6-5-.9-9.9-2.3-32.1-2.3-44 0-1.4.3-4.1.8-6 1.1-3.1.5-16.6 4.9-44.5 14.6-19.8 6.9-37 10.8-48.5 10.9-4.6.1-14.6-2-19-3.9-1.9-.8-4.4-1.9-5.5-2.3-1.1-.5-9.1-4.3-17.7-8.5-15.5-7.5-26-11.8-31.5-13.1-3.1-.7-16.9-1.4-17.5-.9z"/><path d="M464.5 947.6c-4.4 1.2-8.1 2.3-8.2 2.4-.2.2-.6.3-1 .5-1.7.4-5.1 1.9-10.8 4.5-11.9 5.5-22.1 10.3-29 13.5-3.8 1.8-10.6 4.7-15 6.4-4.4 1.8-8.9 3.6-10 4-13.8 6-29.9 7.8-40 4.4-1.1-.4-2.2-.8-2.5-.8-1.1-.3-5.2-1.9-18.5-7.2-7.7-3.1-20.1-8-27.5-10.8-7.4-2.9-14.4-5.6-15.5-6-1.1-.5-3.1-1-4.5-1.2-1.3-.2-2.9-.8-3.5-1.3-.6-.5-2.5-1.1-4.2-1.5-1.8-.3-4.4-1-5.9-1.5-1.5-.6-2.9-.8-3.2-.6-.2.3-1.3.1-2.2-.4-2.7-1.5-11.4-2.4-22.5-2.4-9-.1-12.9.3-21.8 1.9-4.5.9-13.7 4.5-21.6 8.7-4 2.1-8 3.8-8.7 3.8-.8 0-1.4.4-1.4 1 0 .5-.4 1-.9 1-.6 0-5 1.9-9.8 4.1-4.8 2.3-9.7 4.6-10.8 5.1-1.2.5-2.7 1-3.5 1.1-.8.2-1.9.5-2.5.8-1.5.9-10.5 3.7-14.5 4.6-7.8 1.6-20.2.7-29-2.2-4.7-1.5-8.9-3-9.5-3.4-.5-.4-2.9-1.3-5.2-2.1-2.4-.7-4.3-1.7-4.3-2.2 0-.4-.6-.8-1.3-.8-.7 0-7.1-2.6-14.2-5.8-12.9-5.8-16.1-7.2-18-7.8-.5-.2-4.8-1.7-9.5-3.3-9.6-3.3-20.1-5.4-22.2-4.4-.6.3.3 4.3 2.2 8.8.4 1.1 1.3 3.6 2 5.5 1.3 3.8 2.3 6.2 6.4 15.5 6.2 14.2 8.1 17.2 11.1 18.5 1.7.8 5.5 2.5 8.5 3.9s5.7 2.6 6 2.6c.3.1 2.7 1.1 5.4 2.3 2.7 1.2 5.4 2.2 6 2.2.7 0 1.6.4 2.1.9.6.4 4.8 1.9 9.5 3.1 9.6 2.5 21 2.4 28.8-.4 2.3-.8 4.4-1.5 4.7-1.6 1.9-.1 4.7-1.2 16.7-6.7 4.5-2.1 12.4-5.9 17.3-8.5 10.9-5.8 30.2-15.3 33-16.4 8.1-3 15.6-3.6 25.5-2.1 4.3.7 17.9 5.2 32.5 10.7 6.1 2.2 12.1 4.5 13.5 4.9 4.3 1.4 36.5 14.3 37.5 15.1 1.3 1 22 8 25.3 8.7 5.8 1.1 13 .9 18.6-.4 7-1.6 19.2-5.6 25.5-8.4 2.5-1.1 6.2-2.7 8.1-3.5 5.9-2.6 7.1-3.1 21.5-10 7.7-3.6 14.5-6.7 15-6.9.6-.1 3.7-1.4 6.9-2.9 5.2-2.4 11.6-4.4 19.8-6.2 8.3-1.8 23.7-.8 35.8 2.4 5.2 1.3 20.4 8 39 17l16.5 8 1.7-2.1c2.7-3.5 16.8-33.1 16.8-35.3 0-.4-3.4-2.1-24.5-11.9-7.1-3.3-22.4-9-27.3-10.1-1.5-.3-8.1-.7-14.7-.8-9.8-.2-13.5.2-20 2z"/><path d="M197.3 993.6c-5.5 1.5-23.6 12.1-29 17.1-.7.6-2.9 2.1-5 3.4-2.1 1.3-4 2.6-4.3 2.9-1.1 1.5-16 11-23 14.8-16.3 8.7-27.1 9.4-57.2 3.7-1.6-.3-2.8-.2-2.8.1 0 .4 1.7 2.8 3.7 5.3 2.1 2.5 4.5 5.5 5.3 6.5.8 1.1 5.6 6.1 10.5 11.3l9 9.3 7.5-3.8c4.1-2.1 11.7-6.4 16.9-9.5 5.2-3.1 9.6-5.7 9.8-5.7.2 0 1.9-1.1 3.7-2.5 1.8-1.4 3.8-2.5 4.4-2.5.6 0 1.2-.3 1.4-.8.5-1.1 5.4-3.9 16.7-9.4 9.6-4.7 11-5.1 17.5-5.1 7.8.1 11.2.7 16.2 2.8 1.9.8 3.4 1.1 3.4.8 0-.3.6-.1 1.3.4.6.6 2.6 1.3 4.2 1.7 3.1.8 34.9 16.3 49.5 24.2 8.8 4.8 28.1 14.7 29 14.9.3 0 2.1.8 4 1.8 7.8 3.7 20.8 7.9 26.2 8.4 7.5.7 12.9-.8 24.8-6.9 9.8-5 10.6-5.4 17.7-10.1 2.3-1.5 4.4-2.7 4.6-2.7.2 0 5.1-3.1 10.8-6.8 9.2-6 24-14.3 25.4-14.3.2 0 2.5-.8 5-1.9 12.3-5.3 26.2-7.3 39-5.8 9.1 1 11.5 1.6 17.5 3.9 3 1.1 6.6 2.4 8 2.9 2.4.7 19.3 8.5 25.1 11.6 3.1 1.6 3.4 1.4 10.2-7 1.8-2.1 4.7-5.5 6.4-7.5 1.8-2 3.3-4.1 3.3-4.8 0-.6.4-1.3.8-1.5 1.1-.4 8.6-10.8 8.1-11.2-1.1-.8-14.1-6.6-14.8-6.6-.5 0-1.4-.7-2.1-1.5-.7-.9-1.5-1.4-1.7-1.1-.3.2-3-.7-6.1-2.1-22.2-9.9-40.3-11.1-61.3-4.3-9.7 3.2-26.3 11.1-33.2 15.8-6.6 4.6-24.1 15.2-28.7 17.4-1.4.7-2.7 1.5-3 1.8-1 1-12.4 6.3-17.8 8.1-8.7 3-16.8 2.2-28.7-3-4.4-1.9-32-15.5-32.5-16-.3-.4-5.2-3-11-6-26.8-13.7-41.5-21.2-42-21.2-.3-.1-2.1-.8-4-1.6-3.3-1.4-16.3-6.2-18.5-6.7-1-.3-8.9-1.5-13-2-1.1-.2-4.3.3-7.2 1z"/><path d="M173.8 1050.6c-.2.1-1.5.5-3 .8-5.4.9-15.2 6.9-30.8 18.5-8.8 6.7-16.5 12.1-17 12.1-2.2 0-.7 1.8 4.6 5.5 3.1 2.2 6.1 4.5 6.7 5 4.9 4.3 28.2 18.1 40.7 24.2 9 4.4 26 11.3 26 10.6 0-.3.6-.1 1.3.4 1.7 1.5 18.6 6.6 28.7 8.8 10.1 2.2 16.3 3.5 20 4 2.5.3 5.6.8 7 1 6.2 1.1 14.3 1.7 24.6 2 6.2.1 11.7.6 12.3.9.6.4 1.1.4 1.1-.1 0-.4 3.5-.8 7.8-.9 7.6 0 22.3-1 27.2-1.9 1.4-.2 4.2-.6 6.4-1 5.8-.8 22.9-4.4 26.7-5.6 1.9-.6 4.5-1.2 5.9-1.5 3.9-.8 23-7.4 28.8-10 2.9-1.3 5.5-2.4 5.8-2.4 1.4 0 25.4-12.6 33.5-17.6 8.4-5.2 22.6-14.9 23.9-16.4.3-.3 2.5-2.1 5-4s6.3-5.1 8.4-7.2c3.6-3.4 3.8-3.8 2-4.4-1-.4-4.8-1.9-8.4-3.4-8.1-3.5-15-5.8-19.2-6.5-1.8-.3-4.6-.8-6.3-1.1-5.5-1.1-16.8-.6-25.5 1-3.9.7-14 4-18.5 6.1-2.7 1.2-6.5 2.9-8.2 3.6-1.8.8-3.3 1.7-3.3 2.1 0 .5-.6.8-1.4.8-.7 0-9.8 5.3-20.2 11.9-19.7 12.3-37.4 21.6-43.4 22.6-6.2 1.2-10.4.7-16.7-1.9-10.5-4.4-32.4-15.4-33.5-17.1-.4-.5-.8-.6-.8-.1s-.7.3-1.5-.4c-2-1.6-12.6-7.3-34.7-18.4-21.7-10.9-39.5-18-48.5-19.2-5.2-.7-13.2-1.2-13.5-.8z"/></svg>