<svg viewBox="0 0 16 16" fill="none" xmlns="http://www.w3.org/2000/svg"><path fill="currentColor" d="M13.047 5L2.482 15.595a1.16 1.16 0 01-.849.357c-.327 0-.61-.119-.848-.357a1.16 1.16 0 01-.357-.849c0-.327.12-.61.357-.847L11.381 3.333H2.333c-.337 0-.62-.114-.849-.341a1.155 1.155 0 01-.341-.85c0-.336.113-.62.341-.848.229-.228.512-.342.849-.342h11.905c.337 0 .62.114.847.342.229.229.343.512.343.849v11.905c0 .337-.114.62-.343.847-.227.229-.51.343-.847.343-.338 0-.62-.114-.848-.343a1.149 1.149 0 01-.343-.847V5z"/></svg>