<svg width="94" height="52" fill="none" xmlns="http://www.w3.org/2000/svg"><path d="M67.99 32.573l-1.37-.518c.324-.477.587-.993.78-1.535v-.068a4.564 4.564 0 00-1.205-4.956 4.613 4.613 0 00-1.536-.931l-11.751-4.29a1.469 1.469 0 00-1.576.381 1.45 1.45 0 00.575 2.347l11.723 4.284a1.702 1.702 0 01.96.886c.19.408.213.873.062 1.296v.069c-.473 1.275-.96 1.412-1.269 1.364l-10.01-3.663-1.432-.532-5.121-1.876a1.467 1.467 0 00-1.576.382 1.45 1.45 0 00-.248 1.595 1.454 1.454 0 00.823.751l6.478 2.367 9.887 3.643c.068 0 .137 0 .205.054l4.635 1.699a1.694 1.694 0 01.966.887 1.711 1.711 0 010 1.364 1.577 1.577 0 01-1.076.737 3.307 3.307 0 01-1.913 0l-20.224-7.45a1.466 1.466 0 00-1.117.048 1.445 1.445 0 00-.708 1.93c.164.349.46.62.824.751l4.84 1.767 12.813 4.686a.61.61 0 01.446.403 1.133 1.133 0 01-.384.955c-.912.777-4.052 1.01-5.313.545l-3.62-1.364a3.315 3.315 0 00-.624-.307l-9.598-3.506a1.466 1.466 0 00-1.872.866 1.449 1.449 0 00.871 1.863l2.838 1.036 6.794 2.565a1.36 1.36 0 01-.335.826 8.253 8.253 0 01-2.25.777 5.51 5.51 0 00-1.974-2.476l-.13-.102-.15-.11a4.39 4.39 0 00-2.297-.681 4.082 4.082 0 00-1.605.334 5.264 5.264 0 00-1.981-2.517l-.123-.103a4.126 4.126 0 00-3.819-.546 5.565 5.565 0 00-1.906-2.298l-.13-.102-.151-.11a4.39 4.39 0 00-2.29-.682 4.326 4.326 0 00-1.049.137c-.09-1.57-1.063-2.551-2.139-3.41l-.13-.103-.151-.11a4.417 4.417 0 00-2.297-.681 4.881 4.881 0 00-3.53 1.732 29.834 29.834 0 00-4.45-2.34c.041-.116.09-.232.13-.354l.61-1.644c.748-2.047 1.7-4.618 2.599-7.047l1.776-4.774a2.48 2.48 0 01.089-.24v-.081c.171-.47.329-.894.466-1.248l.061-.164.103-.273c2.057.055 6.856.13 11.237-.095a1.45 1.45 0 001.013-.446 1.435 1.435 0 00-.049-2.036 1.451 1.451 0 00-1.032-.397h-.076c-3.723.191-7.713.157-10.037.116l.39-1.064a3.802 3.802 0 00-.11-2.918 3.832 3.832 0 00-2.151-1.987l-9.9-3.642A3.726 3.726 0 0011.869 2a3.873 3.873 0 00-2.178.675 3.844 3.844 0 00-1.415 1.78L.241 26.08a3.79 3.79 0 00.99 4.128c.371.34.806.604 1.28.777l9.892 3.642a3.87 3.87 0 001.33.239 3.855 3.855 0 003.154-1.678 27.672 27.672 0 013.983 2.046 3.49 3.49 0 00-.329 1.835 4.508 4.508 0 001.988 3.117 5.628 5.628 0 003.566 1.583h.301a4.81 4.81 0 001.9 2.606 5.586 5.586 0 003.557 1.582c.302-.003.602-.047.892-.13a7.56 7.56 0 002.17 2.05 7.599 7.599 0 002.8 1.054c.23 0 .46-.023.686-.068a3.15 3.15 0 00.384-.109 7.468 7.468 0 002.196 2.156A7.51 7.51 0 0043.865 52a3.791 3.791 0 001.911-.561 3.766 3.766 0 001.359-1.451 11.5 11.5 0 001.083-2.32 10.91 10.91 0 004.059-1.364l.178-.123a4.199 4.199 0 001.31-2.046l1.37.525a9.062 9.062 0 002.915.423c1.974 0 4.195-.47 5.402-1.575l.062-.062a4.263 4.263 0 001.186-2.271 6.51 6.51 0 003.003-.13 4.347 4.347 0 001.82-.922 4.32 4.32 0 001.196-1.65 4.57 4.57 0 00-.147-3.508 4.605 4.605 0 00-2.595-2.378l.013-.014zm-54.263-.593a1.04 1.04 0 01-.33-.055l-9.851-3.643a.951.951 0 01-.528-.49.923.923 0 010-.683L11.053 5.5a.943.943 0 011.213-.552l9.832 3.601a.934.934 0 01.615.84.924.924 0 01-.06.361l-8.035 21.623a.936.936 0 01-.878.608h-.013zm10.667 6.036l-.089-.068a2.048 2.048 0 01-.877-1.105.68.68 0 01.089-.41c.089-.1.165-.213.226-.333.078-.153.165-.301.26-.444.453-.682 1.248-1.603 2.016-1.603a1.5 1.5 0 01.686.219l.055.04c1.144.915 1.665 1.365.04 4.093l-.034.062a.902.902 0 01-.685.484 2.828 2.828 0 01-1.673-.935h-.014zm5.766 4.161l-.09-.075a2.048 2.048 0 01-.89-1.098.68.68 0 01.096-.41c.089-.1.165-.213.226-.333.315-.648 1.323-2.047 2.29-2.047.243.014.479.09.685.218l.055.041c.87.683 1.371 1.099.878 2.442-.075.12-.13.252-.165.39-.205.43-.434.849-.685 1.254v.062a.902.902 0 01-.72.484 2.822 2.822 0 01-1.666-.928h-.014zm7.706 3.889c-.411.081-1.083-.246-1.824-.894l-.082-.068a2.09 2.09 0 01-.877-1.085l.047-.075a14.54 14.54 0 00.81-1.59c1.2-1.568 2.056-1.207 2.433-.981l.055.04c1.015.819 1.371 1.092.823 2.531a9.955 9.955 0 01-.768 1.548.614.614 0 00-.048.096 1.055 1.055 0 01-.57.477zm6.74 2.598a.902.902 0 01-.686.485 2.863 2.863 0 01-1.694-.907l-.089-.069c-.416-.25-.73-.64-.884-1.098a.679.679 0 01.089-.41 1.8 1.8 0 00.226-.334c.316-.682 1.33-2.046 2.29-2.046.244.01.48.086.686.218l.054.041c.638.505 1.084.867 1.07 1.549-.01.097-.01.196 0 .293a7.216 7.216 0 01-.994 2.237l-.069.041z" fill="#42474D"/><path d="M93.762 24.259L85.7 2.512a3.837 3.837 0 00-2-2.16A3.851 3.851 0 0080.754.24l-9.926 3.665a3.849 3.849 0 00-2.162 1.998 3.836 3.836 0 00-.114 2.938l.433 1.167c-3.123.206-9.465.453-13.84-.487-.268-.145-.963-.584-1.582-.975-3.997-2.52-6.143-3.687-7.512-3.652a3.77 3.77 0 01-.509-.041c-2.497-.316-4.258.604-8.123 6.864a1.596 1.596 0 00-.18.453c-.646 2.911.138 4.977.895 6.975a20.368 20.368 0 011.1 3.597 1.453 1.453 0 00.874 1.078 6.527 6.527 0 005.455-.687 4.891 4.891 0 002.208-4.119v-.357l2.022 1.373a1.454 1.454 0 002.246-1.467 1.447 1.447 0 00-.608-.928l-4.582-3.117a1.451 1.451 0 00-2.27 1.137c-.012.269.05.536.18.771.13.836.168 1.683.11 2.527a1.953 1.953 0 01-.895 1.75 3.858 3.858 0 01-2.064.522 25.26 25.26 0 00-1.024-3.124c-.688-1.812-1.197-3.144-.826-5.086 3.44-5.492 4.43-5.368 5.16-5.28.309.048.622.068.935.063.928.082 4.533 2.354 5.888 3.205 1.582.996 1.967 1.23 2.38 1.325 5.228 1.167 12.787.742 15.635.522l.688 1.805c.034.11.076.22.11.31l2.428 6.59 2.655 7.214a28.616 28.616 0 00-4.32 2.581 1.449 1.449 0 00.785 2.65c.295 0 .584-.09.825-.26a25.41 25.41 0 013.825-2.307 3.824 3.824 0 004.505 1.441l9.926-3.68a3.849 3.849 0 002.162-1.997 3.837 3.837 0 00.115-2.938zm-3.281 2.19l-9.926 3.693a.958.958 0 01-1.21-.556l-8.07-21.754a.939.939 0 01.558-1.208l9.933-3.666a.875.875 0 01.323-.062.95.95 0 01.887.618l8.062 21.747a.945.945 0 01-.557 1.188z" fill="#42474D"/></svg>