<svg viewBox="0 0 33 28" fill="none" xmlns="http://www.w3.org/2000/svg"><path d="M16.5 20.08l-4.605 2.752a1.014 1.014 0 01-.638.165 1.078 1.078 0 01-.583-.22 1.322 1.322 0 01-.388-.482.956.956 0 01-.056-.647l1.221-5.2-4.078-3.495a1.05 1.05 0 01-.346-.565 1.082 1.082 0 01.041-.619 1.18 1.18 0 01.333-.495c.148-.128.351-.21.61-.248l5.382-.467 2.08-4.899a.99.99 0 01.43-.495A1.2 1.2 0 0116.5 5c.203 0 .402.055.597.165.194.11.337.275.43.495l2.08 4.899 5.381.467c.26.037.463.12.61.248.149.128.26.294.334.495a1.057 1.057 0 01-.305 1.183l-4.078 3.495 1.22 5.201a.956.956 0 01-.055.647 1.322 1.322 0 01-.389.481c-.166.129-.36.202-.582.22a1.014 1.014 0 01-.638-.165L16.5 20.08z" fill="#42474D"/></svg>