<svg xmlns="http://www.w3.org/2000/svg" xmlns:xlink="http://www.w3.org/1999/xlink"><defs><clipPath id="clip0_451_1436"><path fill="#fff" transform="translate(5 4)" d="M0 0h21v21H0z"/></clipPath><clipPath id="clip0_451_1425"><path fill="#fff" transform="translate(4 2)" d="M0 0h25v25H0z"/></clipPath></defs><symbol id="arrow-down"><g fill="none"><path fill-rule="evenodd" clip-rule="evenodd" d="M.226 1.04a.8.8 0 011.022 0l5.257 4.586 5.28-4.585a.8.8 0 011.022 0 .573.573 0 01-.002.889L7.013 6.96a.8.8 0 01-1.022 0L.224 1.93a.573.573 0 01.002-.89z" fill="#42474D"/></g></symbol><symbol id="arrow-li" viewBox="0 0 16 16"><g fill="none"><path fill="currentColor" d="M13.047 5L2.482 15.595a1.16 1.16 0 01-.849.357c-.327 0-.61-.119-.848-.357a1.16 1.16 0 01-.357-.849c0-.327.12-.61.357-.847L11.381 3.333H2.333c-.337 0-.62-.114-.849-.341a1.155 1.155 0 01-.341-.85c0-.336.113-.62.341-.848.229-.228.512-.342.849-.342h11.905c.337 0 .62.114.847.342.229.229.343.512.343.849v11.905c0 .337-.114.62-.343.847-.227.229-.51.343-.847.343-.338 0-.62-.114-.848-.343a1.149 1.149 0 01-.343-.847V5z"/></g></symbol><symbol id="arrow-slide"><g fill="none"><path fill-rule="evenodd" clip-rule="evenodd" d="M17.473 1.617c.703.826.703 2.163 0 2.986L4.346 19.967l13.127 15.428c.703.826.703 2.163 0 2.985-.703.823-1.843.82-2.546-.006L.527 21.451c-.703-.826-.703-2.163 0-2.986l14.4-16.854c.703-.823 1.843-.82 2.546.006z" fill="#fff"/></g></symbol><symbol id="arrow" viewBox="0 0 34 8"><g fill="none"><path fill="currentColor" d="M33.354 4.354a.5.5 0 000-.708L30.172.464a.5.5 0 10-.707.708L32.293 4l-2.828 2.828a.5.5 0 10.707.708l3.182-3.182zM0 4.5h33v-1H0v1z"/></g></symbol><symbol id="barbell" viewBox="0 0 49 36"><g fill="none"><rect x=".836" y="12.836" width="4.329" height="9.329" rx="2.164" fill="#42474D" stroke="#42474D" stroke-width="1.671"/><rect x="4.836" y="3.836" width="5.329" height="27.329" rx="2.664" stroke="#42474D" stroke-width="1.671"/><rect x="10.836" y=".836" width="5.329" height="34.329" rx="2.664" stroke="#42474D" stroke-width="1.671"/><rect x="-.836" y=".836" width="4.329" height="9.329" rx="2.164" transform="matrix(-1 0 0 1 47.329 12)" fill="#42474D" stroke="#42474D" stroke-width="1.671"/><rect x="-.836" y=".836" width="5.329" height="27.329" rx="2.664" transform="matrix(-1 0 0 1 43.329 3)" stroke="#42474D" stroke-width="1.671"/><rect x="-.836" y=".836" width="5.329" height="34.329" rx="2.664" transform="matrix(-1 0 0 1 37.329 0)" stroke="#42474D" stroke-width="1.671"/><path stroke="#42474D" stroke-width="1.671" d="M15.836 12.836h16.329v9.329H15.836zM32 18h-9"/><path fill="#000" stroke="#42474D" d="M20.5 17.5h1v1h-1z"/></g></symbol><symbol id="btn-close" viewBox="0 0 26 26"><g fill="none"><circle cx="13" cy="13" r="13" fill="#FFFEDA"/><path d="M17.023 8.979l-8.044 8.043M8.979 8.979l8.043 8.043" stroke="#42474D" stroke-linecap="round"/></g></symbol><symbol id="city" viewBox="0 0 15 18"><path fill="currentColor" d="M7.519 9c.481 0 .893-.171 1.236-.514.343-.343.514-.755.514-1.236s-.171-.893-.514-1.236A1.687 1.687 0 007.52 5.5c-.481 0-.893.171-1.235.514a1.686 1.686 0 00-.515 1.236c0 .481.172.893.515 1.236.342.342.754.514 1.235.514zm0 8.75c-2.348-1.998-4.101-3.854-5.26-5.568C1.099 10.47.519 8.883.519 7.425c0-2.188.704-3.93 2.111-5.228C4.037.899 5.667.25 7.52.25c1.852 0 3.482.649 4.889 1.947s2.111 3.04 2.111 5.228c0 1.458-.58 3.044-1.739 4.757-1.16 1.714-2.913 3.57-5.261 5.568z"/></symbol><symbol id="fh"><g fill="none"><path d="M0 4.105l3.902-2.043C6.05.94 8.028.012 8.3 0c.272-.01 2.291.908 4.487 2.042l3.993 2.063-4.195.111c-2.307.062-6.083.062-8.39 0L0 4.105zM.195 14.515V5.087H17l-.11 4.616-.11 4.615-3.61.113-3.61.113v-3.958h2.147c1.648 0 2.146-.136 2.146-.589 0-.493-.823-.59-5.073-.59-4.249 0-5.073.097-5.073.59 0 .445.477.59 1.951.59H7.61v3.928H.195zM.195 24.728V15.3H7.61v4.322H5.658c-1.474 0-1.95.144-1.95.589 0 .493.823.589 5.072.589 4.25 0 5.074-.096 5.074-.59 0-.452-.5-.588-2.147-.588H9.561V15.3h7.414v9.427H.195zM4.452 28.052C2.286 26.98.432 25.97.332 25.808c-.101-.161 3.526-.294 8.058-.294 4.533 0 8.16.133 8.059.294-.1.162-1.954 1.172-4.12 2.244L8.39 30l-3.938-1.948z" fill="#42474D"/></g></symbol><symbol id="heart" viewBox="0 0 55 55"><g fill="none"><path d="M37.848 9C30.917 9 27.5 15.91 27.5 15.91S24.084 9 17.152 9C11.52 9 7.06 13.765 7.002 19.451c-.118 11.803 9.259 20.196 19.537 27.25a1.695 1.695 0 001.922 0c10.277-7.054 19.654-15.447 19.538-27.25C47.94 13.765 43.48 9 37.848 9v0z" stroke="#000" stroke-width="1.997" stroke-linecap="round" stroke-linejoin="round"/><path d="M5 27.2h12.115L22.308 17 27.5 34l5.192-10.2 3.462 6.8H50" stroke="#000" stroke-width="3.438" stroke-linecap="round" stroke-linejoin="round"/></g></symbol><symbol id="house" viewBox="0 0 49 45"><g fill="none"><path d="M36.58 37.261a12.409 12.409 0 004.838-.932l-4.853 7.2-4.822-7.296a12.396 12.396 0 004.836 1.028z" fill="#42474D" stroke="#42474D" stroke-width=".524"/><path d="M15 40h19M29 13.653L21.367 7 7 19.515V30M27 29.645V40H15V25h9.924" stroke="#42474D" stroke-width="1.571" stroke-linejoin="round"/><path d="M15 40v-3.944c0-.574-.223-1.125-.62-1.532a2.088 2.088 0 00-1.494-.635h-2.114a3.97 3.97 0 00-.287-1.489 3.893 3.893 0 00-.823-1.262 3.785 3.785 0 00-1.232-.843A3.71 3.71 0 006.977 30H4.61c-.958 0-1.876.39-2.553 1.084A3.747 3.747 0 001 33.7V40h14zM34 11.354L22.96 1.62C22.502 1.22 21.92 1 21.317 1c-.602 0-1.184.22-1.642.62l-7.329 6.457V3.264H7.422v9.16L1 18.074 4.285 22 21.32 7l7.84 6.884M27 29l9.588 15L46 29.571" stroke="#42474D" stroke-width="1.571" stroke-linejoin="round"/><path d="M36.5 34C42.851 34 48 28.851 48 22.5S42.851 11 36.5 11 25 16.149 25 22.5 30.149 34 36.5 34z" stroke="#42474D" stroke-width="1.571" stroke-linejoin="round"/><mask id="a" fill="#fff"><path d="M42 20z"/></mask><path d="M42 20z" fill="#70B9D6"/><path d="M42.152 21l-.52.058 1.04-.115-.52.057zm-.666-.9c.06.315.11.635.146.958l1.04-.116c-.039-.35-.092-.698-.158-1.041l-1.028.198zm1.186.843a12.71 12.71 0 00-.158-1.043l-1.028.2c.062.315.11.634.145.957l1.041-.114z" fill="#42474D" mask="url(#a)"/><mask id="b" fill="#fff"><path d="M43 21z"/></mask><path d="M43 21z" fill="#70B9D6"/><path d="M42.48 21.052c.03.315.047.633.049.95l1.047-.004c-.002-.351-.02-.702-.055-1.05l-1.042.104zm1.096.946c-.002-.351-.02-.702-.055-1.05l-1.042.104c.032.315.048.633.05.95l1.047-.004z" fill="#42474D" mask="url(#b)"/><mask id="c" fill="#fff"><path d="M30 21z"/></mask><path d="M30 21z" fill="#70B9D6"/><path d="M30 21l-.52-.053 1.04.107L30 21zm.152-1l.513.103-1.026-.207.513.104zm.369 1.054c.033-.321.081-.639.144-.95l-1.026-.207c-.07.345-.123.695-.16 1.049l1.042.108zm-.882-1.158c-.07.345-.124.696-.16 1.05l1.042.107c.033-.32.08-.637.144-.949l-1.026-.208z" fill="#42474D" mask="url(#c)"/><mask id="d" fill="#fff"><path d="M30 22z"/></mask><path d="M30 22z" fill="#70B9D6"/><path d="M30.524 22c0-.314.018-.629.054-.94l-1.04-.12c-.04.351-.061.705-.062 1.06h1.048zm-.987-1.06c-.04.351-.06.705-.06 1.06h1.047c0-.314.018-.629.054-.94l-1.04-.12z" fill="#42474D" mask="url(#d)"/><path d="M42.337 22.177c.196-3.585-2.327-6.64-5.636-6.824-3.308-.184-6.15 2.572-6.346 6.157-.196 3.584 2.327 6.64 5.636 6.824 3.308.184 6.15-2.573 6.346-6.157z" stroke="#42474D" stroke-width="1.571" stroke-linejoin="round"/></g></symbol><symbol id="job"><g fill="none"><path d="M67.99 32.573l-1.37-.518c.324-.477.587-.993.78-1.535v-.068a4.564 4.564 0 00-1.205-4.956 4.613 4.613 0 00-1.536-.931l-11.751-4.29a1.469 1.469 0 00-1.576.381 1.45 1.45 0 00.575 2.347l11.723 4.284a1.702 1.702 0 01.96.886c.19.408.213.873.062 1.296v.069c-.473 1.275-.96 1.412-1.269 1.364l-10.01-3.663-1.432-.532-5.121-1.876a1.467 1.467 0 00-1.576.382 1.45 1.45 0 00-.248 1.595 1.454 1.454 0 00.823.751l6.478 2.367 9.887 3.643c.068 0 .137 0 .205.054l4.635 1.699a1.694 1.694 0 01.966.887 1.711 1.711 0 010 1.364 1.577 1.577 0 01-1.076.737 3.307 3.307 0 01-1.913 0l-20.224-7.45a1.466 1.466 0 00-1.117.048 1.445 1.445 0 00-.708 1.93c.164.349.46.62.824.751l4.84 1.767 12.813 4.686a.61.61 0 01.446.403 1.133 1.133 0 01-.384.955c-.912.777-4.052 1.01-5.313.545l-3.62-1.364a3.315 3.315 0 00-.624-.307l-9.598-3.506a1.466 1.466 0 00-1.872.866c-.132.362-.115.762.048 1.11.163.35.46.62.823.753l2.838 1.036 6.794 2.565a1.36 1.36 0 01-.335.826 8.253 8.253 0 01-2.25.777 5.51 5.51 0 00-1.974-2.476l-.13-.102-.15-.11a4.39 4.39 0 00-2.297-.681 4.082 4.082 0 00-1.605.334 5.264 5.264 0 00-1.981-2.517l-.123-.103a4.126 4.126 0 00-3.819-.546 5.565 5.565 0 00-1.906-2.298l-.13-.102-.151-.11a4.39 4.39 0 00-2.29-.682 4.326 4.326 0 00-1.049.137c-.09-1.57-1.063-2.551-2.139-3.41l-.13-.103-.151-.11a4.417 4.417 0 00-2.297-.681 4.881 4.881 0 00-3.53 1.732 29.834 29.834 0 00-4.45-2.34c.041-.116.09-.232.13-.354l.61-1.644c.748-2.047 1.7-4.618 2.599-7.047l1.776-4.774a2.48 2.48 0 01.089-.24v-.081c.171-.47.329-.894.466-1.248l.061-.164.103-.273c2.057.055 6.856.13 11.237-.095a1.45 1.45 0 001.013-.446 1.435 1.435 0 00-.049-2.036 1.451 1.451 0 00-1.032-.397h-.076c-3.723.191-7.713.157-10.037.116l.39-1.064a3.802 3.802 0 00-.11-2.918 3.832 3.832 0 00-2.151-1.987l-9.9-3.642A3.726 3.726 0 0011.869 2a3.873 3.873 0 00-2.178.675 3.844 3.844 0 00-1.415 1.78L.241 26.08a3.79 3.79 0 00.99 4.128c.371.34.806.604 1.28.777l9.892 3.642c.426.157.876.238 1.33.239a3.855 3.855 0 003.154-1.678 27.672 27.672 0 013.983 2.046 3.49 3.49 0 00-.329 1.835 4.508 4.508 0 001.988 3.117 5.628 5.628 0 003.566 1.583h.301a4.81 4.81 0 001.9 2.606 5.586 5.586 0 003.557 1.582c.302-.003.602-.047.892-.13a7.56 7.56 0 002.17 2.05 7.599 7.599 0 002.8 1.054c.23 0 .46-.023.686-.068a3.15 3.15 0 00.384-.109 7.468 7.468 0 002.196 2.156A7.51 7.51 0 0043.865 52a3.791 3.791 0 001.911-.561 3.766 3.766 0 001.359-1.451c.446-.731.81-1.509 1.083-2.32 1.43-.182 2.81-.646 4.059-1.364l.178-.123a4.199 4.199 0 001.31-2.046l1.37.525a9.062 9.062 0 002.915.423c1.974 0 4.195-.47 5.402-1.575l.062-.062a4.263 4.263 0 001.186-2.271 6.51 6.51 0 003.003-.13 4.347 4.347 0 001.82-.922 4.32 4.32 0 001.196-1.65 4.57 4.57 0 00-.147-3.508 4.605 4.605 0 00-2.595-2.378l.013-.014zm-54.263-.593a1.04 1.04 0 01-.33-.055l-9.851-3.643a.951.951 0 01-.528-.49.923.923 0 010-.683L11.053 5.5a.943.943 0 011.213-.552l9.832 3.601a.934.934 0 01.615.84.924.924 0 01-.06.361l-8.035 21.623a.936.936 0 01-.878.608h-.013zm10.667 6.036l-.089-.068a2.048 2.048 0 01-.877-1.105.68.68 0 01.089-.41c.089-.1.165-.213.226-.333.078-.153.165-.301.26-.444.453-.682 1.248-1.603 2.016-1.603a1.5 1.5 0 01.686.219l.055.04c1.144.915 1.665 1.365.04 4.093l-.034.062a.902.902 0 01-.685.484 2.828 2.828 0 01-1.673-.935h-.014zm5.766 4.161l-.09-.075a2.048 2.048 0 01-.89-1.098.68.68 0 01.096-.41c.089-.1.165-.213.226-.333.315-.648 1.323-2.047 2.29-2.047.243.014.479.09.685.218l.055.041c.87.683 1.371 1.099.878 2.442-.075.12-.13.252-.165.39-.205.43-.434.849-.685 1.254v.062a.902.902 0 01-.72.484 2.822 2.822 0 01-1.666-.928h-.014zm7.706 3.889c-.411.081-1.083-.246-1.824-.894l-.082-.068a2.09 2.09 0 01-.877-1.085l.047-.075a14.54 14.54 0 00.81-1.59c1.2-1.568 2.056-1.207 2.433-.981l.055.04c1.015.819 1.371 1.092.823 2.531-.21.537-.468 1.055-.768 1.548a.614.614 0 00-.048.096 1.055 1.055 0 01-.57.477zm6.74 2.598a.902.902 0 01-.686.485 2.863 2.863 0 01-1.694-.907l-.089-.069c-.416-.25-.73-.64-.884-1.098a.679.679 0 01.089-.41 1.8 1.8 0 00.226-.334c.316-.682 1.33-2.046 2.29-2.046.244.01.48.086.686.218l.054.041c.638.505 1.084.867 1.07 1.549-.01.097-.01.196 0 .293a7.216 7.216 0 01-.994 2.237l-.069.041z" fill="#42474D"/><path d="M93.762 24.259L85.7 2.512a3.837 3.837 0 00-2-2.16A3.851 3.851 0 0080.754.24l-9.926 3.665a3.849 3.849 0 00-2.162 1.998 3.836 3.836 0 00-.114 2.938l.433 1.167c-3.123.206-9.465.453-13.84-.487-.268-.145-.963-.584-1.582-.975-3.997-2.52-6.143-3.687-7.512-3.652a3.77 3.77 0 01-.509-.041c-2.497-.316-4.258.604-8.123 6.864a1.596 1.596 0 00-.18.453c-.646 2.911.138 4.977.895 6.975a20.368 20.368 0 011.1 3.597 1.453 1.453 0 00.874 1.078 6.527 6.527 0 005.455-.687 4.891 4.891 0 002.208-4.119v-.357l2.022 1.373a1.454 1.454 0 002.246-1.467 1.447 1.447 0 00-.608-.928l-4.582-3.117a1.451 1.451 0 00-2.27 1.137c-.012.269.05.536.18.771.13.836.168 1.683.11 2.527a1.953 1.953 0 01-.895 1.75 3.858 3.858 0 01-2.064.522 25.26 25.26 0 00-1.024-3.124c-.688-1.812-1.197-3.144-.826-5.086 3.44-5.492 4.43-5.368 5.16-5.28.309.048.622.068.935.063.928.082 4.533 2.354 5.888 3.205 1.582.996 1.967 1.23 2.38 1.325 5.228 1.167 12.787.742 15.635.522l.688 1.805c.034.11.076.22.11.31l2.428 6.59 2.655 7.214a28.616 28.616 0 00-4.32 2.581 1.449 1.449 0 00.785 2.65c.295 0 .584-.09.825-.26a25.41 25.41 0 013.825-2.307 3.824 3.824 0 004.505 1.441l9.926-3.68a3.849 3.849 0 002.162-1.997 3.837 3.837 0 00.115-2.938zm-3.281 2.19l-9.926 3.693a.958.958 0 01-1.21-.556l-8.07-21.754a.939.939 0 01.558-1.208l9.933-3.666a.875.875 0 01.323-.062.95.95 0 01.887.618l8.062 21.747a.945.945 0 01-.557 1.188z" fill="#42474D"/></g></symbol><symbol id="logo"><g fill="none"><path fill-rule="evenodd" clip-rule="evenodd" d="M66.837 1.512L64.011 3.01l3.038.082c1.67.045 4.405.045 6.076 0l3.038-.082-2.892-1.512C71.681.666 70.22-.008 70.021 0c-.197.008-1.63.689-3.184 1.512zm-2.685 5.675v3.457h5.37v-2.88h-1.413c-1.068 0-1.413-.106-1.413-.433 0-.362.596-.432 3.674-.432 3.077 0 3.673.07 3.673.432 0 .332-.36.432-1.554.432h-1.554v2.902l2.614-.082 2.614-.083.08-3.385.08-3.385H64.151v3.457zM45.8 5.697c-1.044.57-1.996 2.083-1.996 3.17 0 1.896 1.596 3.397 4.188 3.94 1.055.22 1.417.803.896 1.442-.517.635-1.957.514-3.317-.279l-1.201-.7v1.56c0 1.467.055 1.59.918 2.058 1.357.734 4.178.697 5.207-.069 1.139-.848 1.888-2.514 1.668-3.71-.28-1.525-1.14-2.389-2.93-2.941-2.046-.632-2.434-.91-2.006-1.435.458-.563 2.215-.486 3.442.152l1.048.545V6.097l-1.136-.463c-1.513-.617-3.587-.59-4.78.063zm9.102-.115c-1.78.82-2.555 3.24-1.626 5.072.489.962 1.442 1.537 3.368 2.032 1.506.386 1.934 1.005 1.125 1.623-.714.545-2.507.304-3.54-.474-.436-.33-.862-.598-.946-.598-.084 0-.153.628-.153 1.396 0 1.65.419 2.14 2.25 2.637 3.183.865 5.663-.777 5.663-3.75 0-2.03-.71-2.726-3.71-3.634-.821-.248-1.377-.584-1.377-.832 0-.91 2.748-.87 4.14.06l.665.444v-1.61c0-1.425-.087-1.67-.748-2.112-.996-.664-3.904-.809-5.11-.254zm38.076.216c-1.787.94-2.543 2.53-2.543 5.348 0 3.406 1.185 5.454 3.546 6.128 2.532.722 5.15-.314 6.204-2.457.44-.893.565-1.723.565-3.74 0-4.105-1.169-5.594-4.567-5.82-1.626-.108-2.135-.022-3.205.54zm21.878-.233c-.479.221-1.159.774-1.511 1.228-.535.69-.619 1.083-.514 2.387.151 1.872.816 2.591 3.092 3.341 1.979.653 2.402 1.052 1.784 1.683-.658.67-1.826.587-3.35-.239l-1.314-.712v1.514c0 1.367.08 1.563.825 2.01 3.056 1.841 7.084.123 7.087-3.023.003-2.094-.866-3.007-3.67-3.856-1.406-.425-1.838-1.043-.968-1.384.802-.313 1.932-.172 3.156.394l1.201.556V7.9c0-1.373-.091-1.625-.748-2.064-.978-.653-3.904-.81-5.07-.271zM0 11.365v5.905h2.826v-4.321h5.087V10.068H2.826V8.34h5.087V5.459H0v5.905zm9.043 0v5.905h3.109V5.459H9.043v5.905zm4.24-4.466v1.44h3.108V17.3l1.484-.087 1.484-.087.078-4.393.078-4.393h2.811V5.459h-9.043v1.44zm10.173 4.454v5.917h3.109l.013-3.817.012-3.817 1.585 3.829 1.585 3.829 1.864-.084 1.865-.084.077-5.834.076-5.833h-3.12l-.015 3.385-.016 3.385-1.223-3.313-1.224-3.313-2.294-.084-2.294-.084v5.918zm11.588.011v5.906h7.912V14.1h-2.402c-2.374 0-2.402-.008-2.402-.72s.028-.72 2.402-.72h2.402V9.78h-2.402c-2.374 0-2.402-.008-2.402-.72s.028-.72 2.402-.72h2.402V5.459h-7.912v5.905zm44.652 0v5.906h2.826V12.66h3.391v4.609h3.109V5.459h-3.109v4.32h-3.391V5.46h-2.826v5.905zm22.609-1.368c.001 3.989.068 4.648.552 5.458.863 1.442 1.852 1.95 3.808 1.955 2.19.006 3.384-.516 4.186-1.83.578-.947.647-1.474.738-5.583l.101-4.537h-3.168v3.889c0 3.505-.056 3.946-.565 4.465-.666.678-1.376.734-2.137.168-.489-.365-.559-.85-.646-4.466l-.098-4.056h-2.772l.001 4.537zm19.782 1.368v5.906H130V14.1h-2.563c-2.497 0-2.561-.017-2.473-.648.085-.608.243-.653 2.563-.732l2.473-.083V9.78h-2.543c-2.525 0-2.544-.005-2.544-.72 0-.714.019-.72 2.544-.72H130V5.46h-7.913v5.905zm-25.156-2.51c.68.562 1.065 2.614.738 3.94-.45 1.826-2.204 2.427-3.432 1.176-.584-.596-.694-.983-.694-2.462s.11-1.866.694-2.461c.82-.836 1.828-.907 2.694-.192zm-32.779 5.823v3.457h12.152V11.22h-5.369v3.169h1.554c1.193 0 1.554.1 1.554.432 0 .362-.596.432-3.673.432-3.078 0-3.674-.07-3.674-.432 0-.326.345-.432 1.413-.432h1.413V11.22h-5.37v3.457zm7.56 1.364c-.739.06-1.946.06-2.685 0-.738-.06-.134-.108 1.343-.108 1.476 0 2.08.049 1.342.108zm-7.461 2.885c.072.119 1.415.86 2.984 1.645L70.087 22l2.852-1.429c1.569-.786 2.912-1.526 2.984-1.645.073-.118-2.553-.216-5.836-.216-3.282 0-5.909.098-5.836.216z" fill="#42474D"/></g></symbol><symbol id="menu" viewBox="0 0 50 19"><g fill="currentColor"><rect y="15" width="50" height="3.333" rx="1.667"/><rect width="33.333" height="3.333" rx="1.667"/></g></symbol><symbol id="people" viewBox="0 0 53 29"><g fill="none"><circle cx="25.438" cy="6.854" r="6.131" stroke="#42474D" stroke-width="1.447"/><circle cx="10.261" cy="8.618" r="5.641" stroke="#42474D" stroke-width="1.447"/><path d="M5.381 27.417h10.27v-9.802c.253-1.363.64-2.052 1.733-2.927H4.75c-2.527 0-3.58 2.546-3.79 3.819v8.91h4.422zm0 0V21.69" stroke="#42474D" stroke-width="1.369"/><circle r="5.641" transform="matrix(-1 0 0 1 42.915 8.618)" stroke="#42474D" stroke-width="1.447"/><path d="M47.795 27.417h-10.27v-9.802c-.253-1.363-.64-2.052-1.733-2.927h12.634c2.527 0 3.58 2.546 3.79 3.819v8.91h-4.421zm0 0V21.69" stroke="#42474D" stroke-width="1.369"/><path d="M32.324 27.417h4.865v-9.596c0-2.742-2.317-3.884-3.475-4.112H19.816c-2.78 0-3.938 2.741-4.17 4.112v9.596h4.865m11.813 0v-6.169m0 6.17H20.511m0 0v-6.17" stroke="#42474D" stroke-width="1.447"/></g></symbol><symbol id="phone-footer"><g fill="none"><rect x=".5" y=".5" width="46" height="36" rx="5.5" stroke="#FFFEDA"/><path d="M26.855 7.958h-7.667a2.396 2.396 0 00-2.396 2.396v16.292a2.396 2.396 0 002.396 2.396h7.667a2.396 2.396 0 002.395-2.396V10.354a2.396 2.396 0 00-2.395-2.396zM23.02 28.083a1.436 1.436 0 01-1.437-1.437c0-.796.642-1.438 1.437-1.438.796 0 1.438.643 1.438 1.438 0 .795-.642 1.437-1.438 1.437zm4.313-3.833h-8.625V10.833h8.625V24.25z" fill="#FFFEDA"/></g></symbol><symbol id="phone" viewBox="0 0 14 22"><g fill="none"><path fill="currentColor" d="M10.854.458H3.187A2.396 2.396 0 00.792 2.854v16.292a2.396 2.396 0 002.395 2.396h7.667a2.396 2.396 0 002.396-2.396V2.854A2.396 2.396 0 0010.854.458zM7.021 20.583a1.436 1.436 0 01-1.438-1.437c0-.796.642-1.438 1.438-1.438.795 0 1.437.643 1.437 1.438 0 .795-.642 1.437-1.437 1.437zm4.312-3.833H2.708V3.333h8.625V16.75z"/></g></symbol><symbol id="sale" viewBox="0 0 22 22"><path fill="currentColor" d="M8.424 1.897a4 4 0 015.02-.136l.17.136.376.32a2 2 0 00.96.45l.178.022.493.04a4 4 0 013.648 3.468l.02.2.04.494c.03.358.154.702.36.996l.11.142.323.376a4 4 0 01.136 5.02l-.136.17-.321.376a2 2 0 00-.45.96l-.022.178-.04.493a4 4 0 01-3.467 3.648l-.201.021-.493.04a2 2 0 00-.996.36l-.142.111-.377.32a4 4 0 01-5.02.137l-.17-.136-.375-.321a2 2 0 00-.96-.45l-.178-.021-.493-.04a4 4 0 01-3.648-3.468l-.021-.2-.04-.494a2 2 0 00-.36-.996l-.111-.142-.321-.377a4 4 0 01-.136-5.02l.136-.169.32-.376a2 2 0 00.45-.96l.022-.178.04-.493A4 4 0 016.216 2.75l.2-.021.494-.04a2 2 0 00.996-.36l.142-.111.376-.32v-.001zM13.519 12a1.5 1.5 0 100 3 1.5 1.5 0 000-3zm-.207-4.707l-6 6a1 1 0 101.414 1.414l6-6a1 1 0 00-1.414-1.414zM8.519 7a1.5 1.5 0 100 3 1.5 1.5 0 000-3z"/></symbol><symbol id="schedule-2" viewBox="0 0 58 59"><g fill="none"><path d="M44.842 32.28a1.186 1.186 0 00-.83.34 1.15 1.15 0 00-.34.819v23.245H2.34V2.306h30.36v10.16c0 .306.123.6.342.816.22.216.517.337.827.337h3.647c.31 0 .608-.121.827-.337a1.145 1.145 0 000-1.63 1.178 1.178 0 00-.827-.338H35.02V4.026l5.126 5.261a1.173 1.173 0 00.82.358 1.187 1.187 0 00.837-.32 1.154 1.154 0 00.363-.808 1.14 1.14 0 00-.324-.825L34.7.355l-.127-.109-.061-.044a1.103 1.103 0 00-.15-.098 1.173 1.173 0 00-.51-.104H1.154C.846.006.553.13.338.345A1.15 1.15 0 000 1.153v56.683a1.144 1.144 0 00.34.82 1.176 1.176 0 00.83.344h43.672a1.184 1.184 0 00.823-.345 1.152 1.152 0 00.335-.819V33.44a1.144 1.144 0 00-.337-.815 1.177 1.177 0 00-.821-.343z" fill="#42474D"/><path d="M11.49 16a1.125 1.125 0 01-.683-.247l-2.373-1.828a1.112 1.112 0 01-.425-.736 1.103 1.103 0 01.552-1.102 1.12 1.12 0 011.237.084l1.56 1.203 3.7-4.013a1.12 1.12 0 011.94.699c.014.294-.09.58-.29.798l-4.394 4.764a1.132 1.132 0 01-.825.378zM58 15.3a1.135 1.135 0 00-.344-.808l-4.176-4.076-4.176-4.077A1.174 1.174 0 0048.47 6a1.196 1.196 0 00-.833.34l-23.64 23.113-.045.054-.089.098a1.087 1.087 0 00-.061.108.2.2 0 00-.039.065l-4.648 9.812-2.988 5.746a1.121 1.121 0 00.042 1.113c.103.167.248.305.422.401.174.097.37.148.57.15.179.002.356-.04.516-.12l5.98-2.856 1.833-.851c.099-.03.192-.074.278-.13l7.886-3.621a.563.563 0 00.11-.065h.04c.061-.04.119-.085.172-.136l.06-.06 23.59-23.027A1.15 1.15 0 0058 15.3zm-9.524-6.505l2.516 2.456L29 32.706l-2.516-2.456L48.476 8.795zM25.38 40.7l-2.888-2.813 2.694-5.681 5.98 5.838-5.786 2.656zm-4.176-.103l.217-.46 1.666 1.626-.478.222-2.838 1.355 1.433-2.743zm11.973-3.832l-2.521-2.434 21.996-21.466 2.516 2.455-21.991 21.445zM16.803 28h-6.606A1.198 1.198 0 019 26.804v-6.608A1.2 1.2 0 0110.197 19h6.606A1.198 1.198 0 0118 20.196v6.608A1.19 1.19 0 0116.803 28zm-5.42-2.397h4.222v-4.206h-4.222v4.206zM16.803 40h-6.606A1.198 1.198 0 019 38.804v-6.608A1.2 1.2 0 0110.197 31h6.606A1.198 1.198 0 0118 32.196v6.608A1.19 1.19 0 0116.803 40zm-5.42-2.392h4.222v-4.2h-4.222v4.2z" fill="#42474D"/><path d="M16.802 52h-6.605A1.197 1.197 0 019 50.802v-6.604A1.204 1.204 0 0110.197 43h5.107a1.197 1.197 0 01.847 2.045c-.224.225-.529.351-.847.351h-3.92v4.225h4.238a1.198 1.198 0 012.378.221v.977A1.193 1.193 0 0116.802 52z" fill="#42474D"/></g></symbol><symbol id="schedule" viewBox="0 0 19 18"><g fill="none"><path fill="currentColor" d="M5.038 14a.968.968 0 00.713-.288.967.967 0 00.287-.712.97.97 0 00-.287-.713.97.97 0 00-.713-.287.97.97 0 00-.713.287.97.97 0 00-.287.713c0 .283.096.52.287.712.192.192.43.288.713.288zm0-4a.968.968 0 00.713-.288A.967.967 0 006.038 9a.97.97 0 00-.287-.713A.97.97 0 005.038 8a.97.97 0 00-.713.287.97.97 0 00-.287.713c0 .283.096.52.287.712.192.192.43.288.713.288zm0-4a.968.968 0 00.713-.288A.967.967 0 006.038 5a.97.97 0 00-.287-.713A.97.97 0 005.038 4a.97.97 0 00-.713.287.97.97 0 00-.287.713c0 .283.096.52.287.712.192.192.43.288.713.288zm3 8h6v-2h-6v2zm0-4h6V8h-6v2zm0-4h6V4h-6v2zm-6 12c-.55 0-1.02-.196-1.413-.587A1.928 1.928 0 01.038 16V2c0-.55.196-1.021.587-1.413A1.928 1.928 0 012.038 0h14c.55 0 1.021.196 1.413.587.391.392.587.863.587 1.413v14c0 .55-.196 1.021-.587 1.413a1.928 1.928 0 01-1.413.587h-14z"/></g></symbol><symbol id="telegram" viewBox="0 0 26 27"><g fill="none"><path fill="currentColor" d="M13.088 26.116c-7.059 0-12.78-5.721-12.78-12.78 0-7.058 5.721-12.78 12.78-12.78 7.058 0 12.78 5.722 12.78 12.78 0 7.059-5.722 12.78-12.78 12.78zM9.113 14.832l.017-.01 1.112 3.668c.143.398.34.47.578.436.24-.032.367-.16.524-.312l1.519-1.467 3.259 2.413c.595.329 1.023.159 1.172-.552l2.117-9.997c.234-.93-.175-1.303-.897-1.007L6.075 12.81c-.848.34-.843.815-.153 1.026l3.191.997v-.002z"/></g></symbol><symbol id="trainer" viewBox="0 0 19 18"><g fill="none"><path d="M1.554 18s-1.5 0-1.5-1.5 1.5-6 9-6 9 4.5 9 6-1.5 1.5-1.5 1.5h-15zm7.5-9a4.5 4.5 0 100-9 4.5 4.5 0 000 9z" fill="currentColor"/></g></symbol><symbol id="user-lk" viewBox="0 0 18 21"><g fill="none"><path fill="currentColor" d="M9 21c-.133 0-.258-.021-.375-.064a.87.87 0 01-.325-.217L6 18.372H2c-.55 0-1.021-.2-1.413-.6-.391-.4-.587-.88-.587-1.441V2.04C0 1.48.196 1 .587.6.979.2 1.45 0 2 0h14c.55 0 1.021.2 1.413.6.391.4.587.88.587 1.441v14.29c0 .56-.196 1.042-.587 1.442-.392.4-.863.599-1.413.599h-4l-2.3 2.347a.87.87 0 01-.325.217A1.078 1.078 0 019 21zm0-10.793c.967 0 1.792-.35 2.475-1.047S12.5 7.62 12.5 6.634c0-.986-.342-1.828-1.025-2.526C10.792 3.411 9.967 3.062 9 3.062c-.967 0-1.792.349-2.475 1.046-.683.698-1.025 1.54-1.025 2.526 0 .987.342 1.829 1.025 2.526.683.698 1.508 1.047 2.475 1.047zm0 8.369l2.2-2.245H16v-1.174a10.08 10.08 0 00-3.137-2.131c-1.192-.519-2.48-.778-3.863-.778s-2.67.26-3.862.778A10.075 10.075 0 002 15.156v1.175h4.8L9 18.576z"/></g></symbol><symbol id="vk" viewBox="0 0 31 19"><g fill="none"><path fill="currentColor" fill-rule="evenodd" clip-rule="evenodd" d="M30.15 1.555c.213-.702 0-1.219-1.022-1.219h-3.375c-.859 0-1.255.446-1.47.939 0 0-1.716 4.109-4.147 6.778-.787.774-1.145 1.02-1.574 1.02-.215 0-.538-.246-.538-.95V1.556c0-.844-.236-1.219-.951-1.219h-5.307c-.537 0-.86.39-.86.762 0 .799 1.217.984 1.342 3.231v4.884c0 1.07-.197 1.265-.626 1.265-1.145 0-3.928-4.129-5.58-8.852-.32-.92-.645-1.29-1.507-1.29H1.157C.193.336 0 .782 0 1.275c0 .876 1.144 5.232 5.33 10.994 2.79 3.934 6.717 6.067 10.295 6.067 2.146 0 2.411-.473 2.411-1.29v-2.973c0-.948.203-1.137.883-1.137.502 0 1.36.247 3.362 2.143 2.289 2.25 2.666 3.257 3.954 3.257h3.375c.964 0 1.448-.473 1.17-1.41-.306-.93-1.399-2.281-2.848-3.884-.787-.913-1.967-1.897-2.326-2.39-.5-.63-.357-.912 0-1.474 0 0 4.115-5.69 4.543-7.623h.001z"/></g></symbol><symbol id="youtube" viewBox="0 0 31 22"><g fill="none"><path fill="currentColor" d="M15.901.836h.166c1.536.006 9.319.062 11.417.626a3.756 3.756 0 012.644 2.653c.189.71.321 1.65.41 2.62l.02.194.04.486.016.194a60.35 60.35 0 01.138 3.657v.14c-.002.363-.019 2.07-.153 3.85l-.015.195-.017.195c-.093 1.069-.232 2.13-.44 2.91a3.75 3.75 0 01-2.643 2.654c-2.168.583-10.406.624-11.547.626h-.266c-.577 0-2.965-.011-5.469-.097l-.317-.011-.163-.008-.32-.013-.319-.013c-2.074-.091-4.049-.24-4.959-.486a3.75 3.75 0 01-2.644-2.651c-.207-.78-.346-1.842-.439-2.911l-.015-.197-.015-.194a58.667 58.667 0 01-.153-3.804v-.23c.004-.402.019-1.79.12-3.322l.013-.192.005-.098.015-.194.041-.486.019-.194c.09-.97.222-1.912.411-2.62a3.75 3.75 0 012.644-2.653c.91-.243 2.885-.392 4.959-.486l.318-.013.32-.011.162-.006.32-.013C11.981.876 13.76.844 15.54.838h.361V.836zm-3.085 5.998v9.002l7.768-4.499-7.768-4.503z"/></g></symbol><symbol id="cardio" viewBox="0 0 33 28"><g fill="none"><path d="M22.705 4a5.907 5.907 0 00-3.544 1.214 5.99 5.99 0 00-2.12 3.11 5.99 5.99 0 00-2.15-3.132A5.906 5.906 0 0011.303 4C7.833 4 5 7.427 5 11.165 5 17.276 11.06 22.204 17 24c5.94-1.795 12-6.724 12-12.835C29.008 7.427 26.184 4 22.705 4zm3.851 9.67h-5.664a.5.5 0 01-.485-.376l-.478-1.868-1.845 7.433a.499.499 0 01-.477.384.5.5 0 01-.486-.376l-1.82-6.642-1.32 4.896a.515.515 0 01-.469.376.507.507 0 01-.485-.4l-.76-3.468H7.467a.21.21 0 01-.21-.172l-.114-.685a.132.132 0 01.074-.143.13.13 0 01.056-.012h5.373a.49.49 0 01.485.4l.389 1.844 1.286-4.741a.507.507 0 01.486-.375.507.507 0 01.485.375l1.796 6.569 1.821-7.401a.514.514 0 01.49-.371.507.507 0 01.49.37l.914 3.379h5.43a.128.128 0 01.1.046.132.132 0 01.029.109l-.114.685a.213.213 0 01-.178.164z" fill="#42474D"/></g></symbol><symbol id="Creame" viewBox="0 0 33 28"><g fill="none"><path d="M18.526 2h-3.693a.891.891 0 00-.62.255l-1.285 1.29a.868.868 0 001.227 1.228l1.037-1.036h.44v1.737a.29.29 0 00.29.29h1.157a.29.29 0 00.29-.29V3.737h1.157a.868.868 0 100-1.737zM19.105 8.42v-.052a1.158 1.158 0 00-1.158-1.157h-2.894a1.158 1.158 0 00-1.158 1.157v.053A4.631 4.631 0 0011 12.71v11a2.316 2.316 0 002.316 2.315h6.368A2.316 2.316 0 0022 23.71v-11a4.631 4.631 0 00-2.895-4.29zm-3.977 5.211l1.158-1.158a.324.324 0 01.457 0l1.158 1.158a1.945 1.945 0 11-2.75 0h-.023zm3.398 7.625h-4.052a.868.868 0 010-1.737h4.052a.868.868 0 010 1.737z" fill="#42474D"/></g></symbol><symbol id="cupboard" viewBox="0 0 33 28"><g fill="none"><path fill-rule="evenodd" clip-rule="evenodd" d="M28.68 9.02l-.3-.3-2.73 2.89.22.22a.86.86 0 001.19 0l1.62-1.58a.841.841 0 000-1.19v-.04zm-.54-.57l-.49-.49-2.75 2.89.48.49 2.76-2.89zm-.76-.73l-3.41-3.47a.82.82 0 00-.6-.25h-3.4a.89.89 0 00-.54.19l-2.46 2.06-2.52-2a.77.77 0 00-.51-.19h-3.4a.71.71 0 00-.57.19L6.43 7.79l2.75 2.89 1-1v11.47h13.55V9.69l.9.92 2.75-2.89zm-21.21.35l-.49.49 2.76 2.89.48-.49-2.75-2.89zm-.73.76l-.19.19a.81.81 0 00-.25.59.83.83 0 00.25.6l1.62 1.62a.86.86 0 001.19 0l.13-.11-2.75-2.89zm4.78 13.16v.49a.811.811 0 00.81.83H22.9a.83.83 0 00.83-.83v-.49H10.22z" fill="#42474D"/></g></symbol><symbol id="group" viewBox="0 0 33 28"><g fill="none"><path d="M18.667 7.338a2.192 2.192 0 11-4.383 0 2.192 2.192 0 014.383 0zM10.752 26.021l1.16-1.46 2.32-2.923 1.72-2.183.146-.189a1.024 1.024 0 00-1.599-1.28l-1.16 1.46-2.277 2.923-1.72 2.183-.154.189a1.023 1.023 0 001.59 1.28h-.026zM22.234 26.021l-1.16-1.46-2.32-2.923c-.577-.73-1.152-1.46-1.72-2.183a1.58 1.58 0 00-.146-.189 1.023 1.023 0 011.59-1.28l1.16 1.46 2.32 2.923 1.72 2.183.146.189a1.022 1.022 0 11-1.59 1.28z" fill="#42474D"/><path d="M20.274 5.103a10.494 10.494 0 00-1.409-2.071 8.86 8.86 0 00-.722-.782.946.946 0 00-1.28 0 .86.86 0 000 1.237c.306.303.593.624.859.963a9.16 9.16 0 011.066 1.719c.134.324.234.66.3 1.005.022.22.022.442 0 .662a4.13 4.13 0 01-.249.902 2.992 2.992 0 01-.326.55c-.103.127-.221.24-.353.336a2.224 2.224 0 01-.395.223 3.703 3.703 0 01-.507.138h-1.573a3.433 3.433 0 01-.507-.138 2.306 2.306 0 01-.404-.223 2.151 2.151 0 01-.352-.336 3.57 3.57 0 01-.327-.55 4.682 4.682 0 01-.249-.902 2.839 2.839 0 010-.662c.063-.344.16-.68.292-1.005.29-.61.648-1.187 1.066-1.72.266-.338.553-.659.86-.962a.86.86 0 000-1.237.946.946 0 00-1.281 0 8.845 8.845 0 00-.722.782 10.494 10.494 0 00-1.41 2.071 5.156 5.156 0 00-.627 2.785 4.701 4.701 0 001.195 2.741 3.696 3.696 0 001.718.997c.345.089.702.127 1.058.112a1.46 1.46 0 00.403-.095c.13.05.266.083.404.095.382.021.765-.017 1.135-.112a3.782 3.782 0 001.719-.997 4.752 4.752 0 001.194-2.741 5.208 5.208 0 00-.576-2.785z" fill="#42474D"/><path d="M18.513 11.05h-4.074a.23.23 0 00-.215.258v7.632a.24.24 0 00.215.266h1.719a.378.378 0 01.318-.215c.155 0 .232.078.318.215h1.719a.24.24 0 00.214-.266v-7.632a.233.233 0 00-.214-.258z" fill="#42474D"/><path d="M13.95 11.11v.07a.679.679 0 01.274.54h.215v-.61h-.49zM19.011 11.11v.07a.679.679 0 00-.275.54h-.223v-.61h.498zM26.687 11.253a1.743 1.743 0 11-3.487 0 1.743 1.743 0 013.487 0zM20.393 26.11l.923-1.162 1.845-2.323 1.367-1.736.116-.15a.814.814 0 10-1.271-1.019l-.923 1.162-1.81 2.323-1.367 1.736-.123.15a.813.813 0 001.264 1.019h-.02zM29.523 26.11l-.922-1.162-1.846-2.323-1.366-1.736a1.26 1.26 0 00-.117-.15.813.813 0 011.265-1.019l.922 1.162 1.845 2.323 1.367 1.736.116.15a.813.813 0 11-1.264 1.019z" fill="#42474D"/><path d="M27.965 9.477a8.345 8.345 0 00-1.12-1.647 7.04 7.04 0 00-.575-.622.752.752 0 00-1.018 0 .685.685 0 000 .984c.244.24.472.496.683.765.332.423.617.881.848 1.367.106.258.186.526.239.8.017.175.017.35 0 .526a3.29 3.29 0 01-.198.717c-.071.155-.158.301-.26.438-.081.1-.175.19-.28.266-.099.07-.204.13-.314.178a2.946 2.946 0 01-.404.11h-1.25a2.741 2.741 0 01-.403-.11 1.843 1.843 0 01-.322-.178 1.715 1.715 0 01-.28-.266 2.834 2.834 0 01-.26-.438 3.717 3.717 0 01-.198-.717 2.259 2.259 0 010-.527c.05-.273.128-.541.233-.8a7.29 7.29 0 01.847-1.366c.212-.269.44-.525.683-.765a.685.685 0 000-.984.752.752 0 00-1.018 0 7.027 7.027 0 00-.574.622 8.345 8.345 0 00-1.12 1.647 4.1 4.1 0 00-.5 2.214c.072.81.405 1.576.95 2.18.375.384.848.658 1.367.792.274.071.558.101.84.09.11-.01.219-.036.322-.076.103.04.211.066.321.075.304.017.608-.013.902-.089.518-.137.99-.411 1.367-.792a3.78 3.78 0 00.95-2.18 4.142 4.142 0 00-.458-2.214z" fill="#42474D"/><path d="M26.564 14.206h-3.24a.185.185 0 00-.17.205v6.068a.19.19 0 00.099.19.19.19 0 00.072.022h1.367a.3.3 0 01.252-.171c.123 0 .185.061.253.17h1.367a.192.192 0 00.17-.211V14.41a.184.184 0 00-.17-.205z" fill="#42474D"/><path d="M22.935 14.253v.055a.54.54 0 01.219.43h.17v-.485h-.389zM26.96 14.253v.055a.54.54 0 00-.218.43h-.178v-.485h.396zM9.687 11.253a1.743 1.743 0 11-3.485 0 1.743 1.743 0 013.485 0zM3.393 26.11l.923-1.162 1.845-2.323 1.367-1.736.116-.15a.814.814 0 10-1.271-1.019l-.923 1.162-1.81 2.323-1.368 1.736-.123.15a.813.813 0 001.265 1.019h-.02zM12.523 26.11l-.922-1.162-1.846-2.323-1.366-1.736a1.262 1.262 0 00-.117-.15.813.813 0 011.265-1.019l.922 1.162 1.845 2.323 1.367 1.736.116.15a.813.813 0 11-1.264 1.019z" fill="#42474D"/><path d="M10.965 9.477a8.345 8.345 0 00-1.12-1.647 7.029 7.029 0 00-.575-.622.752.752 0 00-1.018 0 .683.683 0 000 .984 8.2 8.2 0 01.683.765c.332.423.617.881.848 1.367.106.258.186.526.239.8.017.175.017.35 0 .526a3.29 3.29 0 01-.198.717c-.071.155-.158.301-.26.438-.081.1-.176.19-.28.266-.099.07-.204.13-.315.178a2.943 2.943 0 01-.403.11h-1.25a2.742 2.742 0 01-.403-.11 1.839 1.839 0 01-.322-.178 1.713 1.713 0 01-.28-.266 2.834 2.834 0 01-.26-.438 3.722 3.722 0 01-.198-.717 2.262 2.262 0 010-.527c.05-.273.128-.541.233-.8.23-.485.515-.943.847-1.366a8.2 8.2 0 01.683-.765.683.683 0 000-.984.752.752 0 00-1.018 0 7.032 7.032 0 00-.574.622 8.344 8.344 0 00-1.12 1.647 4.1 4.1 0 00-.5 2.214c.071.81.405 1.576.95 2.18.375.384.848.658 1.367.792.274.071.558.101.84.09.11-.01.219-.036.322-.076.103.04.211.066.321.075.304.017.608-.013.902-.089.518-.137.99-.411 1.367-.792a3.78 3.78 0 00.95-2.18 4.142 4.142 0 00-.458-2.214z" fill="#42474D"/><path d="M9.564 14.206h-3.24a.185.185 0 00-.17.205v6.068a.191.191 0 00.17.212h1.368a.3.3 0 01.252-.171c.123 0 .185.061.253.17h1.367a.192.192 0 00.17-.211V14.41a.185.185 0 00-.17-.205z" fill="#42474D"/><path d="M5.935 14.253v.055a.54.54 0 01.219.43h.17v-.485h-.389zM9.96 14.253v.055a.54.54 0 00-.218.43h-.178v-.485h.396z" fill="#42474D"/></g></symbol><symbol id="gym" viewBox="0 0 33 28"><g fill="none"><path d="M2.635 12.748h.723v3.173h-.723A.634.634 0 012 15.286v-1.904a.634.634 0 01.635-.634zM30.365 12.748h-.723v3.173h.836a.627.627 0 00.522-.619v-1.92a.634.634 0 00-.635-.634zM21.834 12.748h-10.66v3.165h10.66v-3.165zM28.405 9.502h-1.759a.602.602 0 00-.321.089l-.12.096v9.262a.634.634 0 00.441.185h1.76a.65.65 0 00.329-.088.634.634 0 00.305-.546v-8.387a.634.634 0 00-.635-.61zM24.967 8h-1.904a.643.643 0 00-.554.321.633.633 0 00-.072.306v11.407a.626.626 0 00.626.634h1.904a.635.635 0 00.635-.634v-11.4A.635.635 0 0024.967 8zM4.595 9.502a.602.602 0 00-.37.12l-.088.073a.643.643 0 00-.177.442v8.395a.522.522 0 00.04.216.634.634 0 00.595.418h1.759a.633.633 0 00.466-.217V9.687a.635.635 0 00-.442-.185H4.595zM9.937 8H8.033a.627.627 0 00-.546.313.602.602 0 00-.089.322v11.399a.635.635 0 00.635.634h1.904a.626.626 0 00.627-.634v-11.4A.628.628 0 009.936 8z" fill="#42474D"/></g></symbol><symbol id="hair-dryer" viewBox="0 0 33 28"><g fill="none"><path d="M14.745 13.894h1.958A19.948 19.948 0 0025 11.411v-5.8c-2.647-1.542-7.135-2.542-11.4-2.61a5.445 5.445 0 00-3.899 1.558 5.686 5.686 0 00-1.7 3.91 5.51 5.51 0 00.688 2.738 10.706 10.706 0 011.22 5.146v3.026c0 .73.282 1.018.638 1.018h.349v3.518a.866.866 0 00.133.746.835.835 0 00.663.339.815.815 0 00.664-.34.856.856 0 00.133-.745V20.43h4.355a.514.514 0 00.493-.276.544.544 0 00-.036-.572l-1.029-1.763a.542.542 0 01-.075-.28v-2.298h-1.451a.651.651 0 01-.517-.168.679.679 0 01-.221-.506.692.692 0 01.221-.505.661.661 0 01.517-.169zm-1.99-4.315a1.83 1.83 0 01-1.039-.318 1.89 1.89 0 01-.688-.856 1.938 1.938 0 01-.103-1.102 1.91 1.91 0 01.516-.974 1.822 1.822 0 012.037-.394c.34.149.628.397.829.714a1.929 1.929 0 01-.255 2.383 1.838 1.838 0 01-1.298.547z" fill="#42474D"/></g></symbol><symbol id="Kids"><g fill="none"><path d="M19.75 21.13c-.83 0-1.5-.84-1.5-1.88 0-1.03.67-1.87 1.5-1.87s1.5.84 1.5 1.87c0 1.04-.67 1.88-1.5 1.88zM16 13.25c-1.24 0-2.25-.84-2.25-1.87 0-1.04 1.01-1.88 2.25-1.88s2.25.84 2.25 1.88c0 1.03-1.01 1.87-2.25 1.87zm-3.75 7.88c-.83 0-1.5-.84-1.5-1.88 0-1.03.67-1.87 1.5-1.87s1.5.84 1.5 1.87c0 1.04-.67 1.88-1.5 1.88zM16 10.25c.41 0 .75.34.75.75s-.34.75-.75.75-.75-.34-.75-.75.34-.75.75-.75zM22.75 14c-.32 0-.63.07-.91.2-.48-.61-1.13-1.13-1.91-1.53.57-.8.91-1.77.91-2.82v-.06c1.09-.23 1.91-1.2 1.91-2.37 0-1.33-1.09-2.42-2.42-2.42-.69 0-1.33.29-1.75.75a4.813 4.813 0 00-5.16 0C13 5.29 12.36 5 11.67 5c-1.33 0-2.42 1.09-2.42 2.42 0 1.16.82 2.13 1.9 2.37v.06c0 1.05.35 2.03.91 2.82-.77.4-1.42.92-1.9 1.53A2.24 2.24 0 007 16.25c0 1.25 1 2.25 2.25 2.25h.06c-.04.24-.06.5-.06.75 0 2.07 1.34 3.75 3 3.75 1.01 0 1.9-.63 2.45-1.59.42.06.85.09 1.3.09.45 0 .88-.03 1.3-.09.55.96 1.44 1.59 2.45 1.59 1.66 0 3-1.68 3-3.75 0-.25-.02-.51-.06-.75h.06c1.25 0 2.25-1 2.25-2.25S24 14 22.75 14z" fill="#42474D"/></g></symbol><symbol id="material" viewBox="0 0 33 28"><g fill="none"><g clip-path="url(#clip0_451_1436)" fill="#42474D"><path d="M16.2 14.5a2.1 2.1 0 114.2 0 2.1 2.1 0 01-4.2 0z"/><path fill-rule="evenodd" clip-rule="evenodd" d="M7.1 4A2.1 2.1 0 005 6.1v15.4a2.1 2.1 0 002.1 2.1h.7V25h1.4v-1.4h12.6V25h1.4v-1.4h.7a2.1 2.1 0 002.1-2.1V6.1A2.1 2.1 0 0023.9 4H7.1zm.7 4.2v4.2h1.4V8.2H7.8zM18.3 11a3.5 3.5 0 100 7 3.5 3.5 0 000-7zM7.8 19.4v-4.2h1.4v4.2H7.8z"/></g></g></symbol><symbol id="People" viewBox="0 0 33 28"><g fill="none"><path d="M20.667 12.833a3.485 3.485 0 003.488-3.5c0-1.936-1.552-3.5-3.488-3.5a3.495 3.495 0 00-3.5 3.5c0 1.937 1.563 3.5 3.5 3.5zm-9.334 0a3.485 3.485 0 003.489-3.5c0-1.936-1.552-3.5-3.489-3.5a3.495 3.495 0 00-3.5 3.5c0 1.937 1.564 3.5 3.5 3.5zm0 2.334c-2.718 0-8.166 1.365-8.166 4.083V21a1.17 1.17 0 001.166 1.167h14A1.17 1.17 0 0019.5 21v-1.75c0-2.718-5.448-4.083-8.167-4.083zm9.334 0c-.339 0-.724.023-1.132.058.023.012.035.035.047.047 1.33.968 2.251 2.263 2.251 3.978V21c0 .408-.081.805-.21 1.167h6.044A1.17 1.17 0 0028.833 21v-1.75c0-2.718-5.448-4.083-8.166-4.083z" fill="#42474D"/></g></symbol><symbol id="people2" viewBox="0 0 26 18"><g fill="none"><path d="M17.667 7.833a3.485 3.485 0 003.488-3.5c0-1.936-1.552-3.5-3.488-3.5a3.495 3.495 0 00-3.5 3.5c0 1.937 1.563 3.5 3.5 3.5zm-9.334 0a3.485 3.485 0 003.489-3.5c0-1.936-1.552-3.5-3.489-3.5a3.495 3.495 0 00-3.5 3.5c0 1.937 1.564 3.5 3.5 3.5zm0 2.334c-2.718 0-8.166 1.365-8.166 4.083V16a1.17 1.17 0 001.166 1.167h14A1.17 1.17 0 0016.5 16v-1.75c0-2.718-5.448-4.083-8.167-4.083zm9.334 0c-.339 0-.724.023-1.132.058.023.012.035.035.047.047 1.33.968 2.251 2.263 2.251 3.978V16c0 .408-.081.805-.21 1.167h6.044A1.17 1.17 0 0025.833 16v-1.75c0-2.718-5.448-4.083-8.166-4.083z" fill="#42474D"/></g></symbol><symbol id="person-rounded" viewBox="0 0 24 24"><g fill="none"><path d="M12 12c-1.238 0-2.297-.44-3.178-1.322C7.94 9.797 7.5 8.738 7.5 7.5c0-1.237.44-2.297 1.322-3.178C9.703 3.44 10.762 3 12 3s2.297.44 3.178 1.322c.881.881 1.322 1.94 1.322 3.178s-.44 2.297-1.322 3.178C14.297 11.56 13.238 12 12 12zm-6.75 9c-.619 0-1.148-.22-1.588-.66A2.168 2.168 0 013 18.75v-.9c0-.638.164-1.224.493-1.758A3.277 3.277 0 014.8 14.869a16.722 16.722 0 013.544-1.309c1.2-.29 2.418-.435 3.656-.435s2.456.145 3.656.435c1.2.291 2.382.727 3.544 1.309.544.281.98.689 1.307 1.223.329.534.493 1.12.493 1.758v.9a2.17 2.17 0 01-.66 1.59c-.441.44-.971.66-1.59.66H5.25z" fill="#42474D"/></g></symbol><symbol id="ph_sun-fill"><g fill="none"><path d="M6 23c-.55 0-1.02-.196-1.412-.587A1.927 1.927 0 014 21V9c0-.55.196-1.02.588-1.412A1.923 1.923 0 016 7h2c0-1.1.392-2.042 1.175-2.825C9.958 3.392 10.9 3 12 3s2.042.392 2.825 1.175C15.608 4.958 16 5.9 16 7h2c.55 0 1.021.196 1.413.588.391.391.587.862.587 1.412v12c0 .55-.196 1.021-.587 1.413A1.928 1.928 0 0118 23H6zm3-11a.968.968 0 00.713-.288A.967.967 0 0010 11V9H8v2c0 .283.096.52.288.712A.965.965 0 009 12zm1-5h4c0-.55-.196-1.02-.587-1.412A1.927 1.927 0 0012 5c-.55 0-1.02.196-1.412.588A1.923 1.923 0 0010 7zm5 5a.968.968 0 00.713-.288A.967.967 0 0016 11V9h-2v2c0 .283.096.52.288.712A.965.965 0 0015 12z" fill="#42474D"/></g></symbol><symbol id="spa" viewBox="0 0 33 28"><g fill="none"><path d="M22.32 18.743H11.033c-.666 0-1.227.813-1.236 1.821-.008 1.009.553 1.846 1.212 1.846h11.295c.659 0 1.22-.813 1.228-1.822.008-1.008-.545-1.845-1.212-1.845zM19.295 7.635a2.635 2.635 0 11-1.62-2.434 2.627 2.627 0 011.62 2.434z" fill="#42474D"/><path d="M19.108 12.083H14.23a.293.293 0 00-.26.309v9.156a.3.3 0 00.26.317h2.188a.26.26 0 01.512 0h2.187a.301.301 0 00.26-.317v-9.156a.292.292 0 00-.268-.31z" fill="#42474D"/><path d="M24.678 19.182l-.382-.285A11.233 11.233 0 0122.5 17.02a8.528 8.528 0 01-.935-1.684c-.195-.504-.35-1.016-.585-1.512a5.4 5.4 0 00-2.383-2.57 3.904 3.904 0 00-1.049-.357 2.828 2.828 0 00-.594-.066h-.35a3.822 3.822 0 00-1.667.358 5.351 5.351 0 00-2.488 2.44c-.252.48-.43.984-.642 1.488a8.518 8.518 0 01-1.008 1.626c-.55.679-1.181 1.288-1.879 1.814a4.66 4.66 0 01-.39.26 1.065 1.065 0 00-.399 1.431 1.049 1.049 0 001.424.398 10.57 10.57 0 001.626-1.252 10.302 10.302 0 002.44-3.293c.154-.35.284-.7.43-1.05.184-.404.41-.789.675-1.146.177-.21.373-.404.586-.577.177-.126.368-.233.569-.317.16-.056.322-.1.488-.13h.341c.065.007.13.007.196 0h.146c.167.032.33.081.488.146.192.096.374.21.545.341.21.18.4.382.569.602.248.368.458.76.626 1.171.138.358.252.716.39 1.066a10.14 10.14 0 002.326 3.39c.48.492 1.005.936 1.57 1.326a1.05 1.05 0 101.097-1.79l.017.05z" fill="#42474D"/></g></symbol><symbol id="star" viewBox="0 0 33 28"><g fill="none"><path d="M16.5 20.08l-4.605 2.752a1.014 1.014 0 01-.638.165 1.078 1.078 0 01-.583-.22 1.322 1.322 0 01-.388-.482.956.956 0 01-.056-.647l1.221-5.2-4.078-3.495a1.05 1.05 0 01-.346-.565 1.082 1.082 0 01.041-.619 1.18 1.18 0 01.333-.495c.148-.128.351-.21.61-.248l5.382-.467 2.08-4.899a.99.99 0 01.43-.495c.195-.11.393-.165.597-.165.203 0 .402.055.597.165.194.11.337.275.43.495l2.08 4.899 5.381.467c.26.037.463.12.61.248.149.128.26.294.334.495a1.057 1.057 0 01-.305 1.183l-4.078 3.495 1.22 5.201a.956.956 0 01-.055.647 1.322 1.322 0 01-.389.481c-.166.129-.36.202-.582.22a1.014 1.014 0 01-.638-.165L16.5 20.08z" fill="#42474D"/></g></symbol><symbol id="Sun" viewBox="0 0 33 28"><g fill="none"><g clip-path="url(#clip0_451_1425)"><path d="M23.14 14.5a6.64 6.64 0 11-6.64-6.64 6.65 6.65 0 016.64 6.64zM16.5 6.297a.781.781 0 00.781-.781V3.562a.781.781 0 10-1.562 0v1.954a.781.781 0 00.781.78zM9.596 8.699a.791.791 0 001.103 0 .781.781 0 000-1.103L9.322 6.209A.791.791 0 108.21 7.322L9.596 8.7zm-1.3 5.801a.781.781 0 00-.78-.781H5.562a.781.781 0 100 1.562h1.954a.781.781 0 00.78-.781zm1.3 5.8l-1.387 1.378a.791.791 0 000 1.113.83.83 0 00.557.225.81.81 0 00.556-.225l1.377-1.387a.781.781 0 00-1.103-1.103zm6.904 2.403a.781.781 0 00-.781.781v1.953a.781.781 0 101.562 0v-1.953a.782.782 0 00-.781-.78zm6.904-2.402a.781.781 0 00-1.103 1.103l1.377 1.387a.81.81 0 00.556.225.83.83 0 00.557-.225.79.79 0 000-1.113L23.404 20.3zm4.034-6.582h-1.954a.782.782 0 000 1.562h1.953a.781.781 0 100-1.562zm-4.58-4.795a.762.762 0 00.546-.225l1.387-1.377a.79.79 0 00-1.113-1.113L22.3 7.596a.781.781 0 00.255 1.273.762.762 0 00.301.055z" fill="#42474D"/></g></g></symbol><symbol id="Swim" viewBox="0 0 33 28"><g fill="none"><path fill-rule="evenodd" clip-rule="evenodd" d="M1.072 23.54c.17.14 1.9-1.54 2.09-1.94h.1a1 1 0 00.68-.41 5.43 5.43 0 012.76-1.9 6.21 6.21 0 012-.33c2.43 0 4.54 1.44 6.73 2.27 1.19.498 2.462.766 3.75.79.582 0 1.162-.063 1.73-.19a6.57 6.57 0 003.52-1.92c.21-.24 1.54-1.73 1.7-2a1 1 0 00-.27-1.37.82.82 0 00-.54-.16.931.931 0 00-.81.43l-.24.33c-.63.73-2.65 2.51-3.76 2.76a7.38 7.38 0 01-3.14-.11 19.697 19.697 0 01-3.16-1.22 22.632 22.632 0 00-3.59-1.38 7.77 7.77 0 00-1.92-.24 7.922 7.922 0 00-2.63.43 8.001 8.001 0 00-2.05 1 6.89 6.89 0 00-1.67 1.65.735.735 0 00-.09.13c-.21.48-1.59 3.13-1.19 3.38zm22.44-14.28a3.42 3.42 0 116.84.02 3.42 3.42 0 01-6.84-.02zm-13-.43l6.49-1.29.11.41.32 3.59c-.11 0-7.44 2-8.95 2.43 1.018.541 2.1.951 3.22 1.22 4.29 1.16 7.46.49 10.24.65l-3-9.95v-.06a1.16 1.16 0 00-1.33-.81l-7.56 1.52a1.13 1.13 0 00-.89 1.36 1.18 1.18 0 001.35.89v.04z" fill="#42474D"/></g></symbol><symbol id="towel" viewBox="0 0 33 28"><g fill="none"><path d="M29.449 5.278a1.545 1.545 0 00-1.208.582h-2.786a5.066 5.066 0 00-1.748-1.372A5.035 5.035 0 0021.544 4H6.59a3.101 3.101 0 00-1.87.617 3.17 3.17 0 00-.596.58l-.023.03-.01.014-.004.004c-.132.173-.245.36-.34.556l-.013.029a1.55 1.55 0 00-1.623-.488 1.566 1.566 0 00-.365 2.833A1.544 1.544 0 003.44 8.12v6.2c0 .276.11.54.303.734.193.195.455.304.729.304H6.39v6.851c0 .262.104.514.288.699.184.185.434.29.694.29h18.258c.26 0 .51-.105.694-.29a.995.995 0 00.288-.699V9.103c0-.433-.054-.864-.162-1.283h1.79a1.552 1.552 0 001.387.571 1.546 1.546 0 001.22-.877 1.57 1.57 0 00-.65-2.041 1.544 1.544 0 00-.75-.195zm-23.617.373l.005.003a1.6 1.6 0 01.041.032H4.271c.032-.05.065-.1.1-.148l.071-.023.038-.012.08-.024.024-.006a2.726 2.726 0 01.273-.062c.343-.052.694.034.975.24zM2.553 7.997a1.145 1.145 0 01-.984-.557 1.163 1.163 0 01.356-1.57 1.145 1.145 0 011.571.307.201.201 0 00.165.087h2.626c.059.133.093.275.102.42l.002.068v.665H3.66a.2.2 0 00-.165.086 1.154 1.154 0 01-.943.494zm1.919 6.957a.637.637 0 01-.63-.634V7.993H6.39v6.961H4.47zm24.977-6.957a1.146 1.146 0 01-.943-.494l-.06-.086h-2.107a5.243 5.243 0 00-.55-1.153h2.657l.06-.086a1.152 1.152 0 011.017-.493 1.145 1.145 0 01.946.62 1.163 1.163 0 01-.456 1.544 1.144 1.144 0 01-.564.148z" fill="#42474D"/><path d="M25.745 17.279H7.298c-.116 0-.21.13-.21.293v3.25c0 .16.094.292.21.292h18.447c.116 0 .21-.13.21-.293v-3.25c0-.161-.094-.292-.21-.292zM7.088 15.707c0 .162.094.293.21.293h18.447c.116 0 .21-.13.21-.293 0-.162-.094-.293-.21-.293H7.298c-.116 0-.21.131-.21.293z" fill="#E2F0FB"/></g></symbol><symbol id="Water" viewBox="0 0 33 28"><g fill="none"><path d="M16.956 3.708a.893.893 0 100 1.785.893.893 0 000-1.785zm.122 2.462l-1.16-.156a.295.295 0 00-.324.249l-.347 2.636a.289.289 0 00.284.33h1.158a.296.296 0 00.29-.254l.33-2.48a.29.29 0 00-.22-.325h-.011zm6.287-3.911l-.423-1.078a.296.296 0 00-.377-.162L18.19 2.757a.295.295 0 00-.162.377l.429 1.078a.288.288 0 00.376.162l4.37-1.738a.289.289 0 00.173-.377h-.011z" fill="#42474D"/><path d="M21.968 6.622H20.81a.284.284 0 00-.284.267l-.26 3.79h-9.271l-.261-3.79a.284.284 0 00-.284-.267H9.29a.29.29 0 00-.29.307l1.16 17.232a2.317 2.317 0 002.317 2.162h6.299a2.318 2.318 0 002.317-2.162l1.16-17.232a.29.29 0 00-.285-.307zM13.37 23.854h-.057a.724.724 0 01-.719-.672l-.58-7.532a.723.723 0 111.443-.11l.58 7.532a.726.726 0 01-.667.782z" fill="#42474D"/></g></symbol></svg>