<svg xmlns="http://www.w3.org/2000/svg" xmlns:xlink="http://www.w3.org/1999/xlink"><defs><clipPath id="clip0_451_1436"><path fill="#fff" transform="translate(5 4)" d="M0 0h21v21H0z"/></clipPath><clipPath id="clip0_451_1425"><path fill="#fff" transform="translate(4 2)" d="M0 0h25v25H0z"/></clipPath></defs><symbol id="cardio" viewBox="0 0 33 28"><g fill="none"><path d="M22.705 4a5.907 5.907 0 00-3.544 1.214 5.99 5.99 0 00-2.12 3.11 5.99 5.99 0 00-2.15-3.132A5.906 5.906 0 0011.303 4C7.833 4 5 7.427 5 11.165 5 17.276 11.06 22.204 17 24c5.94-1.795 12-6.724 12-12.835C29.008 7.427 26.184 4 22.705 4zm3.851 9.67h-5.664a.5.5 0 01-.485-.376l-.478-1.868-1.845 7.433a.499.499 0 01-.477.384.5.5 0 01-.486-.376l-1.82-6.642-1.32 4.896a.515.515 0 01-.469.376.507.507 0 01-.485-.4l-.76-3.468H7.467a.21.21 0 01-.21-.172l-.114-.685a.132.132 0 01.074-.143.13.13 0 01.056-.012h5.373a.49.49 0 01.485.4l.389 1.844 1.286-4.741a.507.507 0 01.486-.375.507.507 0 01.485.375l1.796 6.569 1.821-7.401a.514.514 0 01.49-.371.507.507 0 01.49.37l.914 3.379h5.43a.128.128 0 01.1.046.132.132 0 01.029.109l-.114.685a.213.213 0 01-.178.164z" fill="#42474D"/></g></symbol><symbol id="Creame" viewBox="0 0 33 28"><g fill="none"><path d="M18.526 2h-3.693a.891.891 0 00-.62.255l-1.285 1.29a.868.868 0 001.227 1.228l1.037-1.036h.44v1.737a.29.29 0 00.29.29h1.157a.29.29 0 00.29-.29V3.737h1.157a.868.868 0 100-1.737zM19.105 8.42v-.052a1.158 1.158 0 00-1.158-1.157h-2.894a1.158 1.158 0 00-1.158 1.157v.053A4.631 4.631 0 0011 12.71v11a2.316 2.316 0 002.316 2.315h6.368A2.316 2.316 0 0022 23.71v-11a4.631 4.631 0 00-2.895-4.29zm-3.977 5.211l1.158-1.158a.324.324 0 01.457 0l1.158 1.158a1.945 1.945 0 11-2.75 0h-.023zm3.398 7.625h-4.052a.868.868 0 010-1.737h4.052a.868.868 0 010 1.737z" fill="#42474D"/></g></symbol><symbol id="cupboard" viewBox="0 0 33 28"><g fill="none"><path fill-rule="evenodd" clip-rule="evenodd" d="M28.68 9.02l-.3-.3-2.73 2.89.22.22a.86.86 0 001.19 0l1.62-1.58a.841.841 0 000-1.19v-.04zm-.54-.57l-.49-.49-2.75 2.89.48.49 2.76-2.89zm-.76-.73l-3.41-3.47a.82.82 0 00-.6-.25h-3.4a.89.89 0 00-.54.19l-2.46 2.06-2.52-2a.77.77 0 00-.51-.19h-3.4a.71.71 0 00-.57.19L6.43 7.79l2.75 2.89 1-1v11.47h13.55V9.69l.9.92 2.75-2.89zm-21.21.35l-.49.49 2.76 2.89.48-.49-2.75-2.89zm-.73.76l-.19.19a.81.81 0 00-.25.59.83.83 0 00.25.6l1.62 1.62a.86.86 0 001.19 0l.13-.11-2.75-2.89zm4.78 13.16v.49a.811.811 0 00.81.83H22.9a.83.83 0 00.83-.83v-.49H10.22z" fill="#42474D"/></g></symbol><symbol id="group" viewBox="0 0 33 28"><g fill="none"><path d="M18.667 7.338a2.192 2.192 0 11-4.383 0 2.192 2.192 0 014.383 0zM10.752 26.021l1.16-1.46 2.32-2.923 1.72-2.183.146-.189a1.024 1.024 0 00-1.599-1.28l-1.16 1.46-2.277 2.923-1.72 2.183-.154.189a1.023 1.023 0 001.59 1.28h-.026zM22.234 26.021l-1.16-1.46-2.32-2.923c-.577-.73-1.152-1.46-1.72-2.183a1.58 1.58 0 00-.146-.189 1.023 1.023 0 011.59-1.28l1.16 1.46 2.32 2.923 1.72 2.183.146.189a1.022 1.022 0 11-1.59 1.28z" fill="#42474D"/><path d="M20.274 5.103a10.494 10.494 0 00-1.409-2.071 8.86 8.86 0 00-.722-.782.946.946 0 00-1.28 0 .86.86 0 000 1.237c.306.303.593.624.859.963a9.16 9.16 0 011.066 1.719c.134.324.234.66.3 1.005.022.22.022.442 0 .662a4.13 4.13 0 01-.249.902 2.992 2.992 0 01-.326.55c-.103.127-.221.24-.353.336a2.224 2.224 0 01-.395.223 3.703 3.703 0 01-.507.138h-1.573a3.433 3.433 0 01-.507-.138 2.306 2.306 0 01-.404-.223 2.151 2.151 0 01-.352-.336 3.57 3.57 0 01-.327-.55 4.682 4.682 0 01-.249-.902 2.839 2.839 0 010-.662c.063-.344.16-.68.292-1.005.29-.61.648-1.187 1.066-1.72.266-.338.553-.659.86-.962a.86.86 0 000-1.237.946.946 0 00-1.281 0 8.845 8.845 0 00-.722.782 10.494 10.494 0 00-1.41 2.071 5.156 5.156 0 00-.627 2.785 4.701 4.701 0 001.195 2.741 3.696 3.696 0 001.718.997c.345.089.702.127 1.058.112a1.46 1.46 0 00.403-.095c.13.05.266.083.404.095.382.021.765-.017 1.135-.112a3.782 3.782 0 001.719-.997 4.752 4.752 0 001.194-2.741 5.208 5.208 0 00-.576-2.785z" fill="#42474D"/><path d="M18.513 11.05h-4.074a.23.23 0 00-.215.258v7.632a.24.24 0 00.215.266h1.719a.378.378 0 01.318-.215c.155 0 .232.078.318.215h1.719a.24.24 0 00.214-.266v-7.632a.233.233 0 00-.214-.258z" fill="#42474D"/><path d="M13.95 11.11v.07a.679.679 0 01.274.54h.215v-.61h-.49zM19.011 11.11v.07a.679.679 0 00-.275.54h-.223v-.61h.498zM26.687 11.253a1.743 1.743 0 11-3.487 0 1.743 1.743 0 013.487 0zM20.393 26.11l.923-1.162 1.845-2.323 1.367-1.736.116-.15a.814.814 0 10-1.271-1.019l-.923 1.162-1.81 2.323-1.367 1.736-.123.15a.813.813 0 001.264 1.019h-.02zM29.523 26.11l-.922-1.162-1.846-2.323-1.366-1.736a1.26 1.26 0 00-.117-.15.813.813 0 011.265-1.019l.922 1.162 1.845 2.323 1.367 1.736.116.15a.813.813 0 11-1.264 1.019z" fill="#42474D"/><path d="M27.965 9.477a8.345 8.345 0 00-1.12-1.647 7.04 7.04 0 00-.575-.622.752.752 0 00-1.018 0 .685.685 0 000 .984c.244.24.472.496.683.765.332.423.617.881.848 1.367.106.258.186.526.239.8.017.175.017.35 0 .526a3.29 3.29 0 01-.198.717c-.071.155-.158.301-.26.438-.081.1-.175.19-.28.266-.099.07-.204.13-.314.178a2.946 2.946 0 01-.404.11h-1.25a2.741 2.741 0 01-.403-.11 1.843 1.843 0 01-.322-.178 1.715 1.715 0 01-.28-.266 2.834 2.834 0 01-.26-.438 3.717 3.717 0 01-.198-.717 2.259 2.259 0 010-.527c.05-.273.128-.541.233-.8a7.29 7.29 0 01.847-1.366c.212-.269.44-.525.683-.765a.685.685 0 000-.984.752.752 0 00-1.018 0 7.027 7.027 0 00-.574.622 8.345 8.345 0 00-1.12 1.647 4.1 4.1 0 00-.5 2.214c.072.81.405 1.576.95 2.18.375.384.848.658 1.367.792.274.071.558.101.84.09.11-.01.219-.036.322-.076.103.04.211.066.321.075.304.017.608-.013.902-.089.518-.137.99-.411 1.367-.792a3.78 3.78 0 00.95-2.18 4.142 4.142 0 00-.458-2.214z" fill="#42474D"/><path d="M26.564 14.206h-3.24a.185.185 0 00-.17.205v6.068a.19.19 0 00.099.19.19.19 0 00.072.022h1.367a.3.3 0 01.252-.171c.123 0 .185.061.253.17h1.367a.192.192 0 00.17-.211V14.41a.184.184 0 00-.17-.205z" fill="#42474D"/><path d="M22.935 14.253v.055a.54.54 0 01.219.43h.17v-.485h-.389zM26.96 14.253v.055a.54.54 0 00-.218.43h-.178v-.485h.396zM9.687 11.253a1.743 1.743 0 11-3.485 0 1.743 1.743 0 013.485 0zM3.393 26.11l.923-1.162 1.845-2.323 1.367-1.736.116-.15a.814.814 0 10-1.271-1.019l-.923 1.162-1.81 2.323-1.368 1.736-.123.15a.813.813 0 001.265 1.019h-.02zM12.523 26.11l-.922-1.162-1.846-2.323-1.366-1.736a1.262 1.262 0 00-.117-.15.813.813 0 011.265-1.019l.922 1.162 1.845 2.323 1.367 1.736.116.15a.813.813 0 11-1.264 1.019z" fill="#42474D"/><path d="M10.965 9.477a8.345 8.345 0 00-1.12-1.647 7.029 7.029 0 00-.575-.622.752.752 0 00-1.018 0 .683.683 0 000 .984 8.2 8.2 0 01.683.765c.332.423.617.881.848 1.367.106.258.186.526.239.8.017.175.017.35 0 .526a3.29 3.29 0 01-.198.717c-.071.155-.158.301-.26.438-.081.1-.176.19-.28.266-.099.07-.204.13-.315.178a2.943 2.943 0 01-.403.11h-1.25a2.742 2.742 0 01-.403-.11 1.839 1.839 0 01-.322-.178 1.713 1.713 0 01-.28-.266 2.834 2.834 0 01-.26-.438 3.722 3.722 0 01-.198-.717 2.262 2.262 0 010-.527c.05-.273.128-.541.233-.8.23-.485.515-.943.847-1.366a8.2 8.2 0 01.683-.765.683.683 0 000-.984.752.752 0 00-1.018 0 7.032 7.032 0 00-.574.622 8.344 8.344 0 00-1.12 1.647 4.1 4.1 0 00-.5 2.214c.071.81.405 1.576.95 2.18.375.384.848.658 1.367.792.274.071.558.101.84.09.11-.01.219-.036.322-.076.103.04.211.066.321.075.304.017.608-.013.902-.089.518-.137.99-.411 1.367-.792a3.78 3.78 0 00.95-2.18 4.142 4.142 0 00-.458-2.214z" fill="#42474D"/><path d="M9.564 14.206h-3.24a.185.185 0 00-.17.205v6.068a.191.191 0 00.17.212h1.368a.3.3 0 01.252-.171c.123 0 .185.061.253.17h1.367a.192.192 0 00.17-.211V14.41a.185.185 0 00-.17-.205z" fill="#42474D"/><path d="M5.935 14.253v.055a.54.54 0 01.219.43h.17v-.485h-.389zM9.96 14.253v.055a.54.54 0 00-.218.43h-.178v-.485h.396z" fill="#42474D"/></g></symbol><symbol id="gym" viewBox="0 0 33 28"><g fill="none"><path d="M2.635 12.748h.723v3.173h-.723A.634.634 0 012 15.286v-1.904a.634.634 0 01.635-.634zM30.365 12.748h-.723v3.173h.836a.627.627 0 00.522-.619v-1.92a.634.634 0 00-.635-.634zM21.834 12.748h-10.66v3.165h10.66v-3.165zM28.405 9.502h-1.759a.602.602 0 00-.321.089l-.12.096v9.262a.634.634 0 00.441.185h1.76a.65.65 0 00.329-.088.634.634 0 00.305-.546v-8.387a.634.634 0 00-.635-.61zM24.967 8h-1.904a.643.643 0 00-.554.321.633.633 0 00-.072.306v11.407a.626.626 0 00.626.634h1.904a.635.635 0 00.635-.634v-11.4A.635.635 0 0024.967 8zM4.595 9.502a.602.602 0 00-.37.12l-.088.073a.643.643 0 00-.177.442v8.395a.522.522 0 00.04.216.634.634 0 00.595.418h1.759a.633.633 0 00.466-.217V9.687a.635.635 0 00-.442-.185H4.595zM9.937 8H8.033a.627.627 0 00-.546.313.602.602 0 00-.089.322v11.399a.635.635 0 00.635.634h1.904a.626.626 0 00.627-.634v-11.4A.628.628 0 009.936 8z" fill="#42474D"/></g></symbol><symbol id="hair-dryer" viewBox="0 0 33 28"><g fill="none"><path d="M14.745 13.894h1.958A19.948 19.948 0 0025 11.411v-5.8c-2.647-1.542-7.135-2.542-11.4-2.61a5.445 5.445 0 00-3.899 1.558 5.686 5.686 0 00-1.7 3.91 5.51 5.51 0 00.688 2.738 10.706 10.706 0 011.22 5.146v3.026c0 .73.282 1.018.638 1.018h.349v3.518a.866.866 0 00.133.746.835.835 0 00.663.339.815.815 0 00.664-.34.856.856 0 00.133-.745V20.43h4.355a.514.514 0 00.493-.276.544.544 0 00-.036-.572l-1.029-1.763a.542.542 0 01-.075-.28v-2.298h-1.451a.651.651 0 01-.517-.168.679.679 0 01-.221-.506.692.692 0 01.221-.505.661.661 0 01.517-.169zm-1.99-4.315a1.83 1.83 0 01-1.039-.318 1.89 1.89 0 01-.688-.856 1.938 1.938 0 01-.103-1.102 1.91 1.91 0 01.516-.974 1.822 1.822 0 012.037-.394c.34.149.628.397.829.714a1.929 1.929 0 01-.255 2.383 1.838 1.838 0 01-1.298.547z" fill="#42474D"/></g></symbol><symbol id="kids"><g fill="none"><path d="M19.75 21.13c-.83 0-1.5-.84-1.5-1.88 0-1.03.67-1.87 1.5-1.87s1.5.84 1.5 1.87c0 1.04-.67 1.88-1.5 1.88zM16 13.25c-1.24 0-2.25-.84-2.25-1.87 0-1.04 1.01-1.88 2.25-1.88s2.25.84 2.25 1.88c0 1.03-1.01 1.87-2.25 1.87zm-3.75 7.88c-.83 0-1.5-.84-1.5-1.88 0-1.03.67-1.87 1.5-1.87s1.5.84 1.5 1.87c0 1.04-.67 1.88-1.5 1.88zM16 10.25c.41 0 .75.34.75.75s-.34.75-.75.75-.75-.34-.75-.75.34-.75.75-.75zM22.75 14c-.32 0-.63.07-.91.2-.48-.61-1.13-1.13-1.91-1.53.57-.8.91-1.77.91-2.82v-.06c1.09-.23 1.91-1.2 1.91-2.37 0-1.33-1.09-2.42-2.42-2.42-.69 0-1.33.29-1.75.75a4.813 4.813 0 00-5.16 0C13 5.29 12.36 5 11.67 5c-1.33 0-2.42 1.09-2.42 2.42 0 1.16.82 2.13 1.9 2.37v.06c0 1.05.35 2.03.91 2.82-.77.4-1.42.92-1.9 1.53A2.24 2.24 0 007 16.25c0 1.25 1 2.25 2.25 2.25h.06c-.04.24-.06.5-.06.75 0 2.07 1.34 3.75 3 3.75 1.01 0 1.9-.63 2.45-1.59.42.06.85.09 1.3.09.45 0 .88-.03 1.3-.09.55.96 1.44 1.59 2.45 1.59 1.66 0 3-1.68 3-3.75 0-.25-.02-.51-.06-.75h.06c1.25 0 2.25-1 2.25-2.25S24 14 22.75 14z" fill="#42474D"/></g></symbol><symbol id="material" viewBox="0 0 33 28"><g fill="none"><g clip-path="url(#clip0_451_1436)" fill="#42474D"><path d="M16.2 14.5a2.1 2.1 0 114.2 0 2.1 2.1 0 01-4.2 0z"/><path fill-rule="evenodd" clip-rule="evenodd" d="M7.1 4A2.1 2.1 0 005 6.1v15.4a2.1 2.1 0 002.1 2.1h.7V25h1.4v-1.4h12.6V25h1.4v-1.4h.7a2.1 2.1 0 002.1-2.1V6.1A2.1 2.1 0 0023.9 4H7.1zm.7 4.2v4.2h1.4V8.2H7.8zM18.3 11a3.5 3.5 0 100 7 3.5 3.5 0 000-7zM7.8 19.4v-4.2h1.4v4.2H7.8z"/></g></g></symbol><symbol id="news"><g fill="none"><path d="M63.125 36.438a3.292 3.292 0 00-3.292 3.291v13.167a3.292 3.292 0 01-3.292 3.291H10.458a3.292 3.292 0 01-3.292-3.291V21.329l19.355 19.355a9.875 9.875 0 0013.957 0L52.295 28.9a3.305 3.305 0 00-4.674-4.675L35.837 36.042a3.292 3.292 0 01-4.674 0L11.808 16.687h38.15a3.292 3.292 0 100-6.583h-39.5A9.875 9.875 0 00.583 19.98v32.917a9.875 9.875 0 009.875 9.875h46.083a9.875 9.875 0 009.875-9.875V39.729a3.292 3.292 0 00-3.291-3.291zm0-29.626a3.456 3.456 0 002.337-.954l.395-.527c.13-.168.23-.357.296-.56.118-.182.207-.382.263-.592.017-.219.017-.439 0-.658a3.456 3.456 0 00-.954-2.337 3.292 3.292 0 00-4.674 0 3.292 3.292 0 000 4.674c.63.601 1.465.942 2.337.955zm0 3.292a3.292 3.292 0 00-3.292 3.292v13.166a3.292 3.292 0 106.583 0V13.396a3.292 3.292 0 00-3.291-3.292z" fill="#42474D" fill-opacity=".5"/></g></symbol><symbol id="People" viewBox="0 0 33 28"><g fill="none"><path d="M20.667 12.833a3.485 3.485 0 003.488-3.5c0-1.936-1.552-3.5-3.488-3.5a3.495 3.495 0 00-3.5 3.5c0 1.937 1.563 3.5 3.5 3.5zm-9.334 0a3.485 3.485 0 003.489-3.5c0-1.936-1.552-3.5-3.489-3.5a3.495 3.495 0 00-3.5 3.5c0 1.937 1.564 3.5 3.5 3.5zm0 2.334c-2.718 0-8.166 1.365-8.166 4.083V21a1.17 1.17 0 001.166 1.167h14A1.17 1.17 0 0019.5 21v-1.75c0-2.718-5.448-4.083-8.167-4.083zm9.334 0c-.339 0-.724.023-1.132.058.023.012.035.035.047.047 1.33.968 2.251 2.263 2.251 3.978V21c0 .408-.081.805-.21 1.167h6.044A1.17 1.17 0 0028.833 21v-1.75c0-2.718-5.448-4.083-8.166-4.083z" fill="#42474D"/></g></symbol><symbol id="people2" viewBox="0 0 26 18"><g fill="none"><path d="M17.667 7.833a3.485 3.485 0 003.488-3.5c0-1.936-1.552-3.5-3.488-3.5a3.495 3.495 0 00-3.5 3.5c0 1.937 1.563 3.5 3.5 3.5zm-9.334 0a3.485 3.485 0 003.489-3.5c0-1.936-1.552-3.5-3.489-3.5a3.495 3.495 0 00-3.5 3.5c0 1.937 1.564 3.5 3.5 3.5zm0 2.334c-2.718 0-8.166 1.365-8.166 4.083V16a1.17 1.17 0 001.166 1.167h14A1.17 1.17 0 0016.5 16v-1.75c0-2.718-5.448-4.083-8.167-4.083zm9.334 0c-.339 0-.724.023-1.132.058.023.012.035.035.047.047 1.33.968 2.251 2.263 2.251 3.978V16c0 .408-.081.805-.21 1.167h6.044A1.17 1.17 0 0025.833 16v-1.75c0-2.718-5.448-4.083-8.166-4.083z" fill="#42474D"/></g></symbol><symbol id="person-rounded" viewBox="0 0 24 24"><g fill="none"><path d="M12 12c-1.238 0-2.297-.44-3.178-1.322C7.94 9.797 7.5 8.738 7.5 7.5c0-1.237.44-2.297 1.322-3.178C9.703 3.44 10.762 3 12 3s2.297.44 3.178 1.322c.881.881 1.322 1.94 1.322 3.178s-.44 2.297-1.322 3.178C14.297 11.56 13.238 12 12 12zm-6.75 9c-.619 0-1.148-.22-1.588-.66A2.168 2.168 0 013 18.75v-.9c0-.638.164-1.224.493-1.758A3.277 3.277 0 014.8 14.869a16.722 16.722 0 013.544-1.309c1.2-.29 2.418-.435 3.656-.435s2.456.145 3.656.435c1.2.291 2.382.727 3.544 1.309.544.281.98.689 1.307 1.223.329.534.493 1.12.493 1.758v.9a2.17 2.17 0 01-.66 1.59c-.441.44-.971.66-1.59.66H5.25z" fill="#42474D"/></g></symbol><symbol id="ph_sun-fill"><g fill="none"><path d="M6 23c-.55 0-1.02-.196-1.412-.587A1.927 1.927 0 014 21V9c0-.55.196-1.02.588-1.412A1.923 1.923 0 016 7h2c0-1.1.392-2.042 1.175-2.825C9.958 3.392 10.9 3 12 3s2.042.392 2.825 1.175C15.608 4.958 16 5.9 16 7h2c.55 0 1.021.196 1.413.588.391.391.587.862.587 1.412v12c0 .55-.196 1.021-.587 1.413A1.928 1.928 0 0118 23H6zm3-11a.968.968 0 00.713-.288A.967.967 0 0010 11V9H8v2c0 .283.096.52.288.712A.965.965 0 009 12zm1-5h4c0-.55-.196-1.02-.587-1.412A1.927 1.927 0 0012 5c-.55 0-1.02.196-1.412.588A1.923 1.923 0 0010 7zm5 5a.968.968 0 00.713-.288A.967.967 0 0016 11V9h-2v2c0 .283.096.52.288.712A.965.965 0 0015 12z" fill="#42474D"/></g></symbol><symbol id="spa" viewBox="0 0 33 28"><g fill="none"><path d="M22.32 18.743H11.033c-.666 0-1.227.813-1.236 1.821-.008 1.009.553 1.846 1.212 1.846h11.295c.659 0 1.22-.813 1.228-1.822.008-1.008-.545-1.845-1.212-1.845zM19.295 7.635a2.635 2.635 0 11-1.62-2.434 2.627 2.627 0 011.62 2.434z" fill="#42474D"/><path d="M19.108 12.083H14.23a.293.293 0 00-.26.309v9.156a.3.3 0 00.26.317h2.188a.26.26 0 01.512 0h2.187a.301.301 0 00.26-.317v-9.156a.292.292 0 00-.268-.31z" fill="#42474D"/><path d="M24.678 19.182l-.382-.285A11.233 11.233 0 0122.5 17.02a8.528 8.528 0 01-.935-1.684c-.195-.504-.35-1.016-.585-1.512a5.4 5.4 0 00-2.383-2.57 3.904 3.904 0 00-1.049-.357 2.828 2.828 0 00-.594-.066h-.35a3.822 3.822 0 00-1.667.358 5.351 5.351 0 00-2.488 2.44c-.252.48-.43.984-.642 1.488a8.518 8.518 0 01-1.008 1.626c-.55.679-1.181 1.288-1.879 1.814a4.66 4.66 0 01-.39.26 1.065 1.065 0 00-.399 1.431 1.049 1.049 0 001.424.398 10.57 10.57 0 001.626-1.252 10.302 10.302 0 002.44-3.293c.154-.35.284-.7.43-1.05.184-.404.41-.789.675-1.146.177-.21.373-.404.586-.577.177-.126.368-.233.569-.317.16-.056.322-.1.488-.13h.341c.065.007.13.007.196 0h.146c.167.032.33.081.488.146.192.096.374.21.545.341.21.18.4.382.569.602.248.368.458.76.626 1.171.138.358.252.716.39 1.066a10.14 10.14 0 002.326 3.39c.48.492 1.005.936 1.57 1.326a1.05 1.05 0 101.097-1.79l.017.05z" fill="#42474D"/></g></symbol><symbol id="star" viewBox="0 0 33 28"><g fill="none"><path d="M16.5 20.08l-4.605 2.752a1.014 1.014 0 01-.638.165 1.078 1.078 0 01-.583-.22 1.322 1.322 0 01-.388-.482.956.956 0 01-.056-.647l1.221-5.2-4.078-3.495a1.05 1.05 0 01-.346-.565 1.082 1.082 0 01.041-.619 1.18 1.18 0 01.333-.495c.148-.128.351-.21.61-.248l5.382-.467 2.08-4.899a.99.99 0 01.43-.495c.195-.11.393-.165.597-.165.203 0 .402.055.597.165.194.11.337.275.43.495l2.08 4.899 5.381.467c.26.037.463.12.61.248.149.128.26.294.334.495a1.057 1.057 0 01-.305 1.183l-4.078 3.495 1.22 5.201a.956.956 0 01-.055.647 1.322 1.322 0 01-.389.481c-.166.129-.36.202-.582.22a1.014 1.014 0 01-.638-.165L16.5 20.08z" fill="#42474D"/></g></symbol><symbol id="Sun" viewBox="0 0 33 28"><g fill="none"><g clip-path="url(#clip0_451_1425)"><path d="M23.14 14.5a6.64 6.64 0 11-6.64-6.64 6.65 6.65 0 016.64 6.64zM16.5 6.297a.781.781 0 00.781-.781V3.562a.781.781 0 10-1.562 0v1.954a.781.781 0 00.781.78zM9.596 8.699a.791.791 0 001.103 0 .781.781 0 000-1.103L9.322 6.209A.791.791 0 108.21 7.322L9.596 8.7zm-1.3 5.801a.781.781 0 00-.78-.781H5.562a.781.781 0 100 1.562h1.954a.781.781 0 00.78-.781zm1.3 5.8l-1.387 1.378a.791.791 0 000 1.113.83.83 0 00.557.225.81.81 0 00.556-.225l1.377-1.387a.781.781 0 00-1.103-1.103zm6.904 2.403a.781.781 0 00-.781.781v1.953a.781.781 0 101.562 0v-1.953a.782.782 0 00-.781-.78zm6.904-2.402a.781.781 0 00-1.103 1.103l1.377 1.387a.81.81 0 00.556.225.83.83 0 00.557-.225.79.79 0 000-1.113L23.404 20.3zm4.034-6.582h-1.954a.782.782 0 000 1.562h1.953a.781.781 0 100-1.562zm-4.58-4.795a.762.762 0 00.546-.225l1.387-1.377a.79.79 0 00-1.113-1.113L22.3 7.596a.781.781 0 00.255 1.273.762.762 0 00.301.055z" fill="#42474D"/></g></g></symbol><symbol id="Swim" viewBox="0 0 33 28"><g fill="none"><path fill-rule="evenodd" clip-rule="evenodd" d="M1.072 23.54c.17.14 1.9-1.54 2.09-1.94h.1a1 1 0 00.68-.41 5.43 5.43 0 012.76-1.9 6.21 6.21 0 012-.33c2.43 0 4.54 1.44 6.73 2.27 1.19.498 2.462.766 3.75.79.582 0 1.162-.063 1.73-.19a6.57 6.57 0 003.52-1.92c.21-.24 1.54-1.73 1.7-2a1 1 0 00-.27-1.37.82.82 0 00-.54-.16.931.931 0 00-.81.43l-.24.33c-.63.73-2.65 2.51-3.76 2.76a7.38 7.38 0 01-3.14-.11 19.697 19.697 0 01-3.16-1.22 22.632 22.632 0 00-3.59-1.38 7.77 7.77 0 00-1.92-.24 7.922 7.922 0 00-2.63.43 8.001 8.001 0 00-2.05 1 6.89 6.89 0 00-1.67 1.65.735.735 0 00-.09.13c-.21.48-1.59 3.13-1.19 3.38zm22.44-14.28a3.42 3.42 0 116.84.02 3.42 3.42 0 01-6.84-.02zm-13-.43l6.49-1.29.11.41.32 3.59c-.11 0-7.44 2-8.95 2.43 1.018.541 2.1.951 3.22 1.22 4.29 1.16 7.46.49 10.24.65l-3-9.95v-.06a1.16 1.16 0 00-1.33-.81l-7.56 1.52a1.13 1.13 0 00-.89 1.36 1.18 1.18 0 001.35.89v.04z" fill="#42474D"/></g></symbol><symbol id="towel" viewBox="0 0 33 28"><g fill="none"><path d="M29.449 5.278a1.545 1.545 0 00-1.208.582h-2.786a5.066 5.066 0 00-1.748-1.372A5.035 5.035 0 0021.544 4H6.59a3.101 3.101 0 00-1.87.617 3.17 3.17 0 00-.596.58l-.023.03-.01.014-.004.004c-.132.173-.245.36-.34.556l-.013.029a1.55 1.55 0 00-1.623-.488 1.566 1.566 0 00-.365 2.833A1.544 1.544 0 003.44 8.12v6.2c0 .276.11.54.303.734.193.195.455.304.729.304H6.39v6.851c0 .262.104.514.288.699.184.185.434.29.694.29h18.258c.26 0 .51-.105.694-.29a.995.995 0 00.288-.699V9.103c0-.433-.054-.864-.162-1.283h1.79a1.552 1.552 0 001.387.571 1.546 1.546 0 001.22-.877 1.57 1.57 0 00-.65-2.041 1.544 1.544 0 00-.75-.195zm-23.617.373l.005.003a1.6 1.6 0 01.041.032H4.271c.032-.05.065-.1.1-.148l.071-.023.038-.012.08-.024.024-.006a2.726 2.726 0 01.273-.062c.343-.052.694.034.975.24zM2.553 7.997a1.145 1.145 0 01-.984-.557 1.163 1.163 0 01.356-1.57 1.145 1.145 0 011.571.307.201.201 0 00.165.087h2.626c.059.133.093.275.102.42l.002.068v.665H3.66a.2.2 0 00-.165.086 1.154 1.154 0 01-.943.494zm1.919 6.957a.637.637 0 01-.63-.634V7.993H6.39v6.961H4.47zm24.977-6.957a1.146 1.146 0 01-.943-.494l-.06-.086h-2.107a5.243 5.243 0 00-.55-1.153h2.657l.06-.086a1.152 1.152 0 011.017-.493 1.145 1.145 0 01.946.62 1.163 1.163 0 01-.456 1.544 1.144 1.144 0 01-.564.148z" fill="#42474D"/><path d="M25.745 17.279H7.298c-.116 0-.21.13-.21.293v3.25c0 .16.094.292.21.292h18.447c.116 0 .21-.13.21-.293v-3.25c0-.161-.094-.292-.21-.292zM7.088 15.707c0 .162.094.293.21.293h18.447c.116 0 .21-.13.21-.293 0-.162-.094-.293-.21-.293H7.298c-.116 0-.21.131-.21.293z" fill="#E2F0FB"/></g></symbol><symbol id="Water" viewBox="0 0 33 28"><g fill="none"><path d="M16.956 3.708a.893.893 0 100 1.785.893.893 0 000-1.785zm.122 2.462l-1.16-.156a.295.295 0 00-.324.249l-.347 2.636a.289.289 0 00.284.33h1.158a.296.296 0 00.29-.254l.33-2.48a.29.29 0 00-.22-.325h-.011zm6.287-3.911l-.423-1.078a.296.296 0 00-.377-.162L18.19 2.757a.295.295 0 00-.162.377l.429 1.078a.288.288 0 00.376.162l4.37-1.738a.289.289 0 00.173-.377h-.011z" fill="#42474D"/><path d="M21.968 6.622H20.81a.284.284 0 00-.284.267l-.26 3.79h-9.271l-.261-3.79a.284.284 0 00-.284-.267H9.29a.29.29 0 00-.29.307l1.16 17.232a2.317 2.317 0 002.317 2.162h6.299a2.318 2.318 0 002.317-2.162l1.16-17.232a.29.29 0 00-.285-.307zM13.37 23.854h-.057a.724.724 0 01-.719-.672l-.58-7.532a.723.723 0 111.443-.11l.58 7.532a.726.726 0 01-.667.782z" fill="#42474D"/></g></symbol></svg>