<svg id="Layer_1" xmlns="http://www.w3.org/2000/svg" viewBox="0 0 100 100"><style>.st1{display:none}.st2{display:inline}.st2,.st3{fill:none;stroke:#231f20;stroke-width:2;stroke-miterlimit:10}.st4{display:inline}.st5{fill:none;stroke:#000;stroke-width:2;stroke-miterlimit:10}</style><circle cx="50" cy="50.2" r="50" fill="#e2e2e2"/><g class="st1"><path class="st2" d="M63.9 71.7c0-6.6-4.6-12.1-10.8-13.4v-3.4c2.3-1.1 3.9-3.4 3.9-6.2v-3.4c0-3.8-3.1-6.8-6.8-6.8-3.8 0-6.8 3.1-6.8 6.8v3.4c0 2.7 1.6 5 3.8 6.1v3.5c-6.1 1.4-10.7 6.8-10.7 13.4h27.4z"/><path class="st2" d="M57.1 43.3c1-.6 2.1-1.1 3.2-1.3v-2.6c-1.7-.8-2.9-2.6-2.9-4.6v-2.6c0-2.9 2.3-5.2 5.2-5.2 2.9 0 5.2 2.3 5.2 5.2v2.6c0 2.1-1.2 3.8-3 4.7V42c4.7 1 8.2 5.1 8.2 10.1H56.2m-12.5-8.8c-1-.6-2.1-1.1-3.2-1.3v-2.6c1.7-.8 3-2.6 3-4.7v-2.6c0-2.9-2.3-5.2-5.2-5.2-2.8 0-5.2 2.3-5.2 5.2v2.6c0 2 1.2 3.8 2.9 4.6V42c-4.6 1-8.1 5.2-8.1 10.1h15.8"/></g><path class="st3" d="M72.8 29.4H43.7v23.1h6.7v6.6l6.7-6.6h15.7z"/><path class="st3" d="M43.7 42.1H29.8v23.1h7.3l6.7 7.1v-7.1h16.5V52.8"/><ellipse transform="translate(-.13 .189)" class="st3" cx="51" cy="35.5" rx="1.7" ry="1.7"/><ellipse transform="translate(-.13 .217)" class="st3" cx="58.8" cy="35.5" rx="1.7" ry="1.7"/><g class="st1"><path class="st2" d="M25.8 32.3h5.5l9.2 30.8h24.1l3.9-25.5H32.9"/><ellipse class="st2" cx="43.6" cy="69.9" rx="3.1" ry="3.1"/><circle class="st2" cx="61.1" cy="70.1" r="3.1"/><path class="st2" d="M38.9 57.8l2.8 9.4m5.3 2.1h11"/></g><g class="st1"><g class="st4"><path class="st5" d="M23.2 44.2h45.2v24.7H23.2z"/><circle class="st5" cx="46" cy="56.5" r="7.7"/><path class="st5" d="M27.9 48.9v15.3m35.9-15.3v15.3"/></g><g class="st4"><path class="st5" d="M28.7 44.2v-6h45.2v24.7h-5.5"/></g><g class="st4"><path class="st5" d="M33.8 38.7v-6H79v24.7h-5.5"/></g></g><g class="st1"><g class="st4"><circle class="st5" cx="50.8" cy="49.4" r="20.2"/><path class="st5" d="M50.4 34.2v19.1m0 0l6.6-6.6"/></g><circle cx="50.8" cy="49.4" r="25.2" fill="none" stroke="#000" stroke-width="2" stroke-miterlimit="10"/></g></svg>