<svg viewBox="0 0 480 480" xmlns="http://www.w3.org/2000/svg"><path d="M240 0C107.453 0 0 107.453 0 240s107.453 240 240 240 240-107.453 240-240C479.852 107.516 372.484.148 240 0zm0 464C116.29 464 16 363.71 16 240S116.29 16 240 16s224 100.29 224 224c-.14 123.652-100.348 223.86-224 224zm0 0"/><path d="M240 48C133.96 48 48 133.96 48 240s85.96 192 192 192 192-85.96 192-192c-.125-105.988-86.012-191.875-192-192zm8 367.8V392a8 8 0 0 0-16 0v23.8C141.14 411.56 68.441 338.86 64.2 248H88a8 8 0 0 0 0-16H64.2C68.44 141.14 141.14 68.441 232 64.2V88a8 8 0 0 0 16 0V64.2c90.86 4.241 163.559 76.94 167.8 167.8H392a8 8 0 0 0 0 16h23.8c-4.241 90.86-76.94 163.559-167.8 167.8zm0 0"/><path d="M344 232h-81.473A24.003 24.003 0 0 0 240 216c-3.57.012-7.09.832-10.297 2.398l-.047-.07-88-88a8 8 0 0 0-11.312 11.313l88 88 .07.047A23.72 23.72 0 0 0 216 240c-.023 11.676 8.379 21.664 19.887 23.645 11.508 1.976 22.761-4.633 26.64-15.645H344a8 8 0 0 0 0-16zm-104 16a8 8 0 1 1 0-16 8 8 0 0 1 0 16zm0 0"/></svg>