<svg xmlns="http://www.w3.org/2000/svg" viewBox="0 0 660.6 100.8"><path d="M.6 74.7c0-4.9 4.9-14.9 14.7-30-4-.3-8.9-.4-14.7-.4 1.6-4.3 5.5-6.4 11.6-6.4 1.3 0 3.8.2 7.4.7 7.5-10.9 14.5-20 21-27.4C47.1 3.7 51.4 0 53.5 0c1.7 0 4 1.3 6.8 3.9-2.2 1.7-5.3 9.7-9.4 24.1s-6.2 25.6-6.2 33.7c0 5.4 1.2 8.1 3.5 8.1 3.6 0 8-5.1 13.3-15.2l1.8 1.9c-2.1 5.6-4.9 10.1-8.2 13.5-3.3 3.4-6.8 5.1-10.4 5.1-5.9 0-8.9-5.1-8.9-15.2 0-3.3.4-7.6 1.3-12.7-3.4-.5-8.2-1.2-14.3-1.9-6.2 11-12.1 22.9-17.6 35.6C2.1 79.3.6 77.3.6 74.7zM26 40c1.5.3 3.8.8 6.7 1.4s4.7 1 5.5 1.1C40.5 31 44.1 19.8 48.7 8.8 42.8 13.6 35.2 24 26 40z"/><path d="M58.8 64.7c0-6.1 2.1-14.5 6.3-25 4.2-10.5 8.9-19.7 14-27.6C84.2 4.2 88 .2 90.5.2c1.1 0 2.1.9 2.9 2.7.8 1.8 1.2 3.6 1.3 5.4 0 3.1-1.1 7.4-3.4 13.1-2.3 5.6-5.6 11.6-9.9 18-4.3 6.3-8.8 11.4-13.6 15.1-.7 3.9-1.1 7-1.1 9.1v.3c0 4.6 1.4 6.9 4.3 6.9 2.3 0 4.8-1.6 7.4-4.7 2.6-3.1 5-6.9 7-11.3l2.4 1.3c-2.9 6-6.1 10.7-9.7 14.1-3.5 3.4-7.2 5-11 5-5.4 0-8.3-3.5-8.3-10.5zm10.9-16.5c5.3-5.8 10.1-12.8 14.2-21.1 4.2-8.2 6.3-14.2 6.3-17.8-.9 0-2.6 1.9-5.1 5.8-2.5 3.9-5.3 8.9-8.3 15.2-2.9 6.2-5.3 12.2-7.1 17.9z"/><path d="M81.4 64.5c0-6 2.8-12.3 8.4-18.7 5.6-6.4 11.4-9.6 17.4-9.6 4.9 0 7.4 2.2 7.4 6.6 0 4.8-2.6 9.1-7.9 12.8-5.2 3.7-11.1 5.9-17.5 6.6-.1.7-.2 1.4-.2 2.3 0 .7 0 1.3.2 1.9.1.6.4 1.4.8 2.4s1.2 1.9 2.4 2.5c1.2.6 2.6 1 4.4 1 4.1 0 8.2-1.6 12.5-5 4.2-3.3 7.6-7.4 10.3-12.4l2 1.6c-2.7 6-6.5 10.8-11.5 14.4-5 3.6-10.1 5.5-15.5 5.5-4.2 0-7.4-1.1-9.7-3.4-2.3-2.1-3.5-5-3.5-8.5zm9-6c3.9-.5 8-2.4 12.3-5.8s6.5-6.9 6.5-10.4c0-1.3-.6-1.9-1.7-1.9-3 0-6.2 1.9-9.7 5.8-3.4 3.9-5.9 8-7.4 12.3z"/><path d="M118 57.9c.5-.9 1.2-2.3 2-4.2.8-1.8 1.6-3.4 2.3-4.6.7-1.3 1.5-2.5 2.5-3.8 1-1.3 2.2-2.3 3.5-3 1.4-.7 3-1 4.8-1 2.5 0 4.5.7 5.9 2.1 1.4 1.4 2.5 3.5 3.3 6.3 7.1-7 11.5-10.5 13.3-10.5.5 0 1.1.2 1.8.7.7.5 1.2 1.1 1.5 1.9-1.3 0-3.4 1.2-6.3 3.7s-6.1 5.6-9.5 9.4c.1.5.2 1.5.3 3 .2 1.5.3 2.9.5 4.1.2 1.2.5 2.5.9 3.9.4 1.3.9 2.4 1.5 3.2.7.8 1.5 1.2 2.4 1.2 2.1 0 4.5-1.7 7.4-5 2.8-3.3 5-6.7 6.5-9.9l1.6 1.5c-1.9 4.9-4.5 9.1-8 12.8-3.5 3.7-7 5.5-10.5 5.5-4.7 0-7.8-4.1-9.1-12.2-4.1 4.6-8.1 9.5-12.2 14.6-.5.6-1.1.9-1.7.9-.5 0-1-.2-1.3-.6-.3-.4-.5-.9-.5-1.4 0-2.6 5-9.2 14.9-19.7-.3-2-.6-3.5-.8-4.4-.2-.9-.4-1.9-.8-3-.3-1.1-.7-1.8-1.2-2.2-.5-.4-1.1-.6-1.8-.6-.9 0-1.7.3-2.5.8s-1.6 1.4-2.4 2.5c-.8 1.1-1.5 2.2-2.2 3.2-.6 1-1.4 2.4-2.3 4s-1.7 2.9-2.3 3.9l-1.5-3.1zm68.5 4.7c0-4.9 1.5-8.5 4.6-10.6 3.1-2.2 6.7-3.3 10.8-3.3-4.3 4.5-6.5 9.2-6.5 13.9 0 3.6 1.4 6.7 4.2 9.2 2.8 2.5 6.6 3.8 11.5 3.8s9.2-1.2 12.9-3.6c3.7-2.4 5.6-5.7 5.6-9.9 0-3-1.1-5.7-3.3-8.1-2.2-2.4-4.9-4.4-8.1-6.1l-9.5-5.2c-3.1-1.7-5.8-4-8.1-6.6-2.3-2.7-3.4-5.8-3.4-9.1 0-3.8 1.2-7.7 3.5-11.8 2.3-4 5.8-7.5 10.4-10.5 4.6-3 9.7-4.5 15.3-4.5 8.3 0 12.5 3.5 12.5 10.5 0 3.4-.8 7.2-2.4 11.4-1.6 4.2-3.4 7.9-5.5 11-3-.6-4.5-2.3-4.5-5.1 0-1.9 1-5.3 3-10.1 2-4.9 3-8.3 3-10 0-1.3-.4-2.2-1.2-2.9-.8-.6-2.2-1-4.3-1-5.9 0-11 2.3-15.4 7s-6.5 9.2-6.5 13.6c0 2.6 1.1 5 3.3 7.1 2.2 2.1 4.9 3.9 8 5.5 3.1 1.6 6.3 3.3 9.4 5 3.1 1.8 5.8 4.1 8 7 2.2 2.9 3.3 6.3 3.3 10.1 0 6.5-2.8 11.8-8.4 15.7-5.6 3.9-11.9 5.9-19 5.9-6.3 0-11.7-1.6-16.2-4.8-4.8-3.2-7-7.7-7-13.5zm53 9.6c3.9-16 5.9-24.4 6.2-25.4.2-.7.9-1.4 2.1-1.9 1.2-.6 2.4-.8 3.4-.8s1.8.3 2.4.8c.6.6 1 1.3 1 2.3 0 1.1-.5 3.5-1.4 7.4 7.5-10.4 14-15.7 19.5-15.7 4.2 0 6.3 2.9 6.3 8.6 0 2-.6 4.7-1.7 8.1 4.7-7 9.5-10.5 14.5-10.5 2.4 0 4.1.7 5.2 2.2 1.1 1.5 1.6 3.3 1.6 5.5 0 1.8-.6 4.6-1.7 8.2-1.1 3.6-1.7 5.9-1.7 6.9 0 1.8.8 2.7 2.4 2.7 4.2 0 8.7-5.1 13.5-15.4l1.7 2.1c-1.9 5-4.4 9.2-7.5 12.8-3 3.6-6.5 5.4-10.4 5.4-2.5 0-4.4-.7-5.8-2.2-1.3-1.5-2-3.3-2-5.6 0-1.5.5-3.8 1.4-6.8.9-3 1.4-5.1 1.4-6.2 0-2-.8-3-2.3-3-1.5 0-3.2 1.1-5.1 3.2-1.9 2.1-4.5 5.6-7.8 10.4-.9 1.2-1.9 2.9-3.2 5.2-1.2 2.3-2 3.7-2.3 4.2-1.2 0-2.5-.2-3.9-.7-1.4-.5-2.1-1.1-2.1-1.9 0-.5 1.1-3.6 3.3-9.5 2.2-5.9 3.3-10 3.3-12.4 0-2.1-.7-3.1-2.1-3.1-2.7 0-6.5 3-11.3 9-4.8 6-8.4 12.4-10.8 19-1.2 0-2.5-.3-4.1-1-1.2-.8-2-1.4-2-1.9z"/><path d="M308 66.3c0-2.7.7-6.2 2.1-10.6 1.4-4.4 3.3-8.4 5.7-12 2.4-3.7 4.8-5.5 7.1-5.5.9 0 1.6.3 2.1.8.6.5.8 1.2.8 2.2 0 .9-.8 2.7-2.5 5.5s-3.4 5.9-5.1 9.4c-1.7 3.5-2.6 6.5-2.6 9.1 0 2.1.4 3.5 1.1 4.2.7.7 1.8 1.1 3.4 1.1 5.3 0 10.5-5.1 15.7-15.3l1.5 1.6c-2.3 5.8-5.3 10.4-8.9 13.7s-7.4 4.9-11.5 4.9c-2.8 0-5-.8-6.6-2.5s-2.3-4-2.3-6.6zm15.6-40.1c0-1.5.9-2.9 2.5-4 1.7-1.2 3.5-1.8 5.5-1.8 2.9 0 4.3 1.2 4.3 3.7 0 1.4-.8 2.8-2.3 4.1-1.5 1.3-3.2 1.9-5 1.9-1.4 0-2.6-.3-3.5-1-1-.7-1.5-1.6-1.5-2.9z"/><path d="M332.5 66.2c0-5.6 1.9-13.6 5.8-24.1-1.7-.6-2.9-1-3.6-1.3v-3.1c.8.1 1.6.3 2.6.5.9.2 1.7.4 2.3.5 2.9-7.4 6-13.6 9.3-18.7 3.2-5.1 6-7.6 8.2-7.6.7 0 1.4.3 2 .8.6.5.9 1.1.9 1.8 0 1.1-1 3.6-3 7.4-2 3.8-4.1 7.7-6.4 11.6-2.3 4-3.5 6.1-3.7 6.4 3.4.6 6.5.9 9.2.9 3.5 0 7.8-.5 12.9-1.5 3.8-10.1 8.2-19.1 13.1-27.1s9-11.9 12-11.9c1.2 0 2.2.7 2.9 2.2.7 1.4 1.1 3.1 1.1 5 0 4.8-2.2 10.9-6.7 18.2-4.5 7.3-9.6 12.7-15.5 16.1-1.2 2.8-2.3 6.6-3.2 11.4-.9 4.8-1.4 8.5-1.4 11.1 6-15.3 12.7-22.9 20.4-22.9 2.8 0 5 .9 6.4 2.6 1.5 1.8 2.2 3.9 2.2 6.3 0 2.2-.7 5.2-2 9-1.4 3.8-2.1 6.4-2.1 7.7 0 2.2.9 3.3 2.7 3.3 2.2 0 4.9-1.7 8.1-5 3.2-3.4 5.7-7.2 7.6-11.5l1.9 1.9c-2.3 5.5-5.3 9.9-8.8 13.4-3.6 3.5-7.3 5.3-11.2 5.3-2.5 0-4.4-.7-5.8-2-1.4-1.3-2.1-3-2.1-5.1 0-1.4.5-3.8 1.4-7.2 1-3.5 1.5-6 1.5-7.6 0-2.9-1.2-4.4-3.5-4.4-2.2 0-4.3 1.5-6.3 4.4-2 2.9-3.5 6.1-4.7 9.6s-2.5 6.6-4.1 9.5c-1.6 2.9-3.1 4.3-4.6 4.3-1.7 0-3-1.5-3.8-4.5-.8-3-1.2-5.7-1.2-8.2-2.7 4.2-5.9 7.4-9.5 9.8-3.6 2.4-7.3 3.6-11.2 3.6-3.2 0-5.6-.9-7.4-2.7-1.8-2.1-2.7-4.7-2.7-8.2zm7.7-2.4c0 2.9.4 4.9 1.2 6.1s2.2 1.8 4.2 1.8c3.3 0 6.7-1.5 10.1-4.5 3.4-3 6.3-7.1 8.8-12.3.9-4.4 1.9-8.1 3.1-11-4 .8-7.8 1.2-11.3 1.2-3.4 0-7-.4-10.9-1.1-3.5 7.4-5.2 14-5.2 19.8zm37.8-28c4.2-3.6 7.9-8.1 11-13.5s4.6-9.4 4.6-12c-1.4.4-3.7 3.1-7.1 8.3-3.4 5.1-6.3 10.8-8.5 17.2zM426.6 11c0-1.1 1.1-3 3.3-5.5 2.2-2.5 3.4-4.4 3.8-5.5.9 0 1.8.4 2.6 1.1.8.7 1.2 1.5 1.2 2.4 0 .9-.4 1.9-1.2 3.2-.8 1.3-1.9 2.8-3.4 4.6-1.4 1.8-2.4 3.1-2.8 3.8-2.4-1.3-3.5-2.6-3.5-4.1zm-.9 52.7c0-2.3.4-4.1 1.2-5.3.8-1.2 1.9-2.1 3.2-2.6 1.3-.5 2-.9 2.1-1 4.2-4.4 7.4-9 9.6-13.7v-1c0-4.9 1.5-7.3 4.6-7.3 1.5 0 2.3.7 2.4 2 0 .2-.1.7-.3 1.4-.2.8-.3 1.5-.3 2.2 0 1.8 1 5.4 2.9 10.8s2.9 9.8 2.9 13c0 1.1-.1 2.5-.4 4.1 4.5-1.1 8.5-4.9 11.8-11.3l1.2.9c-2.7 7.9-7.4 12.4-13.9 13.4-1.1 2.7-2.8 4.7-5.2 6-2.4 1.4-5.2 2.1-8.3 2.1-4.6 0-8.1-1.4-10.3-4.1-2.1-2.6-3.2-5.9-3.2-9.6zm5.5.1c0 2.4.7 4.5 2 6.4 1.3 1.8 3.1 2.8 5.5 2.8 3 0 5.1-1.3 6.4-3.9-2.6-.5-5-1.5-7.2-3s-4-3.1-5.3-4.9c-.9.1-1.4 1-1.4 2.6zm2.9-6.3c1.1 1.9 2.7 3.7 4.8 5.3 2.1 1.6 4.4 2.7 7 3.3.2-.6.3-1.6.3-3.1 0-1.4-.1-3-.4-4.7-.3-1.7-.5-3-.7-4-.2-1-.6-2.6-1.2-4.9-.6-2.3-1-3.8-1.1-4.4-3.3 5.7-6.2 9.8-8.7 12.5zm58.7 14.2c0-.7.4-1 1.1-1 .2 0 .6.1 1.3.4.7.3 1.8.5 3.2.8 1.4.2 3.1.3 5.1.3 11.3 0 20.7-2.2 28.3-6.7 7.6-4.5 11.4-9.6 11.4-15.5 0-7.9-8.3-11.9-25-11.9h-.2c-.8 0-2.1 0-3.7.1h-3.5c-1 3.6-2.4 9-4.4 16.2-1.9 7.2-3.4 12.3-4.5 15.4-1.9 0-3.6-.5-5.1-1.6-1.4-1.1-2.1-2.4-2.1-3.9 0-1.2.3-2.7 1-4.6l.4-1.2c.1-.3.8-2.4 2-6.1l3.5-10.8 4.2-12.2c1.7-4.6 3.4-9.1 5.2-13.5 1.8-4.4 3.5-8.1 5.2-11.3-2.3.5-4.5 1.2-6.4 2.1s-3.4 1.6-4.5 2.1c-1 .6-1.8.8-2.2.8-.7 0-1.5-.5-2.5-1.4-1-.9-1.5-1.7-1.5-2.4 3.1-1.3 5.5-2.2 7.4-2.9 1.9-.6 4.5-1.3 7.7-1.9s6.6-.9 10-.9c2.2 0 4.3.1 6.3.3 2 .2 4.2.6 6.6 1.3 2.4.7 4.5 1.6 6.2 2.7 1.7 1.1 3.2 2.7 4.3 4.7 1.2 2 1.8 4.4 1.8 7.1 0 9.3-7 15.6-21 19 7.6 1 13.1 3 16.5 6.1 3.4 3.1 5.1 6.4 5.1 10 0 4.5-1.6 8.7-4.8 12.5-3.2 3.8-7.1 6.9-11.9 9.2-4.7 2.3-9.6 4-14.6 5.3-5 1.2-9.7 1.9-14 1.9-7.7.1-11.8-2.8-11.9-8.5zm18.9-37.3c4-.1 7.7-.6 11.1-1.3 3.4-.7 6.6-1.8 9.6-3.2 3-1.4 5.4-3.3 7.1-5.7 1.7-2.4 2.6-5.3 2.6-8.5 0-7.9-6.3-11.9-18.8-11.9-3.8 7.1-7.6 17.3-11.6 30.6zm42.2 30.3c0-6.1 2.1-14.5 6.3-25 4.2-10.5 8.9-19.7 14-27.6C579.3 4.2 583.1.2 585.6.2c1.1 0 2.1.9 2.9 2.7.8 1.8 1.2 3.6 1.3 5.4 0 3.1-1.1 7.4-3.4 13.1-2.3 5.6-5.6 11.6-9.9 18-4.3 6.3-8.8 11.4-13.6 15.1-.7 3.9-1.1 7-1.1 9.1v.3c0 4.6 1.4 6.9 4.3 6.9 2.3 0 4.8-1.6 7.4-4.7 2.6-3.1 5-6.9 7-11.3l2.4 1.3c-2.9 6-6.1 10.7-9.7 14.1-3.5 3.4-7.2 5-11 5-5.5 0-8.3-3.5-8.3-10.5zm10.9-16.5c5.3-5.8 10.1-12.8 14.2-21.1 4.2-8.2 6.3-14.2 6.3-17.8-.9 0-2.6 1.9-5.1 5.8-2.5 3.9-5.3 8.9-8.3 15.2-2.9 6.2-5.3 12.2-7.1 17.9z"/><path d="M577 66c0-4.4 1.3-8.7 3.8-12.9 2.5-4.2 5.3-6.3 8.2-6.3.8 0 1.8.3 3.1.8.4-3.1 1.5-5.7 3.2-7.7 1.7-2 4.2-3 7.4-3 2.8 0 4.9.8 6.2 2.3 1.3 1.5 2 3.5 2 5.9 0 4.6-2.3 10.3-7 17.1.8.4 1.8.6 2.9.6 1.9 0 3.9-.6 6-1.9 2.1-1.2 3.8-3.1 4.9-5.7l1.8 1.3c-1.4 3.2-3.3 5.6-5.6 7.2-2.4 1.7-4.8 2.5-7.4 2.5-1.6 0-3.2-.3-5.1-.9-5.5 6.6-11 10-16.5 10-2.8 0-4.8-.9-6-2.7-1.3-1.7-1.9-3.9-1.9-6.6zm8-.3c0 3.1 1.1 4.6 3.4 4.6s5.5-2.3 9.4-7c-3.7-3.3-5.6-8.3-5.8-14.8-1.3.7-2.8 3-4.5 6.9-1.6 4.1-2.5 7.5-2.5 10.3zm12.5-15.4c0 1.5.3 3.3.8 5.3s1.2 3.5 2.1 4.6c3.9-5.6 5.9-10.5 5.9-15 0-2.9-.9-4.4-2.8-4.4-1.4 0-2.8.9-4 2.8s-2 4-2 6.7z"/><path d="M613.6 93.9c0-1.6.5-3.2 1.4-4.8.9-1.6 1.9-2.9 3-3.9s2.7-2.2 5-3.6c2.2-1.3 3.9-2.3 5-2.8l5.7-2.8c1.7-4.1 3-8.2 4-12.2-5.4 6.6-10.5 9.9-15.2 9.9-2.7 0-4.8-.9-6.3-2.7s-2.3-4.2-2.3-7.2c0-6.8 3.1-12.9 9.3-18.3 6.2-5.4 12.3-8.1 18.5-8.1 2.1 0 3.6.4 4.8 1.1 1.1.8 1.6 1.7 1.6 2.8 0 .7-.2 1.3-.6 1.8-.4.5-.7.8-1 .9-1.2-1.2-2.6-1.8-4.3-1.8h-.2c-4.9 0-9.5 2.6-13.6 7.7s-6.2 9.9-6.2 14.4c0 2.8 1 4.2 3.1 4.2 1.8 0 4-1.2 6.7-3.6 2.6-2.4 5.3-5.4 7.8-9.1.7-3.8 1.6-6.5 2.6-8.2 1-1.7 2.4-2.5 4.3-2.5.9 0 1.8.1 2.9.4 0 1.7-.7 5.2-2.2 10.4-1.5 5.2-3.2 10.6-5.3 16.2 3.3-1.4 6.6-3.6 9.7-6.5 3.1-3 5.3-6.4 6.7-10.2l1.8 1.8c-1.5 4.2-4.1 7.9-7.9 11.3-3.8 3.4-7.6 5.9-11.5 7.7-6.6 16-13.3 24-20.1 24-1.9 0-3.6-.5-4.9-1.6-1.6-1.1-2.3-2.7-2.3-4.7zm4.8-1c0 1.9.6 2.8 1.8 2.8 1.3 0 3.1-1.2 5.2-3.7s4.3-6.2 6.6-11.3c-4.3 2.1-7.7 4.2-10.1 6.1-2.3 1.9-3.5 4-3.5 6.1z"/></svg>