<svg viewBox="0 -42 480 480" xmlns="http://www.w3.org/2000/svg"><path d="M240 144c39.766 0 72-32.234 72-72S279.766 0 240 0s-72 32.234-72 72c.043 39.746 32.254 71.957 72 72zm0-128c30.93 0 56 25.07 56 56s-25.07 56-56 56-56-25.07-56-56c.035-30.914 25.086-55.965 56-56zM72 120c22.09 0 40-17.91 40-40S94.09 40 72 40 32 57.91 32 80c.027 22.082 17.918 39.973 40 40zm0-64c13.254 0 24 10.746 24 24s-10.746 24-24 24-24-10.746-24-24 10.746-24 24-24zm336 64c22.09 0 40-17.91 40-40s-17.91-40-40-40-40 17.91-40 40c.027 22.082 17.918 39.973 40 40zm0-64c13.254 0 24 10.746 24 24s-10.746 24-24 24-24-10.746-24-24 10.746-24 24-24zm0 0"/><path d="M440 120c-1.73 0-3.414.563-4.8 1.602L408 142l-27.2-20.398A8.006 8.006 0 0 0 376 120a39.6 39.6 0 0 0-32.855 17.426A87.333 87.333 0 0 0 304 128a8.001 8.001 0 0 0-5.656 2.344L240 188.688l-58.344-58.344A8.001 8.001 0 0 0 176 128a87.333 87.333 0 0 0-39.145 9.426A39.6 39.6 0 0 0 104 120c-1.73 0-3.414.563-4.8 1.602L72 142l-27.2-20.398A8.006 8.006 0 0 0 40 120c-22.082.027-39.973 17.918-40 40v71.121a24.079 24.079 0 0 0 11.281 20.383l48.95 30.61a24.38 24.38 0 0 0 12.664 3.534 23.926 23.926 0 0 0 10.68-2.488L88 280.945v36.657a23.994 23.994 0 0 0 14.273 21.949l121.504 53.992a39.817 39.817 0 0 0 32.43 0l121.512-54A23.996 23.996 0 0 0 392 317.602v-44.68l5.297 2.629a23.977 23.977 0 0 0 21.398 0l48-24A23.88 23.88 0 0 0 480 230.078V160c-.027-22.082-17.918-39.973-40-40zM76.426 268.8a8.143 8.143 0 0 1-7.785-.343l-48.801-30.52a8.25 8.25 0 0 1-3.84-6.816V160c0-12.29 9.281-22.594 21.504-23.871l29.695 22.27a7.992 7.992 0 0 0 9.602 0l29.695-22.27a23.78 23.78 0 0 1 16.703 9.512c-.535.398-1 .87-1.527 1.28-1.238.974-2.399 2-3.602 3.032-1.535 1.336-3.03 2.695-4.46 4.125a93.938 93.938 0 0 0-3.204 3.395 85.819 85.819 0 0 0-3.87 4.617c-.942 1.215-1.864 2.398-2.743 3.695-1.16 1.656-2.227 3.36-3.266 5.086a70.407 70.407 0 0 0-2.261 3.93c-.961 1.816-1.817 3.68-2.649 5.597-.594 1.344-1.219 2.672-1.746 4.059-.8 2.008-1.39 4.063-2.016 6.137-.398 1.336-.855 2.636-1.19 4-.575 2.316-.978 4.695-1.36 7.07-.192 1.168-.473 2.313-.618 3.488A89.13 89.13 0 0 0 88 216v47.055zM376 317.603a8 8 0 0 1-4.8 7.328l-121.505 54.008a23.794 23.794 0 0 1-19.406 0L108.801 324.93a8 8 0 0 1-4.801-7.328V216a72.73 72.73 0 0 1 2.313-18.238c8.07-30.492 34.984-52.223 66.488-53.692l61.597 61.602c3.125 3.125 8.192 3.125 11.313 0l61.602-61.602c38.41 1.832 68.628 33.477 68.687 71.93zm88-87.524a8.003 8.003 0 0 1-4.465 7.203l-48 24a7.943 7.943 0 0 1-7.078 0L392 255.04V216a89.72 89.72 0 0 0-.688-10.887c-.144-1.183-.425-2.328-.617-3.496-.39-2.402-.8-4.746-1.36-7.058-.335-1.368-.8-2.68-1.198-4-.617-2.055-1.242-4.102-2-6.102-.535-1.394-1.168-2.738-1.77-4.098a74.097 74.097 0 0 0-2.625-5.52c-.71-1.35-1.504-2.663-2.285-4a103.06 103.06 0 0 0-3.2-5.023 93.673 93.673 0 0 0-2.792-3.761c-1.219-1.598-2.48-3.063-3.809-4.543a87.644 87.644 0 0 0-3.258-3.457c-1.406-1.414-2.886-2.75-4.398-4.07-1.191-1.04-2.398-2.083-3.648-3.063-.52-.41-.985-.883-1.52-1.281a23.772 23.772 0 0 1 16.695-9.512l29.672 22.27a7.992 7.992 0 0 0 9.602 0l29.695-22.27C454.72 137.406 464 147.71 464 160zm0 0"/></svg>