<svg viewBox="0 -28 480 480" xmlns="http://www.w3.org/2000/svg"><path d="M456 136H304V24c0-13.254-10.746-24-24-24H24C10.746 0 0 10.746 0 24v192c0 13.254 10.746 24 24 24h152v78.113l-47.16 94.313a8.001 8.001 0 0 0 1.265 9.004 8.009 8.009 0 0 0 8.872 2.004L257.535 376H456c13.254 0 24-10.746 24-24V160c0-13.254-10.746-24-24-24zM24 224a8 8 0 0 1-8-8V24a8 8 0 0 1 8-8h256a8 8 0 0 1 8 8v112h-20.45a31.665 31.665 0 0 0 4.45-16c0-17.672-14.328-32-32-32s-32 14.328-32 32a31.665 31.665 0 0 0 4.45 16H200c-13.254 0-24 10.746-24 24v64zm200-104c0-8.836 7.164-16 16-16s16 7.164 16 16-7.164 16-16 16-16-7.164-16-16zm240 232a8 8 0 0 1-8 8H256c-1.02 0-2.027.191-2.977.566l-100.457 40.235 38.633-77.227A8.024 8.024 0 0 0 192 320V160a8 8 0 0 1 8-8h256a8 8 0 0 1 8 8zm0 0"/><path d="M152 88c-17.672 0-32 14.328-32 32s14.328 32 32 32 32-14.328 32-32-14.328-32-32-32zm0 48c-8.836 0-16-7.164-16-16s7.164-16 16-16 16 7.164 16 16-7.164 16-16 16zM64 88c-17.672 0-32 14.328-32 32s14.328 32 32 32 32-14.328 32-32-14.328-32-32-32zm0 48c-8.836 0-16-7.164-16-16s7.164-16 16-16 16 7.164 16 16-7.164 16-16 16zm264 88c-17.672 0-32 14.328-32 32s14.328 32 32 32 32-14.328 32-32-14.328-32-32-32zm0 48c-8.836 0-16-7.164-16-16s7.164-16 16-16 16 7.164 16 16-7.164 16-16 16zm88-48c-17.672 0-32 14.328-32 32s14.328 32 32 32 32-14.328 32-32-14.328-32-32-32zm0 48c-8.836 0-16-7.164-16-16s7.164-16 16-16 16 7.164 16 16-7.164 16-16 16zm-176-48c-17.672 0-32 14.328-32 32s14.328 32 32 32 32-14.328 32-32-14.328-32-32-32zm0 48c-8.836 0-16-7.164-16-16s7.164-16 16-16 16 7.164 16 16-7.164 16-16 16zm0 0"/></svg>