<svg width="30" height="24" fill="none" xmlns="http://www.w3.org/2000/svg"><path d="M3.57.878A.878.878 0 002.694 0H.878A.878.878 0 000 .878v11.707c0 .485.393.878.878.878h1.815a.878.878 0 00.878-.878V8.78h1.756V4.683H3.57V.878zM29.093 0H27.28a.878.878 0 00-.878.878v3.805h-1.756V8.78H26.4v3.805c0 .485.393.878.878.878h1.814a.878.878 0 00.878-.878V.878A.878.878 0 0029.093 0zm-8.182 2.341a1.976 1.976 0 00-1.975 1.976 1.976 1.976 0 10-3.951 0 1.976 1.976 0 10-3.952 0 1.976 1.976 0 10-3.951 0v3.689a4.073 4.073 0 011.756-.396h5.854a2.638 2.638 0 012.634 2.634v.293c0 .188-.011.374-.033.556a1.976 1.976 0 001.643-1.947 1.976 1.976 0 103.95 0V4.317a1.976 1.976 0 00-1.975-1.976z" fill="#42474D"/><path d="M18.937 12.31a3.71 3.71 0 01-1.976.568h-.03a4.102 4.102 0 01-3.701 2.341h-1.171v.268c0 .473-.363.88-.836.902a.878.878 0 01-.92-.877v-1.17c0-.486.393-.879.878-.879h1.463a2.927 2.927 0 002.927-2.926v-.293a.878.878 0 00-.878-.878H8.84a2.342 2.342 0 00-2.342 2.341v3.805a4.396 4.396 0 004.098 4.38v3.23c0 .485.393.878.878.878h7.024a.878.878 0 00.878-.878v-3.308a4.398 4.398 0 003.512-4.302V12.31a3.7 3.7 0 01-1.975.568 3.709 3.709 0 01-1.976-.568z" fill="#42474D"/></svg>