<svg viewBox="0 0 49 36" fill="none" xmlns="http://www.w3.org/2000/svg"><rect x=".836" y="12.836" width="4.329" height="9.329" rx="2.164" fill="#42474D" stroke="#42474D" stroke-width="1.671"/><rect x="4.836" y="3.836" width="5.329" height="27.329" rx="2.664" stroke="#42474D" stroke-width="1.671"/><rect x="10.836" y=".836" width="5.329" height="34.329" rx="2.664" stroke="#42474D" stroke-width="1.671"/><rect x="-.836" y=".836" width="4.329" height="9.329" rx="2.164" transform="matrix(-1 0 0 1 47.329 12)" fill="#42474D" stroke="#42474D" stroke-width="1.671"/><rect x="-.836" y=".836" width="5.329" height="27.329" rx="2.664" transform="matrix(-1 0 0 1 43.329 3)" stroke="#42474D" stroke-width="1.671"/><rect x="-.836" y=".836" width="5.329" height="34.329" rx="2.664" transform="matrix(-1 0 0 1 37.329 0)" stroke="#42474D" stroke-width="1.671"/><path stroke="#42474D" stroke-width="1.671" d="M15.836 12.836h16.329v9.329H15.836zM32 18h-9"/><path fill="#000" stroke="#42474D" d="M20.5 17.5h1v1h-1z"/></svg>