<svg viewBox="0 0 15 18" xmlns="http://www.w3.org/2000/svg"><path fill="currentColor" d="M7.519 9c.481 0 .893-.171 1.236-.514.343-.343.514-.755.514-1.236s-.171-.893-.514-1.236A1.687 1.687 0 007.52 5.5c-.481 0-.893.171-1.235.514A1.686 1.686 0 005.77 7.25c0 .481.172.893.515 1.236.342.342.754.514 1.235.514zm0 8.75c-2.348-1.998-4.101-3.854-5.26-5.568C1.099 10.47.519 8.883.519 7.425c0-2.188.704-3.93 2.111-5.228C4.037.899 5.667.25 7.52.25c1.852 0 3.482.649 4.889 1.947s2.111 3.04 2.111 5.228c0 1.458-.58 3.044-1.739 4.757-1.16 1.714-2.913 3.57-5.261 5.568z"/></svg>