<svg width="17" height="30" fill="none" xmlns="http://www.w3.org/2000/svg"><path d="M0 4.105l3.902-2.043C6.05.94 8.028.012 8.3 0c.272-.01 2.291.908 4.487 2.042l3.993 2.063-4.195.111a189.25 189.25 0 01-8.39 0L0 4.105zm.195 10.41V5.087H17l-.11 4.616-.11 4.615-3.61.113-3.61.113v-3.958h2.147c1.648 0 2.146-.136 2.146-.589 0-.493-.823-.59-5.073-.59-4.249 0-5.073.097-5.073.59 0 .445.477.59 1.951.59H7.61v3.928H.195zm0 10.213V15.3H7.61v4.322H5.658c-1.474 0-1.95.144-1.95.589 0 .493.823.589 5.072.589 4.25 0 5.074-.096 5.074-.59 0-.452-.5-.588-2.147-.588H9.561V15.3h7.414v9.427H.195zm4.257 3.324C2.286 26.98.432 25.97.332 25.808c-.101-.161 3.526-.294 8.058-.294 4.533 0 8.16.133 8.059.294-.1.162-1.954 1.172-4.12 2.244L8.39 30l-3.938-1.948z" fill="#42474D"/></svg>