<svg viewBox="0 0 55 55" fill="none" xmlns="http://www.w3.org/2000/svg">
<path d="M37.8477 9C30.9165 9 27.5 15.9091 27.5 15.9091C27.5 15.9091 24.0835 9 17.1523 9C11.5194 9 7.05874 13.7651 7.00109 19.451C6.88365 31.2537 16.2608 39.6471 26.5391 46.7008C26.8225 46.8958 27.1573 47 27.5 47C27.8427 47 28.1775 46.8958 28.4609 46.7008C38.7381 39.6471 48.1153 31.2537 47.9989 19.451C47.9413 13.7651 43.4806 9 37.8477 9V9Z" stroke="black" stroke-width="1.99674" stroke-linecap="round" stroke-linejoin="round"/>
<path d="M5 27.2H17.1154L22.3077 17L27.5 34L32.6923 23.8L36.1538 30.6H50" stroke="black" stroke-width="3.4375" stroke-linecap="round" stroke-linejoin="round"/>
</svg>
