<svg width="35" height="50" viewBox="0 0 35 50" fill="none" xmlns="http://www.w3.org/2000/svg">
<path d="M17.1818 0C7.68273 0 0 7.68273 0 17.1818C0 30.0682 17.1818 49.0909 17.1818 49.0909C17.1818 49.0909 34.3636 30.0682 34.3636 17.1818C34.3636 7.68273 26.6809 0 17.1818 0ZM17.1818 23.3182C15.5544 23.3182 13.9935 22.6717 12.8428 21.5209C11.692 20.3701 11.0455 18.8093 11.0455 17.1818C11.0455 15.5544 11.692 13.9935 12.8428 12.8428C13.9935 11.692 15.5544 11.0455 17.1818 11.0455C18.8093 11.0455 20.3701 11.692 21.5209 12.8428C22.6717 13.9935 23.3182 15.5544 23.3182 17.1818C23.3182 18.8093 22.6717 20.3701 21.5209 21.5209C20.3701 22.6717 18.8093 23.3182 17.1818 23.3182Z" fill="#42474D"/>
</svg>
