<svg viewBox="0 0 53 29" fill="none" xmlns="http://www.w3.org/2000/svg">
<circle cx="25.4383" cy="6.85431" r="6.13086" stroke="#42474D" stroke-width="1.4469"/>
<circle cx="10.2612" cy="8.61801" r="5.64127" stroke="#42474D" stroke-width="1.4469"/>
<path d="M5.38112 27.4172H15.6503C15.6503 24.458 15.6503 21.0366 15.6503 17.6153C15.9042 16.2515 16.2901 15.5625 17.3841 14.6878C14.2254 14.6878 7.27632 14.6878 4.74939 14.6878C2.22245 14.6878 1.16956 17.2337 0.958984 18.5066V27.4172H5.38112ZM5.38112 27.4172V21.689" stroke="#42474D" stroke-width="1.36854"/>
<circle r="5.64127" transform="matrix(-1 0 0 1 42.9146 8.61801)" stroke="#42474D" stroke-width="1.4469"/>
<path d="M47.7947 27.4172H37.5255C37.5255 24.458 37.5255 21.0366 37.5255 17.6153C37.2716 16.2515 36.8857 15.5625 35.7917 14.6878C38.9504 14.6878 45.8995 14.6878 48.4264 14.6878C50.9533 14.6878 52.0062 17.2337 52.2168 18.5066V27.4172H47.7947ZM47.7947 27.4172V21.689" stroke="#42474D" stroke-width="1.36854"/>
<path d="M32.3243 27.4172H37.1886C37.1886 25.3609 37.1886 20.5629 37.1886 17.8212C37.1886 15.0795 34.8722 13.9371 33.7141 13.7086C30.2395 13.7086 22.5956 13.7086 19.8159 13.7086C17.0363 13.7086 15.8781 16.4503 15.6465 17.8212V27.4172H20.5108M32.3243 27.4172V21.2484M32.3243 27.4172H20.5108M20.5108 27.4172V21.2484" stroke="#42474D" stroke-width="1.4469"/>
</svg>
