<svg width="47" height="37" fill="none" xmlns="http://www.w3.org/2000/svg"><rect x=".5" y=".5" width="46" height="36" rx="5.5" stroke="#FFFEDA"/><path d="M26.855 7.958h-7.667a2.396 2.396 0 00-2.396 2.396v16.292a2.396 2.396 0 002.396 2.396h7.667a2.396 2.396 0 002.395-2.396V10.354a2.396 2.396 0 00-2.395-2.396zM23.02 28.083a1.436 1.436 0 01-1.437-1.437c0-.796.642-1.438 1.437-1.438.796 0 1.438.643 1.438 1.438 0 .795-.642 1.437-1.438 1.437zm4.313-3.833h-8.625V10.833h8.625V24.25z" fill="#FFFEDA"/></svg>