<svg width="17" height="20" fill="none" xmlns="http://www.w3.org/2000/svg"><path d="M12.98 13.387H4.84c-.48 0-.885.581-.89 1.301-.007.72.398 1.319.873 1.319h8.146c.475 0 .88-.581.886-1.301.006-.72-.393-1.319-.874-1.319zm-2.178-7.934c0 .373-.111.737-.32 1.046a1.91 1.91 0 01-.854.694 1.917 1.917 0 01-2.072-.411 1.865 1.865 0 01-.408-2.053c.145-.344.39-.637.703-.843a1.913 1.913 0 011.783-.171 1.896 1.896 0 011.026 1.019c.095.228.143.472.142.72z" fill="#42474D"/><path d="M10.666 8.63H7.147a.212.212 0 00-.138.074.208.208 0 00-.05.147v6.54a.217.217 0 00.188.226h1.578a.186.186 0 01.184-.152.189.189 0 01.185.153h1.578a.217.217 0 00.187-.226v-6.54a.207.207 0 00-.05-.15.212.212 0 00-.143-.071z" fill="#42474D"/><path d="M14.683 13.701l-.276-.203a8.054 8.054 0 01-1.296-1.342 6.074 6.074 0 01-.674-1.202c-.14-.36-.252-.726-.422-1.08a3.871 3.871 0 00-1.719-1.836 2.833 2.833 0 00-.756-.255 2.053 2.053 0 00-.428-.047h-.253a2.776 2.776 0 00-1.202.256c-.778.366-1.41.98-1.794 1.742-.182.343-.311.703-.464 1.063a6.073 6.073 0 01-.727 1.162c-.397.485-.852.92-1.355 1.295-.09.067-.184.129-.281.186a.754.754 0 00-.287 1.022.763.763 0 001.026.285c.419-.26.812-.56 1.173-.895A7.366 7.366 0 006.707 11.5c.111-.25.205-.5.31-.75.133-.289.296-.563.488-.818.127-.15.268-.289.422-.413.128-.09.266-.166.41-.226.115-.04.233-.071.352-.093h.247a.592.592 0 00.14 0h.106c.12.023.238.058.352.104.138.07.27.15.393.244.151.129.289.273.41.43.18.263.33.543.452.837.1.255.182.51.281.76a7.241 7.241 0 001.678 2.423c.345.35.724.668 1.132.946a.76.76 0 001.143-.521.741.741 0 00-.352-.757l.012.035z" fill="#42474D"/></svg>