<svg width="15" height="10" fill="none" xmlns="http://www.w3.org/2000/svg"><path fill-rule="evenodd" clip-rule="evenodd" d="M.52 9.77c.082.07.92-.77 1.013-.97h.048a.475.475 0 00.33-.205 2.633 2.633 0 011.338-.95c.312-.11.64-.165.97-.165 1.178 0 2.201.72 3.263 1.135A4.827 4.827 0 009.3 9.01c.282 0 .563-.032.839-.095a3.16 3.16 0 001.707-.96c.101-.12.746-.865.824-1a.512.512 0 00-.131-.685.389.389 0 00-.262-.08.44.44 0 00-.393.215l-.116.165c-.306.365-1.285 1.255-1.823 1.38a3.473 3.473 0 01-1.523-.055 9.377 9.377 0 01-1.532-.61c-.56-.28-1.142-.511-1.74-.69a3.66 3.66 0 00-.931-.12 3.735 3.735 0 00-1.275.215 3.831 3.831 0 00-.994.5 3.393 3.393 0 00-.854.89C.995 8.32.326 9.645.52 9.77zM11.4 2.63c0-.337.098-.667.28-.948a1.67 1.67 0 01.745-.627c.303-.13.636-.163.957-.097.322.067.617.23.848.468.232.239.39.543.454.874a1.76 1.76 0 01-.093.987 1.7 1.7 0 01-.61.768 1.623 1.623 0 01-2.096-.21 1.716 1.716 0 01-.36-.558 1.758 1.758 0 01-.126-.657zm-6.304-.215l3.147-.645.053.205.156 1.795c-.054 0-3.608 1-4.34 1.215.494.27 1.018.476 1.561.61 2.08.58 3.617.245 4.965.325L9.184.945v-.03a.578.578 0 00-.247-.33.548.548 0 00-.398-.075l-3.666.76a.539.539 0 00-.355.246.575.575 0 00-.076.434.59.59 0 00.242.357.557.557 0 00.412.088v.02z" fill="#42474D"/></svg>