<svg viewBox="0 0 19 18" fill="none" xmlns="http://www.w3.org/2000/svg"><path fill="currentColor" d="M5.038 14a.968.968 0 00.713-.288.967.967 0 00.287-.712.97.97 0 00-.287-.713.97.97 0 00-.713-.287.97.97 0 00-.713.287.97.97 0 00-.287.713c0 .283.096.52.287.712.192.192.43.288.713.288zm0-4a.968.968 0 00.713-.288A.967.967 0 006.038 9a.97.97 0 00-.287-.713A.97.97 0 005.038 8a.97.97 0 00-.713.287.97.97 0 00-.287.713c0 .283.096.52.287.712.192.192.43.288.713.288zm0-4a.968.968 0 00.713-.288A.967.967 0 006.038 5a.97.97 0 00-.287-.713A.97.97 0 005.038 4a.97.97 0 00-.713.287.97.97 0 00-.287.713c0 .283.096.52.287.712.192.192.43.288.713.288zm3 8h6v-2h-6v2zm0-4h6V8h-6v2zm0-4h6V4h-6v2zm-6 12c-.55 0-1.02-.196-1.413-.587A1.928 1.928 0 01.038 16V2c0-.55.196-1.021.587-1.413A1.928 1.928 0 012.038 0h14c.55 0 1.021.196 1.413.587.391.392.587.863.587 1.413v14a1.93 1.93 0 01-.587 1.413 1.928 1.928 0 01-1.413.587h-14z"/></svg>