<svg width="32" height="30" fill="none" xmlns="http://www.w3.org/2000/svg"><g clip-path="url(#clip0_2564_7685)" fill="#42474D"><path d="M27.488 7.365l1.07 1.088L32 4.767l-3.444-3.685-1.069 1.088 2.375 2.597-2.375 2.598z"/><path d="M23.329 9.244L27.518 4.8l.03-.032-4.22-4.476-1.121 1.142 3.1 3.335-3.1 3.335 1.122 1.141zm-9.127-6.887a3.311 3.311 0 014.736 0 3.456 3.456 0 01.178 4.623l.003 1.789c.276-.182.532-.393.764-.63 1.827-1.859 1.827-4.886 0-6.745a4.634 4.634 0 00-6.626 0c-1.826 1.86-1.827 4.887 0 6.746.257.261.543.491.853.685l-.005-1.752a3.456 3.456 0 01.097-4.716z"/><path d="M29.907 21.243l-.006-1.291-.017-4.362a2.575 2.575 0 00-.734-1.793 2.486 2.486 0 00-.81-.554 2.45 2.45 0 00-.957-.193h-.061a2.41 2.41 0 00-1.152.32 2.553 2.553 0 00-.918-1.263 2.482 2.482 0 00-1.47-.478h-.048a2.42 2.42 0 00-1.306.417 2.6 2.6 0 00-.465-.653 2.45 2.45 0 00-1.712-.744h-.054a2.453 2.453 0 00-1.073.251l-.004-2.13-.004-1.789-.003-1.626a2.66 2.66 0 00-.752-1.839 2.45 2.45 0 00-1.717-.744h-.054c-1.38.01-2.495 1.158-2.49 2.562l.006 1.74.005 1.753.021 7.152a2.464 2.464 0 00-2.395-.487h-.003l-.004.001c-1.313.436-2.034 1.878-1.607 3.215l.946 2.963.002.006.003.007.897 2.707a8.399 8.399 0 001.966 3.224c1.457 1.484 3.377 2.33 5.406 2.383h.004L19.6 30h.004l1.78-.008a8.452 8.452 0 004.359-1.233c2.432-1.483 3.899-3.786 4.132-6.486a7.33 7.33 0 00.035-.692v-.004l-.002-.334zm-10.532 7.474c-1.749-.046-3.36-.797-4.55-2.008a7.068 7.068 0 01-1.662-2.729l-.897-2.706-.946-2.963a1.29 1.29 0 01.074-.968 1.254 1.254 0 011.108-.694 1.239 1.239 0 011.19.877l.796 2.49.045.14a.434.434 0 00.424.317.444.444 0 00.45-.46L15.36 5.328a1.29 1.29 0 01.362-.9c.233-.238.55-.373.88-.375h.024c.319.006.622.138.846.369.244.25.382.586.383.938l.04 12.655c0 .143.056.28.154.383a.536.536 0 00.371.166h.019c.3-.001.543-.273.541-.581l-.018-4.777c-.001-.337.129-.66.362-.9a1.24 1.24 0 01.88-.376h.024c.319.006.622.138.846.37.244.249.382.586.383.939l.021 5.424c0 .143.055.28.154.383a.536.536 0 00.39.166c.3-.001.543-.273.542-.581l-.019-4.404c-.002-.699.532-1.3 1.219-1.317h.023c.331-.001.65.131.884.369.235.237.368.56.37.896l.02 5.246a.557.557 0 00.165.383.537.537 0 00.76-.003.557.557 0 00.16-.384l-.014-3.77c-.003-.698.532-1.3 1.218-1.316h.023c.331-.002.65.13.884.368.235.237.368.56.37.896l.017 4.362.005 1.292.002.335c0 .112-.01.441-.027.549-.202 2.443-1.566 4.33-3.53 5.528a7.206 7.206 0 01-3.716 1.051l-1.78.008-.221-.003zM5.512 2.17l-1.07-1.087L1 4.768l3.444 3.685 1.069-1.088-2.375-2.597L5.512 2.17z"/><path d="M9.671.291L5.482 4.736l-.03.032 4.22 4.476 1.121-1.142-3.1-3.334 3.1-3.336L9.671.291z"/></g><defs><clipPath id="clip0_2564_7685"><path fill="#fff" d="M0 0h32v30H0z"/></clipPath></defs></svg>