<svg viewBox="0 0 18 21" fill="none" xmlns="http://www.w3.org/2000/svg"><path fill="currentColor" d="M9 21c-.133 0-.258-.021-.375-.064a.87.87 0 01-.325-.217L6 18.372H2c-.55 0-1.021-.2-1.413-.6-.391-.4-.587-.88-.587-1.441V2.04C0 1.48.196 1 .587.6.979.2 1.45 0 2 0h14c.55 0 1.021.2 1.413.6.391.4.587.88.587 1.441v14.29c0 .56-.196 1.042-.587 1.442-.392.4-.863.599-1.413.599h-4l-2.3 2.347a.87.87 0 01-.325.217A1.078 1.078 0 019 21zm0-10.793c.967 0 1.792-.35 2.475-1.047S12.5 7.62 12.5 6.634c0-.986-.342-1.828-1.025-2.526C10.792 3.411 9.967 3.062 9 3.062c-.967 0-1.792.349-2.475 1.046-.683.698-1.025 1.54-1.025 2.526 0 .987.342 1.829 1.025 2.526.683.698 1.508 1.047 2.475 1.047zm0 8.369l2.2-2.245H16v-1.174a10.08 10.08 0 00-3.137-2.131c-1.192-.519-2.48-.778-3.863-.778s-2.67.26-3.862.778A10.075 10.075 0 002 15.156v1.175h4.8L9 18.576z"/></svg>