<?xml version="1.0" encoding="utf-8"?><svg xmlns="http://www.w3.org/2000/svg" xmlns:xlink="http://www.w3.org/1999/xlink"><symbol viewBox="0 0 74 74" fill="none" id="adv-1" xmlns="http://www.w3.org/2000/svg"><circle cx="44.991" cy="26.991" r="18.991" fill="#E2F0FB"/><g clip-path="url(#aa)"><path d="M28.125 22.167c0-3.958 6.016-7.167 13.438-7.167C48.983 15 55 18.209 55 22.167c0 3.957-6.016 7.166-13.438 7.166-7.42 0-13.437-3.208-13.437-7.166ZM41.563 36.5C48.983 36.5 55 33.291 55 29.333V25.75c0 3.958-6.016 7.167-13.438 7.167-7.42 0-13.437-3.21-13.437-7.167v3.583c0 3.958 6.016 7.167 13.438 7.167Zm-18.813 0C16.812 36.5 12 41.312 12 47.25S16.812 58 22.75 58 33.5 53.188 33.5 47.25 28.688 36.5 22.75 36.5Zm1.792 10.75v5.375h-3.584V47.25h-4.396l4.814-4.814a1.913 1.913 0 0 1 2.705 0l4.816 4.814h-4.355Zm17.02 7.258c-2.153 0-4.188-.27-5.993-.75a14.385 14.385 0 0 1-1.963 2.943c2.227.874 4.979 1.392 7.956 1.392 7.422 0 13.438-3.209 13.438-7.167v-3.583c0 3.958-6.016 7.165-13.438 7.165Zm0-14.333c-2.601 0-5.029-.394-7.085-1.077a14.226 14.226 0 0 1 2.006 4.13c1.568.342 3.283.53 5.08.53 7.42 0 13.437-3.209 13.437-7.167v-3.583c0 3.958-6.016 7.167-13.438 7.167Zm0 7.166c-1.573 0-3.081-.145-4.484-.41a14.444 14.444 0 0 1-.333 3.519c1.496.306 3.119.475 4.818.475 7.42 0 13.437-3.21 13.437-7.167v-3.583c0 3.958-6.016 7.166-13.438 7.166Z" fill="#42474D"/></g><defs><clipPath id="aa"><path fill="#fff" transform="translate(12 15)" d="M0 0h43v43H0z"/></clipPath></defs></symbol><symbol viewBox="0 0 49 49" fill="none" id="adv-2" xmlns="http://www.w3.org/2000/svg"><rect width="49" height="49" rx="24.5" fill="#fff"/><circle cx="29.79" cy="17.873" r="12.575" fill="#E2F0FB"/><path d="M12.865 21.466v11.76l-2.544 1.468.429-1.598a.51.51 0 1 0-.985-.264l-.748 2.787a.51.51 0 0 0 .361.625l2.787.746a.51.51 0 0 0 .264-.984l-1.598-.428 2.544-1.47-.51-.295v-.586l2.02-1.169 2.32-1.338a.508.508 0 0 1 .764.374.511.511 0 0 1-.254.509l-4.34 2.505L23.575 40V27.908L14.7 22.57l-1.836-1.105ZM22.046 13.057a.51.51 0 0 0 .361-.15l1.17-1.169v2.859l.51-.294.51.294V11.74l1.169 1.17a.51.51 0 0 0 .72-.722l-2.04-2.04a.51.51 0 0 0-.72 0l-2.04 2.04a.51.51 0 0 0 .36.868ZM39.15 35.619l-.746-2.787a.51.51 0 1 0-.986.265l.429 1.597-2.544-1.469V21.467l-10.71 6.44V40l10.2-5.89-4.34-2.504a.512.512 0 0 1 .51-.887l4.34 2.509v.586l-.51.294 2.544 1.469-1.598.43a.51.51 0 1 0 .264.985l2.787-.746a.508.508 0 0 0 .36-.625v-.001ZM24.594 14.674v5.013a.51.51 0 0 1-1.02 0v-5.013l-10.215 5.9 10.725 6.451 10.725-6.45-10.215-5.901Z" fill="#42474D"/></symbol><symbol viewBox="0 0 74 74" fill="none" id="adv-3" xmlns="http://www.w3.org/2000/svg"><circle cx="45.991" cy="26.991" r="18.991" fill="#E2F0FB"/><path fill-rule="evenodd" clip-rule="evenodd" d="M55.917 42.087c.193.695.788 1.15 1.521.982l3.11-.713a1.267 1.267 0 0 0 .95-1.513l-3.87-16.9a1.267 1.267 0 0 0-1.514-.95l-3.11.713a1.268 1.268 0 0 0-.95 1.513l3.863 16.868ZM19.995 23.706l-3.111-.713a1.268 1.268 0 0 0-1.514.95l-3.87 16.9a1.267 1.267 0 0 0 .949 1.513l3.11.712a1.267 1.267 0 0 0 1.514-.948l3.871-16.901a1.268 1.268 0 0 0-.95-1.513ZM18.94 40.689l3.301-14.413h9.547c-.53.597-1.074 1.24-1.633 1.903-1.489 1.763-3.099 3.67-4.815 5.108a.75.75 0 0 0-.093 1.057c1.44 1.72 3.176 2.692 5.456 2.322 1.77-.288 3.51-1.346 5.23-2.538a3.595 3.595 0 0 1 4.635.419l9.66 9.66a1.878 1.878 0 0 1-2.656 2.657l-7.444-7.444a.751.751 0 1 0-1.063 1.063l7.664 7.647c.8.797.918 1.937.09 2.764a1.89 1.89 0 0 1-2.657 0l-8.008-8.009a.75.75 0 0 0-1.226.82.752.752 0 0 0 .163.244l5.94 5.94a1.878 1.878 0 0 1-2.684 2.628l-6.503-6.503a.752.752 0 0 0-1.064 1.063l3.032 3.032a1.878 1.878 0 0 1-2.678 2.635L18.94 40.689Zm35.384 1.161-3.002 1.325-.03-.031-9.662-9.66a5.107 5.107 0 0 0-6.549-.59c-1.57 1.088-3.138 2.05-4.62 2.291-1.2.195-2.394-.105-3.568-1.26 1.584-1.434 3.044-3.164 4.407-4.777 1.85-2.19 3.508-4.154 4.86-4.66 2.075-.776 3.577.105 6.685 1.929.758.444 1.604.94 2.55 1.469 1.42.793 3.003.896 4.5.245l1.17-.51 3.259 14.23Z" fill="#42474D"/></symbol><symbol viewBox="0 0 74 74" fill="none" id="adv-4" xmlns="http://www.w3.org/2000/svg"><circle cx="45.991" cy="26.991" r="18.991" fill="#E2F0FB"/><g clip-path="url(#da)" fill="#42474D"><path d="m45.27 38.272-1.589-1.218-1.744-1.317-3.917 3.358 1.083 2.005.943 1.745 12.89 14.944a3.423 3.423 0 0 0 4.87.36c1.444-1.26 1.603-3.47.355-4.933L45.269 38.272Zm1.453 6.935a.685.685 0 0 1-.97-.072l-3.595-4.166a.687.687 0 1 1 1.041-.898l3.596 4.166a.687.687 0 0 1-.072.97Zm2.247 2.598a.687.687 0 1 1-.899-1.039.687.687 0 0 1 .899 1.04Zm1.798 2.081a.687.687 0 1 1-.899-1.039.687.687 0 0 1 .899 1.04ZM19.38 35.74a1.367 1.367 0 0 0 1.938.144l3.127-2.725-.005-.003-3.087-3.607a.688.688 0 0 1 1.044-.895l2.215 2.588c-.014-.516.108-1.068.563-1.47.464-.413.988-.488 1.461-.42l-3.995-4.666c.01.504-.128 1.031-.614 1.408-1.204.935-2.909-.213-2.909-.213l-3.643 3.176a1.39 1.39 0 0 0-.138 1.953l4.043 4.73Zm9.974-6.868 3.61-3.15 1.361-1.182c-.777-1.574-.688-3.987.873-5.348 1.884-1.643 4.09-2.647 6.483-1.98-2.836-3.307-9.083-2.584-12.659.076l2.954 3.45a.688.688 0 0 1-1.044.894l-2.968-3.467-5.206 4.541 5.842 6.826.754-.66Zm10.384 2.476.454.525 2.05 2.372 2.275 1.718.725.555 3.236-2.821a7.732 7.732 0 0 0 7.862-1.476 7.925 7.925 0 0 0 2.357-8.066.689.689 0 0 0-1.116-.328l-3.823 3.377a2.325 2.325 0 0 1-1.71.59 2.366 2.366 0 0 1-1.64-.809 2.368 2.368 0 0 1-.581-1.734 2.386 2.386 0 0 1 .8-1.643l3.822-3.376a.688.688 0 0 0-.18-1.145 7.8 7.8 0 0 0-8.264 1.31c-2.145 1.89-3.087 4.847-2.467 7.638l-3.8 3.314Zm-1.846 10.406-1.362-2.522-2.028-2.418-.447-.517-8.534 7.443a7.732 7.732 0 0 0-7.862 1.476 7.925 7.925 0 0 0-2.357 8.065.686.686 0 0 0 1.116.328l3.823-3.377a2.364 2.364 0 0 1 3.35.22c.42.48.626 1.094.581 1.733a2.386 2.386 0 0 1-.8 1.644l-3.822 3.375a.688.688 0 0 0 .18 1.146 7.746 7.746 0 0 0 3.096.642 7.79 7.79 0 0 0 5.168-1.953c2.144-1.89 3.086-4.847 2.466-7.638l7.861-6.855-.43-.795.001.003Zm-3.978-15.036-3.61 3.148 5.236 6.048 1.705 2.032 3.663-3.14-1.759-2.034-5.235-6.054Z"/></g><defs><clipPath id="da"><path fill="#fff" transform="translate(15 15)" d="M0 0h44v44H0z"/></clipPath></defs></symbol><symbol viewBox="0 0 74 74" fill="none" id="adv-5" xmlns="http://www.w3.org/2000/svg"><circle cx="45.991" cy="26.991" r="18.991" fill="#E2F0FB"/><path d="M20.039 17.116a.193.193 0 0 1 .095-.263c1.56-.76 3.072-1.069 4.508-.91 2.201.291 3.1 1.416 5.407 1.829 1.388.262 2.852.234 4.345-.103.201-.019.287.131.21.272-1.167 1.837-2.325 3.675-3.483 5.512h-1.32l1.1-2.447c.278-.637-.699-1.06-.995-.431l-1.292 2.878h-2.02l-2.268-4.762c-.306-.628-1.273-.188-.986.45l2.058 4.322h-1.416c-1.292-2.138-2.728-4.182-3.943-6.347Zm12.68 9.487c1.407-.047 1.407-2.053 0-2.09H22.374c-.278 0-.555.103-.756.309-.68.61-.172 1.81.756 1.781h.593v-.59c0-.3.24-.535.546-.535.306 0 .545.234.545.534v.591h1.465v-.59c0-.3.239-.535.545-.535a.54.54 0 0 1 .545.534v.591h1.455v-.59c0-.3.24-.535.546-.535a.54.54 0 0 1 .545.534v.591h1.455v-.59c0-.3.24-.535.545-.535a.54.54 0 0 1 .546.534v.591h1.014Zm28.204 22.8c.01 4.256-3.656 7.735-8.01 7.547-9.858-.675-9.59-14.86.296-15.103 4.26 0 7.714 3.384 7.714 7.556Zm-.967 0c-.373-8.756-13.11-8.756-13.484 0 0 3.647 3.024 6.6 6.737 6.6 3.723 0 6.747-2.962 6.747-6.6Zm-13.609 5.39h-8.871c-.488 0-.91.395-.91.882.01.178-.019.525.048.694.115.356.479.59.852.6H48.99a9.449 9.449 0 0 1-2.642-2.175Zm-1.665-3.243h-8.355c-1.09-.037-1.234 1.772-.354 2.11a.9.9 0 0 0 .354.065h9.274a9.483 9.483 0 0 1-.919-2.175Zm-11.14-3.234c-.497 0-.909.393-.909.871v.413c0 .478.412.872.91.872h2.784c.01.01 8.154.01 8.154.01a9.722 9.722 0 0 1 0-2.176c-2.507 0-8.498.01-10.939.01Zm12.059-3.244c-.029.01-8.116-.019-8.135.01a.892.892 0 0 0-.852.88v.413c0 .487.402.872.9.872h7.178c.21-.76.507-1.49.909-2.175Zm3.378-3.225H34.547a.89.89 0 0 0-.9.881v.413a.89.89 0 0 0 .9.88h11.8a9.13 9.13 0 0 1 2.632-2.174Zm4.9-1.94v-.413a.896.896 0 0 0-.9-.882H36.252c-.498 0-.91.394-.91.882v.412c0 .478.403.872.9.882h16.73c.497 0 .908-.404.908-.882ZM36.07 57.465a12.848 12.848 0 0 1-5.867 1.415h-5.378c-9.724.14-16.643-11.165-10.336-18.993.105-.15.469-.544.469-.732 2.69-3.61 5.838-7.847 8.546-11.493h7.991c2.336 3.13 5.006 6.73 7.35 9.89h-2.612c-1.646 0-2.422 1.903-1.77 3.235-2.604.103-2.585 4.275.066 4.293h1.206c-.325.647-.335 1.528-.01 2.175h-2.2c-2.68.01-2.661 4.285 0 4.294h1.014c-.546 1.153-.134 2.756 1.206 3.16-.288.487-.345 1.068-.25 1.621.039.103.374 1.238.575 1.135Zm22.806-8.063c-.306 7.35-11.006 7.36-11.322 0 0-3.047 2.537-5.54 5.656-5.54 3.12 0 5.666 2.484 5.666 5.54Zm-.861-20.128a8.033 8.033 0 0 0 1.263-4.519l-6.843.6 5.58 3.919Zm-7.829-14.156v7.584l7.704-.675c-.584-3.806-3.77-6.665-7.704-6.91Zm3.77 15.018-6.775-4.743a.522.522 0 0 1-.23-.431v-8.157c-4.345.272-7.8 3.835-7.8 8.156.01 7.641 9.877 11.072 14.806 5.175Z" fill="#42474D"/></symbol><symbol viewBox="0 0 74 74" fill="none" id="adv-6" xmlns="http://www.w3.org/2000/svg"><circle cx="45.991" cy="26.991" r="18.991" fill="#E2F0FB"/><g clip-path="url(#fa)" fill="#42474D"><path d="M19.801 55.199V16H16.99v39.199H14v2.812h2.989V61H19.8v-2.989H59V55.2H19.801Z"/><path d="M22.54 44.817h9.403v7.57H22.54v-7.57Zm12.16-6.782h9.403v14.351H34.7v-14.35Zm-10.016 2.136 28.14-18.479-.349 1.675 2.754.573 1.328-6.38-6.38-1.327-.573 2.753 1.683.35L23.141 37.82l1.544 2.351Zm22.23-8.917h9.404v21.132h-9.404V31.254Z"/></g><defs><clipPath id="fa"><path fill="#fff" transform="translate(14 16)" d="M0 0h45v45H0z"/></clipPath></defs></symbol><symbol viewBox="0 0 74 74" fill="none" id="adv-7" xmlns="http://www.w3.org/2000/svg"><circle cx="45.991" cy="26.991" r="18.991" fill="#E2F0FB"/><g clip-path="url(#ga)"><path d="M54.417 47.58v-.33a8.97 8.97 0 0 0-8.959-8.958h-7.166v-1.953a10.75 10.75 0 1 0-3.584 0v1.953h-7.166a8.969 8.969 0 0 0-8.959 8.958v.33a5.375 5.375 0 1 0 3.584 0v-.33a5.375 5.375 0 0 1 5.375-5.375h7.166v5.705a5.375 5.375 0 1 0 3.584 0v-5.705h7.166a5.375 5.375 0 0 1 5.375 5.375v.33a5.375 5.375 0 1 0 3.584 0Z" fill="#42474D"/></g><defs><clipPath id="ga"><path fill="#fff" transform="translate(15 15)" d="M0 0h43v43H0z"/></clipPath></defs></symbol><symbol viewBox="0 0 49 49" fill="none" id="general-1" xmlns="http://www.w3.org/2000/svg"><rect width="49" height="49" rx="24.5" fill="#fff"/><circle cx="29.79" cy="17.873" r="12.575" fill="#E2F0FB"/><path d="m37.574 34.75 1.82-.218-.116-.96-1.704.204v-1.71a3.585 3.585 0 1 0-.961 0v4.779h-1.176V32.87a4.565 4.565 0 0 1-2.29-6.49v-1.659h.961v.493c.392-.34.84-.613 1.323-.804v-7.463a.481.481 0 0 0-.596-.455l-9.648 2.47v17.883h-.96V11.688a.482.482 0 0 0-.641-.452l-9.712 3.626a.48.48 0 0 0-.32.448v1.157h5.56v.96H13.56v2.403h5.554v.96H13.56v2.403h5.554v.961H13.56v.256a4.555 4.555 0 0 1 2.38 2.15h3.174v.96h-2.809c.21.79.195 1.622-.045 2.403h2.854v.96H15.85a4.562 4.562 0 0 1-2.29 1.987v.256h5.554v.961H13.56v2.758h-1.176v-4.78a3.587 3.587 0 1 0-.96 0v1.724l-1.705-.205-.115.961 1.82.218v2.101h-2.62v.961h31.39v-.96h-2.627l.007-2.115Zm-4.427-13.898h.961v2.687h-.961v-2.687Zm0 11.611h.961v2.684h-.961v-2.684Zm-2.242-11.611h.96v2.687h-.96v-2.687Zm0 3.869h.96v2.684h-.96v-2.684Zm0 3.87h.96v2.687h-.96V28.59Zm0 3.872h.96v2.684h-.96v-2.684Zm-2.242-11.611h.96v2.687h-.96v-2.687Zm0 3.869h.96v2.684h-.96v-2.684Zm0 3.87h.96v2.687h-.96V28.59Zm0 3.872h.96v2.684h-.96v-2.684ZM26.42 20.852h.96v2.687h-.96v-2.687Zm0 3.869h.96v2.684h-.96v-2.684Zm0 3.87h.96v2.687h-.96V28.59Zm0 3.872h.96v2.684h-.96v-2.684Z" fill="#42474D"/></symbol><symbol viewBox="0 0 49 49" fill="none" id="general-2" xmlns="http://www.w3.org/2000/svg"><rect width="49" height="49" rx="24.5" fill="#fff"/><circle cx="29.79" cy="17.873" r="12.575" fill="#E2F0FB"/><g clip-path="url(#ia)" fill="#42474D"><path d="M31.018 16.269c0-.587-.229-1.139-.644-1.554l-2.071-2.071c-.41-.41-.99-.644-1.568-.644h-.126v4.395h4.41v-.126Z"/><path d="M25.376 27.114a2.94 2.94 0 0 1 .704-1.143l4.959-4.939v-3.173h-5.147c-.405 0-.708-.327-.708-.732V12H14.197A2.2 2.2 0 0 0 12 14.197v20.606A2.2 2.2 0 0 0 14.197 37h14.625c1.212 0 2.217-.986 2.217-2.197v-5.467l-.805.786a2.912 2.912 0 0 1-1.139.702l-2.329.778-.354.019a1.838 1.838 0 0 1-1.487-.763 1.837 1.837 0 0 1-.249-1.65l.7-2.094Zm-9.714-1.93h7.3a.732.732 0 1 1 0 1.464h-7.3a.732.732 0 1 1 0-1.464Zm-.732-2.198c0-.405.327-.732.732-.732h7.3a.732.732 0 1 1 0 1.465h-7.3a.732.732 0 0 1-.732-.733Zm0 5.86c0-.405.327-.733.732-.733h7.3a.732.732 0 1 1 0 1.465h-7.3a.732.732 0 0 1-.732-.732Zm10.962 3.662a.732.732 0 1 1 0 1.465h-4.394a.732.732 0 1 1 0-1.465h4.394Zm-10.23-11.719a.732.732 0 1 1 0-1.465h10.23a.732.732 0 1 1 0 1.465h-10.23Z"/><path d="m26.703 27.762-.637 1.912a.366.366 0 0 0 .464.463l1.91-.638-1.737-1.737Zm5.687-6.03-4.824 4.823 2.08 2.08 4.824-4.823-2.08-2.08Zm4.179-2.101a1.466 1.466 0 0 0-1.039-.407c-.402 0-.781.148-1.04.408l-1.064 1.064 2.08 2.08 1.064-1.064a1.474 1.474 0 0 0-.001-2.08Zm.001 2.081.005-.005-.005.005Zm.004-.005.007-.006-.007.006Zm.008-.006c.005-.005.005-.005 0 0Z"/></g><defs><clipPath id="ia"><path fill="#fff" transform="translate(12 12)" d="M0 0h25v25H0z"/></clipPath></defs></symbol><symbol viewBox="0 0 49 49" fill="none" id="general-3" xmlns="http://www.w3.org/2000/svg"><rect width="49" height="49" rx="24.5" fill="#fff"/><circle cx="29.79" cy="17.873" r="12.575" fill="#E2F0FB"/><path d="M27.293 17.039a4.906 4.906 0 0 1 2.284 3.645 3.935 3.935 0 0 0 1.673.374 3.96 3.96 0 1 0-3.957-4.02ZM24.7 25.147a3.96 3.96 0 1 0 0-7.92 3.96 3.96 0 0 0 0 7.92Zm1.68.27h-3.36a5.076 5.076 0 0 0-5.07 5.07v4.11l.01.063.283.09c2.668.833 4.986 1.11 6.894 1.11 3.726 0 5.886-1.062 6.02-1.13l.264-.133h.028v-4.11a5.075 5.075 0 0 0-5.07-5.07Zm6.551-4.088h-3.334a4.88 4.88 0 0 1-1.506 3.399 6.024 6.024 0 0 1 4.303 5.765v1.266c3.292-.12 5.19-1.053 5.314-1.116l.265-.134H38v-4.11a5.076 5.076 0 0 0-5.07-5.07Zm-15.18-.27c.776 0 1.496-.226 2.107-.611a4.901 4.901 0 0 1 1.842-3.126c.004-.074.011-.147.011-.222a3.96 3.96 0 1 0-3.96 3.959Zm3.557 3.669a4.883 4.883 0 0 1-1.505-3.38c-.124-.01-.246-.02-.372-.02h-3.36a5.076 5.076 0 0 0-5.07 5.07v4.11l.01.064.284.089c2.14.668 4.05.976 5.71 1.073v-1.241a6.026 6.026 0 0 1 4.303-5.765Z" fill="#42474D"/></symbol><symbol viewBox="0 0 49 49" fill="none" id="general-4" xmlns="http://www.w3.org/2000/svg"><rect width="49" height="49" rx="24.5" fill="#fff"/><circle cx="29.79" cy="17.873" r="12.575" fill="#E2F0FB"/><path fill-rule="evenodd" clip-rule="evenodd" d="M13.568 36.797h4.508v-2.543c-1.371-.422-2.492-1.366-3.103-2.582-.43.268-.901.482-1.405.628v4.497Zm7.746 0h7.282V24.15h-2.932c-.287 0-.561-.108-.764-.299a.993.993 0 0 1-.316-.72v-7.175a1 1 0 0 0-.407-.798l-5.238-3.937a1.13 1.13 0 0 0-1.345 0l-5.238 3.937a1 1 0 0 0-.407.798v6.21c2.273 0 4.225 1.31 5.057 3.172a5.424 5.424 0 0 1 2.689-.704c2.881 0 5.22 2.209 5.22 4.93 0 2.188-1.511 4.045-3.601 4.69v2.542ZM15.59 20.003v1.058c0 .28.242.51.54.51.297 0 .54-.23.54-.51v-1.058c0-.282-.243-.51-.54-.51-.299 0-.54.228-.54.51Zm4.415 0v1.058c0 .28.242.51.54.51.298 0 .54-.23.54-.51v-1.058c0-.282-.242-.51-.54-.51-.298 0-.54.228-.54.51Zm-4.415-4.02v1.059c0 .281.242.51.54.51.297 0 .54-.229.54-.51v-1.058c0-.282-.243-.51-.54-.51-.299 0-.54.228-.54.51Zm4.415 0v1.059c0 .281.242.51.54.51.298 0 .54-.229.54-.51v-1.058c0-.282-.242-.51-.54-.51-.298 0-.54.228-.54.51Zm9.671 20.814h9.184V22.2a1 1 0 0 0-.407-.798l-3.513-2.641a1.13 1.13 0 0 0-1.344 0l-3.513 2.641a1 1 0 0 0-.407.798v14.597Zm5.517-8.506v1.058c0 .281.241.51.54.51.297 0 .539-.229.539-.51V28.29c0-.282-.242-.51-.54-.51-.298 0-.54.228-.54.51Zm-2.929 0v1.058c0 .281.242.51.54.51.298 0 .54-.229.54-.51V28.29c0-.282-.242-.51-.54-.51-.298 0-.54.228-.54.51Zm2.928-4.02v1.059c0 .281.242.51.54.51.298 0 .54-.229.54-.51v-1.058c0-.282-.242-.51-.54-.51-.298 0-.54.228-.54.51Zm-2.928 0v1.059c0 .281.242.51.54.51.298 0 .54-.229.54-.51v-1.058c0-.282-.242-.51-.54-.51-.298 0-.54.228-.54.51Z" fill="#42474D"/><path fill-rule="evenodd" clip-rule="evenodd" d="M11.406 37.816V31.48c-2.177-.252-3.866-2.006-3.866-4.131 0-2.297 1.974-4.162 4.406-4.162 2.432 0 4.407 1.865 4.407 4.162 0 1.757-1.156 3.261-2.788 3.871v-5.73c0-.282-.242-.51-.54-.51-.297 0-.54.228-.54.51v2.72l-1.778-1.68a.563.563 0 0 0-.763 0 .49.49 0 0 0 0 .721l2.542 2.401v8.164h6.666v-4.372c-1.514-.186-2.771-1.146-3.314-2.445.985-.936 1.594-2.227 1.594-3.65 0-.34-.035-.674-.101-.997a4.29 4.29 0 0 1 2.36-.698c2.286 0 4.142 1.753 4.142 3.912 0 1.616-1.04 3.004-2.522 3.6v-5.085c0-.281-.242-.51-.54-.51-.298 0-.54.229-.54.51v2.459l-1.484-1.402a.563.563 0 0 0-.764 0 .49.49 0 0 0 0 .72l2.248 2.124v5.834h20.41c.298 0 .54.228.54.51 0 .281-.242.51-.54.51H7.54c-.298 0-.54-.229-.54-.51 0-.282.242-.51.54-.51h3.866Z" fill="#42474D"/></symbol><symbol viewBox="0 0 38 41" fill="none" id="general-5" xmlns="http://www.w3.org/2000/svg"><rect width="38" height="41" rx="19" fill="#fff"/><circle cx="22.5" cy="15.5" r="10.5" fill="#E2F0FB"/><path d="M9.978 17.961v9.84L8.005 29.03l.332-1.337a.46.46 0 0 0-.039-.324.417.417 0 0 0-.102-.125.37.37 0 0 0-.439-.031.424.424 0 0 0-.184.259l-.579 2.331a.46.46 0 0 0 .04.324.387.387 0 0 0 .24.199l2.16.625a.38.38 0 0 0 .362-.093.454.454 0 0 0 .068-.555.399.399 0 0 0-.224-.176L8.4 29.77l1.973-1.23-.395-.247v-.49l1.567-.978 1.799-1.12a.377.377 0 0 1 .3-.044c.051.014.098.04.14.073a.418.418 0 0 1 .102.126.453.453 0 0 1-.03.475.405.405 0 0 1-.117.11l-3.366 2.096 7.91 4.929V23.35l-6.881-4.465-1.424-.925ZM17.099 10.925a.381.381 0 0 0 .28-.125l.906-.978v2.392l.395-.247.396.247v-2.39l.907.979c.074.077.174.12.278.12a.382.382 0 0 0 .276-.126.444.444 0 0 0 .116-.298.445.445 0 0 0-.111-.3L18.96 8.492a.381.381 0 0 0-.28-.125.381.381 0 0 0-.28.125L16.82 10.2a.459.459 0 0 0-.084.463c.03.078.08.144.145.191.065.047.14.072.219.072ZM30.363 29.803l-.579-2.331a.424.424 0 0 0-.184-.26.37.37 0 0 0-.3-.042.401.401 0 0 0-.24.2.456.456 0 0 0-.04.323l.332 1.336L27.38 27.8v-9.838l-8.305 5.39v10.117l7.91-4.929-3.366-2.095a.425.425 0 0 1-.185-.26.458.458 0 0 1 .04-.325.402.402 0 0 1 .24-.2.371.371 0 0 1 .3.042l3.366 2.1v.49l-.395.247 1.973 1.229-1.24.36a.399.399 0 0 0-.226.174.454.454 0 0 0 .068.558.379.379 0 0 0 .363.092l2.162-.625a.384.384 0 0 0 .138-.074.45.45 0 0 0 .141-.449ZM19.074 12.278v4.195a.444.444 0 0 1-.116.301.381.381 0 0 1-.28.125.382.382 0 0 1-.28-.125.444.444 0 0 1-.115-.301v-4.195l-7.922 4.937 8.317 5.398 8.318-5.398-7.922-4.937Z" fill="#42474D"/></symbol><symbol viewBox="0 0 74 74" fill="none" id="general-5_" xmlns="http://www.w3.org/2000/svg"><circle cx="45.991" cy="26.991" r="18.991" fill="#E2F0FB"/><path d="M17.595 30.045v19.816l-4.286 2.475.722-2.692a.86.86 0 0 0-1.66-.445l-1.26 4.696a.858.858 0 0 0 .608 1.052l4.696 1.258a.86.86 0 0 0 .445-1.659l-2.692-.72 4.287-2.477-.86-.497v-.989L21 47.894l3.909-2.255a.861.861 0 0 1 1.287.63.86.86 0 0 1-.428.858l-7.313 4.222 17.187 9.927V40.9L20.69 31.907l-3.094-1.862Zm15.471-14.17a.86.86 0 0 0 .607-.252l1.971-1.97v4.816l.86-.495.859.495v-4.812l1.97 1.97a.86.86 0 0 0 1.215-1.215l-3.437-3.437a.86.86 0 0 0-1.215 0l-3.438 3.437a.86.86 0 0 0 .608 1.463Zm28.824 38.02-1.259-4.696a.86.86 0 0 0-1.66.445l.722 2.692-4.287-2.475V30.046L37.36 40.9v20.376l17.188-9.926-7.313-4.22a.862.862 0 1 1 .859-1.495l7.313 4.228v.989l-.86.495 4.287 2.475-2.692.725a.86.86 0 1 0 .445 1.66l4.697-1.258a.857.857 0 0 0 .607-1.053v-.001ZM37.362 18.6v8.447a.859.859 0 1 1-1.719 0v-8.448L18.43 28.542l18.072 10.871 18.073-10.87-17.213-9.944Z" fill="#42474D"/></symbol><symbol viewBox="0 0 20 20" fill="none" id="icon-doc-check" xmlns="http://www.w3.org/2000/svg"><path d="M9.9 5H2.1C.96 5 0 5.96 0 7.1v7.8C0 16.04.96 17 2.1 17h6.3l3.6-3.6V7.1C12 5.96 11.04 5 9.9 5Zm.9 7.8h-.9c-1.14 0-2.1.96-2.1 2.1v.9H2.28c-.6 0-1.08-.48-1.08-1.08V7.28c0-.6.48-1.08 1.08-1.08h7.5c.6 0 1.08.48 1.08 1.08v5.52M7.92 8.72l.9.9-3.6 3.6-2.1-2.1.9-.9 1.2 1.2 2.7-2.7Z" fill="#42474D"/></symbol><symbol viewBox="0 0 49 49" fill="none" id="rent-1" xmlns="http://www.w3.org/2000/svg"><rect width="49" height="49" rx="24.5" fill="#fff"/><circle cx="29.79" cy="17.873" r="12.575" fill="#FFFEDA"/><g clip-path="url(#oa)" fill="#42474D"><path d="M31.018 16.269c0-.587-.229-1.139-.644-1.554l-2.071-2.071c-.41-.41-.99-.644-1.568-.644h-.126v4.395h4.41v-.126Z"/><path d="M25.376 27.114a2.94 2.94 0 0 1 .704-1.143l4.959-4.939v-3.173h-5.147c-.405 0-.708-.327-.708-.732V12H14.197A2.2 2.2 0 0 0 12 14.197v20.606A2.2 2.2 0 0 0 14.197 37h14.625c1.212 0 2.217-.986 2.217-2.197v-5.467l-.805.786a2.912 2.912 0 0 1-1.139.702l-2.329.778-.354.019a1.838 1.838 0 0 1-1.487-.763 1.837 1.837 0 0 1-.249-1.65l.7-2.094Zm-9.714-1.93h7.3a.732.732 0 1 1 0 1.464h-7.3a.732.732 0 1 1 0-1.464Zm-.732-2.198c0-.405.327-.732.732-.732h7.3a.732.732 0 1 1 0 1.465h-7.3a.732.732 0 0 1-.732-.733Zm0 5.86c0-.405.327-.733.732-.733h7.3a.732.732 0 1 1 0 1.465h-7.3a.732.732 0 0 1-.732-.732Zm10.962 3.662a.732.732 0 1 1 0 1.465h-4.394a.732.732 0 1 1 0-1.465h4.394Zm-10.23-11.719a.732.732 0 1 1 0-1.465h10.23a.732.732 0 1 1 0 1.465h-10.23Z"/><path d="m26.703 27.762-.637 1.912a.366.366 0 0 0 .464.463l1.91-.638-1.737-1.737Zm5.687-6.03-4.824 4.823 2.08 2.08 4.824-4.823-2.08-2.08Zm4.179-2.101a1.466 1.466 0 0 0-1.039-.407c-.402 0-.781.148-1.04.408l-1.064 1.064 2.08 2.08 1.064-1.064a1.474 1.474 0 0 0-.001-2.08Zm.001 2.081.005-.005-.005.005Zm.004-.005.007-.006-.007.006Zm.008-.006c.005-.005.005-.005 0 0Z"/></g><defs><clipPath id="oa"><path fill="#fff" transform="translate(12 12)" d="M0 0h25v25H0z"/></clipPath></defs></symbol><symbol viewBox="0 0 49 49" fill="none" id="rent-2" xmlns="http://www.w3.org/2000/svg"><rect width="49" height="49" rx="24.5" fill="#fff"/><circle cx="29.79" cy="17.873" r="12.575" fill="#FFFEDA"/><g clip-path="url(#pa)" fill="#42474D"><path d="M39 15.333V14.25c0-.862-.382-1.689-1.062-2.298-.68-.61-1.602-.952-2.563-.952-.961 0-1.883.342-2.563.952-.68.61-1.062 1.436-1.062 2.298v3.25h-6.042v-3.25c0-.287.128-.563.354-.766.227-.203.534-.317.855-.317.32 0 .627.114.854.317.227.203.354.479.354.766v1.083h2.417V14.25c0-.862-.382-1.689-1.062-2.298-.68-.61-1.602-.952-2.563-.952-.962 0-1.884.342-2.564.952-.68.61-1.061 1.436-1.061 2.298v12.08a7.783 7.783 0 0 0-1.691-.163c-2.9 0-2.9 1.083-5.8 1.083S12.9 26.167 10 26.167V30.5c2.9 0 2.9 1.083 5.8 1.083s2.9-1.083 5.8-1.083 2.9 1.083 5.8 1.083 2.9-1.083 5.8-1.083 2.9 1.083 5.8 1.083V27.25c-2.536 0-2.855-.828-4.833-1.036V14.25c0-.287.127-.563.354-.766a1.28 1.28 0 0 1 .854-.317c.32 0 .628.114.854.317.227.203.354.479.354.766v1.083H39Zm-7.25 4.334v2.166h-6.042v-2.166h6.042Zm-6.042 7.42V24h6.042v2.282c-1.567.279-2.036.968-4.35.968a7.791 7.791 0 0 1-1.692-.163Zm1.692 5.58c-2.9 0-2.9-1.084-5.8-1.084s-2.9 1.084-5.8 1.084-2.9-1.084-5.8-1.084V37h29v-4.333c-2.9 0-2.9-1.084-5.8-1.084s-2.9 1.084-5.8 1.084Z"/></g><defs><clipPath id="pa"><path fill="#fff" transform="translate(10 11)" d="M0 0h29v26H0z"/></clipPath></defs></symbol><symbol class="qiconify qiconify--logos" viewBox="0 0 256 256" id="typescript" xmlns="http://www.w3.org/2000/svg"><path fill="#007ACC" d="M0 128v128h256V0H0z"/><path fill="#FFF" d="m56.612 128.85-.081 10.483h33.32v94.68h23.568v-94.68h33.321v-10.28c0-5.69-.122-10.444-.284-10.566-.122-.162-20.4-.244-44.983-.203l-44.74.122-.121 10.443Zm149.955-10.742c6.501 1.625 11.459 4.51 16.01 9.224 2.357 2.52 5.851 7.111 6.136 8.208.08.325-11.053 7.802-17.798 11.988-.244.162-1.22-.894-2.317-2.52-3.291-4.795-6.745-6.867-12.028-7.233-7.76-.528-12.759 3.535-12.718 10.321 0 1.992.284 3.17 1.097 4.795 1.707 3.536 4.876 5.649 14.832 9.956 18.326 7.883 26.168 13.084 31.045 20.48 5.445 8.249 6.664 21.415 2.966 31.208-4.063 10.646-14.14 17.879-28.323 20.276-4.388.772-14.79.65-19.504-.203-10.28-1.828-20.033-6.908-26.047-13.572-2.357-2.6-6.949-9.387-6.664-9.874.122-.163 1.178-.813 2.356-1.504 1.138-.65 5.446-3.129 9.509-5.485l7.355-4.267 1.544 2.276c2.154 3.29 6.867 7.801 9.712 9.305 8.167 4.307 19.383 3.698 24.909-1.26 2.357-2.153 3.332-4.388 3.332-7.68 0-2.966-.366-4.266-1.91-6.501-1.99-2.845-6.054-5.242-17.595-10.24-13.206-5.69-18.895-9.224-24.096-14.832-3.007-3.25-5.852-8.452-7.03-12.8-.975-3.617-1.22-12.678-.447-16.335 2.723-12.76 12.353-21.659 26.25-24.3 4.51-.853 14.994-.528 19.424.569Z"/></symbol></svg>