<svg width="0" height="0" class="hidden">
  <symbol xmlns="http://www.w3.org/2000/svg" viewBox="0 0 5.76 5.76" id="icon-ok">
    <title>Ресурс 7</title>
    <path d="M2.88 2.39a.5.5 0 1 0-.5-.49.49.49 0 0 0 .5.49zm0-2.39A2.88 2.88 0 1 1 0 2.88 2.88 2.88 0 0 1 2.88 0zm0 .88a1 1 0 1 1-1 1 1 1 0 0 1 1-1zM4 3.3A.22.22 0 0 0 4 3a.23.23 0 0 0-.26-.11.41.41 0 0 0-.12.11 1.36 1.36 0 0 1-1.5 0L2 2.92a.25.25 0 0 0-.28.41l.09.07a1.56 1.56 0 0 0 .83.3l-.05.05-.68.69a.25.25 0 0 0-.08.17.27.27 0 0 0 .17.25.22.22 0 0 0 .27 0l.53-.53s.07-.05.12 0l.52.53a.25.25 0 0 0 .16.08.27.27 0 0 0 .26-.16.23.23 0 0 0-.05-.27l-.69-.7-.04-.11a2 2 0 0 0 .5-.11A1.22 1.22 0 0 0 4 3.3z"
       fill-rule="evenodd"></path>
  </symbol>
  <symbol xmlns="http://www.w3.org/2000/svg" viewBox="0 0 3.78 4.32" id="icon-pdf">
    <title>Ресурс 25</title>
    <path d="M.81 0a.27.27 0 0 0-.27.27v3.78a.27.27 0 0 0 .27.27h2.7a.27.27 0 0 0 .27-.27v-3L2.7 0z" fill-rule="evenodd" fill="#e2e5e7"></path>
    <path d="M3 1.08h.81L2.7 0v.81a.27.27 0 0 0 .3.27z" fill="#b0b7bd" fill-rule="evenodd"></path>
    <path d="M3.78 1.89l-.81-.81h.81v.81z"></path>
    <path d="M.13 2h3a.14.14 0 0 1 .14.14v1.37a.14.14 0 0 1-.14.14h-3A.14.14 0 0 1 0 3.51V2.16A.13.13 0 0 1 .13 2z" fill="#f15642"></path>
    <path d="M.59 2.56a.07.07 0 0 1 .07-.07h.25a.27.27 0 0 1 0 .51H.73v.14a.07.07 0 0 1-.07.07.07.07 0 0 1-.07-.07v-.58zm.14.06v.27h.18a.13.13 0 0 0 0-.27zm.66.62a.07.07 0 0 1-.07-.07v-.61a.07.07 0 0 1 .07-.07h.25a.37.37 0 0 1 0 .75zm.07-.62v.48h.18a.24.24 0 0 0 0-.48zm.83.01v.17h.28a.08.08 0 0 1 .08.08.07.07 0 0 1-.08.06h-.28v.23a.06.06 0 0 1-.06.07.07.07 0 0 1-.08-.07v-.61a.07.07 0 0 1 .08-.07h.38a.07.07 0 0 1 .08.07.07.07 0 0 1-.08.07zm.82 1.02H.54v.13h2.57a.14.14 0 0 0 .14-.13v-.14a.14.14 0 0 1-.14.14z"></path>
  </symbol>
  <symbol xmlns="http://www.w3.org/2000/svg" viewBox="0 0 3.36 3.36" id="icon-phone">
    <title>Ресурс 23</title>
    <path d="M2.55 2.22a.24.24 0 0 0-.36 0L2 2.47h-.07l-.21-.07a2.58 2.58 0 0 1-.62-.57 1.48 1.48 0 0 1-.22-.36.05.05 0 0 1 0-.07l.25-.25a.24.24 0 0 0 0-.36L.94.6.74.4a.24.24 0 0 0-.36 0L.13.65A.41.41 0 0 0 0 .93a1.16 1.16 0 0 0 .09.5 3 3 0 0 0 .54.9 3.33 3.33 0 0 0 1.1.86 1.59 1.59 0 0 0 .61.18.45.45 0 0 0 .38-.15L3 3a.24.24 0 0 0 0-.36l-.4-.4zM2.82.54a1.92 1.92 0 0 1 .54 1H3.1A1.66 1.66 0 0 0 1.7.26V0a1.9 1.9 0 0 1 1.12.54zm-.4 1.12a.9.9 0 0 0-.76-.73V.67a1.16 1.16 0 0 1 1 1z"
       fill-rule="evenodd"></path>
  </symbol>
  <symbol xmlns="http://www.w3.org/2000/svg" viewBox="0 0 6.05 7.2" id="icon-pin">
    <title>Ресурс 26</title>
    <path d="M2.85 7.13a.25.25 0 0 0 .35 0l2-2a3 3 0 1 0-4.28 0l2 2zM3 1.55A1.42 1.42 0 1 1 1.61 3 1.42 1.42 0 0 1 3 1.55z" fill="#278f60" fill-rule="evenodd"></path>
  </symbol>
  <symbol xmlns="http://www.w3.org/2000/svg" viewBox="0 0 24 24" id="icon-promo-2">
    <title>Ресурс 28</title>
    <path d="M12 24A12 12 0 1 0 0 12a12 12 0 0 0 12 12z" fill-rule="evenodd" fill="#ef7f1a"></path>
    <path d="M6.37 7.69a1.29 1.29 0 0 0 1.26 1.58h2.75a1.43 1.43 0 0 0 .16-2.86 1.62 1.62 0 0 0-2.35-.8 1.43 1.43 0 1 0-1.82 2.08zM9 6.13a.86.86 0 0 1 .85.72l.06.35h.44a.68.68 0 0 1 0 1.36H7.63a.54.54 0 0 1 0-1.07h.09l.47.08v-.54a.87.87 0 0 1 .81-.9zm-2-.4a.68.68 0 0 1 .63.44 1.62 1.62 0 0 0-.2.54 1.28 1.28 0 0 0-.68.29A.68.68 0 0 1 7 5.73zm0 0"></path>
    <path d="M14.91 12.46l.9.52a2.66 2.66 0 0 0 2.19.22l.44-.15-.09-.45a2.67 2.67 0 0 0-1.28-1.79L15 9.63V7.28a2.67 2.67 0 0 0-.91-2L13.77 5l-.35.3a2.67 2.67 0 0 0-.91 2v2.33l-2 1.17a2.67 2.67 0 0 0-1.31 1.79l-.09.41.44.15a2.66 2.66 0 0 0 2.18-.15l.9-.52-.25 4.62H5.57v.75h12.84v-.75h-3.25l-.25-4.62zm-3.55-.14a1.91 1.91 0 0 1-1.37.21 1.92 1.92 0 0 1 .87-1.08l2.29-1.32.13-.22V7.28A1.92 1.92 0 0 1 13.77 6a1.91 1.91 0 0 1 .5 1.29v2.63l.13.22 2.28 1.32a1.91 1.91 0 0 1 .87 1.08 1.91 1.91 0 0 1-1.37-.21L13.9 11h-.26l-2.29 1.32zm2.41-.52l.36.21.18 3.21h-1.07l.18-3.22.36-.21zm-.63 5.28L13.2 16h1.15l.06 1.1zm0 0"></path>
    <path d="M13.4 10h.74v.74h-.74zm0 0"></path>
  </symbol>
  <symbol xmlns="http://www.w3.org/2000/svg" id="icon-search">
    <circle cx="7.5" cy="7.5" r="6.5" stroke-width="2"></circle>
    <path stroke-width="2" d="M12.957 12.793l4.5 4.5"></path>
  </symbol>
  <symbol xmlns="http://www.w3.org/2000/svg" viewBox="0 0 5.76 5.76" id="icon-tw">
    <title>Ресурс 8</title>
    <path d="M5.76 2.88A2.88 2.88 0 1 1 2.88 0a2.88 2.88 0 0 1 2.88 2.88zm-1.12-.81a1.38 1.38 0 0 1-.4.11.69.69 0 0 0 .3-.38 1.39 1.39 0 0 1-.43.2.69.69 0 0 0-1.17.63 2 2 0 0 1-1.42-.72.69.69 0 0 0 .21.92.69.69 0 0 1-.31-.09.69.69 0 0 0 .58.65h-.34a.69.69 0 0 0 .64.48 1.38 1.38 0 0 1-.85.29h-.16a2 2 0 0 0 3-1.65v-.09a1.39 1.39 0 0 0 .35-.35z"
       fill-rule="evenodd"></path>
  </symbol>
  <symbol xmlns="http://www.w3.org/2000/svg" viewBox="0 0 5.76 5.76" id="icon-vk">
    <title>Ресурс 9</title>
    <path d="M2.88 0a2.88 2.88 0 1 0 2.88 2.88A2.88 2.88 0 0 0 2.88 0zm1.27 3.15a4.78 4.78 0 0 1 .34.35 1 1 0 0 1 .12.18c0 .09 0 .19-.08.2H4a.39.39 0 0 1-.33-.13l-.2-.22-.07-.1a.11.11 0 0 0-.17 0 .54.54 0 0 0-.05.24c0 .12 0 .15-.16.16a1.31 1.31 0 0 1-.73-.16 1.62 1.62 0 0 1-.49-.46 6.22 6.22 0 0 1-.66-1.11c0-.09 0-.14.09-.14h.5a.15.15 0 0 1 .14.1 3.09 3.09 0 0 0 .34.63.53.53 0 0 0 .13.14.08.08 0 0 0 .13 0 .43.43 0 0 0 0-.13 2 2 0 0 0 0-.46.19.19 0 0 0-.14-.24v-.06a.18.18 0 0 1 .16-.08H3c.09 0 .11.06.12.15v.64s0 .14.08.16.08 0 .12-.06a2 2 0 0 0 .33-.5c0-.08.07-.16.11-.24A.12.12 0 0 1 3.93 2h.61c.09 0 .12.06.09.15a1.39 1.39 0 0 1-.22.38l-.28.38C4 3 4 3 4.15 3.15z"
      fill="#278f60" fill-rule="evenodd"></path>
  </symbol>
  <symbol xmlns="http://www.w3.org/2000/svg" viewBox="0 0 5.76 5.76" id="icon-vk-2">
    <title>Ресурс 5</title>
    <path d="M2.88 0a2.88 2.88 0 1 0 2.88 2.88A2.88 2.88 0 0 0 2.88 0zm1.27 3.15a4.76 4.76 0 0 1 .34.35 1 1 0 0 1 .12.18c0 .09 0 .19-.08.2H4a.39.39 0 0 1-.33-.13l-.2-.22-.07-.1a.11.11 0 0 0-.17 0 .54.54 0 0 0-.05.24c0 .12 0 .15-.16.16a1.31 1.31 0 0 1-.73-.16 1.62 1.62 0 0 1-.49-.46 6.22 6.22 0 0 1-.66-1.11c0-.09 0-.14.09-.14h.5a.15.15 0 0 1 .14.1 3.09 3.09 0 0 0 .34.63.54.54 0 0 0 .13.14.08.08 0 0 0 .13 0 .43.43 0 0 0 0-.13 2 2 0 0 0 0-.46.19.19 0 0 0-.14-.24v-.06a.18.18 0 0 1 .16-.08H3c.09 0 .11.06.12.15v.64s0 .14.08.16.08 0 .12-.06a2 2 0 0 0 .33-.5c0-.08.07-.16.11-.24A.12.12 0 0 1 3.93 2h.61c.09 0 .12.06.09.15a1.39 1.39 0 0 1-.22.38l-.28.38C4 3 4 3 4.15 3.15z"
       fill-rule="evenodd"></path>
  </symbol>
  <symbol xmlns="http://www.w3.org/2000/svg" viewBox="0 0 62.82 14.4" id="icon-1">
    <title>Ресурс 1</title>
    <path fill="#278f60" d="M0 0h62.82v14.4H0z"></path>
  </symbol>
  <symbol xmlns="http://www.w3.org/2000/svg" viewBox="0 0 5.76 5.76" id="icon-3">
    <title>Ресурс 11</title>
    <path d="M2.88 2.39a.5.5 0 1 0-.5-.49.49.49 0 0 0 .5.49zm0-2.39A2.88 2.88 0 1 1 0 2.88 2.88 2.88 0 0 1 2.88 0zm0 .88a1 1 0 1 1-1 1 1 1 0 0 1 1-1zM4 3.3A.22.22 0 0 0 4 3a.23.23 0 0 0-.26-.11.41.41 0 0 0-.12.11 1.36 1.36 0 0 1-1.5 0L2 2.92a.25.25 0 0 0-.28.41l.09.07a1.56 1.56 0 0 0 .83.3l-.05.05-.68.69a.25.25 0 0 0-.08.17.27.27 0 0 0 .17.25.22.22 0 0 0 .27 0l.53-.53s.07-.05.12 0l.52.53a.25.25 0 0 0 .16.08.27.27 0 0 0 .26-.16.23.23 0 0 0-.05-.27l-.69-.7-.04-.11a2 2 0 0 0 .5-.11A1.22 1.22 0 0 0 4 3.3z"
      fill="#278f60" fill-rule="evenodd"></path>
  </symbol>
  <symbol xmlns="http://www.w3.org/2000/svg" viewBox="0 0 5.76 5.76" id="icon-4">
    <title>Ресурс 12</title>
    <path d="M5.76 2.88A2.88 2.88 0 1 1 2.88 0a2.88 2.88 0 0 1 2.88 2.88zm-1.12-.81a1.38 1.38 0 0 1-.4.11.69.69 0 0 0 .3-.38 1.39 1.39 0 0 1-.43.2.69.69 0 0 0-1.17.63 2 2 0 0 1-1.42-.72.69.69 0 0 0 .21.92.69.69 0 0 1-.31-.09.69.69 0 0 0 .58.65h-.34a.69.69 0 0 0 .64.48 1.38 1.38 0 0 1-.85.29h-.16a2 2 0 0 0 3-1.65v-.09a1.39 1.39 0 0 0 .35-.35z"
      fill="#278f60" fill-rule="evenodd"></path>
  </symbol>
  <symbol xmlns="http://www.w3.org/2000/svg" viewBox="0 0 65.26 12" id="icon-5">
    <title>Ресурс 13</title>
    <path d="M.48.48h64.3v11H.48v-11zM0 0v12h65.26V0z" fill="#278f60" fill-rule="evenodd"></path>
  </symbol>
  <symbol xmlns="http://www.w3.org/2000/svg" viewBox="0 0 65.26 12" id="icon-6">
    <title>Ресурс 14</title>
    <path fill="#278f60" d="M0 0h65.26v12H0z"></path>
  </symbol>
  <symbol xmlns="http://www.w3.org/2000/svg" viewBox="0 0 58.62 11.04" id="icon-7">
    <title>Ресурс 15</title>
    <circle cx="5.52" cy="5.52" r="5.52" fill="#fff"></circle>
    <path d="M4.64 5c0 1.84.24 3.58.23 5.44H4c0-1.79.18-3.36.27-5.13l-.25.33-.47.61-.45.56-.25.32-.35.45-.35.44a1.57 1.57 0 0 1-.2.23l-.09.07v-.13s.17-.3.26-.42c.24-.34.45-.7.67-1.06a5.24 5.24 0 0 1 .94-1.31L4 5.17 4.23 5v-.06l.07-.12a.35.35 0 0 0-.05-.13c-.11-.24-.23-.48-.34-.73-.19-.43-1.1-2.69-1.09-2.79V1a2.49 2.49 0 0 1 .25.35l.33.71c.22.46.5.9.75 1.34a3.44 3.44 0 0 1 .23.43 1.41 1.41 0 0 1 0 .2l.06.34.06.29.08.12a3.1 3.1 0 0 0 .48 0h.66a2.25 2.25 0 0 1 .44-.55l.2-.17.2-.06.05-.09a.26.26 0 0 0 0-.09l-.25-.53c-.14-.31-.81-2-.8-2v-.21a1.88 1.88 0 0 1 .18.26l.24.52c.16.34.36.66.55 1a2.43 2.43 0 0 1 .17.32 1 1 0 0 1 0 .15v.46l.06.09a2.25 2.25 0 0 0 .35 0c.35 0 .74.06 1.09.11l1.49.17h.08a.25.25 0 0 1-.15.09H7.81a2.32 2.32 0 0 1-.37 0l-.21-.05-.37-.2v.95l1.75.2h.11a.34.34 0 0 1-.2.13h-.27c-.46 0-.92-.05-1.37-.06C7 6.19 7 7.09 7 8h-.58c0-1 .07-1.84.14-2.75h-.74l-.07.09-.19.23-.25.33-.26.32a1.07 1.07 0 0 1-.15.17h-.07v-.04S5 6.14 5 6c.17-.24.32-.5.48-.75h-.05a2 2 0 0 1-.28-.07L4.64 5zm1.49-.1l.45.1v-.68l-.19.24z"
      fill-rule="evenodd" fill="#278f60"></path>
    <path d="M14.41 1.38a.68.68 0 0 1 .5.21.7.7 0 0 1 .21.51.69.69 0 0 1-.21.5.71.71 0 0 1-1 0 .72.72 0 0 1 .15-1.12.7.7 0 0 1 .36-.1zm0 .25a.42.42 0 0 0-.32.13.46.46 0 0 0-.09.34.44.44 0 0 0 .16.36.44.44 0 0 0 .29.1.42.42 0 0 0 .31-.13.45.45 0 0 0 .13-.33.46.46 0 0 0-.13-.33.42.42 0 0 0-.32-.13zm1.89-.28v.25h-.49a.37.37 0 0 0-.16.07.3.3 0 0 0-.1.12.59.59 0 0 0 0 .2.38.38 0 0 1 .38-.26.47.47 0 0 1 .34.14.5.5 0 0 1 .14.37.53.53 0 0 1-.15.39.52.52 0 0 1-.38.15.53.53 0 0 1-.51-.38 1.35 1.35 0 0 1 0-.33 1 1 0 0 1 .06-.37.49.49 0 0 1 .15-.21.51.51 0 0 1 .21-.1h.6zm-.19.91a.3.3 0 0 0-.11-.2.28.28 0 0 0-.4 0 .32.32 0 0 0 0 .42.26.26 0 0 0 .2.08.27.27 0 0 0 .2-.08.29.29 0 0 0 .08-.21zm1.89.27h.26V3H18v-.22h-1.43v-1h.25v.76h.35v-.77h.25v.76h.35v-.76H18v.76zm1.4-.19h-.81a.27.27 0 0 0 .09.17.29.29 0 0 0 .19.06.33.33 0 0 0 .24-.1l.21.1a.51.51 0 0 1-.19.17.59.59 0 0 1-.26.05.52.52 0 0 1-.38-.15.51.51 0 0 1-.15-.37.52.52 0 0 1 .15-.38.5.5 0 0 1 .37-.15.52.52 0 0 1 .39.15.55.55 0 0 1 .15.4zm-.25-.2a.25.25 0 0 0-.1-.13.29.29 0 0 0-.14-.01.31.31 0 0 0-.19.06.32.32 0 0 0-.09.13zM20.63 2l-.21.12A.35.35 0 0 0 20.3 2h-.14a.32.32 0 0 0-.23.08.29.29 0 0 0-.09.22.28.28 0 0 0 .08.21.31.31 0 0 0 .22.08.32.32 0 0 0 .26-.12l.2.14a.54.54 0 0 1-.46.21.55.55 0 0 1-.42-.16.52.52 0 0 1 .13-.83.61.61 0 0 1 .29-.07.6.6 0 0 1 .27.06.51.51 0 0 1 .2.17zm.14-.21h.94V2h-.34v.77h-.25V2h-.35v-.23zm1.1 1v-1h.41a.36.36 0 0 1 .27.08.26.26 0 0 1 .07.18.22.22 0 0 1-.15.21.26.26 0 0 1 .2.26.27.27 0 0 1-.05.17.25.25 0 0 1-.13.09h-.23zm.25-.61h.1a.14.14 0 0 0 .1 0 .09.09 0 0 0 0-.07.12.12 0 0 0 0-.09.11.11 0 0 0-.08 0h-.12v.22zm0 .42h.13a.13.13 0 0 0 .11 0 .1.1 0 0 0 0-.07.14.14 0 0 0 0-.09.16.16 0 0 0-.12 0h-.11v.23zm1.24-.84a.53.53 0 0 1 .27.07.51.51 0 0 1 .2.19.52.52 0 0 1 .07.26.53.53 0 0 1-.07.27.51.51 0 0 1-.19.19.54.54 0 0 1-.27.07.5.5 0 0 1-.37-.16.53.53 0 0 1 0-.77.51.51 0 0 1 .35-.14zm0 .24a.26.26 0 0 0-.2.08.29.29 0 0 0-.08.21.29.29 0 0 0 .08.21.26.26 0 0 0 .2.08.26.26 0 0 0 .2-.08.29.29 0 0 0 .08-.21.29.29 0 0 0-.08-.21.26.26 0 0 0-.2-.08zm2.25 0l-.21.12a.35.35 0 0 0-.11-.12h-.14a.32.32 0 0 0-.23.08.29.29 0 0 0-.09.22.28.28 0 0 0 .08.21.31.31 0 0 0 .22.08.32.32 0 0 0 .26-.12l.2.14a.54.54 0 0 1-.46.21.55.55 0 0 1-.42-.16.52.52 0 0 1 .13-.83.61.61 0 0 1 .29-.07.6.6 0 0 1 .27.06.51.51 0 0 1 .2.17zm1.23-.23a.54.54 0 0 1 .27.07.52.52 0 0 1 .27.46.53.53 0 0 1-.07.27.51.51 0 0 1-.19.19.54.54 0 0 1-.27.07.5.5 0 0 1-.37-.15.53.53 0 0 1 0-.77.51.51 0 0 1 .35-.14zm0 .24a.26.26 0 0 0-.2.08.29.29 0 0 0-.08.21.29.29 0 0 0 .08.21.26.26 0 0 0 .2.08.26.26 0 0 0 .2-.08.29.29 0 0 0 .08-.21.29.29 0 0 0-.08-.21.26.26 0 0 0-.2-.08zm.74-.21h.59V2h-.34v.77h-.25v-1zm1 0v.11a.48.48 0 0 1 .15-.1.43.43 0 0 1 .17 0 .44.44 0 0 1 .34.15.54.54 0 0 1 .14.38.52.52 0 0 1-.14.38.45.45 0 0 1-.34.15.42.42 0 0 1-.16 0 .49.49 0 0 1-.15-.1v.48h-.25V1.77zm.27.21a.26.26 0 0 0-.2.08.29.29 0 0 0-.08.21.3.3 0 0 0 .08.22.27.27 0 0 0 .39 0 .3.3 0 0 0 .08-.21.3.3 0 0 0-.08-.21.26.26 0 0 0-.2-.08zm1.48-.21h.25v1h-.25v-.13a.5.5 0 0 1-.15.1.42.42 0 0 1-.16 0 .45.45 0 0 1-.34-.15.52.52 0 0 1-.14-.38.54.54 0 0 1 .14-.38.44.44 0 0 1 .32-.12.43.43 0 0 1 .17 0 .47.47 0 0 1 .15.1v-.07zm-.25.2a.26.26 0 0 0-.2.08.33.33 0 0 0 0 .43.26.26 0 0 0 .19.08.26.26 0 0 0 .2-.08.3.3 0 0 0 .08-.22.29.29 0 0 0-.08-.21.26.26 0 0 0-.2-.08zm1 .16h.38v-.39h.25v1h-.25v-.41h-.38v.42h-.25v-1h.25v.36zm1 .65H32v-1h.25v.59l.52-.59h.12v1h-.25V2.2l-.5.58zm1.55-.4h-.2a.54.54 0 0 1-.32-.08A.3.3 0 0 1 33 2v-.23h.25V2c0 .09.06.13.18.13h.2v-.36h.25v1h-.25v-.4zm1.52 0h-.81a.27.27 0 0 0 .09.17.29.29 0 0 0 .19.06.33.33 0 0 0 .24-.1l.21.1a.5.5 0 0 1-.19.17.59.59 0 0 1-.26.05.52.52 0 0 1-.38-.15.51.51 0 0 1-.15-.37.52.52 0 0 1 .15-.38.5.5 0 0 1 .37-.15.52.52 0 0 1 .39.09.55.55 0 0 1 .15.4zm-.25-.2a.25.25 0 0 0-.1-.13.29.29 0 0 0-.13-.08.31.31 0 0 0-.19.06.32.32 0 0 0-.09.13zm.71 0H36v-.44h.25v1H36v-.41h-.38v.42h-.22v-1h.25v.36zm1.14 0h.38v-.44h.25v1h-.25v-.41h-.38v.42h-.25v-1h.25v.36zm1.36-.39a.54.54 0 0 1 .27.07.51.51 0 0 1 .2.19.52.52 0 0 1 .07.26.53.53 0 0 1-.07.27.51.51 0 0 1-.19.19.54.54 0 0 1-.27.07.5.5 0 0 1-.37-.15.53.53 0 0 1 0-.77.51.51 0 0 1 .35-.14zm0 .24a.26.26 0 0 0-.2.08.29.29 0 0 0-.08.21.29.29 0 0 0 .08.21.26.26 0 0 0 .2.08.26.26 0 0 0 .2-.08.29.29 0 0 0 .08-.21.29.29 0 0 0-.08-.21.26.26 0 0 0-.2-.08zm.87.8h-.13v-1h.25v.59l.52-.59h.12v1h-.25V2.2l-.5.58zM39 1.32h.2a.15.15 0 0 0 .07.06h.21a.14.14 0 0 0 .06-.05h.2a.28.28 0 0 1-.11.19.43.43 0 0 1-.27.07.51.51 0 0 1-.19 0 .3.3 0 0 1-.17-.13.28.28 0 0 1 0-.14zm2 .42a.54.54 0 0 1 .27.07.52.52 0 0 1 .27.46.53.53 0 0 1-.07.27.51.51 0 0 1-.19.19.54.54 0 0 1-.28.07.51.51 0 0 1-.37-.15.53.53 0 0 1 0-.77.51.51 0 0 1 .37-.14zM41 2a.26.26 0 0 0-.2.08.29.29 0 0 0-.08.21.29.29 0 0 0 .08.21.26.26 0 0 0 .2.08.26.26 0 0 0 .2-.08.29.29 0 0 0 .08-.21.29.29 0 0 0-.08-.21A.26.26 0 0 0 41 2zm.65-.21h.94V2h-.34v.77H42V2h-.35v-.23zm1.1 1v-1h.41a.36.36 0 0 1 .27.08.26.26 0 0 1 .07.18.22.22 0 0 1-.15.21.26.26 0 0 1 .2.26.27.27 0 0 1-.05.17.25.25 0 0 1-.13.09h-.23zm.25-.63h.1a.14.14 0 0 0 .1 0 .09.09 0 0 0 0-.07.12.12 0 0 0 0-.09.11.11 0 0 0-.08 0H43v.22zm0 .42h.13a.13.13 0 0 0 .11 0 .1.1 0 0 0 0-.07.13.13 0 0 0 0-.09.15.15 0 0 0-.12 0H43v.23zm1.77-.24H44a.28.28 0 0 0 .09.17.29.29 0 0 0 .19.06.33.33 0 0 0 .24-.1l.21.1a.51.51 0 0 1-.19.17.59.59 0 0 1-.26.05.52.52 0 0 1-.38-.15.51.51 0 0 1-.15-.37.52.52 0 0 1 .15-.38.5.5 0 0 1 .37-.15.52.52 0 0 1 .39.15.55.55 0 0 1 .15.4zm-.25-.2a.25.25 0 0 0-.1-.13.29.29 0 0 0-.12-.01.31.31 0 0 0-.19.06.32.32 0 0 0-.09.13zm.37-.38h.94V2h-.34v.77h-.25V2h-.35v-.23zM47 2l-.21.12A.35.35 0 0 0 46.7 2h-.14a.32.32 0 0 0-.23.08.29.29 0 0 0-.09.22.28.28 0 0 0 .08.21.31.31 0 0 0 .22.08.32.32 0 0 0 .26-.12l.2.14a.54.54 0 0 1-.46.21.55.55 0 0 1-.42-.16.52.52 0 0 1 .13-.83.61.61 0 0 1 .29-.07.6.6 0 0 1 .27.06A.51.51 0 0 1 47 2zm.14-.21h.94V2h-.34v.77h-.25V2h-.35v-.23zm1.1 1v-1h.41a.36.36 0 0 1 .27.08A.26.26 0 0 1 49 2a.22.22 0 0 1-.15.21.26.26 0 0 1 .2.26.27.27 0 0 1-.05.17.25.25 0 0 1-.13.09h-.23zm.25-.61h.1a.14.14 0 0 0 .1 0 .09.09 0 0 0 0-.07.12.12 0 0 0 0-.09.11.11 0 0 0-.08 0h-.12v.22zm0 .42h.13a.13.13 0 0 0 .11 0 .1.1 0 0 0 0-.07.13.13 0 0 0 0-.09.15.15 0 0 0-.12 0h-.11v.23zm1.77-.24h-.81a.28.28 0 0 0 .09.17.29.29 0 0 0 .19.06.33.33 0 0 0 .24-.1l.21.1a.51.51 0 0 1-.19.17.59.59 0 0 1-.26.05.52.52 0 0 1-.38-.15.51.51 0 0 1-.15-.37.52.52 0 0 1 .15-.38.5.5 0 0 1 .37-.15.52.52 0 0 1 .39.15.55.55 0 0 1 .15.4zM50 2.15a.25.25 0 0 0-.1-.13.29.29 0 0 0-.13-.02.31.31 0 0 0-.19.06.32.32 0 0 0-.09.13zm.71 0h.38v-.38h.25v1h-.25v-.41h-.38v.42h-.21v-1h.25v.36zm1.14 0h.38v-.38h.25v1h-.25v-.41h-.38v.42h-.25v-1h.25v.36zm1.36-.39a.54.54 0 0 1 .27.07.52.52 0 0 1 .27.46.53.53 0 0 1-.07.27.51.51 0 0 1-.19.19.54.54 0 0 1-.27.07.5.5 0 0 1-.37-.15.53.53 0 0 1 0-.77.51.51 0 0 1 .35-.14zm0 .24a.26.26 0 0 0-.2.08.29.29 0 0 0-.08.21.29.29 0 0 0 .08.21.26.26 0 0 0 .2.08.26.26 0 0 0 .2-.08.29.29 0 0 0 .08-.21.29.29 0 0 0-.08-.21.26.26 0 0 0-.2-.08zM55 2l-.21.12a.35.35 0 0 0-.14-.12h-.14a.32.32 0 0 0-.23.08.29.29 0 0 0-.09.22.28.28 0 0 0 .08.21.31.31 0 0 0 .22.08.32.32 0 0 0 .26-.12l.2.14a.54.54 0 0 1-.46.21.55.55 0 0 1-.42-.16.52.52 0 0 1 .13-.83.61.61 0 0 1 .29-.07.6.6 0 0 1 .27.06A.51.51 0 0 1 55 2zm.14-.21h.94V2h-.34v.77h-.25V2h-.35v-.23zm1.36.36h.08a.94.94 0 0 1 .24 0 .28.28 0 0 1 .14.1.32.32 0 0 1 .06.2.33.33 0 0 1-.05.19.25.25 0 0 1-.13.1.83.83 0 0 1-.23 0h-.36v-1h.25v.36zm0 .45h.23a.1.1 0 0 0 0-.07c0-.09 0-.13-.15-.13h-.11v.24zm1 .2h-.25v-1h.25v.4h.13a.53.53 0 0 1 .19-.31.53.53 0 0 1 .7 0 .5.5 0 0 1 .16.37.53.53 0 0 1-.86.41.5.5 0 0 1-.19-.29h-.13v.38zm.93-.5a.29.29 0 0 0-.08-.21.26.26 0 0 0-.2-.08.26.26 0 0 0-.2.08.29.29 0 0 0-.08.21.29.29 0 0 0 .08.21.26.26 0 0 0 .2.08.27.27 0 0 0 .2-.08.29.29 0 0 0 .02-.24zM13.92 4.15h.4L14 5l.28.84h-.4L13.64 5l.28-.85zm.71 0H15l-.26.85.29.84h-.4L14.34 5l.29-.85zM16 5.32l-.81-1.77h.49l.54 1.28.44-1.28h.45l-.61 1.64a1.28 1.28 0 0 1-.34.56.63.63 0 0 1-.39.14.82.82 0 0 1-.63-.33l.29-.29a.47.47 0 0 0 .34.2.2.2 0 0 0 .12 0l.11-.15zm1.78.52h-.42V4.15h1.48v1.69h-.42V4.56h-.64v1.28zm1.91-1.69v.19a.8.8 0 0 1 .25-.17.73.73 0 0 1 .29-.06.74.74 0 0 1 .56.25A.91.91 0 0 1 21 5a.88.88 0 0 1-.24.63.75.75 0 0 1-.57.25.71.71 0 0 1-.27-.05.82.82 0 0 1-.25-.17v.8h-.42V4.15zm.44.35a.44.44 0 0 0-.33.14.49.49 0 0 0-.13.36.51.51 0 0 0 .13.36.44.44 0 0 0 .33.14.43.43 0 0 0 .33-.14.51.51 0 0 0 .1-.36.5.5 0 0 0-.13-.36.43.43 0 0 0-.33-.14zm2.49-.35H23v1.69h-.42v-.18a.83.83 0 0 1-.25.17.71.71 0 0 1-.27.05.75.75 0 0 1-.57-.25.88.88 0 0 1-.23-.63.91.91 0 0 1 .23-.64.74.74 0 0 1 .56-.25.73.73 0 0 1 .29.06.8.8 0 0 1 .25.17v-.19zm-.45.35a.43.43 0 0 0-.33.14.5.5 0 0 0-.13.36.51.51 0 0 0 .13.36.46.46 0 0 0 .66 0 .51.51 0 0 0 .11-.36.49.49 0 0 0-.13-.36.44.44 0 0 0-.33-.14zm1.3 1.34V4.15h.68a.61.61 0 0 1 .45.13.43.43 0 0 1 .12.3.37.37 0 0 1-.25.36.43.43 0 0 1 .33.43.44.44 0 0 1-.09.28.42.42 0 0 1-.22.15 1.5 1.5 0 0 1-.38 0zm.42-1H24a.23.23 0 0 0 .16-.05.15.15 0 0 0 .06-.12.2.2 0 0 0-.06-.15.18.18 0 0 0-.13-.05h-.2v.37zm0 .7h.22a.23.23 0 0 0 .18-.06.18.18 0 0 0 .05-.11.23.23 0 0 0-.06-.15.26.26 0 0 0-.28-.09h-.18v.39zm2.79.33h-.43l-.45-1.1-.43 1.07h-.43l.72-1.69h.27l.72 1.69zm.51-.69a.44.44 0 0 1-.25-.18.48.48 0 0 1-.09-.28.53.53 0 0 1 .15-.35.46.46 0 0 1 .26-.18 2.08 2.08 0 0 1 .46 0h.43v1.65h-.42v-.61h-.08l-.41.61h-.5l.47-.69zm.52-.24V4.5h-.15c-.16 0-.24.07-.24.2s.09.2.27.2zm1.29.9h-.42V4.15H29v.67h.23a.88.88 0 0 1 .33-.52.89.89 0 0 1 1.17.07.85.85 0 0 1 .26.63.89.89 0 0 1-1.45.7.84.84 0 0 1-.31-.48H29v.63zM30.52 5a.49.49 0 0 0-.13-.35.44.44 0 0 0-.33-.14.43.43 0 0 0-.33.14.54.54 0 0 0 0 .7.44.44 0 0 0 .33.14.45.45 0 0 0 .33-.14.48.48 0 0 0 .13-.35zm3.22.44h.43v.7h-.4v-.3h-2.48V4.15h.42v1.28h.59V4.15h.42v1.28h.59V4.15h.42v1.28zm1.91-1.28h.42v1.68h-.42v-.18a.83.83 0 0 1-.25.17.71.71 0 0 1-.27.05.75.75 0 0 1-.57-.25.88.88 0 0 1-.24-.63.91.91 0 0 1 .23-.64.74.74 0 0 1 .56-.25.73.73 0 0 1 .29.06.8.8 0 0 1 .25.17v-.19zm-.45.35a.43.43 0 0 0-.33.14.5.5 0 0 0-.13.36.51.51 0 0 0 .13.36.43.43 0 0 0 .33.14.44.44 0 0 0 .33-.14.51.51 0 0 0 .14-.37.49.49 0 0 0-.13-.36.44.44 0 0 0-.33-.14zm1.59.65a.44.44 0 0 1-.23-.16.48.48 0 0 1-.09-.28.53.53 0 0 1 .11-.33.46.46 0 0 1 .26-.18 2.08 2.08 0 0 1 .46 0h.43v1.63h-.42v-.61h-.08l-.4.61h-.5l.47-.69zm.52-.24V4.5h-.15q-.24 0-.24.2c0 .14.09.2.27.2zm1.74-.76h.42v.63l.59-.63h.52l-.76.84.77.87H40l-.51-.6v.59h-.42V4.15zm2.51 0a.9.9 0 0 1 .45.12.87.87 0 0 1 .45.77.89.89 0 0 1-.12.45.86.86 0 0 1-.32.32.9.9 0 0 1-.45.12.85.85 0 0 1-.62-.26.89.89 0 0 1 0-1.29.85.85 0 0 1 .59-.23zm0 .4a.44.44 0 0 0-.33.14.49.49 0 0 0-.13.3.5.5 0 0 0 .13.36.44.44 0 0 0 .33.14.44.44 0 0 0 .33-.14.54.54 0 0 0 0-.71.44.44 0 0 0-.33-.14zm2.27.71l.52-1.07h.28l.42 1.69h-.41l-.23-1-.51 1h-.17l-.49-1-.23 1h-.41l.4-1.74h.28l.53 1.07zm1.88.62h-.42V4.15h1.48v1.69h-.42V4.56h-.64v1.28zm2.74-1.69h.42v1.64h-.42v-.18a.83.83 0 0 1-.25.17.71.71 0 0 1-.27.05.75.75 0 0 1-.57-.25.88.88 0 0 1-.23-.63.91.91 0 0 1 .23-.64.74.74 0 0 1 .56-.25.72.72 0 0 1 .29.06.8.8 0 0 1 .25.17v-.19zm-.45.3a.43.43 0 0 0-.33.14.5.5 0 0 0-.13.36.5.5 0 0 0 .13.36.43.43 0 0 0 .33.14.44.44 0 0 0 .33-.14.51.51 0 0 0 .15-.36.49.49 0 0 0-.13-.36.44.44 0 0 0-.35-.14zm1.72.26h.64v-.61h.42v1.69h-.42v-.7h-.64v.7h-.42V4.15h.42v.61zm1.71 1.08h-.23V4.15h.41v1l.87-1h.2v1.69h-.41v-1l-.84 1zm2-.69a.44.44 0 0 1-.24-.15.48.48 0 0 1-.09-.28.53.53 0 0 1 .11-.33.46.46 0 0 1 .26-.18 2.08 2.08 0 0 1 .46 0h.43v1.63h-.42v-.61h-.08l-.41.61h-.5l.47-.69zm.52-.24V4.5h-.15c-.16 0-.24.07-.24.2s.09.2.27.2zm-40.03 2.5h.4l-.32.85.28.84h-.4l-.28-.84.28-.85zm.71 0H15l-.29.85.29.84h-.4l-.29-.84.29-.85zm.69 1.69V6.81h.36a1.86 1.86 0 0 1 .46 0 .62.62 0 0 1 .33.2.53.53 0 0 1 .12.35.51.51 0 0 1-.05.24.61.61 0 0 1-.18.2.71.71 0 0 1 .3.24.62.62 0 0 1 .1.35.65.65 0 0 1-.1.35.64.64 0 0 1-.26.26 1 1 0 0 1-.4.1zm.43-1.87v.48h.1a.37.37 0 0 0 .24-.07.23.23 0 0 0 .08-.18.21.21 0 0 0-.07-.17.35.35 0 0 0-.23-.06zm0 .87v.59h.11a.69.69 0 0 0 .37-.07.23.23 0 0 0 .1-.2.28.28 0 0 0-.11-.23.63.63 0 0 0-.37-.09zm3.06.27h-1.35a.46.46 0 0 0 .16.29.49.49 0 0 0 .33.11.56.56 0 0 0 .41-.17l.36.17a.84.84 0 0 1-.32.28 1 1 0 0 1-.44.09.87.87 0 0 1-.65-.25.85.85 0 0 1-.31-.63.88.88 0 0 1 .25-.64.84.84 0 0 1 .63-.26.87.87 0 0 1 .65.25.92.92 0 0 1 .25.67v.08zM18.4 8a.42.42 0 0 0-.17-.23.49.49 0 0 0-.29-.09.52.52 0 0 0-.31.1.54.54 0 0 0-.16.21zm.6-.59h1.58v.4H20V9.1h-.42V7.81H19v-.4zm2.28 0v.19a.8.8 0 0 1 .25-.17.73.73 0 0 1 .29-.06.74.74 0 0 1 .56.25.9.9 0 0 1 .23.64.88.88 0 0 1-.24.63.75.75 0 0 1-.57.25.71.71 0 0 1-.27-.05.82.82 0 0 1-.25-.17v.8h-.42V7.41zm.44.35a.44.44 0 0 0-.33.14.49.49 0 0 0-.13.36.51.51 0 0 0 .13.36.46.46 0 0 0 .66 0 .51.51 0 0 0 .13-.36.5.5 0 0 0-.13-.36.43.43 0 0 0-.33-.14zm2-.39a.9.9 0 0 1 .45.12.87.87 0 0 1 .45.77.89.89 0 0 1-.12.45.86.86 0 0 1-.33.32.9.9 0 0 1-.45.12.85.85 0 0 1-.62-.26.89.89 0 0 1 .62-1.52zm0 .4a.44.44 0 0 0-.33.14.49.49 0 0 0-.13.35.5.5 0 0 0 .13.36.44.44 0 0 0 .33.14.44.44 0 0 0 .33-.14.54.54 0 0 0 0-.71.44.44 0 0 0-.33-.14zm2.43.66h-.57v-.37h.57a.51.51 0 0 0-.5-.31.62.62 0 0 0-.44.19l-.35-.19a1 1 0 0 1 1.47-.13.89.89 0 0 1 0 1.27 1 1 0 0 1-.7.25 1 1 0 0 1-.77-.35l.33-.23a.53.53 0 0 0 .45.2.49.49 0 0 0 .49-.33zM27.42 8h.64v-.59h.42V9.1h-.42v-.7h-.64v.7H27V7.41h.42V8zm3.18.36h-1.36a.46.46 0 0 0 .16.29.49.49 0 0 0 .33.11.56.56 0 0 0 .41-.17l.36.17a.84.84 0 0 1-.32.28 1 1 0 0 1-.44.09.87.87 0 0 1-.65-.25.85.85 0 0 1-.25-.63.88.88 0 0 1 .25-.64.84.84 0 0 1 .63-.26.87.87 0 0 1 .65.25.92.92 0 0 1 .25.67v.08zM30.18 8a.42.42 0 0 0-.18-.19.49.49 0 0 0-.29-.09.52.52 0 0 0-.31.1.54.54 0 0 0-.16.21zm1.19-.63v.19a.8.8 0 0 1 .25-.17.73.73 0 0 1 .29-.06.74.74 0 0 1 .56.25.91.91 0 0 1 .23.64.88.88 0 0 1-.24.63.75.75 0 0 1-.57.25.71.71 0 0 1-.27-.05.82.82 0 0 1-.25-.17v.8h-.42V7.41zm.44.35a.44.44 0 0 0-.33.14.49.49 0 0 0-.13.36.51.51 0 0 0 .13.36.46.46 0 0 0 .66 0 .51.51 0 0 0 .13-.36.5.5 0 0 0-.13-.36.43.43 0 0 0-.33-.14zm1.23-.35h1v.4h-.56V9.1h-.42V7.41zm3 1h-1.38a.46.46 0 0 0 .16.29.49.49 0 0 0 .33.11.56.56 0 0 0 .41-.17l.36.17a.85.85 0 0 1-.32.28 1 1 0 0 1-.44.09.87.87 0 0 1-.65-.25.85.85 0 0 1-.25-.63.88.88 0 0 1 .25-.64.84.84 0 0 1 .63-.26.87.87 0 0 1 .65.25.92.92 0 0 1 .25.67v.08zM35.6 8a.42.42 0 0 0-.17-.23.49.49 0 0 0-.29-.09.52.52 0 0 0-.31.1.55.55 0 0 0-.16.21zm.62-.63h1.58v.4h-.56V9.1h-.44V7.81h-.59v-.4zm2.07 1.73h-.23V7.41h.41v1l.87-1h.2V9.1h-.41v-1l-.84 1zM40 7.41h.42V8l.58-.59h.52l-.76.82.77.87H41l-.51-.6v.6H40V7.41zm3 0h.42V9.1H43v-.18a.83.83 0 0 1-.25.17.7.7 0 0 1-.27.05.76.76 0 0 1-.57-.25.88.88 0 0 1-.24-.63.9.9 0 0 1 .23-.64.74.74 0 0 1 .56-.25.72.72 0 0 1 .29.06.79.79 0 0 1 .25.17v-.19zm-.45.35a.43.43 0 0 0-.33.14.5.5 0 0 0-.13.36.51.51 0 0 0 .13.36.46.46 0 0 0 .66 0 .51.51 0 0 0 .12-.37.49.49 0 0 0-.13-.36.44.44 0 0 0-.33-.14zm2.17 1.34h-.4l.29-.85-.29-.84h.4l.29.84-.29.85zm-.7 0h-.4l.28-.85-.28-.84H44l.28.84z"></path>
  </symbol>
  <symbol xmlns="http://www.w3.org/2000/svg" viewBox="0 0 80.62 15.18" id="icon-8">
    <title>Ресурс 16</title>
    <circle cx="7.59" cy="7.59" r="7.59" fill="#fff"></circle>
    <path d="M6.39 6.94c0 2.53.32 4.93.32 7.47H5.57c0-2.46.25-4.62.38-7l-.35.45-.65.84-.62.77-.33.4-.48.62-.52.6a2.15 2.15 0 0 1-.27.31l-.13.09v-.23s.24-.41.35-.57c.32-.47.62-1 .93-1.45a7.21 7.21 0 0 1 1.31-1.81l.37-.32.26-.24v-.09a1.71 1.71 0 0 1 .1-.17.48.48 0 0 0-.07-.18c-.16-.33-.32-.66-.47-1-.27-.59-1.51-3.69-1.49-3.84v-.22a3.4 3.4 0 0 1 .34.48l.45 1c.3.63.68 1.24 1 1.84a4.72 4.72 0 0 1 .32.57 2 2 0 0 1 .06.28l.12.46c0 .13.05.27.08.4l.11.17a4.27 4.27 0 0 0 .66 0c.29 0 .6 0 .91.07a3.08 3.08 0 0 1 .6-.75l.27-.24.19-.14v-.05l.07-.13A.35.35 0 0 0 9 5.19c-.12-.24-.23-.49-.34-.73C8.5 4 7.59 1.75 7.6 1.64v-.15a2.61 2.61 0 0 1 .25.35l.33.71c.22.46.5.91.76 1.35a3.35 3.35 0 0 1 .23.44 1.42 1.42 0 0 1 0 .2l.06.34.06.29.08.12a3 3 0 0 0 .48 0c.49 0 1 .09 1.5.15l2 .24h.11a.34.34 0 0 1-.2.13h-.27c-.49 0-1-.06-1.49-.07h-.87a3.2 3.2 0 0 1-.51 0 2 2 0 0 1-.28-.07l-.51-.17v1.3l2.4.28.27.12a.47.47 0 0 1-.27.17h-.37c-.63 0-1.26-.07-1.89-.09.07 1.26.17 2.49.17 3.79h-.81c0-1.32.1-2.53.19-3.78H8l-.09.12-.26.32-.35.45-.3.43a1.49 1.49 0 0 1-.2.23l-.09.07v-.17s.18-.3.26-.42c.23-.33.44-.69.66-1h-.16a2.74 2.74 0 0 1-.39-.09 9.42 9.42 0 0 1-.69-.24zm2-.21l.62.08c0-.31 0-.62.06-.94l-.26.33z"
      fill-rule="evenodd" fill="#278f60"></path>
    <path d="M19.82 1.9a.93.93 0 0 1 .68.29 1 1 0 0 1 .29.7 1 1 0 0 1-.28.69 1 1 0 0 1-1.38 0 1 1 0 0 1 .2-1.58 1 1 0 0 1 .49-.13zm0 .35a.58.58 0 0 0-.44.18.63.63 0 0 0-.18.46.6.6 0 0 0 .22.49.61.61 0 0 0 .4.14.58.58 0 0 0 .43-.18.62.62 0 0 0 .18-.45.63.63 0 0 0-.18-.45.58.58 0 0 0-.44-.19zm2.6-.38v.33h-.67a.51.51 0 0 0-.23.09.4.4 0 0 0-.14.17.79.79 0 0 0 0 .27.53.53 0 0 1 .52-.36.64.64 0 0 1 .47.2.68.68 0 0 1 .2.51.72.72 0 0 1-.21.53.71.71 0 0 1-.52.21.72.72 0 0 1-.7-.53 1.84 1.84 0 0 1-.14-.42 1.39 1.39 0 0 1 .08-.51.68.68 0 0 1 .21-.29.7.7 0 0 1 .29-.13 3.5 3.5 0 0 1 .49 0h.33zm-.26 1.26a.41.41 0 0 0-.1-.29.38.38 0 0 0-.55 0 .44.44 0 0 0 0 .58.36.36 0 0 0 .27.11.37.37 0 0 0 .22-.12.4.4 0 0 0 .11-.29zm2.63.36h.35v.58h-.33v-.25h-2V2.43h.35v1.05h.48V2.43H24v1.05h.48V2.43h.35v1.05zm1.93-.26h-1.11a.38.38 0 0 0 .13.24.4.4 0 0 0 .27.09.46.46 0 0 0 .33-.14l.29.14a.69.69 0 0 1-.26.23.82.82 0 0 1-.36.07.71.71 0 0 1-.53-.2.7.7 0 0 1-.2-.51.72.72 0 0 1 .2-.53.69.69 0 0 1 .52-.22.71.71 0 0 1 .53.21.75.75 0 0 1 .2.55v.07zM26.38 3a.34.34 0 0 0-.14-.18.4.4 0 0 0-.24-.13.42.42 0 0 0-.26.08.45.45 0 0 0-.13.18zm2-.24l-.29.16a.49.49 0 0 0-.16-.12.48.48 0 0 0-.19 0 .44.44 0 0 0-.32.12.39.39 0 0 0-.12.3.38.38 0 0 0 .12.29.42.42 0 0 0 .3.11.44.44 0 0 0 .36-.16l.27.19a.85.85 0 0 1-1.2.07.72.72 0 0 1 .17-1.14.84.84 0 0 1 .4-.1.82.82 0 0 1 .37.08.7.7 0 0 1 .27.23zm.19-.28h1.29v.33h-.46v1.01H29V2.76h-.48v-.33zm1.52 1.39V2.43h.56a.5.5 0 0 1 .37.11.35.35 0 0 1 .1.24.3.3 0 0 1-.2.29.36.36 0 0 1 .27.36.37.37 0 0 1-.07.23.34.34 0 0 1-.18.12 1.22 1.22 0 0 1-.31 0zm.33-.87h.14a.19.19 0 0 0 .13 0 .13.13 0 0 0 0-.09.16.16 0 0 0 0-.12.15.15 0 0 0-.11 0h-.16V3zm0 .57h.18a.19.19 0 0 0 .14 0 .14.14 0 0 0 0-.09.19.19 0 0 0 0-.12.21.21 0 0 0-.17-.06h-.15v.32zm1.7-1.15a.74.74 0 0 1 .37.1.72.72 0 0 1 .37.63.73.73 0 0 1-.1.37.7.7 0 0 1-.27.27.74.74 0 0 1-.37.1.69.69 0 0 1-.51-.21.73.73 0 0 1 0-1.05.7.7 0 0 1 .48-.19zm0 .33a.36.36 0 0 0-.27.11.4.4 0 0 0-.11.29.4.4 0 0 0 .11.29.36.36 0 0 0 .27.11.36.36 0 0 0 .27-.11.4.4 0 0 0 .11-.29.4.4 0 0 0-.11-.29.36.36 0 0 0-.27-.11zm3.1 0l-.29.16a.43.43 0 0 0-.35-.15.44.44 0 0 0-.32.12.39.39 0 0 0-.12.3.38.38 0 0 0 .12.29.42.42 0 0 0 .3.11.44.44 0 0 0 .36-.16l.27.19a.75.75 0 0 1-.63.29.76.76 0 0 1-.56-.27.72.72 0 0 1 .17-1.14.84.84 0 0 1 .4-.1.82.82 0 0 1 .37.08.71.71 0 0 1 .27.23zm1.7-.32a.74.74 0 0 1 .37.1.71.71 0 0 1 .37.63.73.73 0 0 1-.1.37.7.7 0 0 1-.27.27.74.74 0 0 1-.37.1.69.69 0 0 1-.51-.21.73.73 0 0 1 0-1.05.7.7 0 0 1 .48-.19zm0 .33a.36.36 0 0 0-.27.11.4.4 0 0 0-.11.29.41.41 0 0 0 .11.29.36.36 0 0 0 .27.11.36.36 0 0 0 .27-.11.4.4 0 0 0 .11-.29.4.4 0 0 0-.11-.29.36.36 0 0 0-.27-.11zm1-.29h.81v.33h-.46v1.02h-.35V2.43zm1.39 0v.15a.65.65 0 0 1 .2-.14.62.62 0 0 1 .69.16.74.74 0 0 1 .19.52.72.72 0 0 1-.2.52.62.62 0 0 1-.46.21.58.58 0 0 1-.22 0 .67.67 0 0 1-.21-.14v.65H39V2.43zm.36.28a.36.36 0 0 0-.27.11.4.4 0 0 0-.11.29.41.41 0 0 0 .11.3.37.37 0 0 0 .54 0 .45.45 0 0 0 0-.59.35.35 0 0 0-.27-.11zm2-.28h.35v1.35h-.35v-.15a.67.67 0 0 1-.2.14.57.57 0 0 1-.22 0 .62.62 0 0 1-.47-.21.72.72 0 0 1-.2-.52.74.74 0 0 1 .19-.52.61.61 0 0 1 .46-.2.6.6 0 0 1 .23 0 .64.64 0 0 1 .2.14v-.07zm-.37.28a.35.35 0 0 0-.27.11.41.41 0 0 0-.11.29.41.41 0 0 0 .11.3.35.35 0 0 0 .27.12.36.36 0 0 0 .27-.11.42.42 0 0 0 .11-.3.4.4 0 0 0-.11-.29.36.36 0 0 0-.27-.11zm1.41.21h.52v-.5h.35v1.36h-.28v-.58h-.52v.57h-.35V2.43h.35v.5zm1.4.89H44V2.43h.34v.81l.66-.81h.17v1.39h-.34V3l-.69.8zm2.14-.55H46a.75.75 0 0 1-.44-.11.41.41 0 0 1-.15-.36v-.4h.35v.34Q45.8 3 46 3h.28v-.57h.35v1.39h-.35v-.55zm2.08 0h-1.04a.38.38 0 0 0 .13.24.4.4 0 0 0 .27.09.46.46 0 0 0 .31-.22l.29.14a.69.69 0 0 1-.26.23.82.82 0 0 1-.36.07.71.71 0 0 1-.53-.2.7.7 0 0 1-.2-.51.72.72 0 0 1 .2-.53.69.69 0 0 1 .51-.21.71.71 0 0 1 .53.21.75.75 0 0 1 .2.55v.07zm-.27-.3a.34.34 0 0 0-.14-.18.4.4 0 0 0-.24-.07.42.42 0 0 0-.26.08.45.45 0 0 0-.12.17zm1 0h.52v-.5h.35v1.32h-.35v-.58H49v.57h-.35V2.43H49v.5zm1.57 0h.52v-.5h.35v1.32h-.35v-.58h-.55v.57h-.35V2.43h.35v.5zm1.87-.53a.74.74 0 0 1 .37.1.72.72 0 0 1 .37.63.73.73 0 0 1-.1.37.7.7 0 0 1-.27.27.74.74 0 0 1-.37.1.69.69 0 0 1-.5-.3.73.73 0 0 1 0-1.05.7.7 0 0 1 .48-.19zm0 .33a.36.36 0 0 0-.27.11.4.4 0 0 0-.11.29.41.41 0 0 0 .11.29.36.36 0 0 0 .27.11.36.36 0 0 0 .27-.11.4.4 0 0 0 .11-.29.4.4 0 0 0-.11-.29.36.36 0 0 0-.27-.11zm1.2 1.09h-.19V2.43h.34v.81l.71-.81h.17v1.39h-.34V3l-.69.8zm-.09-2h.28a.2.2 0 0 0 .11.01.36.36 0 0 0 .14 0 .39.39 0 0 0 .16 0 .19.19 0 0 0 .08-.07h.28a.38.38 0 0 1-.15.26.6.6 0 0 1-.36.1.69.69 0 0 1-.26 0 .42.42 0 0 1-.23-.19.39.39 0 0 1-.08-.19zm2.85.58a.73.73 0 0 1 .37.1.72.72 0 0 1 .37.63.73.73 0 0 1-.1.37.7.7 0 0 1-.27.27.74.74 0 0 1-.37.1.69.69 0 0 1-.51-.21.73.73 0 0 1 0-1.05.7.7 0 0 1 .48-.19zm0 .33a.36.36 0 0 0-.27.11.4.4 0 0 0-.11.29.41.41 0 0 0 .11.29.36.36 0 0 0 .27.11.36.36 0 0 0 .27-.11.4.4 0 0 0 .11-.29.4.4 0 0 0-.11-.29.36.36 0 0 0-.27-.11zm.89-.29h1.29v.33h-.46v.98h-.35V2.76h-.48v-.33zm1.52 1.39V2.43h.56a.5.5 0 0 1 .37.11.35.35 0 0 1 .1.24.3.3 0 0 1-.2.29.36.36 0 0 1 .27.36.37.37 0 0 1-.07.23.34.34 0 0 1-.18.12 1.21 1.21 0 0 1-.31 0zm.33-.9h.14a.19.19 0 0 0 .13 0 .13.13 0 0 0 0-.09.16.16 0 0 0 0-.12.15.15 0 0 0-.11 0h-.16V3zm0 .57h.18a.18.18 0 0 0 .14 0 .14.14 0 0 0 0-.09.19.19 0 0 0 0-.12.21.21 0 0 0-.17-.06h-.15v.32zm2.44-.33h-1.12a.38.38 0 0 0 .13.24.4.4 0 0 0 .27.09.46.46 0 0 0 .33-.14l.29.14a.69.69 0 0 1-.26.23.82.82 0 0 1-.36.07.71.71 0 0 1-.53-.2.7.7 0 0 1-.2-.51.72.72 0 0 1 .2-.53.69.69 0 0 1 .51-.21.71.71 0 0 1 .53.21.75.75 0 0 1 .2.55v.07zM61.29 3a.34.34 0 0 0-.14-.18.4.4 0 0 0-.24-.07.42.42 0 0 0-.26.08.45.45 0 0 0-.13.18zm.51-.52h1.29v.33h-.46v1.01h-.35V2.76h-.48v-.33zm2.88.28l-.29.16a.49.49 0 0 0-.16-.12.48.48 0 0 0-.19 0 .44.44 0 0 0-.32.12.39.39 0 0 0-.12.3.38.38 0 0 0 .12.29.42.42 0 0 0 .3.11.44.44 0 0 0 .36-.16l.27.19a.75.75 0 0 1-.63.29.76.76 0 0 1-.57-.22.72.72 0 0 1 .17-1.14.84.84 0 0 1 .4-.1.82.82 0 0 1 .37.08.71.71 0 0 1 .27.23zm.19-.28h1.29v.33h-.46v1.01h-.35V2.76h-.48v-.33zm1.52 1.39V2.43h.56a.5.5 0 0 1 .37.11.35.35 0 0 1 .1.24.3.3 0 0 1-.2.29.36.36 0 0 1 .27.36.37.37 0 0 1-.07.23.34.34 0 0 1-.18.12 1.21 1.21 0 0 1-.31 0zm.34-.87h.14A.19.19 0 0 0 67 3a.13.13 0 0 0 0-.09.16.16 0 0 0 0-.12.15.15 0 0 0-.11 0h-.16V3zm0 .57h.18a.19.19 0 0 0 .14 0 .14.14 0 0 0 0-.09.19.19 0 0 0 0-.12.21.21 0 0 0-.17-.06h-.15v.32zm2.44-.33H68a.38.38 0 0 0 .13.24.4.4 0 0 0 .27.09.46.46 0 0 0 .33-.14l.29.14a.69.69 0 0 1-.26.23.82.82 0 0 1-.36.07.71.71 0 0 1-.53-.2.7.7 0 0 1-.2-.51.72.72 0 0 1 .2-.53.69.69 0 0 1 .51-.21.71.71 0 0 1 .53.21.75.75 0 0 1 .2.55v.07zM68.82 3a.34.34 0 0 0-.14-.18.4.4 0 0 0-.24-.07.42.42 0 0 0-.26.08.45.45 0 0 0-.13.18zm1 0h.52v-.5h.35v1.32h-.35v-.58h-.52v.57h-.35V2.43h.35v.5zm1.57 0h.52v-.5h.35v1.32h-.35v-.58h-.52v.57H71V2.43h.35v.5zm1.87-.53a.74.74 0 0 1 .37.1.72.72 0 0 1 .37.63.73.73 0 0 1-.1.37.7.7 0 0 1-.27.27.74.74 0 0 1-.37.1.69.69 0 0 1-.51-.21.73.73 0 0 1 0-1.05.7.7 0 0 1 .48-.19zm0 .33a.36.36 0 0 0-.27.11.4.4 0 0 0-.11.29.41.41 0 0 0 .11.29.36.36 0 0 0 .27.11.36.36 0 0 0 .27-.11.4.4 0 0 0 .11-.29.4.4 0 0 0-.11-.29.36.36 0 0 0-.27-.11zm2.37 0l-.29.16a.49.49 0 0 0-.16-.12.48.48 0 0 0-.19 0 .44.44 0 0 0-.32.12.39.39 0 0 0-.12.3.38.38 0 0 0 .12.29.42.42 0 0 0 .3.11.44.44 0 0 0 .36-.16l.27.19a.85.85 0 0 1-1.2.07.72.72 0 0 1 .17-1.14.84.84 0 0 1 .4-.1.82.82 0 0 1 .37.08.7.7 0 0 1 .27.23zm.19-.28h1.29v.33h-.46v.97h-.35V2.76h-.5v-.33zm1.87.5h.1a1.3 1.3 0 0 1 .34 0 .38.38 0 0 1 .2.14.43.43 0 0 1 .08.27.46.46 0 0 1-.07.27.35.35 0 0 1-.19.14 1.13 1.13 0 0 1-.32 0h-.49V2.43h.35v.5zm0 .62h.24a.16.16 0 0 0 .07-.16.14.14 0 0 0 0-.09q0-.18-.21-.18h-.14v.33zm1.31.18h-.35V2.43H79V3h.19a.72.72 0 0 1 .27-.43.73.73 0 0 1 1 .06.69.69 0 0 1 .22.52.73.73 0 0 1-1.19.57.69.69 0 0 1-.26-.39H79v.52zm1.28-.69a.4.4 0 0 0-.11-.29.36.36 0 0 0-.27-.11.35.35 0 0 0-.27.11.44.44 0 0 0 0 .58.36.36 0 0 0 .27.11.37.37 0 0 0 .27-.11.4.4 0 0 0 .1-.3zM19.15 5.71h.54l-.39 1.17.39 1.12h-.55l-.39-1.15.39-1.17zm1 0h.55l-.39 1.17.36 1.12h-.55l-.39-1.15.39-1.17zM22 7.32l-1.16-2.43h.68l.74 1.76.61-1.76h.62l-.84 2.25a1.76 1.76 0 0 1-.47.77.87.87 0 0 1-.54.19 1.13 1.13 0 0 1-.86-.46l.39-.39a.64.64 0 0 0 .46.27.27.27 0 0 0 .17 0 .92.92 0 0 0 .2-.2zm2.4.68h-.58V5.71h2V8h-.58V6.27h-.84V8zM27 5.71V6a1.1 1.1 0 0 1 .34-.23 1 1 0 0 1 .39-.08 1 1 0 0 1 .77.34 1.25 1.25 0 0 1 .32.88 1.21 1.21 0 0 1-.33.87 1 1 0 0 1-.78.35 1 1 0 0 1-.33-.13 1.12 1.12 0 0 1-.38-.22v1.1h-.58V5.71zm.61.48a.61.61 0 0 0-.46.19.68.68 0 0 0-.18.49.7.7 0 0 0 .18.5.6.6 0 0 0 .46.19.59.59 0 0 0 .45-.19.7.7 0 0 0 .18-.5.69.69 0 0 0-.18-.49.59.59 0 0 0-.45-.19zm3.42-.48h.58V8h-.58v-.21a1.14 1.14 0 0 1-.34.23 1 1 0 0 1-.37.07 1 1 0 0 1-.78-.35 1.21 1.21 0 0 1-.33-.87 1.25 1.25 0 0 1 .34-.87 1 1 0 0 1 .77-.34 1 1 0 0 1 .39.08 1.09 1.09 0 0 1 .34.23v-.26zm-.61.48a.59.59 0 0 0-.45.19.69.69 0 0 0-.18.49.7.7 0 0 0 .18.5.63.63 0 0 0 .91 0 .7.7 0 0 0 .18-.5.68.68 0 0 0-.18-.49.61.61 0 0 0-.46-.19zM32.23 8V5.71h.94a.83.83 0 0 1 .62.18.59.59 0 0 1 .21.41.51.51 0 0 1-.34.49.6.6 0 0 1 .46.6.61.61 0 0 1-.12.39.58.58 0 0 1-.31.21 2.05 2.05 0 0 1-.52.05zm.58-1.41H33a.32.32 0 0 0 .22-.07.21.21 0 0 0 .08-.16.27.27 0 0 0-.08-.2.25.25 0 0 0-.18-.07h-.27v.5zm0 1h.3a.31.31 0 0 0 .24-.08.24.24 0 0 0 .07-.16.31.31 0 0 0-.08-.21.36.36 0 0 0-.28-.14h-.25v.53zm3.85.41h-.59l-.59-1.47L34.89 8h-.59l1-2.33h.38l1 2.33zm.7-1a.61.61 0 0 1-.36-.15.65.65 0 0 1-.12-.39.73.73 0 0 1 .2-.46.63.63 0 0 1 .35-.25 2.87 2.87 0 0 1 .64-.05h.59V8h-.58v-.81H38l-.59.81h-.69l.65-1zm.72-.32v-.49h-.2q-.33 0-.33.28t.37.28zM39.83 8h-.58V5.71h.58v.92h.31a1.22 1.22 0 0 1 .45-.72A1.22 1.22 0 0 1 42.2 6a1.16 1.16 0 0 1 .36.86 1.19 1.19 0 0 1-.35.86 1.18 1.18 0 0 1-.88.36 1.19 1.19 0 0 1-.76-.27 1.15 1.15 0 0 1-.43-.66h-.31V8zM42 6.87a.67.67 0 0 0-.18-.48.61.61 0 0 0-.46-.19.59.59 0 0 0-.45.19.74.74 0 0 0 0 1 .6.6 0 0 0 .45.19.61.61 0 0 0 .45-.19.66.66 0 0 0 .19-.52zm4.42.6H47v1h-.56V8H43V5.71h.58v1.76h.81V5.71H45v1.76h.81V5.71h.58v1.76zM49 5.71h.58V8H49v-.21a1.14 1.14 0 0 1-.34.23 1 1 0 0 1-.37.07 1 1 0 0 1-.78-.35 1.21 1.21 0 0 1-.33-.87 1.25 1.25 0 0 1 .34-.87 1 1 0 0 1 .77-.34 1 1 0 0 1 .39.08A1.08 1.08 0 0 1 49 6v-.29zm-.61.48a.59.59 0 0 0-.45.19.69.69 0 0 0-.18.49.7.7 0 0 0 .18.5.59.59 0 0 0 .45.19.6.6 0 0 0 .46-.19.7.7 0 0 0 .18-.5.68.68 0 0 0-.18-.49.61.61 0 0 0-.46-.19zm2.18.89a.61.61 0 0 1-.31-.23.65.65 0 0 1-.12-.39.72.72 0 0 1 .17-.46.63.63 0 0 1 .35-.25 2.87 2.87 0 0 1 .64-.05h.59V8h-.58v-.81h-.11l-.56.81h-.69l.65-1zm.72-.32v-.57h-.2q-.33 0-.33.28t.37.28zm2.39-1h.58v.87l.81-.87h.71l-1 1.13L55.82 8H55l-.7-.82-.06.07V8h-.54V5.71zm3.45-.06a1.24 1.24 0 0 1 .62.16 1.2 1.2 0 0 1 .62 1.05 1.22 1.22 0 0 1-.16.61 1.18 1.18 0 0 1-.45.45 1.24 1.24 0 0 1-.62.16 1.16 1.16 0 0 1-.86-.35 1.23 1.23 0 0 1 0-1.77 1.17 1.17 0 0 1 .81-.32zm0 .55a.6.6 0 0 0-.45.19.67.67 0 0 0-.18.48.68.68 0 0 0 .18.49.6.6 0 0 0 .45.19.61.61 0 0 0 .46-.19.75.75 0 0 0 0-1 .61.61 0 0 0-.46-.19zm3.13 1L61 5.71h.38L62 8h-.6l-.31-1.37-.7 1.37h-.24l-.68-1.37L59.16 8h-.57l.58-2.33h.38l.73 1.47zm2.61.75h-.58V5.71h2V8h-.58V6.27h-.88V8zm3.77-2.33h.58V8h-.58v-.21a1.14 1.14 0 0 1-.34.21 1 1 0 0 1-.37.07 1 1 0 0 1-.78-.35 1.21 1.21 0 0 1-.33-.87 1.25 1.25 0 0 1 .31-.85 1 1 0 0 1 .77-.34 1 1 0 0 1 .39.08 1.08 1.08 0 0 1 .34.23v-.26zm-.64.52a.59.59 0 0 0-.45.19.69.69 0 0 0-.18.49.7.7 0 0 0 .18.5.59.59 0 0 0 .45.19.6.6 0 0 0 .46-.19.7.7 0 0 0 .18-.5.68.68 0 0 0-.18-.49.61.61 0 0 0-.46-.19zm2.37.36h.88v-.84h.58V8h-.58V7h-.88v1h-.58V5.71h.58v.84zM70.75 8h-.31V5.71H71v1.36l1.2-1.36h.28V8h-.57V6.7L70.75 8zm2.72-1a.61.61 0 0 1-.31-.23.66.66 0 0 1-.16-.31.72.72 0 0 1 .18-.46.63.63 0 0 1 .35-.25 2.87 2.87 0 0 1 .64-.05h.59V8h-.58v-.81h-.11l-.56.81h-.69l.65-1zm.72-.32v-.49H74q-.33 0-.33.28t.37.28zm-55.04 3.51h.54l-.39 1.17.39 1.15h-.55l-.39-1.15.39-1.17zm1 0h.55l-.39 1.17.39 1.15h-.55l-.39-1.15.39-1.17zm1 2.33V9.37h.5a2.57 2.57 0 0 1 .63.06.85.85 0 0 1 .45.28.73.73 0 0 1 .17.48.7.7 0 0 1-.08.33.83.83 0 0 1-.25.28 1 1 0 0 1 .42.34.85.85 0 0 1 .13.48.89.89 0 0 1-.14.48.88.88 0 0 1-.35.33 1.36 1.36 0 0 1-.6.11zm.6-2.58v.67h.13a.5.5 0 0 0 .33-.09.31.31 0 0 0 .11-.25.29.29 0 0 0-.1-.23.48.48 0 0 0-.31-.09zm0 1.2v.81h.15a1 1 0 0 0 .51-.09.31.31 0 0 0 .13-.27.38.38 0 0 0-.15-.32.86.86 0 0 0-.51-.12zm4.21.38H24a.63.63 0 0 0 .22.4.67.67 0 0 0 .45.15.77.77 0 0 0 .56-.23l.49.23a1.16 1.16 0 0 1-.44.39 1.37 1.37 0 0 1-.61.12 1.2 1.2 0 0 1-.89-.34 1.17 1.17 0 0 1-.34-.86 1.21 1.21 0 0 1 .34-.88 1.15 1.15 0 0 1 .86-.35 1.2 1.2 0 0 1 .89.35 1.26 1.26 0 0 1 .34.92v.11zm-.58-.46a.58.58 0 0 0-.23-.31.67.67 0 0 0-.4-.12.71.71 0 0 0-.43.13.74.74 0 0 0-.21.29zm.85-.87h2.17v.56h-.78v1.77H27v-1.78h-.81v-.56zm3.13 0v.26a1.1 1.1 0 0 1 .34-.23 1 1 0 0 1 .39-.08 1 1 0 0 1 .77.34 1.24 1.24 0 0 1 .32.88 1.21 1.21 0 0 1-.33.87 1 1 0 0 1-.78.35 1 1 0 0 1-.37-.07 1.13 1.13 0 0 1-.34-.23v1.1h-.66v-3.19zm.61.48a.61.61 0 0 0-.46.19.68.68 0 0 0-.18.49.69.69 0 0 0 .18.5.6.6 0 0 0 .46.19.59.59 0 0 0 .45-.19.69.69 0 0 0 .18-.5.69.69 0 0 0-.18-.49.59.59 0 0 0-.45-.19zm2.79-.53a1.24 1.24 0 0 1 .62.16 1.2 1.2 0 0 1 .62 1.05 1.22 1.22 0 0 1-.16.61 1.18 1.18 0 0 1-.45.45 1.24 1.24 0 0 1-.62.16 1.16 1.16 0 0 1-.86-.35 1.22 1.22 0 0 1 .85-2.08zm0 .55a.6.6 0 0 0-.45.19.67.67 0 0 0-.18.48.68.68 0 0 0 .18.49.6.6 0 0 0 .45.19.61.61 0 0 0 .46-.19.75.75 0 0 0 0-1 .61.61 0 0 0-.46-.19zm3.34.91h-.78v-.51H36a.7.7 0 0 0-.68-.42.85.85 0 0 0-.61.26l-.49-.27a1.41 1.41 0 0 1 2-.18 1.23 1.23 0 0 1 0 1.74 1.31 1.31 0 0 1-1 .35 1.33 1.33 0 0 1-1.06-.49l.46-.31a.74.74 0 0 0 .62.28.67.67 0 0 0 .67-.45zm1.61-.6h.88v-.84h.58v2.33h-.58v-1h-.88v1h-.58v-2.3h.58V11zm4.37.49h-1.87a.63.63 0 0 0 .22.4.67.67 0 0 0 .45.15.77.77 0 0 0 .56-.23l.49.23a1.16 1.16 0 0 1-.44.39 1.37 1.37 0 0 1-.61.12 1.2 1.2 0 0 1-.89-.34 1.17 1.17 0 0 1-.34-.86 1.21 1.21 0 0 1 .34-.88 1.15 1.15 0 0 1 .86-.35 1.2 1.2 0 0 1 .89.35 1.26 1.26 0 0 1 .34.92v.11zm-.58-.46a.58.58 0 0 0-.23-.31.67.67 0 0 0-.4-.12.71.71 0 0 0-.43.13.74.74 0 0 0-.21.29zm1.64-.87v.26a1.1 1.1 0 0 1 .34-.23 1 1 0 0 1 .39-.08 1 1 0 0 1 .77.34 1.24 1.24 0 0 1 .32.88 1.21 1.21 0 0 1-.33.87 1 1 0 0 1-.78.35 1 1 0 0 1-.37-.07 1.13 1.13 0 0 1-.34-.23v1.1h-.58v-3.16zm.61.48a.61.61 0 0 0-.46.19.68.68 0 0 0-.18.49.7.7 0 0 0 .18.5.6.6 0 0 0 .46.19.59.59 0 0 0 .45-.19.69.69 0 0 0 .18-.5.69.69 0 0 0-.18-.49.59.59 0 0 0-.45-.19zm1.7-.48h1.36v.56H46v1.77h-.58v-2.3zm4.08 1.33h-1.87a.63.63 0 0 0 .22.4.67.67 0 0 0 .45.15.77.77 0 0 0 .56-.23l.49.23a1.16 1.16 0 0 1-.44.39 1.37 1.37 0 0 1-.61.12 1.2 1.2 0 0 1-.89-.34 1.17 1.17 0 0 1-.34-.86 1.21 1.21 0 0 1 .34-.88 1.15 1.15 0 0 1 .86-.35 1.2 1.2 0 0 1 .89.35 1.26 1.26 0 0 1 .34.92v.11zm-.53-.43a.58.58 0 0 0-.23-.31.67.67 0 0 0-.4-.12.71.71 0 0 0-.43.13.75.75 0 0 0-.21.29zm.85-.87H52v.56h-.8v1.77h-.58v-1.78h-.82v-.56zm2.86 2.33h-.31v-2.33h.57v1.37l1.19-1.37h.28v2.33h-.57v-1.35l-1.16 1.34zM55 10.19h.58v.87l.81-.87h.71l-1 1.13 1.05 1.2h-.78l-.7-.82-.06.07v.75H55v-2.33zm4.07 0h.58v2.33h-.58v-.25a1.14 1.14 0 0 1-.34.23 1 1 0 0 1-.37.07 1 1 0 0 1-.78-.35 1.21 1.21 0 0 1-.33-.87 1.25 1.25 0 0 1 .32-.88 1 1 0 0 1 .77-.34 1 1 0 0 1 .39.08 1.08 1.08 0 0 1 .34.23v-.26zm-.61.48a.59.59 0 0 0-.45.19.69.69 0 0 0-.18.49.69.69 0 0 0 .18.5.59.59 0 0 0 .45.19.6.6 0 0 0 .46-.19.7.7 0 0 0 .18-.5.68.68 0 0 0-.18-.49.61.61 0 0 0-.46-.19zm3.05 1.85h-.55l.39-1.17-.39-1.15h.55l.39 1.15-.39 1.17zm-1 0H60l.39-1.17-.39-1.16h.55l.39 1.15z"></path>
  </symbol>
  <symbol xmlns="http://www.w3.org/2000/svg" viewBox="0 0 3.84 3.84" id="icon-9">
    <title>Ресурс 17</title>
    <path d="M3.75 3.29l-.83-.83a1.58 1.58 0 1 0-.45.45l.83.83a.32.32 0 1 0 .45-.45zm-2.17-.68a1 1 0 1 1 1-1 1 1 0 0 1-1 1z" fill="#fff" fill-rule="evenodd"></path>
  </symbol>
  <symbol xmlns="http://www.w3.org/2000/svg" viewBox="0 0 3.84 3.84" id="icon-10">
    <title>Ресурс 18</title>
    <path d="M1.92 0A1.92 1.92 0 1 1 0 1.92 1.92 1.92 0 0 1 1.92 0zm0 .9a1 1 0 1 0 1 1 1 1 0 0 0-1-1z" fill="#fff" fill-rule="evenodd"></path>
  </symbol>
  <symbol xmlns="http://www.w3.org/2000/svg" viewBox="0 0 3.84 3.84" id="icon-11">
    <title>Ресурс 19</title>
    <circle cx="1.92" cy="1.92" r="1.92" fill="#fff"></circle>
  </symbol>
  <symbol xmlns="http://www.w3.org/2000/svg" viewBox="0 0 62.82 14.4" id="icon-12">
    <title>Ресурс 2</title>
    <path fill="#1d754e" d="M0 0h62.82v14.4H0z"></path>
  </symbol>
  <symbol xmlns="http://www.w3.org/2000/svg" viewBox="0 0 3.84 3.84" id="icon-13">
    <title>Ресурс 21</title>
    <circle cx="1.92" cy="1.92" r="1.92" fill="#b3b3b3"></circle>
  </symbol>
  <symbol xmlns="http://www.w3.org/2000/svg" viewBox="0 0 2.82 3.36" id="icon-14">
    <title>Ресурс 22</title>
    <path d="M1.33 3.33a.12.12 0 0 0 .16 0l.92-.92a1.41 1.41 0 1 0-2 0l.92.92zM1.41.72a.66.66 0 1 1-.66.66.66.66 0 0 1 .66-.66z"  fill-rule="evenodd"></path>
  </symbol>
  <symbol xmlns="http://www.w3.org/2000/svg" viewBox="0 0 24 24" id="icon-19">
    <title>Ресурс 27</title>
    <g fill-rule="evenodd">
      <path d="M12 24A12 12 0 1 0 0 12a12 12 0 0 0 12 12z" fill="#3786cd"></path>
      <path d="M8.08 13v4.86h1v-5.92l-1 1zm6 4.86h1V10l-1 1v6.82zm-2 0h1V12l-1 1v4.8zm4-8.85v8.85h1v-9h-.88l-.07.14zm-1-4.28h3.08v3.04h-1V6.5l-5.36 5.36L9.76 9.8l-4 4.07-.74-.71 4.73-4.82 2.07 2.07 4.66-4.66h-1.35v-1zM6.06 17.84h1V14l-1 1v2.8zm4 0h1V12.6l-1-1z"
        fill="#fff"></path>
    </g>
  </symbol>
  <symbol xmlns="http://www.w3.org/2000/svg" viewBox="0 0 24 24" id="icon-21">
    <title>Ресурс 29</title>
    <circle cx="12" cy="12" r="12" fill="#c82369"></circle>
    <path d="M10.49 6.9h3v.77h-3V6.9zm7.38 10.31V7.45h-2.6V4.82H8.73V9.2h-2.6v8h-.71v.8h13.16v-.77zM14.5 5.59h-5v11.62h5V5.59zm2.6 7.57v1.7h-1.83v-1.7zm-1.83-.77v-1.7h1.83v1.7zm1.83-2.47h-1.83v-1.7h1.83v1.7zm-8.37 5.21H6.9V10h1.83v5.16zm-1.83.77h1.83v1.31H6.9V15.9zm8.37-.27h1.83v1.58h-1.83v-1.58zm-4.78-.5h3v.77h-3v-.77zm0-1.65h3v.77h-3v-.77zm0-1.65h3v.77h-3v-.77zm0-1.65h3V11h-3v-.77zm0-1.65h3v.77h-3z"
      fill="#fff" fill-rule="evenodd"></path>
  </symbol>
  <symbol xmlns="http://www.w3.org/2000/svg" viewBox="0 0 56.99 12" id="icon-22">
    <title>Ресурс 3</title>
    <path fill="#278f60" d="M0 0h56.99v12H0z"></path>
  </symbol>
  <symbol xmlns="http://www.w3.org/2000/svg" viewBox="0 0 14.4 12.8" id="icon-23">
    <title>Ресурс 30</title>
    <path d="M4.18 7.42a9 9 0 0 0 1.17-.07V3.29a9 9 0 0 0-1.17-.07C1.87 3.21 0 4.06 0 5.11v.41c0 1 1.87 1.9 4.18 1.9zm6 4.19c-2 0-3.7-.65-4.1-1.51a.92.92 0 0 0-.09.39v.41c0 1 1.87 1.9 4.18 1.9s4.18-.85 4.18-1.9v-.41a.93.93 0 0 0-.09-.39c-.4.86-2.08 1.51-4.1 1.51zm0-2.12c2 0 3.7-.65 4.1-1.51a.93.93 0 0 1 .09.39v.41c0 1-1.87 1.9-4.18 1.9S6 9.83 6 8.78v-.41A.92.92 0 0 1 6.12 8c.4.86 2.08 1.51 4.1 1.51zm0-2.23c-2 0-3.7-.65-4.1-1.51a.92.92 0 0 0-.08.38v.41c0 1 1.87 1.9 4.18 1.9s4.18-.85 4.18-1.9v-.41a.93.93 0 0 0-.09-.39c-.4.86-2.08 1.51-4.1 1.51zm0-2.12c2 0 3.7-.65 4.1-1.51a.93.93 0 0 1 .12.37v.41c0 1-1.87 1.9-4.18 1.9S6 5.48 6 4.43V4a.92.92 0 0 1 .09-.39c.4.86 2.08 1.51 4.1 1.51zm0-5.14C7.91 0 6 .85 6 1.9v.41c0 1 1.87 1.9 4.18 1.9s4.18-.85 4.18-1.9V1.9c0-1-1.87-1.9-4.18-1.9zM5.35 10.49v-.09a9 9 0 0 1-1.17.08c-2 0-3.7-.65-4.1-1.51a.93.93 0 0 0-.08.38v.41c0 1 1.87 1.9 4.18 1.9a8.86 8.86 0 0 0 1.32-.1 1.49 1.49 0 0 1-.16-.66v-.41zm-1.17-.95C1.87 9.54 0 8.69 0 7.64v-.41a.93.93 0 0 1 .09-.39c.4.86 2.08 1.51 4.1 1.51a8.94 8.94 0 0 0 1.17-.08v1.19a9 9 0 0 1-1.18.08z"
      fill="#008dd2" fill-rule="evenodd"></path>
  </symbol>
  <symbol xmlns="http://www.w3.org/2000/svg" viewBox="0 0 11.64 14.4" id="icon-24">
    <title>Ресурс 31</title>
    <path d="M5.85 7.07a1.27 1.27 0 1 0-1.27-1.26 1.27 1.27 0 0 0 1.27 1.26zm5.34.41a1.19 1.19 0 0 0-.63-.71L7.95 5.58a2.1 2.1 0 0 1-.65 1.76l2.07 1.49a1.21 1.21 0 0 0 .3.16 5 5 0 0 1-.79.7.42.42 0 1 0 .49.69 5.88 5.88 0 0 0 1.75-2 .42.42 0 0 0 0-.12 1.18 1.18 0 0 0 0-.77zM5 3.9a2.11 2.11 0 0 1 1.79 0C6.78 3.63 7 2 7 1.29a1.15 1.15 0 0 0-.3-.91A1.16 1.16 0 0 0 5.84 0a1.18 1.18 0 0 0-1.18 1.29c.07.71.26 2.35.34 2.61zM2.32 8.83L4.4 7.34a2.1 2.1 0 0 1-.66-1.53 2.18 2.18 0 0 1 0-.23L1.13 6.77l-.18.1a5 5 0 0 1 .34-3.1.42.42 0 0 0-.77-.35A5.85 5.85 0 0 0 .45 8.1a2.9 2.9 0 0 0 .15.33 1.16 1.16 0 0 0 .78.57h.26a1.15 1.15 0 0 0 .67-.22zm9.31-3.88A5.83 5.83 0 0 0 8.8.8a.42.42 0 1 0-.43.73 5 5 0 0 1 2.43 3.55.42.42 0 0 0 .42.36h.07a.42.42 0 0 0 .35-.48zm-1.79 8.61h-2l-.14-.84H4l-.14.84h-2a.42.42 0 0 0 0 .84h8a.42.42 0 1 0 0-.84zm-5-5.91a2.1 2.1 0 0 0 2.08 0l.7 4.23H4.11z"
      fill="#278f60" fill-rule="evenodd"></path>
  </symbol>
  <symbol xmlns="http://www.w3.org/2000/svg" viewBox="0 0 15.96 11.24" id="icon-25">
    <title>Ресурс 32</title>
    <path d="M10.75 6.59a1 1 0 0 0-.18-.34.91.91 0 0 0-.3-.24.88.88 0 0 0-.4-.09.86.86 0 0 0-.42.08.91.91 0 0 0-.29.25 1 1 0 0 0-.16.36 1.38 1.38 0 0 0-.06.4 1.33 1.33 0 0 0 .06.4 1.07 1.07 0 0 0 .18.35.88.88 0 0 0 .3.24.87.87 0 0 0 .4.09.86.86 0 0 0 .41-.1.9.9 0 0 0 .29-.25 1.09 1.09 0 0 0 .17-.35 1.38 1.38 0 0 0 .06-.4 1.34 1.34 0 0 0-.06-.4zM12 3.29a4 4 0 0 1 0 8H3.42a3.42 3.42 0 0 1 0-6.85h.11v-.11a4.28 4.28 0 0 1 8.45-1zM7.67 8.34A1.06 1.06 0 0 0 7.91 8l-.68-.4a.71.71 0 0 1-.15.23.81.81 0 0 1-.2.15.94.94 0 0 1-.23.09h-.23A.85.85 0 0 1 6 8a.91.91 0 0 1-.3-.24 1.08 1.08 0 0 1-.19-.35A1.29 1.29 0 0 1 5.49 7a1.39 1.39 0 0 1 .06-.39 1 1 0 0 1 .17-.34A.92.92 0 0 1 6 6a.86.86 0 0 1 .41-.1h.23a.85.85 0 0 1 .24.1.84.84 0 0 1 .2.15.74.74 0 0 1 .15.23L7.87 6a1.4 1.4 0 0 0-.55-.57 1.7 1.7 0 0 0-.88-.22 1.76 1.76 0 0 0-.76.16 1.8 1.8 0 0 0-.57.41 1.75 1.75 0 0 0-.35.57 1.81 1.81 0 0 0-.12.65 1.86 1.86 0 0 0 .13.68 1.93 1.93 0 0 0 .36.6 1.81 1.81 0 0 0 .56.42 1.61 1.61 0 0 0 .71.16 2 2 0 0 0 .45-.06 2 2 0 0 0 .44-.16 1.48 1.48 0 0 0 .37-.26zm3.84-.65a1.82 1.82 0 0 1-.94 1 1.69 1.69 0 0 1-.72.15 1.66 1.66 0 0 1-.73-.16 1.79 1.79 0 0 1-.56-.41 1.88 1.88 0 0 1-.36-.58A1.84 1.84 0 0 1 8.08 7a1.79 1.79 0 0 1 .13-.68 1.81 1.81 0 0 1 .94-1 1.71 1.71 0 0 1 .72-.15 1.67 1.67 0 0 1 .73.16 1.78 1.78 0 0 1 .56.41 1.88 1.88 0 0 1 .36.59 1.84 1.84 0 0 1 .13.67 1.79 1.79 0 0 1-.13.68zm.14 1.76h1.18v-.34h-.64l.06-.05.09-.06.1-.06h.09l.1-.07.09-.08a.41.41 0 0 0 .07-.11.4.4 0 0 0-.11-.44.61.61 0 0 0-.39-.11h-.2l-.18.05-.14.07-.1.08.24.28a.71.71 0 0 1 .09-.16.3.3 0 0 1 .17 0 .2.2 0 0 1 .13 0 .13.13 0 0 1 0 .11.09.09 0 0 1 0 .06l-.06.06-.12.07-.19.1-.09.15a.52.52 0 0 0-.11.13.53.53 0 0 0-.06.16 1.08 1.08 0 0 0-.01.16z"
      fill="#004672" fill-rule="evenodd"></path>
  </symbol>
  <symbol xmlns="http://www.w3.org/2000/svg" viewBox="0 0 11.69 14.4" id="icon-26">
    <title>Ресурс 33</title>
    <path d="M3.58 14.4a.42.42 0 0 1-.41-.52L4.4 9h-4a.42.42 0 0 1-.31-.71L7.8.13a.42.42 0 0 1 .72.39l-1.23 4.9h4a.42.42 0 0 1 .31.71l-7.71 8.14a.42.42 0 0 1-.31.13z" fill-rule="evenodd"></path>
  </symbol>
  <symbol xmlns="http://www.w3.org/2000/svg" viewBox="0 0 31.2 31.2" id="icon-27">
    <title>Ресурс 34</title>
    <g fill-rule="evenodd">
      <path d="M15.6 31.2A15.6 15.6 0 1 0 0 15.6a15.63 15.63 0 0 0 15.6 15.6z"></path>
      <path d="M15.6 1.2A14.4 14.4 0 1 1 1.2 15.6 14.4 14.4 0 0 1 15.6 1.2zm-3.5 8.69v11.42l9-5.71z" fill="#fff"></path>
    </g>
  </symbol>
  <symbol xmlns="http://www.w3.org/2000/svg" viewBox="0 0 19.2 19.2" id="icon-28">
    <title>Ресурс 35</title>
    <g fill-rule="evenodd">
      <path d="M9.6 19.2A9.6 9.6 0 1 0 0 9.6a9.62 9.62 0 0 0 9.6 9.6z" fill="#278f60"></path>
      <path d="M9.6 7.61A.58.58 0 1 0 9 7a.58.58 0 0 0 .58.58zm0-3.78A5.77 5.77 0 1 1 3.83 9.6 5.78 5.78 0 0 1 9.6 3.83zm0 10.71a4.94 4.94 0 1 1 4.94-4.94 4.95 4.95 0 0 1-4.94 4.94zm1-3.1H10V8.77a.41.41 0 0 0-.41-.41h-1a.41.41 0 1 0 0 .83h.62v2.68a.41.41 0 0 0 .41.41h1a.41.41 0 0 0 0-.83z"
        fill="#fff"></path>
    </g>
  </symbol>
  <symbol xmlns="http://www.w3.org/2000/svg" viewBox="0 0 2.82 3.36" id="icon-29">
    <title>Ресурс 36</title>
    <path d="M1.33 3.33a.12.12 0 0 0 .16 0l.92-.92a1.41 1.41 0 1 0-2 0l.92.92zM1.41.72a.66.66 0 1 1-.66.66.66.66 0 0 1 .66-.66z" fill="#fff" fill-rule="evenodd"></path>
  </symbol>
  <symbol xmlns="http://www.w3.org/2000/svg" viewBox="0 0 5.84 7.2" id="icon-30">
    <title>Ресурс 37</title>
    <path d="M1.79 7.2a.21.21 0 0 1-.2-.26l.61-2.45h-2a.21.21 0 0 1-.15-.36L3.9.07a.21.21 0 0 1 .36.2l-.62 2.44h2a.21.21 0 0 1 .15.36L1.95 7.13a.21.21 0 0 1-.16.07z" fill="#fff" fill-rule="evenodd"></path>
  </symbol>
  <symbol xmlns="http://www.w3.org/2000/svg" viewBox="0 0 2.4 2.4" id="icon-31">
    <title>Ресурс 38</title>
    <circle cx="1.2" cy="1.2" r="1.2" fill="#3786cd"></circle>
  </symbol>
  <symbol xmlns="http://www.w3.org/2000/svg" viewBox="0 0 3.84 3.82" id="icon-32">
    <title>Ресурс 39</title>
    <path d="M3.31 2.38v.91H.53v-.91H0v1.17a.27.27 0 0 0 .27.27h3.3a.27.27 0 0 0 .27-.27V2.38zm-1.44.3l-.76-.92s-.12-.11 0-.11h.43V.07s0-.07.08-.07h.61c.07 0 .07.05.07.05v1.57h.4c.15 0 0 .11 0 .11s-.65.86-.74 1a.08.08 0 0 1-.09-.05z"
      fill="#278f60" fill-rule="evenodd"></path>
  </symbol>
  <symbol xmlns="http://www.w3.org/2000/svg" viewBox="0 0 56.99 12" id="icon-33">
    <title>Ресурс 4</title>
    <path fill="#1d754e" d="M0 0h56.99v12H0z"></path>
  </symbol>
  <symbol xmlns="http://www.w3.org/2000/svg" viewBox="0 0 3.84 3.84" id="icon-34">
    <title>Ресурс 41</title>
    <path d="M1.92 0A1.92 1.92 0 1 1 0 1.92 1.92 1.92 0 0 1 1.92 0zm0 .9a1 1 0 1 0 1 1 1 1 0 0 0-1-1z" fill="#b3b3b3" fill-rule="evenodd"></path>
  </symbol>
  <symbol xmlns="http://www.w3.org/2000/svg" viewBox="0 0 5.76 5.76" id="icon-36">
    <title>Ресурс 6</title>
    <path d="M2.88 0a2.88 2.88 0 1 0 2.88 2.88A2.88 2.88 0 0 0 2.88 0zm.72 3h-.47v1.65h-.7V3H2.1v-.61h.33V2a.65.65 0 0 1 .7-.7h.51v.57h-.36a.14.14 0 0 0-.15.13v.35h.53z" fill-rule="evenodd"></path>
  </symbol>
  <symbol xmlns="http://www.w3.org/2000/svg" viewBox="0 0 5.76 5.76" id="icon-fb">
    <title>Ресурс 10</title>
    <path d="M2.88 0a2.88 2.88 0 1 0 2.88 2.88A2.88 2.88 0 0 0 2.88 0zm.72 3h-.47v1.65h-.7V3H2.1v-.61h.33V2a.65.65 0 0 1 .7-.7h.51v.57h-.36a.14.14 0 0 0-.15.13v.35h.53z" fill="#278f60" fill-rule="evenodd"></path>
  </symbol>
  <symbol xmlns="http://www.w3.org/2000/svg" xmlns:xlink="http://www.w3.org/1999/xlink" id="icon-mail">
    <defs>
      <path id="a" d="M278 102v-1h12v1z"></path>
      <path id="b" d="M278 106v-1h12v1z"></path>
      <path id="c" d="M278 110v-1h12v1z"></path>
    </defs>
    <use xlink:href="#a" transform="translate(-278 -101)"></use>
    <use xlink:href="#b" transform="translate(-278 -101)"></use>
    <use xlink:href="#c" transform="translate(-278 -101)"></use>
  </symbol>
  <symbol xmlns="http://www.w3.org/2000/svg" viewBox="0 0 3.36 2.64" id="icon-menu">
    <title>Ресурс 24</title>
    <path d="M.3 2.64a.29.29 0 0 1-.2-.07l1-1h.07l.17.12.18.09a.54.54 0 0 0 .21 0 .54.54 0 0 0 .21 0l.18-.09.17-.12h.07l1 1a.29.29 0 0 1-.2.07zM.3 0a.29.29 0 0 0-.21.09A.29.29 0 0 0 0 .3a.49.49 0 0 0 .09.28.89.89 0 0 0 .23.23l.68.48.19.13h.05l.1.07.1.06.11.05h.18l.11-.05H2l.1-.07h.05l.19-.13.3-.21L3 .81A.94.94 0 0 0 3.26.6a.44.44 0 0 0 .1-.26.38.38 0 0 0-.08-.24.27.27 0 0 0-.22-.1zM.19 1A1 1 0 0 1 0 .85V2.3l.84-.84L.19 1zm3 0l-.65.45.84.84V.85a1 1 0 0 1-.21.15z"
       fill-rule="evenodd"></path>
  </symbol>
  <symbol xmlns="http://www.w3.org/2000/svg" id="icon-menu-close">
    <path d="M20.513 1.414L19.099 0l-8.843 8.842L1.414 0 0 1.414l8.842 8.842L0 19.098l1.414 1.414 8.842-8.842 8.843 8.842 1.414-1.414-8.842-8.842z"></path>
  </symbol>
  <symbol xmlns="http://www.w3.org/2000/svg" id="icon-menu-open">
    <path fill="#1995C9" d="M0 0h19.958v2H0zm0 6h19.958v2H0zm0 6h19.958v2H0z"></path>
  </symbol>
</svg>
