<svg xmlns="http://www.w3.org/2000/svg" xmlns:xlink="http://www.w3.org/1999/xlink"><defs><filter id="filter0_d_3536_12579" x=".25" y=".25" width="103.5" height="103.5" filterUnits="userSpaceOnUse" color-interpolation-filters="sRGB"><feFlood flood-opacity="0" result="BackgroundImageFix"/><feColorMatrix in="SourceAlpha" values="0 0 0 0 0 0 0 0 0 0 0 0 0 0 0 0 0 0 127 0" result="hardAlpha"/><feOffset dy="4"/><feGaussianBlur stdDeviation="8"/><feComposite in2="hardAlpha" operator="out"/><feColorMatrix values="0 0 0 0 0 0 0 0 0 0 0 0 0 0 0 0 0 0 0.25 0"/><feBlend in2="BackgroundImageFix" result="effect1_dropShadow_3536_12579"/><feBlend in="SourceGraphic" in2="effect1_dropShadow_3536_12579" result="shape"/></filter><filter id="filter0_d_3386_10549" x="0" y=".8" width="200.68" height="200.68" filterUnits="userSpaceOnUse" color-interpolation-filters="sRGB"><feFlood flood-opacity="0" result="BackgroundImageFix"/><feColorMatrix in="SourceAlpha" values="0 0 0 0 0 0 0 0 0 0 0 0 0 0 0 0 0 0 127 0" result="hardAlpha"/><feOffset dx="-1.16" dy="4.64"/><feGaussianBlur stdDeviation="13.92"/><feComposite in2="hardAlpha" operator="out"/><feColorMatrix values="0 0 0 0 0 0 0 0 0 0 0 0 0 0 0 0 0 0 0.1 0"/><feBlend in2="BackgroundImageFix" result="effect1_dropShadow_3386_10549"/><feBlend in="SourceGraphic" in2="effect1_dropShadow_3386_10549" result="shape"/></filter><clipPath id="clip0_2564_7685"><path fill="#fff" d="M0 0h32v30H0z"/></clipPath><clipPath id="clip0_4295_12819"><path fill="#fff" d="M0 0h32v30H0z"/></clipPath><clipPath id="clip0_4327_14051"><path fill="#fff" d="M0 0h115v115H0z"/></clipPath><clipPath id="clip0_4320_16569"><path fill="#fff" transform="translate(0 13.106)" d="M0 0h115v113.894H0z"/></clipPath></defs><symbol id="adv-1"><g fill="none"><path d="M3.57.878A.878.878 0 002.694 0H.878A.878.878 0 000 .878v11.707c0 .485.393.878.878.878h1.815a.878.878 0 00.878-.878V8.78h1.756V4.683H3.57V.878zM29.093 0H27.28a.878.878 0 00-.878.878v3.805h-1.756V8.78H26.4v3.805c0 .485.393.878.878.878h1.814a.878.878 0 00.878-.878V.878A.878.878 0 0029.093 0zM20.911 2.341a1.976 1.976 0 00-1.975 1.976 1.976 1.976 0 10-3.951 0 1.976 1.976 0 10-3.952 0 1.976 1.976 0 10-3.951 0v3.689a4.073 4.073 0 011.756-.396h5.854a2.638 2.638 0 012.634 2.634v.293c0 .188-.011.374-.033.556a1.976 1.976 0 001.643-1.947 1.976 1.976 0 103.95 0V4.317a1.976 1.976 0 00-1.975-1.976z" fill="#42474D"/><path d="M18.937 12.31a3.71 3.71 0 01-1.976.568h-.03a4.102 4.102 0 01-3.701 2.341h-1.171v.268c0 .473-.363.88-.836.902a.878.878 0 01-.92-.877v-1.17c0-.486.393-.879.878-.879h1.463a2.927 2.927 0 002.927-2.926v-.293a.878.878 0 00-.878-.878H8.84a2.342 2.342 0 00-2.342 2.341v3.805a4.396 4.396 0 004.098 4.38v3.23c0 .485.393.878.878.878h7.024a.878.878 0 00.878-.878v-3.308a4.398 4.398 0 003.512-4.302V12.31c-.573.36-1.25.568-1.975.568a3.709 3.709 0 01-1.976-.568z" fill="#42474D"/></g></symbol><symbol id="adv-2"><g fill="none"><path d="M11.47 11.5c-1.495 0-2.775-.532-3.84-1.597-1.064-1.065-1.597-2.345-1.597-3.84 0-1.496.533-2.776 1.597-3.84C8.695 1.156 9.975.624 11.47.624c1.496 0 2.776.532 3.84 1.597 1.066 1.065 1.598 2.345 1.598 3.84 0 1.496-.532 2.776-1.597 3.84-1.065 1.066-2.345 1.598-3.84 1.598zM3.315 22.375a2.617 2.617 0 01-1.919-.798 2.619 2.619 0 01-.8-1.92v-1.088c0-.77.2-1.479.596-2.125a3.962 3.962 0 011.58-1.478 20.21 20.21 0 014.282-1.58c1.45-.351 2.922-.527 4.418-.527 1.495 0 2.968.176 4.418.527a20.21 20.21 0 014.282 1.58c.657.34 1.183.833 1.58 1.478.396.646.595 1.354.595 2.125v1.087c0 .748-.266 1.388-.798 1.921a2.621 2.621 0 01-1.921.798H3.314z" fill="#42474D"/></g></symbol><symbol id="adv-3"><g fill="none"><path d="M21.918 1.733h-1.045V.867a.866.866 0 10-1.733 0v.866h-5.2V.867a.867.867 0 00-1.734 0v.866h-5.2V.867a.867.867 0 00-1.733 0v.866H4.228A3.293 3.293 0 00.939 5.021v17.69A3.293 3.293 0 004.228 26h17.69a3.293 3.293 0 003.288-3.288V5.022a3.293 3.293 0 00-3.288-3.289zM11.085 17.08l-2.6 2.6a.866.866 0 01-1.226 0l-1.733-1.733a.868.868 0 111.225-1.225l1.122 1.12 1.987-1.987a.867.867 0 011.225 1.225zm0-7.8l-2.6 2.6a.866.866 0 01-1.226 0l-1.733-1.733A.867.867 0 116.75 8.921l1.122 1.12L9.86 8.054a.867.867 0 011.225 1.225zm8.921 9.788H13.94a.867.867 0 110-1.734h6.066a.866.866 0 110 1.734zm0-7.8H13.94a.867.867 0 110-1.734h6.066a.866.866 0 110 1.734z" fill="#42474D"/></g></symbol><symbol id="alert-triangle"><g fill="none"><path fill-rule="evenodd" clip-rule="evenodd" d="M7.018 1.522a2 2 0 012.691.705l.002.004 5.647 9.426.005.01a2 2 0 01-1.71 3H2.346a2 2 0 01-1.71-3l.005-.01 5.646-9.426.572.342-.57-.346a2 2 0 01.729-.705zm.412 1.396l-5.642 9.419a.667.667 0 00.569.996h11.285a.666.666 0 00.569-.996L8.569 2.92v-.001a.667.667 0 00-1.139 0z" fill="#42474D"/><path fill-rule="evenodd" clip-rule="evenodd" d="M7.334 11.333c0-.368.298-.667.667-.667h.006a.667.667 0 010 1.334h-.006a.667.667 0 01-.667-.667zM8 5.333c.369 0 .667.299.667.667v2.667a.667.667 0 01-1.333 0V6c0-.368.298-.667.667-.667z" fill="#42474D"/></g></symbol><symbol id="arrow-down-white"><g fill="none"><path fill-rule="evenodd" clip-rule="evenodd" d="M.226 1.04a.8.8 0 011.022 0l5.257 4.586 5.28-4.585a.8.8 0 011.022 0 .573.573 0 01-.002.889L7.013 6.96a.8.8 0 01-1.022 0L.224 1.93a.573.573 0 01.002-.89z" fill="#fff"/></g></symbol><symbol id="arrow-down"><g fill="none"><path fill-rule="evenodd" clip-rule="evenodd" d="M.226 1.04a.8.8 0 011.022 0l5.257 4.586 5.28-4.585a.8.8 0 011.022 0 .573.573 0 01-.002.889L7.013 6.96a.8.8 0 01-1.022 0L.224 1.93a.573.573 0 01.002-.89z" fill="#42474D"/></g></symbol><symbol id="arrow-li" viewBox="0 0 16 16"><g fill="none"><path fill="currentColor" d="M13.047 5L2.482 15.595a1.16 1.16 0 01-.849.357c-.327 0-.61-.119-.848-.357a1.16 1.16 0 01-.357-.849c0-.327.12-.61.357-.847L11.381 3.333H2.333c-.337 0-.62-.114-.849-.341a1.155 1.155 0 01-.341-.85c0-.336.113-.62.341-.848.229-.228.512-.342.849-.342h11.905c.337 0 .62.114.847.342.229.229.343.512.343.849v11.905c0 .337-.114.62-.343.847-.227.229-.51.343-.847.343-.338 0-.62-.114-.848-.343a1.149 1.149 0 01-.343-.847V5z"/></g></symbol><symbol id="arrow-slide"><g fill="none"><path fill-rule="evenodd" clip-rule="evenodd" d="M17.473 1.617c.703.826.703 2.163 0 2.986L4.346 19.967l13.127 15.428c.703.826.703 2.163 0 2.985-.703.823-1.843.82-2.546-.006L.527 21.451c-.703-.826-.703-2.163 0-2.986l14.4-16.854c.703-.823 1.843-.82 2.546.006z" fill="#fff"/></g></symbol><symbol id="arrow-title" viewBox="0 0 30 46"><g fill="none"><path fill="currentColor" d="M17 2a2 2 0 10-4 0h4zm-3.414 43.414a2 2 0 002.828 0l12.728-12.728a2 2 0 10-2.828-2.828L15 41.172 3.686 29.858a2 2 0 10-2.828 2.828l12.728 12.728zM13 2v42h4V2h-4z"/></g></symbol><symbol id="arrow" viewBox="0 0 34 8"><g fill="none"><path fill="currentColor" d="M33.354 4.354a.5.5 0 000-.708L30.172.464a.5.5 0 10-.707.708L32.293 4l-2.828 2.828a.5.5 0 10.707.708l3.182-3.182zM0 4.5h33v-1H0v1z"/></g></symbol><symbol id="barbell" viewBox="0 0 49 36"><g fill="none"><rect x=".836" y="12.836" width="4.329" height="9.329" rx="2.164" fill="#42474D" stroke="#42474D" stroke-width="1.671"/><rect x="4.836" y="3.836" width="5.329" height="27.329" rx="2.664" stroke="#42474D" stroke-width="1.671"/><rect x="10.836" y=".836" width="5.329" height="34.329" rx="2.664" stroke="#42474D" stroke-width="1.671"/><rect x="-.836" y=".836" width="4.329" height="9.329" rx="2.164" transform="matrix(-1 0 0 1 47.329 12)" fill="#42474D" stroke="#42474D" stroke-width="1.671"/><rect x="-.836" y=".836" width="5.329" height="27.329" rx="2.664" transform="matrix(-1 0 0 1 43.329 3)" stroke="#42474D" stroke-width="1.671"/><rect x="-.836" y=".836" width="5.329" height="34.329" rx="2.664" transform="matrix(-1 0 0 1 37.329 0)" stroke="#42474D" stroke-width="1.671"/><path stroke="#42474D" stroke-width="1.671" d="M15.836 12.836h16.329v9.329H15.836zM32 18h-9"/><path fill="#000" stroke="#42474D" d="M20.5 17.5h1v1h-1z"/></g></symbol><symbol id="btn-close" viewBox="0 0 26 26"><g fill="currentColor"><circle cx="13" cy="13" r="13"/><path d="M17.023 8.979l-8.044 8.043M8.979 8.979l8.043 8.043"/></g></symbol><symbol id="btn-scroll"><g fill="none"><g filter="url(#filter0_d_3536_12579)"><path d="M52 83c19.33 0 35-15.67 35-35S71.33 13 52 13 17 28.67 17 48s15.67 35 35 35zm0-22.75v-21 21z" fill="#E2F0FB"/><path d="M52 60.25v-21M52 83c19.33 0 35-15.67 35-35S71.33 13 52 13 17 28.67 17 48s15.67 35 35 35z" stroke="#42474D" stroke-width="1.5" stroke-linecap="round" stroke-linejoin="round"/><path d="M41.5 46.25L52 35.75l10.5 10.5" stroke="#42474D" stroke-width="1.5" stroke-linecap="round" stroke-linejoin="round"/></g></g></symbol><symbol id="burger"><g fill="none"><rect y=".5" width="18" height="2" rx="1" fill="#42474D"/><rect y="4.5" width="18" height="2" rx="1" fill="#42474D"/><rect y="8.5" width="18" height="2" rx="1" fill="#42474D"/></g></symbol><symbol id="cancel"><g fill="none"><path d="M7.07 7.535l14.142 14.142M21.21 7.535L7.07 21.677" stroke="#42474D" stroke-width="2" stroke-linecap="round"/></g></symbol><symbol id="check" viewBox="0 0 9 7"><g fill="none"><path d="M7.625 0l-4.5 4.344-1.75-1.689L0 3.984 3.125 7 9 1.328 7.625 0z" fill="#fff"/></g></symbol><symbol id="city" viewBox="0 0 15 18"><path fill="currentColor" d="M7.519 9c.481 0 .893-.171 1.236-.514.343-.343.514-.755.514-1.236s-.171-.893-.514-1.236A1.687 1.687 0 007.52 5.5c-.481 0-.893.171-1.235.514a1.686 1.686 0 00-.515 1.236c0 .481.172.893.515 1.236.342.342.754.514 1.235.514zm0 8.75c-2.348-1.998-4.101-3.854-5.26-5.568C1.099 10.47.519 8.883.519 7.425c0-2.188.704-3.93 2.111-5.228C4.037.899 5.667.25 7.52.25c1.852 0 3.482.649 4.889 1.947s2.111 3.04 2.111 5.228c0 1.458-.58 3.044-1.739 4.757-1.16 1.714-2.913 3.57-5.261 5.568z"/></symbol><symbol id="close"><g fill="none"><path d="M8.132 8.132l16.263 16.263M24.395 8.132L8.132 24.395" stroke="#42474D" stroke-width="3" stroke-linecap="round"/></g></symbol><symbol id="cup"><g fill="currentColor"><path d="M14.667 3.833V2.5H5.333v1.333H2v4a3.333 3.333 0 003.333 3.334h.196a4.666 4.666 0 003.804 3.28V15.834h-.001c0 .734-.594 1.329-1.327 1.333H6.667V18.5h6.666v-1.333H12a1.334 1.334 0 01-1.333-1.334v-1.386a4.665 4.665 0 003.804-3.28h.196A3.333 3.333 0 0018 7.833v-4h-3.333zm-11.334 4V5.167h2v4.666a2 2 0 01-2-2zM10 13.167a3.337 3.337 0 01-3.333-3.334v-6h6.666v6A3.337 3.337 0 0110 13.167zm6.667-5.334a2 2 0 01-2 2V5.167h2v2.666z"/><path d="M11.917 7.672V7.67l-.994.723.38 1.168a.2.2 0 01-.309.223L10 9.064l-.994.72a.2.2 0 01-.308-.224l.379-1.167-.993-.722v.001A.2.2 0 018 7.51c0-.111.09-.202.201-.202H9.43l.38-1.169A.2.2 0 0110 6a.2.2 0 01.19.14l.38 1.167 1.229.001a.2.2 0 01.118.364z"/></g></symbol><symbol id="fh"><g fill="none"><path d="M0 4.105l3.902-2.043C6.05.94 8.028.012 8.3 0c.272-.01 2.291.908 4.487 2.042l3.993 2.063-4.195.111c-2.307.062-6.083.062-8.39 0L0 4.105zM.195 14.515V5.087H17l-.11 4.616-.11 4.615-3.61.113-3.61.113v-3.958h2.147c1.648 0 2.146-.136 2.146-.589 0-.493-.823-.59-5.073-.59-4.249 0-5.073.097-5.073.59 0 .445.477.59 1.951.59H7.61v3.928H.195zM.195 24.728V15.3H7.61v4.322H5.658c-1.474 0-1.95.144-1.95.589 0 .493.823.589 5.072.589 4.25 0 5.074-.096 5.074-.59 0-.452-.5-.588-2.147-.588H9.561V15.3h7.414v9.427H.195zM4.452 28.052C2.286 26.98.432 25.97.332 25.808c-.101-.161 3.526-.294 8.058-.294 4.533 0 8.16.133 8.059.294-.1.162-1.954 1.172-4.12 2.244L8.39 30l-3.938-1.948z" fill="#42474D"/></g></symbol><symbol id="go" viewBox="0 0 61 61"><g fill="none"><rect width="61" height="61" rx="30.5" fill="#42474D"/><path d="M23 29.973v-4.577c0-5.7 3.91-8.03 8.697-5.18l3.856 2.303 3.857 2.302c4.787 2.85 4.787 7.508 0 10.358l-3.857 2.302-3.856 2.302c-4.787 2.85-8.697.52-8.697-5.18v-4.63z" fill="#FFFEDA"/></g></symbol><symbol id="heart" viewBox="0 0 55 55"><g fill="none"><path d="M37.848 9C30.917 9 27.5 15.91 27.5 15.91S24.084 9 17.152 9C11.52 9 7.06 13.765 7.002 19.451c-.118 11.803 9.259 20.196 19.537 27.25a1.695 1.695 0 001.922 0c10.277-7.054 19.654-15.447 19.538-27.25C47.94 13.765 43.48 9 37.848 9v0z" stroke="#000" stroke-width="1.997" stroke-linecap="round" stroke-linejoin="round"/><path d="M5 27.2h12.115L22.308 17 27.5 34l5.192-10.2 3.462 6.8H50" stroke="#000" stroke-width="3.438" stroke-linecap="round" stroke-linejoin="round"/></g></symbol><symbol id="hours-1"><g fill="none"><path d="M8.5 19.25a7.437 7.437 0 100-14.875 7.437 7.437 0 000 14.875z" stroke="#42474D" stroke-width="1.75" stroke-linejoin="round"/><path d="M5.875 1.75h5.25M8.5 8.313v3.5H12M8.5 1.75V3.5" stroke="#42474D" stroke-width="1.75" stroke-linecap="round" stroke-linejoin="round"/></g></symbol><symbol id="hours"><g fill="none"><path d="M11 21c5.523 0 10-4.477 10-10S16.523 1 11 1 1 5.477 1 11s4.477 10 10 10z" stroke="#42474D" stroke-width="2" stroke-linecap="round" stroke-linejoin="round"/><path d="M14 15l-2.414-2.414A2 2 0 0111 11.172V5" stroke="#42474D" stroke-width="2" stroke-linecap="round" stroke-linejoin="round"/></g></symbol><symbol id="house" viewBox="0 0 49 45"><g fill="none"><path d="M36.58 37.261a12.409 12.409 0 004.838-.932l-4.853 7.2-4.822-7.296a12.396 12.396 0 004.836 1.028z" fill="#42474D" stroke="#42474D" stroke-width=".524"/><path d="M15 40h19M29 13.653L21.367 7 7 19.515V30M27 29.645V40H15V25h9.924" stroke="#42474D" stroke-width="1.571" stroke-linejoin="round"/><path d="M15 40v-3.944c0-.574-.223-1.125-.62-1.532a2.088 2.088 0 00-1.494-.635h-2.114a3.97 3.97 0 00-.287-1.489 3.893 3.893 0 00-.823-1.262 3.785 3.785 0 00-1.232-.843A3.71 3.71 0 006.977 30H4.61c-.958 0-1.876.39-2.553 1.084A3.747 3.747 0 001 33.7V40h14zM34 11.354L22.96 1.62C22.502 1.22 21.92 1 21.317 1c-.602 0-1.184.22-1.642.62l-7.329 6.457V3.264H7.422v9.16L1 18.074 4.285 22 21.32 7l7.84 6.884M27 29l9.588 15L46 29.571" stroke="#42474D" stroke-width="1.571" stroke-linejoin="round"/><path d="M36.5 34C42.851 34 48 28.851 48 22.5S42.851 11 36.5 11 25 16.149 25 22.5 30.149 34 36.5 34z" stroke="#42474D" stroke-width="1.571" stroke-linejoin="round"/><mask id="a" fill="#fff"><path d="M42 20z"/></mask><path d="M42 20z" fill="#70B9D6"/><path d="M42.152 21l-.52.058 1.04-.115-.52.057zm-.666-.9c.06.315.11.635.146.958l1.04-.116c-.039-.35-.092-.698-.158-1.041l-1.028.198zm1.186.843a12.71 12.71 0 00-.158-1.043l-1.028.2c.062.315.11.634.145.957l1.041-.114z" fill="#42474D" mask="url(#a)"/><mask id="b" fill="#fff"><path d="M43 21z"/></mask><path d="M43 21z" fill="#70B9D6"/><path d="M42.48 21.052c.03.315.047.633.049.95l1.047-.004c-.002-.351-.02-.702-.055-1.05l-1.042.104zm1.096.946c-.002-.351-.02-.702-.055-1.05l-1.042.104c.032.315.048.633.05.95l1.047-.004z" fill="#42474D" mask="url(#b)"/><mask id="c" fill="#fff"><path d="M30 21z"/></mask><path d="M30 21z" fill="#70B9D6"/><path d="M30 21l-.52-.053 1.04.107L30 21zm.152-1l.513.103-1.026-.207.513.104zm.369 1.054c.033-.321.081-.639.144-.95l-1.026-.207c-.07.345-.123.695-.16 1.049l1.042.108zm-.882-1.158c-.07.345-.124.696-.16 1.05l1.042.107c.033-.32.08-.637.144-.949l-1.026-.208z" fill="#42474D" mask="url(#c)"/><mask id="d" fill="#fff"><path d="M30 22z"/></mask><path d="M30 22z" fill="#70B9D6"/><path d="M30.524 22c0-.314.018-.629.054-.94l-1.04-.12c-.04.351-.061.705-.062 1.06h1.048zm-.987-1.06c-.04.351-.06.705-.06 1.06h1.047c0-.314.018-.629.054-.94l-1.04-.12z" fill="#42474D" mask="url(#d)"/><path d="M42.337 22.177c.196-3.585-2.327-6.64-5.636-6.824-3.308-.184-6.15 2.572-6.346 6.157-.196 3.584 2.327 6.64 5.636 6.824 3.308.184 6.15-2.573 6.346-6.157z" stroke="#42474D" stroke-width="1.571" stroke-linejoin="round"/></g></symbol><symbol id="info"><g fill="none"><path d="M1 17a.968.968 0 01-.713-.288A.964.964 0 010 16c0-.283.096-.521.288-.713A.964.964 0 011 15h10c.283 0 .521.096.713.288.192.192.288.43.287.712a.968.968 0 01-.288.713A.964.964 0 0111 17H1zm12-7c-1.383 0-2.563-.488-3.538-1.463C8.487 7.562 7.999 6.383 8 5c0-1.383.488-2.563 1.463-3.538C10.438.487 11.617-.001 13 0c1.383 0 2.563.488 3.538 1.463C17.513 2.438 18.001 3.617 18 5c0 1.383-.488 2.563-1.463 3.538-.975.975-2.154 1.463-3.537 1.462zM1 9a.968.968 0 01-.713-.288A.964.964 0 010 8c0-.283.096-.521.288-.713A.964.964 0 011 7h5.3c.117.367.25.717.4 1.05.15.333.333.65.55.95H1zm0 4a.968.968 0 01-.713-.288A.964.964 0 010 12c0-.283.096-.521.288-.713A.964.964 0 011 11h8.4c.383.233.792.43 1.225.588.433.159.892.271 1.375.337V12a.968.968 0 01-.288.713A.964.964 0 0111 13H1zm12-5a.48.48 0 00.35-.15c.1-.1.15-.217.15-.35v-3a.48.48 0 00-.15-.35.48.48 0 00-.7 0 .48.48 0 00-.15.35v3c0 .133.05.25.15.35.1.1.217.15.35.15zm0-5a.48.48 0 00.35-.15.48.48 0 000-.7.48.48 0 00-.7 0 .48.48 0 000 .7c.1.1.217.15.35.15z" fill="#42474D"/></g></symbol><symbol id="information-2" viewBox="0 0 20 20"><g fill="none"><path d="M9.892 6.751v3.888m-1.006-8.46c.564-.474 1.473-.474 2.02 0l1.272 1.087c.242.201.7.37 1.022.37h1.369c.853 0 1.553.7 1.553 1.554v1.368c0 .322.17.773.37 1.014l1.087 1.272c.475.563.475 1.473 0 2.02l-1.087 1.272c-.2.241-.37.692-.37 1.014v1.368c0 .853-.7 1.554-1.553 1.554H13.2c-.321 0-.772.169-1.014.37l-1.271 1.086c-.564.475-1.473.475-2.02 0l-1.272-1.086c-.242-.201-.7-.37-1.014-.37H5.2a1.56 1.56 0 01-1.553-1.554v-1.376c0-.314-.161-.773-.363-1.006l-1.086-1.28c-.467-.555-.467-1.457 0-2.012l1.086-1.28c.202-.241.363-.692.363-1.006v-1.36c0-.853.7-1.554 1.553-1.554h1.392c.322 0 .773-.169 1.015-.37l1.28-1.095z" stroke="#217ABF" stroke-width="1.317" stroke-linecap="round" stroke-linejoin="round"/><path d="M9.89 13.085H9.9" stroke="#217ABF" stroke-width="1.756" stroke-linecap="round" stroke-linejoin="round"/></g></symbol><symbol id="information" viewBox="0 0 22 22"><g fill="currentColor"><path d="M11.002 7.452v4.428M9.856 2.246c.642-.541 1.678-.541 2.3 0l1.45 1.237c.274.23.797.422 1.163.422h1.559c.971 0 1.769.797 1.769 1.77v1.558c0 .366.192.88.422 1.154l1.237 1.449c.54.641.54 1.677 0 2.3l-1.237 1.449c-.23.275-.422.788-.422 1.155v1.558c0 .972-.798 1.77-1.77 1.77H14.77c-.366 0-.88.192-1.155.421l-1.448 1.238c-.642.54-1.677.54-2.3 0l-1.45-1.238c-.274-.229-.797-.422-1.154-.422H5.658c-.972 0-1.77-.797-1.77-1.769v-1.567c0-.358-.183-.88-.412-1.146L2.24 12.127c-.532-.632-.532-1.659 0-2.291l1.237-1.458c.23-.275.413-.788.413-1.146V5.684c0-.971.797-1.769 1.769-1.769h1.586c.366 0 .88-.192 1.155-.421l1.457-1.247zM10.996 14.667h.01"/></g></symbol><symbol id="job"><g fill="none"><path d="M67.99 32.573l-1.37-.518c.324-.477.587-.993.78-1.535v-.068a4.564 4.564 0 00-1.205-4.956 4.613 4.613 0 00-1.536-.931l-11.751-4.29a1.469 1.469 0 00-1.576.381 1.45 1.45 0 00.575 2.347l11.723 4.284a1.702 1.702 0 01.96.886c.19.408.213.873.062 1.296v.069c-.473 1.275-.96 1.412-1.269 1.364l-10.01-3.663-1.432-.532-5.121-1.876a1.467 1.467 0 00-1.576.382 1.45 1.45 0 00-.248 1.595 1.454 1.454 0 00.823.751l6.478 2.367 9.887 3.643c.068 0 .137 0 .205.054l4.635 1.699a1.694 1.694 0 01.966.887 1.711 1.711 0 010 1.364 1.577 1.577 0 01-1.076.737 3.307 3.307 0 01-1.913 0l-20.224-7.45a1.466 1.466 0 00-1.117.048 1.445 1.445 0 00-.708 1.93c.164.349.46.62.824.751l4.84 1.767 12.813 4.686a.61.61 0 01.446.403 1.133 1.133 0 01-.384.955c-.912.777-4.052 1.01-5.313.545l-3.62-1.364a3.315 3.315 0 00-.624-.307l-9.598-3.506a1.466 1.466 0 00-1.872.866c-.132.362-.115.762.048 1.11.163.35.46.62.823.753l2.838 1.036 6.794 2.565a1.36 1.36 0 01-.335.826 8.253 8.253 0 01-2.25.777 5.51 5.51 0 00-1.974-2.476l-.13-.102-.15-.11a4.39 4.39 0 00-2.297-.681 4.082 4.082 0 00-1.605.334 5.264 5.264 0 00-1.981-2.517l-.123-.103a4.126 4.126 0 00-3.819-.546 5.565 5.565 0 00-1.906-2.298l-.13-.102-.151-.11a4.39 4.39 0 00-2.29-.682 4.326 4.326 0 00-1.049.137c-.09-1.57-1.063-2.551-2.139-3.41l-.13-.103-.151-.11a4.417 4.417 0 00-2.297-.681 4.881 4.881 0 00-3.53 1.732 29.834 29.834 0 00-4.45-2.34c.041-.116.09-.232.13-.354l.61-1.644c.748-2.047 1.7-4.618 2.599-7.047l1.776-4.774a2.48 2.48 0 01.089-.24v-.081c.171-.47.329-.894.466-1.248l.061-.164.103-.273c2.057.055 6.856.13 11.237-.095a1.45 1.45 0 001.013-.446 1.435 1.435 0 00-.049-2.036 1.451 1.451 0 00-1.032-.397h-.076c-3.723.191-7.713.157-10.037.116l.39-1.064a3.802 3.802 0 00-.11-2.918 3.832 3.832 0 00-2.151-1.987l-9.9-3.642A3.726 3.726 0 0011.869 2a3.873 3.873 0 00-2.178.675 3.844 3.844 0 00-1.415 1.78L.241 26.08a3.79 3.79 0 00.99 4.128c.371.34.806.604 1.28.777l9.892 3.642c.426.157.876.238 1.33.239a3.855 3.855 0 003.154-1.678 27.672 27.672 0 013.983 2.046 3.49 3.49 0 00-.329 1.835 4.508 4.508 0 001.988 3.117 5.628 5.628 0 003.566 1.583h.301a4.81 4.81 0 001.9 2.606 5.586 5.586 0 003.557 1.582c.302-.003.602-.047.892-.13a7.56 7.56 0 002.17 2.05 7.599 7.599 0 002.8 1.054c.23 0 .46-.023.686-.068a3.15 3.15 0 00.384-.109 7.468 7.468 0 002.196 2.156A7.51 7.51 0 0043.865 52a3.791 3.791 0 001.911-.561 3.766 3.766 0 001.359-1.451c.446-.731.81-1.509 1.083-2.32 1.43-.182 2.81-.646 4.059-1.364l.178-.123a4.199 4.199 0 001.31-2.046l1.37.525a9.062 9.062 0 002.915.423c1.974 0 4.195-.47 5.402-1.575l.062-.062a4.263 4.263 0 001.186-2.271 6.51 6.51 0 003.003-.13 4.347 4.347 0 001.82-.922 4.32 4.32 0 001.196-1.65 4.57 4.57 0 00-.147-3.508 4.605 4.605 0 00-2.595-2.378l.013-.014zm-54.263-.593a1.04 1.04 0 01-.33-.055l-9.851-3.643a.951.951 0 01-.528-.49.923.923 0 010-.683L11.053 5.5a.943.943 0 011.213-.552l9.832 3.601a.934.934 0 01.615.84.924.924 0 01-.06.361l-8.035 21.623a.936.936 0 01-.878.608h-.013zm10.667 6.036l-.089-.068a2.048 2.048 0 01-.877-1.105.68.68 0 01.089-.41c.089-.1.165-.213.226-.333.078-.153.165-.301.26-.444.453-.682 1.248-1.603 2.016-1.603a1.5 1.5 0 01.686.219l.055.04c1.144.915 1.665 1.365.04 4.093l-.034.062a.902.902 0 01-.685.484 2.828 2.828 0 01-1.673-.935h-.014zm5.766 4.161l-.09-.075a2.048 2.048 0 01-.89-1.098.68.68 0 01.096-.41c.089-.1.165-.213.226-.333.315-.648 1.323-2.047 2.29-2.047.243.014.479.09.685.218l.055.041c.87.683 1.371 1.099.878 2.442-.075.12-.13.252-.165.39-.205.43-.434.849-.685 1.254v.062a.902.902 0 01-.72.484 2.822 2.822 0 01-1.666-.928h-.014zm7.706 3.889c-.411.081-1.083-.246-1.824-.894l-.082-.068a2.09 2.09 0 01-.877-1.085l.047-.075a14.54 14.54 0 00.81-1.59c1.2-1.568 2.056-1.207 2.433-.981l.055.04c1.015.819 1.371 1.092.823 2.531-.21.537-.468 1.055-.768 1.548a.614.614 0 00-.048.096 1.055 1.055 0 01-.57.477zm6.74 2.598a.902.902 0 01-.686.485 2.863 2.863 0 01-1.694-.907l-.089-.069c-.416-.25-.73-.64-.884-1.098a.679.679 0 01.089-.41 1.8 1.8 0 00.226-.334c.316-.682 1.33-2.046 2.29-2.046.244.01.48.086.686.218l.054.041c.638.505 1.084.867 1.07 1.549-.01.097-.01.196 0 .293a7.216 7.216 0 01-.994 2.237l-.069.041z" fill="#42474D"/><path d="M93.762 24.259L85.7 2.512a3.837 3.837 0 00-2-2.16A3.851 3.851 0 0080.754.24l-9.926 3.665a3.849 3.849 0 00-2.162 1.998 3.836 3.836 0 00-.114 2.938l.433 1.167c-3.123.206-9.465.453-13.84-.487-.268-.145-.963-.584-1.582-.975-3.997-2.52-6.143-3.687-7.512-3.652a3.77 3.77 0 01-.509-.041c-2.497-.316-4.258.604-8.123 6.864a1.596 1.596 0 00-.18.453c-.646 2.911.138 4.977.895 6.975a20.368 20.368 0 011.1 3.597 1.453 1.453 0 00.874 1.078 6.527 6.527 0 005.455-.687 4.891 4.891 0 002.208-4.119v-.357l2.022 1.373a1.454 1.454 0 002.246-1.467 1.447 1.447 0 00-.608-.928l-4.582-3.117a1.451 1.451 0 00-2.27 1.137c-.012.269.05.536.18.771.13.836.168 1.683.11 2.527a1.953 1.953 0 01-.895 1.75 3.858 3.858 0 01-2.064.522 25.26 25.26 0 00-1.024-3.124c-.688-1.812-1.197-3.144-.826-5.086 3.44-5.492 4.43-5.368 5.16-5.28.309.048.622.068.935.063.928.082 4.533 2.354 5.888 3.205 1.582.996 1.967 1.23 2.38 1.325 5.228 1.167 12.787.742 15.635.522l.688 1.805c.034.11.076.22.11.31l2.428 6.59 2.655 7.214a28.616 28.616 0 00-4.32 2.581 1.449 1.449 0 00.785 2.65c.295 0 .584-.09.825-.26a25.41 25.41 0 013.825-2.307 3.824 3.824 0 004.505 1.441l9.926-3.68a3.849 3.849 0 002.162-1.997 3.837 3.837 0 00.115-2.938zm-3.281 2.19l-9.926 3.693a.958.958 0 01-1.21-.556l-8.07-21.754a.939.939 0 01.558-1.208l9.933-3.666a.875.875 0 01.323-.062.95.95 0 01.887.618l8.062 21.747a.945.945 0 01-.557 1.188z" fill="#42474D"/></g></symbol><symbol id="logo"><g fill="none"><path fill-rule="evenodd" clip-rule="evenodd" d="M66.837 1.512L64.011 3.01l3.038.082c1.67.045 4.405.045 6.076 0l3.038-.082-2.892-1.512C71.681.666 70.22-.008 70.021 0c-.197.008-1.63.689-3.184 1.512zm-2.685 5.675v3.457h5.37v-2.88h-1.413c-1.068 0-1.413-.106-1.413-.433 0-.362.596-.432 3.674-.432 3.077 0 3.673.07 3.673.432 0 .332-.36.432-1.554.432h-1.554v2.902l2.614-.082 2.614-.083.08-3.385.08-3.385H64.151v3.457zM45.8 5.697c-1.044.57-1.996 2.083-1.996 3.17 0 1.896 1.596 3.397 4.188 3.94 1.055.22 1.417.803.896 1.442-.517.635-1.957.514-3.317-.279l-1.201-.7v1.56c0 1.467.055 1.59.918 2.058 1.357.734 4.178.697 5.207-.069 1.139-.848 1.888-2.514 1.668-3.71-.28-1.525-1.14-2.389-2.93-2.941-2.046-.632-2.434-.91-2.006-1.435.458-.563 2.215-.486 3.442.152l1.048.545V6.097l-1.136-.463c-1.513-.617-3.587-.59-4.78.063zm9.102-.115c-1.78.82-2.555 3.24-1.626 5.072.489.962 1.442 1.537 3.368 2.032 1.506.386 1.934 1.005 1.125 1.623-.714.545-2.507.304-3.54-.474-.436-.33-.862-.598-.946-.598-.084 0-.153.628-.153 1.396 0 1.65.419 2.14 2.25 2.637 3.183.865 5.663-.777 5.663-3.75 0-2.03-.71-2.726-3.71-3.634-.821-.248-1.377-.584-1.377-.832 0-.91 2.748-.87 4.14.06l.665.444v-1.61c0-1.425-.087-1.67-.748-2.112-.996-.664-3.904-.809-5.11-.254zm38.076.216c-1.787.94-2.543 2.53-2.543 5.348 0 3.406 1.185 5.454 3.546 6.128 2.532.722 5.15-.314 6.204-2.457.44-.893.565-1.723.565-3.74 0-4.105-1.169-5.594-4.567-5.82-1.626-.108-2.135-.022-3.205.54zm21.878-.233c-.479.221-1.159.774-1.511 1.228-.535.69-.619 1.083-.514 2.387.151 1.872.816 2.591 3.092 3.341 1.979.653 2.402 1.052 1.784 1.683-.658.67-1.826.587-3.35-.239l-1.314-.712v1.514c0 1.367.08 1.563.825 2.01 3.056 1.841 7.084.123 7.087-3.023.003-2.094-.866-3.007-3.67-3.856-1.406-.425-1.838-1.043-.968-1.384.802-.313 1.932-.172 3.156.394l1.201.556V7.9c0-1.373-.091-1.625-.748-2.064-.978-.653-3.904-.81-5.07-.271zM0 11.365v5.905h2.826v-4.321h5.087V10.068H2.826V8.34h5.087V5.459H0v5.905zm9.043 0v5.905h3.109V5.459H9.043v5.905zm4.24-4.466v1.44h3.108V17.3l1.484-.087 1.484-.087.078-4.393.078-4.393h2.811V5.459h-9.043v1.44zm10.173 4.454v5.917h3.109l.013-3.817.012-3.817 1.585 3.829 1.585 3.829 1.864-.084 1.865-.084.077-5.834.076-5.833h-3.12l-.015 3.385-.016 3.385-1.223-3.313-1.224-3.313-2.294-.084-2.294-.084v5.918zm11.588.011v5.906h7.912V14.1h-2.402c-2.374 0-2.402-.008-2.402-.72s.028-.72 2.402-.72h2.402V9.78h-2.402c-2.374 0-2.402-.008-2.402-.72s.028-.72 2.402-.72h2.402V5.459h-7.912v5.905zm44.652 0v5.906h2.826V12.66h3.391v4.609h3.109V5.459h-3.109v4.32h-3.391V5.46h-2.826v5.905zm22.609-1.368c.001 3.989.068 4.648.552 5.458.863 1.442 1.852 1.95 3.808 1.955 2.19.006 3.384-.516 4.186-1.83.578-.947.647-1.474.738-5.583l.101-4.537h-3.168v3.889c0 3.505-.056 3.946-.565 4.465-.666.678-1.376.734-2.137.168-.489-.365-.559-.85-.646-4.466l-.098-4.056h-2.772l.001 4.537zm19.782 1.368v5.906H130V14.1h-2.563c-2.497 0-2.561-.017-2.473-.648.085-.608.243-.653 2.563-.732l2.473-.083V9.78h-2.543c-2.525 0-2.544-.005-2.544-.72 0-.714.019-.72 2.544-.72H130V5.46h-7.913v5.905zm-25.156-2.51c.68.562 1.065 2.614.738 3.94-.45 1.826-2.204 2.427-3.432 1.176-.584-.596-.694-.983-.694-2.462s.11-1.866.694-2.461c.82-.836 1.828-.907 2.694-.192zm-32.779 5.823v3.457h12.152V11.22h-5.369v3.169h1.554c1.193 0 1.554.1 1.554.432 0 .362-.596.432-3.673.432-3.078 0-3.674-.07-3.674-.432 0-.326.345-.432 1.413-.432h1.413V11.22h-5.37v3.457zm7.56 1.364c-.739.06-1.946.06-2.685 0-.738-.06-.134-.108 1.343-.108 1.476 0 2.08.049 1.342.108zm-7.461 2.885c.072.119 1.415.86 2.984 1.645L70.087 22l2.852-1.429c1.569-.786 2.912-1.526 2.984-1.645.073-.118-2.553-.216-5.836-.216-3.282 0-5.909.098-5.836.216z" fill="#42474D"/></g></symbol><symbol id="man"><g fill="none"><path d="M10.5 10.5c-1.42 0-2.637-.506-3.649-1.518C5.84 7.971 5.334 6.754 5.334 5.333c0-1.42.506-2.637 1.517-3.649C7.863.673 9.08.167 10.501.167c1.42 0 2.636.506 3.648 1.517 1.012 1.012 1.518 2.229 1.518 3.65 0 1.42-.506 2.637-1.518 3.648C13.138 9.994 11.921 10.5 10.5 10.5zm7.75 10.333H2.75c-.71 0-1.318-.252-1.824-.758a2.489 2.489 0 01-.759-1.825v-1.033c0-.732.189-1.405.566-2.02a3.764 3.764 0 011.5-1.403 19.205 19.205 0 014.07-1.502c1.377-.334 2.776-.5 4.197-.5 1.421 0 2.82.166 4.198.5 1.378.334 2.734.835 4.069 1.502a3.764 3.764 0 011.5 1.404c.378.614.567 1.287.567 2.019v1.033c0 .71-.253 1.319-.758 1.825a2.491 2.491 0 01-1.826.758zM2.75 18.25h15.5v-1.033c0-.237-.059-.452-.177-.646a1.264 1.264 0 00-.468-.452 16.865 16.865 0 00-3.52-1.309 15.004 15.004 0 00-7.17 0 16.864 16.864 0 00-3.519 1.309 1.253 1.253 0 00-.646 1.098v1.033zM10.5 7.917c.71 0 1.32-.253 1.825-.76a2.486 2.486 0 00.759-1.824c0-.71-.253-1.318-.759-1.823a2.489 2.489 0 00-1.825-.76c-.71 0-1.318.253-1.824.76a2.484 2.484 0 00-.759 1.823c0 .71.253 1.319.76 1.824.505.507 1.113.76 1.823.76z" fill="#42474D"/></g></symbol><symbol id="map-pin-active"><g fill="none"><path d="M17.182 0C7.682 0 0 7.683 0 17.182 0 30.068 17.182 49.09 17.182 49.09s17.182-19.023 17.182-31.91C34.364 7.684 26.68 0 17.182 0zm0 23.318a6.136 6.136 0 110-12.272 6.136 6.136 0 010 12.272z" fill="#CD4141"/></g></symbol><symbol id="map-pin"><g fill="none"><path d="M17.182 0C7.682 0 0 7.683 0 17.182 0 30.068 17.182 49.09 17.182 49.09s17.182-19.023 17.182-31.91C34.364 7.684 26.68 0 17.182 0zm0 23.318a6.136 6.136 0 110-12.272 6.136 6.136 0 010 12.272z" fill="#42474D"/></g></symbol><symbol id="menu" viewBox="0 0 50 19"><g fill="currentColor"><rect y="15" width="50" height="3.333" rx="1.667"/><rect width="33.333" height="3.333" rx="1.667"/></g></symbol><symbol id="modal-1"><g fill="none"><path d="M27.5 33.75a6.75 6.75 0 100-13.5 6.75 6.75 0 000 13.5z" stroke="#42474D" stroke-width="2" stroke-miterlimit="10" stroke-linecap="round" stroke-linejoin="round"/><path d="M5 28.98v-3.96c0-2.34 1.912-4.275 4.275-4.275 4.072 0 5.737-2.88 3.69-6.413-1.17-2.025-.473-4.657 1.575-5.827l3.893-2.227c1.777-1.058 4.072-.428 5.13 1.35l.247.427c2.025 3.533 5.355 3.533 7.402 0l.248-.427c1.057-1.778 3.352-2.408 5.13-1.35l3.892 2.227c2.048 1.17 2.745 3.802 1.575 5.827-2.047 3.533-.382 6.413 3.69 6.413 2.34 0 4.276 1.912 4.276 4.275v3.96c0 2.34-1.913 4.275-4.276 4.275-4.072 0-5.737 2.88-3.69 6.412 1.17 2.048.473 4.658-1.575 5.828l-3.892 2.227c-1.778 1.058-4.073.428-5.13-1.35l-.248-.427c-2.024-3.532-5.354-3.532-7.402 0l-.247.428c-1.058 1.777-3.353 2.407-5.13 1.35l-3.893-2.228a4.273 4.273 0 01-1.575-5.828c2.047-3.532.383-6.412-3.69-6.412C6.912 33.255 5 31.32 5 28.98z" stroke="#42474D" stroke-width="2" stroke-miterlimit="10" stroke-linecap="round" stroke-linejoin="round"/></g></symbol><symbol id="ok"><g fill="none"><circle cx="18" cy="18" r="17" stroke="#31A428" stroke-width="2"/><path d="M11 17.5l4.706 6.846a1 1 0 001.628.028L26.5 12" stroke="#31A428" stroke-width="2" stroke-linecap="round"/></g></symbol><symbol id="people" viewBox="0 0 53 29"><g fill="none"><circle cx="25.438" cy="6.854" r="6.131" stroke="#42474D" stroke-width="1.447"/><circle cx="10.261" cy="8.618" r="5.641" stroke="#42474D" stroke-width="1.447"/><path d="M5.381 27.417h10.27v-9.802c.253-1.363.64-2.052 1.733-2.927H4.75c-2.527 0-3.58 2.546-3.79 3.819v8.91h4.422zm0 0V21.69" stroke="#42474D" stroke-width="1.369"/><circle r="5.641" transform="matrix(-1 0 0 1 42.915 8.618)" stroke="#42474D" stroke-width="1.447"/><path d="M47.795 27.417h-10.27v-9.802c-.253-1.363-.64-2.052-1.733-2.927h12.634c2.527 0 3.58 2.546 3.79 3.819v8.91h-4.421zm0 0V21.69" stroke="#42474D" stroke-width="1.369"/><path d="M32.324 27.417h4.865v-9.596c0-2.742-2.317-3.884-3.475-4.112H19.816c-2.78 0-3.938 2.741-4.17 4.112v9.596h4.865m11.813 0v-6.169m0 6.17H20.511m0 0v-6.17" stroke="#42474D" stroke-width="1.447"/></g></symbol><symbol id="phone-footer"><g fill="none"><rect x=".5" y=".5" width="46" height="36" rx="5.5" stroke="#FFFEDA"/><path d="M26.855 7.958h-7.667a2.396 2.396 0 00-2.396 2.396v16.292a2.396 2.396 0 002.396 2.396h7.667a2.396 2.396 0 002.395-2.396V10.354a2.396 2.396 0 00-2.395-2.396zM23.02 28.083a1.436 1.436 0 01-1.437-1.437c0-.796.642-1.438 1.437-1.438.796 0 1.438.643 1.438 1.438 0 .795-.642 1.437-1.438 1.437zm4.313-3.833h-8.625V10.833h8.625V24.25z" fill="#FFFEDA"/></g></symbol><symbol id="phone" viewBox="0 0 14 22"><g fill="none"><path fill="currentColor" d="M10.854.458H3.187A2.396 2.396 0 00.792 2.854v16.292a2.396 2.396 0 002.395 2.396h7.667a2.396 2.396 0 002.396-2.396V2.854A2.396 2.396 0 0010.854.458zM7.021 20.583a1.436 1.436 0 01-1.438-1.437c0-.796.642-1.438 1.438-1.438.795 0 1.437.643 1.437 1.438 0 .795-.642 1.437-1.437 1.437zm4.312-3.833H2.708V3.333h8.625V16.75z"/></g></symbol><symbol id="pin"><g fill="currentColor"><path d="M10.5 11c.481 0 .893-.171 1.236-.514.343-.343.514-.755.514-1.236s-.171-.893-.514-1.236A1.687 1.687 0 0010.5 7.5c-.481 0-.893.171-1.236.514A1.686 1.686 0 008.75 9.25c0 .481.171.893.514 1.236.343.342.755.514 1.236.514zm0 8.75c-2.348-1.998-4.101-3.854-5.26-5.568C4.08 12.47 3.5 10.883 3.5 9.425c0-2.188.704-3.93 2.111-5.228C7.018 2.899 8.648 2.25 10.5 2.25c1.852 0 3.482.649 4.889 1.947S17.5 7.237 17.5 9.425c0 1.458-.58 3.044-1.739 4.757-1.16 1.714-2.913 3.57-5.261 5.568z"/></g></symbol><symbol id="play-video" viewBox="0 0 201 202"><g fill="none"><g filter="url(#filter0_d_3386_10549)"><rect x="29" y="24" width="145" height="145" rx="72.5" fill="#fff"/><path d="M101.886 131.689c19.164 0 34.699-15.535 34.699-34.7 0-19.163-15.535-34.698-34.699-34.698-19.164 0-34.698 15.535-34.698 34.699 0 19.164 15.534 34.699 34.698 34.699z" fill="#E2F0FB" stroke="#42474D" stroke-width="2.32" stroke-linecap="round" stroke-linejoin="round"/><path d="M90.68 97.788v-5.795c0-7.217 5.1-10.166 11.346-6.558l5.032 2.915 5.031 2.915c6.246 3.608 6.246 9.507 0 13.116l-5.031 2.914-5.032 2.915c-6.246 3.609-11.346.659-11.346-6.558v-5.864zM158.358 104.067l-.741-1.092a1.69 1.69 0 00.636-.72 2.43 2.43 0 00.275-.953c.057-.773-.161-1.427-.655-1.96-.495-.527-1.14-.819-1.935-.877-.831-.061-1.525.122-2.083.55-.55.434-.854 1.042-.912 1.823-.059.803.19 1.441.746 1.914l-.843 1.029c-.836-.774-1.208-1.789-1.116-3.043.087-1.19.531-2.136 1.332-2.841.808-.704 1.803-1.013 2.986-.926 1.196.088 2.128.545 2.795 1.372.673.835.966 1.85.878 3.047a4.205 4.205 0 01-.415 1.536c-.231.502-.547.882-.948 1.141zM151.671 104.773l7.38 1.939-.54 2.054-5.747.54-.008.031 4.744 3.275-.543 2.064-7.379-1.94.342-1.303 5.931 1.559.006-.021-5.342-3.8.241-.917 6.512-.651.005-.021-5.931-1.559.329-1.25zM152.393 116.478c1.082.536 1.779 1.306 2.092 2.31.309 1.011.199 2.051-.33 3.12-.536 1.081-1.299 1.806-2.291 2.173-.991.367-2.028.282-3.109-.253-1.063-.526-1.76-1.304-2.092-2.334-.328-1.021-.226-2.068.306-3.144.526-1.062 1.294-1.772 2.305-2.13 1.017-.354 2.057-.268 3.119.258zm-.655 1.323c-.734-.363-1.447-.444-2.141-.242-.686.205-1.2.652-1.541 1.341-.345.696-.39 1.379-.137 2.049.26.674.757 1.192 1.491 1.556.714.354 1.418.43 2.112.228.69-.196 1.208-.645 1.556-1.346.344-.696.386-1.38.127-2.054-.263-.667-.752-1.178-1.467-1.532zM143.3 125.094l5.226 3.772 1.368-1.896.962.694-3.533 4.893-.961-.693 1.369-1.897-5.226-3.772.795-1.101zM140.176 129.278l5.55 5.236-1.709 1.811c-1.316 1.395-2.51 1.588-3.581.577-.575-.542-.806-1.135-.692-1.779.113-.644.473-1.287 1.08-1.93l.717-.76-2.297-2.167.932-.988zm2.196 3.939l-.651.69c-.774.82-.889 1.487-.346 1.999.298.281.605.364.922.248.312-.111.641-.349.986-.715l.68-.721-1.591-1.501zM135.422 134.173l4.798 5.933-3.931 3.178-.745-.922 2.874-2.324-1.219-1.509-2.724 2.203-.718-.889 2.723-2.202-1.355-1.676-3.025 2.446-.759-.938 4.081-3.3zM128.756 139.182l3.339 5.512 2-1.211.614 1.014-5.162 3.126-.614-1.014 2.001-1.211-3.339-5.513 1.161-.703zM124.198 141.824l3.051 6.994-1.244.543-1.211-2.776-1.037.453c-.791.344-1.502.447-2.135.308-.64-.137-1.113-.557-1.421-1.262-.304-.698-.29-1.331.042-1.899.325-.566.877-1.018 1.654-1.357l2.301-1.004zm-.787 1.59l-.939.41c-.988.43-1.328.998-1.02 1.703.152.349.395.556.73.622.337.072.742.005 1.217-.202l.938-.409-.926-2.124zM113.645 145.641l1.376 6.296 2.284-.499.254 1.158-5.896 1.289-.253-1.158 2.284-.5-1.376-6.296 1.327-.29zM108.491 146.676l.617 7.606-2.481.201c-1.912.155-2.928-.501-3.047-1.969-.064-.788.162-1.383.677-1.785.515-.402 1.213-.639 2.094-.711l1.042-.084-.256-3.148 1.354-.11zm-1.006 4.396l-.945.077c-1.124.091-1.656.509-1.596 1.254.033.408.207.675.519.801.306.127.71.17 1.211.129l.988-.08-.177-2.181zM101.501 147.132l-.412 7.619-5.047-.273.064-1.184 3.69.2.105-1.937-3.497-.189.062-1.141 3.497.189.117-2.152-3.885-.21.065-1.205 5.241.283zM94.78 146.739l-1.572 7.466-1.329-.28.635-3.016-3.49-.735-.636 3.016-1.328-.28 1.572-7.466 1.329.28-.698 3.311 3.491.735.697-3.311 1.33.28zM86.256 144.821l-2.84 7.082-1.26-.506 2.078-5.181-.03-.012-5.4 3.849-1.36-.545 2.84-7.082 1.261.506-2.062 5.141.02.008 5.373-3.813 1.38.553zM78.17 141.371l-3.906 6.555-2.139-1.274c-1.648-.982-2.095-2.106-1.34-3.371.404-.679.932-1.033 1.585-1.062.653-.029 1.36.182 2.118.634l.899.536 1.616-2.713 1.166.695zm-3.368 2.999l-.815-.485c-.969-.578-1.645-.545-2.027.097-.21.351-.223.669-.041.953.175.281.48.55.912.807l.851.507 1.12-1.879zM70.192 141.126c-.78.922-1.694 1.414-2.744 1.476-1.055.058-2.039-.298-2.95-1.068-.921-.779-1.441-1.694-1.56-2.744-.119-1.051.212-2.037.99-2.959.766-.905 1.689-1.395 2.768-1.471 1.07-.074 2.063.276 2.979 1.051.905.765 1.41 1.681 1.515 2.748.1 1.073-.233 2.061-.998 2.967zm-1.127-.953c.528-.626.778-1.299.748-2.021-.035-.716-.345-1.322-.933-1.818-.592-.501-1.244-.709-1.956-.624-.716.091-1.339.449-1.868 1.074-.514.609-.757 1.275-.727 1.996.024.717.336 1.328.934 1.834.592.501 1.247.706 1.963.615.71-.095 1.324-.447 1.839-1.056zM65.062 131.517l-5.845 4.905-1.912-2.279c-.416-.495-.648-1.018-.697-1.568-.053-.555.168-1.041.663-1.456.32-.268.665-.404 1.038-.407.372-.003.737.113 1.094.348l.016-.014c-.269-.421-.38-.849-.331-1.283.048-.434.265-.813.65-1.137.303-.254.623-.414.96-.482.327-.068.644-.048.951.061.307.108.597.263.87.466.273.202.532.449.776.741l1.767 2.105zm-5.86 3.144l1.52-1.275-.776-.924c-.291-.347-.582-.553-.872-.62-.29-.066-.561.007-.814.22-.26.217-.365.465-.318.745.041.284.228.624.56 1.02l.7.834zm2.411-2.023l1.7-1.427-.782-.933c-.73-.869-1.386-1.059-1.97-.57-.297.25-.423.529-.379.839.044.31.249.682.614 1.117l.817.974zM60.141 125.511l-6.526 3.953-.704-1.161 2.82-1.709-.016-.028-4.473-1.019-.95-1.568 4.863 1.226 1.541-5.381.988 1.631-1.536 4.849.017.028 3.273-1.982.703 1.161zM56.197 118.901l-7.082 2.841-.505-1.26 5.181-2.079-.012-.03-6.513-1.242-.546-1.361 7.082-2.84.506 1.26-5.142 2.062.008.02 6.47 1.249.553 1.38zM44.908 89.176l.74 1.092a1.694 1.694 0 00-.636.72c-.159.305-.25.623-.275.953-.057.773.162 1.427.656 1.96.494.526 1.14.819 1.935.877.83.061 1.525-.122 2.082-.55.55-.434.855-1.042.912-1.823.06-.803-.19-1.44-.745-1.914l.843-1.03c.836.775 1.208 1.79 1.116 3.043-.087 1.19-.532 2.137-1.332 2.842-.809.704-1.804 1.013-2.986.926-1.197-.088-2.128-.545-2.795-1.372-.674-.835-.967-1.85-.879-3.047.04-.53.178-1.042.416-1.536.23-.502.547-.882.948-1.141zM51.583 88.504l-7.38-1.94.54-2.053 5.747-.54.008-.031-4.744-3.275.543-2.064 7.379 1.94-.343 1.303-5.93-1.56-.006.022 5.342 3.8-.241.917-6.512.65-.005.021 5.93 1.56-.328 1.25zM50.814 76.861c-1.082-.535-1.78-1.305-2.092-2.31-.309-1.01-.199-2.05.33-3.12.536-1.08 1.3-1.805 2.29-2.172.992-.367 2.029-.283 3.11.252 1.063.526 1.76 1.305 2.092 2.335.328 1.02.226 2.068-.306 3.143-.526 1.063-1.294 1.772-2.305 2.13-1.017.354-2.057.268-3.12-.258zm.655-1.323c.734.364 1.447.444 2.14.242.688-.205 1.201-.652 1.542-1.34.345-.696.39-1.38.137-2.05-.26-.673-.757-1.192-1.49-1.555-.715-.354-1.42-.43-2.113-.228-.69.195-1.208.644-1.556 1.346-.344.695-.386 1.38-.127 2.053.263.668.752 1.178 1.467 1.532zM59.942 68.163l-5.225-3.772-1.37 1.897-.96-.694 3.532-4.894.961.694-1.369 1.896 5.226 3.772-.795 1.101zM63.115 63.897l-5.53-5.257 1.714-1.804c1.322-1.39 2.516-1.579 3.584-.564.573.544.801 1.138.686 1.782-.116.643-.478 1.285-1.087 1.925l-.72.758 2.288 2.175-.935.985zm-2.181-3.947l.653-.687c.777-.818.895-1.484.353-1.999-.297-.282-.604-.366-.921-.251-.312.11-.642.347-.988.711l-.683.719 1.586 1.507zM67.656 59.2l-4.798-5.932 3.93-3.178.746.922-2.874 2.324 1.22 1.508 2.723-2.202.718.888-2.723 2.203 1.355 1.676 3.025-2.447.76.939-4.082 3.3zM74.369 54.126l-3.339-5.512-2 1.212-.614-1.014 5.162-3.127.614 1.014-2 1.212 3.338 5.512-1.161.703zM79.07 51.38l-3.025-7.005 1.247-.538 1.2 2.78 1.04-.448c.79-.342 1.503-.442 2.135-.3.64.139 1.111.56 1.416 1.267.302.699.285 1.332-.049 1.899-.328.564-.88 1.014-1.659 1.35l-2.305.995zm.794-1.587l.94-.405c.989-.428 1.331-.994 1.026-1.7-.15-.35-.393-.558-.727-.625-.337-.073-.743-.008-1.218.197l-.94.406.919 2.128zM89.5 47.605l-1.376-6.296-2.285.5-.253-1.158 5.896-1.29.253 1.159-2.285.5 1.376 6.295-1.326.29zM94.591 46.559l-.617-7.605 2.481-.202c1.912-.155 2.928.501 3.047 1.97.064.787-.162 1.382-.677 1.784-.515.402-1.213.64-2.094.71l-1.042.085.256 3.148-1.354.11zm1.006-4.396l.945-.077c1.124-.091 1.656-.51 1.596-1.254-.033-.408-.207-.675-.52-.801-.305-.127-.709-.17-1.21-.129l-.988.08.177 2.18zM101.417 46.069l.412-7.62 5.047.274-.064 1.183-3.691-.2-.105 1.938 3.498.189-.062 1.14-3.497-.188-.117 2.152 3.885.21-.065 1.205-5.241-.283zM108.13 46.407l1.572-7.467 1.329.28-.635 3.016 3.491.735.635-3.016 1.328.28-1.572 7.466-1.329-.28.698-3.31-3.491-.736-.697 3.311-1.329-.28zM116.994 48.38l2.866-7.071 1.259.51-2.098 5.173.03.013 5.414-3.83 1.358.551-2.867 7.071-1.258-.51 2.081-5.133-.02-.009-5.387 3.794-1.378-.56zM124.897 51.73l3.905-6.555 2.139 1.274c1.648.981 2.095 2.105 1.341 3.37-.404.68-.933 1.033-1.586 1.063-.653.029-1.359-.183-2.118-.635l-.898-.535-1.616 2.713-1.167-.695zm3.367-3l.815.486c.969.577 1.645.545 2.027-.097.21-.352.224-.67.042-.954-.176-.28-.48-.55-.912-.807l-.852-.507-1.12 1.88zM133.003 52.042c.779-.922 1.694-1.414 2.744-1.477 1.056-.057 2.039.299 2.95 1.069.922.779 1.442 1.694 1.56 2.744.119 1.05-.211 2.037-.991 2.959-.765.905-1.687 1.395-2.767 1.47-1.069.075-2.062-.276-2.979-1.05-.905-.765-1.41-1.682-1.515-2.748-.1-1.073.233-2.062.998-2.967zm1.128.953c-.529.626-.778 1.299-.749 2.02.035.716.346 1.322.933 1.819.592.5 1.244.709 1.956.623.717-.09 1.339-.448 1.868-1.074.515-.609.757-1.274.727-1.995-.024-.717-.335-1.328-.933-1.834-.593-.5-1.247-.706-1.964-.615-.711.095-1.323.447-1.838 1.056zM138.106 61.586l5.845-4.904 1.912 2.278c.416.495.648 1.018.697 1.568.053.556-.168 1.041-.663 1.457-.319.267-.665.403-1.038.406-.372.003-.737-.113-1.094-.348l-.016.014c.269.421.379.849.331 1.283-.048.435-.265.814-.65 1.137a2.145 2.145 0 01-.96.482 1.737 1.737 0 01-.951-.06 3.301 3.301 0 01-.87-.466 4.545 4.545 0 01-.776-.742l-1.767-2.105zm5.859-3.144l-1.519 1.275.776.925c.291.346.582.553.872.619.29.066.561-.007.814-.22.259-.217.365-.465.318-.744-.041-.284-.228-.625-.561-1.02l-.7-.835zm-2.41 2.023l-1.701 1.427.783.933c.73.87 1.386 1.06 1.97.57.297-.25.423-.529.379-.839-.044-.31-.249-.682-.614-1.117l-.817-.974zM143.066 67.61l6.526-3.953.704 1.162-2.821 1.708.017.028 4.473 1.02.949 1.567-4.862-1.226-1.541 5.382-.988-1.632 1.536-4.849-.017-.027-3.272 1.982-.704-1.162zM147.025 74.208l7.082-2.84.506 1.26-5.182 2.078.012.03 6.514 1.243.545 1.36-7.081 2.84-.506-1.26 5.141-2.062-.008-.02-6.469-1.248-.554-1.38z" fill="#42474D"/></g></g></symbol><symbol id="sale" viewBox="0 0 22 22"><path fill="currentColor" d="M8.424 1.897a4 4 0 015.02-.136l.17.136.376.32a2 2 0 00.96.45l.178.022.493.04a4 4 0 013.648 3.468l.02.2.04.494c.03.358.154.702.36.996l.11.142.323.376a4 4 0 01.136 5.02l-.136.17-.321.376a2 2 0 00-.45.96l-.022.178-.04.493a4 4 0 01-3.467 3.648l-.201.021-.493.04a2 2 0 00-.996.36l-.142.111-.377.32a4 4 0 01-5.02.137l-.17-.136-.375-.321a2 2 0 00-.96-.45l-.178-.021-.493-.04a4 4 0 01-3.648-3.468l-.021-.2-.04-.494a2 2 0 00-.36-.996l-.111-.142-.321-.377a4 4 0 01-.136-5.02l.136-.169.32-.376a2 2 0 00.45-.96l.022-.178.04-.493A4 4 0 016.216 2.75l.2-.021.494-.04a2 2 0 00.996-.36l.142-.111.376-.32v-.001zM13.519 12a1.5 1.5 0 100 3 1.5 1.5 0 000-3zm-.207-4.707l-6 6a1 1 0 101.414 1.414l6-6a1 1 0 00-1.414-1.414zM8.519 7a1.5 1.5 0 100 3 1.5 1.5 0 000-3z"/></symbol><symbol id="sch-pool"><g fill="none"><path fill-rule="evenodd" clip-rule="evenodd" d="M.52 9.77c.082.07.92-.77 1.013-.97h.048a.475.475 0 00.33-.205 2.633 2.633 0 011.338-.95c.312-.11.64-.165.97-.165 1.178 0 2.201.72 3.263 1.135A4.827 4.827 0 009.3 9.01c.282 0 .563-.032.839-.095a3.16 3.16 0 001.707-.96c.101-.12.746-.865.824-1a.512.512 0 00-.131-.685.389.389 0 00-.262-.08.44.44 0 00-.393.215l-.116.165c-.306.365-1.285 1.255-1.823 1.38a3.473 3.473 0 01-1.523-.055 9.377 9.377 0 01-1.532-.61c-.56-.28-1.142-.511-1.74-.69a3.66 3.66 0 00-.931-.12 3.735 3.735 0 00-1.275.215 3.831 3.831 0 00-.994.5 3.393 3.393 0 00-.854.89C.995 8.32.326 9.645.52 9.77zM11.4 2.63c0-.337.098-.667.28-.948a1.67 1.67 0 01.745-.627c.303-.13.636-.163.957-.097.322.067.617.23.848.468.232.239.39.543.454.874a1.76 1.76 0 01-.093.987 1.7 1.7 0 01-.61.768 1.623 1.623 0 01-2.096-.21 1.716 1.716 0 01-.36-.558 1.758 1.758 0 01-.126-.657zm-6.304-.215l3.147-.645.053.205.156 1.795c-.054 0-3.608 1-4.34 1.215.494.27 1.018.476 1.561.61 2.08.58 3.617.245 4.965.325L9.184.945v-.03a.578.578 0 00-.247-.33.548.548 0 00-.398-.075l-3.666.76a.539.539 0 00-.355.246.575.575 0 00-.076.434.59.59 0 00.242.357c.121.082.269.114.412.088v.02z" fill="#42474D"/></g></symbol><symbol id="sch-spa"><g fill="none"><path d="M12.98 13.387H4.84c-.48 0-.885.581-.89 1.301-.007.72.398 1.319.873 1.319h8.146c.475 0 .88-.581.886-1.301.006-.72-.393-1.319-.874-1.319zM10.802 5.453c0 .373-.111.737-.32 1.046-.21.31-.507.551-.854.694a1.917 1.917 0 01-2.072-.411 1.865 1.865 0 01-.408-2.053c.145-.344.39-.637.703-.843a1.913 1.913 0 011.783-.171 1.896 1.896 0 011.026 1.019c.095.228.143.472.142.72z" fill="#42474D"/><path d="M10.666 8.63H7.147a.212.212 0 00-.138.074.208.208 0 00-.05.147v6.54a.217.217 0 00.188.226h1.578a.186.186 0 01.184-.152.189.189 0 01.185.153h1.578a.217.217 0 00.187-.226v-6.54a.207.207 0 00-.05-.15.212.212 0 00-.143-.071z" fill="#42474D"/><path d="M14.683 13.701l-.276-.203a8.054 8.054 0 01-1.296-1.342 6.074 6.074 0 01-.674-1.202c-.14-.36-.252-.726-.422-1.08a3.871 3.871 0 00-1.719-1.836 2.833 2.833 0 00-.756-.255 2.053 2.053 0 00-.428-.047h-.253a2.776 2.776 0 00-1.202.256c-.778.366-1.41.98-1.794 1.742-.182.343-.311.703-.464 1.063a6.073 6.073 0 01-.727 1.162c-.397.485-.852.92-1.355 1.295-.09.067-.184.129-.281.186a.754.754 0 00-.287 1.022.763.763 0 001.026.285c.419-.26.812-.56 1.173-.895A7.366 7.366 0 006.707 11.5c.111-.25.205-.5.31-.75.133-.289.296-.563.488-.818.127-.15.268-.289.422-.413.128-.09.266-.166.41-.226.115-.04.233-.071.352-.093h.247a.592.592 0 00.14 0h.106c.12.023.238.058.352.104.138.07.27.15.393.244.151.129.289.273.41.43.18.263.33.543.452.837.1.255.182.51.281.76a7.241 7.241 0 001.678 2.423c.345.35.724.668 1.132.946a.76.76 0 001.143-.521.741.741 0 00-.352-.757l.012.035z" fill="#42474D"/></g></symbol><symbol id="sch-swim"><g fill="none"><path d="M11.85 6.801C10.169 4.8 6.834 4.806 5.147 6.8a4.504 4.504 0 00-.236 5.663 1.82 1.82 0 001.45.726h4.278a1.82 1.82 0 001.45-.726 4.498 4.498 0 00-.237-5.66zM5.394 8.768c-.077.165-.04.479-.286.485a.205.205 0 01-.2-.246c.057-.188.067-.569.354-.495a.203.203 0 01.132.256zm1.453-1.81c-.427.25-.79.595-1.065 1.007a.204.204 0 01-.339-.225c.139-.247 1.229-1.489 1.475-1.06a.204.204 0 01-.071.278z" fill="#42474D"/><path d="M5.072 6.283a4.813 4.813 0 011.36-.938l-.238-1.68a.33.33 0 01.329-.376h3.953a.33.33 0 01.329.378l-.238 1.678c.503.231.962.548 1.357.936l.343-2.407a1.808 1.808 0 00-1.791-2.062H6.523A1.818 1.818 0 004.73 3.874l.341 2.41z" fill="#42474D"/></g></symbol><symbol id="sch-user"><g fill="none"><path d="M6.37 7.944c-1.99 0-5.895.94-5.895 2.89v1.444h11.79v-1.445c0-1.95-3.906-2.889-5.896-2.889zm0-1.444c.781 0 1.53-.304 2.083-.846a2.86 2.86 0 00.864-2.043 2.86 2.86 0 00-.864-2.043A2.978 2.978 0 006.37.722c-.781 0-1.531.305-2.084.846a2.86 2.86 0 00-.863 2.043c0 .766.31 1.501.863 2.043A2.978 2.978 0 006.37 6.5z" fill="#42474D"/></g></symbol><symbol id="schedule-2" viewBox="0 0 58 59"><g fill="none"><path d="M44.842 32.28a1.186 1.186 0 00-.83.34 1.15 1.15 0 00-.34.819v23.245H2.34V2.306h30.36v10.16c0 .306.123.6.342.816.22.216.517.337.827.337h3.647c.31 0 .608-.121.827-.337a1.145 1.145 0 000-1.63 1.178 1.178 0 00-.827-.338H35.02V4.026l5.126 5.261a1.173 1.173 0 00.82.358 1.187 1.187 0 00.837-.32 1.154 1.154 0 00.363-.808 1.14 1.14 0 00-.324-.825L34.7.355l-.127-.109-.061-.044a1.103 1.103 0 00-.15-.098 1.173 1.173 0 00-.51-.104H1.154C.846.006.553.13.338.345A1.15 1.15 0 000 1.153v56.683a1.144 1.144 0 00.34.82 1.176 1.176 0 00.83.344h43.672a1.184 1.184 0 00.823-.345 1.152 1.152 0 00.335-.819V33.44a1.144 1.144 0 00-.337-.815 1.177 1.177 0 00-.821-.343z" fill="#42474D"/><path d="M11.49 16a1.125 1.125 0 01-.683-.247l-2.373-1.828a1.112 1.112 0 01-.425-.736 1.103 1.103 0 01.552-1.102 1.12 1.12 0 011.237.084l1.56 1.203 3.7-4.013a1.12 1.12 0 011.94.699c.014.294-.09.58-.29.798l-4.394 4.764a1.132 1.132 0 01-.825.378zM58 15.3a1.135 1.135 0 00-.344-.808l-4.176-4.076-4.176-4.077A1.174 1.174 0 0048.47 6a1.196 1.196 0 00-.833.34l-23.64 23.113-.045.054-.089.098a1.087 1.087 0 00-.061.108.2.2 0 00-.039.065l-4.648 9.812-2.988 5.746a1.121 1.121 0 00.042 1.113c.103.167.248.305.422.401.174.097.37.148.57.15.179.002.356-.04.516-.12l5.98-2.856 1.833-.851c.099-.03.192-.074.278-.13l7.886-3.621a.563.563 0 00.11-.065h.04c.061-.04.119-.085.172-.136l.06-.06 23.59-23.027A1.15 1.15 0 0058 15.3zm-9.524-6.505l2.516 2.456L29 32.706l-2.516-2.456L48.476 8.795zM25.38 40.7l-2.888-2.813 2.694-5.681 5.98 5.838-5.786 2.656zm-4.176-.103l.217-.46 1.666 1.626-.478.222-2.838 1.355 1.433-2.743zm11.973-3.832l-2.521-2.434 21.996-21.466 2.516 2.455-21.991 21.445zM16.803 28h-6.606A1.198 1.198 0 019 26.804v-6.608A1.2 1.2 0 0110.197 19h6.606A1.198 1.198 0 0118 20.196v6.608A1.19 1.19 0 0116.803 28zm-5.42-2.397h4.222v-4.206h-4.222v4.206zM16.803 40h-6.606A1.198 1.198 0 019 38.804v-6.608A1.2 1.2 0 0110.197 31h6.606A1.198 1.198 0 0118 32.196v6.608A1.19 1.19 0 0116.803 40zm-5.42-2.392h4.222v-4.2h-4.222v4.2z" fill="#42474D"/><path d="M16.802 52h-6.605A1.197 1.197 0 019 50.802v-6.604A1.204 1.204 0 0110.197 43h5.107a1.197 1.197 0 01.847 2.045c-.224.225-.529.351-.847.351h-3.92v4.225h4.238a1.198 1.198 0 012.378.221v.977A1.193 1.193 0 0116.802 52z" fill="#42474D"/></g></symbol><symbol id="schedule" viewBox="0 0 19 18"><g fill="none"><path fill="currentColor" d="M5.038 14a.968.968 0 00.713-.288.967.967 0 00.287-.712.97.97 0 00-.287-.713.97.97 0 00-.713-.287.97.97 0 00-.713.287.97.97 0 00-.287.713c0 .283.096.52.287.712.192.192.43.288.713.288zm0-4a.968.968 0 00.713-.288A.967.967 0 006.038 9a.97.97 0 00-.287-.713A.97.97 0 005.038 8a.97.97 0 00-.713.287.97.97 0 00-.287.713c0 .283.096.52.287.712.192.192.43.288.713.288zm0-4a.968.968 0 00.713-.288A.967.967 0 006.038 5a.97.97 0 00-.287-.713A.97.97 0 005.038 4a.97.97 0 00-.713.287.97.97 0 00-.287.713c0 .283.096.52.287.712.192.192.43.288.713.288zm3 8h6v-2h-6v2zm0-4h6V8h-6v2zm0-4h6V4h-6v2zm-6 12c-.55 0-1.02-.196-1.413-.587A1.928 1.928 0 01.038 16V2c0-.55.196-1.021.587-1.413A1.928 1.928 0 012.038 0h14c.55 0 1.021.196 1.413.587.391.392.587.863.587 1.413v14c0 .55-.196 1.021-.587 1.413a1.928 1.928 0 01-1.413.587h-14z"/></g></symbol><symbol id="scroll"><g fill="none"><g clip-path="url(#clip0_2564_7685)" fill="#42474D"><path d="M27.488 7.365l1.07 1.088L32 4.767l-3.444-3.685-1.069 1.088 2.375 2.597-2.375 2.598z"/><path d="M23.329 9.244L27.518 4.8l.03-.032-4.22-4.476-1.121 1.142 3.1 3.335-3.1 3.335 1.122 1.141zM14.202 2.357a3.311 3.311 0 014.736 0 3.456 3.456 0 01.178 4.623l.003 1.789c.276-.182.532-.393.764-.63 1.827-1.859 1.827-4.886 0-6.745a4.634 4.634 0 00-6.626 0c-1.826 1.86-1.827 4.887 0 6.746.257.261.543.491.853.685l-.005-1.752a3.456 3.456 0 01.097-4.716z"/><path d="M29.907 21.243l-.006-1.291-.017-4.362a2.575 2.575 0 00-.734-1.793 2.486 2.486 0 00-.81-.554 2.45 2.45 0 00-.957-.193h-.061c-.404.008-.8.118-1.152.32a2.553 2.553 0 00-.918-1.263 2.482 2.482 0 00-1.47-.478h-.048a2.42 2.42 0 00-1.306.417 2.6 2.6 0 00-.465-.653 2.45 2.45 0 00-1.712-.744H20.197a2.453 2.453 0 00-1.073.251L19.12 8.77l-.004-1.789-.003-1.626a2.66 2.66 0 00-.752-1.839 2.45 2.45 0 00-1.717-.744h-.054c-1.38.01-2.495 1.158-2.49 2.562l.006 1.74.005 1.753.021 7.152a2.464 2.464 0 00-2.395-.487h-.003l-.004.001c-1.313.436-2.034 1.878-1.607 3.215l.946 2.963.002.006.003.007.897 2.707a8.399 8.399 0 001.966 3.224c1.457 1.484 3.377 2.33 5.406 2.383h.004L19.6 30h.004l1.78-.008a8.452 8.452 0 004.359-1.233c2.432-1.483 3.899-3.786 4.132-6.486a7.33 7.33 0 00.035-.692v-.004l-.002-.334zm-10.532 7.474c-1.749-.046-3.36-.797-4.55-2.008a7.068 7.068 0 01-1.662-2.729l-.897-2.706-.946-2.963a1.29 1.29 0 01.074-.968 1.254 1.254 0 011.108-.694c.264-.001.521.083.736.24.214.158.373.381.454.637l.796 2.49.045.14a.434.434 0 00.424.317.444.444 0 00.45-.46L15.36 5.328c-.001-.337.13-.66.362-.9.233-.238.55-.373.88-.375h.024c.319.006.622.138.846.369.244.25.382.586.383.938l.04 12.655c0 .143.056.28.154.383a.536.536 0 00.371.166h.019c.3-.001.543-.273.541-.581l-.018-4.777c-.001-.337.129-.66.362-.9.233-.239.55-.374.88-.376h.024c.319.006.622.138.846.37.244.249.382.586.383.939l.021 5.424c0 .143.055.28.154.383a.536.536 0 00.39.166c.3-.001.543-.273.542-.581l-.019-4.404c-.002-.699.532-1.3 1.219-1.317h.023c.331-.001.65.131.884.369.235.237.368.56.37.896l.02 5.246a.557.557 0 00.165.383.537.537 0 00.76-.003.557.557 0 00.16-.384l-.014-3.77c-.003-.698.532-1.3 1.218-1.316h.023c.331-.002.65.13.884.368.235.237.368.56.37.896l.017 4.362.005 1.292.002.335c0 .112-.01.441-.027.549-.202 2.443-1.566 4.33-3.53 5.528a7.206 7.206 0 01-3.716 1.051l-1.78.008-.221-.003zM5.512 2.17l-1.07-1.087L1 4.768l3.444 3.685 1.069-1.088-2.375-2.597L5.512 2.17z"/><path d="M9.671.291L5.482 4.736l-.03.032 4.22 4.476 1.121-1.142-3.1-3.334 3.1-3.336L9.671.291z"/></g></g></symbol><symbol id="search"><g fill="none"><path d="M6.383 12.877a6.363 6.363 0 003.71-1.195l3.935 3.934a.947.947 0 00.681.274c.54 0 .921-.415.921-.946a.9.9 0 00-.265-.664l-3.91-3.918a6.358 6.358 0 001.312-3.868C12.767 2.982 9.895.11 6.383.11 2.88.11 0 2.974 0 6.494c0 3.51 2.872 6.383 6.383 6.383zm0-1.378c-2.739 0-5.005-2.266-5.005-5.005 0-2.74 2.266-5.006 5.005-5.006 2.74 0 5.006 2.266 5.006 5.006 0 2.739-2.266 5.005-5.006 5.005z" fill="#3C3C43" fill-opacity=".6"/></g></symbol><symbol id="sort"><g fill="none"><path d="M6.634 1.5a1 1 0 011.732 0l4.763 8.25a1 1 0 01-.866 1.5H2.737a1 1 0 01-.866-1.5L6.634 1.5zM8.366 24.5a1 1 0 01-1.732 0l-4.763-8.25a1 1 0 01.866-1.5h9.526a1 1 0 01.866 1.5L8.366 24.5z" fill="#42474D"/></g></symbol><symbol id="spa" viewBox="0 0 33 28"><g fill="none"><path d="M22.32 18.743H11.033c-.666 0-1.227.813-1.236 1.821-.008 1.009.553 1.846 1.212 1.846h11.295c.659 0 1.22-.813 1.228-1.822.008-1.008-.545-1.845-1.212-1.845zM19.295 7.635a2.635 2.635 0 11-1.62-2.434 2.627 2.627 0 011.62 2.434z" fill="#42474D"/><path d="M19.108 12.083H14.23a.293.293 0 00-.26.309v9.156a.3.3 0 00.26.317h2.188a.26.26 0 01.512 0h2.187a.301.301 0 00.26-.317v-9.156a.292.292 0 00-.268-.31z" fill="#42474D"/><path d="M24.678 19.182l-.382-.285A11.233 11.233 0 0122.5 17.02a8.528 8.528 0 01-.935-1.684c-.195-.504-.35-1.016-.585-1.512a5.4 5.4 0 00-2.383-2.57 3.904 3.904 0 00-1.049-.357 2.828 2.828 0 00-.594-.066h-.35a3.822 3.822 0 00-1.667.358 5.351 5.351 0 00-2.488 2.44c-.252.48-.43.984-.642 1.488a8.518 8.518 0 01-1.008 1.626c-.55.679-1.181 1.288-1.879 1.814a4.66 4.66 0 01-.39.26 1.065 1.065 0 00-.399 1.431 1.049 1.049 0 001.424.398 10.57 10.57 0 001.626-1.252 10.302 10.302 0 002.44-3.293c.154-.35.284-.7.43-1.05.184-.404.41-.789.675-1.146.177-.21.373-.404.586-.577.177-.126.368-.233.569-.317.16-.056.322-.1.488-.13h.341c.065.007.13.007.196 0h.146c.167.032.33.081.488.146.192.096.374.21.545.341.21.18.4.382.569.602.248.368.458.76.626 1.171.138.358.252.716.39 1.066a10.14 10.14 0 002.326 3.39c.48.492 1.005.936 1.57 1.326a1.05 1.05 0 101.097-1.79l.017.05z" fill="#42474D"/></g></symbol><symbol id="star"><g fill="none"><path fill="currentColor" d="M15.013 5.543c.328-1.062 1.83-1.062 2.158 0l2.108 6.82a1.13 1.13 0 001.079.795h6.935c1.08 0 1.545 1.372.686 2.028l-5.707 4.36a1.13 1.13 0 00-.393 1.23l2.156 6.98c.325 1.05-.89 1.898-1.765 1.23l-5.492-4.195a1.13 1.13 0 00-1.372 0l-5.492 4.196c-.874.667-2.09-.18-1.765-1.232l2.156-6.978a1.13 1.13 0 00-.393-1.232l-5.707-4.36c-.859-.655-.395-2.027.686-2.027h6.935a1.13 1.13 0 001.08-.796l2.107-6.82z"/></g></symbol><symbol id="telegram" viewBox="0 0 26 27"><g fill="none"><path fill="currentColor" d="M13.088 26.116c-7.059 0-12.78-5.721-12.78-12.78 0-7.058 5.721-12.78 12.78-12.78 7.058 0 12.78 5.722 12.78 12.78 0 7.059-5.722 12.78-12.78 12.78zM9.113 14.832l.017-.01 1.112 3.668c.143.398.34.47.578.436.24-.032.367-.16.524-.312l1.519-1.467 3.259 2.413c.595.329 1.023.159 1.172-.552l2.117-9.997c.234-.93-.175-1.303-.897-1.007L6.075 12.81c-.848.34-.843.815-.153 1.026l3.191.997v-.002z"/></g></symbol><symbol id="tl"><g fill="none"><path fill="currentColor" d="M18.665.11L.935 6.947C-.275 7.433-.268 8.108.713 8.41l4.552 1.42 10.532-6.645c.498-.303.953-.14.579.192l-8.533 7.701H7.84l.002.001-.314 4.692c.46 0 .663-.21.92-.46l2.212-2.15 4.599 3.397c.848.467 1.457.227 1.668-.785l3.019-14.228c.309-1.239-.473-1.8-1.282-1.434z"/></g></symbol><symbol id="touch" viewBox="0 0 32 30"><g fill="none"><g clip-path="url(#clip0_4295_12819)" fill="#42474D"><path d="M27.488 7.365l1.07 1.088L32 4.767l-3.444-3.685-1.069 1.088 2.375 2.597-2.375 2.598z"/><path d="M23.329 9.244L27.518 4.8l.03-.032-4.22-4.476-1.121 1.142 3.1 3.335-3.1 3.335 1.122 1.141zM14.202 2.357a3.311 3.311 0 014.736 0 3.456 3.456 0 01.178 4.623l.003 1.789c.276-.182.532-.393.764-.63 1.827-1.859 1.827-4.886 0-6.745a4.634 4.634 0 00-6.626 0c-1.826 1.86-1.827 4.887 0 6.746.257.261.543.491.853.685l-.005-1.752a3.456 3.456 0 01.097-4.716z"/><path d="M29.907 21.243l-.006-1.291-.017-4.362a2.575 2.575 0 00-.734-1.793 2.486 2.486 0 00-.81-.554 2.45 2.45 0 00-.957-.193h-.061c-.404.008-.8.118-1.152.32a2.553 2.553 0 00-.918-1.263 2.482 2.482 0 00-1.47-.478h-.048a2.42 2.42 0 00-1.306.417 2.6 2.6 0 00-.465-.653 2.45 2.45 0 00-1.712-.744H20.197a2.453 2.453 0 00-1.073.251L19.12 8.77l-.004-1.789-.003-1.626a2.66 2.66 0 00-.752-1.839 2.45 2.45 0 00-1.717-.744h-.054c-1.38.01-2.495 1.158-2.49 2.562l.006 1.74.005 1.753.021 7.152a2.464 2.464 0 00-2.395-.487h-.003l-.004.001c-1.313.436-2.034 1.878-1.607 3.215l.946 2.963.002.006.003.007.897 2.707a8.399 8.399 0 001.966 3.224c1.457 1.484 3.377 2.33 5.406 2.383h.004L19.6 30h.004l1.78-.008a8.452 8.452 0 004.359-1.233c2.432-1.483 3.899-3.786 4.132-6.486a7.33 7.33 0 00.035-.692v-.004l-.002-.334zm-10.532 7.474c-1.749-.046-3.36-.797-4.55-2.008a7.068 7.068 0 01-1.662-2.729l-.897-2.706-.946-2.963a1.29 1.29 0 01.074-.968 1.254 1.254 0 011.108-.694c.264-.001.521.083.736.24.214.158.373.381.454.637l.796 2.49.045.14a.434.434 0 00.424.317.444.444 0 00.45-.46L15.36 5.328c-.001-.337.13-.66.362-.9.233-.238.55-.373.88-.375h.024c.319.006.622.138.846.369.244.25.382.586.383.938l.04 12.655c0 .143.056.28.154.383a.536.536 0 00.371.166h.019c.3-.001.543-.273.541-.581l-.018-4.777c-.001-.337.129-.66.362-.9.233-.239.55-.374.88-.376h.024c.319.006.622.138.846.37.244.249.382.586.383.939l.021 5.424c0 .143.055.28.154.383a.536.536 0 00.39.166c.3-.001.543-.273.542-.581l-.019-4.404c-.002-.699.532-1.3 1.219-1.317h.023c.331-.001.65.131.884.369.235.237.368.56.37.896l.02 5.246a.557.557 0 00.165.383.537.537 0 00.76-.003.557.557 0 00.16-.384l-.014-3.77c-.003-.698.532-1.3 1.218-1.316h.023c.331-.002.65.13.884.368.235.237.368.56.37.896l.017 4.362.005 1.292.002.335c0 .112-.01.441-.027.549-.202 2.443-1.566 4.33-3.53 5.528a7.206 7.206 0 01-3.716 1.051l-1.78.008-.221-.003zM5.512 2.17l-1.07-1.087L1 4.768l3.444 3.685 1.069-1.088-2.375-2.597L5.512 2.17z"/><path d="M9.671.291L5.482 4.736l-.03.032 4.22 4.476 1.121-1.142-3.1-3.334 3.1-3.336L9.671.291z"/></g></g></symbol><symbol id="trainer" viewBox="0 0 19 18"><g fill="none"><path d="M1.554 18s-1.5 0-1.5-1.5 1.5-6 9-6 9 4.5 9 6-1.5 1.5-1.5 1.5h-15zm7.5-9a4.5 4.5 0 100-9 4.5 4.5 0 000 9z" fill="currentColor"/></g></symbol><symbol id="user-lk" viewBox="0 0 18 21"><g fill="none"><path fill="currentColor" d="M9 21c-.133 0-.258-.021-.375-.064a.87.87 0 01-.325-.217L6 18.372H2c-.55 0-1.021-.2-1.413-.6-.391-.4-.587-.88-.587-1.441V2.04C0 1.48.196 1 .587.6.979.2 1.45 0 2 0h14c.55 0 1.021.2 1.413.6.391.4.587.88.587 1.441v14.29c0 .56-.196 1.042-.587 1.442-.392.4-.863.599-1.413.599h-4l-2.3 2.347a.87.87 0 01-.325.217A1.078 1.078 0 019 21zm0-10.793c.967 0 1.792-.35 2.475-1.047S12.5 7.62 12.5 6.634c0-.986-.342-1.828-1.025-2.526C10.792 3.411 9.967 3.062 9 3.062c-.967 0-1.792.349-2.475 1.046-.683.698-1.025 1.54-1.025 2.526 0 .987.342 1.829 1.025 2.526.683.698 1.508 1.047 2.475 1.047zm0 8.369l2.2-2.245H16v-1.174a10.08 10.08 0 00-3.137-2.131c-1.192-.519-2.48-.778-3.863-.778s-2.67.26-3.862.778A10.075 10.075 0 002 15.156v1.175h4.8L9 18.576z"/></g></symbol><symbol id="v1" viewBox="0 0 148 115"><g fill="currentColor"><circle cx="102.5" cy="49.5" r="45.5" fill="#E2F0FB"/><g clip-path="url(#clip0_4327_14051)"><path d="M101.296 57.725v48.291c0 5.053-3.167 8.984-7.21 8.984h-9.86c-4.043 0-7.21-3.953-7.21-8.984V57.725c0-5.054 3.167-8.985 7.21-8.985h9.86c4.02 0 7.21 3.953 7.21 8.985zM101.454 29.401a2.077 2.077 0 01-2.268.068l-6.739-4.043c-11.095 18.373-26.75 35.668-56.983 35.668-6.379 0-13.41-.764-21.18-2.471a2.121 2.121 0 01-1.618-2.493 2.083 2.083 0 012.224-1.64c1.886.157 45.73 3.1 64.148-37.442L72.143 13.7a2.101 2.101 0 01-.989-2.785 2.102 2.102 0 011.079-1.033L95.12.157a2.096 2.096 0 012.74 1.1c.068.158.113.315.135.472l4.335 25.584a2.059 2.059 0 01-.876 2.088zM69.65 75.469v30.547c0 5.053-3.167 8.984-7.21 8.984h-9.882c-4.043 0-7.21-3.953-7.21-8.984V75.469c0-5.054 3.167-8.985 7.21-8.985h9.86c4.065-.022 7.232 3.931 7.232 8.985zM38.697 90.248v15.768c0 5.031-3.167 8.984-7.21 8.984h-9.882c-4.044 0-7.21-3.953-7.21-8.984V90.248c0-5.054 3.166-8.984 7.21-8.984h9.86c4.065-.023 7.232 3.93 7.232 8.984z"/></g></g></symbol><symbol id="v2" viewBox="0 0 139 128"><g fill="currentColor"><circle cx="93.5" cy="45.5" r="45.5" fill="#E2F0FB"/><path d="M109.84 65.24L60.96 18.5c-2.102-2-5.285-2-7.386 0L4.82 65.24c-3.736 3.594-1.337 10.153 3.693 10.153 1.337 0 2.632-.517 3.65-1.46l3.418-3.19v47.101c0 3.481 2.674 6.312 5.964 6.312H93.03c3.29 0 5.964-2.831 5.964-6.312v-47.1l3.417 3.189a5.294 5.294 0 003.651 1.46h.127c4.988 0 7.386-6.581 3.651-10.153zm-54.229 42.811H42.388c-1.655 0-2.971-1.415-2.971-3.144V90.913h16.215l-.02 17.138zm0-20.305H39.396c0-9.478 7.258-17.16 16.215-17.16v17.16zm19.187 17.138c0 1.752-1.337 3.145-2.971 3.145H58.604v-17.16h16.215v14.015h-.02zM58.583 87.746v-17.16c8.956 0 16.215 7.682 16.215 17.16H58.583z"/></g></symbol><symbol id="v3" viewBox="0 0 152 115"><g fill="currentColor"><circle cx="106.5" cy="45.5" r="45.5" fill="#E2F0FB"/><path d="M50.816 73.336H37.422a2.196 2.196 0 00-2.195 2.196v33.093c0 1.212.983 2.195 2.195 2.195h13.394a2.196 2.196 0 002.196-2.195V75.532a2.196 2.196 0 00-2.196-2.196zM103.976 73.336H90.582a2.196 2.196 0 00-2.195 2.196v33.093c0 1.212.983 2.195 2.195 2.195h13.394a2.196 2.196 0 002.196-2.195V75.532a2.196 2.196 0 00-2.196-2.196zM56.867 86.77h27.665v10.617H56.867V86.769z"/><path d="M31.374 75.532a6.055 6.055 0 016.05-6.049h13.392a6.058 6.058 0 016.05 6.049v7.383h27.672v-7.383a6.058 6.058 0 016.052-6.049h2.013a43.348 43.348 0 00-.964-7.92L80.968 72.234 59.81 51.082a16.842 16.842 0 01-4.288-18.738 17.22 17.22 0 012.336-3.977A43.174 43.174 0 0015.465 97.41h15.91V75.532zM16.14 63.91a33.914 33.914 0 0113.656-20.884l2.23 3.143a30.06 30.06 0 00-12.11 18.519l-3.776-.779z"/><path d="M80.967 66.792L62.53 48.358a13.054 13.054 0 013.915-21.8 13.05 13.05 0 0114.523 3.365c13.378-13.38 31.805 5.055 18.434 18.435L80.967 66.791zM33.065 26.624v-8.053a1.466 1.466 0 011.466-1.467h29.8a1.466 1.466 0 011.465 1.467v4.052a16.193 16.193 0 015.403-.967c1.19.015 2.373.164 3.53.442v-6.616a7.31 7.31 0 00-7.31-7.31H31.435a7.31 7.31 0 00-7.31 7.31v15.604a46.833 46.833 0 018.94-4.462z"/></g></symbol><symbol id="v4" viewBox="0 0 149 115"><g fill="currentColor"><circle cx="103.5" cy="45.5" r="45.5" fill="#E2F0FB"/><path fill-rule="evenodd" clip-rule="evenodd" d="M66.056 47.77v59.454H49.753a11.866 11.866 0 01-8.429-3.522 12.054 12.054 0 01-3.1-5.44L63.082 47.77h2.975zm14.071 59.454H70.012V47.77h10.115v59.454zm3.955-59.454h23.817c2.433 0 4.406 1.99 4.406 4.447v42.981c0 3.19-1.255 6.248-3.491 8.504a11.866 11.866 0 01-8.429 3.522H84.082V47.77zM18.134 71.319l23.214 11.63-10.587 21.507a4.42 4.42 0 01-2.542 2.237 4.377 4.377 0 01-3.365-.233l-8.59-4.304c-5.898-2.954-8.304-10.172-5.377-16.12l7.247-14.717zm29.486-1.11l-4.512 9.167-23.216-11.63 4.513-9.167 23.215 11.63zm-36.164 5.703c-5.676.529-9.342-2.444-9.734-7.196-.177-2.169.378-4.757 2.6-6.698 1.793-1.565 4.912-2.827 10.284-2.445a.428.428 0 00.392-.24.436.436 0 00-.048-.46c-3.548-4.088-4.435-7.357-4.283-9.743.19-2.96 1.899-4.97 3.72-6.137 3.987-2.556 8.552-1.408 11.566 3.474L11.456 75.91zm14.708-20.906l7.243-14.714c2.928-5.95 10.084-8.376 15.98-5.423 4.115 2.06 8.591 4.304 8.591 4.304 2.18 1.093 3.07 3.76 1.987 5.96L49.379 66.634l-23.215-11.63zM64.516 44.02l-.108-.001a2.177 2.177 0 01-2.164-2.05 19.92 19.92 0 00-.062-1.071 22.95 22.95 0 00-6.524-13.851L51.846 23.2a2.256 2.256 0 010-3.167 2.208 2.208 0 013.141 0l3.81 3.844a27.465 27.465 0 017.826 16.798c.021.239.042.61.059 1.022a2.203 2.203 0 01-.585 1.633 2.16 2.16 0 01-1.581.689zm21.21 0h-.114a2.163 2.163 0 01-1.577-.686 2.205 2.205 0 01-.59-1.627c.01-.211.019-.394.028-.522a27.47 27.47 0 017.867-17.307l3.811-3.844a2.207 2.207 0 013.14 0 2.256 2.256 0 010 3.168l-3.81 3.845a22.956 22.956 0 00-6.537 13.966c-.02.215-.038.566-.053.954a2.178 2.178 0 01-2.165 2.053zM70.567 13.35l.961-2.984a3.731 3.731 0 013.542-2.591 3.732 3.732 0 013.542 2.596l.96 2.98h3.105a3.73 3.73 0 013.543 2.599 3.77 3.77 0 01-1.355 4.196l-2.511 1.84.962 2.985a3.772 3.772 0 01-1.353 4.194 3.696 3.696 0 01-4.38.002l-2.513-1.841-2.512 1.842a3.7 3.7 0 01-4.382-.003 3.773 3.773 0 01-1.349-4.198l.959-2.98-2.514-1.843a3.773 3.773 0 01-1.351-4.197 3.727 3.727 0 013.542-2.597h3.105zm30.913.999a2.231 2.231 0 012.22 2.24 2.23 2.23 0 01-2.22 2.24 2.231 2.231 0 01-2.222-2.24c0-1.236.996-2.24 2.222-2.24zm-52.82 0a2.231 2.231 0 012.22 2.24 2.23 2.23 0 01-2.22 2.24 2.231 2.231 0 01-2.22-2.24c0-1.236.995-2.24 2.22-2.24z"/></g></symbol><symbol id="v5" viewBox="0 0 131 132"><g fill="currentColor"><circle cx="85.25" cy="45.5" r="45.5" fill="#E2F0FB"/><path d="M74.648 33.154a.794.794 0 00.245-.055c-.082.028-.163.028-.245.055zM73.89 33.314c.025 0 .075-.025.1-.025-.05 0-.075.025-.1.025zM38.879 121.041H11.995a2.47 2.47 0 01-2.418-2.521V64.293H3.25v63.154h31.178c5.042 0 15.049 0 20.914 4.553v-.9c0-6.046-2.958-10.059-16.463-10.059zM112.141 64.293h-6.199v54.047a2.524 2.524 0 01-2.316 2.521h-26.83c-13.609 0-16.464 4.013-16.464 10.033V132c5.865-4.553 15.64-4.553 21.12-4.553h30.946l-.257-63.154z"/><path d="M81.453 53v29.094l8.078-8.077a2.171 2.171 0 011.697-.823 1.875 1.875 0 011.698.823l8.284 8.077V53H81.453zM38.874 53H14.41v63.231h29.943s8-.154 10.985 3.73V69.464C55.338 60.383 47.955 53 38.874 53z"/><path d="M91.232 78.956L80.633 89.94a2.93 2.93 0 01-2.752.386 2.205 2.205 0 01-1.415-2.238V53h-.643c-.155 0-.335.026-.489.026-.129 0-.257.025-.386.025-.128.026-.231.026-.36.052l-.514.077c-.078 0-.155.026-.232.051-.206.026-.412.078-.617.13-.026 0-.078.025-.103.025-7.332 1.646-12.837 8.206-12.837 16.052v50.497c.052-.077.129-.154.18-.231.232-.258.463-.515.746-.746 3.447-2.881 10.033-2.753 10.033-2.753h29.917V88.937l-9.93-9.981z"/></g></symbol><symbol id="v6" viewBox="0 0 127 132"><g fill="currentColor"><circle cx="81" cy="45.5" r="45.5" fill="#E2F0FB"/><path fill-rule="evenodd" clip-rule="evenodd" d="M32.266 92.386c-5.17 0-9.377-4.216-9.377-9.378 0-5.17 4.209-9.377 9.377-9.377 5.164 0 9.377 4.209 9.377 9.377.003 5.162-4.213 9.378-9.377 9.378zm-2.711 3.488c-7.978 0-14.496 6.527-14.496 14.496v8.76c0 3.151 2.578 5.736 5.736 5.736h16.286v-7.367c0-6.832 3.808-12.809 9.405-15.922-2.655-3.464-6.833-5.705-11.505-5.705h-5.426v.002zm51.47 0c-4.675 0-8.85 2.241-11.505 5.705 5.597 3.113 9.404 9.092 9.404 15.922v7.368H95.21c3.159 0 5.737-2.586 5.737-5.737v-8.76c0-7.971-6.52-14.496-14.492-14.496h-5.43v-.002zm2.712-3.488c5.17 0 9.385-4.216 9.385-9.378 0-5.17-4.216-9.377-9.385-9.377-5.163 0-9.377 4.209-9.377 9.377-.002 5.162 4.214 9.378 9.377 9.378zm-28.449 10.619c-7.971 0-14.496 6.527-14.496 14.496v8.76c0 3.158 2.585 5.737 5.737 5.737h22.946c3.158 0 5.736-2.579 5.736-5.737v-8.76c0-7.971-6.52-14.496-14.496-14.496h-5.427zm2.714-3.49c5.17 0 9.377-4.21 9.377-9.378 0-5.163-4.21-9.377-9.377-9.377-5.164 0-9.378 4.216-9.378 9.377 0 5.17 4.214 9.378 9.378 9.378zM56.728 17c-10.918 0-19.77 8.85-19.77 19.763a19.71 19.71 0 007.08 15.16c1.069.898 1.79 1.998 2.138 3.258h8.69V43.504l-4.463-4.463a1.853 1.853 0 010-2.623 1.853 1.853 0 012.624 0l3.699 3.692 3.693-3.693a1.853 1.853 0 012.623 0 1.853 1.853 0 010 2.624l-4.463 4.463v11.68h8.69c.35-1.26 1.07-2.363 2.138-3.26a19.706 19.706 0 007.08-15.158C76.492 25.852 67.642 17 56.728 17zM46.446 58.887c.044.694.152 1.368.33 2.013h19.896c.172-.65.287-1.319.33-2.013H46.446zm2.21 5.726c1.898 2.367 4.838 3.865 8.13 3.865 3.235 0 6.126-1.516 8.003-3.865H48.656z"/></g></symbol><symbol id="v7" viewBox="0 0 156 132"><g fill="currentColor"><circle cx="110.5" cy="45.5" r="45.5" fill="#E2F0FB"/><path d="M44.375 39.462C44.375 29.82 59.066 22 77.188 22 95.308 22 110 29.819 110 39.462c0 9.644-14.691 17.462-32.813 17.462-18.12 0-32.812-7.818-32.812-17.462zm32.813 34.924c18.12 0 32.812-7.818 32.812-17.462v-8.73c0 9.643-14.691 17.461-32.813 17.461-18.12 0-32.812-7.818-32.812-17.462v8.731c0 9.644 14.691 17.462 32.813 17.462zm-45.938 0C16.751 74.386 5 86.112 5 100.58c0 14.467 11.751 26.193 26.25 26.193S57.5 115.047 57.5 100.58c0-14.468-11.751-26.194-26.25-26.194zm4.375 26.194v13.096h-8.75V100.58H16.139l11.755-11.73a4.678 4.678 0 016.607 0l11.76 11.73H35.625zm41.563 17.685c-5.26 0-10.23-.66-14.635-1.83a35.043 35.043 0 01-4.795 7.173c5.438 2.13 12.158 3.392 19.43 3.392 18.12 0 32.812-7.819 32.812-17.462v-8.731c0 9.643-14.691 17.458-32.813 17.458zm0-34.925c-6.353 0-12.281-.96-17.304-2.624a34.634 34.634 0 014.9 10.063c3.828.834 8.015 1.292 12.403 1.292C95.31 92.071 110 84.253 110 74.61v-8.73c0 9.642-14.691 17.461-32.813 17.461zm0 17.462c-3.842 0-7.526-.353-10.951-1a35.138 35.138 0 01-.814 8.574c3.653.747 7.617 1.157 11.764 1.157 18.122 0 32.813-7.818 32.813-17.462v-8.73c0 9.643-14.691 17.461-32.813 17.461z"/></g></symbol><symbol id="v8" viewBox="0 0 132 127"><g fill="currentColor"><circle cx="86.5" cy="45.606" r="45.5" fill="#E2F0FB"/><g clip-path="url(#clip0_4320_16569)"><path d="M12.652 66.084l10.924-20.049 10.923 20.05h7.657l-12.934-23.74h15.466c-1.907-1.762-3.75-3.991-4.913-6.674H23.424a3.362 3.362 0 00-3.293 2.633L4.996 66.084h7.656zM72.847 66.084h7.656l10.924-20.049 10.923 20.05h7.657L94.391 37.423a3.374 3.374 0 00-2.964-1.753c-.03 0-.06.003-.09.004-.022-.001-.042-.004-.063-.004H74.92c-.915 2.121-2.442 4.403-4.907 6.674H85.78l-12.933 23.74zM47.149 76.095c0-1.843-1.508-3.337-3.37-3.337H3.37C1.51 72.758 0 74.252 0 76.095c0 13.43 10.575 24.358 23.574 24.358 13 0 23.575-10.927 23.575-24.358zM111.631 72.758h-40.41c-1.861 0-3.37 1.494-3.37 3.337 0 13.43 10.576 24.358 23.575 24.358 12.998 0 23.574-10.927 23.574-24.358 0-1.843-1.508-3.337-3.369-3.337zM66.049 103.969a12.502 12.502 0 00-17.404 0l-17.961 17.302a3.315 3.315 0 00-.772 3.648 3.37 3.37 0 003.12 2.081h48.629a3.37 3.37 0 003.121-2.081 3.315 3.315 0 00-.772-3.648l-17.962-17.302zM53.977 48.29v45.779a19.382 19.382 0 013.369-.3c1.14 0 2.266.105 3.369.3v-45.78a10.257 10.257 0 01-3.37.575c-1.14 0-2.288-.198-3.368-.575zM50.958 38.859a30.745 30.745 0 004.957 3.015 3.39 3.39 0 002.868 0 30.792 30.792 0 004.956-3.015c3.77-2.84 5.681-5.887 5.681-9.058 0-2.783-1.471-5.47-4.377-8.004.11-.33.173-.683.173-1.05 0-1.844-1.508-3.337-3.37-3.337h-1.128v-.968c0-1.842-1.509-3.336-3.37-3.336-1.86 0-3.369 1.494-3.369 3.336v.968h-1.128c-1.861 0-3.37 1.493-3.37 3.336 0 .368.062.72.174 1.051-2.906 2.535-4.378 5.221-4.378 8.004 0 3.171 1.911 6.219 5.681 9.058z"/></g></g></symbol><symbol id="vk" viewBox="0 0 31 19"><g fill="none"><path fill="currentColor" fill-rule="evenodd" clip-rule="evenodd" d="M30.15 1.555c.213-.702 0-1.219-1.022-1.219h-3.375c-.859 0-1.255.446-1.47.939 0 0-1.716 4.109-4.147 6.778-.787.774-1.145 1.02-1.574 1.02-.215 0-.538-.246-.538-.95V1.556c0-.844-.236-1.219-.951-1.219h-5.307c-.537 0-.86.39-.86.762 0 .799 1.217.984 1.342 3.231v4.884c0 1.07-.197 1.265-.626 1.265-1.145 0-3.928-4.129-5.58-8.852-.32-.92-.645-1.29-1.507-1.29H1.157C.193.336 0 .782 0 1.275c0 .876 1.144 5.232 5.33 10.994 2.79 3.934 6.717 6.067 10.295 6.067 2.146 0 2.411-.473 2.411-1.29v-2.973c0-.948.203-1.137.883-1.137.502 0 1.36.247 3.362 2.143 2.289 2.25 2.666 3.257 3.954 3.257h3.375c.964 0 1.448-.473 1.17-1.41-.306-.93-1.399-2.281-2.848-3.884-.787-.913-1.967-1.897-2.326-2.39-.5-.63-.357-.912 0-1.474 0 0 4.115-5.69 4.543-7.623h.001z"/></g></symbol><symbol id="workout-1"><g fill="none"><path d="M3.57.878A.878.878 0 002.694 0H.878A.878.878 0 000 .878v11.707c0 .485.393.878.878.878h1.815a.878.878 0 00.878-.878V8.78h1.756V4.683H3.57V.878zM29.093 0H27.28a.878.878 0 00-.878.878v3.805h-1.756V8.78H26.4v3.805c0 .485.393.878.878.878h1.814a.878.878 0 00.878-.878V.878A.878.878 0 0029.093 0zM20.911 2.341a1.976 1.976 0 00-1.975 1.976 1.976 1.976 0 10-3.951 0 1.976 1.976 0 10-3.952 0 1.976 1.976 0 10-3.951 0v3.689a4.073 4.073 0 011.756-.396h5.854a2.638 2.638 0 012.634 2.634v.293c0 .188-.011.374-.033.556a1.976 1.976 0 001.643-1.947 1.976 1.976 0 103.95 0V4.317a1.976 1.976 0 00-1.975-1.976z" fill="#42474D"/><path d="M18.937 12.31a3.71 3.71 0 01-1.976.568h-.03a4.102 4.102 0 01-3.701 2.341h-1.171v.268c0 .473-.363.88-.836.902a.878.878 0 01-.92-.877v-1.17c0-.486.393-.879.878-.879h1.463a2.927 2.927 0 002.927-2.926v-.293a.878.878 0 00-.878-.878H8.84a2.342 2.342 0 00-2.342 2.341v3.805a4.396 4.396 0 004.098 4.38v3.23c0 .485.393.878.878.878h7.024a.878.878 0 00.878-.878v-3.308a4.398 4.398 0 003.512-4.302V12.31c-.573.36-1.25.568-1.975.568a3.709 3.709 0 01-1.976-.568z" fill="#42474D"/></g></symbol><symbol id="workout-3"><g fill="none"><path d="M21.918 1.733h-1.045V.867a.866.866 0 10-1.733 0v.866h-5.2V.867a.867.867 0 00-1.734 0v.866h-5.2V.867a.867.867 0 00-1.733 0v.866H4.228A3.293 3.293 0 00.939 5.021v17.69A3.293 3.293 0 004.228 26h17.69a3.293 3.293 0 003.288-3.288V5.022a3.293 3.293 0 00-3.288-3.289zM11.085 17.08l-2.6 2.6a.866.866 0 01-1.226 0l-1.733-1.733a.868.868 0 111.225-1.225l1.122 1.12 1.987-1.987a.867.867 0 011.225 1.225zm0-7.8l-2.6 2.6a.866.866 0 01-1.226 0l-1.733-1.733A.867.867 0 116.75 8.921l1.122 1.12L9.86 8.054a.867.867 0 011.225 1.225zm8.921 9.788H13.94a.867.867 0 110-1.734h6.066a.866.866 0 110 1.734zm0-7.8H13.94a.867.867 0 110-1.734h6.066a.866.866 0 110 1.734z" fill="#42474D"/></g></symbol><symbol id="wp"><g fill="none"><path fill="currentColor" d="M.004 19l1.284-4.72A9.456 9.456 0 010 9.5 9.5 9.5 0 019.5 0 9.5 9.5 0 0119 9.5 9.5 9.5 0 019.5 19a9.456 9.456 0 01-4.778-1.287L.004 19zM6.07 5.043a.913.913 0 00-.352.095 1.228 1.228 0 00-.28.216c-.113.108-.178.2-.247.29a2.593 2.593 0 00-.537 1.595c.002.465.124.919.314 1.342.388.857 1.027 1.764 1.872 2.605.203.203.402.406.616.595a8.975 8.975 0 003.648 1.944l.54.082c.176.01.352-.004.528-.012a1.89 1.89 0 00.792-.22c.124-.064.245-.133.364-.208 0 0 .04-.027.118-.086.129-.095.207-.163.314-.274.079-.081.147-.177.2-.287.073-.154.147-.45.178-.696.023-.188.016-.29.013-.354-.004-.102-.088-.207-.18-.252l-.553-.248s-.827-.36-1.331-.59a.476.476 0 00-.168-.039.458.458 0 00-.36.12v-.001c-.004 0-.068.054-.755.886a.332.332 0 01-.35.124 1.35 1.35 0 01-.18-.063l-.24-.103-.005-.002a5.707 5.707 0 01-1.491-.95c-.12-.105-.231-.219-.345-.33a5.98 5.98 0 01-.97-1.204l-.055-.09a.877.877 0 01-.097-.195.305.305 0 01.058-.251s.23-.253.338-.39c.09-.114.173-.232.25-.354.112-.18.147-.366.088-.51a79.095 79.095 0 00-.824-1.938c-.056-.128-.223-.219-.374-.237a4.217 4.217 0 00-.154-.015 3.215 3.215 0 00-.383.004z"/></g></symbol><symbol id="youtube" viewBox="0 0 31 22"><g fill="none"><path fill="currentColor" d="M15.901.836h.166c1.536.006 9.319.062 11.417.626a3.756 3.756 0 012.644 2.653c.189.71.321 1.65.41 2.62l.02.194.04.486.016.194a60.35 60.35 0 01.138 3.657v.14c-.002.363-.019 2.07-.153 3.85l-.015.195-.017.195c-.093 1.069-.232 2.13-.44 2.91a3.75 3.75 0 01-2.643 2.654c-2.168.583-10.406.624-11.547.626h-.266c-.577 0-2.965-.011-5.469-.097l-.317-.011-.163-.008-.32-.013-.319-.013c-2.074-.091-4.049-.24-4.959-.486a3.75 3.75 0 01-2.644-2.651c-.207-.78-.346-1.842-.439-2.911l-.015-.197-.015-.194a58.667 58.667 0 01-.153-3.804v-.23c.004-.402.019-1.79.12-3.322l.013-.192.005-.098.015-.194.041-.486.019-.194c.09-.97.222-1.912.411-2.62a3.75 3.75 0 012.644-2.653c.91-.243 2.885-.392 4.959-.486l.318-.013.32-.011.162-.006.32-.013C11.981.876 13.76.844 15.54.838h.361V.836zm-3.085 5.998v9.002l7.768-4.499-7.768-4.503z"/></g></symbol></svg>