<svg xmlns="http://www.w3.org/2000/svg" viewBox="0 0 34.44 14.77"><g data-name="Слой 2"><g data-name="Layer 1" fill-rule="evenodd"><path d="M4.14 14.77c-3.14 0-3.34-4.69-.2-4.9h.34a5 5 0 011.35.13A5.45 5.45 0 0113 6.18 5.45 5.45 0 0123.68 6a5.45 5.45 0 016.63 3.56h.19a5.85 5.85 0 012.58.59A2.45 2.45 0 0132 14.77z" fill="#0077b2"/><path d="M2.46 13.08c-3.14 0-3.34-4.69-.2-4.9h.34a5 5 0 011.35.18 5.45 5.45 0 017.37-3.86A5.45 5.45 0 0122 4.28a5.45 5.45 0 016.63 3.56h.19a5.85 5.85 0 012.58.59 2.45 2.45 0 01-1.1 4.65z" fill="#fdfdfd"/></g></g></svg>