<svg xmlns="http://www.w3.org/2000/svg" viewBox="0 0 9.6 9.6"><g data-name="Слой 2"><g data-name="Layer 1"><circle cx="4.8" cy="4.8" r="4.8" fill="#ff9700"/><path d="M4.8 5.06a1.71 1.71 0 10-1.71-1.71A1.71 1.71 0 004.8 5.06zm1.67.81a3 3 0 01-.77.37h-.14l.79.78a.53.53 0 01-.76.73L4.8 7l-.8.8a.53.53 0 11-.73-.75L4 6.28h-.14a3 3 0 01-.77-.37.66.66 0 01-.3-.55.48.48 0 01.27-.44.5.5 0 01.53 0A2 2 0 006 4.93a.5.5 0 01.53 0 .48.48 0 01.27.44.66.66 0 01-.3.55zM4.8 2.43a.92.92 0 11-.92.92.92.92 0 01.92-.92z" fill="#fff" fill-rule="evenodd"/></g></g></svg>