<svg xmlns="http://www.w3.org/2000/svg" viewBox="0 0 7.2 7.2"><defs><style>.cls-2{fill-rule:evenodd;fill:#fff}</style></defs><g id="Слой_2" data-name="Слой 2"><g id="Layer_1" data-name="Layer 1"><path d="M7.2 3.6A3.6 3.6 0 113.6 0a3.6 3.6 0 013.6 3.6zm0 0" fill-rule="evenodd" fill="#9230b1"/><path fill="#fff" class="cls-2" d="M4.08 1.23h-1A1.75 1.75 0 001.37 3v.67a1.76 1.76 0 00.51 1.23v.88a.24.24 0 00.36.22l1-.58h.84a1.75 1.75 0 001.75-1.77V3a1.75 1.75 0 00-1.75-1.77zm1.38 2.45A1.34 1.34 0 014.12 5h-.78l-1.23.75V4.59a1.33 1.33 0 01-.37-.92V3a1.34 1.34 0 011.34-1.38h1A1.34 1.34 0 015.46 3zm0 0"/><path fill="#fff" class="cls-2" d="M3.35 2.31a.06.06 0 010-.09 1 1 0 011.09.23 1 1 0 01.23 1.09.06.06 0 01-.11-.06.84.84 0 00-.2-.94.84.84 0 00-.94-.2.06.06 0 01-.07 0zm0 0"/><path fill="#fff" class="cls-2" d="M3.49 2.59a.06.06 0 010-.09.66.66 0 01.73.16.66.66 0 01.16.73.06.06 0 01-.12-.05.53.53 0 00-.13-.59.53.53 0 00-.59-.13.06.06 0 01-.07 0zm0 0"/><path fill="#fff" class="cls-2" d="M3.63 2.87a.06.06 0 010-.08.37.37 0 01.46.46.06.06 0 11-.12 0 .24.24 0 00-.3-.3.06.06 0 01-.07 0zm-.46-.11l-.44-.44a.13.13 0 00-.18 0 .54.54 0 00-.08.72 8.75 8.75 0 00.67.73 8.76 8.76 0 00.73.67.54.54 0 00.72-.08.13.13 0 000-.18l-.44-.44c-.11-.11-.17-.09-.22 0l-.07.07a.2.2 0 01-.23 0 1.51 1.51 0 01-.25-.2 1.53 1.53 0 01-.2-.25.2.2 0 010-.23L3.22 3s.06-.11 0-.22zm0 0"/></g></g></svg>