<svg xmlns="http://www.w3.org/2000/svg" viewBox="0 0 512 512"><path d="M131.769 80.121c-61.606 0-111.727 50.121-111.727 111.727s50.12 111.727 111.727 111.727c61.606 0 111.727-50.121 111.727-111.727S193.376 80.121 131.769 80.121zm0 208.424c-53.318 0-96.697-43.378-96.697-96.697s43.377-96.697 96.697-96.697c53.319 0 96.697 43.378 96.697 96.697s-43.378 96.697-96.697 96.697z"/><path d="M165.237 175.315a7.516 7.516 0 007.515-7.515v-8.016c0-17.404-14.16-31.564-31.564-31.564h-.501v-16.534a7.516 7.516 0 00-15.03 0v16.708c-17.975 1.768-32.065 16.966-32.065 35.398 0 19.615 15.957 35.572 35.572 35.572h8.016c11.327 0 20.542 9.215 20.542 20.542 0 11.327-9.215 20.542-20.542 20.542h-12.024c-9.117 0-16.534-7.417-16.534-16.534a7.516 7.516 0 00-15.03 0c0 17.404 14.16 31.564 31.564 31.564h.501v16.534a7.516 7.516 0 0015.03 0v-16.708c17.975-1.768 32.065-16.966 32.065-35.398 0-19.615-15.957-35.572-35.572-35.572h-8.016c-11.327 0-20.542-9.215-20.542-20.542 0-11.327 9.215-20.542 20.542-20.542h12.024c9.117 0 16.534 7.417 16.534 16.534v8.016a7.516 7.516 0 007.515 7.515zm86.777 192.392a7.516 7.516 0 007.515-7.515v-48.098a7.516 7.516 0 00-7.515-7.515H43.59a7.516 7.516 0 00-7.515 7.515v40.583h-8.517a7.516 7.516 0 00-7.515 7.515v48.098a7.516 7.516 0 007.515 7.515h8.517v33.067h-8.517a7.516 7.516 0 00-7.515 7.515v48.098A7.516 7.516 0 0027.558 512h208.424a7.516 7.516 0 007.515-7.515v-40.583h8.517a7.516 7.516 0 007.515-7.515v-48.098a7.516 7.516 0 00-7.515-7.515h-8.517v-33.067h8.517zM35.072 400.774v-33.067h193.394v33.067H35.072zm193.394 96.196H35.072v-33.067h193.394v33.067zm16.033-81.165v33.067H51.105v-33.067h193.394zM51.105 352.676v-33.067h193.394v33.067H51.105zm439.183-213.703L378.059 2.696c-2.96-3.594-8.643-3.594-11.603 0L254.228 138.973c-3.961 4.81-.417 12.293 5.802 12.293h48.599V384.24a7.516 7.516 0 007.515 7.515h112.228a7.516 7.516 0 007.515-7.515v-31.564a7.516 7.516 0 00-15.03 0v24.049H323.66V143.751a7.516 7.516 0 00-7.515-7.515h-40.189l96.303-116.94 96.303 116.94h-40.189a7.516 7.516 0 00-7.515 7.515v173.353a7.516 7.516 0 0015.03 0V151.266h48.599c6.217 0 9.763-7.482 5.801-12.293zm-61.915 277.834H316.144a7.516 7.516 0 000 15.03h112.228a7.516 7.516 0 00.001-15.03zm0 40.081H316.144a7.516 7.516 0 000 15.03h112.228a7.516 7.516 0 00.001-15.03zm0 40.082H316.144a7.516 7.516 0 000 15.03h112.228a7.516 7.516 0 00.001-15.03z"/></svg>