<svg width="24" height="24" fill="none" xmlns="http://www.w3.org/2000/svg"><path d="M8.944 11.297H3.353A2.356 2.356 0 011 8.944V3.353A2.356 2.356 0 013.353 1h5.591a2.356 2.356 0 012.353 2.353v5.591a2.356 2.356 0 01-2.353 2.353zM3.353 1.93c-.786 0-1.424.638-1.424 1.424v5.591c0 .787.638 1.424 1.424 1.424h5.591c.787 0 1.424-.637 1.424-1.424V3.353c0-.786-.637-1.424-1.424-1.424H3.353zM8.944 23H3.353A2.356 2.356 0 011 20.647v-5.591a2.356 2.356 0 012.353-2.353h5.591a2.356 2.356 0 012.353 2.353v5.591A2.356 2.356 0 018.944 23zm-5.591-9.368c-.786 0-1.424.637-1.424 1.424v5.591c0 .786.638 1.424 1.424 1.424h5.591c.787 0 1.424-.638 1.424-1.424v-5.591c0-.787-.637-1.424-1.424-1.424H3.353zM20.647 23h-5.591a2.356 2.356 0 01-2.353-2.353v-5.591a2.356 2.356 0 012.353-2.353h5.591A2.356 2.356 0 0123 15.056v5.591A2.356 2.356 0 0120.647 23zm-5.591-9.368c-.787 0-1.424.637-1.424 1.424v5.591c0 .786.637 1.424 1.424 1.424h5.591c.786 0 1.424-.638 1.424-1.424v-5.591c0-.787-.638-1.424-1.424-1.424h-5.591zM20.647 1h-5.591a2.356 2.356 0 00-2.353 2.353v5.591a2.356 2.356 0 002.353 2.353h5.591A2.356 2.356 0 0023 8.944V3.353A2.356 2.356 0 0020.647 1zm.483 3.625L17.356 8.4a.467.467 0 01-.656 0l-2.044-2.043a.462.462 0 010-.656.462.462 0 01.657 0l1.715 1.715 3.446-3.446a.462.462 0 01.656 0 .461.461 0 010 .656z" fill="#42474D"/></svg>