<svg width="19" height="24" fill="none" xmlns="http://www.w3.org/2000/svg"><path d="M16.087 9.765h-.658l-.004-3.283A6.492 6.492 0 008.936 0a6.492 6.492 0 00-6.482 6.489L2.46 9.77h-.233A2.23 2.23 0 000 12l.002 9.774C.002 23.004 1 24 2.23 24l13.861-.007c1.23 0 2.227-.998 2.226-2.228l-.002-9.774c0-1.23-.998-2.227-2.228-2.226zm-6.319 7.502l.001 2.768H8.76l-.001-2.768a1.453 1.453 0 01.503-2.818 1.453 1.453 0 01.506 2.817zm3.271-7.5l-8.19.003-.004-3.283A4.1 4.1 0 018.938 2.39a4.1 4.1 0 014.097 4.093l.004 3.283z" fill="#42474D"/></svg>