<svg width="19" height="18" fill="none" xmlns="http://www.w3.org/2000/svg"><path d="M5.02 14a.968.968 0 00.713-.288A.967.967 0 006.02 13a.97.97 0 00-.287-.713A.97.97 0 005.02 12a.97.97 0 00-.713.287.97.97 0 00-.287.713c0 .283.095.52.287.712.192.192.43.288.713.288zm0-4a.968.968 0 00.713-.288A.967.967 0 006.02 9a.97.97 0 00-.287-.713A.97.97 0 005.02 8a.97.97 0 00-.713.287A.97.97 0 004.02 9c0 .283.095.52.287.712.192.192.43.288.713.288zm0-4a.968.968 0 00.713-.288A.967.967 0 006.02 5a.97.97 0 00-.287-.713A.97.97 0 005.02 4a.97.97 0 00-.713.287A.97.97 0 004.02 5c0 .283.095.52.287.712.192.192.43.288.713.288zm3 8h6v-2h-6v2zm0-4h6V8h-6v2zm0-4h6V4h-6v2zm-6 12a1.93 1.93 0 01-1.413-.587A1.928 1.928 0 01.02 16V2C.02 1.45.215.979.607.587A1.928 1.928 0 012.02 0h14c.55 0 1.02.196 1.413.587.39.392.587.863.587 1.413v14a1.93 1.93 0 01-.587 1.413A1.928 1.928 0 0116.02 18h-14z" fill="#42474D"/></svg>