<svg width="13" height="13" fill="none" xmlns="http://www.w3.org/2000/svg"><path d="M6.5 6.5a3.13 3.13 0 01-2.295-.955A3.13 3.13 0 013.25 3.25c0-.894.318-1.659.955-2.295A3.13 3.13 0 016.5 0a3.13 3.13 0 012.295.955A3.13 3.13 0 019.75 3.25a3.13 3.13 0 01-.955 2.295A3.13 3.13 0 016.5 6.5zm4.875 6.5h-9.75c-.447 0-.83-.159-1.147-.477A1.565 1.565 0 010 11.375v-.65c0-.46.119-.884.356-1.27s.551-.68.944-.883c.84-.42 1.693-.735 2.56-.945.866-.21 1.746-.314 2.64-.314.894 0 1.774.104 2.64.314.867.21 1.72.525 2.56.945.393.203.707.497.944.883s.356.81.356 1.27v.65c0 .447-.159.83-.477 1.148a1.567 1.567 0 01-1.148.477zm-9.75-1.625h9.75v-.65a.766.766 0 00-.111-.406.794.794 0 00-.295-.285 10.65 10.65 0 00-2.214-.823 9.439 9.439 0 00-4.51 0 10.67 10.67 0 00-2.214.823.787.787 0 00-.406.691v.65zm4.875-6.5c.447 0 .83-.16 1.148-.478.318-.318.477-.7.477-1.147 0-.447-.159-.83-.477-1.147A1.565 1.565 0 006.5 1.625c-.447 0-.83.16-1.147.478a1.56 1.56 0 00-.478 1.147c0 .447.16.83.478 1.147.318.319.7.478 1.147.478z" fill="#42474C"/></svg>