<svg viewBox="0 0 33 28" fill="none" xmlns="http://www.w3.org/2000/svg"><path fill-rule="evenodd" clip-rule="evenodd" d="M28.68 9.02l-.3-.3-2.73 2.89.22.22a.86.86 0 001.19 0l1.62-1.58a.841.841 0 000-1.19v-.04zm-.54-.57l-.49-.49-2.75 2.89.48.49 2.76-2.89zm-.76-.73l-3.41-3.47a.82.82 0 00-.6-.25h-3.4a.89.89 0 00-.54.19l-2.46 2.06-2.52-2a.77.77 0 00-.51-.19h-3.4a.71.71 0 00-.57.19L6.43 7.79l2.75 2.89 1-1v11.47h13.55V9.69l.9.92 2.75-2.89zm-21.21.35l-.49.49 2.76 2.89.48-.49-2.75-2.89zm-.73.76l-.19.19a.81.81 0 00-.25.59.83.83 0 00.25.6l1.62 1.62a.86.86 0 001.19 0l.13-.11-2.75-2.89zm4.78 13.16v.49a.811.811 0 00.81.83H22.9a.83.83 0 00.83-.83v-.49H10.22z" fill="#42474D"/></svg>