<svg width="57" height="22" fill="none" xmlns="http://www.w3.org/2000/svg"><path d="M32.087 22L44.543 0l3.115 5.5-3.114 5.5h6.228L57 22H32.087zM22.792 7.174v-1.71h9.345v1.71h-3.774v9.29h-1.797v-9.29h-3.774z" fill="#4F4F4F" fill-opacity=".81"/><path fill-rule="evenodd" clip-rule="evenodd" d="M19.622 11.643l2.766 4.821h-2.022l-2.669-4.66H15.3v4.66h-1.796V5.479h5.142c1.736 0 3.157 1.273 3.157 3.182 0 1.418-.767 2.514-2.18 2.982zM18.434 7.18H15.3v2.96h3.135c.79 0 1.601-.56 1.601-1.48 0-.866-.744-1.48-1.6-1.48zM9.57 14.766l.967 1.71h1.92l-6.229-11-6.228 11h1.919l.968-1.71H9.57zm-.964-1.701l-2.378-4.2-2.378 4.2h4.756z" fill="#4F4F4F" fill-opacity=".81"/></svg>