<svg version="1.1" id="Слой_1" xmlns="http://www.w3.org/2000/svg" x="0" y="0" viewBox="0 0 80.75 80" xml:space="preserve"><style>.st0{fill:#1995c9}</style><path class="st0" d="M12.694 61.585a4.852 4.852 0 0 0-4.847 4.847c0 2.673 2.174 4.847 4.847 4.847s4.847-2.174 4.847-4.847a4.852 4.852 0 0 0-4.847-4.847zm0 7.27a2.426 2.426 0 0 1-2.423-2.423c0-1.337 1.087-2.423 2.423-2.423s2.423 1.087 2.423 2.423a2.426 2.426 0 0 1-2.423 2.423z"/><path class="st0" d="M69.643 56.822V36.139h-4.847V9.482H16.329v26.657h-2.423V7.058A6.067 6.067 0 0 0 7.847 1H3v2.423h4.847a3.64 3.64 0 0 1 3.635 3.635v49.763C6.708 57.421 3 61.497 3 66.431c0 5.345 4.349 9.694 9.694 9.694 4.059 0 7.538-2.511 8.98-6.058h37.778c1.442 3.548 4.921 6.058 8.98 6.058 5.345 0 9.694-4.349 9.694-9.694-.001-4.934-3.709-9.01-8.483-9.609zM36.927 11.905h7.27v9.694h-7.27v-9.694zm-18.175 0h15.752v12.117h12.117V11.905h15.752v24.234H18.752V11.905zm18.175 26.658h7.27v14.54h-7.27v-14.54zm-2.423 0v16.964h12.117V38.563H67.22v18.259a9.595 9.595 0 0 0-3.47 1.128h-1.376v.927a9.722 9.722 0 0 0-2.921 3.92h-37.78a9.714 9.714 0 0 0-7.768-5.975V38.563h20.599zm-21.81 35.139c-4.009 0-7.27-3.261-7.27-7.27s3.261-7.27 7.27-7.27 7.27 3.261 7.27 7.27-3.261 7.27-7.27 7.27zm9.609-6.059c.05-.397.084-.801.084-1.212s-.034-.814-.084-1.212h36.519c-.051.397-.085.801-.085 1.212s.034.814.084 1.212H22.303zm46.128 6.059c-4.009 0-7.27-3.261-7.27-7.27s3.261-7.27 7.27-7.27 7.27 3.261 7.27 7.27-3.26 7.27-7.27 7.27z"/><path class="st0" d="M68.431 61.585a4.852 4.852 0 0 0-4.847 4.847c0 2.673 2.174 4.847 4.847 4.847s4.847-2.174 4.847-4.847a4.851 4.851 0 0 0-4.847-4.847zm0 7.27a2.425 2.425 0 0 1-2.423-2.423 2.425 2.425 0 0 1 2.423-2.423 2.426 2.426 0 0 1 2.423 2.423 2.425 2.425 0 0 1-2.423 2.423zM57.526 31.292h2.423v2.423h-2.423zm-4.847 0h2.423v2.423h-2.423zm4.847-4.846h2.423v2.423h-2.423zm0 31.504h2.423v2.423h-2.423zm4.847-4.847h2.423v2.423h-2.423z"/></svg>