<svg width="66" height="95" fill="none" xmlns="http://www.w3.org/2000/svg"><path fill-rule="evenodd" clip-rule="evenodd" d="M6.368 62.94a11.013 11.013 0 0 0-3.225 7.775v23.571H0V70.715a14.16 14.16 0 0 1 14.143-14.143h9.428V49.17a17.736 17.736 0 0 1-8.38-14.537L15.138 33h-.995a6.286 6.286 0 1 1 0-12.571h.584a18.27 18.27 0 0 1 1.415-7.573 7.849 7.849 0 0 1-3.57-6.57V1.572a1.573 1.573 0 0 1 1.885-1.54l7.7 1.54h18.7a11.012 11.012 0 0 1 11 11v7.857a6.286 6.286 0 1 1 0 12.571h-.995l-.053 1.633a17.737 17.737 0 0 1-8.38 14.537v7.402h9.428A14.16 14.16 0 0 1 66 70.715v23.571h-3.143V70.715a11.013 11.013 0 0 0-11-11h-2.172l3.579 7.162a1.572 1.572 0 0 1-.704 2.109l-5.213 2.602 1.336 6.68a1.572 1.572 0 0 1-.43 1.415l-2.031 2.032h5.635v-6.286H55v18.857h-3.143v-9.428H43.08l-8.965 8.968a.174.174 0 0 1-.043.029.159.159 0 0 0-.035.022 1.58 1.58 0 0 1-.169.139.61.61 0 0 1-.047.04c-.05.026-.103.048-.157.067a1.111 1.111 0 0 0-.042.021.613.613 0 0 1-.073.035l-.09.033a1.581 1.581 0 0 1-.458.074 1.58 1.58 0 0 1-.456-.085l-.09-.033a.682.682 0 0 1-.072-.035 1.111 1.111 0 0 0-.042-.021 1.334 1.334 0 0 1-.157-.066.592.592 0 0 1-.047-.041 1.58 1.58 0 0 1-.168-.138.191.191 0 0 0-.036-.023.174.174 0 0 1-.043-.03L17.746 79.673a1.572 1.572 0 0 1-.429-1.415l1.336-6.673-5.213-2.606a1.573 1.573 0 0 1-.704-2.109l3.579-7.154h-2.172a11.012 11.012 0 0 0-7.775 3.225zm23.406 1.693l-2.46-4.918H24.15l3.955 12.43 1.669-7.512zm8.121 7.512l3.955-12.43h-3.165l-2.459 4.918 1.669 7.512zM36.003 78.1L33.314 66h-.628L30 78.1l3 9.429 3.003-9.429zm-3.606-15.242h1.2l1.572-3.143h-4.344l1.572 3.142zm17.348 4.011l-3.576-7.154h-1.02l-8.692 27.322 8.98-8.976-1.406-7.032a1.572 1.572 0 0 1 .835-1.72l4.88-2.44zm4.335-37.932a3.143 3.143 0 0 0-2.223-5.365h-.68l-.21 6.286h.89c.834 0 1.633-.332 2.223-.921zM21.686 4.683L15.714 3.49v2.797a4.714 4.714 0 0 0 3.006 4.386h.02c.272.104.55.185.835.242.281.055.567.084.854.086H44a1.571 1.571 0 0 1 1.571 1.572c0 .471.02.913.055 1.309.007.079.017.15.028.222l.02.15.007.06c.029.237.057.473.1.687.018.093.041.178.065.264l.032.12c.045.197.094.393.157.573.033.094.07.181.108.269l.02.047.02.045c.063.157.14.314.22.471.051.095.11.188.167.28l.032.052c.09.143.181.286.283.423a9 9 0 0 0 .6.713c.096.11.197.212.3.314.136.136.279.27.428.407.112.106.225.21.344.315l.157.133v-6.854a7.866 7.866 0 0 0-7.857-7.857H22a1.454 1.454 0 0 1-.314-.032zm-.87 10.548l.434-1.088h-.821c-.472 0-.942-.044-1.405-.132-.187.46-.355.932-.502 1.404a9.049 9.049 0 0 0-.086.313 18.589 18.589 0 0 0-.278 1.148 15.355 15.355 0 0 0-.243 1.695c-.01.101-.021.203-.027.308v.194a9.115 9.115 0 0 0 2.927-3.842zM11.92 28.937c.589.59 1.388.92 2.222.92h.89l-.21-6.285h-.68a3.143 3.143 0 0 0-2.223 5.365zm6.018-6.195l.395 11.786v.003a14.674 14.674 0 0 0 29.332 0l.393-11.726-.198-.079a1.57 1.57 0 0 1-.426-.254c-2.788-2.338-4.595-4.16-4.944-8.329H24.635L23.73 16.4a12.324 12.324 0 0 1-5.79 6.342zm21.347 27.97a17.817 17.817 0 0 1-12.572 0v5.86h12.572v-5.86zm-9.743 36.325L20.85 59.715h-1.023l-3.576 7.16 4.879 2.44a1.572 1.572 0 0 1 .838 1.714l-1.408 7.026 8.982 8.982zM11 94.286V75.429h3.143v18.857H11zm23.572-59.714v-3.143h-2.535l2.454-7.36-2.985-.994-3.143 9.429a1.57 1.57 0 0 0 1.494 2.068h4.715zm.633 2.45a9.097 9.097 0 0 0 2.97-1.99l2.222 2.222a12.216 12.216 0 0 1-8.7 3.603h-1.84v-3.143h1.84a9.097 9.097 0 0 0 3.508-.692zM23.57 29.857a3.143 3.143 0 1 0 0-6.286 3.143 3.143 0 0 0 0 6.286zm22-3.143a3.143 3.143 0 1 1-6.285 0 3.143 3.143 0 0 1 6.285 0z" fill="#1995C9"/></svg>