<svg version="1.1" id="Слой_1" xmlns="http://www.w3.org/2000/svg" x="0" y="0" viewBox="0 0 72 80" xml:space="preserve"><style>.st0{fill:#1995c9}</style><path class="st0" d="M8.234 78.063h54.313c.682 0 1.234-.553 1.234-1.234V5.234c0-.681-.552-1.234-1.234-1.234H8.234C7.553 4 7 4.553 7 5.234v71.594c0 .682.553 1.235 1.234 1.235zM9.469 6.469h51.844v69.125H9.469V6.469z"/><path class="st0" d="M48.969 43.5c-5.449-.005-9.87 4.408-9.876 9.857a9.863 9.863 0 0 0 3.704 7.714V71.89a1.234 1.234 0 0 0 1.975.987l4.197-3.148 4.197 3.148a1.234 1.234 0 0 0 1.975-.988V61.071c4.255-3.404 4.946-9.612 1.542-13.868a9.865 9.865 0 0 0-7.714-3.703zm3.703 25.922L49.709 67.2a1.235 1.235 0 0 0-1.481 0l-2.962 2.222v-6.899a9.797 9.797 0 0 0 7.406 0v6.899zm-3.703-8.641a7.406 7.406 0 1 1 7.406-7.406 7.413 7.413 0 0 1-7.406 7.406zM26.75 11.406h17.281v2.469H26.75zm3.703 4.938h9.875v2.469h-9.875zm-16.047 6.172H55.14v2.469H14.406zm0 4.937H55.14v2.469H14.406zm0 4.938H55.14v2.469H14.406zm0 4.937H55.14v2.469H14.406zm0 4.938H35.39v2.469H14.406zm1.235 14.812h7.406v2.469h-7.406zm0 4.938h7.406v2.469h-7.406zm0 4.937h7.406v2.469h-7.406z"/></svg>