<svg width="88" height="161" fill="none" xmlns="http://www.w3.org/2000/svg"><path fill-rule="evenodd" clip-rule="evenodd" d="M55.778.166v.43h-1.746v1.842l1.616.744h1.002v.431h-.068l15.24 7.02-.553 1.17-17.784-8.19h-5.561l-.001 12.328 6.157 11.934-1.167.587-4.99-9.674v1.289h-.436v-1.724h.212l-.934-1.81h-1.896v.862h-.436V3.613H4.291v28.445h13.09v6.034h13.962v-7.758h13.09V28.61h3.49v9.481h11.345v.432h-1.745v2.585h1.745v.431H4.291v87.92h12.384l-.026-.067 13.85-5.252.469 1.207-10.846 4.112h1.622v.431h-1.745l-.001-.383-.873.33v.053h-.139l-.733.278v2.307l.873.001v.431H3.418v25.859h81.157v-25.859H63.631v-1.121h-.698v-.345h-20.42v.345h-.698v1.121h-9.6v-.002l-1.742.001v-.431h1.742v-2.585H30.47v-.431h11.345v1.121h.698v.43h20.42v-.43h.699v-1.121h20.07v-87.92h-13.09v-.2l-10.73 5.636-.614-1.142 8.726-4.584v-.14l.27-.001 2.348-1.233v-1.783h13.09V14.819h-8.726V3.613h-4.363v-.43h1.745V.165h6.109V11.37h8.726v121.536h-.872v27.583H1.673v-27.583H.8V.166h54.978zm-4.735 144.01c.113 0 .219.006.317.017.097.011.184.029.259.054v.643h-.03a1.152 1.152 0 00-.267-.092 1.578 1.578 0 00-.371-.042c-.423 0-.764.14-1.025.422-.26.282-.414.7-.462 1.254.162-.112.328-.198.498-.259.17-.061.357-.091.56-.091.197 0 .37.02.519.059.149.039.304.119.465.237.187.14.325.316.416.529.091.213.137.464.137.751 0 .258-.044.496-.13.714a1.6 1.6 0 01-.859.897c-.189.08-.397.12-.624.12-.23 0-.438-.039-.625-.115a1.416 1.416 0 01-.496-.34 1.866 1.866 0 01-.411-.729c-.099-.304-.148-.678-.148-1.123 0-.435.045-.829.136-1.18.09-.351.23-.657.42-.917a1.88 1.88 0 01.712-.595 2.27 2.27 0 011.009-.214zm-3.811 0c.113 0 .219.006.317.017.097.011.184.029.259.054v.643h-.03a1.154 1.154 0 00-.267-.092 1.579 1.579 0 00-.371-.042c-.423 0-.764.14-1.025.422-.26.282-.414.7-.462 1.254a2.13 2.13 0 01.498-.259c.17-.061.357-.091.56-.091.197 0 .37.02.519.059.149.039.304.119.465.237.187.14.325.316.416.529.091.213.137.464.137.751 0 .258-.044.496-.13.714a1.596 1.596 0 01-.86.897c-.188.08-.396.12-.623.12-.23 0-.438-.039-.625-.115a1.416 1.416 0 01-.496-.34 1.866 1.866 0 01-.411-.729c-.099-.304-.148-.678-.148-1.123 0-.435.045-.829.136-1.18.09-.351.23-.657.42-.917a1.88 1.88 0 01.712-.595 2.27 2.27 0 011.009-.214zm-5.458.095v2.751h.603v.538h-.603v1.724h-.654v-1.724h-2.243v-.707l2.27-2.582h.627zm2.24 4.054v.959h-.815v-.959h.815zm2.546-1.691c-.159 0-.314.024-.464.071a1.99 1.99 0 00-.443.205 3.457 3.457 0 00-.013.317c0 .348.034.628.104.842.069.213.155.375.257.485a.883.883 0 00.302.222.885.885 0 00.336.064.84.84 0 00.662-.29c.17-.193.255-.481.255-.865 0-.207-.028-.379-.082-.519a.856.856 0 00-.266-.357.689.689 0 00-.302-.141 1.799 1.799 0 00-.346-.034zm3.811 0c-.159 0-.313.024-.463.071a2.01 2.01 0 00-.444.205 3.632 3.632 0 00-.013.317c0 .348.034.628.104.842a1.3 1.3 0 00.257.485.884.884 0 00.302.222.884.884 0 00.336.064.84.84 0 00.663-.29c.169-.193.254-.481.254-.865 0-.207-.028-.379-.082-.519a.854.854 0 00-.266-.357.688.688 0 00-.302-.141 1.8 1.8 0 00-.346-.034zm-9.251-1.572l-1.712 1.96h1.712v-1.96zm-14.14-12.586v.431h-1.745v-.431h1.745zm-5.236 0v.431h-1.745v-.431h1.745zm7.854 0v.431h-1.745v-.431h1.745zm-5.236 0v.431h-1.745v-.431h1.745zm0-3.017v.431h-1.745v-.431h1.745zm2.618 0v.431h-1.745v-.431h1.745zm2.618 0v.431h-1.745v-.431h1.745zm32.864-10.3c.462 0 .831.12 1.11.359.278.239.417.545.417.918 0 .224-.066.446-.199.666-.133.22-.324.392-.574.515v.021c.295.137.519.303.671.498.152.195.228.447.228.754 0 .429-.157.788-.472 1.078-.314.289-.708.434-1.18.434-.253 0-.483-.037-.69-.111a1.472 1.472 0 01-.528-.32 1.327 1.327 0 01-.325-.48 1.569 1.569 0 01-.111-.587c0-.272.073-.522.22-.75a1.52 1.52 0 01.639-.543v-.021c-.25-.143-.435-.3-.556-.471a1.083 1.083 0 01-.18-.64c0-.377.144-.691.433-.942.288-.252.654-.378 1.097-.378zm5.925.014c.559 0 .969.217 1.23.65.262.433.392 1.085.392 1.956 0 .9-.132 1.561-.397 1.982-.264.42-.673.631-1.225.631-.56 0-.97-.215-1.23-.643-.262-.429-.393-1.083-.393-1.963 0-.905.133-1.566.397-1.985.265-.419.674-.628 1.226-.628zm3.81 0c.56 0 .97.217 1.231.65.262.433.392 1.085.392 1.956 0 .9-.132 1.561-.397 1.982-.264.42-.673.631-1.225.631-.56 0-.97-.215-1.23-.643-.262-.429-.393-1.083-.393-1.963 0-.905.133-1.566.397-1.985.265-.419.674-.628 1.226-.628zm-6.367 4.155v.959h-.814v-.959h.814zm-6.74-4.071v4.519h.9v.511h-2.474v-.511h.92v-3.361h-.92v-.458c.348 0 .604-.048.769-.146.165-.098.257-.282.278-.554h.528zm2.987 2.522a1.291 1.291 0 00-.433.456c-.1.181-.15.387-.15.618 0 .303.093.553.278.751a.917.917 0 00.697.296c.286 0 .516-.085.689-.254.172-.169.259-.4.259-.692 0-.206-.041-.37-.123-.491-.082-.122-.24-.245-.474-.371a2.448 2.448 0 00-.308-.138 16.54 16.54 0 01-.435-.175zm6.31-2.051a.774.774 0 00-.466.133.883.883 0 00-.288.396 2.378 2.378 0 00-.14.647c-.024.26-.037.554-.037.882 0 .35.011.643.033.879.021.235.068.446.141.633.066.172.16.305.281.399.122.093.28.139.476.139a.767.767 0 00.465-.133.853.853 0 00.285-.395c.066-.166.112-.376.14-.63a8.54 8.54 0 00.04-.899 8.52 8.52 0 00-.04-.896 2.397 2.397 0 00-.144-.633.878.878 0 00-.28-.389.765.765 0 00-.466-.133zm3.81 0a.774.774 0 00-.464.133.884.884 0 00-.288.396 2.378 2.378 0 00-.14.647c-.025.26-.038.554-.038.882 0 .35.011.643.033.879.021.235.068.446.141.633.066.172.16.305.281.399.122.093.28.139.476.139a.767.767 0 00.465-.133.854.854 0 00.285-.395c.066-.166.112-.376.14-.63.027-.254.04-.553.04-.899 0-.343-.013-.642-.04-.896a2.397 2.397 0 00-.144-.633.878.878 0 00-.28-.389.765.765 0 00-.466-.133zm-9.738-.074a.908.908 0 00-.609.202.681.681 0 00-.236.546c0 .166.04.306.12.421.081.114.202.218.363.31.071.038.178.09.323.158.144.067.275.12.393.158.198-.15.332-.305.403-.463a1.33 1.33 0 00.105-.544.758.758 0 00-.228-.562c-.152-.15-.364-.226-.634-.226zm2.045-78.546v.431H62.76v-.43h1.745zm-2.618 0v.431h-1.745v-.43h1.745zm5.236 0v.431h-1.745v-.43h1.745zm-5.236-3.016v.43h-1.745v-.43h1.745zm7.854 0v.43h-1.745v-.43h1.745zm-2.618 0v.43h-1.745v-.43h1.745zm-2.618 0v.43H62.76v-.43h1.745zm-48.869-4.31H4.291v4.31h11.344v-4.31zm28.798-1.724H33.088v6.034h11.344l.001-6.034zm3.49-5.948v1.724h-.436V26.11h.437zm-3.054-.086v1.724h-.436v-1.724h.436zm24.837-4.306c.56 0 .97.216 1.23.65.262.433.393 1.085.393 1.956 0 .9-.133 1.56-.397 1.981-.265.421-.674.632-1.226.632-.559 0-.97-.215-1.23-.643-.262-.43-.393-1.083-.393-1.963 0-.905.133-1.567.398-1.985.264-.419.673-.628 1.225-.628zm-3.811 0c.559 0 .97.216 1.23.65.262.433.393 1.085.393 1.956 0 .9-.133 1.56-.398 1.981-.264.421-.673.632-1.225.632-.56 0-.97-.215-1.23-.643-.262-.43-.393-1.083-.393-1.963 0-.905.133-1.567.397-1.985.265-.419.674-.628 1.226-.628zm-6.034-.003c.23 0 .43.023.602.069.172.046.327.117.465.213.15.108.263.238.34.39.076.154.114.332.114.536 0 .276-.092.519-.276.728a1.21 1.21 0 01-.662.397v.047c.107.02.221.055.343.104a1.089 1.089 0 01.595.59c.066.153.099.337.099.555a1.567 1.567 0 01-.45 1.128 1.439 1.439 0 01-.536.347 2.025 2.025 0 01-.712.118 3.2 3.2 0 01-.757-.091 3 3 0 01-.63-.219v-.71h.047c.143.103.336.201.576.296.241.094.482.141.723.141.139 0 .278-.022.418-.065a.8.8 0 00.349-.214c.09-.099.16-.208.208-.327a1.22 1.22 0 00.072-.451 1.08 1.08 0 00-.08-.448.67.67 0 00-.224-.276.875.875 0 00-.339-.14 2.192 2.192 0 00-.424-.038h-.29v-.56h.225c.307 0 .556-.071.748-.215.192-.143.288-.352.288-.626a.628.628 0 00-.266-.542.812.812 0 00-.286-.121 1.593 1.593 0 00-.702.01 2.617 2.617 0 00-.362.114 1.924 1.924 0 00-.284.142 6.18 6.18 0 00-.217.138h-.04v-.71c.147-.08.348-.15.601-.215.253-.063.495-.095.724-.095zm3.477 4.158v.96h-.814v-.96h.814zm6.368-3.6a.77.77 0 00-.465.133.88.88 0 00-.288.396 2.34 2.34 0 00-.14.646 9.31 9.31 0 00-.038.883c0 .35.011.643.033.878.021.236.068.447.141.633a.89.89 0 00.282.4.76.76 0 00.475.14.77.77 0 00.465-.134.86.86 0 00.285-.396c.066-.166.112-.375.14-.63.027-.253.04-.552.04-.898a8.5 8.5 0 00-.04-.896 2.384 2.384 0 00-.143-.633.873.873 0 00-.282-.389.76.76 0 00-.465-.133zm-3.811 0a.77.77 0 00-.465.133.88.88 0 00-.288.396 2.34 2.34 0 00-.14.646 9.31 9.31 0 00-.038.883c0 .35.011.643.033.878.021.236.069.447.141.633.066.173.16.306.281.4a.76.76 0 00.476.14.77.77 0 00.465-.134.86.86 0 00.285-.396c.066-.166.112-.375.14-.63.027-.253.04-.552.04-.898 0-.344-.013-.642-.04-.896a2.384 2.384 0 00-.144-.633.873.873 0 00-.28-.389.76.76 0 00-.466-.133zm-17.971 1.252v1.724h-.437v-1.724h.437zm-3.055-.087v1.724h-.436v-1.724h.436zm-8.45-4.252c.559 0 .97.216 1.23.65.262.433.392 1.085.392 1.956 0 .9-.132 1.56-.397 1.981-.264.421-.673.632-1.225.632-.56 0-.97-.215-1.23-.643-.262-.43-.393-1.083-.393-1.963 0-.905.133-1.567.397-1.985.265-.419.674-.628 1.226-.628zm-3.811 0c.559 0 .969.216 1.23.65.262.433.392 1.085.392 1.956 0 .9-.132 1.56-.397 1.981-.264.421-.673.632-1.225.632-.56 0-.97-.215-1.23-.643-.262-.43-.393-1.083-.393-1.963 0-.905.133-1.567.397-1.985.265-.419.674-.628 1.226-.628zm-6.034-.003c.23 0 .43.023.602.069.171.046.327.117.465.213.15.108.263.238.34.39.075.154.113.332.113.536 0 .276-.091.519-.276.728a1.21 1.21 0 01-.66.397v.047c.106.02.22.055.342.104a1.088 1.088 0 01.595.59c.065.153.098.337.098.555a1.566 1.566 0 01-.45 1.128 1.437 1.437 0 01-.535.347 2.025 2.025 0 01-.712.118 3.18 3.18 0 01-.757-.091c-.25-.06-.46-.134-.63-.219v-.71h.047c.143.103.335.201.576.296.241.094.482.141.723.141.139 0 .278-.022.417-.065a.799.799 0 00.35-.214c.09-.099.16-.208.208-.327a1.24 1.24 0 00.071-.451 1.08 1.08 0 00-.08-.448.67.67 0 00-.223-.276.875.875 0 00-.34-.14 2.192 2.192 0 00-.424-.038h-.29v-.56h.226c.306 0 .556-.071.748-.215.192-.143.288-.352.288-.626a.628.628 0 00-.266-.542.812.812 0 00-.286-.121 1.592 1.592 0 00-.703.01 2.55 2.55 0 00-.36.114 2.022 2.022 0 00-.285.142 5.417 5.417 0 00-.217.138h-.04v-.71c.147-.08.347-.15.6-.215.254-.063.496-.095.725-.095zm3.477 4.158v.96h-.814v-.96h.814zm6.368-3.6a.77.77 0 00-.465.133.88.88 0 00-.288.396 2.34 2.34 0 00-.14.646 9.31 9.31 0 00-.038.883c0 .35.011.643.033.878.021.236.068.447.141.633.066.173.16.306.281.4a.76.76 0 00.476.14.77.77 0 00.465-.134.86.86 0 00.285-.396c.066-.166.112-.375.14-.63.027-.253.04-.552.04-.898 0-.344-.013-.642-.04-.896a2.384 2.384 0 00-.144-.633.873.873 0 00-.28-.389.76.76 0 00-.466-.133zm-3.811 0a.77.77 0 00-.465.133.88.88 0 00-.289.396 2.38 2.38 0 00-.14.646 9.31 9.31 0 00-.037.883c0 .35.011.643.033.878.021.236.068.447.141.633.066.173.16.306.281.4a.76.76 0 00.476.14.77.77 0 00.465-.134.858.858 0 00.285-.396c.066-.166.112-.375.14-.63.027-.253.04-.552.04-.898a8.5 8.5 0 00-.04-.896 2.384 2.384 0 00-.144-.633.873.873 0 00-.28-.389.76.76 0 00-.466-.133zm15.316 1.198v1.724h-.437v-1.724h.437zm-3.055-.087v1.724h-.436v-1.724h.436zm0-2.585v1.724h-.436v-1.724h.436zm14.4-15.085v.431h-1.746v-.43h1.745zm2.617 0v.431h-1.745v-.43h1.745zm2.618 0v.431H62.76v-.43h1.745zm2.618 0v.431h-1.745v-.43h1.745zm2.618 0v.431h-1.745v-.43h1.745zM58.396.166v.43H56.65v-.43h1.745zm2.617 0v.43h-1.745v-.43h1.745zm2.619 0v.43h-1.746v-.43h1.745zm2.617 0v.43h-1.745v-.43h1.745zm2.618 0v.43h-1.745v-.43h1.745zm2.618 0v.43H69.74v-.43h1.745z" fill="#000"/><path d="M46.178 41.54H32.216v13.79h13.962V41.54z" fill="#F7D070"/><path fill-rule="evenodd" clip-rule="evenodd" d="M33.961 43.263h4.363v4.31h-4.363v-4.31zm6.109 0h4.363v4.31H40.07v-4.31zm0 6.034h4.363v4.31H40.07v-4.31zm-6.109 0h4.363v4.31h-4.363v-4.31z" fill="#000"/><path d="M18.253 3.613H4.291v13.792h13.962V3.613z" fill="#F7D070"/><path fill-rule="evenodd" clip-rule="evenodd" d="M16.508 5.337H6.036v10.344h10.472V5.337zM5.163 4.475h12.218v12.068H5.163V4.475zm6.109 6.896a.867.867 0 01-.873-.862c0-.476.391-.862.873-.862s.873.386.873.862-.391.862-.873.862z" fill="#000"/><path d="M32.216 3.613h-8.727v6.896h8.727V3.613z" fill="#F7D070"/><path d="M27.852 8.05c.553 0 1-.442 1-.989a.995.995 0 00-1-.99c-.552 0-1 .444-1 .99 0 .547.448.99 1 .99zm3.491-3.575h-6.981v.99h6.981v-.99z" fill="#000"/><path fill-rule="evenodd" clip-rule="evenodd" d="M24.362 7.923l3.49.862 3.491-.862v.862l-3.49.862-3.491-.862v-.862z" fill="#000"/><path d="M25.362 5.337h-1v3.448h1V5.337zm6.108 0h-1v3.448h1V5.337z" fill="#000"/><path d="M13.017 41.54H4.291v6.895h8.726V41.54z" fill="#F7D070"/><path d="M8.654 45.977c.552 0 1-.443 1-.99a.995.995 0 00-1-.99c-.552 0-1 .444-1 .99 0 .547.448.99 1 .99zm3.491-3.576H5.163v.99h6.982v-.99z" fill="#000"/><path fill-rule="evenodd" clip-rule="evenodd" d="M5.163 45.85l3.491.861 3.49-.862v.862l-3.49.862-3.49-.862v-.862z" fill="#000"/><path d="M6.163 43.263h-1v3.448h1v-3.448zm6.109 0h-1v3.448h1v-3.448z" fill="#000"/><path d="M15.635 20.852H4.291v6.896h11.344v-6.896z" fill="#F7D070"/><path fill-rule="evenodd" clip-rule="evenodd" d="M12.15 21.715c1.443 0 2.613 1.157 2.613 2.585s-1.17 2.586-2.613 2.586H6.904c-1.443 0-2.613-1.157-2.613-2.586 0-1.428 1.17-2.585 2.613-2.585h5.246zm.143.861H6.178c-.962 0-1.742.772-1.742 1.724s.78 1.724 1.742 1.724h6.115c.963 0 1.742-.772 1.742-1.724s-.78-1.724-1.742-1.724z" fill="#000"/><path d="M12.145 25.29c.552 0 1-.443 1-.99a.995.995 0 00-1-.99c-.553 0-1 .444-1 .99 0 .547.447.99 1 .99zm-4.364-4.438h-3.49v6.896h3.49v-6.896zM39.84 87.223h-4.195v-.92c.355-.278.674-.54.956-.788.283-.248.532-.482.746-.705.279-.29.481-.545.606-.765.126-.22.188-.445.188-.678 0-.263-.08-.464-.238-.604-.158-.14-.38-.21-.663-.21-.146 0-.283.017-.412.053-.13.035-.26.08-.393.136-.13.058-.242.118-.334.178l-.207.137h-.111v-1.231c.16-.076.413-.154.755-.233.343-.08.673-.12.99-.12.677 0 1.19.15 1.54.447.348.298.523.717.523 1.258 0 .333-.08.66-.238.979-.159.32-.422.662-.79 1.028-.23.225-.454.425-.671.6-.217.176-.375.3-.472.374h2.42v1.064zm5.066-1.314h-.77v1.33H42.75v-1.33h-2.512v-1.053l2.466-3.273h1.43v3.31h.771v1.016zm-2.155-1.015v-1.92l-1.446 1.92h1.446zm4.222 2.33h-1.358v-1.49h1.358v1.49zm5.25-2.823c0 .488-.04.914-.119 1.28a2.47 2.47 0 01-.38.917c-.173.245-.4.43-.678.555-.279.125-.62.188-1.024.188-.402 0-.742-.063-1.02-.188a1.645 1.645 0 01-.683-.562 2.506 2.506 0 01-.38-.915 6.007 6.007 0 01-.118-1.271c0-.5.038-.927.117-1.28.078-.354.207-.658.389-.913.179-.25.409-.436.69-.559a2.512 2.512 0 011.005-.184c.411 0 .755.064 1.03.192.274.127.5.317.676.57.174.247.3.553.378.916.078.364.117.782.117 1.254zm-1.438 0c0-.697-.058-1.186-.174-1.468-.117-.281-.313-.422-.59-.422-.273 0-.468.14-.586.422-.118.282-.176.774-.176 1.476 0 .687.058 1.173.176 1.46.118.287.313.43.587.43.273 0 .469-.143.587-.43.117-.287.176-.776.176-1.468zm6.439 0c0 .488-.04.914-.12 1.28a2.47 2.47 0 01-.379.917c-.174.245-.4.43-.678.555-.28.125-.62.188-1.024.188-.402 0-.742-.063-1.02-.188a1.645 1.645 0 01-.683-.562 2.506 2.506 0 01-.38-.915 6 6 0 01-.119-1.271c0-.5.04-.927.117-1.28.078-.354.208-.658.39-.913.178-.25.409-.436.69-.559a2.512 2.512 0 011.005-.184c.411 0 .754.064 1.03.192.274.127.5.317.676.57.174.247.3.553.378.916.078.364.117.782.117 1.254zm-1.438 0c0-.697-.059-1.186-.175-1.468-.116-.281-.312-.422-.588-.422-.274 0-.47.14-.587.422-.118.282-.177.774-.177 1.476 0 .687.06 1.173.177 1.46.117.287.313.43.587.43.273 0 .469-.143.586-.43.118-.287.177-.776.177-1.468z" fill="#000"/><path d="M54.032 79.466H33.088v1.724h20.944v-1.724z" fill="#F7D070"/><g opacity=".24"><g opacity=".24"><path opacity=".24" d="M59.488 78.302c7.112 0 12.877-5.706 12.877-12.744 0-7.038-5.765-12.743-12.877-12.743-7.112 0-12.877 5.705-12.877 12.743s5.765 12.744 12.877 12.744z" fill="#FFC107"/><path opacity=".24" fill-rule="evenodd" clip-rule="evenodd" d="M54.217 62.083c.34 0 .635.062.884.186.249.125.455.286.618.485.164.198.286.42.368.666.082.245.123.492.123.741s-.046.496-.138.742a2.192 2.192 0 01-.393.665c-.17.199-.379.36-.624.485a1.83 1.83 0 01-.838.186h-1.983v2.795h-.94v-6.951h2.923zm5.676 0c.349 0 .647.062.895.186a1.842 1.842 0 01.965 1.151c.074.245.111.492.111.741 0 .195-.027.388-.08.58a2.001 2.001 0 01-.242.54 2.28 2.28 0 01-.387.46c-.15.137-.324.246-.518.327l1.297 2.966H60.91l-1.176-2.795h-1.79v2.795h-.925v-6.951h2.875zm5.267 0c.363 0 .699.056 1.009.168.31.112.577.269.801.47.224.2.399.443.524.727.126.283.188.596.188.939v2.353c0 .35-.064.666-.192.95-.13.283-.307.523-.535.721a2.465 2.465 0 01-.8.46 2.945 2.945 0 01-.995.163 3.05 3.05 0 01-1.018-.163 2.333 2.333 0 01-.796-.46 2.028 2.028 0 01-.514-.722 2.373 2.373 0 01-.184-.949v-2.353c0-.343.061-.656.184-.94.121-.283.293-.525.514-.726.22-.201.486-.358.796-.47a2.97 2.97 0 011.018-.168zm0 .84c-.216 0-.421.03-.615.09a1.294 1.294 0 00-.841.77 1.795 1.795 0 00-.128.712v2.136c0 .277.043.514.128.712.085.198.2.36.344.485.145.125.314.217.507.277.194.059.396.088.605.088.217 0 .42-.029.61-.088a1.318 1.318 0 00.857-.762c.085-.198.128-.435.128-.712v-2.136c0-.276-.043-.514-.129-.711a1.374 1.374 0 00-.344-.49 1.347 1.347 0 00-.507-.282 2.085 2.085 0 00-.615-.089zm-11.137.007h-1.79v2.452h1.79c.368 0 .669-.108.904-.323.235-.215.353-.514.353-.898 0-.377-.118-.676-.353-.898-.235-.222-.536-.333-.904-.333zm5.68 0h-1.76v2.452h1.76c.361 0 .658-.108.889-.323.231-.215.347-.514.347-.898 0-.377-.116-.676-.347-.898-.23-.222-.528-.333-.89-.333z" fill="#453738"/></g><g opacity=".24" fill-rule="evenodd" clip-rule="evenodd"><path opacity=".24" d="M17.996 65.751h8.194v15.061h9.365v-15.06h8.194v37.072h-8.194V88.922H26.19v13.902h-8.194V65.751z" fill="#CDC6C1"/><path opacity=".24" d="M17.996 84.867l8.194 4.055-8.194 13.902V84.867zm17.56-4.055v8.11l-9.366-8.11h9.365zm8.194-15.06v15.06l-8.195-15.06h8.194z" fill="#938784"/><path opacity=".24" d="M43.749 92.37v10.454h-8.194L43.75 92.37zm0-11.558V92.37l-8.194-3.448 8.194-8.11zm-17.56 0l.001 8.11-8.194-4.055 8.194-4.055zm.001-15.06v15.06l-8.194-7.53 8.194-7.53z" fill="#AEA5A3"/></g></g></svg>