<svg width="33" height="32" fill="none" xmlns="http://www.w3.org/2000/svg"><path d="M19.658 16c0 1.691-1.414 3.063-3.158 3.063S13.342 17.69 13.342 16s1.414-3.063 3.158-3.063S19.658 14.31 19.658 16z" fill="#C4B192"/><path d="M23.886 10.582a2.84 2.84 0 00-.709-1.057 2.944 2.944 0 00-1.09-.687c-.333-.126-.835-.275-1.758-.316-1-.044-1.3-.054-3.83-.054-2.53 0-2.829.01-3.828.053-.923.041-1.425.191-1.759.317a2.942 2.942 0 00-1.09.687 2.842 2.842 0 00-.708 1.056c-.13.324-.284.81-.326 1.707-.046.968-.056 1.259-.056 3.712 0 2.453.01 2.744.056 3.713.042.896.196 1.382.326 1.706.152.399.394.76.708 1.056.306.305.678.54 1.09.687.334.126.835.276 1.76.317.998.044 1.298.053 3.828.053s2.83-.009 3.828-.053c.924-.041 1.426-.19 1.76-.317a3.091 3.091 0 001.798-1.743c.13-.324.284-.81.326-1.706.046-.97.055-1.26.055-3.713 0-2.453-.01-2.744-.055-3.712-.042-.896-.196-1.383-.326-1.707zM16.5 20.718c-2.687 0-4.866-2.112-4.866-4.718s2.179-4.718 4.866-4.718 4.865 2.112 4.865 4.718-2.178 4.718-4.865 4.718zm5.058-8.52c-.628 0-1.137-.493-1.137-1.102 0-.61.509-1.103 1.137-1.103.627 0 1.137.494 1.137 1.103s-.51 1.102-1.137 1.102z" fill="#C4B192"/><path d="M16.5 0C7.389 0 0 7.165 0 16s7.389 16 16.5 16S33 24.835 33 16 25.611 0 16.5 0zm9.418 19.788c-.046.978-.207 1.646-.44 2.23a4.774 4.774 0 01-2.772 2.687c-.602.227-1.291.382-2.3.427-1.01.045-1.333.055-3.906.055-2.573 0-2.896-.01-3.906-.055-1.009-.045-1.697-.2-2.3-.427a4.659 4.659 0 01-1.678-1.06 4.493 4.493 0 01-1.093-1.627c-.234-.584-.394-1.252-.44-2.23-.047-.98-.058-1.293-.058-3.788s.011-2.808.058-3.788c.045-.978.205-1.646.44-2.23a4.49 4.49 0 011.093-1.627 4.657 4.657 0 011.678-1.06c.603-.227 1.291-.382 2.3-.427 1.01-.045 1.333-.056 3.906-.056 2.573 0 2.896.011 3.906.056 1.009.045 1.697.2 2.3.427a4.66 4.66 0 011.678 1.06 4.491 4.491 0 011.093 1.627c.235.584.395 1.252.44 2.23.047.98.058 1.293.058 3.788s-.011 2.808-.058 3.788z" fill="#C4B192"/></svg>