<svg width="18" height="18" viewBox="0 0 18 18" fill="none" xmlns="http://www.w3.org/2000/svg"><path d="M13.05 16.5A11.565 11.565 0 011.5 4.95 3.45 3.45 0 014.95 1.5c.194-.001.387.016.577.053.184.027.365.072.54.135a.75.75 0 01.488.562l1.027 4.5a.75.75 0 01-.195.69c-.097.105-.105.113-1.027.593a7.433 7.433 0 003.652 3.667c.488-.93.495-.937.6-1.035a.75.75 0 01.69-.195l4.5 1.028a.75.75 0 01.54.487 3.262 3.262 0 01.188 1.118 3.45 3.45 0 01-3.48 3.397zM4.95 3A1.957 1.957 0 003 4.95 10.057 10.057 0 0013.05 15 1.958 1.958 0 0015 13.05v-.247L11.52 12l-.217.413c-.338.652-.586 1.125-1.216.87a8.888 8.888 0 01-5.385-5.408c-.27-.585.24-.855.885-1.192L6 6.48 5.197 3H4.95z" fill="#4B4A50"/></svg>