<svg width="160" height="27" fill="none" xmlns="http://www.w3.org/2000/svg"><path fill-rule="evenodd" clip-rule="evenodd" d="M82.26 1.856l-3.477 1.838 3.739.1c2.056.056 5.422.056 7.478 0l3.74-.1-3.56-1.856C88.223.818 86.423-.01 86.18 0c-.242.01-2.006.845-3.92 1.856zm-3.303 6.965v4.242h6.608V9.528h-1.739c-1.314 0-1.739-.13-1.739-.53 0-.445.734-.53 4.522-.53 3.787 0 4.521.085 4.521.53 0 .407-.444.53-1.913.53h-1.913v3.562l3.218-.102 3.217-.101.098-4.155.098-4.154H78.957v4.243zM56.369 6.99c-1.285.701-2.456 2.557-2.456 3.892 0 2.326 1.964 4.168 5.154 4.834 1.298.271 1.744.986 1.103 1.77-.636.78-2.409.631-4.083-.342l-1.478-.859V18.2c0 1.8.068 1.952 1.13 2.525 1.67.901 5.142.856 6.408-.084 1.403-1.041 2.325-3.086 2.054-4.553-.346-1.873-1.404-2.932-3.607-3.61-2.518-.776-2.995-1.116-2.469-1.76.565-.692 2.727-.597 4.236.185l1.291.669v-4.09l-1.398-.568c-1.862-.758-4.415-.724-5.885.077zm11.203-.14c-2.19 1.005-3.145 3.975-2 6.224.6 1.182 1.773 1.887 4.144 2.494 1.853.474 2.38 1.234 1.384 1.992-.879.668-3.085.373-4.357-.582-.536-.404-1.06-.734-1.164-.734-.103 0-.188.77-.188 1.713 0 2.025.515 2.627 2.768 3.238 3.919 1.06 6.971-.955 6.971-4.603 0-2.491-.874-3.346-4.566-4.46-1.011-.305-1.694-.717-1.694-1.021 0-1.116 3.38-1.068 5.094.073l.819.545V9.753c0-1.748-.107-2.048-.921-2.59-1.226-.816-4.805-.994-6.29-.312zm46.863.265c-2.2 1.154-3.131 3.105-3.131 6.564 0 4.18 1.459 6.692 4.365 7.52 3.116.886 6.338-.385 7.635-3.015.542-1.097.696-2.115.696-4.591 0-5.037-1.439-6.865-5.621-7.142-2.001-.133-2.628-.027-3.944.664zm26.927-.287c-.59.272-1.427.95-1.86 1.508-.659.847-.763 1.329-.633 2.93.185 2.296 1.004 3.18 3.805 4.1 2.436.801 2.957 1.291 2.196 2.065-.81.823-2.247.72-4.123-.293l-1.617-.874v1.858c0 1.678.099 1.918 1.015 2.468 3.762 2.258 8.719.15 8.723-3.71.003-2.572-1.067-3.692-4.517-4.733-1.73-.523-2.263-1.281-1.192-1.698.987-.385 2.378-.213 3.884.482l1.479.682V9.695c0-1.685-.112-1.993-.921-2.532-1.204-.802-4.805-.994-6.239-.334zM0 13.947v7.248h3.478v-5.303H9.74v-3.536H3.48v-2.121h6.26V6.699H0v7.248zm11.13 0v7.248h3.827V6.699H11.13v7.248zm5.218-5.48v1.768h3.826v10.997L22 21.125l1.826-.107.096-5.392.096-5.391h3.46V6.699h-11.13v1.768zm12.522 5.466v7.262h3.826l.015-4.685.016-4.684 1.95 4.7 1.95 4.698 2.295-.103 2.295-.103.095-7.16.094-7.159h-3.84l-.02 4.155-.018 4.154-1.506-4.066-1.506-4.066-2.823-.102-2.823-.103v7.262zm14.26.014v7.248h9.74v-3.889h-2.957c-2.922 0-2.956-.01-2.956-.884s.034-.884 2.956-.884h2.957v-3.535h-2.957c-2.922 0-2.956-.01-2.956-.884s.034-.884 2.956-.884h2.957V6.699h-9.74v7.248zm54.957 0v7.248h3.478v-5.657h4.174v5.657h3.826V6.699h-3.826v5.304h-4.174V6.699h-3.478v7.248zm27.827-1.68c.001 4.896.084 5.706.679 6.699 1.062 1.77 2.28 2.393 4.687 2.4 2.696.007 4.165-.633 5.152-2.246.711-1.163.797-1.81.909-6.852l.123-5.569h-3.899v4.773c0 4.302-.069 4.843-.695 5.48-.819.832-1.694.901-2.63.206-.602-.447-.688-1.042-.795-5.48l-.12-4.979h-3.412l.001 5.569zm24.347 1.68v7.248H160v-3.889h-3.155c-3.072 0-3.151-.021-3.043-.796.104-.746.299-.802 3.155-.897L160 15.51v-3.508h-3.13c-3.108 0-3.131-.007-3.131-.884s.023-.884 3.131-.884H160V6.699h-9.739v7.248zm-30.961-3.08c.837.69 1.31 3.208.908 4.836-.553 2.24-2.713 2.978-4.224 1.442-.719-.731-.854-1.206-.854-3.021s.135-2.29.854-3.021c1.009-1.025 2.249-1.113 3.316-.236zm-40.343 7.146v4.242h14.956V13.77h-6.609v3.89h1.913c1.469 0 1.913.123 1.913.53 0 .445-.734.531-4.521.531-3.788 0-4.522-.086-4.522-.53 0-.4.425-.53 1.74-.53h1.738v-3.89h-6.608v4.243zm9.304 1.674a24.95 24.95 0 01-3.304 0c-.91-.073-.166-.133 1.652-.133 1.817 0 2.56.06 1.652.133zm-9.183 3.54c.089.146 1.742 1.055 3.673 2.02L86.26 27l3.51-1.754c1.93-.964 3.584-1.873 3.673-2.018.09-.146-3.143-.266-7.183-.266s-7.272.12-7.183.266z" fill="#fff"/></svg>