<svg xmlns="http://www.w3.org/2000/svg" xmlns:xlink="http://www.w3.org/1999/xlink"><defs><clipPath id="clip0_72_65"><path fill="#fff" d="M0 0h83v83H0z"/></clipPath><clipPath id="clip0_72_98"><path fill="#fff" d="M0 0h77v77H0z"/></clipPath><clipPath id="clip0_72_71"><path fill="#fff" d="M0 0h70v70H0z"/></clipPath><clipPath id="clip0_72_94"><path fill="#fff" d="M0 0h87v86H0z"/></clipPath><clipPath id="clip0_72_107"><path fill="#fff" d="M0 0h71v71H0z"/></clipPath></defs><symbol id="best-price"><g fill="none"><g clip-path="url(#clip0_72_65)" fill="#fff"><path fill-rule="evenodd" clip-rule="evenodd" d="M3.713 81.398A3.721 3.721 0 010 77.685V48.373a3.717 3.717 0 013.713-3.713h7.051v18.373c0 1.058 1.609 1.057 1.609 0V44.66h6.87a3.706 3.706 0 013.707 3.714v29.31a3.717 3.717 0 01-3.713 3.714H3.713zm11.703-4.062c-4.123 0-4.115-6.26 0-6.26 4.116 0 4.123 6.26 0 6.26z"/><path fill-rule="evenodd" clip-rule="evenodd" d="M51.537 79.072H25.551c-.383 0-3.196-1.461-3.747-1.73a.81.81 0 01-.455-.724V49.365c0-2.353 10.532-.328 10.167-18.881-.033-1.71.034-3.613 1.32-4.512.798-.556 1.897-.57 3.252-.04 2.922 1.146 5.114 5.59 5.201 10.557.074 3.914-.1 8.05-2.768 12.072h19.92c.195 0 .354.054.477.144a4.373 4.373 0 01.78 8.167c2.477 2.32 1.47 6.46-1.776 7.392 2.372 2.622.79 6.863-2.733 7.271 2.536 3.039-.088 7.557-3.457 7.557a.917.917 0 01-.195-.02z"/><path d="M51.046 44.298v-29.63h9.462c3.818 0 6.598.774 8.341 2.323 1.77 1.55 2.656 3.68 2.656 6.391a9.82 9.82 0 01-1.079 4.524c-.72 1.41-1.923 2.545-3.61 3.403-1.66.857-3.929 1.286-6.806 1.286h-2.698v11.703h-6.266zm-3.32-4.44v-4.026h15.977v4.026H47.726zm0-7.263V27.45h12.16v5.146h-12.16zm11.661-5.146c1.19 0 2.213-.124 3.071-.373.858-.277 1.522-.706 1.992-1.287.47-.58.706-1.314.706-2.2 0-1.272-.402-2.213-1.204-2.821-.802-.637-2.061-.955-3.776-.955h-2.864v7.636h2.075z"/><path fill-rule="evenodd" clip-rule="evenodd" d="M65.392 51.182c-1.977 0-2.455-2.78-.587-3.434 8.774-3.07 14.656-11.398 14.656-20.69 0-12.09-9.835-21.924-21.925-21.924A21.862 21.862 0 0036.24 21.84c-.554 2.266-3.992 1.419-3.44-.839a25.4 25.4 0 0124.737-19.4C71.58 1.602 83 13.022 83 27.065c0 10.628-6.514 21.153-17.08 24.048a2.01 2.01 0 01-.528.069z"/></g></g></symbol><symbol id="car-parking"><g fill="none"><g clip-path="url(#clip0_72_98)" fill="#171818"><path d="M4.5 72.5V30.443h4.32v5.315h35.758V0H8.821v5.315H4.499V0H0v77h39.12a12.46 12.46 0 01-2.392-4.5H4.498zM18.641 6.859h9.726c3.978 0 7.215 3.236 7.215 7.214s-3.237 7.215-7.215 7.215h-5.214v7.818h-4.512V6.858zM4.499 9.814h4.322v16.129H4.499V9.814zM40.744 69.035c0 4.392 3.573 7.965 7.965 7.965 4.392 0 7.965-3.573 7.965-7.965 0-4.392-3.573-7.965-7.965-7.965-4.392 0-7.965 3.573-7.965 7.965z"/><path d="M61.002 66.917H77V47.252H44.124L27.18 54.173h5.96v4.512h-5.968v8.232h9.244c1.009-5.874 6.135-10.359 12.293-10.359 6.157 0 11.284 4.485 12.293 10.359zM77 42.74V31.259H57.293L48.31 42.74H77zM77 77v-4.5H60.69a12.46 12.46 0 01-2.392 4.5H77zM31.071 14.072a2.706 2.706 0 00-2.703-2.703h-5.214v5.406h5.214a2.706 2.706 0 002.703-2.703z"/></g></g></symbol><symbol id="clock"><g fill="none"><path d="M36.438 30.319a7.275 7.275 0 00-.734-.039c-2.563 0-5.115 1.202-6.703 3.112-1.59-1.91-4.142-3.112-6.702-3.112-.254 0-.5.015-.738.039-2.885.31-4.915 1.284-6.206 2.979-1.28 1.68-1.698 3.957-1.24 6.769.67 4.078 5.951 9.045 10.194 13.037l.097.091c1.182 1.114 2.203 2.074 2.868 2.79.09.1.9.987 1.787.987.893 0 1.685-.9 1.756-.986.708-.767 1.854-1.852 2.986-2.924 4.197-3.98 9.42-8.934 10.08-12.997.461-2.81.047-5.086-1.235-6.767-1.29-1.695-3.32-2.67-6.21-2.98z" fill="#fff"/><path d="M49.578 22.5l3.13-3.302a2.17 2.17 0 00-.082-3.068l-2.625-2.49a2.17 2.17 0 00-3.069.083l-3.58 3.776a28.025 28.025 0 00-9.302-3.476V9.405h4.266c1.199 0 2.17-.972 2.17-2.17V2.17A2.17 2.17 0 0038.316 0H19.685a2.17 2.17 0 00-2.17 2.17v5.065a2.17 2.17 0 002.17 2.17h4.205v4.629a28.028 28.028 0 00-9.418 3.57c-.022-.022-.042-.046-.065-.068l-4.07-3.857a2.17 2.17 0 00-3.068.082L4.78 16.387a2.17 2.17 0 00.082 3.068l3.397 3.22C3.622 27.705.784 34.42.784 41.784.784 57.342 13.442 70 29 70c15.559 0 28.216-12.658 28.216-28.216 0-7.451-2.904-14.235-7.638-19.284zM29 64.938c-12.767 0-23.154-10.387-23.154-23.154 0-12.768 10.387-23.155 23.154-23.155 12.768 0 23.154 10.387 23.154 23.155 0 12.767-10.387 23.154-23.154 23.154z" fill="#fff"/></g></symbol><symbol id="close"><g fill="none"><path d="M8.132 8.132l16.263 16.263M24.395 8.132L8.132 24.395" stroke="#F3D27E" stroke-width="3" stroke-linecap="round"/></g></symbol><symbol id="credit"><g fill="none"><path d="M86.374 15.983H10.626a5.427 5.427 0 00-5.423 5.424V55.68h86.594V21.407a5.427 5.427 0 00-5.423-5.424zM37 34.016c-.059.269-11.106 14.554-11.106 14.554-.557.935-2.025.939-2.582 0 0 0-10.932-14.159-10.969-14.22a1.525 1.525 0 01-.046-1.413l3.023-6.259a3.623 3.623 0 013.236-2.036H30.65c1.368 0 2.644.806 3.236 2.036l3.023 6.26c.165.34.2.718.092 1.078zm44.436 15.268H57.858c-.85 0-1.519-.684-1.519-1.52 0-.835.668-1.519 1.52-1.519h23.577c1.988.036 2.002 3 0 3.039zm0-7.55h-14.28c-1.991-.027-2.001-3.001 0-3.039h14.28c1.993.036 2 3.01 0 3.038z" fill="#fff"/><path d="M30.65 27.68h-1.884l.698 4.406h3.662L31.15 28a.551.551 0 00-.502-.32zM20.44 27.68h-1.884a.551.551 0 00-.5.32l-1.976 4.086h3.662l.698-4.406zM27.839 41.095l4.618-5.97h-3.114l-1.504 5.97zM24.603 41.52l1.61-6.395h-3.22l1.61 6.396zM16.749 35.125l4.618 5.97-1.504-5.97h-3.114zM23.509 27.68l-.684 4.406h3.555l-.683-4.406h-2.188zM5.203 58.718v5.104a5.427 5.427 0 005.423 5.424h75.748a5.427 5.427 0 005.423-5.423v-5.105H5.203z" fill="#fff"/></g></symbol><symbol id="gym"><g fill="none"><path d="M13.795 32.23l7.853-.83 2.488 23.557-7.852.83-2.489-23.557zM30.553 27.823a1.317 1.317 0 001.17-1.449l-.277-2.619a1.314 1.314 0 00-1.448-1.17l-26.18 2.77a1.317 1.317 0 00-1.17 1.448l.276 2.62a1.317 1.317 0 001.449 1.17l26.18-2.77zM15.52 10.876a3.908 3.908 0 00-3.407 3.008l7.374-.78a3.902 3.902 0 00-3.966-2.228zM7.462 22.32l18.332-1.94a1.315 1.315 0 001.17-1.448l-.276-2.617a1.317 1.317 0 00-1.449-1.172l-18.33 1.94a1.315 1.315 0 00-1.17 1.449l.276 2.619a1.317 1.317 0 001.447 1.17zM34.589 40.128l1.62-10.817a6.612 6.612 0 016.504-5.611H62.62a6.613 6.613 0 016.504 5.614l1.634 10.855a26.76 26.76 0 014.36 5.332L73.252 26.86a7.875 7.875 0 00-7.854-7.11H39.934a7.84 7.84 0 00-6.056 2.875c.096.277.16.563.195.854l.276 2.619a3.95 3.95 0 01-2.592 4.12L30.21 45.543a26.44 26.44 0 014.378-5.414zM22.444 76.344a3.91 3.91 0 003.413-3.006l-7.38.78a3.899 3.899 0 003.967 2.226zM34.153 61.866a1.317 1.317 0 001.17-1.448l-.276-2.62a1.315 1.315 0 00-1.448-1.17L7.41 59.393a1.315 1.315 0 00-1.17 1.449l.279 2.621a1.309 1.309 0 001.448 1.17l26.186-2.767z" fill="#fff"/><path d="M76.33 58a23.686 23.686 0 00-46.837-3.585l3.836-.405a3.948 3.948 0 014.345 3.512l.276 2.62a3.95 3.95 0 01-3.513 4.344l-.242.026c.201.403.33.837.382 1.283l.276 2.617a3.92 3.92 0 01-1.96 3.836 21.985 21.985 0 001.592 2.178 5.336 5.336 0 004.093 1.94h28.177a5.311 5.311 0 004.053-1.878A23.584 23.584 0 0076.33 58zm-3.875.86h-.11a1.317 1.317 0 01-1.317-1.207A18.606 18.606 0 0054.747 40.93a19.537 19.537 0 00-2.08-.114 1.317 1.317 0 010-2.634c.791.002 1.583.046 2.37.132a21.276 21.276 0 0118.62 19.123 1.316 1.316 0 01-1.202 1.417v.005z" fill="#fff"/><path d="M30.503 64.901L12.171 66.84a1.315 1.315 0 00-1.17 1.448l.276 2.62a1.317 1.317 0 001.449 1.17l18.332-1.938a1.317 1.317 0 001.17-1.449l-.276-2.617a1.317 1.317 0 00-1.449-1.172z" fill="#fff"/></g></symbol><symbol id="map"><g fill="none"><g clip-path="url(#clip0_72_71)" fill="#fff"><path d="M55.645 32.949c-7.915 0-14.356 6.44-14.356 14.355 0 3.022.931 5.914 2.718 8.396l9.997 13.478a2.05 2.05 0 001.64.822h.003c.645 0 1.253-.307 1.64-.823l10.402-14.07A14.267 14.267 0 0070 47.304c0-7.915-6.44-14.355-14.355-14.355zm0 20.508a6.16 6.16 0 01-6.153-6.153 6.16 6.16 0 016.153-6.152 6.16 6.16 0 016.152 6.152 6.16 6.16 0 01-6.152 6.153zM3.106.292A2.05 2.05 0 000 2.05v41.153c0 .72.379 1.388.995 1.758l19.65 11.708V10.734L3.105.292zM64.903 12.597L45.391.889v31.083a18.345 18.345 0 0110.254-3.125c3.792 0 7.318 1.155 10.253 3.125V14.355c0-.72-.378-1.388-.995-1.758zM41.29.889l-16.544 9.844v45.935l12.59-7.471c-.065-.629-.148-1.254-.148-1.893 0-4.35 1.575-8.3 4.101-11.458V.89z"/></g></g></symbol><symbol id="menu"><g fill="none"><path fill="#fff" d="M0 0h47v3H0zM0 11h47v3H0zM0 22h47v3H0z"/></g></symbol><symbol id="muscle"><g fill="none"><g clip-path="url(#clip0_72_94)"><path d="M77.12 45.521c-8.224-3.632-14.863-.134-18.75 3.064a25.451 25.451 0 013.3 5.384 1.495 1.495 0 01-1.8 2.072 1.496 1.496 0 01-.87-.721c-.762-1.43-2.078-3.694-2.26-3.955a18.511 18.511 0 00-20.752-6.761l-.627 1.41a9.534 9.534 0 01-2.274 10.373 1.503 1.503 0 01-1.84.212 1.466 1.466 0 01-.209-2.336c.42-.349.784-.762 1.075-1.224 1.475-1.93.827-4.702.389-6.89l-.554-3.094-2.706-15.154a3.55 3.55 0 002.108-1.405l1.017 1.106a3.317 3.317 0 005.114.732l1.734-1.644-3.065-3.482a2.635 2.635 0 00-1.465-1.061l-1.42-.688a1.497 1.497 0 011.315-2.69c.956.405 1.88.88 2.766 1.42a55.931 55.931 0 014.038 4.439l1.226-1.18-3.574-3.872a2.456 2.456 0 00-1.256-1c-.373-.155-1.316-.63-1.645-.793a1.498 1.498 0 111.316-2.69l1.33.658a5.26 5.26 0 012.528 1.868c.82.877 2.617 2.872 3.454 3.766a3.43 3.43 0 001.002-4.917l-6.086-7.966a6.665 6.665 0 00-8.538-1.734l-13.278 7.503a9.523 9.523 0 00-4.59 6.053L4.27 58.329c-1.58 5.234-1.096 9.506 3.888 10.447a3.472 3.472 0 011.495.672c14.35 9.988 24.07 11.604 35.991 10.462a36.661 36.661 0 008.314-2.092 1.505 1.505 0 011.226.03c4.311 2.49 13.887 1.47 17.195.388a18.324 18.324 0 006.505-1.973 16.055 16.055 0 007.506-9.938c4.156-14.886-9.151-20.759-9.27-20.804zm-54.248 6.576a1.488 1.488 0 012.901.673 4.62 4.62 0 002.811 5.365 1.498 1.498 0 01-.863 2.802 1.483 1.483 0 01-.557-.172 7.565 7.565 0 01-4.292-8.668zM47.05 73.618a1.413 1.413 0 01-1.196 1.016 40.884 40.884 0 01-21.053-2.884 1.492 1.492 0 011.122-2.765 38.056 38.056 0 0019.528 2.69 1.49 1.49 0 011.6 1.943zM81.577 59.66a1.485 1.485 0 01-1.9-.911 10.58 10.58 0 00-5.292-5.65 10.01 10.01 0 00-6.61-.657 1.527 1.527 0 01-1.808-1.091c-.534-3.479 7.663-2.081 9.599-1.002a13.355 13.355 0 016.923 7.398 1.498 1.498 0 01-.912 1.913z" fill="#171818"/></g></g></symbol><symbol id="pin-orange"><g fill="none"><path d="M13 0C5.833 0 0 5.91 0 13.173c0 2.774.843 5.428 2.461 7.705l9.054 12.368c.35.475.901.754 1.485.754h.002a1.85 1.85 0 001.485-.755l9.42-12.911A13.217 13.217 0 0026 13.174C26 5.91 20.168 0 13 0zm0 18.82c-3.072 0-5.571-2.533-5.571-5.647 0-3.113 2.499-5.645 5.571-5.645 3.072 0 5.571 2.532 5.571 5.645 0 3.114-2.499 5.646-5.571 5.646z" fill="#E46821"/></g></symbol><symbol id="pin"><g fill="none"><path fill="currentColor" d="M10.389 0C4.66 0 0 4.66 0 10.389c0 2.187.674 4.28 1.967 6.075l7.235 9.754c.28.374.72.595 1.187.595h.001c.467 0 .907-.222 1.187-.596l7.528-10.182a10.324 10.324 0 001.672-5.646C20.777 4.66 16.117 0 10.39 0zm0 14.84a4.457 4.457 0 01-4.453-4.451 4.457 4.457 0 014.453-4.453 4.457 4.457 0 014.452 4.453 4.457 4.457 0 01-4.452 4.452z"/></g></symbol><symbol id="plus"><g fill="none"><path fill="#171818" d="M11 0h3v25h-3z"/><path fill="#171818" d="M25 11v3H0v-3z"/></g></symbol><symbol id="popup-telegram"><g fill="none"><path d="M16.5 33C7.387 33 0 25.613 0 16.5S7.387 0 16.5 0 33 7.387 33 16.5 25.613 33 16.5 33zm-5.132-14.57l.022-.011 1.435 4.735c.185.514.44.606.748.563.31-.041.473-.208.676-.402l1.96-1.895 4.208 3.115c.769.425 1.322.205 1.513-.712l2.734-12.907c.302-1.2-.226-1.683-1.158-1.3L7.446 15.82c-1.095.44-1.089 1.053-.198 1.325l4.12 1.287v-.002z" fill="#268EC8"/></g></symbol><symbol id="popup-wp"><g fill="none"><path d="M16.5 0C25.613 0 33 7.387 33 16.5S25.613 33 16.5 33a16.424 16.424 0 01-8.3-2.236L.008 33l2.23-8.197A16.423 16.423 0 010 16.5C0 7.387 7.387 0 16.5 0zm-5.623 8.745l-.33.013c-.214.013-.423.07-.614.165a2.134 2.134 0 00-.485.376c-.198.187-.31.349-.43.505a4.505 4.505 0 00-.935 2.769c.004.809.215 1.595.545 2.331.675 1.489 1.785 3.064 3.25 4.525.354.351.7.704 1.073 1.033a15.588 15.588 0 006.336 3.375l.937.144c.305.017.61-.007.918-.021.48-.025.95-.155 1.374-.382.216-.11.427-.232.632-.363 0 0 .07-.046.206-.148.223-.165.36-.282.545-.475.137-.142.255-.309.346-.498.129-.27.258-.783.31-1.21.04-.327.028-.505.023-.615-.006-.177-.153-.36-.313-.438l-.96-.43s-1.436-.626-2.314-1.025a.82.82 0 00-.29-.068.796.796 0 00-.624.21c-.008-.003-.119.09-1.312 1.536a.577.577 0 01-.607.215 2.357 2.357 0 01-.315-.11c-.204-.085-.275-.118-.416-.177a9.94 9.94 0 01-2.598-1.655c-.208-.182-.401-.38-.6-.571a10.39 10.39 0 01-1.682-2.093l-.098-.156a1.517 1.517 0 01-.168-.339c-.063-.242.1-.437.1-.437s.402-.439.588-.676c.181-.231.335-.456.434-.616.195-.313.256-.635.153-.884-.462-1.129-.94-2.252-1.432-3.368-.097-.22-.386-.38-.648-.41-.09-.01-.178-.02-.268-.027a5.589 5.589 0 00-.665.007l.332-.014.002.002z" fill="#42D262"/></g></symbol><symbol id="shield"><g fill="none"><g clip-path="url(#clip0_72_107)" fill="#171818"><path d="M35.5 20.8c-8.029 0-14.56 6.533-14.56 14.561 0 8.029 6.531 14.56 14.56 14.56s14.56-6.531 14.56-14.56c0-8.028-6.531-14.56-14.56-14.56zm9.791 11.872L34.198 43.766c-.407.406-.94.609-1.471.609a2.073 2.073 0 01-1.471-.61l-5.547-5.546a2.08 2.08 0 112.942-2.942l4.076 4.076 9.623-9.623a2.08 2.08 0 012.941 2.942z"/><path d="M60.46 11.094c-8.386 0-16.27-3.266-22.201-9.197L36.971.61a2.08 2.08 0 00-2.942 0l-1.288 1.288c-5.93 5.93-13.815 9.197-22.202 9.197a2.08 2.08 0 00-2.08 2.08v20.748c0 16.678 10.595 31.533 26.364 36.965a2.08 2.08 0 001.354 0c15.77-5.432 26.364-20.287 26.364-36.965V13.174a2.08 2.08 0 00-2.08-2.08zM35.5 54.082c-10.323 0-18.72-8.398-18.72-18.72 0-10.323 8.397-18.721 18.72-18.721 10.323 0 18.72 8.398 18.72 18.72 0 10.323-8.397 18.721-18.72 18.721z"/></g></g></symbol><symbol id="telegram"><g fill="none"><path fill="currentColor" d="M11.725 21.533c-5.396 0-9.77-4.374-9.77-9.77 0-5.398 4.374-9.772 9.77-9.772 5.397 0 9.772 4.374 9.772 9.771 0 5.397-4.375 9.771-9.772 9.771zm-3.039-8.628l.013-.007.85 2.805c.11.304.26.358.443.333.184-.024.28-.123.4-.238l1.161-1.122 2.492 1.845c.455.25.783.12.896-.422l1.62-7.644c.178-.71-.135-.996-.687-.77l-9.51 3.675c-.649.26-.645.623-.117.784l2.44.762z"/></g></symbol><symbol id="vk"><g fill="none"><path fill="currentColor" fill-rule="evenodd" clip-rule="evenodd" d="M26.318 1.152c.18-.596 0-1.035-.86-1.035h-2.844c-.723 0-1.057.379-1.238.797 0 0-1.446 3.49-3.494 5.758-.663.658-.964.866-1.326.866-.18 0-.452-.208-.452-.806v-5.58c0-.717-.2-1.035-.802-1.035h-4.471c-.452 0-.723.332-.723.647 0 .678 1.024.836 1.13 2.745v4.148c0 .91-.166 1.075-.528 1.075-.964 0-3.31-3.507-4.701-7.52-.27-.78-.543-1.095-1.27-1.095H1.895C1.082.117.92.496.92.914c0 .745.964 4.445 4.49 9.34 2.35 3.342 5.66 5.154 8.673 5.154 1.808 0 2.031-.402 2.031-1.096v-2.526c0-.805.172-.966.744-.966.423 0 1.145.21 2.833 1.821 1.928 1.91 2.245 2.767 3.33 2.767h2.843c.813 0 1.22-.402.986-1.197-.258-.791-1.178-1.939-2.399-3.301-.663-.776-1.657-1.611-1.96-2.03-.42-.536-.3-.775 0-1.252 0 0 3.467-4.834 3.827-6.476h.001z"/></g></symbol><symbol id="youtube"><g fill="none"><path fill="currentColor" d="M24.383 2.965a2.993 2.993 0 00-.8-1.346A3.115 3.115 0 0022.199.84C20.272.333 12.528.333 12.528.333s-7.744 0-9.672.507c-.523.137-1 .406-1.383.779a2.993 2.993 0 00-.8 1.346A30.26 30.26 0 00.15 8.762a30.26 30.26 0 00.522 5.797c.14.51.417.974.8 1.347.383.373.86.641 1.383.778 1.928.508 9.672.508 9.672.508s7.744 0 9.671-.508c.523-.137 1-.405 1.384-.778.383-.373.659-.837.8-1.347.36-1.912.534-3.853.521-5.797a30.263 30.263 0 00-.521-5.797zm-14.33 9.41V5.15l6.426 3.612-6.427 3.613z"/></g></symbol></svg>