<svg xmlns="http://www.w3.org/2000/svg" viewBox="0 0 512 512"><path d="M360.909 0H24.061C10.767 0 0 10.767 0 24.061v336.848c0 13.293 10.767 24.061 24.061 24.061h336.848c13.281 0 24.061-10.767 24.061-24.061V24.061C384.97 10.767 374.191 0 360.909 0zm0 360.909H24.061V24.061h336.848v336.848z"/><path d="M111.533 273.172c4.74 4.692 12.439 4.692 17.191 0l64.049-63.52 63.472 63.472c4.74 4.752 12.439 4.752 17.179 0s4.74-12.475 0-17.227l-63.376-63.388 63.015-62.497c4.74-4.704 4.74-12.319 0-17.011-4.74-4.704-12.439-4.704-17.179 0l-62.931 62.413-63.869-63.881c-4.74-4.752-12.439-4.752-17.179 0-4.74 4.764-4.74 12.475 0 17.227l63.773 63.785-64.134 63.604c-4.751 4.704-4.751 12.331-.011 17.023z"/></svg>