<svg xmlns="http://www.w3.org/2000/svg" viewBox="0 0 512 512"><path d="M468.364 368v23.273a8.727 8.727 0 0 0 17.454 0V368h-17.454zm-34.909 23.273a8.727 8.727 0 0 0 17.454 0V368h-17.455v23.273zm-34.91 0a8.727 8.727 0 0 0 17.454 0V368h-17.455v23.273zm-171.636-46.546h58.182v116.364h-58.182z" fill="#605353"/><path d="M512 368c0 6.4-5.236 11.636-11.636 11.636H11.636C5.236 379.636 0 374.4 0 368V53.818c0-6.4 5.236-11.636 11.636-11.636h488.727c6.4 0 11.636 5.236 11.636 11.636V368z" fill="#463836"/><path fill="#6fc5d6" d="M34.909 77.091h442.182v267.636H34.909z"/><path d="M395.636 469.818H116.364a8.727 8.727 0 0 1 0-17.454h279.273a8.727 8.727 0 1 1-.001 17.454z" fill="#463836"/></svg>