<svg xmlns="http://www.w3.org/2000/svg" viewBox="0 0 64 64" width="512" height="512"><path d="M59 2H5a3 3 0 0 0-3 3v54a3 3 0 0 0 3 3h54a3 3 0 0 0 3-3V5a3 3 0 0 0-3-3zm1 57a1 1 0 0 1-1 1H5a1 1 0 0 1-1-1V12h56zM4 10V5a1 1 0 0 1 1-1h54a1 1 0 0 1 1 1v5z"/><path d="M6.29 6.29A1.033 1.033 0 0 0 6 7a1 1 0 0 0 .08.38.933.933 0 0 0 .21.33 1 1 0 0 0 1.42-1.42 1.047 1.047 0 0 0-1.42 0zm4 0A1.052 1.052 0 0 0 10 7a1.355 1.355 0 0 0 .02.2.636.636 0 0 0 .06.18.757.757 0 0 0 .09.18 1.576 1.576 0 0 0 .12.15 1.014 1.014 0 0 0 1.42 0l.12-.15a.757.757 0 0 0 .09-.18.636.636 0 0 0 .06-.18A1.355 1.355 0 0 0 12 7a1 1 0 0 0-1.71-.71zm4 0a1.014 1.014 0 0 0 0 1.42 1 1 0 0 0 1.42-1.42 1.047 1.047 0 0 0-1.42 0zM58 14H6v14h52zm-2 12H8V16h48zm-32 4H6v28h18zm-2 26H8V32h14zm4-13h32V30H26zm2-11h28v9H28zm-2 26h32V45H26zm2-11h28v9H28z"/></svg>