<svg xmlns="http://www.w3.org/2000/svg" viewBox="0 0 496 496"><path d="M496 248c0 136.8-111.2 248-248 248S0 384.8 0 248 111.2 0 248 0s248 111.2 248 248z" fill="#1bceb8"/><path d="M248 0c136.8 0 248 111.2 248 248S384.8 496 248 496" fill="#09adb5"/><path d="M72.8 72.8c96.8-96.8 253.6-96.8 350.4 0s96.8 253.6 0 350.4" fill="#0dbfba"/><g fill="#eff"><path d="M352.8 256H143.2c-6.4 0-12-1.6-12-8s5.6-8 12-8h209.6c6.4 0 12 1.6 12 8s-5.6 8-12 8z"/><path d="M248 364c-6.4 0-8-4.8-8-12V143.2c0-6.4 1.6-12 8-12s8 4.8 8 12v209.6c0 6.4-1.6 11.2-8 11.2z"/></g></svg>