<svg xmlns="http://www.w3.org/2000/svg" viewBox="0 0 472.807 472.807"><path fill="#010002" d="M338.649 0H134.158c-13.567 0-24.605 10.632-24.605 23.695v425.433c0 13.046 11.03 23.679 24.605 23.679h204.491c13.575 0 24.605-10.632 24.605-23.679V23.687C363.254 10.624 352.223 0 338.649 0zM200.707 36.822H272.1v5.007h-71.393v-5.007zm35.7 411.184c-7.592 0-13.762-6.17-13.762-13.754 0-7.576 6.17-13.737 13.762-13.737 7.592 0 13.762 6.17 13.762 13.737 0 7.585-6.17 13.754-13.762 13.754zM346.46 396.52H126.379V70.337H346.46V396.52z"/></svg>