<svg width="101" height="100" fill="none" xmlns="http://www.w3.org/2000/svg"><path d="M41.017 49.194c-1.707-1.023-3.072-2.9-3.072-5.116 0-3.24 2.73-5.97 5.973-5.97 2.39 0 4.437 1.365 5.46 3.412" stroke="#B22A2E" stroke-width=".8" stroke-miterlimit="10"/><path d="M41.017 57.55c-1.877-.34-3.584-1.193-4.949-2.217l-2.73 2.73-3.584-3.582 2.73-2.729c-1.024-1.535-1.877-3.41-2.218-5.457h-3.754v-4.776h3.754c.341-2.046 1.195-3.752 2.218-5.457l-2.73-2.729 3.584-3.581 2.73 2.729c1.536-1.024 3.413-1.876 5.46-2.217v-3.752h4.95v3.922c2.047.341 3.925 1.194 5.46 2.217l2.73-2.728 3.584 3.581-2.73 2.729c1.195 1.535 1.877 3.41 2.218 5.457" stroke="#B22A2E" stroke-width=".8" stroke-miterlimit="10"/><path d="M75.488 41.52H41.017v27.968h34.47V41.52z" stroke="#55565A" stroke-width=".8" stroke-miterlimit="10"/><path d="M51.94 52.434l-4.608 4.605-2.73-2.9m7.338 6.651l-4.608 4.605-2.73-2.728m11.773-1.365h13.823m-13.823 3.241h7.338m-7.338-12.109h13.823m-13.823 3.24h7.338m-18.6-11.084h13.652m-17.748 3.24h34.47" stroke="#55565A" stroke-width=".8" stroke-miterlimit="10"/><path stroke="#9F9FA0" stroke-width=".5" d="M0 83.701h100M.617 15.182h100M15.682 0v100M86.67 1.852v82.099"/></svg>