<svg width="91" height="63" fill="none" xmlns="http://www.w3.org/2000/svg"><g clip-path="url(#clip0)" stroke-width="1.4" stroke-miterlimit="10"><path d="M73.25 37.962V26.048H52.436m-11.629 0H23.464v36.144H73.25v-14.74" stroke="#333"/><path d="M68.352 37.962H37.135v9.49h38.97v-9.49h-7.957m-4.693 9.49v15.346M49.377 47.452v15.346m7.141-15.346v15.346m16.935-5.654h-9.794" stroke="#333"/><path d="M49.377 57.144h-9.59v-9.692M46.724 31.5c3.155 0 5.713-2.531 5.713-5.654 0-3.122-2.558-5.654-5.713-5.654-3.155 0-5.713 2.532-5.713 5.654 0 3.123 2.557 5.654 5.713 5.654zm-14.486 1.615h-3.877v23.221h3.877v-23.22zm30.809 26.049h-13.67m-17.14-17.972H28.77m3.467 7.472H28.77" stroke="#333"/><path d="M23.464 36.75c-1.633 1.817-3.877 3.23-6.733 3.23-11.835 0-12.039-20.595-12.039-20.595 5.101 0 5.713-5.654 5.713-5.654h12.447s.612 5.654 5.713 5.654c0 0 0 2.826-.613 6.461" stroke="#B22A2E"/><path d="M23.464 42.202c-1.836 1.212-4.08 1.817-6.733 1.817C4.08 44.02.61 28.471.61 19.183v-4.24h4.286c1.224 0 1.632-1.818 1.632-2.02L7.14 9.29h19.792l.409 3.634c0 .404.408 2.02 1.632 2.02h4.285v4.24c0 2.019-.205 4.24-.613 6.663" stroke="#B22A2E"/><path d="M23.464 9.288C30.402 3.836 39.38.606 48.97.606c22.852 0 41.42 18.375 41.42 40.99 0 7.673-2.245 14.942-5.918 21.202" stroke="#B22A2E"/></g><defs><clipPath id="clip0"><path fill="#fff" d="M0 0h91v63H0z"/></clipPath></defs></svg>