<svg width="92" height="74" fill="none" xmlns="http://www.w3.org/2000/svg"><path d="M28.732 38.941l-3.924 3.92 4.703 4.71 3.925-3.92-4.704-4.71z" stroke="#55565A" stroke-width="1.4" stroke-miterlimit="10"/><path d="M23.552 41.597L1 64.15l7.452 7.45 22.551-22.55-7.451-7.452z" stroke="#55565A" stroke-width="1.4" stroke-miterlimit="10"/><path d="M61.718 35.489c1.697 1.082 3.596 1.422 5.858 1.422 6.503 0 11.592-4.87 11.592-11.092 0-6.223-5.09-11.093-11.592-11.093-2.828 0-5.655 1.082-7.635 2.706" stroke="#B22A2E" stroke-width="1.4" stroke-miterlimit="10"/><path d="M51.346 45.267c6.981 13.293 16.475 27.14 16.475 27.14S91 38.62 91 25.881c0-12.74-10.332-22.986-23.178-22.986-6.702 0-12.566 2.77-16.755 7.2" stroke="#B22A2E" stroke-width="1.4" stroke-miterlimit="10"/><path d="M57.966 41.118c7.365-7.364 7.365-19.305 0-26.67-7.365-7.364-19.305-7.364-26.67 0-7.364 7.365-7.364 19.306 0 26.67 7.365 7.365 19.305 7.365 26.67 0z" stroke="#55565A" stroke-width="1.4" stroke-miterlimit="10"/></svg>