<svg width="101" height="100" fill="none" xmlns="http://www.w3.org/2000/svg"><path stroke="#fff" stroke-width=".5" d="M0 83.701h100"/><path transform="matrix(.99995 .01 0 1 .618 15.432)" stroke="#fff" stroke-width=".5" d="M0-.25h100.005"/><path stroke="#fff" stroke-width=".5" d="M15.682 0v100"/><path transform="matrix(.01218 .99993 -1 0 86.42 1.852)" stroke="#fff" stroke-width=".5" d="M0-.25h82.105"/><path d="M40.992 47.699l-2.5 2.497 2.996 2.999 2.5-2.497-2.996-2.999z" stroke="#fff" stroke-width=".8" stroke-miterlimit="10"/><path d="M37.692 49.39L23.329 63.755l4.746 4.746 14.363-14.364-4.746-4.745zM62 45.5c1.081.69 2.29.906 3.73.906 4.143 0 7.384-3.102 7.384-7.065 0-3.963-3.241-7.065-7.383-7.065-1.8 0-3.602.69-4.862 1.723" stroke="#fff" stroke-width=".8" stroke-miterlimit="10"/><path d="M55.395 51.728c4.446 8.466 10.493 17.286 10.493 17.286S80.65 47.494 80.65 39.38s-6.58-14.64-14.762-14.64a14.542 14.542 0 0 0-10.671 4.586" stroke="#fff" stroke-width=".8" stroke-miterlimit="10"/><path d="M59.61 49.086c4.691-4.691 4.691-12.296 0-16.986-4.69-4.691-12.295-4.691-16.986 0-4.69 4.69-4.69 12.295 0 16.986 4.691 4.69 12.296 4.69 16.986 0z" stroke="#fff" stroke-width=".8" stroke-miterlimit="10"/></svg>