<svg viewBox="0 0 61 68" fill="none" xmlns="http://www.w3.org/2000/svg"><g clip-path="url(#clip0)" stroke-width="1.4" stroke-miterlimit="10"><path d="M38.298 54.558c4.146 1.186 5.528-6.128 5.528-6.128 2.961-1.383 3.553-5.337 3.553-5.337 8.686-2.372 5.923-11.86 5.923-11.86s3.948-1.977 1.184-8.105c-.79-1.581-2.369-4.744-3.356-6.128" stroke="#55565A"/><path d="M6.317 21.744c.593-2.57 1.58-6.128 1.58-6.128s-3.159-3.162.394-5.93c0 0 .395-9.29 8.292-7.512 0 0 4.935-2.767 9.87-.988 0 0 5.923.198 7.897 3.163 0 0 4.343-.395 7.699 2.174 0 0 5.922-3.162 8.488-2.372 3.356 1.186 7.305 5.733 8.884 8.5 1.382 2.57 2.566 7.116-4.54 11.07M4.342 30.442a601.377 601.377 0 0 0-3.75 7.116c-.198.593-.198 2.174 4.145 2.174v2.965s-2.171 1.977 0 2.966c0 0-.79 2.57 1.185 2.965 0 0 .79.79.592 1.581-.197.79-2.369 6.523 2.171 7.512 1.975.395 6.318.197 7.502 0 1.184-.198.79 10.081.79 10.081m21.321-28.069v16.011c0 1.78.395 6.523.79 7.71M28.625 42.105s3.75 1.976 5.724-3.954" stroke="#55565A"/><path d="M27.835 30.442s-2.764 7.314 4.935 5.732c0 0 2.566 3.954 7.107 4.349 4.54.395 5.33-3.756 5.33-3.756" stroke="#55565A"/><path d="M7.896 15.616s1.58.989 5.528.593c0 0 .592 3.36 8.686 3.558 0 0 .198 5.535 2.961 7.117 0 0 1.185 5.732 7.107 3.558 5.922-2.175 4.935 2.57 7.7 2.57 2.565.197 3.553-1.582 3.553-1.582M14.806 8.105s1.776-4.151 5.725-2.965c3.948.988 5.527-.989 5.527-.989M22.11 19.57s4.343-.396 6.515 1.186m-5.331-7.71s2.764 2.768 5.33 1.187c2.567-1.582 1.975-4.942 6.713-4.745m-3.751 13.64s2.961 2.372 6.317 0c3.356-2.372 5.922-.988 5.922-.988m-27.44 35.779s2.96-.198 6.12-2.965" stroke="#55565A"/><path d="M23.098 23.721c-8.094-.395-16.583-2.372-16.583-2.372s-1.58 0-1.777 1.779c-.197 1.384-.197 2.372-.197 3.36 0 .989-1.184 2.768-.987 3.559.197.79 4.935 2.767 23.69 3.953" stroke="#B22A2E"/></g><defs><clipPath id="clip0"><path fill="#fff" d="M0 0h61v68H0z"/></clipPath></defs></svg>