<svg width="101" height="100" fill="none" xmlns="http://www.w3.org/2000/svg"><path d="M65.477 40.793H51.959v3.451h13.518v-3.451zm0 7.765H51.959v3.452h13.518v-3.452zm0 7.766H51.959v3.451h13.518v-3.451zm0 7.765H51.959v3.451h13.518v-3.45zM50.522 62.22H38.73m9.49 0v-5.465m-3.162 5.465v-5.465M28.95 72.43h21.571l4.89-4.89m-7.191 4.89v-5.465m-3.162 5.465v-5.465m-3.309 5.465V32.74m8.773 21.427H38.73m9.49 0v-5.465m-3.162 5.465v-5.465m5.464-2.732H38.73m9.49.144v-5.465m-3.162 5.465v-5.465m5.464-2.732H38.73m9.49 0v-5.321m-3.162 5.321v-5.321m-6.041-.144H53.11v4.746h10.354v3.307m.287 3.739v3.739m0 4.314v3.739m0 4.17v3.74M52.966 34.61h8.916M25.069 61.788a3.739 3.739 0 1 0 0-7.478 3.739 3.739 0 0 0 0 7.478zm47.023-33.794h7.19v7.19" stroke="#99999A" stroke-width=".55" stroke-miterlimit="10"/><path d="M79.282 27.994l-9.06 9.06h-4.17l-2.301 2.3M41.462 49.421h-7.621l-6.04 5.896m25.165 14.812h22.577" stroke="#99999A" stroke-width=".55" stroke-miterlimit="10"/><path stroke="#9F9FA0" stroke-width=".5" d="M0 83.701h100M.618 15.182h100M15.682 0v100M86.67 1.852v82.099"/></svg>