<svg width="101" height="100" fill="none" xmlns="http://www.w3.org/2000/svg"><path d="M65.478 40.793H51.96v3.451h13.518v-3.451zm0 7.765H51.96v3.451h13.518v-3.45zm0 7.766H51.96v3.451h13.518v-3.451zm0 7.765H51.96v3.451h13.518v-3.45zM50.522 62.22H38.731m9.49 0v-5.465m-3.163 5.465v-5.465M28.951 72.43h21.57l4.89-4.89m-7.19 4.89v-5.465m-3.163 5.465v-5.465M41.75 72.43V32.74m8.772 21.426H38.731m9.49 0v-5.464m-3.163 5.464v-5.464m5.464-2.732H38.731m9.49.144v-5.465m-3.163 5.465v-5.465m5.464-2.732H38.731m9.49 0v-5.321m-3.163 5.321v-5.321m-6.04-.144H53.11v4.746h10.354v3.307m.288 3.739v3.739m0 4.314v3.739m0 4.17v3.74M52.967 34.61h8.916" stroke="#55565A" stroke-width=".8" stroke-miterlimit="10"/><path d="M25.069 61.788a3.739 3.739 0 1 0 0-7.478 3.739 3.739 0 0 0 0 7.478zm47.024-33.794h7.19v7.19" stroke="#B22A2E" stroke-width=".8" stroke-miterlimit="10"/><path d="M79.282 27.994l-9.06 9.06h-4.17l-2.3 2.3M41.463 49.42H33.84l-6.04 5.897" stroke="#B22A2E" stroke-width=".8" stroke-miterlimit="10"/><path d="M52.967 70.129h22.577" stroke="#55565A" stroke-width=".8" stroke-miterlimit="10"/><path stroke="#9F9FA0" stroke-width=".5" d="M0 83.701h100"/><path transform="matrix(.99995 .01 0 1 .618 15.432)" stroke="#9F9FA0" stroke-width=".5" d="M0-.25h100.005"/><path stroke="#9F9FA0" stroke-width=".5" d="M15.682 0v100"/><path transform="matrix(.01218 .99993 -1 0 86.42 1.852)" stroke="#9F9FA0" stroke-width=".5" d="M0-.25h82.105"/></svg>