<svg width="101" height="92" fill="none" xmlns="http://www.w3.org/2000/svg"><g clip-path="url(#clip0)" stroke-width="1.4" stroke-miterlimit="10"><path d="M76.643 31.678H53.585v6.066h23.058v-6.066zm0 13.817H53.585v6.066h23.058v-6.066zm0 14.153H53.585v6.066h23.058v-6.066zm0 13.817H53.585v6.066h23.058v-6.066zm-25.331-3.707H31.177m16.238 0v-9.436m-5.846 9.436v-9.436" stroke="#333"/><path d="M14.29 87.956h37.022l8.119-8.762m-12.016 8.762V78.52m-5.846 9.436V78.52m-5.521 9.436V17.861m15.264 37.743H31.177m16.238 0v-9.436m-5.846 9.436v-9.436m9.743-5.055H31.177m16.238.001v-9.436m-5.846 9.436v-9.436m9.743-4.718H31.177m16.238 0v-9.436m-5.846 9.436v-9.436m-10.067-.337h24.032v8.425h17.862v5.729m.324 6.739v6.74m0 7.414v6.74m0 7.414v6.74M55.209 20.894h15.588" stroke="#333"/><path d="M7.469 69.421c3.587 0 6.495-3.017 6.495-6.74 0-3.722-2.908-6.74-6.495-6.74S.974 58.96.974 62.681c0 3.723 2.908 6.74 6.495 6.74zM88.01 9.099h12.341v12.806" stroke="#B22A2E"/><path d="M100.351 9.099L84.763 25.275h-7.145l-3.897 4.044M35.723 47.18h-12.99L12.34 57.962" stroke="#B22A2E"/><path d="M55.209 84.25H94.18" stroke="#333"/></g><defs><clipPath id="clip0"><path fill="#fff" d="M0 0h101v92H0z"/></clipPath></defs></svg>