<svg width="101" height="100" fill="none" xmlns="http://www.w3.org/2000/svg"><path stroke="#9F9FA0" stroke-width=".5" d="M0 83.701h100M.617 15.182h100M15.682 0v100M86.67 1.852v82.099"/><g clip-path="url(#clip0)"><path d="M36.377 46.608h4.387V28.042c0-.743.548-1.3 1.28-1.3 2.741 0 7.494-.185 9.687-.185 12.065 0 15.538 5.57 15.538 12.253 0 6.87-4.936 11.882-15.172 11.882h-6.032v6.498h8.408c1.097 0 2.011.928 2.011 2.042 0 1.114-.914 2.042-2.01 2.042h-8.41v6.498c0 1.114-.913 2.042-2.01 2.042h-1.28c-1.096 0-2.01-.928-2.01-2.042v-6.498h-4.388c-1.096 0-2.01-.928-2.01-2.042 0-1.114.914-2.042 2.01-2.042h4.388v-6.498h-4.388c-1.096 0-2.01-.928-2.01-2.042.182-1.114 1.096-2.042 2.01-2.042zm9.688-15.038v15.223h6.215c6.215 0 9.87-2.413 9.87-7.612 0-5.012-2.924-7.611-9.688-7.611-1.645-.186-4.387-.186-6.397 0z" stroke="#55565A" stroke-width=".8" stroke-miterlimit="10"/></g><defs><clipPath id="clip0"><path fill="#fff" transform="translate(34 26)" d="M0 0h34v44H0z"/></clipPath></defs></svg>