<svg width="101" height="100" fill="none" xmlns="http://www.w3.org/2000/svg"><path stroke="#9F9FA0" stroke-width=".5" d="M0 83.701h100M.617 15.182h100M15.682 0v100M86.67 1.852v82.099"/><g clip-path="url(#clip0)" stroke-width=".8" stroke-miterlimit="10"><path d="M56.3 51.39l-3.695-8.407c-2.464.678-5.065-.813-5.75-3.254-.683-2.576.822-5.153 3.286-5.83 2.464-.679 5.065.813 5.75 3.254l3.147 11.525m2.053 7.593l4.244 15.594-6.16-13.831" stroke="#55565A"/><path d="M43.981 63.593l19.027-18.847 9.17-4.34-4.38 9.221L48.772 68.34l-4.791-4.746z" stroke="#B22A2E"/><path d="M53.563 24.407h-4.518v7.05h4.517v-7.05zm-6.571 12.474l-9.581 34.983 12.593-28.881m3.148-5.017c.274.95-.274 1.898-1.232 2.17a1.76 1.76 0 0 1-2.19-1.22c-.41-.95.274-1.899 1.232-2.17a1.76 1.76 0 0 1 2.19 1.22zm-.684-4.203v-2.441m-2.464 2.441v-2.441" stroke="#55565A"/><path d="M66.567 48L50.825 63.593M64.513 45.83L48.635 61.56M64.24 45.966c.547-.542 1.505-.542 2.19 0 .547.542.547 1.492 0 2.17" stroke="#B22A2E"/><path d="M64.513 44.068l.137.136c.41.406.273 1.22-.274 1.762m2.054 2.17c.547-.543 1.368-.678 1.78-.272.136.136.136.136.136.272M52.33 64.95l-4.79-4.747" stroke="#B22A2E"/></g><defs><clipPath id="clip0"><path fill="#fff" transform="translate(37 24)" d="M0 0h36v48H0z"/></clipPath></defs></svg>