<svg width="101" height="100" fill="none" xmlns="http://www.w3.org/2000/svg"><path stroke="#9F9FA0" stroke-width=".5" d="M0 83.701h100M.618 15.182h100M15.682 0v100M86.67 1.852v82.099"/><path d="M59.61 49.086c4.69-4.691 4.69-12.296 0-16.986-4.69-4.691-12.295-4.691-16.986 0-4.69 4.69-4.69 12.295 0 16.986 4.69 4.69 12.295 4.69 16.986 0zm-18.618-1.387l-2.5 2.496 2.996 3 2.5-2.497-2.996-3z" stroke="#99999A" stroke-width=".55" stroke-miterlimit="10"/><path d="M37.692 49.39L23.329 63.754l4.746 4.746 14.363-14.364-4.746-4.746zm24.078-4.018c1.08.69 2.52 1.034 3.96 1.034 4.143 0 7.384-3.102 7.384-7.065 0-3.963-3.241-7.065-7.383-7.065-1.8 0-3.602.69-4.862 1.723" stroke="#99999A" stroke-width=".55" stroke-miterlimit="10"/><path d="M55.395 51.727c4.446 8.467 10.493 17.286 10.493 17.286S80.65 47.494 80.65 39.38c0-8.113-6.58-14.64-14.762-14.64a14.542 14.542 0 0 0-10.671 4.587" stroke="#99999A" stroke-width=".55" stroke-miterlimit="10"/></svg>