<svg width="101" height="100" fill="none" xmlns="http://www.w3.org/2000/svg"><path stroke="#9F9FA0" stroke-width=".5" d="M0 83.701h100M.618 15.182h100M15.682 0v100M86.67 1.852v82.099"/><path d="M67.344 35.6c0-2.24 2.72-3.68 2.72-3.68s2.72 1.44 2.72 3.68v27.04c0 2.24-2.72 3.68-2.72 3.68s-2.72-1.44-2.72-3.68V35.6v0zm-10.721 0c0-2.24 2.72-3.68 2.72-3.68s2.72 1.44 2.72 3.68v27.04c0 2.24-2.72 3.68-2.72 3.68s-2.72-1.44-2.72-3.68V35.6zm-10.56 0c0-2.24 2.72-3.68 2.72-3.68s2.72 1.44 2.72 3.68v27.04c0 2.24-2.72 3.68-2.72 3.68s-2.72-1.44-2.72-3.68V35.6zm-10.719 0c0-2.24 2.72-3.68 2.72-3.68s2.72 1.44 2.72 3.68v27.04c0 2.24-2.72 3.68-2.72 3.68s-2.72-1.44-2.72-3.68V35.6zm37.44 1.28l3.84.96v5.12l-3.84.8m0 12.48l3.84 1.12v5.12l-3.84.8M45.424 38h-4.32m15.519 0h-4.96m15.681 0h-5.12m-16.8 24.16h-4.32m15.519 0h-4.96m15.681 0h-5.12M35.343 37.84h-4.96c-1.44 0-2.72-1.28-2.72-2.72V30m7.681 32.16h-4.32c-1.6 0-2.72 1.28-2.72 2.72V70" stroke="#99999A" stroke-width=".55" stroke-miterlimit="10"/></svg>