<svg width="80" height="97" fill="none" xmlns="http://www.w3.org/2000/svg"><path d="M21.107 25.582c0-8.172 6.468-16.344 14.298-16.344s14.298 7.817 14.298 16.344m-27.576 6.041c0 10.304 5.788 18.831 13.277 18.831 7.149 0 13.277-8.527 13.277-18.831" stroke="#333" stroke-width="1.4" stroke-miterlimit="10"/><path d="M18.042 24.517c0 3.553 7.83 6.395 17.362 6.395 9.532 0 17.361-2.842 17.361-6.395m-14.977-.356v-9.948c1.02-1.066 2.042-2.488 2.383-4.264m-7.15 14.212v-9.948c-1.021-.711-2.042-2.488-2.383-4.264m11.235 38.018v6.751l-6.809 7.106-7.49-7.817v-6.75M16 58.982v25.582" stroke="#333" stroke-width="1.4" stroke-miterlimit="10"/><path d="M23.49 55.429v27.714h23.489V55.429l-5.107-2.488" stroke="#333" stroke-width="1.4" stroke-miterlimit="10"/><path d="M4.425 84.209V70.707c0-4.974 3.745-7.462 5.788-8.883 2.042-1.421 17.702-8.527 17.702-8.527m42.213-11.015H58.213v5.33h11.915v-5.33z" stroke="#333" stroke-width="1.4" stroke-miterlimit="10"/><path d="M73.873 45.124h3.063v38.019H51.064V45.124h3.745" stroke="#333" stroke-width="1.4" stroke-miterlimit="10"/><path d="M57.19 52.586h13.958m-13.958 5.33h13.958M57.19 62.89h13.958M57.19 68.22h13.958m2.384 10.304h-7.149" stroke="#B22A2E" stroke-width="1.4" stroke-miterlimit="10"/></svg>