<svg xmlns="http://www.w3.org/2000/svg" xmlns:xlink="http://www.w3.org/1999/xlink"><defs><clipPath id="a"><path fill="#fff" d="M.369 0h168.04v168.04H.369z"/></clipPath><clipPath id="icon / sale-fill__a"><path fill="#fff" transform="translate(.02)" d="M0 0h24v24H0z"/></clipPath><clipPath id="Money"><path fill="#fff" d="M0 0h24v24H0z"/></clipPath></defs><symbol id="icon-arrow-2"><g fill="none"><path d="M136.354 4.036a.5.5 0 000-.707L133.172.147a.501.501 0 00-.708.707l2.829 2.828-2.829 2.829a.5.5 0 00.708.707l3.182-3.182zM0 3.682v.5h136v-1H0v.5z" fill="currentColor"/></g></symbol><symbol id="icon-arrow"><g fill="none"><path d="M136.354 4.036a.5.5 0 000-.707L133.172.147a.501.501 0 00-.708.707l2.829 2.828-2.829 2.829a.5.5 0 00.708.707l3.182-3.182zM0 3.682v.5h136v-1H0v.5z" fill="currentColor"/></g></symbol><symbol id="icon-cancel"><g fill="none"><path d="M7.999 15.167a6.667 6.667 0 100-13.333 6.667 6.667 0 000 13.333zM10 6.5l-4 4m0-4l4 4" stroke="#9FA1A3" stroke-width="1.333" stroke-linecap="round" stroke-linejoin="round"/></g></symbol><symbol id="icon-check"><g fill="none"><path d="M7.999 15.167a6.667 6.667 0 100-13.333 6.667 6.667 0 000 13.333z" stroke="#42474D" stroke-width="1.333" stroke-linecap="round" stroke-linejoin="round"/><path d="M6 8.5l1.333 1.333L10 7.166" stroke="#42474D" stroke-width="1.333" stroke-linecap="round" stroke-linejoin="round"/></g></symbol><symbol id="icon-clock"><g fill="none"><path d="M7.333 14a6.667 6.667 0 100-13.333 6.667 6.667 0 000 13.333z" stroke="#42474C" stroke-width="1.333" stroke-linecap="round" stroke-linejoin="round"/><path d="M9.33 10.001L7.72 8.392c-.25-.25-.39-.589-.39-.943V3.335" stroke="#42474C" stroke-width="1.333" stroke-linecap="round" stroke-linejoin="round"/></g></symbol><symbol id="icon-clubs"><g fill="none"><path d="M14 3a1 1 0 00-1.447-.894l-8 4A1 1 0 004 7v13H3a1 1 0 100 2h18a1 1 0 100-2h-1v-9a1 1 0 00-.445-.832L15 7.131V20h-1V3z" fill="#42474D"/></g></symbol><symbol id="icon-dzen"><g fill="none"><g clip-path="url(#a)"><path d="M84.034 168.01h.67c33.364 0 52.73-3.359 66.448-16.677 13.987-14.127 17.217-33.624 17.217-66.858v-.94c0-33.224-3.23-52.59-17.217-66.858C137.444 3.359 117.938 0 84.714 0h-.67C50.68 0 31.304 3.36 17.586 16.677 3.598 30.805.369 50.311.369 83.535v.94c0 33.224 3.23 52.591 17.217 66.858 13.587 13.318 33.094 16.677 66.448 16.677z" fill="#202022"/><path d="M148.369 82.73c0-.64-.52-1.17-1.16-1.2-22.963-.869-36.938-3.798-46.715-13.575-9.797-9.797-12.716-23.783-13.586-46.795-.02-.64-.55-1.16-1.2-1.16H83.03c-.64 0-1.17.52-1.2 1.16-.87 23.002-3.788 36.998-13.585 46.795-9.787 9.787-23.753 12.706-46.716 13.576-.64.02-1.16.55-1.16 1.2v2.679c0 .64.52 1.17 1.16 1.2 22.963.869 36.939 3.798 46.716 13.575 9.777 9.777 12.696 23.723 13.576 46.645.02.64.55 1.16 1.2 1.16h2.688c.64 0 1.17-.52 1.2-1.16.88-22.922 3.799-36.868 13.576-46.645 9.787-9.787 23.752-12.706 46.715-13.576.64-.02 1.16-.55 1.16-1.2V82.73h.01z" fill="#fff"/></g></g></symbol><symbol id="icon-info"><g fill="none"><path d="M12 22c5.523 0 10-4.477 10-10S17.523 2 12 2 2 6.477 2 12s4.477 10 10 10zm0-6v-4m0-4h.01" stroke="#42474D" stroke-width="2" stroke-linecap="round" stroke-linejoin="round"/></g></symbol><symbol id="icon-lock"><g fill="none"><path d="M16.087 9.765h-.658l-.004-3.283A6.492 6.492 0 008.936 0a6.492 6.492 0 00-6.482 6.489L2.46 9.77h-.233A2.23 2.23 0 000 12l.002 9.774C.002 23.004 1 24 2.23 24l13.861-.007c1.23 0 2.227-.998 2.226-2.228l-.002-9.774c0-1.23-.998-2.227-2.228-2.226zm-6.319 7.502l.001 2.768H8.76l-.001-2.768a1.453 1.453 0 01.503-2.818 1.453 1.453 0 01.506 2.817zm3.271-7.5l-8.19.003-.004-3.283A4.1 4.1 0 018.938 2.39a4.1 4.1 0 014.097 4.093l.004 3.283z" fill="currentColor"/></g></symbol><symbol id="icon-menu-item"><g fill="none"><path d="M3.332 12.167a.833.833 0 01-.65-1.359l8.25-8.5a.417.417 0 01.717.384l-1.6 5.016a.834.834 0 00.783 1.125h5.834a.833.833 0 01.65 1.359l-8.25 8.5a.416.416 0 01-.717-.384l1.6-5.016a.833.833 0 00-.783-1.125H3.332z" fill="currentColor"/></g></symbol><symbol id="icon-menu-list"><g fill="none"><path d="M5.02 14a.968.968 0 00.713-.288A.967.967 0 006.02 13a.97.97 0 00-.287-.713A.97.97 0 005.02 12a.97.97 0 00-.713.287.97.97 0 00-.287.713c0 .283.095.52.287.712.192.192.43.288.713.288zm0-4a.968.968 0 00.713-.288A.967.967 0 006.02 9a.97.97 0 00-.287-.713A.97.97 0 005.02 8a.97.97 0 00-.713.287A.97.97 0 004.02 9c0 .283.095.52.287.712.192.192.43.288.713.288zm0-4a.968.968 0 00.713-.288A.967.967 0 006.02 5a.97.97 0 00-.287-.713A.97.97 0 005.02 4a.97.97 0 00-.713.287A.97.97 0 004.02 5c0 .283.095.52.287.712.192.192.43.288.713.288zm3 8h6v-2h-6v2zm0-4h6V8h-6v2zm0-4h6V4h-6v2zm-6 12a1.93 1.93 0 01-1.413-.587A1.928 1.928 0 01.02 16V2C.02 1.45.215.979.607.587A1.928 1.928 0 012.02 0h14c.55 0 1.02.196 1.413.587.39.392.587.863.587 1.413v14a1.93 1.93 0 01-.587 1.413A1.928 1.928 0 0116.02 18h-14z" fill="currentColor"/></g></symbol><symbol id="icon-menu-point"><g fill="none"><path d="M7.52 9.5c.48 0 .893-.171 1.236-.514.342-.343.514-.755.514-1.236s-.172-.893-.514-1.236A1.687 1.687 0 007.52 6c-.482 0-.894.171-1.236.514A1.686 1.686 0 005.77 7.75c0 .481.171.893.514 1.236.342.342.754.514 1.236.514zm0 8.75c-2.348-1.998-4.102-3.854-5.261-5.568C1.099 10.97.519 9.383.519 7.925c0-2.188.704-3.93 2.112-5.228C4.038 1.399 5.667.75 7.52.75c1.852 0 3.481.649 4.888 1.947 1.408 1.298 2.112 3.04 2.112 5.228 0 1.458-.58 3.044-1.74 4.757-1.159 1.714-2.913 3.57-5.26 5.568z" fill="currentColor"/></g></symbol><symbol id="icon-menu-sale"><g fill="none"><g clip-path="url(#icon / sale-fill__a)"><path fill-rule="evenodd" clip-rule="evenodd" d="M9.424 2.897a4 4 0 015.02-.136l.17.136.376.32a2 2 0 00.96.45l.178.022.493.04a4 4 0 013.648 3.468l.021.2.04.494a2 2 0 00.36.996l.11.142.322.376a4 4 0 01.136 5.02l-.136.17-.32.376a2 2 0 00-.45.96l-.023.178-.039.493a4 4 0 01-3.468 3.648l-.2.02-.494.04a2 2 0 00-.996.36l-.142.112-.377.32a4 4 0 01-5.02.137l-.169-.136-.376-.321a2 2 0 00-.96-.45l-.178-.021-.493-.04a4 4 0 01-3.648-3.468l-.02-.2-.04-.494a2 2 0 00-.36-.996l-.112-.142-.32-.377a4 4 0 01-.137-5.02l.136-.17.32-.375a2 2 0 00.45-.96l.022-.178.04-.493A4 4 0 017.216 3.75l.2-.021.494-.04a2 2 0 00.996-.36l.142-.111.376-.32v-.001zM14.52 13a1.5 1.5 0 100 3 1.5 1.5 0 000-3zm-.207-4.707l-6 6a1 1 0 101.414 1.414l6-6a1 1 0 00-1.414-1.414zM9.52 8a1.5 1.5 0 100 3 1.5 1.5 0 000-3z" fill="currentColor"/></g></g></symbol><symbol id="icon-menu-subscr"><g fill="none"><path d="M1.352 10.667a.833.833 0 01-.65-1.359l8.25-8.5a.417.417 0 01.716.384l-1.6 5.016a.833.833 0 00.784 1.125h5.833a.833.833 0 01.65 1.359l-8.25 8.5a.416.416 0 01-.717-.384l1.6-5.016a.833.833 0 00-.783-1.125H1.352z" fill="currentColor"/></g></symbol><symbol id="icon-menu-user"><g fill="none"><path d="M1.535 18.5s-1.5 0-1.5-1.5 1.5-6 9-6 9 4.5 9 6-1.5 1.5-1.5 1.5h-15zm7.5-9a4.5 4.5 0 100-9 4.5 4.5 0 000 9z" fill="currentColor"/></g></symbol><symbol id="icon-money"><g fill="none"><g clip-path="url(#icon / money__a)"><path d="M24 3.738c0 .844-.672 1.602-1.797 2.254a14.289 14.289 0 01-5.734 1.453 5.97 5.97 0 00-.533-.235 18.474 18.474 0 00-6.933-1.218c-.39 0-.774 0-1.152.027l-.054-.027C6.672 5.362 6 4.582 6 3.738 6 1.666 10.032 0 15.003 0 19.973 0 24 1.666 24 3.738zM7.53 7.546c.48-.032.971-.053 1.473-.053 2.912 0 5.498.576 7.146 1.474 1.184.635 1.851 1.43 1.851 2.28a1.602 1.602 0 01-.096.534 3.41 3.41 0 01-1.637 1.682h-.038c-1.642.914-4.266 1.506-7.2 1.506a16.147 16.147 0 01-6.933-1.367 2.892 2.892 0 01-.256-.139C.672 12.871 0 12.096 0 11.247c0-1.629 2.501-3.028 6-3.535.49-.075 1.003-.129 1.53-.166zm11.97 3.701a3.545 3.545 0 00-1.131-2.505 15.813 15.813 0 003.573-.961c.74-.297 1.434-.7 2.059-1.196v1.677c0 .908-.773 1.74-2.053 2.387-.791.38-1.623.667-2.48.854v-.25l.032-.006zM18 15.738c0 .844-.672 1.602-1.797 2.254l-.262.133c-1.648.839-4.149 1.368-6.933 1.368-2.95.016-5.541-.55-7.21-1.485C.671 17.378 0 16.598 0 15.738v-1.644a8.2 8.2 0 002.059 1.196 18.53 18.53 0 006.933 1.217 18.521 18.521 0 006.933-1.217 9.122 9.122 0 001.067-.534c.28-.16.55-.338.805-.534l.203-.16v1.676zm1.499 0v-2.702a14.608 14.608 0 002.442-.748A8.12 8.12 0 0024 11.087v1.666a2.073 2.073 0 01-.699 1.447c-.762.764-2.106 1.394-3.813 1.805.005-.08.01-.165.01-.267zM9.003 21.015a18.522 18.522 0 006.933-1.218c.74-.297 1.434-.7 2.059-1.196v1.66c0 2.073-4.032 3.739-8.998 3.739C4.032 24 0 22.334 0 20.262V18.6a8.367 8.367 0 002.059 1.196 18.533 18.533 0 006.944 1.218z" fill="#42474D"/></g></g></symbol><symbol id="icon-personal"><g fill="none"><path d="M12 12c-1.375 0-2.552-.49-3.531-1.469C7.489 9.552 7 8.375 7 7s.49-2.552 1.469-3.531C9.448 2.489 10.625 2 12 2s2.552.49 3.531 1.469C16.511 4.448 17 5.625 17 7s-.49 2.552-1.469 3.531C14.552 11.511 13.375 12 12 12zM4.5 22a2.407 2.407 0 01-1.765-.734A2.408 2.408 0 012 19.5v-1c0-.708.183-1.36.547-1.954A3.642 3.642 0 014 15.188a18.583 18.583 0 013.938-1.454A17.22 17.22 0 0112 13.25c1.375 0 2.73.161 4.063.484 1.333.323 2.645.808 3.937 1.454a3.642 3.642 0 011.453 1.358c.364.594.547 1.246.547 1.954v1a2.41 2.41 0 01-.734 1.766A2.41 2.41 0 0119.5 22h-15z" fill="#42474D"/></g></symbol><symbol id="icon-plus"><g fill="none"><path d="M8.332 20h23.333M20 8.334v23.333" stroke="#9FA1A3" stroke-width="3.333" stroke-linecap="round" stroke-linejoin="round"/></g></symbol><symbol id="icon-rub-bold" viewBox="0 0 256 256"><g fill="#42474d"><path d="M148 156a64 64 0 000-128H88a12 12 0 00-12 12v92H56a12 12 0 000 24h20v16H56a12 12 0 000 24h20v20a12 12 0 0024 0v-20h44a12 12 0 000-24h-44v-16zM100 52h48a40 40 0 010 80h-48z"/></g></symbol><symbol id="icon-telegram" viewBox="0 0 32 32"><path d="M22.122 10.04h.022c.209 0 .403.065.562.177l-.003-.002a.632.632 0 01.213.403v.003a2.553 2.553 0 01.024.598v-.009c-.225 2.369-1.201 8.114-1.697 10.766-.21 1.123-.623 1.499-1.023 1.535-.869.081-1.529-.574-2.371-1.126-1.318-.865-2.063-1.403-3.342-2.246-1.479-.973-.52-1.51.322-2.384.221-.23 4.052-3.715 4.127-4.031a.308.308 0 00-.07-.265.34.34 0 00-.185-.053.364.364 0 00-.128.024l.002-.001q-.198.045-6.316 4.174a2.805 2.805 0 01-1.619.599h-.006a10.542 10.542 0 01-2.401-.573l.074.024c-.938-.306-1.683-.467-1.619-.985q.051-.404 1.114-.827 6.548-2.853 8.733-3.761a22.627 22.627 0 015.429-2.01l.157-.031zM15.93 1.025C7.628 1.045.905 7.78.905 16.085c0 8.317 6.742 15.06 15.06 15.06s15.06-6.742 15.06-15.06c0-8.305-6.723-15.04-15.023-15.06h-.072z"/></symbol><symbol id="icon-train"><g fill="none"><path d="M2.86 2.702A.703.703 0 002.155 2H.703A.703.703 0 000 2.702v9.366c0 .388.315.703.703.703h1.453a.703.703 0 00.703-.703V9.024h1.407V5.746H2.859V2.702zM23.297 2h-1.453a.703.703 0 00-.703.702v3.044h-1.407v3.278h1.407v3.044c0 .388.314.703.703.703h1.453a.703.703 0 00.703-.703V2.702A.703.703 0 0023.297 2zm-6.551 1.873c-.874 0-1.582.708-1.582 1.58a1.581 1.581 0 00-3.164 0 1.581 1.581 0 00-3.164 0 1.581 1.581 0 00-3.164 0v2.952a3.264 3.264 0 011.406-.317h4.687a2.11 2.11 0 012.11 2.107v.234c0 .15-.01.3-.027.446a1.581 1.581 0 001.316-1.558 1.581 1.581 0 003.164 0V5.454a1.58 1.58 0 00-1.582-1.58z" fill="#42474D"/><path d="M15.164 11.848a2.972 2.972 0 01-1.582.454h-.024a3.285 3.285 0 01-2.964 1.874h-.938v.214a.716.716 0 01-.669.721.703.703 0 01-.737-.701v-.937c0-.388.315-.702.703-.702h1.172a2.343 2.343 0 002.344-2.342v-.234a.703.703 0 00-.704-.702H7.078a1.874 1.874 0 00-1.875 1.873v3.044a3.518 3.518 0 003.281 3.504v2.584c0 .387.315.702.703.702h5.625a.703.703 0 00.703-.702V17.85a3.52 3.52 0 002.813-3.441v-2.562a2.971 2.971 0 01-1.582.454c-.58 0-1.123-.166-1.582-.454z" fill="#42474D"/></g></symbol><symbol id="icon-user" viewBox="0 0 24 24"><g fill="none"><path opacity=".15" d="M12 11a4 4 0 100-8 4 4 0 000 8z" fill="#000"/><path d="M16 15H8a4 4 0 00-4 4v2h16v-2a4 4 0 00-4-4zM12 11a4 4 0 100-8 4 4 0 000 8z" stroke="#000" stroke-width="1.5" stroke-linecap="round" stroke-linejoin="round"/></g></symbol><symbol id="icon-variants"><g fill="none"><path d="M8.944 11.297H3.353A2.356 2.356 0 011 8.944V3.353A2.356 2.356 0 013.353 1h5.591a2.356 2.356 0 012.353 2.353v5.591a2.356 2.356 0 01-2.353 2.353zM3.353 1.93c-.786 0-1.424.638-1.424 1.424v5.591c0 .787.638 1.424 1.424 1.424h5.591c.787 0 1.424-.637 1.424-1.424V3.353c0-.786-.637-1.424-1.424-1.424H3.353zM8.944 23H3.353A2.356 2.356 0 011 20.647v-5.591a2.356 2.356 0 012.353-2.353h5.591a2.356 2.356 0 012.353 2.353v5.591A2.356 2.356 0 018.944 23zm-5.591-9.368c-.786 0-1.424.637-1.424 1.424v5.591c0 .786.638 1.424 1.424 1.424h5.591c.787 0 1.424-.638 1.424-1.424v-5.591c0-.787-.637-1.424-1.424-1.424H3.353zM20.647 23h-5.591a2.356 2.356 0 01-2.353-2.353v-5.591a2.356 2.356 0 012.353-2.353h5.591A2.356 2.356 0 0123 15.056v5.591A2.356 2.356 0 0120.647 23zm-5.591-9.368c-.787 0-1.424.637-1.424 1.424v5.591c0 .786.637 1.424 1.424 1.424h5.591c.786 0 1.424-.638 1.424-1.424v-5.591c0-.787-.638-1.424-1.424-1.424h-5.591zM20.647 1h-5.591a2.356 2.356 0 00-2.353 2.353v5.591a2.356 2.356 0 002.353 2.353h5.591A2.356 2.356 0 0023 8.944V3.353A2.356 2.356 0 0020.647 1zm.483 3.625L17.356 8.4a.467.467 0 01-.656 0l-2.044-2.043a.462.462 0 010-.656.462.462 0 01.657 0l1.715 1.715 3.446-3.446a.462.462 0 01.656 0 .461.461 0 010 .656z" fill="#42474D"/></g></symbol><symbol id="icon-vk" viewBox="0 0 97.75 97.75"><path d="M48.875 0C21.883 0 0 21.882 0 48.875S21.883 97.75 48.875 97.75 97.75 75.868 97.75 48.875 75.867 0 48.875 0zm24.792 54.161c2.278 2.225 4.688 4.319 6.733 6.774.906 1.086 1.76 2.209 2.41 3.472.928 1.801.09 3.776-1.522 3.883l-10.013-.002c-2.586.214-4.644-.829-6.379-2.597-1.385-1.409-2.67-2.914-4.004-4.371-.545-.598-1.119-1.161-1.803-1.604-1.365-.888-2.551-.616-3.333.81-.797 1.451-.979 3.059-1.055 4.674-.109 2.361-.821 2.978-3.19 3.089-5.062.237-9.865-.531-14.329-3.083-3.938-2.251-6.986-5.428-9.642-9.025-5.172-7.012-9.133-14.708-12.692-22.625-.801-1.783-.215-2.737 1.752-2.774 3.268-.063 6.536-.055 9.804-.003 1.33.021 2.21.782 2.721 2.037 1.766 4.345 3.931 8.479 6.644 12.313.723 1.021 1.461 2.039 2.512 2.76 1.16.796 2.044.533 2.591-.762.35-.823.501-1.703.577-2.585.26-3.021.291-6.041-.159-9.05-.28-1.883-1.339-3.099-3.216-3.455-.956-.181-.816-.535-.351-1.081.807-.944 1.563-1.528 3.074-1.528l11.313-.002c1.783.35 2.183 1.15 2.425 2.946l.01 12.572c-.021.695.349 2.755 1.597 3.21 1 .33 1.66-.472 2.258-1.105 2.713-2.879 4.646-6.277 6.377-9.794.764-1.551 1.423-3.156 2.063-4.764.476-1.189 1.216-1.774 2.558-1.754l10.894.013c.321 0 .647.003.965.058 1.836.314 2.339 1.104 1.771 2.895-.894 2.814-2.631 5.158-4.329 7.508-1.82 2.516-3.761 4.944-5.563 7.471-1.656 2.31-1.525 3.473.531 5.479z"/></symbol></svg>