<svg width="27" height="16" fill="none" xmlns="http://www.w3.org/2000/svg"><path fill="currentColor" fill-rule="evenodd" clip-rule="evenodd" d="M26.318 1.152c.18-.596 0-1.035-.86-1.035h-2.844c-.723 0-1.057.379-1.238.797 0 0-1.446 3.49-3.494 5.758-.663.658-.964.866-1.326.866-.18 0-.452-.208-.452-.806v-5.58c0-.717-.2-1.035-.802-1.035h-4.471c-.452 0-.723.332-.723.647 0 .678 1.024.836 1.13 2.745v4.148c0 .91-.166 1.075-.528 1.075-.964 0-3.31-3.507-4.701-7.52-.27-.78-.543-1.095-1.27-1.095H1.895C1.082.117.92.496.92.914c0 .745.964 4.445 4.49 9.34 2.35 3.342 5.66 5.154 8.673 5.154 1.808 0 2.031-.402 2.031-1.096v-2.526c0-.805.172-.966.744-.966.423 0 1.145.21 2.833 1.821 1.928 1.91 2.245 2.767 3.33 2.767h2.843c.813 0 1.22-.402.986-1.197-.258-.791-1.178-1.939-2.399-3.301-.663-.776-1.657-1.611-1.96-2.03-.42-.536-.3-.775 0-1.252 0 0 3.467-4.834 3.827-6.476h.001z"/></svg>