<svg width="21" height="21" fill="none" xmlns="http://www.w3.org/2000/svg"><path d="M10.5 10.5c-1.42 0-2.637-.506-3.649-1.518C5.84 7.971 5.334 6.754 5.334 5.333c0-1.42.506-2.637 1.517-3.649C7.863.673 9.08.167 10.501.167c1.42 0 2.636.506 3.648 1.517 1.012 1.012 1.518 2.229 1.518 3.65 0 1.42-.506 2.637-1.518 3.648C13.138 9.994 11.921 10.5 10.5 10.5zm7.75 10.333H2.75c-.71 0-1.318-.252-1.824-.758a2.489 2.489 0 01-.759-1.825v-1.033c0-.732.189-1.405.566-2.02a3.764 3.764 0 011.5-1.403 19.205 19.205 0 014.07-1.502 17.74 17.74 0 014.197-.5c1.421 0 2.82.166 4.198.5 1.378.334 2.734.835 4.069 1.502a3.764 3.764 0 011.5 1.404c.378.614.567 1.287.567 2.019v1.033c0 .71-.253 1.319-.758 1.825a2.491 2.491 0 01-1.826.758zM2.75 18.25h15.5v-1.033c0-.237-.059-.452-.177-.646a1.264 1.264 0 00-.468-.452 16.865 16.865 0 00-3.52-1.309 15.004 15.004 0 00-7.17 0 16.864 16.864 0 00-3.519 1.309 1.253 1.253 0 00-.646 1.098v1.033zM10.5 7.917c.71 0 1.32-.253 1.825-.76a2.486 2.486 0 00.759-1.824c0-.71-.253-1.318-.759-1.823a2.489 2.489 0 00-1.825-.76c-.71 0-1.318.253-1.824.76a2.484 2.484 0 00-.759 1.823c0 .71.253 1.319.76 1.824a2.48 2.48 0 001.823.76z" fill="#42474D"/></svg>