<svg viewBox="0 0 53 29" fill="none" xmlns="http://www.w3.org/2000/svg"><circle cx="25.438" cy="6.854" r="6.131" stroke="#42474D" stroke-width="1.447"/><circle cx="10.261" cy="8.618" r="5.641" stroke="#42474D" stroke-width="1.447"/><path d="M5.381 27.417h10.27v-9.802c.253-1.363.64-2.052 1.733-2.927H4.75c-2.527 0-3.58 2.546-3.79 3.819v8.91h4.422zm0 0V21.69" stroke="#42474D" stroke-width="1.369"/><circle r="5.641" transform="matrix(-1 0 0 1 42.915 8.618)" stroke="#42474D" stroke-width="1.447"/><path d="M47.795 27.417h-10.27v-9.802c-.253-1.363-.64-2.052-1.733-2.927h12.634c2.527 0 3.58 2.546 3.79 3.819v8.91h-4.421zm0 0V21.69" stroke="#42474D" stroke-width="1.369"/><path d="M32.324 27.417h4.865v-9.596c0-2.742-2.317-3.884-3.475-4.112H19.816c-2.78 0-3.938 2.741-4.17 4.112v9.596h4.865m11.813 0v-6.169m0 6.17H20.511m0 0v-6.17" stroke="#42474D" stroke-width="1.447"/></svg>