<svg viewBox="0 0 31 19" fill="none" xmlns="http://www.w3.org/2000/svg"><path fill="currentColor" fill-rule="evenodd" clip-rule="evenodd" d="M30.15 1.555c.213-.702 0-1.219-1.022-1.219h-3.375c-.859 0-1.255.446-1.47.939 0 0-1.716 4.109-4.147 6.778-.787.774-1.145 1.02-1.574 1.02-.215 0-.538-.246-.538-.95V1.556c0-.844-.236-1.219-.951-1.219h-5.307c-.537 0-.86.39-.86.762 0 .799 1.217.984 1.342 3.231v4.884c0 1.07-.197 1.265-.626 1.265-1.145 0-3.928-4.129-5.58-8.852-.32-.92-.645-1.29-1.507-1.29H1.157C.193.336 0 .782 0 1.275c0 .876 1.144 5.232 5.33 10.994 2.79 3.934 6.717 6.067 10.295 6.067 2.146 0 2.411-.473 2.411-1.29v-2.973c0-.948.203-1.137.883-1.137.502 0 1.36.247 3.362 2.143 2.289 2.25 2.666 3.257 3.954 3.257h3.375c.964 0 1.448-.473 1.17-1.41-.306-.93-1.399-2.281-2.848-3.884-.787-.913-1.967-1.897-2.326-2.39-.5-.63-.357-.912 0-1.474 0 0 4.115-5.69 4.543-7.623h.001z"/></svg>