<svg xmlns="http://www.w3.org/2000/svg" xmlns:xlink="http://www.w3.org/1999/xlink"><symbol id="icon-chek" viewBox="0 0 16 16"><path fill-rule="evenodd" clip-rule="evenodd" d="M14 4.022a1 1 0 01-.001 1.414l-6.53 6.53a1 1 0 01-1.384.03L2.825 9.01a1 1 0 011.352-1.474l2.201 2.017a.5.5 0 00.692-.015l5.515-5.515a1 1 0 011.414 0z" fill="#64B851"/></symbol><symbol id="icon-close" viewBox="0 0 24 24"><path clip-rule="evenodd" d="M6.795 5.308a1.052 1.052 0 10-1.487 1.487L10.513 12l-5.205 5.205a1.052 1.052 0 101.487 1.487L12 13.487l5.205 5.205a1.052 1.052 0 001.487-1.487L13.487 12l5.205-5.205a1.051 1.051 0 10-1.487-1.487L12 10.513 6.795 5.308z"/></symbol><symbol id="icon-key" viewBox="0 0 16 16"><path fill-rule="evenodd" clip-rule="evenodd" d="M9.683 7.563a4 4 0 10-2.122 2.12l1.127 1.128a.25.25 0 00.226.069l1.269-.254a.25.25 0 01.294.294l-.207 1.031a.25.25 0 00.294.295l1.034-.206a.25.25 0 01.293.294l-.253 1.27a.25.25 0 00.068.225l.141.141a.5.5 0 00.283.142l.99.141a1 1 0 001.132-1.131l-.142-.99a.5.5 0 00-.141-.283L9.683 7.563zM5.5 7a1.5 1.5 0 100-3 1.5 1.5 0 000 3z" fill="#383736"/></symbol></svg>