<svg width="58" height="70" fill="none" xmlns="http://www.w3.org/2000/svg"><path d="M36.438 30.319a7.275 7.275 0 00-.734-.039c-2.563 0-5.115 1.202-6.703 3.112-1.59-1.91-4.142-3.112-6.702-3.112-.254 0-.5.015-.738.039-2.885.31-4.915 1.284-6.206 2.979-1.28 1.68-1.698 3.957-1.24 6.769.67 4.078 5.951 9.045 10.194 13.037l.097.091c1.182 1.114 2.203 2.074 2.868 2.79.09.1.9.987 1.787.987.893 0 1.685-.9 1.756-.986.708-.767 1.854-1.852 2.986-2.924 4.197-3.98 9.42-8.934 10.08-12.997.461-2.81.047-5.086-1.235-6.767-1.29-1.695-3.32-2.67-6.21-2.98z" fill="#fff"/><path d="M49.578 22.5l3.13-3.302a2.17 2.17 0 00-.082-3.068l-2.625-2.49a2.17 2.17 0 00-3.069.083l-3.58 3.776a28.025 28.025 0 00-9.302-3.476V9.405h4.266a2.17 2.17 0 002.17-2.17V2.17A2.17 2.17 0 0038.316 0H19.685a2.17 2.17 0 00-2.17 2.17v5.065a2.17 2.17 0 002.17 2.17h4.205v4.629a28.028 28.028 0 00-9.418 3.57c-.022-.022-.042-.046-.065-.068l-4.07-3.857a2.17 2.17 0 00-3.068.082L4.78 16.387a2.17 2.17 0 00.082 3.068l3.397 3.22C3.622 27.705.784 34.42.784 41.784.784 57.342 13.442 70 29 70c15.559 0 28.216-12.658 28.216-28.216 0-7.451-2.904-14.235-7.638-19.284zM29 64.938c-12.767 0-23.154-10.387-23.154-23.154 0-12.768 10.387-23.155 23.154-23.155 12.768 0 23.154 10.387 23.154 23.155 0 12.767-10.387 23.154-23.154 23.154z" fill="#fff"/></svg>