<svg width="33" height="33" fill="none" xmlns="http://www.w3.org/2000/svg"><path d="M16.5 0C25.613 0 33 7.387 33 16.5S25.613 33 16.5 33a16.424 16.424 0 01-8.3-2.236L.008 33l2.23-8.197A16.423 16.423 0 010 16.5C0 7.387 7.387 0 16.5 0zm-5.623 8.745l-.33.013c-.214.013-.423.07-.614.165a2.134 2.134 0 00-.485.376c-.198.187-.31.349-.43.505a4.505 4.505 0 00-.935 2.769c.004.809.215 1.595.545 2.331.675 1.489 1.785 3.064 3.25 4.525.354.351.7.704 1.073 1.033a15.588 15.588 0 006.336 3.375l.937.144c.305.017.61-.007.918-.021.48-.025.95-.155 1.374-.382a7.48 7.48 0 00.632-.363s.07-.046.206-.148a3.79 3.79 0 00.545-.475 1.91 1.91 0 00.346-.498c.129-.27.258-.783.31-1.21.04-.327.028-.505.023-.615-.006-.177-.153-.36-.313-.438l-.96-.43s-1.436-.626-2.314-1.025a.82.82 0 00-.29-.068.796.796 0 00-.624.21c-.008-.003-.119.09-1.312 1.536a.577.577 0 01-.607.215 2.357 2.357 0 01-.315-.11c-.204-.085-.275-.118-.416-.177a9.94 9.94 0 01-2.598-1.655c-.208-.182-.401-.38-.6-.571a10.39 10.39 0 01-1.682-2.093l-.098-.156a1.517 1.517 0 01-.168-.339c-.063-.242.1-.437.1-.437s.402-.439.588-.676c.181-.231.335-.456.434-.616.195-.313.256-.635.153-.884-.462-1.129-.94-2.252-1.432-3.368-.097-.22-.386-.38-.648-.41-.09-.01-.178-.02-.268-.027a5.589 5.589 0 00-.665.007l.332-.014.002.002z" fill="#42D262"/></svg>