<svg width="47" height="47" fill="none" xmlns="http://www.w3.org/2000/svg"><g clip-path="url(#clip0_736_5133)" fill="#fff"><path d="M30.716 21.241h-.377c-.2.421-.44.821-.717 1.194a14.41 14.41 0 01-2.174 2.262c-.538.455-1.12.911-1.75 1.356a39.829 39.829 0 015.021-.307c5.776 0 10.009 1.125 12.075 2.377-2.066 1.251-6.3 2.373-12.075 2.373-4.304 0-7.727-.619-10.044-1.447-.32.159-.639.314-.961.466l-.427.192c-.59.273-1.189.527-1.794.764l-.828.318c1.252 2.771 7.69 4.215 14.062 4.215 7.095 0 14.284-1.81 14.284-5.214v-3.335c-.011-3.423-7.2-5.213-14.295-5.213zM22.806 33a24.772 24.772 0 01-1.485-.401l-.345-1.147.79-.861c.495.137 1.011.26 1.55.362l.34 1.085-.85.962zm8.25.825h-1.614l-.552-.97.667-1.175h1.413l.664 1.158-.578.987zm6.744-.647l-.828-.952.358-1.085a26.75 26.75 0 001.554-.326l.782.869-.388 1.15c-.466.123-.957.239-1.478.344zm-8.257-15.41l-.617-1.339-.717-1.591-.04-.087c-1.435-3.112-8.695-1.7-15.142 1.302C6.581 19.056.795 23.72 2.22 26.827l.05.109 1.33 2.916c1.205 2.622 6.572 2.026 12.096-.033l.829-.318a51.668 51.668 0 001.794-.764l.42-.18c.326-.153.645-.308.96-.467a37.18 37.18 0 005.044-3.003c.628-.442 1.213-.9 1.747-1.357a14.248 14.248 0 002.174-2.26 7.01 7.01 0 00.717-1.191c.42-.897.506-1.751.162-2.511zm-6.457 3.068a32.825 32.825 0 01-2.977 1.932 42.562 42.562 0 01-3.229 1.686l-.047.021a48.41 48.41 0 01-1.302.58c-4.627 1.967-8.415 2.59-10.6 2.347 1.356-2.004 4.732-4.815 9.976-7.26 5.245-2.446 9.553-3.21 11.95-2.95-.726 1.054-1.992 2.32-3.782 3.644h.01z"/></g><defs><clipPath id="clip0_736_5133"><path fill="#fff" transform="translate(2 13)" d="M0 0h43v22H0z"/></clipPath></defs></svg>