<svg width="65" height="64" fill="none" xmlns="http://www.w3.org/2000/svg"><path d="M2.5 32c0-16.569 13.431-30 30-30 16.569 0 30 13.431 30 30 0 2.565-.322 5.054-.927 7.43-.316 1.238-1.733 1.766-2.84 1.128-.822-.475-1.197-1.455-.972-2.378.483-1.98.739-4.05.739-6.18 0-14.36-11.64-26-26-26s-26 11.64-26 26 11.64 26 26 26c8.81 0 16.596-4.381 21.298-11.084.63-.897 1.837-1.22 2.786-.671.965.557 1.295 1.799.664 2.717C51.841 56.836 42.774 62 32.5 62c-16.569 0-30-13.431-30-30z" fill="#23B36E"/><path d="M48.864 19.537a2 2 0 01.1 2.826l-20.5 22a2 2 0 01-3.011-.096l-9.5-11.6a2 2 0 013.094-2.534l8.05 9.829 18.94-20.325a2 2 0 012.827-.1z" fill="#23B36E"/></svg>