<svg width="24" height="24" fill="none" xmlns="http://www.w3.org/2000/svg"><path d="M12 12c-1.375 0-2.552-.49-3.531-1.469C7.489 9.552 7 8.375 7 7s.49-2.552 1.469-3.531C9.448 2.489 10.625 2 12 2s2.552.49 3.531 1.469C16.511 4.448 17 5.625 17 7s-.49 2.552-1.469 3.531C14.552 11.511 13.375 12 12 12zM4.5 22a2.407 2.407 0 01-1.765-.734A2.408 2.408 0 012 19.5v-1c0-.708.183-1.36.547-1.954A3.642 3.642 0 014 15.188a18.583 18.583 0 013.938-1.454A17.22 17.22 0 0112 13.25c1.375 0 2.73.161 4.063.484 1.333.323 2.645.808 3.937 1.454a3.642 3.642 0 011.453 1.358c.364.594.547 1.246.547 1.954v1a2.41 2.41 0 01-.734 1.766A2.41 2.41 0 0119.5 22h-15z" fill="#42474D"/></svg>