<svg width="26" height="26" fill="none" xmlns="http://www.w3.org/2000/svg"><path d="M21.918 1.733h-1.045V.867a.866.866 0 10-1.733 0v.866h-5.2V.867a.867.867 0 00-1.734 0v.866h-5.2V.867a.867.867 0 00-1.733 0v.866H4.228A3.293 3.293 0 00.939 5.021v17.69A3.293 3.293 0 004.228 26h17.69a3.293 3.293 0 003.288-3.288V5.022a3.293 3.293 0 00-3.288-3.289zM11.085 17.08l-2.6 2.6a.866.866 0 01-1.226 0l-1.733-1.733a.868.868 0 111.225-1.225l1.122 1.12 1.987-1.987a.867.867 0 011.225 1.225zm0-7.8l-2.6 2.6a.866.866 0 01-1.226 0l-1.733-1.733A.867.867 0 116.75 8.921l1.122 1.12L9.86 8.054a.867.867 0 011.225 1.225zm8.921 9.788H13.94a.867.867 0 110-1.734h6.066a.866.866 0 110 1.734zm0-7.8H13.94a.867.867 0 110-1.734h6.066a.866.866 0 110 1.734z" fill="#42474D"/></svg>