<svg width="20" height="21" fill="currentColor" xmlns="http://www.w3.org/2000/svg"><path d="M14.667 3.833V2.5H5.333v1.333H2v4a3.333 3.333 0 003.333 3.334h.196a4.666 4.666 0 003.804 3.28v1.387h-.001c0 .734-.594 1.329-1.327 1.333H6.667V18.5h6.666v-1.333H12a1.334 1.334 0 01-1.333-1.334v-1.386a4.665 4.665 0 003.804-3.28h.196A3.333 3.333 0 0018 7.833v-4h-3.333zm-11.334 4V5.167h2v4.666a2 2 0 01-2-2zM10 13.167a3.337 3.337 0 01-3.333-3.334v-6h6.666v6A3.337 3.337 0 0110 13.167zm6.667-5.334a2 2 0 01-2 2V5.167h2v2.666z"/><path d="M11.917 7.672V7.67l-.994.723.38 1.168a.2.2 0 01-.309.223L10 9.064l-.994.72a.2.2 0 01-.308-.224l.379-1.167-.993-.722v.001A.2.2 0 018 7.51c0-.111.09-.202.201-.202H9.43l.38-1.169A.2.2 0 0110 6a.2.2 0 01.19.14l.38 1.167 1.229.001a.2.2 0 01.118.364z"/></svg>