<svg width="18" height="17" fill="none" xmlns="http://www.w3.org/2000/svg"><path d="M1 17a.968.968 0 01-.713-.288A.964.964 0 010 16c0-.283.096-.521.288-.713A.964.964 0 011 15h10c.283 0 .521.096.713.288.192.192.288.43.287.712a.968.968 0 01-.288.713A.964.964 0 0111 17H1zm12-7c-1.383 0-2.563-.488-3.538-1.463C8.487 7.562 7.999 6.383 8 5c0-1.383.488-2.563 1.463-3.538C10.438.487 11.617-.001 13 0c1.383 0 2.563.488 3.538 1.463C17.513 2.438 18.001 3.617 18 5c0 1.383-.488 2.563-1.463 3.538-.975.975-2.154 1.463-3.537 1.462zM1 9a.968.968 0 01-.713-.288A.964.964 0 010 8c0-.283.096-.521.288-.713A.964.964 0 011 7h5.3c.117.367.25.717.4 1.05.15.333.333.65.55.95H1zm0 4a.968.968 0 01-.713-.288A.964.964 0 010 12c0-.283.096-.521.288-.713A.964.964 0 011 11h8.4c.383.233.792.43 1.225.588.433.159.892.271 1.375.337V12a.968.968 0 01-.288.713A.964.964 0 0111 13H1zm12-5a.48.48 0 00.35-.15c.1-.1.15-.217.15-.35v-3a.48.48 0 00-.15-.35.48.48 0 00-.7 0 .48.48 0 00-.15.35v3c0 .133.05.25.15.35.1.1.217.15.35.15zm0-5a.48.48 0 00.35-.15.48.48 0 000-.7.48.48 0 00-.7 0 .48.48 0 000 .7c.1.1.217.15.35.15z" fill="#42474D"/></svg>