<svg viewBox="0 0 20 20" fill="none" xmlns="http://www.w3.org/2000/svg"><path d="M9.892 6.751v3.888m-1.006-8.46c.564-.474 1.473-.474 2.02 0l1.272 1.087c.242.201.7.37 1.022.37h1.369c.853 0 1.553.7 1.553 1.554v1.368c0 .322.17.773.37 1.014l1.087 1.272c.475.563.475 1.473 0 2.02l-1.087 1.272c-.2.241-.37.692-.37 1.014v1.368c0 .853-.7 1.554-1.553 1.554H13.2c-.321 0-.772.169-1.014.37l-1.271 1.086c-.564.475-1.473.475-2.02 0l-1.272-1.086c-.242-.201-.7-.37-1.014-.37H5.2a1.56 1.56 0 01-1.553-1.554v-1.376c0-.314-.161-.773-.363-1.006l-1.086-1.28c-.467-.555-.467-1.457 0-2.012l1.086-1.28c.202-.241.363-.692.363-1.006v-1.36c0-.853.7-1.554 1.553-1.554h1.392c.322 0 .773-.169 1.015-.37l1.28-1.095z" stroke="#217ABF" stroke-width="1.317" stroke-linecap="round" stroke-linejoin="round"/><path d="M9.89 13.085h.01" stroke="#217ABF" stroke-width="1.756" stroke-linecap="round" stroke-linejoin="round"/></svg>