<svg width="18" height="17" viewBox="0 0 18 17" fill="none" xmlns="http://www.w3.org/2000/svg">
<path d="M1 17C0.71667 17 0.479003 16.904 0.287003 16.712C0.0950034 16.52 -0.000663206 16.2827 3.46021e-06 16C3.46021e-06 15.7167 0.0960036 15.479 0.288004 15.287C0.480004 15.095 0.717337 14.9993 1 15H11C11.2833 15 11.521 15.096 11.713 15.288C11.905 15.48 12.0007 15.7173 12 16C12 16.2833 11.904 16.521 11.712 16.713C11.52 16.905 11.2827 17.0007 11 17H1ZM13 10C11.6167 10 10.4373 9.51233 9.462 8.537C8.48667 7.56167 7.99934 6.38267 8 5C8 3.61667 8.48767 2.43733 9.463 1.462C10.4383 0.486667 11.6173 -0.000665984 13 6.8306e-07C14.3833 6.8306e-07 15.5627 0.487667 16.538 1.463C17.5133 2.43833 18.0007 3.61733 18 5C18 6.38333 17.5123 7.56267 16.537 8.538C15.5617 9.51333 14.3827 10.0007 13 10ZM1 9C0.71667 9 0.479003 8.904 0.287003 8.712C0.0950034 8.52 -0.000663206 8.28267 3.46021e-06 8C3.46021e-06 7.71667 0.0960036 7.479 0.288004 7.287C0.480004 7.095 0.717337 6.99933 1 7H6.3C6.41667 7.36667 6.55 7.71667 6.7 8.05C6.85 8.38333 7.03334 8.7 7.25 9H1ZM1 13C0.71667 13 0.479003 12.904 0.287003 12.712C0.0950034 12.52 -0.000663206 12.2827 3.46021e-06 12C3.46021e-06 11.7167 0.0960036 11.479 0.288004 11.287C0.480004 11.095 0.717337 10.9993 1 11H9.4C9.78334 11.2333 10.1917 11.4293 10.625 11.588C11.0583 11.7467 11.5167 11.859 12 11.925V12C12 12.2833 11.904 12.521 11.712 12.713C11.52 12.905 11.2827 13.0007 11 13H1ZM13 8C13.1333 8 13.25 7.95 13.35 7.85C13.45 7.75 13.5 7.63333 13.5 7.5V4.5C13.5 4.36667 13.45 4.25 13.35 4.15C13.25 4.05 13.1333 4 13 4C12.8667 4 12.75 4.05 12.65 4.15C12.55 4.25 12.5 4.36667 12.5 4.5V7.5C12.5 7.63333 12.55 7.75 12.65 7.85C12.75 7.95 12.8667 8 13 8ZM13 3C13.1333 3 13.25 2.95 13.35 2.85C13.45 2.75 13.5 2.63333 13.5 2.5C13.5 2.36667 13.45 2.25 13.35 2.15C13.25 2.05 13.1333 2 13 2C12.8667 2 12.75 2.05 12.65 2.15C12.55 2.25 12.5 2.36667 12.5 2.5C12.5 2.63333 12.55 2.75 12.65 2.85C12.75 2.95 12.8667 3 13 3Z" fill="#42474D"/>
</svg>
