<svg viewBox="0 0 22 22" fill="currentColor" xmlns="http://www.w3.org/2000/svg"><path d="M11.002 7.452v4.428M9.856 2.246c.642-.541 1.678-.541 2.3 0l1.45 1.237c.274.23.797.422 1.163.422h1.559c.971 0 1.769.797 1.769 1.77v1.558c0 .366.192.88.422 1.154l1.237 1.449c.54.641.54 1.677 0 2.3l-1.237 1.449c-.23.275-.422.788-.422 1.155v1.558c0 .972-.798 1.77-1.77 1.77H14.77c-.366 0-.88.192-1.155.421l-1.448 1.238c-.642.54-1.677.54-2.3 0l-1.45-1.238c-.274-.229-.797-.422-1.154-.422H5.658c-.972 0-1.77-.797-1.77-1.769v-1.567c0-.358-.183-.88-.412-1.146L2.24 12.127c-.532-.632-.532-1.659 0-2.291l1.237-1.458c.23-.275.413-.788.413-1.146V5.684c0-.971.797-1.769 1.769-1.769h1.586c.366 0 .88-.192 1.155-.421l1.457-1.247zm1.14 12.421h.01"/></svg>