<svg width="55" height="54" fill="none" xmlns="http://www.w3.org/2000/svg"><path d="M27.5 33.75a6.75 6.75 0 100-13.5 6.75 6.75 0 000 13.5z" stroke="#42474D" stroke-width="2" stroke-miterlimit="10" stroke-linecap="round" stroke-linejoin="round"/><path d="M5 28.98v-3.96a4.287 4.287 0 014.275-4.275c4.072 0 5.737-2.88 3.69-6.413-1.17-2.025-.473-4.657 1.575-5.827l3.893-2.227c1.777-1.058 4.072-.428 5.13 1.35l.247.427c2.025 3.533 5.355 3.533 7.402 0l.248-.427c1.057-1.778 3.352-2.408 5.13-1.35l3.892 2.227c2.048 1.17 2.745 3.802 1.575 5.827-2.047 3.533-.382 6.413 3.69 6.413 2.34 0 4.276 1.912 4.276 4.275v3.96a4.288 4.288 0 01-4.276 4.275c-4.072 0-5.737 2.88-3.69 6.412 1.17 2.048.473 4.658-1.575 5.828l-3.892 2.227c-1.778 1.058-4.073.428-5.13-1.35l-.248-.427c-2.024-3.532-5.354-3.532-7.402 0l-.247.428c-1.058 1.777-3.353 2.407-5.13 1.35l-3.893-2.228a4.273 4.273 0 01-1.575-5.828c2.047-3.532.383-6.412-3.69-6.412A4.287 4.287 0 015 28.98z" stroke="#42474D" stroke-width="2" stroke-miterlimit="10" stroke-linecap="round" stroke-linejoin="round"/></svg>