<svg viewBox="0 0 148 115" fill="currentColor" xmlns="http://www.w3.org/2000/svg"><circle cx="102.5" cy="49.5" r="45.5" fill="#E2F0FB"/><g clip-path="url(#clip0_4327_14051)"><path d="M101.296 57.725v48.291c0 5.053-3.167 8.984-7.21 8.984h-9.86c-4.043 0-7.21-3.953-7.21-8.984V57.725c0-5.054 3.167-8.985 7.21-8.985h9.86c4.02 0 7.21 3.953 7.21 8.985zm.158-28.324a2.077 2.077 0 01-2.268.068l-6.739-4.043c-11.095 18.373-26.75 35.668-56.983 35.668-6.379 0-13.41-.764-21.18-2.471a2.121 2.121 0 01-1.618-2.493 2.083 2.083 0 012.224-1.64c1.886.157 45.73 3.1 64.148-37.442L72.143 13.7a2.101 2.101 0 01-.989-2.785 2.102 2.102 0 011.079-1.033L95.12.157a2.096 2.096 0 012.74 1.1c.068.158.113.315.135.472l4.335 25.584a2.059 2.059 0 01-.876 2.088zM69.65 75.469v30.547c0 5.053-3.167 8.984-7.21 8.984h-9.882c-4.043 0-7.21-3.953-7.21-8.984V75.469c0-5.054 3.167-8.985 7.21-8.985h9.86c4.065-.022 7.232 3.931 7.232 8.985zM38.697 90.248v15.768c0 5.031-3.167 8.984-7.21 8.984h-9.882c-4.044 0-7.21-3.953-7.21-8.984V90.248c0-5.054 3.166-8.984 7.21-8.984h9.86c4.065-.023 7.232 3.93 7.232 8.984z"/></g><defs><clipPath id="clip0_4327_14051"><path fill="#fff" d="M0 0h115v115H0z"/></clipPath></defs></svg>