<svg viewBox="0 0 139 128" fill="currentColor" xmlns="http://www.w3.org/2000/svg"><circle cx="93.5" cy="45.5" r="45.5" fill="#E2F0FB"/><path d="M109.84 65.24L60.96 18.5c-2.102-2-5.285-2-7.386 0L4.82 65.24c-3.736 3.594-1.337 10.153 3.693 10.153 1.337 0 2.632-.517 3.65-1.46l3.418-3.19v47.101c0 3.481 2.674 6.312 5.964 6.312H93.03c3.29 0 5.964-2.831 5.964-6.312v-47.1l3.417 3.189a5.294 5.294 0 003.651 1.46h.127c4.988 0 7.386-6.581 3.651-10.153zm-54.229 42.811H42.388c-1.655 0-2.971-1.415-2.971-3.144V90.913h16.215l-.02 17.138zm0-20.305H39.396c0-9.478 7.258-17.16 16.215-17.16v17.16zm19.187 17.138c0 1.752-1.337 3.145-2.971 3.145H58.604v-17.16h16.215v14.015h-.02zM58.583 87.746v-17.16c8.956 0 16.215 7.682 16.215 17.16H58.583z"/></svg>