<svg viewBox="0 0 152 115" fill="currentColor" xmlns="http://www.w3.org/2000/svg"><circle cx="106.5" cy="45.5" r="45.5" fill="#E2F0FB"/><path d="M50.816 73.336H37.422a2.196 2.196 0 00-2.195 2.196v33.093c0 1.212.983 2.195 2.195 2.195h13.394a2.196 2.196 0 002.196-2.195V75.532a2.196 2.196 0 00-2.196-2.196zm53.16 0H90.582a2.196 2.196 0 00-2.195 2.196v33.093c0 1.212.983 2.195 2.195 2.195h13.394a2.196 2.196 0 002.196-2.195V75.532a2.196 2.196 0 00-2.196-2.196zM56.867 86.77h27.665v10.617H56.867V86.769z"/><path d="M31.374 75.532a6.055 6.055 0 016.05-6.049h13.392a6.058 6.058 0 016.05 6.049v7.383h27.672v-7.383a6.058 6.058 0 016.052-6.049h2.013a43.348 43.348 0 00-.964-7.92L80.968 72.234 59.81 51.082a16.842 16.842 0 01-4.288-18.738 17.22 17.22 0 012.336-3.977A43.174 43.174 0 0015.465 97.41h15.91V75.532zM16.14 63.91a33.914 33.914 0 0113.656-20.884l2.23 3.143a30.06 30.06 0 00-12.11 18.519l-3.776-.779z"/><path d="M80.967 66.792L62.53 48.358a13.054 13.054 0 013.915-21.8 13.05 13.05 0 0114.523 3.365c13.378-13.38 31.805 5.055 18.434 18.435L80.967 66.791zM33.065 26.624v-8.053a1.466 1.466 0 011.466-1.467h29.8a1.466 1.466 0 011.465 1.467v4.052a16.193 16.193 0 015.403-.967c1.19.015 2.373.164 3.53.442v-6.616a7.31 7.31 0 00-7.31-7.31H31.435a7.31 7.31 0 00-7.31 7.31v15.604a46.833 46.833 0 018.94-4.462z"/></svg>