<svg viewBox="0 0 149 115" fill="currentColor" xmlns="http://www.w3.org/2000/svg"><circle cx="103.5" cy="45.5" r="45.5" fill="#E2F0FB"/><path fill-rule="evenodd" clip-rule="evenodd" d="M66.056 47.77v59.454H49.753a11.866 11.866 0 01-8.429-3.522 12.054 12.054 0 01-3.1-5.44L63.082 47.77h2.975zm14.071 59.454H70.012V47.77h10.115v59.454zm3.955-59.454h23.817c2.433 0 4.406 1.99 4.406 4.447v42.981c0 3.19-1.255 6.248-3.491 8.504a11.866 11.866 0 01-8.429 3.522H84.082V47.77zM18.134 71.319l23.214 11.63-10.587 21.507a4.42 4.42 0 01-2.542 2.237 4.377 4.377 0 01-3.365-.233l-8.59-4.304c-5.898-2.954-8.304-10.172-5.377-16.12l7.247-14.717zm29.486-1.11l-4.512 9.167-23.216-11.63 4.513-9.167 23.215 11.63zm-36.164 5.703c-5.676.529-9.342-2.444-9.734-7.196-.177-2.169.378-4.757 2.6-6.698 1.793-1.565 4.912-2.827 10.284-2.445a.428.428 0 00.392-.24.436.436 0 00-.048-.46c-3.548-4.088-4.435-7.357-4.283-9.743.19-2.96 1.899-4.97 3.72-6.137 3.987-2.556 8.552-1.408 11.566 3.474L11.456 75.91zm14.708-20.906l7.243-14.714c2.928-5.95 10.084-8.376 15.98-5.423 4.115 2.06 8.591 4.304 8.591 4.304 2.18 1.093 3.07 3.76 1.987 5.96L49.379 66.634l-23.215-11.63zM64.516 44.02l-.108-.001a2.177 2.177 0 01-2.164-2.05 19.92 19.92 0 00-.062-1.071 22.95 22.95 0 00-6.524-13.851L51.846 23.2a2.256 2.256 0 010-3.167 2.208 2.208 0 013.141 0l3.81 3.844a27.465 27.465 0 017.826 16.798c.021.239.042.61.059 1.022a2.203 2.203 0 01-.585 1.633 2.16 2.16 0 01-1.581.689zm21.21 0h-.114a2.163 2.163 0 01-1.577-.686 2.205 2.205 0 01-.59-1.627c.01-.211.019-.394.028-.522a27.47 27.47 0 017.867-17.307l3.811-3.844a2.207 2.207 0 013.14 0 2.256 2.256 0 010 3.168l-3.81 3.845a22.956 22.956 0 00-6.537 13.966c-.02.215-.038.566-.053.954a2.178 2.178 0 01-2.165 2.053zM70.567 13.35l.961-2.984a3.731 3.731 0 013.542-2.591 3.732 3.732 0 013.542 2.596l.96 2.98h3.105a3.73 3.73 0 013.543 2.599 3.77 3.77 0 01-1.355 4.196l-2.511 1.84.962 2.985a3.772 3.772 0 01-1.353 4.194 3.696 3.696 0 01-4.38.002l-2.513-1.841-2.512 1.842a3.7 3.7 0 01-4.382-.003 3.773 3.773 0 01-1.349-4.198l.959-2.98-2.514-1.843a3.773 3.773 0 01-1.351-4.197 3.727 3.727 0 013.542-2.597h3.105zm30.913.999a2.231 2.231 0 012.22 2.24 2.23 2.23 0 01-2.22 2.24 2.231 2.231 0 01-2.222-2.24c0-1.236.996-2.24 2.222-2.24zm-52.82 0a2.231 2.231 0 012.22 2.24 2.23 2.23 0 01-2.22 2.24 2.231 2.231 0 01-2.22-2.24c0-1.236.995-2.24 2.22-2.24z"/></svg>