<svg viewBox="0 0 131 132" fill="currentColor" xmlns="http://www.w3.org/2000/svg"><circle cx="85.25" cy="45.5" r="45.5" fill="#E2F0FB"/><path d="M74.648 33.154a.794.794 0 00.245-.055c-.082.028-.163.028-.245.055zm-.758.16c.025 0 .075-.025.1-.025-.05 0-.075.025-.1.025zm-35.011 87.727H11.995a2.47 2.47 0 01-2.418-2.521V64.293H3.25v63.154h31.178c5.042 0 15.049 0 20.914 4.553v-.9c0-6.046-2.958-10.059-16.463-10.059zm73.262-56.748h-6.199v54.047a2.524 2.524 0 01-2.316 2.521h-26.83c-13.609 0-16.464 4.013-16.464 10.033V132c5.865-4.553 15.64-4.553 21.12-4.553h30.946l-.257-63.154z"/><path d="M81.453 53v29.094l8.078-8.077a2.171 2.171 0 011.697-.823 1.875 1.875 0 011.698.823l8.284 8.077V53H81.453zm-42.579 0H14.41v63.231h29.943s8-.154 10.985 3.73V69.464C55.338 60.383 47.955 53 38.874 53z"/><path d="M91.232 78.956L80.633 89.94a2.93 2.93 0 01-2.752.386 2.205 2.205 0 01-1.415-2.238V53h-.643c-.155 0-.335.026-.489.026-.129 0-.257.025-.386.025-.128.026-.231.026-.36.052l-.514.077c-.078 0-.155.026-.232.051a5.172 5.172 0 00-.617.13c-.026 0-.078.025-.103.025-7.332 1.646-12.837 8.206-12.837 16.052v50.497c.052-.077.129-.154.18-.231.232-.258.463-.515.746-.746 3.447-2.881 10.033-2.753 10.033-2.753h29.917V88.937l-9.93-9.981z"/></svg>