<svg viewBox="0 0 127 132" fill="currentColor" xmlns="http://www.w3.org/2000/svg"><circle cx="81" cy="45.5" r="45.5" fill="#E2F0FB"/><path fill-rule="evenodd" clip-rule="evenodd" d="M32.266 92.386c-5.17 0-9.377-4.216-9.377-9.378 0-5.17 4.209-9.377 9.377-9.377 5.164 0 9.377 4.209 9.377 9.377.003 5.162-4.213 9.378-9.377 9.378zm-2.711 3.488c-7.978 0-14.496 6.527-14.496 14.496v8.76c0 3.151 2.578 5.736 5.736 5.736h16.286v-7.367c0-6.832 3.808-12.809 9.405-15.922-2.655-3.464-6.833-5.705-11.505-5.705h-5.426v.002zm51.47 0c-4.675 0-8.85 2.241-11.505 5.705 5.597 3.113 9.404 9.092 9.404 15.922v7.368H95.21c3.159 0 5.737-2.586 5.737-5.737v-8.76c0-7.971-6.52-14.496-14.492-14.496h-5.43v-.002zm2.712-3.488c5.17 0 9.385-4.216 9.385-9.378 0-5.17-4.216-9.377-9.385-9.377-5.163 0-9.377 4.209-9.377 9.377-.002 5.162 4.214 9.378 9.377 9.378zm-28.449 10.619c-7.971 0-14.496 6.527-14.496 14.496v8.76c0 3.158 2.585 5.737 5.737 5.737h22.946c3.158 0 5.736-2.579 5.736-5.737v-8.76c0-7.971-6.52-14.496-14.496-14.496h-5.427zm2.714-3.49c5.17 0 9.377-4.21 9.377-9.378 0-5.163-4.21-9.377-9.377-9.377-5.164 0-9.378 4.216-9.378 9.377 0 5.17 4.214 9.378 9.378 9.378zM56.728 17c-10.918 0-19.77 8.85-19.77 19.763a19.71 19.71 0 007.08 15.16c1.069.898 1.79 1.998 2.138 3.258h8.69V43.504l-4.463-4.463a1.853 1.853 0 010-2.623 1.853 1.853 0 012.624 0l3.699 3.692 3.693-3.693a1.853 1.853 0 012.623 0 1.853 1.853 0 010 2.624l-4.463 4.463v11.68h8.69c.35-1.26 1.07-2.363 2.138-3.26a19.706 19.706 0 007.08-15.158C76.492 25.852 67.642 17 56.728 17zM46.446 58.887c.044.694.152 1.368.33 2.013h19.896c.172-.65.287-1.319.33-2.013H46.446zm2.21 5.726c1.898 2.367 4.838 3.865 8.13 3.865 3.235 0 6.126-1.516 8.003-3.865H48.656z"/></svg>