<svg viewBox="0 0 156 132" fill="currentColor" xmlns="http://www.w3.org/2000/svg"><circle cx="110.5" cy="45.5" r="45.5" fill="#E2F0FB"/><path d="M44.375 39.462C44.375 29.82 59.066 22 77.188 22 95.308 22 110 29.819 110 39.462c0 9.644-14.691 17.462-32.813 17.462-18.12 0-32.812-7.818-32.812-17.462zm32.813 34.924c18.12 0 32.812-7.818 32.812-17.462v-8.73c0 9.643-14.691 17.461-32.813 17.461-18.12 0-32.812-7.818-32.812-17.462v8.731c0 9.644 14.691 17.462 32.813 17.462zm-45.938 0C16.751 74.386 5 86.112 5 100.58c0 14.467 11.751 26.193 26.25 26.193S57.5 115.047 57.5 100.58c0-14.468-11.751-26.194-26.25-26.194zm4.375 26.194v13.096h-8.75V100.58H16.139l11.755-11.73a4.678 4.678 0 016.607 0l11.76 11.73H35.625zm41.563 17.685c-5.26 0-10.23-.66-14.635-1.83a35.043 35.043 0 01-4.795 7.173c5.438 2.13 12.158 3.392 19.43 3.392 18.12 0 32.812-7.819 32.812-17.462v-8.731c0 9.643-14.691 17.458-32.813 17.458zm0-34.925c-6.353 0-12.281-.96-17.304-2.624a34.634 34.634 0 014.9 10.063c3.828.834 8.015 1.292 12.403 1.292C95.31 92.071 110 84.253 110 74.61v-8.73c0 9.642-14.691 17.461-32.813 17.461zm0 17.462c-3.842 0-7.526-.353-10.951-1a35.138 35.138 0 01-.814 8.574c3.653.747 7.617 1.157 11.764 1.157 18.122 0 32.813-7.818 32.813-17.462v-8.73c0 9.643-14.691 17.461-32.813 17.461z"/></svg>