<svg viewBox="0 0 132 127" fill="currentColor" xmlns="http://www.w3.org/2000/svg"><circle cx="86.5" cy="45.606" r="45.5" fill="#E2F0FB"/><g clip-path="url(#clip0_4320_16569)"><path d="M12.652 66.084l10.924-20.049 10.923 20.05h7.657l-12.934-23.74h15.466c-1.907-1.762-3.75-3.991-4.913-6.674H23.424a3.362 3.362 0 00-3.293 2.633L4.996 66.084h7.656zm60.195 0h7.656l10.924-20.049 10.923 20.05h7.657L94.391 37.423a3.374 3.374 0 00-2.964-1.753c-.03 0-.06.003-.09.004-.022-.001-.042-.004-.063-.004H74.92c-.915 2.121-2.442 4.403-4.907 6.674H85.78l-12.933 23.74zM47.149 76.095c0-1.843-1.508-3.337-3.37-3.337H3.37c-1.86 0-3.37 1.494-3.37 3.337 0 13.43 10.575 24.358 23.574 24.358 13 0 23.575-10.927 23.575-24.358zm64.482-3.337h-40.41c-1.861 0-3.37 1.494-3.37 3.337 0 13.43 10.576 24.358 23.575 24.358 12.998 0 23.574-10.927 23.574-24.358 0-1.843-1.508-3.337-3.369-3.337zm-45.582 31.211a12.502 12.502 0 00-17.404 0l-17.961 17.302a3.315 3.315 0 00-.772 3.648 3.37 3.37 0 003.12 2.081h48.629a3.37 3.37 0 003.121-2.081 3.315 3.315 0 00-.772-3.648l-17.962-17.302zM53.977 48.29v45.779a19.382 19.382 0 013.369-.3c1.14 0 2.266.105 3.369.3v-45.78a10.257 10.257 0 01-3.37.575c-1.14 0-2.288-.198-3.368-.575zm-3.019-9.431a30.745 30.745 0 004.957 3.015 3.39 3.39 0 002.868 0 30.792 30.792 0 004.956-3.015c3.77-2.84 5.681-5.887 5.681-9.058 0-2.783-1.471-5.47-4.377-8.004.11-.33.173-.683.173-1.05 0-1.844-1.508-3.337-3.37-3.337h-1.128v-.968c0-1.842-1.509-3.336-3.37-3.336-1.86 0-3.369 1.494-3.369 3.336v.968h-1.128c-1.861 0-3.37 1.493-3.37 3.336 0 .368.062.72.174 1.051-2.906 2.535-4.378 5.221-4.378 8.004 0 3.171 1.911 6.219 5.681 9.058z"/></g><defs><clipPath id="clip0_4320_16569"><path fill="#fff" transform="translate(0 13.106)" d="M0 0h115v113.894H0z"/></clipPath></defs></svg>