<svg width="19" height="19" fill="none" xmlns="http://www.w3.org/2000/svg"><path fill="currentColor" d="M.004 19l1.284-4.72A9.456 9.456 0 010 9.5 9.5 9.5 0 019.5 0 9.5 9.5 0 0119 9.5 9.5 9.5 0 019.5 19a9.456 9.456 0 01-4.778-1.287L.004 19zM6.07 5.043a.913.913 0 00-.352.095 1.228 1.228 0 00-.28.216c-.113.108-.178.2-.247.29a2.593 2.593 0 00-.537 1.595c.002.465.124.919.314 1.342.388.857 1.027 1.764 1.872 2.605.203.203.402.406.616.595a8.975 8.975 0 003.648 1.944l.54.082c.176.01.352-.004.528-.012a1.89 1.89 0 00.792-.22c.124-.064.245-.133.364-.208 0 0 .04-.027.118-.086.129-.095.207-.163.314-.274.079-.081.147-.177.2-.287.073-.154.147-.45.178-.696.023-.188.016-.29.013-.354-.004-.102-.088-.207-.18-.252l-.553-.248s-.827-.36-1.331-.59a.476.476 0 00-.168-.039.458.458 0 00-.36.12v-.001c-.004 0-.068.054-.755.886a.332.332 0 01-.35.124 1.35 1.35 0 01-.18-.063l-.24-.103-.005-.002a5.707 5.707 0 01-1.491-.95c-.12-.105-.231-.219-.345-.33a5.98 5.98 0 01-.97-1.204l-.055-.09a.877.877 0 01-.097-.195.305.305 0 01.058-.251s.23-.253.338-.39c.09-.114.173-.232.25-.354.112-.18.147-.366.088-.51a79.095 79.095 0 00-.824-1.938c-.056-.128-.223-.219-.374-.237a4.217 4.217 0 00-.154-.015 3.215 3.215 0 00-.383.004z"/></svg>