<svg width="151" height="50" fill="none" xmlns="http://www.w3.org/2000/svg"><path fill-rule="evenodd" clip-rule="evenodd" d="M24.68 9.622c1.983 0 3.672 1.616 3.672 3.672 0 1.984-1.616 3.673-3.673 3.673V9.622zm0 39.443c13.44-.074 24.385-11.018 24.385-24.533C49.065 11.018 38.195.073 24.679 0v4.187c11.165.073 20.126 9.181 20.126 20.345 0 11.165-9.035 20.2-20.126 20.346v4.187zm0-8.52V20.419h10.356a2.288 2.288 0 0 1 2.277 2.277 2.288 2.288 0 0 1-2.277 2.277h-8.227v13.295c0 1.175-.954 2.203-2.13 2.277zm0-23.651c-1.984 0-3.673-1.616-3.673-3.673 0-1.983 1.616-3.672 3.672-3.672v7.345zM24.68 0h-.148C11.018 0 0 11.018 0 24.532c0 13.515 11.018 24.533 24.532 24.533h.147v-4.26h-.147c-11.238 0-20.345-9.108-20.345-20.346S13.294 4.113 24.532 4.113h.147V0zm0 20.346V40.47h-.148a2.288 2.288 0 0 1-2.276-2.277v-13.22h-8.227a2.288 2.288 0 0 1-2.277-2.278 2.288 2.288 0 0 1 2.277-2.277h10.65v-.073z" fill="url(#paint0_linear)"/><path d="M62.874 33.787V11.825h-4.04v21.962h4.04zm-4.407-26.81c0 1.03.66 2.425 2.423 2.425s2.424-1.396 2.424-2.424c0-1.029-.66-2.424-2.424-2.424-1.762 0-2.423 1.395-2.423 2.424zm19.317 8.301c4.334 0 7.345 3.158 7.345 7.565s-2.938 7.566-7.345 7.566v3.819A11.426 11.426 0 0 0 89.242 22.77a11.426 11.426 0 0 0-11.458-11.46v3.967zm0 15.13c-4.26 0-7.345-3.084-7.345-7.565 0-4.48 3.011-7.565 7.345-7.565v-3.82a11.426 11.426 0 0 0-11.458 11.459 11.426 11.426 0 0 0 11.458 11.458v-3.966zm26.295-18.509H96.22V6.39h-4.04v20.052c0 7.272 5.142 7.345 6.978 7.345h4.921v-3.82h-4.186c-3.967 0-3.673-1.542-3.673-3.819v-10.43h7.859V11.9zm4.334 19.464c0 1.47 1.248 2.718 2.717 2.718 1.47 0 2.718-1.249 2.718-2.718 0-1.469-1.248-2.717-2.718-2.717-1.542.073-2.717 1.248-2.717 2.717zm10.871 2.424h4.039v-10.43c0-8.08 4.848-8.153 6.244-8.153h.514v-3.82h-.661c-1.91 0-4.407.221-6.17 2.939h-.074v-2.497h-3.819v21.961h-.073zm27.25-21.888v11.752c0 1.836-.147 4.7-2.938 6.243-.735.441-1.616.588-2.424.588-.808 0-1.69-.147-2.424-.588-2.791-1.542-2.938-4.407-2.938-6.243V11.9h-4.04v11.752c0 3.085.514 6.978 4.334 9.328 1.542.955 3.232 1.322 4.994 1.322 1.763 0 3.526-.44 4.995-1.322 3.819-2.35 4.334-6.243 4.334-9.328V11.9h-3.893zM62.947 42.968h-.661v-2.35h-2.57v2.35h-.735V37.68h.734v2.424h2.571V37.68h.661v5.288zm2.718-3.966c.514 0 .954.22 1.248.588.294.367.441.881.441 1.395v.074c0 .587-.147 1.028-.44 1.395a1.569 1.569 0 0 1-1.25.588v-.588c.368 0 .588-.147.735-.367.147-.294.294-.588.294-1.028v-.074c0-.44-.073-.734-.294-1.028a.808.808 0 0 0-.734-.44v-.515zm-1.763 1.983c0-.587.147-1.028.44-1.395a1.569 1.569 0 0 1 1.25-.588v.588c-.368 0-.588.147-.735.44-.147.294-.294.588-.294 1.029v.073c0 .441.073.735.294 1.029.147.293.44.367.808.367v.587c-.515 0-.955-.22-1.249-.587-.294-.367-.44-.882-.44-1.396v-.147h-.074zm6.023-1.909c.44 0 .808.073 1.102.294.293.146.44.44.44.807 0 .147-.073.368-.147.515-.073.147-.293.22-.44.293.22.074.44.147.587.368a.83.83 0 0 1 .22.587c0 .367-.146.661-.367.808-.293.22-.66.294-1.101.294h-.147v-.514h.147c.294 0 .44-.074.587-.147.147-.074.22-.22.22-.44 0-.221-.073-.295-.22-.442a1.385 1.385 0 0 0-.587-.146h-.147v-.514c.22 0 .44-.074.587-.147a.404.404 0 0 0 .22-.368c0-.22-.073-.293-.22-.44a1.13 1.13 0 0 0-.587-.147v-.661h-.147zm-1.616 3.892v-3.892h1.616v.587h-.882v1.102h.882v.514h-.955v1.175h.955v.514h-1.616zm5.729-3.966c.514 0 .955.22 1.249.588.293.367.44.881.44 1.395v.074c0 .587-.147 1.028-.44 1.395a1.569 1.569 0 0 1-1.249.588v-.588c.367 0 .588-.147.735-.367.147-.294.293-.588.293-1.028v-.074c0-.44-.073-.734-.293-1.028a.808.808 0 0 0-.735-.44v-.515zm-1.763 1.983c0-.587.147-1.028.441-1.395a1.569 1.569 0 0 1 1.249-.588v.588c-.368 0-.588.147-.735.44-.147.294-.294.588-.294 1.029v.073c0 .441.074.735.294 1.029.147.293.44.367.808.367v.587a1.57 1.57 0 0 1-1.249-.587c-.293-.367-.44-.882-.44-1.396v-.147h-.074zm5.95 1.469c.22 0 .44-.073.587-.22a.667.667 0 0 0 .22-.514h.662c0 .367-.147.661-.44.881-.295.294-.662.368-1.03.368a1.57 1.57 0 0 1-1.248-.588c-.294-.367-.44-.808-.44-1.396v-.146c0-.515.146-1.029.44-1.396a1.569 1.569 0 0 1 1.249-.588c.44 0 .808.147 1.102.441.293.294.44.588.367.955h-.661c0-.22-.074-.44-.22-.588a.834.834 0 0 0-.588-.22c-.367 0-.588.147-.735.367-.147.294-.22.588-.22.955v.147c0 .367.073.735.22.955.147.44.368.587.735.587zm5.288-2.864h-1.249v3.378h-.734V39.59h-1.249v-.514h3.232v.514zm3.232-.514h.734v3.892h-.734v-2.79l-1.763 2.79h-.661v-3.892h.661v2.717l1.763-2.717zm6.905-1.396h.734v5.288h-.735v-4.04l-2.497 4.04h-.734V37.68h.734v4.04l2.497-4.04zm4.994 5.288h-.735V41.28H96.22v1.69h-.734v-3.893h.734v1.689h1.69v-1.69h.734v3.893zm4.04-3.378h-1.322v3.378h-.661V39.59h-1.25v-.514h3.233v.514zm2.35 3.452h-.147v-.588h.147c.221 0 .441 0 .661-.073.147-.074.367-.147.441-.294l.294.44c-.147.148-.294.221-.588.368-.22.073-.441.147-.808.147zm-.147-4.04c.514 0 .955.147 1.175.514.294.294.368.735.368 1.323v.367h-1.616v-.588h.881v-.073a1.24 1.24 0 0 0-.22-.735c-.147-.22-.367-.294-.661-.294v-.514h.073zm0 4.04c-.514 0-.881-.22-1.175-.514-.294-.367-.441-.808-.441-1.396v-.147c0-.587.147-1.028.515-1.395.293-.368.734-.514 1.175-.514v.587c-.221 0-.441.074-.588.294-.147.22-.294.44-.294.734h.882v.588h-.882c0 .367.074.735.294.955.147.22.367.294.661.367v.441h-.147zm5.729-1.91c0 .588-.147 1.029-.367 1.322-.294.368-.661.515-1.102.515H109v-.588a.773.773 0 0 0 .662-.367c.146-.22.293-.588.293-.955v-.074c0-.44-.073-.807-.293-1.101-.147-.294-.368-.368-.662-.441v-.588h.147c.515 0 .882.22 1.102.588.294.367.367.881.367 1.542v.147zm-1.689 1.91c-.147 0-.367-.073-.514-.147-.147-.073-.367-.22-.441-.367v1.91h-.734v-5.362h.514l.147.514c.147-.22.294-.294.44-.44.147-.074.368-.148.515-.148v.588h-.074c-.22 0-.367.073-.514.147a.88.88 0 0 0-.367.367v1.91c.073.147.22.293.367.367.147.073.294.147.514.147h.074v.514h.073zm5.729-.074h-.734V41.28h-1.69v1.69h-.734v-3.893h.734v1.689h1.69v-1.69h.734v3.893zm2.644.074h-.147v-.588h.147c.221 0 .441 0 .661-.073.147-.074.368-.147.441-.294l.294.44c-.147.148-.294.221-.588.368a2.64 2.64 0 0 1-.808.147zm-.147-4.04c.515 0 .955.147 1.176.514.293.294.367.735.367 1.323v.367h-1.543v-.588h.882v-.073a1.24 1.24 0 0 0-.221-.735c-.146-.22-.367-.294-.661-.294v-.514zm0 4.04c-.514 0-.881-.22-1.175-.514-.294-.367-.441-.808-.441-1.396v-.147c0-.587.147-1.028.515-1.395.293-.368.734-.514 1.175-.514v.587c-.221 0-.441.074-.588.294-.147.22-.294.44-.294.734h.882v.588h-.882c0 .367.074.735.294.955.147.22.368.294.661.367v.441h-.147zm5.362-3.452h-1.248v3.378h-.735V39.59h-1.248v-.514h3.231v.514zm3.159 3.378c0-.146-.074-.22-.074-.293v-.294c-.147.22-.294.367-.514.44-.147.074-.22.148-.367.148v-.588c.147 0 .294-.074.441-.147.22-.147.367-.294.367-.44v-.662h-.882v-.514h.808v-.367c0-.22-.073-.44-.22-.514a.834.834 0 0 0-.588-.22h-.073v-.588h.073c.441 0 .808.147 1.029.367.293.22.367.514.367.955v2.277c0 .147.073.22.073.367h-.44v.073zm-.955 0c-.074 0-.221.074-.367.074-.441 0-.735-.074-.955-.294-.221-.22-.294-.514-.294-.881s.147-.661.441-.882c.293-.22.661-.294 1.101-.294v.515c-.22 0-.44.073-.587.22a.667.667 0 0 0-.221.514c0 .147.074.294.147.44.074.074.294.148.514.148h.221v.44zm0-3.452c-.221 0-.367.074-.514.147-.147.147-.221.22-.221.44h-.661c0-.293.147-.513.367-.807.294-.22.588-.367.955-.367v.587h.074zm6.096-.44c.441 0 .808.073 1.102.294.294.146.441.44.441.807 0 .147-.074.368-.147.515-.074.147-.294.22-.441.293.22.074.441.147.588.368a.83.83 0 0 1 .22.587c0 .367-.147.661-.367.808-.294.22-.661.294-1.102.294h-.147v-.514h.147c.294 0 .441-.074.588-.147.147-.074.22-.22.22-.44 0-.221-.073-.295-.22-.442a1.388 1.388 0 0 0-.588-.146h-.147v-.514c.22 0 .441-.074.588-.147a.404.404 0 0 0 .22-.368c0-.22-.073-.293-.22-.44a1.134 1.134 0 0 0-.588-.147v-.661h-.147zm-1.616 3.892v-3.892h1.616v.587h-.881v1.102h.881v.514h-.955v1.175h.955v.514h-1.616zm5.803.074h-.147v-.588h.147c.22 0 .441 0 .661-.073.147-.074.367-.147.441-.294l.294.44c-.147.148-.294.221-.588.368a2.64 2.64 0 0 1-.808.147zm-.147-4.04c.514 0 .955.147 1.175.514.294.294.368.735.368 1.323v.367h-1.616v-.588h.881v-.073a1.24 1.24 0 0 0-.22-.735c-.147-.22-.368-.294-.661-.294v-.514h.073zm0 4.04c-.514 0-.881-.22-1.175-.514-.294-.367-.441-.808-.441-1.396v-.147c0-.587.147-1.028.514-1.395.294-.368.735-.514 1.176-.514v.587c-.221 0-.441.074-.588.294-.147.22-.294.44-.294.734h.882v.588h-.882c0 .367.074.735.294.955.147.22.367.294.661.367v.441h-.147zm3.085-3.966v3.305h1.396v-3.305h.661v3.305h1.395v-3.305h.735v3.378h.587v1.69h-.661v-1.175h-4.848v-3.893h.735zm7.125 3.966h-.147v-.588h.147c.22 0 .44 0 .661-.073.147-.074.367-.147.44-.294l.294.44c-.147.148-.294.221-.587.368a2.65 2.65 0 0 1-.808.147zm-.147-4.04c.514 0 .955.147 1.175.514.294.294.367.735.367 1.323v.367h-1.616v-.588h.882v-.073a1.24 1.24 0 0 0-.221-.735c-.147-.22-.367-.294-.661-.294v-.514h.074zm0 4.04c-.514 0-.882-.22-1.176-.514-.293-.367-.44-.808-.44-1.396v-.147c0-.587.147-1.028.514-1.395.294-.368.734-.514 1.175-.514v.587c-.22 0-.441.074-.587.294-.147.22-.294.44-.294.734h.881v.588h-.881c0 .367.073.735.294.955.146.22.367.294.661.367v.441h-.147zm4.847-3.966h.735v3.892h-.735v-2.79l-1.689 2.79h-.734v-3.892h.734v2.79l1.689-2.79zm.221-1.616c0 .294-.074.514-.294.734-.22.147-.441.294-.808.294-.367 0-.588-.073-.808-.294-.22-.147-.294-.367-.294-.66h.514a.56.56 0 0 0 .147.366.564.564 0 0 0 .368.147.563.563 0 0 0 .367-.147.563.563 0 0 0 .147-.367h.661v-.073z" fill="#fff"/><defs><linearGradient id="paint0_linear" x1="24.495" y1="49.033" x2="24.495" y2="9.631" gradientUnits="userSpaceOnUse"><stop stop-color="#fff"/></linearGradient></defs></svg>