<svg width="272" height="28" fill="none" xmlns="http://www.w3.org/2000/svg"><path d="M161.122 17.14v-6.28c0-5.564 0-6.575-.074-7.706-.075-1.22-.359-1.785-1.538-2.038-.284-.075-.896-.104-1.224-.104-.149 0-.284-.075-.284-.209 0-.208.18-.282.568-.282 1.612 0 3.731.104 3.94.104.329 0 2.404-.104 3.478-.104.388 0 .568.074.568.282 0 .15-.15.209-.284.209-.254 0-.463.03-.896.104-.97.178-1.254.788-1.328 2.038-.075 1.146-.075 2.142-.075 7.707v2.142c.747-.684 7.24-7.245 8.524-8.644 1-1.041 1.94-1.964 1.94-2.574 0-.431-.179-.64-.463-.744-.179-.074-.328-.148-.328-.282 0-.179.179-.253.433-.253.716 0 1.821.104 2.687.104.179 0 2.537-.104 3.433-.104.388 0 .537.074.537.253 0 .178-.074.253-.358.253-.537 0-1.284.178-2 .506-1.463.64-2.254 1.532-3.866 3.064-.896.863-7.135 6.933-7.882 7.826.926 1.042 8.389 8.719 9.852 10.072 3.015 2.782 3.612 3.363 5.344 4.077.925.387 1.97.461 2.224.461.254 0 .463.075.463.208 0 .179-.179.283-.791.283h-1.821c-1.001 0-1.687 0-2.478-.074-1.896-.179-2.792-.967-4.329-2.172-1.612-1.325-9.21-9.493-10.927-11.605l-.179 3.496c0 3.422 0 6.249.179 7.751.105 1.042.329 1.816 1.403 1.964.508.075 1.075.15 1.404.15.209 0 .283.103.283.207 0 .179-.179.283-.567.283h-7.553c-.388 0-.567-.074-.567-.283 0-.104.074-.208.283-.208.329 0 .747-.074 1.075-.149.717-.148.896-.922 1.045-1.964.149-1.517.149-4.344.149-7.766zM48.946 16.067V10.86c0-5.565 0-6.576-.075-7.707-.075-1.22-.358-1.785-1.537-2.038-.284-.075-.896-.104-1.225-.104-.149 0-.283-.075-.283-.209 0-.208.18-.282.567-.282 1.612 0 3.792.104 4.12.104.328 0 2.478-.104 3.553-.104.388 0 .567.074.567.282 0 .15-.15.209-.284.209-.253 0-.462.03-.895.104-.97.149-1.254.788-1.329 2.038-.075 1.146-.075 2.142-.075 7.707v4.999c0 5.147 1.15 7.35 2.687 8.822 1.762 1.637 3.374 1.964 5.404 1.964 2.18 0 4.329-1.041 5.627-2.574 1.642-2.038 2.075-5.073 2.075-8.748V10.86c0-5.565 0-6.576-.074-7.707-.075-1.22-.359-1.785-1.538-2.038-.283-.075-.895-.104-1.224-.104-.15 0-.284-.075-.284-.209 0-.208.18-.282.568-.282 1.612 0 3.582.104 3.791.104.254 0 1.94-.104 3.016-.104.388 0 .567.074.567.282 0 .15-.15.209-.284.209-.254 0-.463 0-.895.104-.97.178-1.254.788-1.329 2.038-.075 1.146-.075 2.142-.075 7.707v3.823c0 3.854-.433 8.139-3.298 10.683-2.583 2.29-5.27 2.648-7.375 2.648-1.224 0-4.836-.149-7.373-2.53-1.717-1.71-3.09-4.21-3.09-9.417zm34.84-1.28v3.928c0 3.824.104 5.966.462 6.457.537.714 1.866 1.429 6.09 1.429 6.956 0 11.39-4.538 11.39-11.858 0-8.198-4.688-13.152-14.047-13.152l-6.478-.238c-.597-.015-1.836-.03-1.836-.03-.194-.253-.254-.833.134-.833h9.509c8.493 0 15.942 3.392 15.942 13.137 0 7.573-5.12 13.985-14.718 13.985-3.075 0-10.39-.134-11.464-.134-.388 0-.567-.074-.567-.282 0-.104.074-.209.283-.209.329 0 .747-.03 1.075-.148.567-.179.746-.506.97-1.533.18-.922.254-3.972.254-8.331v-2.187h3zM7.94 27.897c-.567.06-1.18.104-1.806.104-1.94 0-3.836-.253-5.523-.967C.045 26.78 0 26.63 0 25.679c0-1.785.164-3.213.209-3.779.045-.387.12-.565.328-.565.254 0 .284.104.284.387 0 .327 0 .818.12 1.324.611 2.648 3.343 3.645 6.09 3.645.313 0 .612-.015.91-.045v1.25zm6.941-23.329c0 .566-.09.819-.283.819-.254 0-.284-.179-.329-.461-.045-.432-.298-1.384-.537-1.786-.254-.387-1.508-1.89-5.3-1.89-2.835 0-5.06 1.533-5.06 4.137 0 2.038 1.105 3.288 5.03 5.996l2.434 1.68c1.567 1.087 3.06 2.218 3.866 3.467H9.747c-.418-.327-.88-.67-1.403-1.041l-1.85-1.31C2.12 11.07.686 8.852.686 6.428.687 2.603 3.986 0 9.21 0c1.612 0 2.955.149 3.985.357.777.149 1.105.179 1.448.179.329 0 .418.074.418.253-.015.178-.179 1.353-.179 3.778zm17.674-2.529V17.14c0 3.422 0 6.249.179 7.752.104 1.041.328 1.815 1.403 1.963.508.075 1.284.15 1.612.15.21 0 .284.103.284.207 0 .179-.18.283-.567.283h-7.912c-.388 0-.567-.074-.567-.282 0-.105.075-.209.284-.209.328 0 .746-.074 1.074-.149.717-.148.896-.922 1.045-1.963.18-1.503.18-4.315.18-7.752V2.04h-.344l-4.956.074c-2.224.03-3.075.282-3.657 1.145-.388.61-.507.863-.612 1.101-.104.283-.209.357-.358.357-.104 0-.18-.104-.18-.327 0-.357.717-3.124.792-3.422.06-.208.194-.67.343-.67.254 0 .612.06 1.582.134 1.045.105 2.404.179 2.837.179h13.434c2.299 0 3.254-.06 3.553-.06.179 0 .179.209.179.432 0 1.071.044 3.243.044 3.63 0 .327-.104.461-.253.461-.18 0-.284-.104-.329-.61l-.06-.386c-.149-1.072-1.06-1.89-4.492-1.964l-4.18-.075h-.358zm83.785 8.823v6.278c0 3.422 0 6.249.179 7.752.105 1.041.329 1.815 1.403 1.963.508.075 1.284.15 1.613.15.208 0 .283.103.283.207 0 .179-.179.283-.567.283h-7.911c-.389 0-.568-.074-.568-.282 0-.105.075-.209.284-.209.328 0 .746-.03 1.075-.149.567-.178.746-.505.97-1.532.179-.922.254-3.824.254-8.183v-6.278c0-5.996-.03-7.499-.105-8.109-.104-.863-.328-1.398-1.507-1.636-.284-.075-.896-.104-1.224-.104-.15 0-.284-.075-.284-.209 0-.208.179-.282.567-.282 1.179 0 3.866.104 4.045.104.18 0 2.434-.104 3.508-.104.388 0 .568.074.568.282 0 .15-.15.209-.284.209-.254 0-.463.03-.896.104-.97.178-1.254.788-1.328 2.038-.075 1.13-.075 2.128-.075 7.707zm11.643 3.035h-3.418C124.581 8.123 128.82 0 138.672 0c8.061 0 14.076 5.073 14.076 13.39 0 7.826-5.403 14.312-13.718 14.595v-1.354h.388c3.225 0 9.882-1.86 9.882-12.244 0-8.57-5.224-13.182-10.897-13.182-5.985 0-10.464 3.928-10.464 11.754l.045.937zm59.126 0h-3.418C183.722 8.108 187.946 0 197.813 0c8.06 0 14.076 5.073 14.076 13.39 0 7.826-5.419 14.312-13.733 14.595v-1.354h.403c3.224 0 9.882-1.86 9.882-12.244 0-8.57-5.225-13.182-10.897-13.182-5.986 0-10.464 3.928-10.464 11.754l.03.937zm62.589 9.67c-.328.893-.507 1.756-.507 2.396 0 .714.746 1.041 1.358 1.041h.358c.254 0 .358.075.358.209 0 .208-.209.282-.537.282h-9.897c-2 0-2.895-.178-3.836-.684-1.537-.819-2.791-2.574-4.836-5.252-1.508-1.964-3.224-4.463-3.941-5.4-.149-.15-.254-.209-.463-.209l-5.12.045c-.179 0-.253.104-.253.282v.863c0 3.422 0 6.249.179 7.752.104 1.041.328 1.815 1.403 1.963.507.075 1.284.15 1.612.15.209 0 .284.103.284.207 0 .179-.18.283-.568.283h-7.777c-.388 0-.567-.074-.567-.282 0-.105.075-.209.284-.209.328 0 .746-.074 1.075-.149.716-.148.895-.922 1.044-1.963.18-1.503.18-4.315.18-7.752v-2.202h4.358c.314.015 2.956-.119 3.269-.119.866 0 2.911-.372 3.747-.937 1.254-.863 2.732-1.592 2.732-5.088 0-5.847-3.941-7.127-7.762-7.142l-1.404-.044-4.299-.045-2-.015c-.119-.416-.134-.997.269-.997 1.612 0 6.463-.044 7.583-.044 2.254 0 6.045.208 7.941 1.577.896.64 2.776 2.306 3.06 4.746.373 3.184-.776 6.77-6.195 8.51 2.941 3.75 5.255 6.784 7.329 8.986 1.941 2.038 3.478 2.425 4.374 2.574.493.074.896.104 1.149.104.269-.015.672-.044.911-.074 1.642-.208 2.358-1.577 3.015-3.363L256.491 1.4c.403-1.19.537-1.399.761-1.399.209 0 .358.179.791 1.28.538 1.353 6.911 16.097 9.091 21.528 1.284 3.183 2.328 3.749 3.075 3.957.537.179 1.075.208 1.433.208.209 0 .358.03.358.209 0 .208-.328.282-.716.282-.538 0-3.15 0-5.628-.074-.776-.015-1.105.015-1.105-.193 0-.15.03-.209.284-.298.075-.03.284-.178.284-.506 0-.104 0-.327-.075-.461l-8.12-20.174c-.105-.283-.179-.387-.284-.387-.075 0-.179.149-.254.387l-6.687 17.808z" fill="#B1AFA9"/></svg>