<svg xmlns="http://www.w3.org/2000/svg" xmlns:xlink="http://www.w3.org/1999/xlink"><symbol id="icon-arrow-2"><path stroke="#CCBB9E" d="M6.5 0v30"/><path d="M6.5 36L.87 26.25h11.26L6.5 36z" fill="#CCBB9E"/></symbol><symbol id="icon-arrow-slider" viewBox="0 0 31 46"><path d="M1 47l29-23L1 1"/></symbol><symbol id="icon-arrow"><path stroke="#CCBB9E" d="M0 6.5h92"/><path d="M102 6.5l-9.75 5.63V.87L102 6.5z" fill="#CCBB9E"/></symbol><symbol id="icon-check"><path d="M1 5.5L5.968 11 15 1" stroke="#fff" stroke-linecap="round"/></symbol><symbol id="icon-close"><path fill="#141215" d="M1.414 0L21.92 20.506l-1.414 1.414L0 1.414z"/><path fill="#141215" d="M21.92 1.414L1.416 21.92 0 20.506 20.507 0z"/></symbol><symbol id="icon-fb"><path d="M33 16c0-8.838-7.386-16-16.5-16S0 7.162 0 16c0 8.837 7.386 16 16.5 16 .097 0 .193 0 .29-.006v-12.45h-3.545v-4.007h3.545v-2.95c0-3.418 2.153-5.28 5.298-5.28 1.508 0 2.804.105 3.178.155v3.575H23.1c-1.708 0-2.043.788-2.043 1.944v2.55h4.093l-.535 4.007h-3.558V31.38C27.953 29.462 33 23.306 33 16z" fill="#C4B192"/></symbol><symbol id="icon-inst"><path d="M19.658 16c0 1.691-1.414 3.063-3.158 3.063S13.342 17.69 13.342 16s1.414-3.063 3.158-3.063S19.658 14.31 19.658 16z" fill="#C4B192"/><path d="M23.886 10.582a2.84 2.84 0 00-.709-1.057 2.944 2.944 0 00-1.09-.687c-.333-.126-.835-.275-1.758-.316-1-.044-1.3-.054-3.83-.054-2.53 0-2.829.01-3.828.053-.923.041-1.425.191-1.759.317a2.942 2.942 0 00-1.09.687 2.842 2.842 0 00-.708 1.056c-.13.324-.284.81-.326 1.707-.046.968-.056 1.259-.056 3.712 0 2.453.01 2.744.056 3.713.042.896.196 1.382.326 1.706.152.399.394.76.708 1.056.306.305.678.54 1.09.687.334.126.835.276 1.76.317.998.044 1.298.053 3.828.053s2.83-.009 3.828-.053c.924-.041 1.426-.19 1.76-.317a3.091 3.091 0 001.798-1.743c.13-.324.284-.81.326-1.706.046-.97.055-1.26.055-3.713 0-2.453-.01-2.744-.055-3.712-.042-.896-.196-1.383-.326-1.707zM16.5 20.718c-2.687 0-4.866-2.112-4.866-4.718s2.179-4.718 4.866-4.718 4.865 2.112 4.865 4.718-2.178 4.718-4.865 4.718zm5.058-8.52c-.628 0-1.137-.493-1.137-1.102 0-.61.509-1.103 1.137-1.103.627 0 1.137.494 1.137 1.103s-.51 1.102-1.137 1.102z" fill="#C4B192"/><path d="M16.5 0C7.389 0 0 7.165 0 16s7.389 16 16.5 16S33 24.835 33 16 25.611 0 16.5 0zm9.418 19.788c-.046.978-.207 1.646-.44 2.23a4.774 4.774 0 01-2.772 2.687c-.602.227-1.291.382-2.3.427-1.01.045-1.333.055-3.906.055-2.573 0-2.896-.01-3.906-.055-1.009-.045-1.697-.2-2.3-.427a4.659 4.659 0 01-1.678-1.06 4.493 4.493 0 01-1.093-1.627c-.234-.584-.394-1.252-.44-2.23-.047-.98-.058-1.293-.058-3.788s.011-2.808.058-3.788c.045-.978.205-1.646.44-2.23a4.49 4.49 0 011.093-1.627 4.657 4.657 0 011.678-1.06c.603-.227 1.291-.382 2.3-.427 1.01-.045 1.333-.056 3.906-.056 2.573 0 2.896.011 3.906.056 1.009.045 1.697.2 2.3.427a4.66 4.66 0 011.678 1.06 4.491 4.491 0 011.093 1.627c.235.584.395 1.252.44 2.23.047.98.058 1.293.058 3.788s-.011 2.808-.058 3.788z" fill="#C4B192"/></symbol><symbol id="icon-menu"><path fill="#B1AFA9" d="M8 0h21v2H8zM5 9h24v2H5zm-5 9h29v2H0z"/></symbol><symbol id="icon-person"><path d="M9 8.25a3 3 0 100-6 3 3 0 000 6zm0-4.5a1.5 1.5 0 110 3 1.5 1.5 0 010-3zm0 6A5.25 5.25 0 003.75 15a.75.75 0 101.5 0 3.75 3.75 0 017.5 0 .75.75 0 101.5 0A5.25 5.25 0 009 9.75z" fill="#4B4A50"/></symbol><symbol id="icon-phone" viewBox="0 0 15 15"><path d="M13.05 16.5A11.565 11.565 0 011.5 4.95 3.45 3.45 0 014.95 1.5c.194-.001.387.016.577.053.184.027.365.072.54.135a.75.75 0 01.488.562l1.027 4.5a.75.75 0 01-.195.69c-.097.105-.105.113-1.027.593a7.433 7.433 0 003.652 3.667c.488-.93.495-.937.6-1.035a.75.75 0 01.69-.195l4.5 1.028a.75.75 0 01.54.487 3.262 3.262 0 01.188 1.118 3.45 3.45 0 01-3.48 3.397zM4.95 3A1.957 1.957 0 003 4.95 10.057 10.057 0 0013.05 15 1.958 1.958 0 0015 13.05v-.247L11.52 12l-.217.413c-.338.652-.586 1.125-1.216.87a8.888 8.888 0 01-5.385-5.408c-.27-.585.24-.855.885-1.192L6 6.48 5.197 3H4.95z"/></symbol><symbol id="icon-phone_"><path d="M13.05 16.5A11.565 11.565 0 011.5 4.95 3.45 3.45 0 014.95 1.5c.194-.001.387.016.577.053.184.027.365.072.54.135a.75.75 0 01.488.562l1.027 4.5a.75.75 0 01-.195.69c-.097.105-.105.113-1.027.593a7.433 7.433 0 003.652 3.667c.488-.93.495-.937.6-1.035a.75.75 0 01.69-.195l4.5 1.028a.75.75 0 01.54.487 3.262 3.262 0 01.188 1.118 3.45 3.45 0 01-3.48 3.397zM4.95 3A1.957 1.957 0 003 4.95 10.057 10.057 0 0013.05 15 1.958 1.958 0 0015 13.05v-.247L11.52 12l-.217.413c-.338.652-.586 1.125-1.216.87a8.888 8.888 0 01-5.385-5.408c-.27-.585.24-.855.885-1.192L6 6.48 5.197 3H4.95z" fill="#4B4A50"/></symbol><symbol id="icon-pin"><path d="M40 20c0 11.046-20 30-20 30S0 31.046 0 20 8.954 0 20 0s20 8.954 20 20z" fill="#C4B192"/><circle cx="19.5" cy="19.5" r="7" fill="#C4B192" stroke="#fff" stroke-width="3"/></symbol><symbol id="icon-ytb"><path d="M14.445 18.999l5.367-2.997-5.367-2.998v5.995z" fill="#C4B192"/><path d="M16.5 0C7.389 0 0 7.165 0 16s7.389 16 16.5 16S33 24.835 33 16 25.611 0 16.5 0zm10.31 16.016s0 3.245-.424 4.81a2.545 2.545 0 01-1.818 1.762C22.954 23 16.5 23 16.5 23s-6.438 0-8.068-.428a2.546 2.546 0 01-1.818-1.763C6.19 19.261 6.19 16 6.19 16s0-3.245.424-4.81c.238-.856.952-1.548 1.818-1.778C10.046 9 16.5 9 16.5 9s6.454 0 8.068.428c.883.23 1.58.906 1.817 1.763.442 1.564.425 4.825.425 4.825z" fill="#C4B192"/></symbol></svg>