<svg xmlns="http://www.w3.org/2000/svg" viewBox="0 0 74.25 31.34"><g data-name="Слой 2"><g data-name="Layer 1" fill-rule="evenodd"><path d="M7.44 31.34C.52 31.34.08 21 7 20.54h.75a11.06 11.06 0 013 .41A12 12 0 0127 12.4a12 12 0 0123.55-.45 12 12 0 0114.59 7.85h.42a12.91 12.91 0 015.68 1.31c5.13 2.5 3.28 10.25-2.43 10.25z" fill="#f6b000"/><path d="M5.42 28.84C-1.51 28.84-1.94 18.5 5 18h.75a11 11 0 013 .41 12 12 0 0116.2-8.51 12 12 0 0123.55-.46 12 12 0 0114.62 7.85h.42a12.91 12.91 0 015.68 1.31c5.13 2.5 3.28 10.25-2.43 10.25z" fill="#fdfdfd"/></g></g></svg>