<svg xmlns="http://www.w3.org/2000/svg" viewBox="0 0 45.6 45.6"><g data-name="Слой 2"><g data-name="Layer 1" fill-rule="evenodd"><path d="M22.8 45.6A22.8 22.8 0 100 22.8a22.84 22.84 0 0022.8 22.8z" fill="#ffffb9"/><path d="M17 13.72h6.72a7.49 7.49 0 013.31.72 5.7 5.7 0 012.35 2 5.33 5.33 0 01.85 3 5.39 5.39 0 01-.85 3 5.67 5.67 0 01-2.35 2 7.49 7.49 0 01-3.31.72h-3.16V27h4.88v2.49h-4.88v2.37H17v-2.35h-1.59V27H17V13.72zM23.79 22a2.88 2.88 0 002.09-.74 2.38 2.38 0 00.76-1.78 2.34 2.34 0 00-.76-1.76 2.91 2.91 0 00-2.09-.72h-3.23v5z" fill="#1a1a1a"/></g></g></svg>