<svg xmlns="http://www.w3.org/2000/svg"><defs><clipPath id="clip0"><path d="M0 0h101v92H0z"/></clipPath><clipPath id="clip0"><path transform="translate(37 24)" d="M0 0h36v48H0z"/></clipPath><clipPath id="clip0"><path transform="translate(37 24)" d="M0 0h36v48H0z"/></clipPath><clipPath id="clip0"><path d="M0 0h91v63H0z"/></clipPath><clipPath id="clip0"><path d="M0 0h61v68H0z"/></clipPath><clipPath id="clip0"><path transform="translate(34 26)" d="M0 0h34v44H0z"/></clipPath><clipPath id="clip0"><path transform="translate(34 26)" d="M0 0h34v44H0z"/></clipPath></defs><symbol id="icon-1"><path d="M21.107 25.582c0-8.172 6.468-16.344 14.298-16.344s14.298 7.817 14.298 16.344m-27.576 6.041c0 10.304 5.788 18.831 13.277 18.831 7.149 0 13.277-8.527 13.277-18.831" stroke="#333" stroke-width="1.4" stroke-miterlimit="10"/><path d="M18.042 24.517c0 3.553 7.83 6.395 17.362 6.395 9.532 0 17.361-2.842 17.361-6.395m-14.977-.356v-9.948c1.02-1.066 2.042-2.488 2.383-4.264m-7.15 14.212v-9.948c-1.021-.711-2.042-2.488-2.383-4.264m11.235 38.018v6.751l-6.809 7.106-7.49-7.817v-6.75M16 58.982v25.582" stroke="#333" stroke-width="1.4" stroke-miterlimit="10"/><path d="M23.49 55.429v27.714h23.489V55.429l-5.107-2.488" stroke="#333" stroke-width="1.4" stroke-miterlimit="10"/><path d="M4.425 84.209V70.707c0-4.974 3.745-7.462 5.788-8.883 2.042-1.421 17.702-8.527 17.702-8.527m42.213-11.015H58.213v5.33h11.915v-5.33z" stroke="#333" stroke-width="1.4" stroke-miterlimit="10"/><path d="M73.873 45.124h3.063v38.019H51.064V45.124h3.745" stroke="#333" stroke-width="1.4" stroke-miterlimit="10"/><path d="M57.19 52.586h13.958m-13.958 5.33h13.958M57.19 62.89h13.958M57.19 68.22h13.958m2.384 10.304h-7.149" stroke="#B22A2E" stroke-width="1.4" stroke-miterlimit="10"/></symbol><symbol id="icon-adv-1"><path d="M21.107 25.582c0-8.172 6.468-16.344 14.298-16.344s14.298 7.817 14.298 16.344M22.127 31.623c0 10.304 5.788 18.831 13.277 18.831 7.149 0 13.277-8.527 13.277-18.831" stroke="#333" stroke-width="1.4" stroke-miterlimit="10"/><path d="M18.042 24.517c0 3.553 7.83 6.395 17.362 6.395 9.532 0 17.361-2.842 17.361-6.395M37.788 24.161v-9.948c1.02-1.066 2.042-2.488 2.383-4.264M33.021 24.161v-9.948c-1.021-.711-2.042-2.488-2.383-4.264M41.873 47.967v6.751l-6.809 7.106-7.49-7.817v-6.75M16 58.982v25.582" stroke="#333" stroke-width="1.4" stroke-miterlimit="10"/><path d="M23.49 55.429v27.714h23.489V55.429l-5.107-2.488" stroke="#333" stroke-width="1.4" stroke-miterlimit="10"/><path d="M4.425 84.209V70.707c0-4.974 3.745-7.462 5.788-8.883 2.042-1.421 17.702-8.527 17.702-8.527M70.128 42.282H58.213v5.33h11.915v-5.33z" stroke="#333" stroke-width="1.4" stroke-miterlimit="10"/><path d="M73.873 45.124h3.063v38.019H51.064V45.124h3.745" stroke="#333" stroke-width="1.4" stroke-miterlimit="10"/><path d="M57.19 52.586h13.958M57.19 57.916h13.958M57.19 62.89h13.958M57.19 68.22h13.958M73.532 78.524h-7.149" stroke="#B22A2E" stroke-width="1.4" stroke-miterlimit="10"/></symbol><symbol id="icon-adv-2"><path d="M87 74.333H14.18V.539M24.091 65.83v-9.865M33.314 65.83V39.787M42.572 65.83V32.36M51.76 65.83V6.422M61.018 65.83V21.168M70.24 65.83V37.454M79.463 65.83V46.1" stroke="#333" stroke-width="1.4" stroke-miterlimit="10"/><path d="M1.275 59.803l27.359-17.327 14.007 12.162 42.053-34.512" stroke="#B22A2E" stroke-width="1.4" stroke-miterlimit="10"/></symbol><symbol id="icon-adv-3"><g clip-path="url(#clip0)" stroke-width="1.4" stroke-miterlimit="10"><path d="M76.643 31.678H53.585v6.066h23.058v-6.066zM76.643 45.495H53.585v6.066h23.058v-6.066zM76.643 59.648H53.585v6.066h23.058v-6.066zM76.643 73.465H53.585v6.066h23.058v-6.066zM51.312 69.758H31.177M47.415 69.758v-9.436M41.569 69.758v-9.436" stroke="#333"/><path d="M14.29 87.956h37.022l8.119-8.762M47.415 87.956V78.52M41.569 87.956V78.52M36.048 87.956V17.861M51.312 55.604H31.177M47.415 55.604v-9.436M41.569 55.604v-9.436M51.312 41.113H31.177M47.415 41.114v-9.436M41.569 41.114v-9.436M51.312 26.96H31.177M47.415 26.96v-9.436M41.569 26.96v-9.436M31.502 17.187h24.032v8.425h17.862v5.729M73.72 38.08v6.74M73.72 52.234v6.74M73.72 66.388v6.74M55.209 20.894h15.588" stroke="#333"/><path d="M7.469 69.421c3.587 0 6.495-3.017 6.495-6.74 0-3.722-2.908-6.74-6.495-6.74S.974 58.96.974 62.681c0 3.723 2.908 6.74 6.495 6.74zM88.01 9.099h12.341v12.806" stroke="#B22A2E"/><path d="M100.351 9.099L84.763 25.275h-7.145l-3.897 4.044M35.723 47.18h-12.99L12.34 57.962" stroke="#B22A2E"/><path d="M55.209 84.25H94.18" stroke="#333"/></g></symbol><symbol id="icon-adv-4"><path d="M32.675 58.599h-9.878l-6.079 12.69L6.46 79.127M53.57 42.55l9.878-9.332 11.018.747 19.757-21.648" stroke="#B22A2E" stroke-width="1.4" stroke-miterlimit="10"/><path d="M98.782 64.57H67.248V43.67h25.455l6.079 20.901z" stroke="#55565A" stroke-width="1.4" stroke-miterlimit="10"/><path d="M89.663 64.944L78.645 87.71H66.867l11.778-23.14M67.627 43.669H60.03c-12.918 0-20.517-14.556-20.517-14.556h-6.838v49.64h7.218s7.599-14.556 20.517-14.556h7.598" stroke="#55565A" stroke-width="1.4" stroke-miterlimit="10"/><path d="M83.584 11.57h11.778v11.57" stroke="#B22A2E" stroke-width="1.4" stroke-miterlimit="10"/><path d="M75.606 51.88h7.979" stroke="#55565A" stroke-width="1.4" stroke-miterlimit="10"/></symbol><symbol id="icon-ar-white"><path d="M1 1l10.219 9.693L1 20.386" stroke="#fff" stroke-width="2"/></symbol><symbol id="icon-ar"><path d="M1 1l10.219 9.693L1 20.386" stroke="#B3282D" stroke-width="2"/></symbol><symbol id="icon-arrow-double"><path d="M11 1l10.219 9.693L11 20.386" stroke="#B3282D" stroke-width="2"/><path d="M1 1l10.219 9.693L1 20.386" stroke="#B3282D" stroke-width="2"/></symbol><symbol id="icon-arrow-slide-red"><path d="M1.328 1.407l10.218 9.694-10.218 9.693" stroke="#B3282D" stroke-width="2"/></symbol><symbol id="icon-arrow-slide"><path opacity=".3" d="M12.672 20L2.454 10.396 12.672.792" stroke="#333" stroke-width="2"/></symbol><symbol id="icon-arrow"><path d="M1.328 1.407l10.218 9.694-10.218 9.693" stroke="#B3282D" stroke-width="2"/></symbol><symbol id="icon-burger-right"><path d="M20 0H0v20l4-4h16V0zm-2 14H4l-2 2V2h16v12z"/><path stroke="#fff" stroke-width="2" d="M5 6h10M5 10h10"/></symbol><symbol id="icon-compass-wh"><path stroke="#fff" stroke-width=".5" d="M0 83.701h100M.617 15.182h100M15.682 0v100M86.67 1.852v82.099"/><g clip-path="url(#clip0)" stroke="#fff" stroke-width=".8" stroke-miterlimit="10"><path d="M56.3 51.39l-3.695-8.407c-2.464.678-5.065-.813-5.75-3.254-.683-2.576.822-5.153 3.286-5.83 2.464-.679 5.065.813 5.75 3.254l3.147 11.525M61.091 56.271l4.244 15.594-6.16-13.831"/><path d="M43.981 63.593l19.027-18.847 9.17-4.34-4.38 9.221L48.772 68.34l-4.791-4.746zM53.563 24.407h-4.518v7.05h4.517v-7.05zM46.992 36.881l-9.581 34.983 12.593-28.881M53.152 37.966c.274.95-.274 1.898-1.232 2.17a1.76 1.76 0 0 1-2.19-1.22c-.41-.95.274-1.899 1.232-2.17a1.76 1.76 0 0 1 2.19 1.22zM52.468 33.763v-2.441M50.004 33.763v-2.441M66.567 48L50.825 63.593M64.513 45.83L48.635 61.56"/><path d="M64.24 45.966c.547-.542 1.505-.542 2.19 0 .547.542.547 1.492 0 2.17"/><path d="M64.513 44.068l.137.136c.41.406.273 1.22-.274 1.762M66.43 48.136c.547-.543 1.368-.678 1.78-.272.136.136.136.136.136.272M52.33 64.95l-4.79-4.747"/></g></symbol><symbol id="icon-compass"><path stroke="#9F9FA0" stroke-width=".5" d="M0 83.701h100M.617 15.182h100M15.682 0v100M86.67 1.852v82.099"/><g clip-path="url(#clip0)" stroke-width=".8" stroke-miterlimit="10"><path d="M56.3 51.39l-3.695-8.407c-2.464.678-5.065-.813-5.75-3.254-.683-2.576.822-5.153 3.286-5.83 2.464-.679 5.065.813 5.75 3.254l3.147 11.525M61.091 56.271l4.244 15.594-6.16-13.831" stroke="#55565A"/><path d="M43.981 63.593l19.027-18.847 9.17-4.34-4.38 9.221L48.772 68.34l-4.791-4.746z" stroke="#B22A2E"/><path d="M53.563 24.407h-4.518v7.05h4.517v-7.05zM46.992 36.881l-9.581 34.983 12.593-28.881M53.152 37.966c.274.95-.274 1.898-1.232 2.17a1.76 1.76 0 0 1-2.19-1.22c-.41-.95.274-1.899 1.232-2.17a1.76 1.76 0 0 1 2.19 1.22zM52.468 33.763v-2.441M50.004 33.763v-2.441" stroke="#55565A"/><path d="M66.567 48L50.825 63.593M64.513 45.83L48.635 61.56M64.24 45.966c.547-.542 1.505-.542 2.19 0 .547.542.547 1.492 0 2.17" stroke="#B22A2E"/><path d="M64.513 44.068l.137.136c.41.406.273 1.22-.274 1.762M66.43 48.136c.547-.543 1.368-.678 1.78-.272.136.136.136.136.136.272M52.33 64.95l-4.79-4.747" stroke="#B22A2E"/></g></symbol><symbol id="icon-feedback"><path d="M.01 18L20 9 .01 0 0 7l14.286 2L0 11l.01 7z"/></symbol><symbol id="icon-gr-1"><path stroke="#9F9FA0" stroke-width=".5" d="M0 83.701h100M.617 15.182h100M15.682 0v100M86.67 1.852v82.099"/></symbol><symbol id="icon-gr-5" viewBox="0 0 92 74"><path d="M28.732 38.941l-3.924 3.92 4.703 4.71 3.925-3.92-4.704-4.71z" stroke="#55565A" stroke-width="1.4" stroke-miterlimit="10"/><path d="M23.552 41.597L1 64.15 8.452 71.6 31.003 49.05l-7.451-7.452z" stroke="#55565A" stroke-width="1.4" stroke-miterlimit="10"/><path d="M61.718 35.489c1.697 1.082 3.596 1.422 5.858 1.422 6.503 0 11.592-4.87 11.592-11.092 0-6.223-5.09-11.093-11.592-11.093-2.828 0-5.655 1.082-7.635 2.706" stroke="#B22A2E" stroke-width="1.4" stroke-miterlimit="10"/><path d="M51.346 45.267c6.981 13.293 16.475 27.14 16.475 27.14S91 38.62 91 25.881c0-12.74-10.332-22.986-23.178-22.986-6.702 0-12.566 2.77-16.755 7.2" stroke="#B22A2E" stroke-width="1.4" stroke-miterlimit="10"/><path d="M57.966 41.118c7.365-7.364 7.365-19.305 0-26.67-7.365-7.364-19.305-7.364-26.67 0-7.364 7.365-7.364 19.306 0 26.67 7.365 7.365 19.305 7.365 26.67 0z" stroke="#55565A" stroke-width="1.4" stroke-miterlimit="10"/></symbol><symbol id="icon-gr-6" viewBox="0 0 80 97"><path d="M21.107 25.582c0-8.172 6.468-16.344 14.298-16.344s14.298 7.817 14.298 16.344M22.127 31.623c0 10.304 5.788 18.831 13.277 18.831 7.149 0 13.277-8.527 13.277-18.831" stroke="#333" stroke-width="1.4" stroke-miterlimit="10"/><path d="M18.042 24.517c0 3.553 7.83 6.395 17.362 6.395 9.532 0 17.361-2.842 17.361-6.395M37.788 24.161v-9.949c1.02-1.066 2.042-2.487 2.383-4.263M33.021 24.161v-9.949c-1.021-.71-2.042-2.487-2.383-4.263M41.873 47.967v6.751l-6.809 7.106-7.49-7.816v-6.751M16 58.982v25.582" stroke="#333" stroke-width="1.4" stroke-miterlimit="10"/><path d="M23.49 55.429v27.714h23.489V55.429l-5.107-2.488" stroke="#333" stroke-width="1.4" stroke-miterlimit="10"/><path d="M4.425 84.209V70.707c0-4.974 3.745-7.462 5.788-8.883 2.042-1.421 17.702-8.527 17.702-8.527M70.128 42.282H58.213v5.33h11.915v-5.33z" stroke="#333" stroke-width="1.4" stroke-miterlimit="10"/><path d="M73.873 45.124h3.063v38.019H51.064V45.124h3.745" stroke="#333" stroke-width="1.4" stroke-miterlimit="10"/><path d="M57.19 52.586h13.958M57.19 57.916h13.958M57.19 62.89h13.958M57.19 68.22h13.958M73.532 78.524h-7.15" stroke="#B22A2E" stroke-width="1.4" stroke-miterlimit="10"/></symbol><symbol id="icon-group01-wh"><path stroke="#fff" stroke-width=".5" d="M0 83.701h100"/><path transform="matrix(.99995 .01 0 1 .618 15.432)" stroke="#fff" stroke-width=".5" d="M0-.25h100.005"/><path stroke="#fff" stroke-width=".5" d="M15.682 0v100"/><path transform="matrix(.01218 .99993 -1 0 86.42 1.852)" stroke="#fff" stroke-width=".5" d="M0-.25h82.105"/><path d="M40.992 47.699l-2.5 2.497 2.996 2.999 2.5-2.497-2.996-2.999z" stroke="#fff" stroke-width=".8" stroke-miterlimit="10"/><path d="M37.692 49.39L23.329 63.755l4.746 4.746 14.363-14.364-4.746-4.745zM62 45.5c1.081.69 2.29.906 3.73.906 4.143 0 7.384-3.102 7.384-7.065 0-3.963-3.241-7.065-7.383-7.065-1.8 0-3.602.69-4.862 1.723" stroke="#fff" stroke-width=".8" stroke-miterlimit="10"/><path d="M55.395 51.728c4.446 8.466 10.493 17.286 10.493 17.286S80.65 47.494 80.65 39.38c0-8.114-6.58-14.64-14.762-14.64a14.542 14.542 0 0 0-10.671 4.586" stroke="#fff" stroke-width=".8" stroke-miterlimit="10"/><path d="M59.61 49.086c4.691-4.691 4.691-12.296 0-16.986-4.69-4.691-12.295-4.691-16.986 0-4.69 4.69-4.69 12.295 0 16.986 4.691 4.69 12.296 4.69 16.986 0z" stroke="#fff" stroke-width=".8" stroke-miterlimit="10"/></symbol><symbol id="icon-group01"><path stroke="#9F9FA0" stroke-width=".5" d="M0 83.701h100"/><path transform="matrix(.99995 .01 0 1 .618 15.432)" stroke="#9F9FA0" stroke-width=".5" d="M0-.25h100.005"/><path stroke="#9F9FA0" stroke-width=".5" d="M15.682 0v100"/><path transform="matrix(.01218 .99993 -1 0 86.42 1.852)" stroke="#9F9FA0" stroke-width=".5" d="M0-.25h82.105"/><path d="M40.992 47.699l-2.5 2.497 2.996 2.999 2.5-2.497-2.996-2.999z" stroke="#55565A" stroke-width=".8" stroke-miterlimit="10"/><path d="M37.692 49.39L23.329 63.755l4.746 4.746 14.363-14.364-4.746-4.745z" stroke="#55565A" stroke-width=".8" stroke-miterlimit="10"/><path d="M62 45.5c1.081.69 2.29.906 3.73.906 4.143 0 7.384-3.102 7.384-7.065 0-3.963-3.241-7.065-7.383-7.065-1.8 0-3.602.69-4.862 1.723" stroke="#B22A2E" stroke-width=".8" stroke-miterlimit="10"/><path d="M55.395 51.728c4.446 8.466 10.493 17.286 10.493 17.286S80.65 47.494 80.65 39.38c0-8.114-6.58-14.64-14.762-14.64a14.542 14.542 0 0 0-10.671 4.586" stroke="#B22A2E" stroke-width=".8" stroke-miterlimit="10"/><path d="M59.61 49.086c4.691-4.691 4.691-12.296 0-16.986-4.69-4.691-12.295-4.691-16.986 0-4.69 4.69-4.69 12.295 0 16.986 4.691 4.69 12.296 4.69 16.986 0z" stroke="#55565A" stroke-width=".8" stroke-miterlimit="10"/></symbol><symbol id="icon-group02-wh"><path d="M65.478 40.793H51.96v3.451h13.518v-3.451zM65.478 48.558H51.96v3.451h13.518v-3.45zM65.478 56.324H51.96v3.451h13.518v-3.451zM65.478 64.089H51.96v3.451h13.518V64.09zM50.522 62.22H38.731M48.221 62.22v-5.465M45.058 62.22v-5.465M28.951 72.43h21.57l4.89-4.89M48.221 72.43v-5.465M45.058 72.43v-5.465M41.75 72.43V32.74M50.522 54.166H38.731M48.221 54.166v-5.464M45.058 54.166v-5.464M50.522 45.97H38.731M48.221 46.114v-5.465M45.058 46.114v-5.465M50.522 37.917H38.731M48.221 37.917v-5.321M45.058 37.917v-5.321M39.018 32.452H53.11v4.746h10.354v3.307M63.752 44.244v3.739M63.752 52.297v3.739M63.752 60.206v3.74M52.967 34.61h8.916M25.069 61.788a3.739 3.739 0 1 0 0-7.478 3.739 3.739 0 0 0 0 7.478zM72.093 27.994h7.19v7.19" stroke="#fff" stroke-width=".8" stroke-miterlimit="10"/><path d="M79.282 27.994l-9.06 9.06h-4.17l-2.3 2.3M41.463 49.42H33.84l-6.04 5.897M52.967 70.129h22.577" stroke="#fff" stroke-width=".8" stroke-miterlimit="10"/><path stroke="#fff" stroke-width=".5" d="M0 83.701h100"/><path transform="matrix(.99995 .01 0 1 .618 15.432)" stroke="#fff" stroke-width=".5" d="M0-.25h100.005"/><path stroke="#fff" stroke-width=".5" d="M15.682 0v100"/><path transform="matrix(.01218 .99993 -1 0 86.42 1.852)" stroke="#fff" stroke-width=".5" d="M0-.25h82.105"/></symbol><symbol id="icon-group02"><path d="M65.478 40.793H51.96v3.451h13.518v-3.451zM65.478 48.558H51.96v3.451h13.518v-3.45zM65.478 56.324H51.96v3.451h13.518v-3.451zM65.478 64.089H51.96v3.451h13.518V64.09zM50.522 62.22H38.731M48.221 62.22v-5.465M45.058 62.22v-5.465M28.951 72.43h21.57l4.89-4.89M48.221 72.43v-5.465M45.058 72.43v-5.465M41.75 72.43V32.74M50.522 54.166H38.731M48.221 54.166v-5.464M45.058 54.166v-5.464M50.522 45.97H38.731M48.221 46.114v-5.465M45.058 46.114v-5.465M50.522 37.917H38.731M48.221 37.917v-5.321M45.058 37.917v-5.321M39.018 32.452H53.11v4.746h10.354v3.307M63.752 44.244v3.739M63.752 52.297v3.739M63.752 60.206v3.74M52.967 34.61h8.916" stroke="#55565A" stroke-width=".8" stroke-miterlimit="10"/><path d="M25.069 61.788a3.739 3.739 0 1 0 0-7.478 3.739 3.739 0 0 0 0 7.478zM72.093 27.994h7.19v7.19" stroke="#B22A2E" stroke-width=".8" stroke-miterlimit="10"/><path d="M79.282 27.994l-9.06 9.06h-4.17l-2.3 2.3M41.463 49.42H33.84l-6.04 5.897" stroke="#B22A2E" stroke-width=".8" stroke-miterlimit="10"/><path d="M52.967 70.129h22.577" stroke="#55565A" stroke-width=".8" stroke-miterlimit="10"/><path stroke="#9F9FA0" stroke-width=".5" d="M0 83.701h100"/><path transform="matrix(.99995 .01 0 1 .618 15.432)" stroke="#9F9FA0" stroke-width=".5" d="M0-.25h100.005"/><path stroke="#9F9FA0" stroke-width=".5" d="M15.682 0v100"/><path transform="matrix(.01218 .99993 -1 0 86.42 1.852)" stroke="#9F9FA0" stroke-width=".5" d="M0-.25h82.105"/></symbol><symbol id="icon-group03-wh"><path d="M41.017 49.194c-1.707-1.023-3.072-2.9-3.072-5.116 0-3.24 2.73-5.97 5.973-5.97 2.39 0 4.437 1.365 5.46 3.412" stroke="#fff" stroke-width=".8" stroke-miterlimit="10"/><path d="M41.017 57.55c-1.877-.34-3.584-1.193-4.949-2.217l-2.73 2.73-3.584-3.582 2.73-2.729c-1.024-1.535-1.877-3.41-2.218-5.457h-3.754v-4.776h3.754c.341-2.046 1.195-3.752 2.218-5.457l-2.73-2.729 3.584-3.581 2.73 2.729c1.536-1.024 3.413-1.876 5.46-2.217v-3.752h4.95v3.922c2.047.341 3.925 1.194 5.46 2.217l2.73-2.728 3.584 3.581-2.73 2.729c1.195 1.535 1.877 3.41 2.218 5.457" stroke="#fff" stroke-width=".8" stroke-miterlimit="10"/><path d="M75.488 41.52H41.017v27.968h34.47V41.52z" stroke="#fff" stroke-width=".8" stroke-miterlimit="10"/><path d="M51.94 52.434l-4.608 4.605-2.73-2.9M51.94 60.79l-4.608 4.605-2.73-2.728M56.375 61.302h13.823M56.375 64.543h7.338M56.375 52.434h13.823M56.375 55.674h7.338M45.113 44.59h13.652M41.017 47.83h34.47" stroke="#fff" stroke-width=".8" stroke-miterlimit="10"/><path stroke="#fff" stroke-width=".5" d="M0 83.701h100M.617 15.182h100M15.682 0v100M86.67 1.852v82.099"/></symbol><symbol id="icon-group03"><path d="M41.017 49.194c-1.707-1.023-3.072-2.9-3.072-5.116 0-3.24 2.73-5.97 5.973-5.97 2.39 0 4.437 1.365 5.46 3.412" stroke="#B22A2E" stroke-width=".8" stroke-miterlimit="10"/><path d="M41.017 57.55c-1.877-.34-3.584-1.193-4.949-2.217l-2.73 2.73-3.584-3.582 2.73-2.729c-1.024-1.535-1.877-3.41-2.218-5.457h-3.754v-4.776h3.754c.341-2.046 1.195-3.752 2.218-5.457l-2.73-2.729 3.584-3.581 2.73 2.729c1.536-1.024 3.413-1.876 5.46-2.217v-3.752h4.95v3.922c2.047.341 3.925 1.194 5.46 2.217l2.73-2.728 3.584 3.581-2.73 2.729c1.195 1.535 1.877 3.41 2.218 5.457" stroke="#B22A2E" stroke-width=".8" stroke-miterlimit="10"/><path d="M75.488 41.52H41.017v27.968h34.47V41.52z" stroke="#55565A" stroke-width=".8" stroke-miterlimit="10"/><path d="M51.94 52.434l-4.608 4.605-2.73-2.9M51.94 60.79l-4.608 4.605-2.73-2.728M56.375 61.302h13.823M56.375 64.543h7.338M56.375 52.434h13.823M56.375 55.674h7.338M45.113 44.59h13.652M41.017 47.83h34.47" stroke="#55565A" stroke-width=".8" stroke-miterlimit="10"/><path stroke="#9F9FA0" stroke-width=".5" d="M0 83.701h100M.617 15.182h100M15.682 0v100M86.67 1.852v82.099"/></symbol><symbol id="icon-group04"><path stroke="#9F9FA0" stroke-width=".5" d="M0 83.701h100M.617 15.182h100M15.682 0v100M86.67 1.852v82.099"/></symbol><symbol id="icon-group05"><path d="M28.732 38.941l-3.924 3.92 4.703 4.71 3.925-3.92-4.704-4.71z" stroke="#55565A" stroke-width="1.4" stroke-miterlimit="10"/><path d="M23.552 41.597L1 64.15 8.452 71.6 31.003 49.05l-7.451-7.452z" stroke="#55565A" stroke-width="1.4" stroke-miterlimit="10"/><path d="M61.718 35.489c1.697 1.082 3.596 1.422 5.858 1.422 6.503 0 11.592-4.87 11.592-11.092 0-6.223-5.09-11.093-11.592-11.093-2.828 0-5.655 1.082-7.635 2.706" stroke="#B22A2E" stroke-width="1.4" stroke-miterlimit="10"/><path d="M51.346 45.267c6.981 13.293 16.475 27.14 16.475 27.14S91 38.62 91 25.881c0-12.74-10.332-22.986-23.178-22.986-6.702 0-12.566 2.77-16.755 7.2" stroke="#B22A2E" stroke-width="1.4" stroke-miterlimit="10"/><path d="M57.966 41.118c7.365-7.364 7.365-19.305 0-26.67-7.365-7.364-19.305-7.364-26.67 0-7.364 7.365-7.364 19.306 0 26.67 7.365 7.365 19.305 7.365 26.67 0z" stroke="#55565A" stroke-width="1.4" stroke-miterlimit="10"/></symbol><symbol id="icon-group06" viewBox="0 0 91 63"><g clip-path="url(#clip0)" stroke-width="1.4" stroke-miterlimit="10"><path d="M73.25 37.962V26.048H52.436M40.807 26.048H23.464v36.144H73.25v-14.74" stroke="#333"/><path d="M68.352 37.962H37.135v9.49h38.97v-9.49h-7.957M63.455 47.452v15.346M49.377 47.452v15.346M56.518 47.452v15.346M73.453 57.144h-9.794" stroke="#333"/><path d="M49.377 57.144h-9.59v-9.692M46.724 31.5c3.155 0 5.713-2.531 5.713-5.654 0-3.122-2.558-5.654-5.713-5.654-3.155 0-5.713 2.532-5.713 5.654 0 3.123 2.557 5.654 5.713 5.654zM32.238 33.115h-3.877v23.221h3.877v-23.22zM63.047 59.164h-13.67M32.237 41.192H28.77M32.237 48.664H28.77" stroke="#333"/><path d="M23.464 36.75c-1.633 1.817-3.877 3.23-6.733 3.23-11.835 0-12.039-20.595-12.039-20.595 5.101 0 5.713-5.654 5.713-5.654h12.447s.612 5.654 5.713 5.654c0 0 0 2.826-.613 6.461" stroke="#B22A2E"/><path d="M23.464 42.202c-1.836 1.212-4.08 1.817-6.733 1.817C4.08 44.02.61 28.471.61 19.183v-4.24h4.286c1.224 0 1.632-1.818 1.632-2.02L7.14 9.29H26.932l.409 3.634c0 .404.408 2.02 1.632 2.02h4.285v4.24c0 2.019-.205 4.24-.613 6.663" stroke="#B22A2E"/><path d="M23.464 9.288C30.402 3.836 39.38.606 48.97.606c22.852 0 41.42 18.375 41.42 40.99 0 7.673-2.245 14.942-5.918 21.202" stroke="#B22A2E"/></g></symbol><symbol id="icon-group07" viewBox="0 0 61 68"><g clip-path="url(#clip0)" stroke-width="1.4" stroke-miterlimit="10"><path d="M38.298 54.558c4.146 1.186 5.528-6.128 5.528-6.128 2.961-1.383 3.553-5.337 3.553-5.337 8.686-2.372 5.923-11.86 5.923-11.86s3.948-1.977 1.184-8.105c-.79-1.581-2.369-4.744-3.356-6.128" stroke="#55565A"/><path d="M6.317 21.744c.593-2.57 1.58-6.128 1.58-6.128s-3.159-3.162.394-5.93c0 0 .395-9.29 8.292-7.512 0 0 4.935-2.767 9.87-.988 0 0 5.923.198 7.897 3.163 0 0 4.343-.395 7.699 2.174 0 0 5.922-3.162 8.488-2.372 3.356 1.186 7.305 5.733 8.884 8.5 1.382 2.57 2.566 7.116-4.54 11.07M4.342 30.442a601.377 601.377 0 0 0-3.75 7.116c-.198.593-.198 2.174 4.145 2.174v2.965s-2.171 1.977 0 2.966c0 0-.79 2.57 1.185 2.965 0 0 .79.79.592 1.581-.197.79-2.369 6.523 2.171 7.512 1.975.395 6.318.197 7.502 0 1.184-.198.79 10.081.79 10.081M38.298 39.733v16.011c0 1.78.395 6.523.79 7.71M28.625 42.105s3.75 1.976 5.724-3.954" stroke="#55565A"/><path d="M27.835 30.442s-2.764 7.314 4.935 5.732c0 0 2.566 3.954 7.107 4.349 4.54.395 5.33-3.756 5.33-3.756" stroke="#55565A"/><path d="M7.896 15.616s1.58.989 5.528.593c0 0 .592 3.36 8.686 3.558 0 0 .198 5.535 2.961 7.117 0 0 1.185 5.732 7.107 3.558 5.922-2.175 4.935 2.57 7.7 2.57 2.565.197 3.553-1.582 3.553-1.582M14.806 8.105s1.776-4.151 5.725-2.965c3.948.988 5.527-.989 5.527-.989M22.11 19.57s4.343-.396 6.515 1.186M23.294 13.046s2.764 2.768 5.33 1.187c2.567-1.582 1.975-4.942 6.713-4.745M31.586 23.128s2.961 2.372 6.317 0c3.356-2.372 5.922-.988 5.922-.988M16.385 57.919s2.96-.198 6.12-2.965" stroke="#55565A"/><path d="M23.098 23.721c-8.094-.395-16.583-2.372-16.583-2.372s-1.58 0-1.777 1.779c-.197 1.384-.197 2.372-.197 3.36 0 .989-1.184 2.768-.987 3.559.197.79 4.935 2.767 23.69 3.953" stroke="#B22A2E"/></g></symbol><symbol id="icon-menu-close-white"><path d="M20.513 1.414L19.099 0l-8.843 8.842L1.414 0 0 1.414l8.842 8.842L0 19.098l1.414 1.414 8.842-8.842 8.843 8.842 1.414-1.414-8.842-8.842z"/></symbol><symbol id="icon-menu-close"><path d="M20.513 1.414L19.099 0l-8.843 8.842L1.414 0 0 1.414l8.842 8.842L0 19.098l1.414 1.414 8.842-8.842 8.843 8.842 1.414-1.414-8.842-8.842z"/></symbol><symbol id="icon-menu-open"><path d="M0 0h19.958v2H0zm0 6h19.958v2H0zm0 6h19.958v2H0z"/></symbol><symbol id="icon-open"><path d="M.5 16.5h30v1H.5v-1zm0-7h30v1H.5v-1zm0-7h30v1H.5v-1zm0 13h30v1H.5v-1zm0-7h30v1H.5v-1zm0-7h30v1H.5v-1zm0 13h30v1H.5v-1zm0-7h30v1H.5v-1zm0-7h30v1H.5v-1z"/></symbol><symbol id="icon-task-1"><path stroke="#9F9FA0" stroke-width=".5" d="M0 83.701h100M.618 15.182h100M15.682 0v100M86.67 1.852v82.099"/><path d="M59.61 49.086c4.69-4.691 4.69-12.296 0-16.986-4.69-4.691-12.295-4.691-16.986 0-4.69 4.69-4.69 12.295 0 16.986 4.69 4.69 12.295 4.69 16.986 0zM40.992 47.699l-2.5 2.496 2.996 3 2.5-2.497-2.996-3z" stroke="#99999A" stroke-width=".55" stroke-miterlimit="10"/><path d="M37.692 49.39L23.329 63.754l4.746 4.746 14.363-14.364-4.746-4.746zM61.77 45.372c1.08.69 2.52 1.034 3.96 1.034 4.143 0 7.384-3.102 7.384-7.065 0-3.963-3.241-7.065-7.383-7.065-1.8 0-3.602.69-4.862 1.723" stroke="#99999A" stroke-width=".55" stroke-miterlimit="10"/><path d="M55.395 51.727c4.446 8.467 10.493 17.286 10.493 17.286S80.65 47.494 80.65 39.38c0-8.113-6.58-14.64-14.762-14.64a14.542 14.542 0 0 0-10.671 4.587" stroke="#99999A" stroke-width=".55" stroke-miterlimit="10"/></symbol><symbol id="icon-task-2"><path d="M65.477 40.793H51.959v3.451h13.518v-3.451zM65.477 48.558H51.959v3.452h13.518v-3.452zM65.477 56.324H51.959v3.451h13.518v-3.451zM65.477 64.089H51.959v3.451h13.518V64.09zM50.522 62.22H38.73M48.22 62.22v-5.465M45.058 62.22v-5.465M28.95 72.43h21.571l4.89-4.89M48.22 72.43v-5.465M45.058 72.43v-5.465M41.749 72.43V32.74M50.522 54.167H38.73M48.22 54.167v-5.465M45.058 54.167v-5.465M50.522 45.97H38.73M48.22 46.114v-5.465M45.058 46.114v-5.465M50.522 37.917H38.73M48.22 37.917v-5.321M45.058 37.917v-5.321M39.017 32.452H53.11v4.746h10.354v3.307M63.751 44.244v3.739M63.751 52.297v3.739M63.751 60.206v3.74M52.966 34.61h8.916M25.069 61.788a3.739 3.739 0 1 0 0-7.478 3.739 3.739 0 0 0 0 7.478zM72.092 27.994h7.19v7.19" stroke="#99999A" stroke-width=".55" stroke-miterlimit="10"/><path d="M79.282 27.994l-9.06 9.06h-4.17l-2.301 2.3M41.462 49.421h-7.621l-6.04 5.896M52.966 70.129h22.577" stroke="#99999A" stroke-width=".55" stroke-miterlimit="10"/><path stroke="#9F9FA0" stroke-width=".5" d="M0 83.701h100M.618 15.182h100M15.682 0v100M86.67 1.852v82.099"/></symbol><symbol id="icon-task-3-1"><path stroke="#9F9FA0" stroke-width=".5" d="M0 83.701h100M.618 15.182h100M15.682 0v100M86.67 1.852v82.099"/><path d="M67.344 35.6c0-2.24 2.72-3.68 2.72-3.68s2.72 1.44 2.72 3.68v27.04c0 2.24-2.72 3.68-2.72 3.68s-2.72-1.44-2.72-3.68V35.6v0zM56.623 35.6c0-2.24 2.72-3.68 2.72-3.68s2.72 1.44 2.72 3.68v27.04c0 2.24-2.72 3.68-2.72 3.68s-2.72-1.44-2.72-3.68V35.6zM46.063 35.6c0-2.24 2.72-3.68 2.72-3.68s2.72 1.44 2.72 3.68v27.04c0 2.24-2.72 3.68-2.72 3.68s-2.72-1.44-2.72-3.68V35.6zM35.344 35.6c0-2.24 2.72-3.68 2.72-3.68s2.72 1.44 2.72 3.68v27.04c0 2.24-2.72 3.68-2.72 3.68s-2.72-1.44-2.72-3.68V35.6zM72.784 36.88l3.84.96v5.12l-3.84.8M72.784 56.24l3.84 1.12v5.12l-3.84.8M45.424 38h-4.32M56.623 38h-4.96M67.344 38h-5.12M45.424 62.16h-4.32M56.623 62.16h-4.96M67.344 62.16h-5.12M35.343 37.84h-4.96c-1.44 0-2.72-1.28-2.72-2.72V30M35.344 62.16h-4.32c-1.6 0-2.72 1.28-2.72 2.72V70" stroke="#99999A" stroke-width=".55" stroke-miterlimit="10"/></symbol><symbol id="icon-task-3"><path stroke="#9F9FA0" stroke-width=".5" d="M0 83.701h100M.618 15.182h100M15.682 0v100M86.67 1.852v82.099"/></symbol><symbol id="icon-task-rub-wh"><path stroke="#fff" stroke-width=".5" d="M0 83.701h100M.617 15.182h100M15.682 0v100M86.67 1.852v82.099"/><g clip-path="url(#clip0)"><path d="M36.377 46.608h4.387V28.042c0-.743.548-1.3 1.28-1.3 2.741 0 7.494-.185 9.687-.185 12.065 0 15.538 5.57 15.538 12.253 0 6.87-4.936 11.882-15.172 11.882h-6.032v6.498h8.408c1.097 0 2.011.928 2.011 2.042 0 1.114-.914 2.042-2.01 2.042h-8.41v6.498c0 1.114-.913 2.042-2.01 2.042h-1.28c-1.096 0-2.01-.928-2.01-2.042v-6.498h-4.388c-1.096 0-2.01-.928-2.01-2.042 0-1.114.914-2.042 2.01-2.042h4.388v-6.498h-4.388c-1.096 0-2.01-.928-2.01-2.042.182-1.114 1.096-2.042 2.01-2.042zm9.688-15.038v15.223h6.215c6.215 0 9.87-2.413 9.87-7.612 0-5.012-2.924-7.611-9.688-7.611-1.645-.186-4.387-.186-6.397 0z" stroke="#fff" stroke-width=".8" stroke-miterlimit="10"/></g></symbol><symbol id="icon-task-rub"><path stroke="#9F9FA0" stroke-width=".5" d="M0 83.701h100M.617 15.182h100M15.682 0v100M86.67 1.852v82.099"/><g clip-path="url(#clip0)"><path d="M36.377 46.608h4.387V28.042c0-.743.548-1.3 1.28-1.3 2.741 0 7.494-.185 9.687-.185 12.065 0 15.538 5.57 15.538 12.253 0 6.87-4.936 11.882-15.172 11.882h-6.032v6.498h8.408c1.097 0 2.011.928 2.011 2.042 0 1.114-.914 2.042-2.01 2.042h-8.41v6.498c0 1.114-.913 2.042-2.01 2.042h-1.28c-1.096 0-2.01-.928-2.01-2.042v-6.498h-4.388c-1.096 0-2.01-.928-2.01-2.042 0-1.114.914-2.042 2.01-2.042h4.388v-6.498h-4.388c-1.096 0-2.01-.928-2.01-2.042.182-1.114 1.096-2.042 2.01-2.042zm9.688-15.038v15.223h6.215c6.215 0 9.87-2.413 9.87-7.612 0-5.012-2.924-7.611-9.688-7.611-1.645-.186-4.387-.186-6.397 0z" stroke="#55565A" stroke-width=".8" stroke-miterlimit="10"/></g></symbol><symbol id="icon-tast-22"><path stroke="#9F9FA0" stroke-width=".5" d="M0 83.701h100M.617 15.182h100M15.682 0v100M86.67 1.852v82.099"/></symbol></svg>