<svg xmlns="http://www.w3.org/2000/svg" xmlns:xlink="http://www.w3.org/1999/xlink"><defs><clipPath id="Money"><path fill="#fff" d="M0 0h24v24H0z"/></clipPath></defs><symbol id="icon-arrow"><g fill="none"><path d="M33.854 4.354a.5.5 0 000-.708L30.672.464a.5.5 0 10-.707.708L32.793 4l-2.828 2.828a.5.5 0 10.707.708l3.182-3.182zM.5 4v.5h33v-1H.5V4z" fill="#fff"/></g></symbol><symbol id="icon-cancel"><g fill="none"><path d="M7.999 15.167a6.667 6.667 0 100-13.333 6.667 6.667 0 000 13.333zM10 6.5l-4 4m0-4l4 4" stroke="#9FA1A3" stroke-width="1.333" stroke-linecap="round" stroke-linejoin="round"/></g></symbol><symbol id="icon-check"><g fill="none"><path d="M7.999 15.167a6.667 6.667 0 100-13.333 6.667 6.667 0 000 13.333z" stroke="#42474D" stroke-width="1.333" stroke-linecap="round" stroke-linejoin="round"/><path d="M6 8.5l1.333 1.333L10 7.166" stroke="#42474D" stroke-width="1.333" stroke-linecap="round" stroke-linejoin="round"/></g></symbol><symbol id="icon-clubs"><g fill="none"><path d="M14 3a1 1 0 00-1.447-.894l-8 4A1 1 0 004 7v13H3a1 1 0 100 2h18a1 1 0 100-2h-1v-9a1 1 0 00-.445-.832L15 7.131V20h-1V3z" fill="#42474D"/></g></symbol><symbol id="icon-info"><g fill="none"><path d="M12 22c5.523 0 10-4.477 10-10S17.523 2 12 2 2 6.477 2 12s4.477 10 10 10zm0-6v-4m0-4h.01" stroke="#42474D" stroke-width="2" stroke-linecap="round" stroke-linejoin="round"/></g></symbol><symbol id="icon-lock"><g fill="none"><path d="M16.087 9.765h-.658l-.004-3.283A6.492 6.492 0 008.936 0a6.492 6.492 0 00-6.482 6.489L2.46 9.77h-.233A2.23 2.23 0 000 12l.002 9.774C.002 23.004 1 24 2.23 24l13.861-.007c1.23 0 2.227-.998 2.226-2.228l-.002-9.774c0-1.23-.998-2.227-2.228-2.226zm-6.319 7.502l.001 2.768H8.76l-.001-2.768a1.453 1.453 0 01.503-2.818 1.453 1.453 0 01.506 2.817zm3.271-7.5l-8.19.003-.004-3.283A4.1 4.1 0 018.938 2.39a4.1 4.1 0 014.097 4.093l.004 3.283z" fill="#42474D"/></g></symbol><symbol id="icon-menu-item"><g fill="none"><path d="M3.332 12.167a.833.833 0 01-.65-1.359l8.25-8.5a.417.417 0 01.717.384l-1.6 5.016a.834.834 0 00.783 1.125h5.834a.833.833 0 01.65 1.359l-8.25 8.5a.416.416 0 01-.717-.384l1.6-5.016a.833.833 0 00-.783-1.125H3.332z" fill="#42474D"/></g></symbol><symbol id="icon-money"><g fill="none"><g clip-path="url(#icon / money__a)"><path d="M24 3.738c0 .844-.672 1.602-1.797 2.254a14.289 14.289 0 01-5.734 1.453 5.97 5.97 0 00-.533-.235 18.474 18.474 0 00-6.933-1.218c-.39 0-.774 0-1.152.027l-.054-.027C6.672 5.362 6 4.582 6 3.738 6 1.666 10.032 0 15.003 0 19.973 0 24 1.666 24 3.738zM7.53 7.546c.48-.032.971-.053 1.473-.053 2.912 0 5.498.576 7.146 1.474 1.184.635 1.851 1.43 1.851 2.28a1.602 1.602 0 01-.096.534 3.41 3.41 0 01-1.637 1.682h-.038c-1.642.914-4.266 1.506-7.2 1.506a16.147 16.147 0 01-6.933-1.367 2.892 2.892 0 01-.256-.139C.672 12.871 0 12.096 0 11.247c0-1.629 2.501-3.028 6-3.535.49-.075 1.003-.129 1.53-.166zm11.97 3.701a3.545 3.545 0 00-1.131-2.505 15.813 15.813 0 003.573-.961c.74-.297 1.434-.7 2.059-1.196v1.677c0 .908-.773 1.74-2.053 2.387-.791.38-1.623.667-2.48.854v-.25l.032-.006zM18 15.738c0 .844-.672 1.602-1.797 2.254l-.262.133c-1.648.839-4.149 1.368-6.933 1.368-2.95.016-5.541-.55-7.21-1.485C.671 17.378 0 16.598 0 15.738v-1.644a8.2 8.2 0 002.059 1.196 18.53 18.53 0 006.933 1.217 18.521 18.521 0 006.933-1.217 9.122 9.122 0 001.067-.534c.28-.16.55-.338.805-.534l.203-.16v1.676zm1.499 0v-2.702a14.608 14.608 0 002.442-.748A8.12 8.12 0 0024 11.087v1.666a2.073 2.073 0 01-.699 1.447c-.762.764-2.106 1.394-3.813 1.805.005-.08.01-.165.01-.267zM9.003 21.015a18.522 18.522 0 006.933-1.218c.74-.297 1.434-.7 2.059-1.196v1.66c0 2.073-4.032 3.739-8.998 3.739C4.032 24 0 22.334 0 20.262V18.6a8.367 8.367 0 002.059 1.196 18.533 18.533 0 006.944 1.218z" fill="#42474D"/></g></g></symbol><symbol id="icon-personal"><g fill="none"><path d="M12 12c-1.375 0-2.552-.49-3.531-1.469C7.489 9.552 7 8.375 7 7s.49-2.552 1.469-3.531C9.448 2.489 10.625 2 12 2s2.552.49 3.531 1.469C16.511 4.448 17 5.625 17 7s-.49 2.552-1.469 3.531C14.552 11.511 13.375 12 12 12zM4.5 22a2.407 2.407 0 01-1.765-.734A2.408 2.408 0 012 19.5v-1c0-.708.183-1.36.547-1.954A3.642 3.642 0 014 15.188a18.583 18.583 0 013.938-1.454A17.22 17.22 0 0112 13.25c1.375 0 2.73.161 4.063.484 1.333.323 2.645.808 3.937 1.454a3.642 3.642 0 011.453 1.358c.364.594.547 1.246.547 1.954v1a2.41 2.41 0 01-.734 1.766A2.41 2.41 0 0119.5 22h-15z" fill="#42474D"/></g></symbol><symbol id="icon-plus"><g fill="none"><path d="M8.332 20h23.333M20 8.334v23.333" stroke="#9FA1A3" stroke-width="3.333" stroke-linecap="round" stroke-linejoin="round"/></g></symbol><symbol id="icon-train"><g fill="none"><path d="M2.86 2.702A.703.703 0 002.155 2H.703A.703.703 0 000 2.702v9.366c0 .388.315.703.703.703h1.453a.703.703 0 00.703-.703V9.024h1.407V5.746H2.859V2.702zM23.297 2h-1.453a.703.703 0 00-.703.702v3.044h-1.407v3.278h1.407v3.044c0 .388.314.703.703.703h1.453a.703.703 0 00.703-.703V2.702A.703.703 0 0023.297 2zm-6.551 1.873c-.874 0-1.582.708-1.582 1.58a1.581 1.581 0 00-3.164 0 1.581 1.581 0 00-3.164 0 1.581 1.581 0 00-3.164 0v2.952a3.264 3.264 0 011.406-.317h4.687a2.11 2.11 0 012.11 2.107v.234c0 .15-.01.3-.027.446a1.581 1.581 0 001.316-1.558 1.581 1.581 0 003.164 0V5.454a1.58 1.58 0 00-1.582-1.58z" fill="#42474D"/><path d="M15.164 11.848a2.972 2.972 0 01-1.582.454h-.024a3.285 3.285 0 01-2.964 1.874h-.938v.214a.716.716 0 01-.669.721.703.703 0 01-.737-.701v-.937c0-.388.315-.702.703-.702h1.172a2.343 2.343 0 002.344-2.342v-.234a.703.703 0 00-.704-.702H7.078a1.874 1.874 0 00-1.875 1.873v3.044a3.518 3.518 0 003.281 3.504v2.584c0 .387.315.702.703.702h5.625a.703.703 0 00.703-.702V17.85a3.52 3.52 0 002.813-3.441v-2.562a2.971 2.971 0 01-1.582.454c-.58 0-1.123-.166-1.582-.454z" fill="#42474D"/></g></symbol><symbol id="icon-variants"><g fill="none"><path d="M8.944 11.297H3.353A2.356 2.356 0 011 8.944V3.353A2.356 2.356 0 013.353 1h5.591a2.356 2.356 0 012.353 2.353v5.591a2.356 2.356 0 01-2.353 2.353zM3.353 1.93c-.786 0-1.424.638-1.424 1.424v5.591c0 .787.638 1.424 1.424 1.424h5.591c.787 0 1.424-.637 1.424-1.424V3.353c0-.786-.637-1.424-1.424-1.424H3.353zM8.944 23H3.353A2.356 2.356 0 011 20.647v-5.591a2.356 2.356 0 012.353-2.353h5.591a2.356 2.356 0 012.353 2.353v5.591A2.356 2.356 0 018.944 23zm-5.591-9.368c-.786 0-1.424.637-1.424 1.424v5.591c0 .786.638 1.424 1.424 1.424h5.591c.787 0 1.424-.638 1.424-1.424v-5.591c0-.787-.637-1.424-1.424-1.424H3.353zM20.647 23h-5.591a2.356 2.356 0 01-2.353-2.353v-5.591a2.356 2.356 0 012.353-2.353h5.591A2.356 2.356 0 0123 15.056v5.591A2.356 2.356 0 0120.647 23zm-5.591-9.368c-.787 0-1.424.637-1.424 1.424v5.591c0 .786.637 1.424 1.424 1.424h5.591c.786 0 1.424-.638 1.424-1.424v-5.591c0-.787-.638-1.424-1.424-1.424h-5.591zM20.647 1h-5.591a2.356 2.356 0 00-2.353 2.353v5.591a2.356 2.356 0 002.353 2.353h5.591A2.356 2.356 0 0023 8.944V3.353A2.356 2.356 0 0020.647 1zm.483 3.625L17.356 8.4a.467.467 0 01-.656 0l-2.044-2.043a.462.462 0 010-.656.462.462 0 01.657 0l1.715 1.715 3.446-3.446a.462.462 0 01.656 0 .461.461 0 010 .656z" fill="#42474D"/></g></symbol></svg>