<svg viewBox="0 0 33 28" fill="none" xmlns="http://www.w3.org/2000/svg"><path d="M20.667 12.833a3.485 3.485 0 003.488-3.5c0-1.936-1.552-3.5-3.488-3.5a3.495 3.495 0 00-3.5 3.5c0 1.937 1.563 3.5 3.5 3.5zm-9.334 0a3.485 3.485 0 003.489-3.5c0-1.936-1.552-3.5-3.489-3.5a3.495 3.495 0 00-3.5 3.5c0 1.937 1.564 3.5 3.5 3.5zm0 2.334c-2.718 0-8.166 1.365-8.166 4.083V21a1.17 1.17 0 001.166 1.167h14A1.17 1.17 0 0019.5 21v-1.75c0-2.718-5.448-4.083-8.167-4.083zm9.334 0c-.339 0-.724.023-1.132.058.023.012.035.035.047.047 1.33.968 2.251 2.263 2.251 3.978V21c0 .408-.081.805-.21 1.167h6.044A1.17 1.17 0 0028.833 21v-1.75c0-2.718-5.448-4.083-8.166-4.083z" fill="#42474D"/></svg>