<svg width="25" height="25" fill="none" xmlns="http://www.w3.org/2000/svg"><path d="M6 23c-.55 0-1.02-.196-1.412-.587A1.927 1.927 0 014 21V9c0-.55.196-1.02.588-1.412A1.923 1.923 0 016 7h2c0-1.1.392-2.042 1.175-2.825C9.958 3.392 10.9 3 12 3s2.042.392 2.825 1.175C15.608 4.958 16 5.9 16 7h2c.55 0 1.021.196 1.413.588.391.391.587.862.587 1.412v12a1.93 1.93 0 01-.587 1.413A1.928 1.928 0 0118 23H6zm3-11a.968.968 0 00.713-.288A.967.967 0 0010 11V9H8v2c0 .283.096.52.288.712A.965.965 0 009 12zm1-5h4c0-.55-.196-1.02-.587-1.412A1.927 1.927 0 0012 5c-.55 0-1.02.196-1.412.588A1.923 1.923 0 0010 7zm5 5a.968.968 0 00.713-.288A.967.967 0 0016 11V9h-2v2c0 .283.096.52.288.712A.965.965 0 0015 12z" fill="#42474D"/></svg>