<svg width="269" height="45" fill="none" xmlns="http://www.w3.org/2000/svg"><path fill-rule="evenodd" clip-rule="evenodd" d="M137.974 3.094l-5.834 3.063 6.271.167c3.45.092 9.094.092 12.544 0l6.271-.167-5.969-3.093c-3.283-1.702-6.302-3.08-6.709-3.064-.407.017-3.365 1.409-6.574 3.094zM132.432 14.7v7.071h11.084V15.88h-2.917c-2.204 0-2.917-.217-2.917-.884 0-.74 1.232-.884 7.584-.884 6.353 0 7.585.144 7.585.884 0 .679-.746.884-3.209.884h-3.209v5.936l5.397-.169 5.396-.17.165-6.923.164-6.924h-25.123v7.071zm-37.885-3.048c-2.155 1.167-4.12 4.26-4.12 6.485 0 3.877 3.294 6.947 8.645 8.057 2.177.453 2.924 1.643 1.85 2.95-1.067 1.3-4.041 1.052-6.849-.57l-2.48-1.431v3.19c0 3 .115 3.254 1.897 4.21 2.801 1.501 8.624 1.425 10.748-.141 2.352-1.735 3.899-5.142 3.444-7.588-.58-3.121-2.355-4.887-6.05-6.018-4.222-1.292-5.023-1.86-4.14-2.933.947-1.152 4.573-.994 7.105.309l2.165 1.115v-6.816l-2.345-.947c-3.123-1.263-7.406-1.207-9.87.128zm18.79-.235c-3.674 1.675-5.275 6.625-3.356 10.373 1.008 1.97 2.975 3.146 6.952 4.158 3.107.79 3.992 2.055 2.321 3.319-1.474 1.114-5.174.623-7.307-.97-.9-.672-1.779-1.223-1.953-1.223-.173 0-.315 1.285-.315 2.855 0 3.375.863 4.379 4.643 5.396 6.572 1.768 11.692-1.591 11.692-7.67 0-4.153-1.467-5.577-7.659-7.434-1.696-.509-2.842-1.195-2.842-1.703 0-1.86 5.671-1.778 8.545.123l1.373.909v-3.295c0-2.914-.179-3.414-1.545-4.318-2.055-1.36-8.058-1.656-10.549-.52zm78.601.441c-3.689 1.924-5.25 5.177-5.25 10.94 0 6.966 2.447 11.155 7.32 12.533 5.227 1.479 10.63-.64 12.807-5.024.908-1.828 1.167-3.525 1.167-7.652 0-8.395-2.413-11.44-9.427-11.903-3.357-.22-4.409-.045-6.617 1.106zm45.164-.477c-.989.453-2.393 1.584-3.12 2.513-1.104 1.412-1.278 2.214-1.061 4.883.311 3.828 1.685 5.3 6.383 6.834 4.085 1.335 4.959 2.152 3.682 3.441-1.358 1.372-3.768 1.202-6.914-.488l-2.712-1.457v3.098c0 2.796.165 3.195 1.702 4.112 6.309 3.764 14.624.25 14.631-6.184.004-4.285-1.79-6.152-7.577-7.888-2.902-.87-3.795-2.134-1.999-2.83 1.655-.642 3.988-.354 6.515.805l2.479 1.136V16.16c0-2.809-.187-3.323-1.544-4.22-2.019-1.337-8.059-1.658-10.465-.557zM0 23.245v12.08h5.834v-8.839h10.501v-5.892H5.834v-3.536h10.501v-5.892H0v12.08zm18.669 0v12.08h6.417v-24.16h-6.418v12.08zm8.75-9.133v2.946h6.418v18.328l3.063-.178 3.063-.178.16-8.986.162-8.986h5.804v-5.892H27.42v2.946zm21.003 9.11v12.103h6.418l.026-7.808.025-7.807 3.272 7.832 3.271 7.832 3.85-.172 3.849-.172.158-11.932.157-11.932h-6.44l-.032 6.923-.031 6.924-2.526-6.776-2.526-6.777-4.735-.17-4.736-.172v12.104zm23.92.023v12.08h16.335v-6.482h-4.96c-4.9 0-4.958-.017-4.958-1.473 0-1.456.058-1.473 4.959-1.473h4.959v-5.893h-4.96c-4.9 0-4.958-.017-4.958-1.473 0-1.456.058-1.473 4.959-1.473h4.959v-5.892H72.34v12.08zm92.177 0v12.08h5.834v-9.428h7v9.428h6.418v-24.16h-6.418v8.84h-7v-8.84h-5.834v12.08zm46.674-2.799c.002 8.16.139 9.508 1.139 11.164 1.78 2.95 3.823 3.989 7.861 4 4.521.012 6.986-1.056 8.64-3.743 1.194-1.938 1.337-3.016 1.525-11.42l.207-9.281h-6.54v7.954c0 7.17-.115 8.072-1.166 9.134-1.374 1.387-2.84 1.501-4.41.343-1.01-.746-1.154-1.736-1.335-9.134l-.201-8.297h-5.722l.002 9.28zm40.835 2.8v12.079h16.336v-6.482h-5.292c-5.153 0-5.286-.035-5.105-1.326.175-1.244.502-1.336 5.292-1.496l5.105-.17v-5.847h-5.251c-5.211 0-5.251-.01-5.251-1.473 0-1.462.04-1.473 5.251-1.473h5.251v-5.892h-16.336v12.08zm-51.929-5.134c1.404 1.149 2.197 5.346 1.523 8.06-.929 3.733-4.551 4.962-7.085 2.403-1.207-1.219-1.432-2.01-1.432-5.035 0-3.025.225-3.817 1.432-5.035 1.692-1.71 3.773-1.856 5.562-.393zm-67.667 11.91v7.07h25.086V22.951h-11.085v6.481h3.209c2.463 0 3.209.205 3.209.884 0 .74-1.232.884-7.585.884-6.352 0-7.584-.144-7.584-.884 0-.668.713-.884 2.917-.884h2.917v-6.481h-11.084v7.07zm15.606 2.79c-1.525.12-4.018.12-5.543 0-1.524-.122-.277-.221 2.771-.221 3.049 0 4.296.1 2.772.22zm-15.403 5.9c.15.244 2.922 1.758 6.16 3.365L144.683 45l5.888-2.923c3.238-1.607 6.01-3.121 6.16-3.364.15-.243-5.272-.442-12.048-.442s-12.198.199-12.048.442z" fill="#fff"/></svg>