<svg xmlns="http://www.w3.org/2000/svg" viewBox="0 0 98.77 93.23"><defs><style>.cls-1{fill:#7e8090}.cls-1,.cls-2,.cls-3{fill-rule:evenodd}.cls-2{fill:#fdfdfd}.cls-3{fill:#ffff98}</style></defs><g id="Слой_2" data-name="Слой 2"><g id="Layer_1" data-name="Layer 1"><path class="cls-1" d="M41.63 71.33c.49-.19.56-.1.91-.45a12.3 12.3 0 0 1 2.05-2c0 1.77.14 3.48.14 5.29 0 1.62.18 1.6-.49 2.39-.41.49-.87 1.09-1.3 1.55-.14-.22-1.32-6.3-1.32-6.82zm13.79.14a15.35 15.35 0 0 0-2.33 2.75 29.75 29.75 0 0 0-1.93 3.34c-.54 1.05-1.32 2.65-2.51 2.68-1.54 0-1.8-1.83-2.48-2.7a35.12 35.12 0 0 0-3.31 3.85c-.6.81-1.57 1.1-2.24.15a17.75 17.75 0 0 1-1-2.37c-.22.79-.06 1.83-.45 2.53a1.16 1.16 0 0 1-1.91.06c-.9-1-1.63-3-2.11-3.51-.26 1.2 0 3.34-1 3.75a1.23 1.23 0 0 1-1.57-.6c-.32-.5-.6-1.3-.82-1.51-.09 1.05.32 2.26-.59 2.81s-1.79-.64-2.11-1.12c-.48-.72-.89-1.32-1.37-2.09a19 19 0 0 0-1.31-2.1c-.22 2.61.4 5.45.37 6.27a1.16 1.16 0 0 1-1.24 1.15c-1.15-.1-3.8-4.08-4.86-4.78.12.77 1.5 4.66 1.42 5.4s-.77 1-1.49.72c-.37-.16-.38-.33-.71-.48s-.59-.2-.88-.32a52.52 52.52 0 0 1-4.67-2.55c.22 2.14 1.45 3 .66 5.6 1.69-.1 3.54-.41 5.29-.55s3.58-.27 5.37-.38c3.63-.22 7.32-.5 11-.61.05-.26-.55-1.74.68-1.81.87 0 1.11.91 1.18 1.69l6.83-.2c.37-1.07-.16-3.13 1.11-3.21 1.51-.1.89 2.12.8 3.18 5.15 0 10.33-.09 15.5 0 6 .09 10.85.29 16.89.64l.53-.09-.37-.15a7 7 0 0 1-1.49-1c-.05 0-3.47 1.39-3.71-.75a3.48 3.48 0 0 1 .4-1.58c-1.12.21-3.25 1.61-4.29.53s.59-3 .8-4a35.39 35.39 0 0 0-3.51 2.71c-1.09 1-2.7 2.88-3.88 2.39-.88-.36-.62-1.38-.15-2.09s.88-1.25 1.33-1.88c.58-.8 2.29-3.1 2.64-3.84a54.34 54.34 0 0 0-5.51 4.14C60.66 83 60 84.07 58.84 85.19a1.22 1.22 0 0 1-1.8 0c-.43-.58 0-1.36.24-1.89 1.18-2.49 2.92-5.82 4.21-8.33A19.44 19.44 0 0 0 63 71.43a16.47 16.47 0 0 0-2.34 2.11c-.35.4-.66.71-1 1.14s-.67.79-1 1.24a60 60 0 0 0-3.72 5.32A6.2 6.2 0 0 1 54 82.5a1 1 0 0 1-1.53-.26c-.31-.62.6-3 .83-3.68.36-1.14 2.06-6.33 2.13-7.09zm-14.1-2.17a23.2 23.2 0 0 1 3.11-2.6v-2.15c-.53.52-3.05 2.64-3.29 3.07a2.71 2.71 0 0 0 .23 1.68zm3.16-8c-.08 1.32-.22.83-1.81 2.19a14.87 14.87 0 0 1-2.12 1.78c-.11-1.18-.7-2.83-.7-3.93h4.63zm-24-28.92c1.66-.12 3.47-.41 5.2-.58 3.84-.38 7.06-.44 10.84-.65.52 0 1.07.1 1.4.08a5 5 0 0 0 .56-.15l3.4-.08c3.74-.12 7.54-.06 11.27-.12h1.49c.86 0 .83.23 1.32.25s.44-.29 1.1-.32a55.32 55.32 0 0 1 5.6-.13c.63.18.65.22 1.19-.06-.3 5-.11 9.43-.06 14.34 0 2.29 0 4.55-.1 6.84 0 1.2-.13 2.37-.15 3.57s.09 2.28 0 3.46c-3.09-.06-6.58.28-9.71.41-3.31.13-6.56.14-9.89.16-4.7 0-12.3.09-17.05.48-.76.06-1.56.24-2.31.28a6.54 6.54 0 0 0-.43-1.59c-.2-.38-.26-.22-.35-.71l-.68-4.26c-.82-4.91-1.54-8.79-2-13.87-.17-1.92-.67-5.74-.67-7.28zm36.06-3.68c.41.19 4.66-.15 5.87-.14 1 0 1.22.14 1.69.62a.9.9 0 0 1 1.52 0c.32.56.09 1.44.06 2.17-.05 1.51 0 3.1 0 4.6 2.21-.2 2.55 2 7.33.6 6.61-1.9 10.39-12.09 4.3-17.08a17.23 17.23 0 0 0-6.39-2.94 10.21 10.21 0 0 0-7.24 1.35c-2.87 1.49-5.7 3.87-6.9 6.86a6.85 6.85 0 0 0-.22 4zm-15.1-6.83c.66-.12 1.32-.18 1.94-.28s1.27-.33 1.89-.39c-.09 1.23-.38 7-.64 7.72l-6.22.16c-.36-.78-.21-4.81.05-5.89.11-.45.17-.43.51-.57a2.23 2.23 0 0 1 .72-.25c0 1.12-.36 4 1.23 3.65 1-.24.51-2.43.52-4.15zM12.71 88.6l.19.09-.18.11a31.26 31.26 0 0 0-3.6.62 56.25 56.25 0 0 0-6.67 1.66c-.6.17-1.31-.07-1.84.22a1.05 1.05 0 0 0-.46 1.47c.59.89 2.46.22 3.36 0 9.15-2.42 15.78-2.92 25.45-3.5a403.29 403.29 0 0 1 57.36.37c1.37.11 2.75.29 4.14.36s3.48-.26 3.88.08c.25.21.26.37.76.36a.9.9 0 0 0 .73-.35 1.25 1.25 0 0 0 0-1.58c-.73-.84-2.5-.56-3.63-.5a69.4 69.4 0 0 1-8.43-.58c.12-.4.38-.57.16-1.13-.31-.77-2.3-.83-3.22-1.17s-.9-1-1.6-1.26-1.53.17-2.19.27c.21-.58.75-1.26.92-1.78a1.1 1.1 0 0 0-1.13-1.5c-1.12.09-2.84 1.06-4 1.28.35-1.17 2.5-4.2.72-5-.81-.35-1.83.42-2.39.74a11.26 11.26 0 0 0-2 1.33c.34-1.06 1.72-2.29 1.76-3.93A1.18 1.18 0 0 0 69.4 74c-.83.13-4.2 2.69-4.92 3.23l-3.09 2.38c.42-1.34 6.15-10.49 3.34-11.29-1.09-.31-1.9.72-2.62 1.26s-1.33 1.17-2.11 1.84a28.52 28.52 0 0 0-2.83 3.11 9 9 0 0 1-.87 1.07 28.74 28.74 0 0 1 .82-2.82 22.25 22.25 0 0 0 .7-2.94c.15-1-.19-2.19-1.43-1.85a8.76 8.76 0 0 0-1.91 1.58 23.05 23.05 0 0 0-4.56 6 14.63 14.63 0 0 1-1.29 2.28c-.78-.9-.81-2.44-1.94-3.05 0-2.33-.08-4.5-.2-6.79a46.9 46.9 0 0 1-.13-6.74c2-.16 4.33-.06 6.37-.13 4.17-.15 8.28-.4 12.45-.49 1 0 2.36.24 2.53-.78.23-1.37-1.43-1.1-2.22-1.25 0-1.78 0-3.48.06-5.29s.14-3.53.17-5.28c0-3.44-.14-6.88-.09-10.28A19.73 19.73 0 0 0 70 39a15.66 15.66 0 0 0 4.24-.84c7.59-2.8 11.36-14.39 4.33-20.2a18.58 18.58 0 0 0-7.51-3.45 12.35 12.35 0 0 0-8.4 1.59c-3.49 1.86-6.52 4.4-7.9 8.14-.73 2-.24 2.7-.15 4.57h-8c.25-2.72.26-5.31.43-8 0-.67.28-1.32-.11-1.75s-1-.3-1.5-.14c-2.48.76-4.69.82-6.35 1.41-.82.29-2.12.67-2.41 1.54-.85 2.54-.31 4.77-.24 7.23-3.82 0-14.33.56-17.92 1.75-.77.26-1.92.52-1.92 1.45a.86.86 0 0 0 .84.91c.55 0 .55-.35 1.19-.43 0 2.48.28 5 .5 7.39.54 5.82 1.66 11.53 2.57 17.28a7.68 7.68 0 0 0 .43 1.56c.09.41 0 .45.26.73s.31.12.27.68c-.76.15-1.67.27-1.64 1.22a.82.82 0 0 0 .62.79c.39.1.71-.11 1.12-.18a42.53 42.53 0 0 1 4.79-.58c1.19-.09 9.09-.47 10.3-.32.3 1.5.5 3 .77 4.56.31 1.71.11.78-.45 1.93-.47 1 .15 1.41 1 1.53L40.65 77c-.63-.36-1.2-.82-2-.27a1.93 1.93 0 0 0-.63.8 4.63 4.63 0 0 1-.4 1c-.51-1.49-2.55-4.16-3.84-2.48a4.58 4.58 0 0 0-.66 1.95c-.47-.55-.9-1.95-2.18-1.7-1.12.21-1 1.47-1.24 2.71-.77-1.07-2.49-4.93-3.88-5-2.14-.11-1.32 5.25-1.36 7.24-1.17-1.08-2.1-2.36-3.14-3.48L19.72 76c-.38-.41-1-1.46-1.78-1.52-1.16-.09-1.19 1.18-.85 2a50.87 50.87 0 0 1 2.56 7.08c-1.54-.45-4.65-3.13-5.87-3.28-1.5-.19-1.66 1.53-1.44 2.84s.75 2.32.86 3.42c-.64-.2-.82-.56-1.72-.59-1.68-.05-1.9 1.9-.3 2 .77.05.94.41 1.53.65z"/><path class="cls-2" d="M46.52 39.84v.22h.21c1.28 0 1.43.91 1.47 2.06a23 23 0 0 1-.2 3.44 12.44 12.44 0 0 1-2 5.27 9.71 9.71 0 0 1-3.51 3.5c-4.59 2.16-6.54-6.48-2.75-13.64.8-1.51 1.89-3.24 3.25-3.79 2-.83 3.6 1.09 3.53 2.94zM33.9 49c0 .84-.12 1.68-.18 2.52 0 .69-.21 1.77-.19 2.4a1 1 0 0 0 1.4.89c.62-.3.6-1 .66-1.83.25-3.24.5-6.47.72-9.71.11-1.58.17-3.21.14-4.78 0-.65.08-1.64-.39-2-.67-.5-1.35 0-1.42.81-.2 2.39-.23 7.52-.59 9.59a33.52 33.52 0 0 1-5.21.72 79 79 0 0 0 .44-8.26 15.09 15.09 0 0 0 0-2 .88.88 0 0 0-1.31-.59c-.67.4-.53 2.9-.59 3.89-.09 1.42-.12 2.82-.21 4.24-.05.83-.53 3.44-.3 3.94.47 1 2.26.84 3.46.67s2.49-.42 3.61-.5zm21-3c.67-1.83 1.36-9.23 2.12-10.47a1.19 1.19 0 0 1 2-.09.91.91 0 0 1-.15 1.15c-.53.44-.41.1-.53 1C58 40 57.53 43.27 57 45.67c-.17.78.14.69 0 1.26s-.39.4-.54 1c-.22.86-.39 1.7-.59 2.54a17.09 17.09 0 0 0-.51 2.59c0 .11.51 1.69-.79 1.94-2.5.48-.46-5-.19-6.93-2.08.17-5 2.07-5.18-1.11-.18-2.73.44-4.95.64-7.56.09-1.18-.36-3.11.8-3.19 1.34-.09 1.08 1.68 1.08 2.78 0 2.43-.57 4.49-.56 7.69a9 9 0 0 0 1.87-.38c.61-.14 1.17-.23 1.81-.34zM20.45 32.39c0 1.54.5 5.37.67 7.28.46 5.08 1.18 9 2 13.87l.68 4.26c.09.48.15.33.35.71a6.54 6.54 0 0 1 .43 1.59c.75 0 1.55-.22 2.31-.28 4.75-.4 12.35-.46 17.05-.48 3.32 0 6.58 0 9.89-.16 3.13-.12 6.62-.46 9.71-.41.1-1.18 0-2.28 0-3.46s.12-2.38.15-3.57c.06-2.3.12-4.56.1-6.84 0-4.91-.23-9.36.06-14.34-.54.28-.56.24-1.19.06a55.32 55.32 0 0 0-5.6.13c-.67 0-.57.35-1.1.32s-.46-.28-1.32-.25h-1.49c-3.73.06-7.53 0-11.27.12l-3.42.13a5 5 0 0 1-.56.15c-.33 0-.88-.11-1.4-.08-3.78.21-7 .27-10.84.65-1.73.21-3.54.48-5.21.6z"/><path class="cls-3" d="M55.43 71.47a15.35 15.35 0 0 0-2.33 2.75 29.75 29.75 0 0 0-1.93 3.34c-.54 1.05-1.32 2.65-2.51 2.68-1.54 0-1.8-1.83-2.48-2.7a35.12 35.12 0 0 0-3.31 3.85c-.6.81-1.57 1.1-2.24.15a17.75 17.75 0 0 1-1-2.37c-.22.79-.06 1.83-.45 2.53a1.16 1.16 0 0 1-1.91.06c-.9-1-1.63-3-2.11-3.51-.26 1.2 0 3.34-1 3.75a1.23 1.23 0 0 1-1.57-.6c-.32-.5-.6-1.3-.82-1.51-.09 1.05.32 2.26-.59 2.81s-1.79-.64-2.11-1.12c-.48-.72-.89-1.32-1.37-2.09a19 19 0 0 0-1.31-2.1c-.22 2.61.4 5.45.37 6.27a1.16 1.16 0 0 1-1.24 1.15c-1.15-.1-3.8-4.08-4.86-4.78.12.77 1.5 4.66 1.42 5.4s-.77 1-1.49.72c-.37-.16-.38-.33-.71-.48s-.59-.2-.88-.32a52.52 52.52 0 0 1-4.67-2.55c.22 2.14 1.45 3 .66 5.6 1.69-.1 3.54-.41 5.29-.55s3.58-.27 5.37-.38c3.63-.22 7.32-.5 11-.61.05-.26-.55-1.74.68-1.81.87 0 1.11.91 1.18 1.69l6.83-.2c.37-1.07-.16-3.13 1.11-3.21 1.51-.1.89 2.12.8 3.18 5.15 0 10.33-.09 15.5 0 6 .09 10.85.29 16.89.64l.53-.09-.37-.15a7 7 0 0 1-1.49-1c-.05 0-3.47 1.39-3.71-.75a3.48 3.48 0 0 1 .4-1.58c-1.12.21-3.25 1.61-4.29.53s.59-3 .8-4A35.39 35.39 0 0 0 68 82.82c-1.09 1-2.7 2.88-3.88 2.39-.88-.36-.62-1.38-.15-2.09s.88-1.25 1.33-1.88c.58-.8 2.29-3.1 2.64-3.84a54.34 54.34 0 0 0-5.51 4.14C60.66 83 60 84.07 58.84 85.19a1.22 1.22 0 0 1-1.8 0c-.43-.58 0-1.36.24-1.89 1.18-2.49 2.92-5.82 4.21-8.33A19.44 19.44 0 0 0 63 71.43a16.47 16.47 0 0 0-2.34 2.11c-.35.4-.66.71-1 1.14s-.67.79-1 1.24a60 60 0 0 0-3.72 5.32A6.2 6.2 0 0 1 54 82.5a1 1 0 0 1-1.53-.26c-.31-.62.6-3 .83-3.68.35-1.14 2.06-6.33 2.13-7.09zm8.52-50.69a1 1 0 0 1 .93 1.56 20.94 20.94 0 0 1-1.62 1.46 8.91 8.91 0 0 0-1.53 1.56c-.83 1.17-.36 1.72-1.07 2-1.33.52-1.83-1.44 0-3.71.56-.67 2.45-2.68 3.24-2.86zm3.54-2c1.15-.51 1.7 1.28.53 1.71a.89.89 0 1 1-.53-1.71zm-11 10c.41.19 4.66-.15 5.87-.14 1 0 1.22.14 1.69.62a.9.9 0 0 1 1.52 0c.32.56.09 1.44.06 2.17-.05 1.51 0 3.1 0 4.6 2.21-.2 2.55 2 7.33.6 6.61-1.9 10.39-12.09 4.3-17.08a17.23 17.23 0 0 0-6.39-2.94 10.21 10.21 0 0 0-7.24 1.35c-2.87 1.49-5.7 3.87-6.9 6.86a6.85 6.85 0 0 0-.21 3.9z"/><path class="cls-1" d="M46.68 40c-.24.26-.17.1-.35.26l-.27.38c-.15.88.87 4.56-1.37 8.49A11.46 11.46 0 0 1 42.43 52c-1.51 1.17-2 .64-2.46-1.23a13 13 0 0 1 1.16-8.49 13.23 13.23 0 0 1 2-3.17c.48-.47 1-.92 1.45 0s0 1.24 1.2 1.39l.67-.62v-.06C46.58 38 45 36.07 43 36.9c-1.36.55-2.45 2.28-3.25 3.79-3.79 7.15-1.84 15.8 2.75 13.64a9.71 9.71 0 0 0 3.5-3.5 12.44 12.44 0 0 0 2-5.27 23 23 0 0 0 .18-3.47C48.11 40.94 48 40 46.68 40zm8.22 6c-.64.1-1.2.19-1.81.34a9 9 0 0 1-1.87.38c0-3.21.56-5.27.56-7.69 0-1.1.26-2.87-1.08-2.78-1.16.08-.71 2-.8 3.19-.2 2.61-.82 4.83-.64 7.56.21 3.18 3.1 1.28 5.18 1.11-.27 1.88-2.31 7.41.19 6.93 1.3-.25.78-1.83.79-1.94a17.09 17.09 0 0 1 .51-2.59c.2-.85.37-1.68.59-2.54.15-.61.45-.49.54-1s-.21-.48 0-1.26c.51-2.41 1-5.63 1.32-8.08.13-.9 0-.57.53-1a.91.91 0 0 0 .09-1.19 1.19 1.19 0 0 0-2 .09c-.74 1.25-1.42 8.64-2.1 10.47zm-20.26-8.7c-.2 2.39-.23 7.52-.59 9.59a33.52 33.52 0 0 1-5.21.72 79 79 0 0 0 .44-8.26 15.09 15.09 0 0 0 0-2 .88.88 0 0 0-1.31-.59c-.67.4-.53 2.9-.59 3.89-.09 1.42-.12 2.82-.21 4.24-.05.83-.53 3.44-.3 3.94.47 1 2.26.84 3.46.67s2.49-.42 3.61-.5c0 .84-.12 1.68-.18 2.52 0 .69-.21 1.77-.19 2.4a1 1 0 0 0 1.4.89c.62-.3.6-1 .66-1.83.25-3.24.5-6.47.72-9.71.11-1.58.17-3.21.14-4.78 0-.65.08-1.64-.39-2-.71-.49-1.4.03-1.46.81zm51.81-18.75a11.87 11.87 0 0 0 1-1.05 17.57 17.57 0 0 1 3.15-2.93 12.1 12.1 0 0 1 6-1.84c-.46 1.24-3.32 3.35-4.38 4a26.14 26.14 0 0 1-5.61 2.51l-.2-.7zm9.55-7.8A17.65 17.65 0 0 0 91.15 12a15.9 15.9 0 0 0-5.21 4.24c-.84.93-2 1.74-1.42 3 .79 1.86.87 2.32 2.39 1.87a20.53 20.53 0 0 0 8.27-4 12 12 0 0 0 3.13-3.22c1.2-2.05-.11-3.33-2.31-3.14z"/><path class="cls-2" d="M46.06 40.67c-.12-.34 0-.14-.27-.16-1.16-.16-.79-.56-1.2-1.39s-1-.45-1.45 0a13.23 13.23 0 0 0-2 3.17A13 13 0 0 0 40 50.8c.44 1.87 1 2.4 2.46 1.23a11.46 11.46 0 0 0 2.26-2.87c2.21-3.93 1.19-7.61 1.34-8.49z"/><path class="cls-1" d="M74.17 54.32a6.89 6.89 0 0 1-1-2 15.29 15.29 0 0 1-.65-2.4 20.33 20.33 0 0 1-.25-5.71c1.3.43 1.77 3 1.94 4.25a27.2 27.2 0 0 1 0 5.85zm-2.55-12.45c-.71.09-1.51.35-1.35 1.27.1.58.26.19.11 1.1a19.31 19.31 0 0 0 .18 6.06c.39 2.06 1.84 6.82 4 6.45 1.41-.24 1.64-2.19 1.69-3.82a28.81 28.81 0 0 0-.16-5c-.29-1.9-.9-4.31-2.52-5.3-.34-.21-.62-.27-.93-.44s-.42-.39-1.02-.32zM85.8 31.56c.25-.45.36-.5.86-.73a10.16 10.16 0 0 1 3.51-1.06c1.62.07 4.34.5 5.06 1.52s-.37 1.38-1.11 1.57a9.89 9.89 0 0 1-3 0c-1-.08-2.11-.12-3.12-.29a3 3 0 0 1-2.21-1zm3.88-3.75a6.18 6.18 0 0 0-2 .5c-.59.25-1.22.47-1.79.72a2.86 2.86 0 0 0-.78.44c-.35.32-.16.37-.64.7a1.84 1.84 0 0 0-.74 1.83c.15.89.63.86 1.28 1.31 1.9 1.31 4.22 1.37 6.58 1.55a7.21 7.21 0 0 0 4.32-.62 2.76 2.76 0 0 0 1.29-3.51 4.47 4.47 0 0 0-2.93-2.29 15.7 15.7 0 0 0-4.58-.63zM64.59 10.9a4.34 4.34 0 0 1-2.28-1.12c-1.57-1.38-2.5-5.59-1.18-7.33.84-1.11 1.27 0 1.59.88a40.93 40.93 0 0 1 1.3 5 16.69 16.69 0 0 1 .58 2.53zM61.4 0c-2.75.56-3.29 4.39-2.54 7.27a8.42 8.42 0 0 0 1.65 3.48 7.42 7.42 0 0 0 3.35 2c2.25.45 2.84-.12 2.52-2.45-.18-1.34-.57-2.86-.84-4.19C65.09 4 64.19-.52 61.4 0zm21.54 41.34A19.44 19.44 0 0 1 86 44c.73.79 2.2 3.15 1.51 3.8s-4.3-4.5-4.56-6.5zm.32-2.11c.21-1.54-1.57-2-2.32-.54-.22.42-.68.75-.31 1.43a2 2 0 0 1 .29 1c.49 2.95 2.76 6.86 4.91 8.29s5.27-.3 2.92-4.89a16.53 16.53 0 0 0-5.49-5.29zM76 12.59c-.65-1.42.13-5.29 1.1-7 .22-.39.82-1.49 1.27-1.63.42 1.16-.19 3.58-.56 4.77-.27.86-1 3.58-1.81 3.82zM77.91 2c-1.87.48-3.36 4.28-3.77 6.1-.33 1.48-.68 4.88.46 6.08a2 2 0 0 0 3.18-.38A27.78 27.78 0 0 0 80 8.46a12.75 12.75 0 0 0 .48-4.34C80.26 3 79.33 1.58 77.91 2z"/><path class="cls-2" d="M41.44 21.87c0 1.72.49 3.91-.52 4.15-1.59.38-1.27-2.53-1.23-3.65a2.23 2.23 0 0 0-.72.25c-.33.14-.4.13-.51.57-.26 1.07-.41 5.1-.05 5.89l6.22-.16c.27-.69.56-6.49.64-7.72-.63.07-1.25.28-1.89.39s-1.29.17-1.94.28z"/><path class="cls-3" d="M85.8 31.56a3 3 0 0 0 2.21 1c1 .18 2.1.22 3.12.29a9.89 9.89 0 0 0 3 0c.74-.19 1.73-.7 1.11-1.57s-3.44-1.45-5.06-1.52a10.16 10.16 0 0 0-3.51 1.06c-.5.25-.61.29-.87.74zm.65-13.01l.2.7a26.14 26.14 0 0 0 5.61-2.51c1.07-.67 3.92-2.78 4.38-4a12.1 12.1 0 0 0-6 1.84 17.57 17.57 0 0 0-3.15 2.93 11.87 11.87 0 0 1-1.04 1.04zM64.59 10.9A16.69 16.69 0 0 0 64 8.37a40.93 40.93 0 0 0-1.3-5c-.32-.83-.75-2-1.59-.88-1.32 1.74-.39 5.95 1.18 7.33a4.34 4.34 0 0 0 2.3 1.08z"/><path class="cls-2" d="M53.86 16.71h.43c-.54-1.6-.18-1 0-2.08a21.86 21.86 0 0 0-5.65-2c-.92-.18-1.37-.11-1.65.7-.45 1.31 1.2 1.71 2.6 2.35a11.8 11.8 0 0 0 4.27 1.03zM41.63 71.33c0 .52 1.18 6.6 1.32 6.82.43-.46.88-1.06 1.3-1.55.67-.79.5-.77.49-2.39 0-1.81-.1-3.52-.14-5.29a12.3 12.3 0 0 0-2.05 2c-.36.31-.42.22-.92.41z"/><path class="cls-1" d="M63.95 20.78c-.79.18-2.69 2.19-3.24 2.86-1.87 2.27-1.37 4.23 0 3.71.71-.28.24-.83 1.07-2a8.91 8.91 0 0 1 1.53-1.56 20.94 20.94 0 0 0 1.62-1.46 1 1 0 0 0-.98-1.55z"/><path class="cls-3" d="M74.17 54.32a27.2 27.2 0 0 0 0-5.85c-.17-1.27-.63-3.82-1.94-4.25a20.33 20.33 0 0 0 .25 5.71 15.29 15.29 0 0 0 .65 2.4 6.89 6.89 0 0 0 1.04 1.99zM76 12.59c.82-.24 1.55-3 1.81-3.82.37-1.19 1-3.61.56-4.77-.45.14-1 1.25-1.27 1.63-.97 1.67-1.75 5.54-1.1 6.96z"/><path class="cls-2" d="M39.85 61.35c0 1.1.59 2.75.7 3.93a14.87 14.87 0 0 0 2.12-1.78c1.59-1.36 1.73-.87 1.81-2.19z"/><path class="cls-3" d="M82.94 41.34c.26 2 3.75 7.26 4.56 6.5s-.78-3-1.51-3.8a19.44 19.44 0 0 0-3.05-2.7z"/><path class="cls-2" d="M41.32 69.3a23.2 23.2 0 0 1 3.11-2.6v-2.15c-.53.52-3.05 2.64-3.29 3.07a2.71 2.71 0 0 0 .18 1.68z"/><path class="cls-1" d="M67.49 18.77a.89.89 0 1 0 .51 1.7c1.19-.47.64-2.21-.51-1.7z"/><path d="M45.8 40.51c.31 0 .15-.18.27.16l.27-.38c.18-.16.11 0 .35-.26h-.21v-.22.06z" fill="gray" fill-rule="evenodd"/><path fill="#999" fill-rule="evenodd" d="M12.72 88.81l.18-.11-.19-.1.01.21z"/><path class="cls-1" d="M54.75 16.47c-1.56-.11-4.58-2.65-5.59-4.3-.23-.38-.91-1.44-.82-1.9 1.22.19 3.05 1.88 3.92 2.77.63.65 2.67 2.58 2.49 3.42zM46.33 9.7c-.47 1.87 2.14 5 3.55 6.23 1.14 1 4 2.93 5.56 2.51a2 2 0 0 0 1.19-3A27.79 27.79 0 0 0 53 11a12.76 12.76 0 0 0-3.58-2.5c-1.07-.38-2.73-.22-3.09 1.2z"/><path class="cls-3" d="M54.75 16.47c.18-.84-1.86-2.78-2.49-3.42-.87-.89-2.7-2.58-3.92-2.77-.09.46.59 1.52.82 1.9 1.02 1.64 4.03 4.18 5.59 4.29z"/></g></g></svg>