<svg xmlns="http://www.w3.org/2000/svg" viewBox="0 0 46.08 18.03"><g data-name="Слой 2"><g data-name="Layer 1"><path d="M.1 15.41h.68a.66.66 0 0 1 .31.08.6.6 0 0 1 .23.21.6.6 0 0 1 0 .62.6.6 0 0 1-.23.21.66.66 0 0 1-.31.08H.34v.82H.1v-2zm.68 1a.37.37 0 0 0 .2-.05.39.39 0 0 0 .13-.14.35.35 0 0 0 0-.35.38.38 0 0 0-.11-.17.37.37 0 0 0-.2-.05H.34v.74zm2.15 1.09a.7.7 0 0 1-.37-.1.69.69 0 0 1-.25-.27.82.82 0 0 1-.09-.39.86.86 0 0 1 .09-.38.7.7 0 0 1 .24-.28.65.65 0 0 1 .37-.1.69.69 0 0 1 .37.09.63.63 0 0 1 .24.26.84.84 0 0 1 .08.38.28.28 0 0 1 0 .07H2.45a.56.56 0 0 0 .08.28.46.46 0 0 0 .18.17.48.48 0 0 0 .23.06.47.47 0 0 0 .42-.29l.2.1a.72.72 0 0 1-.25.28.7.7 0 0 1-.38.1zm.41-.91a.46.46 0 0 0-.05-.18.38.38 0 0 0-.14-.15.44.44 0 0 0-.24-.06.4.4 0 0 0-.29.11.52.52 0 0 0-.15.29zM4.59 16h.24v.65l.6-.65h.3l-.65.67.67.74h-.27l-.64-.72v.72h-.25V16zm2.23 1.46h-.13v-.21h.1a.12.12 0 0 0 .1 0 .3.3 0 0 0 0-.14 2.35 2.35 0 0 0 0-.28V16h1.24v1.43H7.9v-1.22h-.72v.63a.85.85 0 0 1-.1.47.3.3 0 0 1-.26.14zm2.83 0a.62.62 0 0 1-.28-.06.46.46 0 0 1-.19-.17.45.45 0 0 1-.07-.23.42.42 0 0 1 .17-.36.7.7 0 0 1 .43-.13 1 1 0 0 1 .24 0l.17.06v-.09a.32.32 0 0 0-.11-.26.42.42 0 0 0-.28-.1.48.48 0 0 0-.22.05.41.41 0 0 0-.16.14l-.18-.13A.58.58 0 0 1 9.4 16a.73.73 0 0 1 .33-.07.65.65 0 0 1 .46.15.54.54 0 0 1 .17.42v.91h-.23v-.21a.51.51 0 0 1-.19.18.54.54 0 0 1-.28.07zm0-.21a.43.43 0 0 0 .22-.06.46.46 0 0 0 .17-.17.44.44 0 0 0 .06-.23.59.59 0 0 0-.17-.07h-.21a.46.46 0 0 0-.3.08.26.26 0 0 0-.1.21.23.23 0 0 0 .09.19.35.35 0 0 0 .23.07zM11.4 16h.28l.51 1 .51-1h.3v1.43h-.24v-1.06l-.47.88h-.17l-.48-.88v1.06h-.24V16zm3.1 1.48a.62.62 0 0 1-.28-.06.47.47 0 0 1-.19-.17A.45.45 0 0 1 14 17a.42.42 0 0 1 .17-.36.7.7 0 0 1 .43-.13 1 1 0 0 1 .24 0l.17.06v-.09a.32.32 0 0 0-.11-.26.42.42 0 0 0-.28-.1.48.48 0 0 0-.22.05.41.41 0 0 0-.16.14l-.24-.09a.58.58 0 0 1 .23-.2.73.73 0 0 1 .33-.07.65.65 0 0 1 .46.15.54.54 0 0 1 .17.42v.91H15v-.21a.51.51 0 0 1-.19.18.54.54 0 0 1-.28.07zm0-.21a.43.43 0 0 0 .22-.06.46.46 0 0 0 .17-.17.44.44 0 0 0 .06-.23.59.59 0 0 0-.17-.07h-.21a.46.46 0 0 0-.3.08.26.26 0 0 0-.1.21.23.23 0 0 0 .09.19.35.35 0 0 0 .23.07zm1.89.18a.18.18 0 0 1-.18-.18.17.17 0 0 1 .05-.12.17.17 0 0 1 .13-.05.18.18 0 0 1 .18.18.17.17 0 0 1-.05.13.17.17 0 0 1-.12.05zm2.58-2h.35l.68 1.61.64-1.65H21v2h-.24v-1.64l-.66 1.66h-.2l-.66-1.66v1.66H19v-2zm3.52 2.06a.62.62 0 0 1-.28-.06.46.46 0 0 1-.19-.17A.45.45 0 0 1 22 17a.42.42 0 0 1 .17-.36.7.7 0 0 1 .43-.13 1 1 0 0 1 .24 0l.17.06v-.09a.32.32 0 0 0-.11-.26.42.42 0 0 0-.28-.1.48.48 0 0 0-.22.05.41.41 0 0 0-.16.14l-.24-.09a.58.58 0 0 1 .23-.2.73.73 0 0 1 .33-.07.65.65 0 0 1 .46.15.54.54 0 0 1 .17.42v.91H23v-.21a.51.51 0 0 1-.19.18.54.54 0 0 1-.28.07zm0-.21a.43.43 0 0 0 .22-.06.47.47 0 0 0 .17-.17.44.44 0 0 0 .06-.23.59.59 0 0 0-.17-.07h-.21a.46.46 0 0 0-.3.08.26.26 0 0 0-.1.21.23.23 0 0 0 .09.19.35.35 0 0 0 .23.07zm1.77-1.3h.23v.21a.52.52 0 0 1 .2-.18.58.58 0 0 1 .29-.07.64.64 0 0 1 .35.1.68.68 0 0 1 .25.27.89.89 0 0 1 0 .78.69.69 0 0 1-.25.27.64.64 0 0 1-.35.1.58.58 0 0 1-.29-.07.52.52 0 0 1-.2-.18V18h-.24v-2zm.7 1.26a.44.44 0 0 0 .23-.07.48.48 0 0 0 .18-.19.65.65 0 0 0 0-.57.48.48 0 0 0-.18-.19.44.44 0 0 0-.47 0 .48.48 0 0 0-.17.19.67.67 0 0 0 0 .57.48.48 0 0 0 .17.19.44.44 0 0 0 .23.07zM26.65 16h.24v.65l.6-.65h.3l-.65.67.67.74h-.29l-.64-.72v.72h-.24V16zm2.7 1.48a.7.7 0 0 1-.37-.1.69.69 0 0 1-.25-.27.82.82 0 0 1-.09-.39.86.86 0 0 1 .09-.38.69.69 0 0 1 .24-.28.65.65 0 0 1 .37-.1.69.69 0 0 1 .37.09.63.63 0 0 1 .24.26.84.84 0 0 1 .08.38.28.28 0 0 1 0 .07h-1.15A.57.57 0 0 0 29 17a.46.46 0 0 0 .18.17.48.48 0 0 0 .23.06.47.47 0 0 0 .42-.26l.2.1a.72.72 0 0 1-.25.28.7.7 0 0 1-.38.1zm.41-.91a.46.46 0 0 0-.05-.18.38.38 0 0 0-.14-.15.44.44 0 0 0-.24-.06.4.4 0 0 0-.29.11.52.52 0 0 0-.15.29zm1.59-.35h-.47V16h1.17v.22h-.47v1.22h-.24v-1.23zM33 16h.24v1.08L34 16h.24v1.43H34v-1.08l-.77 1.08H33V16zm2.32 0h.24v.6h.78V16h.24v1.43h-.24v-.61h-.78v.61h-.24V16zm2.33 0h1v.22h-.72v1.22h-.24V16zm2 1.45a.18.18 0 0 1-.18-.18.17.17 0 0 1 .05-.12.17.17 0 0 1 .13-.05.18.18 0 0 1 .18.18.17.17 0 0 1-.05.13.17.17 0 0 1-.12.05zm2.58-2h.68a.66.66 0 0 1 .31.08.6.6 0 0 1 .23.21.6.6 0 0 1 0 .62.6.6 0 0 1-.23.21.66.66 0 0 1-.31.08h-.44v.82h-.24v-2zm.68 1a.37.37 0 0 0 .2-.05.38.38 0 0 0 .13-.14.35.35 0 0 0 0-.35.38.38 0 0 0-.13-.14.37.37 0 0 0-.2-.05h-.45v.74zm1.65-1h.68a.65.65 0 0 1 .31.08.6.6 0 0 1 .23.21.57.57 0 0 1 .09.31.55.55 0 0 1-.06.26.58.58 0 0 1-.17.2.63.63 0 0 1-.25.11l.57.82h-.26l-.55-.82h-.32v.82h-.24v-2zm.67 1a.41.41 0 0 0 .2 0 .38.38 0 0 0 .15-.13.35.35 0 0 0 .05-.19.35.35 0 0 0 0-.18.38.38 0 0 0-.13-.14.36.36 0 0 0-.2-.05h-.45v.74z" fill-rule="evenodd" fill="gray"/><path fill="#ee5421" d="M5.36 5.36h3.33v3.33H5.36z"/><path fill="#008cc9" d="M2.69 6.69h2v2h-2z"/><path fill="#00c4da" d="M6.02.67h2.67v2.02H6.02z"/><path fill="#f2921a" d="M2.69 0h2.67v2.69H2.69z"/><path d="M10 0v3.36H1.33V0H0v11.38h1.33v-.67H10v.67h1.33V0zM1.33 4.69H10v4.67H1.33z" fill="#c8ccd3" fill-rule="evenodd"/><path d="M19.15 5.91c0 .22.1.34.26.39a1.31 1.31 0 0 0 .46.05H20c.25 0 .41 0 .52-.24V.78a.33.33 0 0 0-.14-.26.88.88 0 0 0-.55-.1.67.67 0 0 0-.64.42L18 3.27c-.05.1-.12.15-.19.15s-.27-.35-.33-.49-.22-.5-.22-.54-.09-.24-.21-.52-.19-.43-.22-.48-.14-.42-.2-.55-.3-.55-.63-.5h-.52c-.34.07-.35.26-.36.62v5.06c0 .04.11.25.24.25H16c.2 0 .31-.16.32-.49L16.39 4c0-.08 0-.13.09-.13s.13.11.19.34l.08.27s0 .12.1.31.09.31.1.33 0 .14.1.37v.18a1.7 1.7 0 0 0 .15.33.44.44 0 0 0 .17.24.44.44 0 0 0 .33.1.56.56 0 0 0 .56-.46l.52-1.6a1.13 1.13 0 0 1 .1-.28c.07-.28.25-.24.25-.1v2.01zM22.72.28c-.26 0-.35.18-.42.48l-.76 2.9c-.11.42-.25.93-.43 1.54a4.55 4.55 0 0 0-.24.88c0 .15.12.23.24.26a1.93 1.93 0 0 0 .54 0h.19a.38.38 0 0 0 .38-.3s0-.15.09-.34.08-.31.09-.34 0-.24.09-.48h1.2c.11.5.16.76.17.79a4.07 4.07 0 0 1 .13.43l.07.16a.26.26 0 0 0 .17.18h.49l.3-.05c.19 0 .28-.11.28-.28V6l-.2-.9c-.12-.43-.2-.76-.25-1 0-.06-.14-.56-.36-1.49s-.37-1.54-.43-1.84-.23-.51-.69-.51h-.65zm.4 2.4c0-.05.16.31.34 1.08h-.71a4 4 0 0 1 .36-1.08zM25.68 6c0 .25 0 .4.19.46a1 1 0 0 0 .48.05h.12c.28 0 .43-.06.47-.32l.06-4.6h1.15a.35.35 0 0 0 .31-.17.51.51 0 0 0 .06-.18 1.73 1.73 0 0 0 0-.38V.69c0-.22-.24-.33-.59-.34h-1.5a.8.8 0 0 0-.53.16 1 1 0 0 0-.12.59V6zM30.76.28c-.26 0-.35.18-.42.48l-.76 2.9c-.11.42-.25.93-.43 1.54a4.55 4.55 0 0 0-.24.88c0 .15.12.23.24.26a1.93 1.93 0 0 0 .54 0h.19a.38.38 0 0 0 .38-.3s0-.15.09-.34.08-.31.09-.34 0-.24.09-.48h1.2c.11.5.16.76.17.79a4.07 4.07 0 0 1 .13.43l.07.16a.26.26 0 0 0 .17.18h.49l.3-.05c.19 0 .28-.11.28-.28V6l-.22-.89c-.12-.43-.2-.76-.25-1 0-.06-.14-.56-.36-1.49s-.35-1.55-.41-1.85-.23-.51-.69-.51h-.65zm.4 2.4c0-.05.16.31.34 1.08h-.7a4 4 0 0 1 .36-1.08zm2.73-1.34c-.06.09 0 .27.25.54s.38.38.48.32.58-.6.89-.55a.55.55 0 0 1 .55.57.75.75 0 0 1-.66.78c-.36.08-.43.13-.42.48a.48.48 0 0 0 .16.41.94.94 0 0 0 .41.15.9.9 0 0 1 .4.18.71.71 0 0 1 .27.51.57.57 0 0 1-.33.55 1 1 0 0 1-1.08-.17c-.05 0-.35-.33-.48-.28s-.21.11-.32.32a1.11 1.11 0 0 0-.17.47 1.86 1.86 0 0 0 1 .73 2.26 2.26 0 0 0 1.38 0 1.47 1.47 0 0 0 1-.78c.34-.62.2-2-.66-2.16a1.36 1.36 0 0 0 .75-1.7 1.93 1.93 0 0 0-3.41-.37zm7.87-.45c0-.44-.05-.61-.37-.61h-.57a.53.53 0 0 0-.48.3L39 3.23l.06-2.66a.32.32 0 0 0-.24-.34h-.21a1.68 1.68 0 0 0-.5.05.34.34 0 0 0-.29.36V6a.3.3 0 0 0 .26.34h.66a.49.49 0 0 0 .38-.34l1.36-2.9V6a.39.39 0 0 0 .39.39h.54c.17 0 .27-.16.28-.34s0-.47 0-.54V.9zM42.15 6c0 .24.14.37.34.38h.48c.22 0 .53-.06.53-.24v-2c0-.1.11-.17.22-.2H44c.33 0 .54 0 .61.11a1.07 1.07 0 0 1 .11.56v1.08c0 .35.13.54.33.58h.39a.89.89 0 0 0 .32 0 .33.33 0 0 0 .32-.27L46 .82a.37.37 0 0 0-.31-.37h-.6a.47.47 0 0 0-.44.43v1.53c0 .34-1.06.37-1 .08V.87q0-.41-.3-.46h-.8a.36.36 0 0 0-.31.39v3.92q-.11.74-.09 1.28z" fill="#1a1a1a" fill-rule="evenodd"/><path d="M15 10.77V11c0 .08 0 .13.09.15h.22c.15 0 .17-.09.17-.34V8.95c0-.4.44.12.44-.42v-.17c0-.04 0-.19-.12-.19h-.56c-.12 0-.22 0-.24.21v2.4zm1.07-1.12a1.82 1.82 0 0 0 .28 1 .81.81 0 0 0 .68.44c.48 0 .77-.4.89-1 .13-.89-.1-2-.91-2a.78.78 0 0 0-.68.47 2.11 2.11 0 0 0-.27 1.07zm1-.84c.21 0 .36.27.39.59s-.08 1.06-.43 1.05-.4-.26-.43-.59a1.93 1.93 0 0 1 0-.48c0-.32.22-.58.46-.57zm1.32-.7a.48.48 0 0 0-.19 0c-.07 0-.1.09-.1.2v.29c0 .28.43.07.43.26V11a.16.16 0 0 0 .14.16h.19c.1 0 .15-.08.15-.24V8.96c0-.17 0-.14.06-.14h.25c.09 0 .14-.08.14-.25v-.1a1.31 1.31 0 0 0 0-.2.14.14 0 0 0-.17-.13h-.88zm1.22 1.54a1.82 1.82 0 0 0 .28 1 .81.81 0 0 0 .68.44c.48 0 .77-.4.89-1 .13-.89-.1-2-.91-2a.78.78 0 0 0-.68.47 2.11 2.11 0 0 0-.27 1.07zm1-.84c.21 0 .36.27.39.59s-.08 1.06-.43 1.05-.4-.26-.43-.59a1.93 1.93 0 0 1 0-.48c0-.32.22-.58.46-.57zm1.05 2.11c0 .08 0 .14.1.14h.77c.35 0 .56-.29.57-.75 0-.77-.4-.81-.33-.84.3-.09.36-.78.16-1.06a.65.65 0 0 0-.34-.28h-.78a.18.18 0 0 0-.18.21v2.62zm.55-1h.08a.23.23 0 0 1 .26.26c0 .16-.1.25-.29.25h-.06s-.07-.07-.07-.12V10a.11.11 0 0 1 .08-.11zm-.1-1c0-.1 0-.15.06-.15h.19a.19.19 0 0 1 .18.2c0 .13-.09.2-.26.2h-.08c-.05 0-.08-.09-.08-.23zm1.71 1h.08a.23.23 0 0 1 .26.26c0 .16 0 .26-.08.3a.27.27 0 0 1-.18 0h-.09s-.07-.07-.07-.12V10a.11.11 0 0 1 .08-.11zm-.09-.57c0-.43.08-1.26-.14-1.23h-.18a.18.18 0 0 0-.18.21v2.62c0 .08 0 .14.1.14h.77c.32 0 .49-.26.49-.78 0-1.29-.89-.8-.9-1zm1 1.58c0 .09 0 .18.1.18h.29c.05 0 .09 0 .1-.1V8.4c-.05-.2-.1-.21-.26-.2-.11 0-.17 0-.2.09a.59.59 0 0 0 0 .27v2.4zm.69.08c0 .07.05.1.15.11h.33A.27.27 0 0 0 26 11l.07-.2a3.18 3.18 0 0 1 .12-.32c0-.06.05-.09.08-.09s.08 0 .13.14l.15.31a.87.87 0 0 0 .12.21.43.43 0 0 0 .31.08c.08 0 .16 0 .17-.12a.26.26 0 0 0 0-.06c-.06-.15-.14-.35-.25-.62s-.2-.44-.25-.54-.06-.11 0-.15.09-.22.18-.41a3.81 3.81 0 0 0 .34-.95.11.11 0 0 0-.08-.11h-.28q-.11 0-.17.15l-.08.23-.14.37c0 .11-.07.17-.09.18s-.14-.21-.22-.44-.19-.46-.25-.45a.53.53 0 0 0-.19 0h-.11a.12.12 0 0 0-.13.12 2.14 2.14 0 0 0 .25.65 4.15 4.15 0 0 1 .27.64.6.6 0 0 1-.06.26l-.06.15-.07.15-.16.38-.17.41a.28.28 0 0 0 0 .08zm3.18-1.16c0-.16.91.34.9-1 0-.52-.17-.78-.49-.78h-.77c-.05 0-.09.07-.1.14v2.62c0 .09 0 .16.1.18h.26c.22 0 .1-.8.14-1.23zm.09-.58a.11.11 0 0 1-.08-.11v-.38c0-.06 0-.12.07-.12h.09a.27.27 0 0 1 .18 0c.06 0 .08.14.08.3a.23.23 0 0 1-.26.26zm1 1.68c0 .16.08.23.21.23h.81c.17 0 .2-.1.2-.37s0-.29-.12-.29h-.49c-.06 0-.08-.11-.08-.31v-.1c0-.08.07-.11.19-.11h.32c.08 0 .13-.07.13-.17v-.26c0-.06 0-.26-.15-.24h-.43s-.06 0-.07-.09V9a.24.24 0 0 1 0-.16h.17c.22 0 .45 0 .48-.11a.33.33 0 0 0 0-.13 1 1 0 0 0 0-.37c0-.06-.11-.09-.23-.09h-.26a3.53 3.53 0 0 0-.57 0c-.08 0-.12.07-.12.19v2.57zm1.42-2.3s0 .13.09.27.14.19.18.16.21-.29.33-.27.2.13.2.28a.35.35 0 0 1-.25.37c-.13 0-.16.06-.16.24a.28.28 0 0 0 .06.2.3.3 0 0 0 .15.08.3.3 0 0 1 .15.09.4.4 0 0 1 .1.25.3.3 0 0 1-.12.27c-.12.08-.25.05-.4-.08s-.13-.16-.18-.14-.08.05-.12.16a.67.67 0 0 0-.06.23.73.73 0 0 0 .38.36.64.64 0 0 0 .51 0 .61.61 0 0 0 .35-.38c.13-.3.07-1-.24-1.07a.76.76 0 0 0 .28-.84.77.77 0 0 0-.56-.6.64.64 0 0 0-.69.41zM32.89 11a.17.17 0 0 0 .06.13.31.31 0 0 0 .23.06h.14a23.47 23.47 0 0 1 .92-2.67.81.81 0 0 0 .06-.21s-.05-.06-.15-.07a1.09 1.09 0 0 0-.41 0s-.05 0 0 0l-.3 1-.25-.91a.25.25 0 0 0-.1-.15h-.35c-.08 0-.16 0-.12.19l.56 1.6-.25 1zm1.64.17H35a.16.16 0 0 0 .13-.06c.06-.08.06-.13.06-.29V8.77h.33V11c0 .09 0 .18.1.18h.29c.05 0 .09 0 .1-.1V8.46c-.05-.2-.1-.21-.26-.2H35c-.11 0-.17 0-.2.09a.6.6 0 0 0 0 .27v2.08h-.17c-.06 0-.11.11-.11.24s0 .24.11.28zm2.26-1.27h.08a.23.23 0 0 1 .26.26c0 .16 0 .26-.08.3a.27.27 0 0 1-.18 0h-.09s-.07-.07-.07-.12V10a.11.11 0 0 1 .08-.11zm-.09-.57c0-.43.08-1.26-.14-1.23h-.18a.18.18 0 0 0-.18.21v2.62c0 .08 0 .14.1.14h.77c.32 0 .49-.26.49-.78 0-1.29-.89-.8-.9-1zM38 8.11a.48.48 0 0 0-.19 0c-.07 0-.1.09-.1.2v.29c0 .28.43.07.43.26V11a.16.16 0 0 0 .14.16h.19c.1 0 .15-.08.15-.24V8.96c0-.17 0-.14.06-.14H39c.09 0 .14-.08.14-.25v-.1a1.3 1.3 0 0 0 0-.2.14.14 0 0 0-.17-.13h-.88zm1.9 0c-.1 0-.13.09-.15.24l-.28 1.43c0 .21-.09.46-.16.76a2.87 2.87 0 0 0-.09.43.12.12 0 0 0 .1.13h.28a.16.16 0 0 0 .14-.15v-.45h.48v.55s0 .08.06.09h.32c.07 0 .1-.05.1-.14l-.08-.44c0-.21-.07-.37-.09-.49l-.15-.75c-.09-.45-.15-.74-.17-.89s-.08-.25-.25-.25zm.16 1.18s.07.2.16.7h-.32a3.4 3.4 0 0 1 .17-.7zm1.27-1.18a.48.48 0 0 0-.19 0c-.07 0-.1.09-.1.2v.29c0 .28.43.07.43.26V11a.16.16 0 0 0 .14.16h.19c.1 0 .15-.08.15-.24V8.96c0-.17 0-.14.06-.14h.25c.09 0 .14-.08.14-.25v-.1a1.29 1.29 0 0 0 0-.2.14.14 0 0 0-.17-.13h-.88zm1.22 1.54a1.82 1.82 0 0 0 .28 1 .81.81 0 0 0 .68.44c.48 0 .77-.4.89-1 .13-.89-.1-2-.91-2a.78.78 0 0 0-.68.47 2.11 2.11 0 0 0-.27 1.07zm1-.84c.21 0 .36.27.39.59s-.08 1.06-.43 1.05-.4-.26-.43-.59a1.92 1.92 0 0 1 0-.48c0-.32.22-.58.46-.57zm1.05 2.11c0 .08 0 .14.1.14h.77c.35 0 .56-.29.57-.75 0-.77-.4-.81-.33-.84.3-.09.36-.78.16-1.06a.65.65 0 0 0-.34-.28h-.78a.18.18 0 0 0-.18.21v2.62zm.55-1h.08a.23.23 0 0 1 .26.26c0 .16-.1.25-.29.25h-.06s-.07-.07-.07-.12V10a.11.11 0 0 1 .08-.11zm-.1-1c0-.1 0-.15.06-.15h.19a.19.19 0 0 1 .18.2c0 .13-.09.2-.26.2h-.08c-.05 0-.08-.09-.08-.23z" fill-rule="evenodd"/></g></g></svg>