<?xml version="1.0" standalone="no"?>
<!DOCTYPE svg PUBLIC "-//W3C//DTD SVG 20010904//EN"
 "http://www.w3.org/TR/2001/REC-SVG-20010904/DTD/svg10.dtd">
<svg version="1.0" xmlns="http://www.w3.org/2000/svg"
 width="16.000000pt" height="16.000000pt" viewBox="0 0 16.000000 16.000000"
 preserveAspectRatio="xMidYMid meet">
<metadata>
Created by potrace 1.11, written by Peter Selinger 2001-2013
</metadata>
<g transform="translate(0.000000,16.000000) scale(0.002041,-0.002041)"
fill="#000000" stroke="none">
<path d="M3758 7443 l-3 -238 -77 -3 -78 -3 0 -159 0 -160 -80 0 -80 0 0 -128
c0 -71 3 -177 7 -235 l6 -107 67 0 c38 0 71 -5 78 -12 7 -7 12 -42 12 -85 l0
-73 75 0 74 0 3 -77 3 -78 158 -3 157 -3 0 -159 0 -160 -400 0 -400 0 0 -80 0
-80 -162 -2 -163 -3 -3 -77 -3 -78 -74 0 -75 0 0 -160 0 -160 -80 0 -80 0 0
-160 0 -159 -77 -3 -78 -3 -3 -162 -2 -163 -74 0 -74 0 -8 -157 -9 -158 -77
-3 -78 -3 0 -122 c0 -67 -3 -173 -7 -234 l-6 -113 -74 0 -73 0 0 -160 0 -160
-80 0 -80 0 0 -160 0 -159 -77 -3 -78 -3 -3 -158 -3 -157 -79 0 -80 0 0 -165
0 -165 -73 0 -74 0 -6 -112 c-4 -62 -7 -168 -7 -235 l0 -123 -80 0 -79 0 -3
-157 -3 -158 -77 -3 -78 -3 0 -159 0 -160 -80 0 -80 0 -2 -163 -3 -162 -71 0
-72 0 -7 -158 -7 -157 -73 0 -72 0 -9 -162 -9 -163 -78 -3 -77 -3 0 -154 0
-155 1520 0 1520 0 0 159 0 158 160 8 160 7 0 67 0 68 113 6 c61 4 205 7 320
7 l207 0 0 -80 0 -80 -80 0 -81 0 3 -83 3 -82 78 -3 77 -3 0 -74 0 -75 1520 0
1520 0 0 160 0 160 -80 0 -80 0 0 160 0 160 -80 0 -80 0 0 160 0 160 -74 0
-74 0 -7 160 -8 160 -72 0 -72 0 -6 112 c-4 62 -7 168 -7 235 l0 122 -77 3
-78 3 -3 162 -2 163 -80 0 -80 0 0 160 0 160 -74 0 -73 0 -9 163 -9 162 -71 0
-72 0 -8 160 -9 160 -71 0 -71 0 -7 119 c-3 66 -6 170 -6 232 l0 113 -77 3
-78 3 -3 163 -2 162 -80 0 -80 0 0 160 0 160 -74 0 -74 0 -7 160 -8 160 -78 0
-79 0 0 80 0 80 -607 0 c-335 0 -659 3 -720 7 l-113 6 0 69 0 68 -78 0 c-43 0
-83 5 -89 11 -6 6 -38 9 -77 7 l-66 -3 0 71 0 71 113 6 c61 4 167 7 235 7
l122 0 0 80 0 80 80 0 80 0 0 80 0 80 80 0 80 0 0 80 0 80 80 0 80 0 0 80 0
80 80 0 80 0 0 80 0 80 80 0 80 0 0 80 0 80 -74 0 -74 0 -7 160 -8 160 -72 0
-72 0 -6 122 c-4 66 -7 174 -7 240 l0 118 -80 0 -80 0 0 155 0 155 -74 0 c-58
0 -75 3 -80 16 -3 9 -6 83 -6 165 l0 149 -80 0 -80 0 0 160 0 160 -160 0 -160
0 -2 -237z m322 -4083 l0 -160 79 0 79 0 7 -160 7 -160 74 0 74 0 0 -80 0 -79
-77 -3 -78 -3 0 -75 0 -75 77 -3 77 -3 3 -82 3 -82 78 -3 77 -3 0 -74 0 -75
-80 0 -81 0 3 -82 3 -83 71 -3 72 -3 7 -154 7 -155 79 0 79 0 0 -80 0 -80
-320 0 -320 0 0 -287 c0 -159 -3 -339 -7 -400 l-6 -113 -74 0 -73 0 0 80 0 80
-75 0 -75 0 0 320 0 320 -320 0 -320 0 0 75 0 75 75 0 75 0 0 85 0 85 82 0 81
0 -6 235 c-4 146 -3 237 3 240 6 4 10 42 10 86 l0 79 75 0 75 0 2 317 3 316
73 -2 c52 -2 73 1 76 11 3 7 8 79 11 160 l7 147 77 4 c42 1 111 4 154 5 l77 2
0 -160z m640 -2725 l0 -155 -160 0 -160 0 0 153 c0 85 2 156 4 158 2 2 74 3
160 1 l156 -3 0 -154z"/>
</g>
</svg>
