<svg xmlns="http://www.w3.org/2000/svg" xmlns:xlink="http://www.w3.org/1999/xlink"><defs><clipPath id="clip0_2403_527"><path fill="#fff" transform="translate(25 24)" d="M0 0h30v32H0z"/></clipPath><clipPath id="a"><path fill="#fff" transform="translate(25 24)" d="M0 0h29v31H0z"/></clipPath><clipPath id="clip0_135_3364"><path fill="#fff" transform="translate(.16 .805)" d="M0 0h101v18H0z"/></clipPath><clipPath id="clip0_2403_1625"><path fill="#fff" transform="translate(.619)" d="M0 0h19.148v20H0z"/></clipPath><clipPath id="clip0_130_917"><path fill="#fff" d="M0 0h29v31H0z"/></clipPath></defs><symbol id="icon-1"><path fill="#68B738" d="M0 0h80v80H0z"/><g clip-path="url(#clip0_2403_527)"><path d="M52.844 26.767c-.1-.45-.48-.767-.912-.767h-.005c-4.938.033-16.945.916-21.793 8.38-2.518 3.878-2.735 8.913-.644 14.965.016.047.048.079.07.122-.747 1.973-1.037 3.286-1.044 3.323-.11.54.214 1.072.72 1.188a.88.88 0 00.197.022c.433 0 .822-.321.916-.79.02-.102 2.409-10.373 10.854-16.378.431-.306.547-.927.26-1.387-.288-.46-.87-.585-1.3-.277-4.79 3.405-7.739 8.008-9.473 11.656-1.242-4.578-.916-8.377.986-11.305 3.743-5.764 12.622-7.154 17.982-7.448-1.153 1.801-2.413 5.103-2.413 10.929 0 3.12-.83 5.522-2.465 7.14-2.62 2.591-6.88 2.834-9.993 2.584-.518-.045-.967.371-1.006.922-.04.55.347 1.03.863 1.072.623.051 1.29.082 1.981.082 3.17 0 6.87-.663 9.43-3.194 2.034-2.011 3.065-4.906 3.065-8.605 0-9.099 3.216-11.096 3.232-11.105.39-.209.594-.677.492-1.129z" fill="#fff"/></g></symbol><symbol id="icon-2"><path fill="#68B738" d="M0 0h80v80H0z"/><g clip-path="url(#a)" fill="#fff"><path d="M45.776 42.473c-1.706 0-3.088 1.479-3.088 3.301 0 1.824 1.383 3.302 3.088 3.302 1.706 0 3.088-1.478 3.088-3.302 0-1.823-1.383-3.3-3.088-3.3zm0 5.013c-.884 0-1.6-.766-1.6-1.71 0-.947.716-1.713 1.6-1.713.884 0 1.602.766 1.602 1.712 0 .945-.718 1.711-1.602 1.711zM36.607 23.99c-1.76 0-3.187 1.525-3.187 3.407 0 1.882 1.426 3.407 3.187 3.407 1.76 0 3.187-1.524 3.187-3.407s-1.427-3.407-3.187-3.407zm0 5.476c-1.07 0-1.936-.926-1.936-2.07 0-1.142.867-2.069 1.935-2.069 1.07 0 1.936.927 1.936 2.07 0 1.143-.866 2.069-1.936 2.069zm-3.38 12.144c-1.294 0-2.341 1.12-2.341 2.503s1.047 2.503 2.34 2.503c1.295 0 2.342-1.12 2.342-2.503 0-1.382-1.047-2.502-2.341-2.502zM33 43.5c-.459 0 1.158 1.104 1.158.613 0-.49-1.617.387-1.158.387.459 0 1.057-.877 1.057-.388 0 .49-.598-.612-1.057-.612zm10.5-9.737s3.04-.839 6.178 1.494c.907.76 1.766 1.336 1.152 2.122-.343.34-.637.657-1.716-.524-1.053-.76-2.72-1.898-5.614-1.442-1.128.237-1.961.551-3.556 2.15-1.593 1.598-3.972 2.725-6.497 2.489-2.525-.236-3.849-1.258-5.246-2.542-.294-.42-.294-.865-.123-1.127.171-.262.833-.525 1.201-.132.368.394 2.109 1.966 3.825 2.07 1.716.105 3.433.21 5.737-1.965 2.306-2.174 3.458-2.331 4.66-2.593z"/><mask id="a"><path d="M53.646 50.816V32.157c0-.578-.374-.65-.524-.655h-.506c-.493 0-.536.557-.538.739v.059c.002 3.609.01 18.253-.002 18.54a2.681 2.681 0 01-.82 1.887c-.809.695-1.618.603-1.618.603s-20.177 0-20.655-.026c-.38-.066-1.042-.21-1.606-1.01-.564-.798-.453-1.847-.453-1.847V32.315c0-.839-.675-.812-.675-.812h-.307c-.536 0-.585.588-.588.776v18.537c0 1.337.454 2.398 1.548 3.337 1.094.939 2.375.856 2.375.856s19.723 0 20.581-.002c.859-.003 1.986-.417 2.916-1.555.93-1.14.872-2.636.872-2.636z"/></mask><path d="M53.646 50.816V32.157c0-.578-.374-.65-.524-.655h-.506c-.493 0-.536.557-.538.739v.059c.002 3.609.01 18.253-.002 18.54a2.681 2.681 0 01-.82 1.887c-.809.695-1.618.603-1.618.603s-20.177 0-20.655-.026c-.38-.066-1.042-.21-1.606-1.01-.564-.798-.453-1.847-.453-1.847V32.315c0-.839-.675-.812-.675-.812h-.307c-.536 0-.585.588-.588.776v18.537c0 1.337.454 2.398 1.548 3.337 1.094.939 2.375.856 2.375.856s19.723 0 20.581-.002c.859-.003 1.986-.417 2.916-1.555.93-1.14.872-2.636.872-2.636z"/><path d="M53.646 50.816h-20v.387l.015.387 19.985-.774zm-.524-19.314l.71-19.987-.355-.013h-.355v20zm-1.044.739l-20-.15v.15h20zm0 .06h-20v.008l20-.008zm-.002 18.54l-19.985-.758v.013l19.986.745zm-.82 1.887l13.039 15.165.431-.37.41-.396-13.88-14.399zm-1.618.603l2.26-19.872-1.127-.128h-1.133v20zm-20.655-.026l-3.395 19.71 1.133.195 1.149.064 1.113-19.97zm-1.606-1.01L11.033 63.824l.004.006 16.34-11.533zm-.453-1.847l19.89 2.098.11-1.046v-1.052h-20zm-.675-18.945v20h.388l.387-.016-.775-19.984zm-.895.776L5.356 31.99l-.002.145v.144h20zm1.548 21.874L13.876 69.33l13.026-15.177zm2.375.856v-20h-.643l-.64.041 1.283 19.96zm23.497-1.557l15.49 12.653.005-.008-15.495-12.645zm20.872-2.636V32.157h-40v18.659h40zm0-18.659c0-4.97-1.859-11.419-7.618-16.084-4.89-3.96-10.03-4.481-12.196-4.558l-1.42 39.974a19.461 19.461 0 01-11.56-4.332c-5.535-4.483-7.206-10.608-7.206-15h40zM53.122 11.502h-.506v40h.506v-40zm-.506 0a20.47 20.47 0 00-12.283 4.083 20.527 20.527 0 00-6.419 8.034 21.136 21.136 0 00-1.835 8.473l39.999.298c-.006.733-.014 3.914-1.667 7.598a19.474 19.474 0 01-6.096 7.61 19.53 19.53 0 01-11.699 3.904v-40zM32.078 32.241v.051h40v-.052h-40zm0 .05v.011h40v-.011h-40zm0 .018l.004 10.512a8664.752 8664.752 0 01-.002 7.251c-.002.788-.006.45.01.011L72.063 51.6c.02-.51.017-1.37.018-1.45l.002-1.807v-5.529c0-4.15-.003-8.719-.004-10.52l-40 .016zm.012 17.787c.05-1.35.384-7.042 5.285-11.766l27.761 28.797c6.396-6.165 6.852-13.536 6.927-15.54L32.09 50.096zm6.126-12.532a17.512 17.512 0 017.807-3.844 17.955 17.955 0 014.628-.362 19.312 19.312 0 011.097.085l.075.008.037.004.019.002c.01.001.019.002-2.241 19.874-2.26 19.872-2.25 19.873-2.241 19.874l.018.002a42.98 42.98 0 00.269.029 20.68 20.68 0 002.597.093 22.044 22.044 0 003.983-.468 22.487 22.487 0 0010.03-4.968l-26.078-30.33zM49.638 53.33v-20h-3.156a17381.944 17381.944 0 01-14.032-.01l-2.357-.007c-1.071-.005-.613-.013.002.022L27.87 73.274c.97.054 7.17.051 11.606.054l6.997.003h3.164v-20zM32.377 33.595c.432.074 2.526.427 4.938 1.653a17.618 17.618 0 016.401 5.514L11.037 63.83c4.995 7.076 11.877 8.725 14.551 9.186l6.789-39.42zm11.343 7.174c2.35 3.33 2.91 6.508 3.08 7.954a16.586 16.586 0 01.05 3.439 21.707 21.707 0 01-.027.29l-.005.047-.002.024a.58.58 0 00-.002.011c0 .006 0 .012-19.89-2.086s-19.89-2.092-19.891-2.086l-.002.012a19.039 19.039 0 00-.07.851 23.437 23.437 0 00.117 4.197c.256 2.17 1.042 6.272 3.955 10.401L43.72 40.77zm3.203 9.68V32.314h-40v18.133h40zm0-18.134c0-6.89-3.411-14.004-10.264-17.999a20.69 20.69 0 00-11.136-2.8h-.025c-.012.001-.024.002.751 19.987.776 19.984.763 19.985.751 19.986h-.024l-.05.002a28.228 28.228 0 01-.3.008 19.363 19.363 0 01-17.35-10.06 19.028 19.028 0 01-2.352-9.124h40zM26.25 11.503h-.307v40h.307v-40zm-.307 0c-4.038 0-8.32 1.191-12.061 3.905a20.562 20.562 0 00-6.553 7.946 21.167 21.167 0 00-1.972 8.637l39.996.577c-.011.758-.045 3.996-1.784 7.718a19.438 19.438 0 01-6.2 7.5 19.477 19.477 0 01-11.426 3.717v-40zM5.354 32.279v18.537h40V32.279h-40zm0 18.537c0 7.063 2.92 13.705 8.522 18.514l26.052-30.354c1.294 1.111 2.854 2.871 3.993 5.373a15.715 15.715 0 011.433 6.467h-40zm8.523 18.514a23.586 23.586 0 0010.48 5.17 23.615 23.615 0 005.087.51 21.336 21.336 0 00.991-.034l.063-.004.03-.002h.016c.008-.001.016-.002-1.267-19.96C27.994 35.05 28 35.05 28.009 35.05a1.105 1.105 0 01.046-.003l.061-.004a16.34 16.34 0 01.372-.018 18.5 18.5 0 011.583.008c.737.037 1.607.13 2.571.334 1.88.398 4.642 1.34 7.285 3.609L13.877 69.33zm15.4-14.32v20h3.096l6.875-.001c5.007 0 10.202 0 10.668-.002l-.113-40H48.72l-2.443.001-7.032.001h-9.968v20zm20.638 19.997c7.104-.02 13.8-3.336 18.348-8.903L37.285 40.8c2.688-3.29 7.13-5.777 12.517-5.792l.113 40zm18.354-8.91c3.245-3.977 4.434-8.095 4.913-10.529a24.742 24.742 0 00.464-4.58 22.37 22.37 0 00-.013-.895l-.001-.026v-.013c-.001-.006-.001-.013-19.986.762-19.985.774-19.986.767-19.986.761v-.013l-.001-.025a8.846 8.846 0 01-.005-.152 19.435 19.435 0 01-.007-.611 15.251 15.251 0 01.288-2.931c.275-1.4 1.028-4.201 3.344-7.039l30.99 25.291z" mask="url(#a)"/></g></symbol><symbol id="icon-3"><path fill="#68B738" d="M0 0h80v80H0z"/><path fill-rule="evenodd" clip-rule="evenodd" d="M46.617 25.076a1 1 0 011.09.217c.909.908 2.097 2.878 3.059 5.918C51.737 34.28 52.5 38.508 52.5 44a1 1 0 01-1 1H48v9a1 1 0 11-2 0V26a1 1 0 01.617-.924zM48 43h2.491c-.086-4.816-.786-8.513-1.632-11.186-.278-.88-.57-1.642-.859-2.295V43zM34 25a1 1 0 011 1v28a1 1 0 11-2 0V26a1 1 0 011-1z" fill="#fff"/><path fill-rule="evenodd" clip-rule="evenodd" d="M29.5 25a1 1 0 011 1v5.5c0 .557.192 1.315.7 1.917.48.566 1.314 1.083 2.8 1.083a1 1 0 110 2c-2.015 0-3.43-.733-4.326-1.792A5.068 5.068 0 0128.5 31.5V26a1 1 0 011-1z" fill="#fff"/><path fill-rule="evenodd" clip-rule="evenodd" d="M38.5 25a1 1 0 00-1 1v5.5a3.07 3.07 0 01-.7 1.917c-.48.566-1.315 1.083-2.8 1.083a1 1 0 000 2c2.014 0 3.43-.733 4.326-1.792A5.068 5.068 0 0039.5 31.5V26a1 1 0 00-1-1z" fill="#fff"/></symbol><symbol id="icon-4"><path fill="#68B738" d="M0 0h80v80H0z"/><ellipse cx="45.204" cy="34.33" rx="1.087" ry="1.085" fill="#fff"/><ellipse cx="34.331" cy="34.33" rx="1.087" ry="1.085" fill="#fff"/><ellipse cx="34.331" cy="47.351" rx="1.087" ry="1.085" fill="#fff"/><ellipse cx="39.768" cy="49.522" rx="1.087" ry="1.085" fill="#fff"/><ellipse cx="31.069" cy="40.775" rx="1.087" ry="1.085" fill="#fff"/><ellipse cx="48.466" cy="40.775" rx="1.087" ry="1.085" fill="#fff"/><ellipse cx="45.204" cy="47.351" rx="1.087" ry="1.085" fill="#fff"/><mask id="a" fill="#fff"><path fill-rule="evenodd" clip-rule="evenodd" d="M44.922 52.058a1.058 1.058 0 011.217.196l1.825 1.875a.682.682 0 00.977-.95l-1.357-1.394c-.426-.438-.361-1.15.098-1.552C50.324 47.92 52 44.47 52 40.615 52 33.648 46.523 28 39.768 28c-6.756 0-12.232 5.648-12.232 12.614 0 3.815 1.641 7.234 4.236 9.547.452.403.513 1.11.09 1.544l-1.434 1.473a.681.681 0 10.976.951l1.88-1.93a1.058 1.058 0 011.226-.191 11.878 11.878 0 005.258 1.221c1.841 0 3.587-.42 5.154-1.17zm-5.154-.23c6.005 0 10.873-5.02 10.873-11.214 0-6.192-4.868-11.212-10.873-11.212-6.005 0-10.873 5.02-10.873 11.212 0 6.193 4.868 11.213 10.873 11.213zm-.76-11.53V32.94a.781.781 0 111.563 0v8.183c0 .443-.36.803-.803.803a.76.76 0 01-.76-.76v-.868z"/></mask><path fill-rule="evenodd" clip-rule="evenodd" d="M44.922 52.058a1.058 1.058 0 011.217.196l1.825 1.875a.682.682 0 00.977-.95l-1.357-1.394c-.426-.438-.361-1.15.098-1.552C50.324 47.92 52 44.47 52 40.615 52 33.648 46.523 28 39.768 28c-6.756 0-12.232 5.648-12.232 12.614 0 3.815 1.641 7.234 4.236 9.547.452.403.513 1.11.09 1.544l-1.434 1.473a.681.681 0 10.976.951l1.88-1.93a1.058 1.058 0 011.226-.191 11.878 11.878 0 005.258 1.221c1.841 0 3.587-.42 5.154-1.17zm-5.154-.23c6.005 0 10.873-5.02 10.873-11.214 0-6.192-4.868-11.212-10.873-11.212-6.005 0-10.873 5.02-10.873 11.212 0 6.193 4.868 11.213 10.873 11.213zm-.76-11.53V32.94a.781.781 0 111.563 0v8.183c0 .443-.36.803-.803.803a.76.76 0 01-.76-.76v-.868z" fill="#fff"/><path d="M33.284 52.199l2.866 2.79-2.866-2.79zm1.226-.191l1.765-3.59-1.765 3.59zm-3.106 2.121l-2.866-2.79 2.866 2.79zm-.976-.95l-2.866-2.792 2.866 2.791zm17.156-1.394l-2.865 2.79 2.865-2.79zm.098-1.552l-2.636-3.009 2.636 3.01zm-15.91-.072l-2.662 2.985 2.662-2.985zm.09 1.544l-2.866-2.79 2.866 2.79zm17.079 1.473l2.866-2.79-2.866 2.79zm-.977.951L45.1 56.92l2.865-2.79zm-1.825-1.875l2.865-2.79-2.865 2.79zm-1.218-.196l-1.73-3.606 1.73 3.606zm-1.648 2.987l1.826 1.875 5.731-5.581-1.826-1.875-5.731 5.58zm8.534-4.658l-1.357-1.393-5.731 5.582 1.356 1.393 5.732-5.582zm-1.49 2.855C53.808 50.186 56 45.647 56 40.615h-8c0 2.676-1.16 5.038-2.953 6.61l5.27 6.017zM56 40.615C56 31.554 48.848 24 39.768 24v8C44.199 32 48 35.74 48 40.614h8zM39.768 24c-9.08 0-16.232 7.555-16.232 16.614h8c0-4.874 3.8-8.614 8.232-8.614v-8zM23.536 40.614c0 4.98 2.147 9.477 5.574 12.532l5.324-5.97c-1.762-1.572-2.898-3.913-2.898-6.562h-8zm5.46 8.3l-1.434 1.473 5.731 5.582 1.434-1.473-5.73-5.581zm5.274 8.006l1.88-1.93-5.732-5.582-1.88 1.93 5.732 5.582zm-1.525-1.323a15.878 15.878 0 007.023 1.632v-8a7.879 7.879 0 01-3.493-.811l-3.53 7.18zm7.023 1.632c2.456 0 4.792-.56 6.884-1.565l-3.46-7.212a7.886 7.886 0 01-3.424.777v8zm0-1.402c8.33 0 14.873-6.928 14.873-15.212h-8c0 4.1-3.192 7.212-6.873 7.212v8zM54.64 40.615c0-8.285-6.544-15.213-14.873-15.213v8c3.68 0 6.873 3.112 6.873 7.212h8zM39.768 25.401c-8.33 0-14.873 6.928-14.873 15.212h8c0-4.1 3.192-7.212 6.873-7.212v-8zM24.895 40.614c0 8.285 6.544 15.213 14.873 15.213v-8c-3.68 0-6.873-3.112-6.873-7.212h-8zm11.676-.316v.543h8v-.543h-8zm0 .543v.282h8v-.282h-8zm6.437.325v-.325h-8v.325h8zm0-.325v-.543h-8v.543h8zm0-.543V36.5h-8v3.798h8zm0-3.798v-3.56h-8v3.56h8zm-6.437-3.56v3.56h8v-3.56h-8zm0 3.56v3.798h8V36.5h-8zm3.218-8.34a4.781 4.781 0 00-4.78 4.78h8a3.219 3.219 0 01-3.22 3.22v-8zm-3.218 12.963a3.197 3.197 0 013.197-3.197v8a4.803 4.803 0 004.803-4.803h-8zM36.15 54.99a2.943 2.943 0 01-3.405.607l3.53-7.179c-1.826-.898-4.227-.683-5.857.99l5.732 5.582zm-8.588 1.93a4.682 4.682 0 006.708 0l-5.732-5.581a3.318 3.318 0 014.755 0l-5.731 5.58zm0-6.533a4.681 4.681 0 000 6.533l5.731-5.581a3.318 3.318 0 010 4.63l-5.731-5.582zm22.888-1.393c1.343 1.38.944 3.305-.133 4.248l-5.27-6.018c-1.995 1.748-2.523 5.098-.328 7.352l5.731-5.582zM39.79 36.16a3.219 3.219 0 01-3.22-3.22h8a4.78 4.78 0 00-4.78-4.78v8zM29.11 53.146c-1.064-.948-1.447-2.862-.114-4.231l5.731 5.581c2.18-2.238 1.676-5.565-.293-7.32l-5.324 5.97zm22.697 3.774a4.682 4.682 0 000-6.533l-5.732 5.582a3.318 3.318 0 010-4.63l5.732 5.58zm-6.708 0a4.682 4.682 0 006.708 0l-5.732-5.581a3.318 3.318 0 014.755 0l-5.731 5.58zm-5.331-18.994a3.24 3.24 0 013.24 3.24h-8a4.76 4.76 0 004.76 4.76v-8zm9.236 11.538c-1.616-1.66-3.992-1.886-5.813-1.012l3.46 7.212a2.943 2.943 0 01-3.378-.62l5.731-5.58z" fill="#fff" mask="url(#a)"/><path fill="#fff" d="M39 29v-4h1.5v4z"/><rect x="32" y="25" width="15.5" height="1.5" rx=".75" fill="#fff"/></symbol><symbol id="icon-arrow"><path stroke="#000" stroke-width="2" d="M0 6h18"/><path d="M24 6l-6.75 5.196V.804L24 6z" fill="#000"/></symbol><symbol id="icon-check"><path d="M7 11.718L1.3 5.27.25 6.457 7 14.094 18.25 1.366 17.2.094 7 11.718z" fill="#68B738"/></symbol><symbol id="icon-email"><path d="M1.19 6v8M18.19 6v8M.54 13.35h18M.54 1.35h18M17.89 3.182L9.54 9.677 1.19 3.182V1.65h16.7v1.532z"/></symbol><symbol id="icon-fb"><path d="M21 2.75h-3.5c-1.547 0-3.03.71-4.125 1.974-1.094 1.264-1.708 2.98-1.708 4.767v4.045h-3.5v5.393h3.5v10.786h4.666V18.929h3.5L21 13.536h-4.667V9.49c0-.358.123-.7.342-.953.219-.253.516-.395.825-.395H21V2.75z"/></symbol><symbol id="icon-gift"><path d="M65.657 36.757H14.391a3.266 3.266 0 01-3.263-3.262v-9.772a3.267 3.267 0 013.263-3.263h51.265a3.266 3.266 0 013.262 3.263v9.773a3.264 3.264 0 01-3.26 3.261zM14.391 22.96a.773.773 0 00-.763.763v9.773c0 .42.342.762.763.762h51.265c.42 0 .762-.342.762-.762v-9.773a.772.772 0 00-.762-.763H14.391z" fill="#fff"/><path d="M58.508 70.236h-36.97a6.289 6.289 0 01-6.282-6.282V35.507a1.25 1.25 0 012.5 0v28.447a3.786 3.786 0 003.782 3.782h36.97a3.786 3.786 0 003.78-3.782V35.507a1.25 1.25 0 012.5 0v28.447a6.288 6.288 0 01-6.28 6.282z" fill="#fff"/><path d="M40.023 70.236c-.69 0-1.25-.56-1.25-1.25V35.507a1.25 1.25 0 012.5 0v33.478c0 .692-.56 1.251-1.25 1.251zM24.422 22.956c-3.913-2.12-5.373-7.027-3.255-10.94 2.117-3.912 7.024-5.372 10.938-3.256C38.07 11.99 41.29 21 41.422 21.383l-2.358.83c-.03-.086-3.038-8.486-8.148-11.255a5.578 5.578 0 00-7.55 2.247 5.58 5.58 0 002.248 7.553l-1.192 2.198z" fill="#fff"/><path d="M55.622 22.956l-1.19-2.199a5.541 5.541 0 002.688-3.31 5.53 5.53 0 00-.441-4.241 5.527 5.527 0 00-3.309-2.688 5.533 5.533 0 00-4.24.44c-5.11 2.768-8.118 11.169-8.148 11.254l-2.358-.83C38.758 21 41.977 11.99 47.94 8.76a8.015 8.015 0 016.144-.638 8.01 8.01 0 014.794 3.893 8.013 8.013 0 01.639 6.144 8.028 8.028 0 01-3.895 4.797zM63.538 53.497H16.506a1.25 1.25 0 010-2.5h47.032a1.25 1.25 0 010 2.5z" fill="#fff"/></symbol><symbol id="icon-inst-2"><path d="M19.658 16c0 1.691-1.414 3.063-3.158 3.063S13.342 17.69 13.342 16s1.414-3.063 3.158-3.063S19.658 14.31 19.658 16z" fill="#C4B192"/><path d="M23.886 10.582a2.84 2.84 0 00-.709-1.057 2.944 2.944 0 00-1.09-.687c-.333-.126-.835-.275-1.758-.316-1-.044-1.3-.054-3.83-.054-2.53 0-2.829.01-3.828.053-.923.041-1.425.191-1.759.317a2.942 2.942 0 00-1.09.687 2.842 2.842 0 00-.708 1.056c-.13.324-.284.81-.326 1.707-.046.968-.056 1.259-.056 3.712 0 2.453.01 2.744.056 3.713.042.896.196 1.382.326 1.706.152.399.394.76.708 1.056.306.305.678.54 1.09.687.334.126.835.276 1.76.317.998.044 1.298.053 3.828.053s2.83-.009 3.828-.053c.924-.041 1.426-.19 1.76-.317a3.091 3.091 0 001.798-1.743c.13-.324.284-.81.326-1.706.046-.97.055-1.26.055-3.713 0-2.453-.01-2.744-.055-3.712-.042-.896-.196-1.383-.326-1.707zM16.5 20.718c-2.687 0-4.866-2.112-4.866-4.718s2.179-4.718 4.866-4.718 4.865 2.112 4.865 4.718-2.178 4.718-4.865 4.718zm5.058-8.52c-.628 0-1.137-.493-1.137-1.102 0-.61.509-1.103 1.137-1.103.627 0 1.137.494 1.137 1.103s-.51 1.102-1.137 1.102z" fill="#C4B192"/><path d="M16.5 0C7.389 0 0 7.165 0 16s7.389 16 16.5 16S33 24.835 33 16 25.611 0 16.5 0zm9.418 19.788c-.046.978-.207 1.646-.44 2.23a4.774 4.774 0 01-2.772 2.687c-.602.227-1.291.382-2.3.427-1.01.045-1.333.055-3.906.055-2.573 0-2.896-.01-3.906-.055-1.009-.045-1.697-.2-2.3-.427a4.659 4.659 0 01-1.678-1.06 4.493 4.493 0 01-1.093-1.627c-.234-.584-.394-1.252-.44-2.23-.047-.98-.058-1.293-.058-3.788s.011-2.808.058-3.788c.045-.978.205-1.646.44-2.23a4.49 4.49 0 011.093-1.627 4.657 4.657 0 011.678-1.06c.603-.227 1.291-.382 2.3-.427 1.01-.045 1.333-.056 3.906-.056 2.573 0 2.896.011 3.906.056 1.009.045 1.697.2 2.3.427a4.66 4.66 0 011.678 1.06 4.491 4.491 0 011.093 1.627c.235.584.395 1.252.44 2.23.047.98.058 1.293.058 3.788s-.011 2.808-.058 3.788z"/></symbol><symbol id="icon-inst"><path d="M11.477.09c1.917 0 3.482.022 4.695.067 1.033.045 1.954.225 2.763.54.778.299 1.452.733 2.021 1.302a5.732 5.732 0 011.303 2.022c.314.808.494 1.729.539 2.762.045 1.213.067 2.778.067 4.694 0 1.917-.022 3.482-.067 4.695-.045 1.033-.225 1.954-.54 2.763a5.733 5.733 0 01-1.302 2.021 5.733 5.733 0 01-2.021 1.303c-.809.314-1.73.494-2.763.539-1.213.045-2.778.067-4.695.067-1.916 0-3.48-.022-4.694-.067-1.033-.045-1.954-.225-2.762-.54a5.732 5.732 0 01-2.022-1.302 5.733 5.733 0 01-1.303-2.021c-.314-.809-.494-1.73-.539-2.763a131.868 131.868 0 01-.067-4.695c0-1.916.022-3.48.067-4.694.045-1.033.225-1.954.54-2.762.299-.78.733-1.453 1.302-2.022A5.731 5.731 0 014.021.696C4.829.382 5.75.202 6.783.157 7.996.112 9.561.09 11.477.09zm0 1.482c-1.991 0-3.616.023-4.873.068a7.21 7.21 0 00-2.247.426c-1.078.45-1.841 1.213-2.29 2.291a7.21 7.21 0 00-.427 2.247 142.032 142.032 0 00-.068 4.873c0 1.992.023 3.617.068 4.875a7.21 7.21 0 00.426 2.246c.45 1.078 1.213 1.841 2.291 2.29a7.211 7.211 0 002.247.427c1.257.045 2.882.068 4.873.068 1.992 0 3.617-.023 4.875-.068a7.211 7.211 0 002.246-.426c1.078-.45 1.841-1.213 2.29-2.291a7.211 7.211 0 00.427-2.246c.045-1.258.068-2.883.068-4.875 0-1.991-.023-3.616-.068-4.873a7.211 7.211 0 00-.426-2.247c-.45-1.078-1.213-1.841-2.291-2.29a7.21 7.21 0 00-2.246-.427 142.035 142.035 0 00-4.875-.068zm0 14.465c1.258 0 2.333-.445 3.224-1.336.89-.891 1.336-1.966 1.336-3.224 0-1.257-.445-2.332-1.336-3.223-.891-.89-1.966-1.336-3.224-1.336-1.257 0-2.332.445-3.223 1.336-.89.891-1.336 1.966-1.336 3.223 0 1.258.445 2.333 1.336 3.224.891.89 1.966 1.336 3.223 1.336zm0-10.4c1.618 0 2.995.57 4.133 1.708s1.707 2.515 1.707 4.132c0 1.618-.569 2.995-1.707 4.133-1.138 1.138-2.515 1.707-4.133 1.707-1.617 0-2.994-.569-4.132-1.707-1.138-1.138-1.707-2.515-1.707-4.133 0-1.617.569-2.994 1.707-4.132 1.138-1.138 2.515-1.707 4.132-1.707zm7.458-.224c0 .374-.135.693-.405.955s-.599.393-.988.393a1.3 1.3 0 01-.955-.393 1.3 1.3 0 01-.393-.955c0-.39.131-.719.393-.988.262-.27.58-.404.955-.404.374 0 .7.138.977.415.277.277.416.603.416.977z"/></symbol><symbol id="icon-logo-text"><g clip-path="url(#clip0_135_3364)" fill="#111"><path d="M1.425 17.343a6.865 6.865 0 01-1.264-4.307V6.65a6.95 6.95 0 011.185-4.384c.87-1 2.213-1.462 4.189-1.462s3.24.462 4.03 1.308a5.423 5.423 0 011.186 3.769V7.42H6.878V5.651a3.692 3.692 0 00-.237-1.538 1.12 1.12 0 00-.456-.473 1.164 1.164 0 00-.65-.143c-.553 0-.949.154-1.107.539a4.846 4.846 0 00-.237 1.692v8.23a3.111 3.111 0 00.316 1.616c.158.385.554.539 1.107.539.553 0 .87-.154 1.027-.539.18-.52.26-1.067.237-1.615v-1.846h3.873v1.538a5.775 5.775 0 01-1.186 3.846c-.79.923-2.133 1.385-4.03 1.385-1.897-.077-3.32-.539-4.11-1.539zM15.414 1.036h4.504l3.32 17.538h-3.636l-.632-3.692h-2.608l-.632 3.692h-3.715l3.399-17.538zm3.24 11.538l-.949-6.846-.948 6.846h1.897zM26.003 3.959h-2.686V1.036h9.404v2.846h-2.687v14.692h-4.03V3.96zM39.913 1.036h6.954v1.846h-4.504v5.77h3.635v1.768h-3.635v6.462h4.504v1.77h-7.033V1.035h.079zM48.922 1.036h1.739l5.137 11.615V1.036h2.054v17.538h-1.58l-5.216-12v12h-2.134V1.036zM60.223 1.036h6.955v1.846h-4.505v5.77h3.636v1.768h-3.636v6.462h4.505v1.77h-6.955V1.035zM69.233 1.036h3.635a6.452 6.452 0 014.03 1.077c.87.692 1.265 1.923 1.265 3.538 0 2.23-.711 3.616-2.213 4.077l2.53 8.77h-2.45l-2.371-8.232h-1.976v8.231h-2.53V1.036h.08zm3.477 7.538a3.524 3.524 0 002.292-.615c.474-.385.711-1.154.711-2.308a4.846 4.846 0 00-.237-1.692 1.974 1.974 0 00-.87-.923 3.69 3.69 0 00-1.738-.308h-1.106v5.77h.948v.076zM81.324 17.267a7.613 7.613 0 01-1.106-4.462V6.959a12.26 12.26 0 01.395-3.308 3.916 3.916 0 011.502-2c.882-.508 1.9-.75 2.924-.692 1.66 0 2.845.384 3.556 1.23a5.77 5.77 0 011.106 3.847v.615h-2.37v-.538a11.04 11.04 0 00-.159-1.923 1.533 1.533 0 00-.632-1 2.493 2.493 0 00-1.501-.385 2.417 2.417 0 00-1.58.462 1.7 1.7 0 00-.632 1.23 14.01 14.01 0 00-.16 2.077v6.539a6.815 6.815 0 00.475 2.923c.316.615.948.846 1.897.846.374.045.754-.018 1.091-.182.338-.165.618-.422.805-.741a6.908 6.908 0 00.554-3.077v-1.23h-2.292v-1.77h4.584v8.692H88.2l-.237-2a3.143 3.143 0 01-1.226 1.658 3.288 3.288 0 01-2.014.573 4.046 4.046 0 01-1.899-.352 3.932 3.932 0 01-1.5-1.186zM94.838 12.42L90.966 1.113h2.37l2.767 8.461 2.687-8.461h2.371L97.288 12.42v6.154h-2.37V12.42h-.08z"/></g></symbol><symbol id="icon-menu"><path stroke="#000" stroke-width="1.5" d="M0 1.25h24M0 9.25h24M0 17.25h24"/></symbol><symbol id="icon-phone"><g clip-path="url(#clip0_2403_1625)" fill="#000"><path d="M17.756 9.4H9.618v1.2h8.138l-2.01 2.1.861.9 2.968-3.1a.772.772 0 000-.9l-2.968-3.1-.861.9 2.01 2zM8.374 19.4v-6.2a.663.663 0 00-.18-.411.611.611 0 00-.395-.189H3.587c.005.317.127.619.342.843.214.224.503.352.806.357H7.13v5H3.587a1.645 1.645 0 01-.669-.095 1.7 1.7 0 01-.581-.357 1.785 1.785 0 01-.405-.565 1.854 1.854 0 01-.164-.683v-14c-.008-.463.158-.91.462-1.247A1.664 1.664 0 013.395 1.3H7.13v5H4.831a1.144 1.144 0 00-.807.357 1.247 1.247 0 00-.342.843h4.213a.611.611 0 00.394-.189.663.663 0 00.18-.411V.6a.864.864 0 00-.251-.402A.808.808 0 007.799 0H3.587A2.762 2.762 0 002.48.19a2.856 2.856 0 00-.953.617 3 3 0 00-.653.952A3.111 3.111 0 00.619 2.9v13.9c-.028.398.023.797.15 1.173.128.376.328.72.589 1.011.26.292.576.523.927.68.35.158.728.238 1.11.236H7.8a.46.46 0 00.402-.106.497.497 0 00.173-.394z"/></g></symbol><symbol id="icon-plus"><path stroke="#D3D3D3" stroke-width="2" d="M31 0v60M60 31H0"/></symbol><symbol id="icon-tub"><g clip-path="url(#clip0_130_917)" fill="#fff"><path d="M20.776 18.473c-1.706 0-3.088 1.479-3.088 3.301 0 1.824 1.383 3.302 3.088 3.302 1.706 0 3.088-1.478 3.088-3.302 0-1.823-1.383-3.3-3.088-3.3zm0 5.013c-.884 0-1.6-.766-1.6-1.71 0-.947.716-1.713 1.6-1.713.884 0 1.602.766 1.602 1.712 0 .945-.718 1.711-1.602 1.711zM11.607-.01c-1.76 0-3.187 1.525-3.187 3.407 0 1.882 1.426 3.407 3.187 3.407 1.76 0 3.187-1.524 3.187-3.407S13.367-.01 11.607-.01zm0 5.476c-1.07 0-1.936-.926-1.936-2.07 0-1.142.866-2.069 1.935-2.069 1.07 0 1.936.927 1.936 2.07 0 1.143-.866 2.069-1.936 2.069zM8.227 17.61c-1.294 0-2.341 1.12-2.341 2.503s1.047 2.503 2.34 2.503c1.295 0 2.342-1.12 2.342-2.503 0-1.382-1.047-2.503-2.341-2.503zM8 19.5c-.459 0 1.158 1.104 1.158.613 0-.49-1.617.387-1.158.387.459 0 1.057-.877 1.057-.388 0 .49-.598-.612-1.057-.612zM18.5 9.763s3.04-.839 6.178 1.494c.907.76 1.765 1.336 1.152 2.122-.343.34-.637.657-1.716-.524-1.054-.76-2.72-1.898-5.614-1.442-1.128.237-1.961.551-3.556 2.15-1.593 1.598-3.972 2.725-6.497 2.489-2.525-.236-3.849-1.258-5.246-2.542-.294-.42-.294-.865-.123-1.127.171-.262.833-.524 1.201-.132.368.394 2.109 1.966 3.825 2.07 1.716.105 3.433.21 5.737-1.965 2.306-2.174 3.458-2.331 4.66-2.593z"/><mask id="a"><path d="M28.646 26.816V8.157c0-.578-.374-.65-.524-.655h-.506c-.493 0-.536.557-.538.739V8.3c.002 3.609.01 18.254-.002 18.54a2.681 2.681 0 01-.82 1.887c-.809.695-1.618.603-1.618.603s-20.177 0-20.655-.026c-.38-.066-1.042-.21-1.606-1.01-.564-.798-.453-1.847-.453-1.847V8.315c0-.839-.675-.812-.675-.812H.942c-.536 0-.585.588-.588.776v18.537c0 1.337.453 2.398 1.548 3.337 1.094.939 2.375.856 2.375.856s19.723 0 20.581-.002c.859-.003 1.986-.417 2.916-1.556.93-1.138.872-2.635.872-2.635z"/></mask><path d="M28.646 26.816V8.157c0-.578-.374-.65-.524-.655h-.506c-.493 0-.536.557-.538.739V8.3c.002 3.609.01 18.254-.002 18.54a2.681 2.681 0 01-.82 1.887c-.809.695-1.618.603-1.618.603s-20.177 0-20.655-.026c-.38-.066-1.042-.21-1.606-1.01-.564-.798-.453-1.847-.453-1.847V8.315c0-.839-.675-.812-.675-.812H.942c-.536 0-.585.588-.588.776v18.537c0 1.337.453 2.398 1.548 3.337 1.094.939 2.375.856 2.375.856s19.723 0 20.581-.002c.859-.003 1.986-.417 2.916-1.556.93-1.138.872-2.635.872-2.635z"/><path d="M28.646 26.816h-20v.387l.015.387 19.985-.774zm-.524-19.314l.71-19.987-.355-.013h-.355v20zm-1.044.739l-20-.15v.15h20zm0 .06h-20v.008l20-.008zm-.002 18.54l-19.985-.758v.013l19.986.745zm-.82 1.887l13.039 15.165.431-.37.41-.396-13.88-14.399zm-1.618.603l2.26-19.872-1.127-.128h-1.133v20zm-20.655-.026L.588 49.015l1.134.195 1.148.064 1.113-19.97zm-1.606-1.01l-16.344 11.528.004.006 16.34-11.533zm-.453-1.847l19.89 2.098.11-1.046v-1.052h-20zM1.249 7.503v20h.388l.388-.015-.776-19.985zm-.895.776l-19.998-.289-.002.145v.144h20zm1.548 21.874L-11.124 45.33 1.903 30.153zm2.375.856v-20h-.643l-.64.041 1.283 19.96zm23.497-1.558l15.49 12.654.005-.008-15.495-12.646zm20.872-2.635V8.157h-40v18.659h40zm0-18.659c0-4.97-1.859-11.419-7.618-16.084-4.89-3.96-10.03-4.481-12.196-4.558l-1.42 39.974a19.462 19.462 0 01-11.56-4.332c-5.535-4.483-7.206-10.608-7.206-15h40zM28.122-12.498h-.506v40h.506v-40zm-.506 0a20.47 20.47 0 00-12.283 4.083A20.526 20.526 0 008.914-.38 21.134 21.134 0 007.079 8.09l39.999.299c-.006.733-.014 3.914-1.667 7.598a19.474 19.474 0 01-6.096 7.61 19.53 19.53 0 01-11.699 3.904v-40zM7.078 8.241V8.292h40V8.29v-.001-.001-.001-.001-.001-.001-.001-.001-.001-.001-.001-.001-.001-.001-.001-.001-.001-.001-.001-.001-.001-.001-.001-.001-.001-.001-.001-.001-.001-.001-.001-.001-.001-.001-.001-.001-.001-.001-.001-.001-.001-.001-.001-.001-.001-.001-.001-.001-.001h-40zm0 .05V8.302h40V8.3v-.001-.001-.001-.001-.001-.001-.001-.001h-40zm0 .018l.004 10.511a8367.03 8367.03 0 01-.002 7.252c-.002.788-.006.45.01.011L47.063 27.6c.02-.51.018-1.37.018-1.45l.002-1.808v-5.528c0-4.15-.003-8.719-.004-10.52l-40 .016zm.012 17.787c.05-1.35.384-7.042 5.285-11.767l27.761 28.798c6.396-6.166 6.852-13.536 6.927-15.54L7.09 26.096zm6.126-12.533a17.513 17.513 0 017.807-3.843 17.962 17.962 0 014.628-.362 19.227 19.227 0 011.172.093l.037.004.019.002c.01.001.019.002-2.241 19.874-2.26 19.872-2.25 19.873-2.241 19.874l.018.003c.013 0 .025.002.038.004a14.8 14.8 0 00.553.053 20.798 20.798 0 002.275.064 22.044 22.044 0 003.983-.468 22.487 22.487 0 0010.03-4.968l-26.078-30.33zm11.422 15.768v-20h-.001-.865a17598.02 17598.02 0 01-16.322-.01l-2.357-.007c-1.071-.005-.613-.013.002.022L2.87 49.274c.97.054 7.17.051 11.606.054l6.997.003h3.164v-20zM7.377 9.595c.432.074 2.526.427 4.938 1.653a17.618 17.618 0 016.401 5.514L-13.963 39.83c4.995 7.076 11.877 8.725 14.551 9.186l6.789-39.42zm11.344 7.173c2.348 3.33 2.908 6.51 3.08 7.955a16.586 16.586 0 01.049 3.439 18.522 18.522 0 01-.027.29l-.005.047-.002.024-.002.012c0 .005 0 .011-19.89-2.087-19.89-2.098-19.89-2.092-19.891-2.086l-.002.012a19.73 19.73 0 00-.036.385 21.677 21.677 0 00-.078 1.584c-.011.81.016 1.863.16 3.08.257 2.169 1.043 6.27 3.956 10.4L18.72 16.768zm3.203 9.68V8.315h-40v18.133h40zm0-18.133c0-6.89-3.412-14.004-10.265-17.999a20.69 20.69 0 00-11.136-2.8H.498c-.012.001-.024.002.751 19.987.776 19.985.763 19.985.751 19.985l-.024.001-.05.002a28.574 28.574 0 01-.3.008 19.374 19.374 0 01-10.112-2.626 19.387 19.387 0 01-7.239-7.434 19.028 19.028 0 01-2.351-9.124h40zM1.248-12.497H.942v40h.307v-40zm-.307 0c-4.037 0-8.32 1.191-12.061 3.905a20.562 20.562 0 00-6.553 7.946 21.166 21.166 0 00-1.972 8.636l39.996.578c-.011.758-.045 3.996-1.784 7.718a19.438 19.438 0 01-6.2 7.5A19.477 19.477 0 01.942 27.503v-40zM-19.646 8.279V26.816h40v-.007-.007-.008-.008-.008-.008-.009-.009-.01-.009-.01-.01-.01-.011-.01-.012-.012-.012-.012-.012-.012-.013-.014-.013-.014-.014-.014-.014-.015-.015-.015-.016-.016-.016-.016-.016-.017-.017-.018-.017-.018-.018-.018-.019-.019-.019-.019-.02-.02-.02-.02-.02-.02-.022-.021-.021-.022-.022-.022-.023-.022-.023-.023-.023-.024-.023-.024-.024-.025-.024-.025-.025-.026-.025-.026-.026-.026-.026-.027-.026-.027-.028-.027-.028-.027-.028-.029-.028-.029-.028-.03-.028-.03-.03-.03-.03-.03-.03-.03-.031-.03-.032-.031-.032-.031-.032-.032-.033-.032-.032-.033-.033-.033-.033-.034-.034-.033-.034-.034-.035-.034-.035-.034-.035-.035-.036-.035-.036-.036-.035-.037-.036-.036-.037-.036-.037-.037-.037-.038-.037-.038-.037-.038-.038-.038-.039-.038-.039-.038-.04-.038-.04-.039-.04-.039-.04-.04-.039-.04-.04-.04-.04-.041-.041-.04-.042-.04-.042-.041-.042-.041-.042-.041-.042-.042-.042-.042-.043-.042-.043-.042-.043-.043-.043-.043-.043-.043-.043-.044-.043-.044-.043-.044-.044-.044-.044-.044-.044-.044-.045-.044-.045-.045-.044-.045-.045-.045-.045-.045-.045-.046-.045-.045-.046-.045-.046-.046-.045-.046-.046-.046-.046-.046-.046-.046-.046-.047-.046-.047-.046-.047-.046-.047-.046-.047-.047-.047-.047-.047-.047-.046-.047-.048-.047-.047-.047-.047-.047-.048-.047-.047-.048-.047-.048-.047-.048-.047-.048-.047-.048-.048-.047-.048-.048-.047-.048-.048-.048-.047-.048-.048-.048-.048-.047-.048-.048-.048-.048-.048-.047-.048-.048-.048-.048-.048-.048-.047-.048-.048-.048-.048-.048-.047-.048-.048-.048-.047-.048-.048-.048-.047-.048-.047-.048-.048-.047-.048-.047-.048-.047-.047-.048-.047-.048-.047-.047-.047-.048-.047-.047-.047-.047-.047-.047-.047-.046-.047-.047-.047-.046-.047-.046-.047-.046-.047-.046-.046-.047-.046-.046-.046-.046-.046-.046-.046-.045-.046-.045-.046-.046-.045-.045-.045-.046-.045-.045-.045-.044-.045-.045-.044-.045-.044-.045-.044-.044-.044-.044-.044-.044-.044-.043-.044-.044-.043-.043-.043-.043-.043-.043-.043-.043-.042-.042-.043-.042-.042-.042-.042-.042-.042-.041-.042-.041-.041-.041-.041-.041-.04-.042-.04-.04-.04-.04-.04-.04-.04-.04-.04-.039-.039-.04-.038-.039-.039-.038-.038-.039-.038-.038-.037-.038-.038-.037-.037-.037-.037-.037-.037-.036-.037-.036-.036-.036-.035-.036-.035-.035-.036-.034-.035-.035-.034-.034-.034-.034-.034-.034-.033-.033-.033-.033-.033-.032-.032-.033-.032-.031-.032-.031V9.6v-.03-.031-.031-.03-.03-.03-.03-.03-.03-.03-.028-.03-.028-.029-.028-.028V9.1v-.028-.027-.027-.028-.026-.027-.027-.026-.026-.026-.025-.026-.025-.025-.025-.024-.024-.025-.023-.024-.023-.024-.023-.022-.023-.022-.022-.022-.022-.02-.022-.02-.022-.02h-40zm0 18.537c0 7.063 2.92 13.705 8.522 18.514l26.052-30.354c1.294 1.111 2.854 2.871 3.993 5.373a15.716 15.716 0 011.433 6.467h-40zm8.523 18.514A23.586 23.586 0 00-.643 50.5a23.616 23.616 0 005.087.51 21.335 21.335 0 00.991-.034l.063-.004.03-.002h.016c.008-.001.016-.002-1.267-19.96C2.994 11.05 3 11.05 3.009 11.05l.015-.002.03-.001a429.613 429.613 0 01.185-.01 19.735 19.735 0 01.755-.025c.342-.004.702.002 1.077.021.737.037 1.607.13 2.571.334 1.88.398 4.642 1.34 7.285 3.609l-26.05 30.354zm15.4-14.32v20H7.372l6.875-.001c5.007 0 10.202 0 10.668-.002l-.113-40H23.72l-2.443.001-7.033.001H4.278v20zm20.638 19.997c7.104-.02 13.8-3.336 18.348-8.902L12.286 16.799c2.687-3.29 7.129-5.777 12.516-5.792l.113 40zm18.354-8.91c3.245-3.977 4.434-8.096 4.913-10.529a24.742 24.742 0 00.464-4.58 21.801 21.801 0 00-.015-.934c0-.006 0-.013-19.985.762-19.985.774-19.986.767-19.986.761v-.013l-.001-.025a18.379 18.379 0 01.014-1.619c.033-.576.105-1.28.262-2.075.275-1.4 1.028-4.201 3.344-7.039l30.99 25.291z" mask="url(#a)"/></g></symbol><symbol id="icon-vk-2"><path d="M12.884 7.136c-.035-.064-.251-.57-1.291-1.611-1.089-1.09-.943-.913.369-2.799C12.76 1.578 13.08.877 12.98.578c-.095-.286-.683-.21-.683-.21L10.345.38s-.145-.021-.253.048a.59.59 0 00-.172.226s-.31.888-.722 1.644c-.87 1.594-1.22 1.678-1.361 1.58-.331-.231-.248-.928-.248-1.422C7.588.91 7.805.266 7.165.1c-.213-.055-.37-.092-.913-.098C5.555-.006 4.964.004 4.63.18c-.222.117-.394.38-.29.394.13.018.423.085.578.313.2.293.193.954.193.954s.116 1.819-.269 2.045c-.264.155-.625-.161-1.401-1.608-.398-.74-.698-1.56-.698-1.56S2.685.566 2.582.485c-.125-.1-.301-.13-.301-.13L.424.365s-.28.01-.382.14C-.048.622.035.862.035.862s1.455 3.67 3.1 5.52c1.511 1.696 3.226 1.584 3.226 1.584h.777s.235-.028.354-.167c.11-.128.106-.368.106-.368s-.015-1.125.47-1.29c.476-.163 1.089 1.087 1.738 1.568.49.363.864.284.864.284l1.736-.027s.909-.06.478-.83z"/></symbol><symbol id="icon-vk"><path d="M.091 5.49c0-.855.552-1.316 1.656-1.383l4.254.025c.285 0 .475.126.57.377.438 1.258.928 2.343 1.47 3.257.543.913 1.252 1.966 2.127 3.156.076.15.2.226.371.226a.356.356 0 00.314-.176l.086-.277.029-4.35c0-.302-.081-.503-.243-.604-.162-.1-.462-.176-.9-.226-.342-.05-.513-.235-.513-.553 0-.067.01-.118.028-.151.4-1.09 1.542-1.635 3.426-1.635l1.599-.025c.723 0 1.322.16 1.798.478.476.318.714.821.714 1.509v5.708a.707.707 0 00.37.126c.286 0 .534-.15.743-.452 2.093-2.582 3.226-4.31 3.397-5.181a.41.41 0 01.057-.126c.133-.251.352-.47.657-.654.304-.184.57-.31.799-.377a.63.63 0 01.257-.05h4.425l.285.025a1 1 0 01.885.478c.076.1.128.21.157.327.029.117.047.234.057.352.01.117.014.184.014.201v.176c-.133.687-.47 1.42-1.013 2.2-.543.78-1.232 1.623-2.07 2.528-.837.905-1.36 1.5-1.57 1.785-.171.202-.257.386-.257.554 0 .134.076.285.229.452l4.168 4.627c.228.269.342.562.342.88 0 .386-.171.705-.514.956-.342.252-.752.394-1.227.428l-.486.025h-4.339c-.019 0-.057.004-.114.012a.988.988 0 01-.114.013c-.419 0-.809-.16-1.17-.478-.134-.134-1.028-1.123-2.684-2.967a1.457 1.457 0 00-.4-.327c-.075.268-.175.654-.3 1.157a83.81 83.81 0 01-.27 1.081l-.086.428c-.19.586-.59.938-1.199 1.056l-.4.025H12.71c-1.58 0-3.154-.637-4.725-1.911-1.57-1.274-2.983-2.922-4.239-4.942C2.49 11.253 1.32 8.902.235 6.22a1.804 1.804 0 01-.144-.73zm17.157 6.513c-.4 0-.762-.096-1.085-.289-.324-.193-.485-.457-.485-.792V5.138c0-.335-.095-.574-.286-.717-.19-.142-.523-.214-.999-.214l-1.627.05c-.818 0-1.437.126-1.855.378.837.352 1.255.922 1.255 1.71v4.426c-.037.42-.228.767-.57 1.044a1.774 1.774 0 01-1.142.415c-.571 0-1.009-.244-1.313-.73-1.485-1.978-2.589-3.856-3.312-5.633l-.257-.654-3.796-.025c-.248 0-.386.013-.414.038-.029.025-.043.096-.043.214 0 .15.019.31.057.477l.6 1.409c1.598 3.638 3.335 6.505 5.21 8.6 1.874 2.096 3.715 3.144 5.523 3.144h2.854c.115 0 .2-.03.257-.088.058-.059.105-.172.143-.34l.057-.251.543-2.213c.152-.302.285-.503.4-.604.209-.184.456-.276.741-.276.457 0 .924.243 1.4.729l2.426 2.716c.152.218.314.327.485.327h4.71c.571 0 .857-.126.857-.378a.444.444 0 00-.086-.25l-4.14-4.553c-.323-.352-.485-.729-.485-1.131 0-.403.153-.788.457-1.157.248-.336.728-.893 1.442-1.673a38.176 38.176 0 001.87-2.187c.532-.68.884-1.295 1.056-1.849l.085-.327a.347.347 0 01-.028-.163.538.538 0 00-.029-.189h-4.482c-.285.1-.513.252-.685.453l-.17.478c-.477 1.157-1.723 2.942-3.74 5.356a2.11 2.11 0 01-1.4.503z"/></symbol><symbol id="icon-watch"><ellipse cx="18.204" cy="9.33" rx="1.087" ry="1.085" fill="#fff"/><ellipse cx="7.331" cy="9.33" rx="1.087" ry="1.085" fill="#fff"/><ellipse cx="7.331" cy="22.351" rx="1.087" ry="1.085" fill="#fff"/><ellipse cx="12.768" cy="24.521" rx="1.087" ry="1.085" fill="#fff"/><ellipse cx="4.069" cy="15.775" rx="1.087" ry="1.085" fill="#fff"/><ellipse cx="21.466" cy="15.775" rx="1.087" ry="1.085" fill="#fff"/><ellipse cx="18.204" cy="22.351" rx="1.087" ry="1.085" fill="#fff"/><mask id="a" fill="#fff"><path fill-rule="evenodd" clip-rule="evenodd" d="M17.922 27.058a1.058 1.058 0 011.216.196l1.826 1.875a.682.682 0 00.977-.95l-1.357-1.394c-.426-.438-.361-1.15.098-1.552C23.324 22.92 25 19.47 25 15.614 25 8.648 19.523 3 12.768 3 6.012 3 .536 8.648.536 15.614c0 3.815 1.641 7.234 4.236 9.547.452.403.513 1.11.09 1.544l-1.434 1.473a.682.682 0 10.976.951l1.88-1.93a1.058 1.058 0 011.226-.191 11.878 11.878 0 005.258 1.221c1.841 0 3.587-.42 5.154-1.17zm-5.154-.23c6.005 0 10.873-5.02 10.873-11.213S18.773 4.402 12.768 4.402c-6.005 0-10.873 5.02-10.873 11.212 0 6.193 4.868 11.213 10.873 11.213zm-.76-11.53V7.94a.781.781 0 111.563 0v8.183c0 .443-.36.803-.803.803a.76.76 0 01-.76-.76V15.298z"/></mask><path fill-rule="evenodd" clip-rule="evenodd" d="M17.922 27.058a1.058 1.058 0 011.216.196l1.826 1.875a.682.682 0 00.977-.95l-1.357-1.394c-.426-.438-.361-1.15.098-1.552C23.324 22.92 25 19.47 25 15.614 25 8.648 19.523 3 12.768 3 6.012 3 .536 8.648.536 15.614c0 3.815 1.641 7.234 4.236 9.547.452.403.513 1.11.09 1.544l-1.434 1.473a.682.682 0 10.976.951l1.88-1.93a1.058 1.058 0 011.226-.191 11.878 11.878 0 005.258 1.221c1.841 0 3.587-.42 5.154-1.17zm-5.154-.23c6.005 0 10.873-5.02 10.873-11.213S18.773 4.402 12.768 4.402c-6.005 0-10.873 5.02-10.873 11.212 0 6.193 4.868 11.213 10.873 11.213zm-.76-11.53V7.94a.781.781 0 111.563 0v8.183c0 .443-.36.803-.803.803a.76.76 0 01-.76-.76V15.298z" fill="#fff"/><path d="M6.284 27.199l2.866 2.79-2.866-2.79zm1.226-.191l1.765-3.59-1.765 3.59zm-3.106 2.121L1.54 26.34l2.865 2.79zm-.976-.95l2.865 2.79-2.865-2.79zm17.156-1.394l-2.865 2.79 2.865-2.79zm.098-1.552l-2.635-3.009 2.635 3.01zm-15.91-.072L2.11 28.146l2.662-2.985zm.09 1.544l-2.866-2.79 2.866 2.79zm17.079 1.473l2.866-2.79-2.866 2.79zm-.977.951l2.866-2.79-2.866 2.79zm-1.825-1.875l-2.866 2.79 2.866-2.79zm-1.217-.196l-1.73-3.606 1.73 3.606zm-1.65 2.987L18.1 31.92l5.731-5.582-1.826-1.874-5.731 5.58zm8.535-4.658l-1.357-1.393-5.731 5.582 1.356 1.393 5.732-5.582zm-1.49 2.855C26.807 25.186 29 20.647 29 15.614h-8c0 2.677-1.16 5.04-2.953 6.61l5.27 6.018zM29 15.614C29 6.556 21.848-1 12.768-1v8C17.199 7 21 10.74 21 15.614h8zM12.768-1C3.688-1-3.464 6.556-3.464 15.614h8C4.536 10.74 8.336 7 12.768 7v-8zM-3.464 15.614c0 4.98 2.147 9.477 5.574 12.532l5.324-5.97c-1.762-1.572-2.898-3.913-2.898-6.561h-8zm5.46 8.3L.562 25.388l5.731 5.582 1.434-1.473-5.73-5.581zM7.27 31.92l1.88-1.93-5.732-5.582-1.88 1.93L7.27 31.92zm-1.525-1.323a15.878 15.878 0 007.023 1.632v-8a7.878 7.878 0 01-3.493-.811l-3.53 7.18zm7.023 1.632c2.456 0 4.792-.56 6.884-1.564l-3.46-7.213c-1.041.499-2.198.777-3.424.777v8zm0-1.402c8.33 0 14.873-6.928 14.873-15.213h-8c0 4.101-3.192 7.213-6.873 7.213v8zM27.64 15.614C27.64 7.33 21.097.402 12.768.402v8c3.68 0 6.873 3.112 6.873 7.213h8zM12.768.402C4.438.402-2.105 7.33-2.105 15.615h8c0-4.101 3.192-7.213 6.873-7.213v-8zM-2.105 15.615c0 8.284 6.544 15.212 14.873 15.212v-8c-3.68 0-6.873-3.112-6.873-7.213h-8zm11.676-.317v.543h8v-.543h-8zm0 .543v.282h8v-.282h-8zm6.437.325v-.325h-8v.325h8zm0-.325v-.543h-8v.543h8zm0-.543V11.5h-8v3.798h8zm0-3.798V7.94h-8v3.56h8zM9.571 7.94v3.56h8V7.94h-8zm0 3.56v3.798h8V11.5h-8zm3.219-8.34a4.781 4.781 0 00-4.782 4.78h8a3.219 3.219 0 01-3.218 3.22v-8zM9.57 16.123a3.197 3.197 0 013.198-3.197v8a4.803 4.803 0 004.803-4.803h-8zM9.15 29.99a2.943 2.943 0 01-3.405.607l3.53-7.179c-1.826-.898-4.227-.683-5.857.99L9.15 29.99zM.562 31.92a4.682 4.682 0 006.708 0l-5.731-5.582a3.318 3.318 0 014.754 0L.562 31.92zm0-6.533a4.682 4.682 0 000 6.533l5.731-5.582a3.318 3.318 0 010 4.63l-5.731-5.58zm22.888-1.393c1.343 1.38.944 3.305-.133 4.248l-5.27-6.018c-1.995 1.748-2.523 5.098-.328 7.352l5.731-5.582zM12.79 11.16a3.219 3.219 0 01-3.22-3.22h8c0-2.64-2.14-4.78-4.78-4.78v8zM2.11 28.146c-1.064-.948-1.447-2.862-.114-4.231l5.731 5.581c2.18-2.238 1.675-5.565-.293-7.32l-5.324 5.97zm22.697 3.774a4.682 4.682 0 000-6.533l-5.732 5.582a3.318 3.318 0 010-4.63l5.732 5.58zm-6.708 0a4.682 4.682 0 006.708 0l-5.732-5.582a3.318 3.318 0 014.755 0L18.1 31.92zm-5.331-18.994a3.24 3.24 0 013.24 3.24h-8a4.76 4.76 0 004.76 4.76v-8zm9.236 11.538c-1.616-1.66-3.992-1.886-5.813-1.012l3.46 7.212a2.943 2.943 0 01-3.378-.62l5.731-5.58z" fill="#fff" mask="url(#a)"/><path fill="#fff" d="M12 4V0h1.5v4z"/><rect x="5" width="15.5" height="1.5" rx=".75" fill="#fff"/></symbol></svg>